<?xml version="1.0" encoding="utf-8"?>
<!-- Generator: Adobe Illustrator 24.3.0, SVG Export Plug-In . SVG Version: 6.00 Build 0)  -->
<svg version="1.1" id="Layer_1" xmlns="http://www.w3.org/2000/svg" xmlns:xlink="http://www.w3.org/1999/xlink" x="0px" y="0px"
	 viewBox="0 0 531.3 254.8" style="enable-background:new 0 0 531.3 254.8;" xml:space="preserve">
<style type="text/css">
	.st0{fill:#F4F6F9;}
	.st1{fill:#FFFFFF;}
	.st2{fill:#AFAFAF;}
	.st3{clip-path:url(#SVGID_2_);}
	.st4{clip-path:url(#SVGID_4_);}
	.st5{clip-path:url(#SVGID_6_);}
	.st6{clip-path:url(#SVGID_8_);}
	.st7{clip-path:url(#SVGID_10_);}
	.st8{clip-path:url(#SVGID_12_);}
	.st9{clip-path:url(#SVGID_14_);}
	.st10{clip-path:url(#SVGID_16_);}
	.st11{fill-rule:evenodd;clip-rule:evenodd;fill:#AFAFAF;}
</style>
<g id="Group_164" transform="translate(-532.753 -2120.487)">
	<g id="Group_191">
		<path id="Path_991" class="st2" d="M633.9,2263.8l16.6-36.6h5.4l16.6,36.6h-4.4l-4.9-10.8h-20.1l-4.9,10.8H633.9z M644.7,2249.5
			h16.9l-6.3-13.9l-2-4.8H653l-2,4.8L644.7,2249.5z"/>
		<path id="Path_992" class="st2" d="M681.3,2263.8v-3.6l25.8-29.2v-0.3h-25v-3.6h30.7v3.6l-26.1,29.2v0.3h26.8v3.6H681.3z"/>
		<path id="Path_993" class="st2" d="M723.7,2252.2v-0.3h3.9v0.7c0,5.2,3.3,8.1,11.9,8.1c7.3,0,10.7-2,10.7-6.2
			c0-4.1-2.5-5.6-7.8-6.7l-7.8-1.5c-6-1.2-10.7-3.7-10.7-9.7c0-5,4.3-10,14.8-10c10.3,0,14.9,5.5,14.9,12.1v0.3h-3.9v-0.7
			c0-5.3-3.3-8.1-11.2-8.1c-7.3,0-10.5,2.1-10.5,6.1c0,4.2,2.4,5.4,7.8,6.6l7.7,1.5c6.6,1.3,10.8,4,10.8,9.7
			c0,5.2-4.4,10.2-14.6,10.2C728.8,2264.3,723.7,2259.2,723.7,2252.2z"/>
		<path id="Path_994" class="st2" d="M763.2,2245.5c0.2-10.2,8.6-18.4,18.8-18.2c10.2,0.2,18.4,8.6,18.2,18.8
			c-0.2,10.1-8.5,18.2-18.6,18.2c-9.8,0.5-18-7.1-18.5-16.8C763.2,2246.8,763.2,2246.2,763.2,2245.5z M796.2,2245.5
			c0-9.9-5.2-15.1-14.5-15.1c-9.2,0-14.4,5.1-14.4,15.1s5.1,15.1,14.4,15.1C791,2260.6,796.2,2255.4,796.2,2245.5z"/>
		<path id="Path_995" class="st2" d="M809.8,2263.8v-36.6h27.4v3.6h-23.5v14h22.7v3.5h-22.7v15.6L809.8,2263.8z"/>
		<path id="Path_996" class="st2" d="M860.3,2263.8v-33.1h-15.1v-3.6h34v3.6h-15v33.1H860.3z"/>
		<path id="Path_997" class="st2" d="M896.8,2263.8l-10.6-36.6h4.3l7.3,25.2l1.9,7.5h0.3l2.2-7.5l8.5-25.2h5.5l9.4,25.2l2.5,7.5h0.3
			l1.7-7.5l6.4-25.2h4.3l-9.5,36.6h-5.8l-8.9-23.8l-2.9-8.5h-0.4l-2.6,8.5l-8.1,23.8H896.8z"/>
		<path id="Path_998" class="st2" d="M947.3,2263.8l16.6-36.6h5.4l16.6,36.6h-4.4l-4.9-10.8h-20.1l-4.9,10.8H947.3z M958.1,2249.5
			H975l-6.3-13.9l-2-4.8h-0.3l-2,4.8L958.1,2249.5z"/>
		<path id="Path_999" class="st2" d="M994.9,2263.8v-36.6h17.9c7.7,0,12.8,3.9,12.8,10.6c0,6.2-4.5,10-11.3,10.2v0.3
			c2.2,0.7,4,2.3,5,4.4l6.9,11.2h-4.5l-6.5-10.6c-1.9-3.1-3.8-4.4-8.6-4.4h-7.9v15L994.9,2263.8z M998.8,2245.7h14
			c5.8,0,8.9-2.3,8.9-7.5c0-5.2-3.1-7.5-8.9-7.5h-14V2245.7z"/>
		<path id="Path_1000" class="st2" d="M1036.2,2263.8v-36.6h27.8v3.6h-23.9v12.9h23.1v3.5h-23.1v13.1h23.9v3.6L1036.2,2263.8z"/>
	</g>
	<g id="Group_216">
		<g id="Group_194">
			<g id="Group_193">
				<g>
					<defs>
						<path id="SVGID_1_" d="M618.3,2349c0.1,0.2,0.2,0.4,0.2,0.6C618.4,2349.4,618.4,2349.2,618.3,2349z"/>
					</defs>
					<use xlink:href="#SVGID_1_"  style="overflow:visible;fill:#AFAFAF;"/>
					<clipPath id="SVGID_2_">
						<use xlink:href="#SVGID_1_"  style="overflow:visible;"/>
					</clipPath>
					<g id="Group_192" class="st3">
						<rect id="Rectangle_114" x="618.3" y="2349" class="st2" width="0.2" height="0.6"/>
					</g>
				</g>
			</g>
		</g>
		<g id="Group_197">
			<g id="Group_196">
				<g>
					<defs>
						<path id="SVGID_3_" d="M755.6,2302.8c-0.5-0.2-1.1-0.3-1.6-0.3c-0.2,0-0.5,0-0.7,0.1l-0.4,0.1c-16.2,6.1-43.3,9.6-74.2,8.7
							c-1.9-2.5-5.5-3-8-1.1c-0.3,0.2-0.6,0.5-0.9,0.8c-14.8-0.8-29.4-2.5-44-5.1c-10.9-9.8-21.1-20.3-30.6-31.4
							c-2.5-16-3.9-32.2-4.1-48.4c8.5-13.3,17.8-26,28-38c16.8-5.3,34-9.4,51.4-12.1c1.8,2.6,5.3,3.3,7.9,1.6c1.1-0.7,1.8-1.7,2.2-3
							c18.5-2.3,37.2-2.6,55.7-0.8c0.7,3.1,3.8,5,6.9,4.2c1.6-0.4,2.9-1.4,3.7-2.8c2.5,0.4,4.9,0.8,7.3,1.3c0.9,0.4,2,0,2.3-0.9
							c0.4-0.9,0-2-0.9-2.3c0,0-0.1,0-0.1,0c-2.5-0.7-5.1-1.3-8-1.8c-0.6-3.1-3.6-5.2-6.7-4.6c-1.7,0.3-3.2,1.4-4.1,3
							c-18.9-1.9-37.9-1.9-56.7,0c-1.7-2.7-5.2-3.5-7.9-1.9c-1.1,0.7-1.9,1.7-2.4,3c-14.4,1.8-28.6,4.4-42.6,7.9
							c1.3-1.5,2.7-2.9,4.1-4.4c2.9,1.2,6.3-0.1,7.5-3.1c0.6-1.4,0.6-3.1,0-4.5c14.4-14.3,30.7-26.6,48.4-36.5l0,0
							c2.4,2,6,1.7,8.1-0.7c2-2.4,1.7-6-0.7-8.1c-2.4-2-6-1.7-8.1,0.7c-1.2,1.4-1.6,3.3-1.2,5c-13.7,6.5-31.5,19.2-49.9,36.4
							c-3-1.1-6.3,0.5-7.3,3.5c-0.4,1.2-0.4,2.5-0.1,3.7c-3.3,3.3-6.7,6.8-10,10.4c-8.5,2.4-17,5.2-25.3,8.4
							c1.8-17.7,5.8-35.2,11.8-51.9l0,0c3.2,0,5.7-2.6,5.6-5.8c0-3.2-2.6-5.7-5.8-5.7c-3.2,0-5.7,2.6-5.6,5.8c0,1.8,0.9,3.5,2.4,4.6
							c-5.6,12.9-10.4,32.1-13.1,54.8c-12.2,4.8-23.9,10.7-35.2,17.4c-2.2-5-4.1-10-5.8-15c-0.1-1-1-1.7-2-1.6c-1,0.1-1.7,1-1.6,2
							c0,0.1,0,0.1,0,0.2c1.6,5.7,3.5,11.2,5.9,16.6c-3,1.9-5.9,3.8-8.8,5.8l-0.6,0.4c-0.9,0.6-1.5,1.6-1.8,2.6
							c-0.5,2.4,1,4.8,3.4,5.3c0.9,0.2,1.8,0.1,2.6-0.2c0.2-0.1,0.5-0.2,0.7-0.4l0.3-0.2c2.4-2.1,4.9-4,7.5-5.8
							c1.5,3.1,3.1,6.4,4.9,9.7c-2,2.5-1.6,6.1,0.9,8c1.2,1,2.8,1.4,4.3,1.2c2.1,3.5,4.3,7.1,6.6,10.8c-6,11.1-11.1,22.6-15.3,34.4
							c-4.8-2.4-9.5-5.1-14-7.9c-0.7-0.7-1.8-0.7-2.5,0c-0.7,0.7-0.7,1.8,0,2.5c0,0,0.1,0.1,0.1,0.1c4.8,3.3,9.8,6.4,15,9
							c-1.3,3.9-2.5,7.8-3.5,11.8l-0.2,0.7c-0.5,1.7,0.1,3.5,1.5,4.6c1.9,1.5,4.7,1.2,6.2-0.7c0.2-0.2,0.3-0.4,0.4-0.7
							c0.1-0.2,0.2-0.5,0.3-0.7l0.1-0.3c0.6-3.7,1.5-7.3,2.5-10.9c3.4,1.6,7.1,3.2,10.9,4.7c0.1,3.2,2.7,5.7,5.9,5.6
							c1.5,0,3-0.7,4-1.8c3.9,1.4,7.9,2.8,12,4.1c3.9,18,9.9,35.4,17.9,52c0.1,0.2,0.2,0.4,0.3,0.6c0.8,1.6,2.4,2.6,4.2,2.5
							c2.5-0.1,4.3-2.2,4.2-4.7c0-0.3-0.1-0.5-0.1-0.8c-0.1-0.2-0.1-0.5-0.2-0.7l-0.1-0.3c-6.5-10.5-12.8-26.6-17.9-46.1
							c6.1,1.8,12.4,3.4,18.9,4.9c20,19.7,43.2,36,68.6,48.2l0.6,0.3c1,0.5,2.1,0.5,3.2,0.2c2.3-0.8,3.6-3.3,2.9-5.6
							c-0.1-0.3-0.2-0.6-0.4-0.9c-0.3-0.5-0.7-0.9-1.1-1.2c-0.2-0.1-0.4-0.3-0.6-0.4l-0.3-0.2c-15.6-5.4-37.2-18.8-59.3-37.6
							c11.7,2.2,23.4,3.8,35.3,4.7c1.6,2.7,5.1,3.6,7.8,2c0.6-0.4,1.1-0.8,1.6-1.4c25.5,1.6,51.2-0.8,76-7l0.7-0.2
							c1.1-0.3,2-0.9,2.6-1.9c1.3-2.1,0.7-4.8-1.4-6.1C756.1,2303.1,755.8,2302.9,755.6,2302.8L755.6,2302.8z M592,2198.1
							c5.4-2.3,11.1-4.4,17.1-6.5c-6.1,7.2-12.2,14.7-17.9,22.7C591.3,2208.8,591.5,2203.4,592,2198.1L592,2198.1z M566.7,2235.6
							c2-2.5,1.6-6.1-0.9-8c-1.3-1-2.9-1.4-4.5-1.2c-1.8-3.3-3.5-6.6-5.1-9.9c9.8-6.3,20.2-11.7,30.9-16.3c-0.6,7-1.1,14.2-1.3,21.7
							c-4.9,7.2-9.5,14.6-13.8,22.3C570.2,2241.2,568.5,2238.4,566.7,2235.6z M587.2,2264.9c-3.6-4.6-7.1-9.2-10.5-14
							c2.7-5.2,5.7-10.6,8.9-16C585.8,2244.7,586.3,2254.8,587.2,2264.9L587.2,2264.9z M582.8,2294.9c0-3.2-2.6-5.7-5.8-5.7
							c-1.6,0-3.2,0.7-4.2,1.9c-3.8-1.5-7.5-3.1-11.1-4.7c3.5-10.6,7.7-20.9,12.8-30.8c4.3,6.3,8.9,12.7,13.9,19.1
							c1,7.7,2.2,15.5,3.8,23.2C589,2296.9,585.8,2295.9,582.8,2294.9L582.8,2294.9z M600.2,2300.2c-1.2-4.8-2.2-9.7-3.2-14.8
							c5.2,6.1,10.7,12.2,16.6,18.2C609.1,2302.5,604.6,2301.4,600.2,2300.2L600.2,2300.2z"/>
					</defs>
					<use xlink:href="#SVGID_3_"  style="overflow:visible;fill:#AFAFAF;"/>
					<clipPath id="SVGID_4_">
						<use xlink:href="#SVGID_3_"  style="overflow:visible;"/>
					</clipPath>
					<g id="Group_195" class="st4">
						<path id="Path_1002" class="st2" d="M597,2302.7l0.6,0.9H597V2302.7z"/>
						<path id="Path_1003" class="st2" d="M597,2299l3,4.6h-2.4l-0.6-0.9L597,2299z"/>
						<path id="Path_1004" class="st2" d="M597,2295.3l5.4,8.3H600l-3-4.6V2295.3z"/>
						<path id="Path_1005" class="st2" d="M597,2291.5l7.8,12h-2.4l-5.4-8.3L597,2291.5z"/>
						<path id="Path_1006" class="st2" d="M597,2287.8l10.3,15.7h-2.4l-7.8-12V2287.8z"/>
						<path id="Path_1007" class="st2" d="M597.9,2285.4l11.9,18.2h-2.4l-10.3-15.7v-2.5L597.9,2285.4z"/>
						<path id="Path_1008" class="st2" d="M600.3,2285.4l11.9,18.2h-2.4l-11.9-18.2H600.3z"/>
						<path id="Path_1009" class="st2" d="M602.7,2285.4l10.9,16.6v1.6h-1.4l-11.9-18.2L602.7,2285.4z"/>
						<path id="Path_1010" class="st2" d="M605.1,2285.4l8.4,12.9v3.7l-10.9-16.6H605.1z"/>
						<path id="Path_1011" class="st2" d="M607.6,2285.4l6,9.2v3.7l-8.4-12.9L607.6,2285.4z"/>
						<path id="Path_1012" class="st2" d="M610,2285.4l3.6,5.5v3.7l-6-9.2L610,2285.4z"/>
						<path id="Path_1013" class="st2" d="M612.4,2285.4l1.2,1.8v3.7l-3.6-5.5L612.4,2285.4z"/>
						<path id="Path_1014" class="st2" d="M613.6,2287.1l-1.2-1.8h1.2V2287.1z"/>
						<path id="Path_1015" class="st2" d="M561.6,2296.8l0.7,1.1h-0.7V2296.8z"/>
						<path id="Path_1016" class="st2" d="M561.6,2293.1l3.1,4.8h-2.4l-0.7-1.1L561.6,2293.1z"/>
						<path id="Path_1017" class="st2" d="M561.6,2289.4l5.6,8.5h-2.4l-3.1-4.8L561.6,2289.4z"/>
						<path id="Path_1018" class="st2" d="M561.6,2285.7l8,12.2h-2.4l-5.6-8.5L561.6,2285.7z"/>
						<path id="Path_1019" class="st2" d="M561.6,2282l10.4,15.9h-2.4l-8-12.2L561.6,2282z"/>
						<path id="Path_1020" class="st2" d="M561.6,2278.3l12.9,19.6H572l-10.4-15.9V2278.3z"/>
						<path id="Path_1021" class="st2" d="M561.6,2274.5l15.3,23.4h-2.4l-12.9-19.6L561.6,2274.5z"/>
						<path id="Path_1022" class="st2" d="M561.6,2270.8l17.7,27.1h-2.4l-15.3-23.4L561.6,2270.8z"/>
						<path id="Path_1023" class="st2" d="M561.6,2267.1l20.2,30.8h-2.4l-17.7-27.1V2267.1z"/>
						<path id="Path_1024" class="st2" d="M561.6,2263.4l22.6,34.5h-2.4l-20.2-30.8V2263.4z"/>
						<path id="Path_1025" class="st2" d="M561.6,2262.6l1.3-0.9l23.7,36.2h-2.4l-22.6-34.5L561.6,2262.6z"/>
						<path id="Path_1026" class="st2" d="M562.9,2261.7l1.7-1.1l24.4,37.3h-2.4L562.9,2261.7z"/>
						<path id="Path_1027" class="st2" d="M564.6,2260.6l1.7-1.1l25.2,38.4H589L564.6,2260.6z"/>
						<path id="Path_1028" class="st2" d="M566.3,2259.5l1.7-1.1l24.1,36.8v2.7h-0.7L566.3,2259.5z"/>
						<path id="Path_1029" class="st2" d="M568,2258.4l1.7-1.1l22.4,34.2v3.7L568,2258.4z"/>
						<path id="Path_1030" class="st2" d="M569.7,2257.3l1.7-1.1l20.7,31.6v3.7L569.7,2257.3z"/>
						<path id="Path_1031" class="st2" d="M571.4,2256.1l0.8-0.6h1.2l18.6,28.5v3.7L571.4,2256.1z"/>
						<path id="Path_1032" class="st2" d="M575.9,2255.6l16.2,24.7v3.7l-18.6-28.5H575.9z"/>
						<path id="Path_1033" class="st2" d="M578.3,2255.6l13.8,21.1v3.7l-16.2-24.7L578.3,2255.6z"/>
						<path id="Path_1034" class="st2" d="M580.8,2255.6l11.3,17.3v3.7l-13.8-21.1L580.8,2255.6z"/>
						<path id="Path_1035" class="st2" d="M583.2,2255.6l8.9,13.6v3.7l-11.3-17.3H583.2z"/>
						<path id="Path_1036" class="st2" d="M585.6,2255.6l6.5,9.9v3.7l-8.9-13.6L585.6,2255.6z"/>
						<path id="Path_1037" class="st2" d="M588.1,2255.6l4.1,6.2v3.7l-6.5-9.9H588.1z"/>
						<path id="Path_1038" class="st2" d="M590.5,2255.6l1.6,2.5v3.7l-4.1-6.2L590.5,2255.6z"/>
						<path id="Path_1039" class="st2" d="M592.1,2258.1l-1.6-2.5h1.6V2258.1z"/>
						<path id="Path_1040" class="st2" d="M576.8,2264.3l0.4,0.6h-0.4V2264.3z"/>
						<path id="Path_1041" class="st2" d="M576.8,2260.6l2.8,4.3h-2.4l-0.4-0.6L576.8,2260.6z"/>
						<path id="Path_1042" class="st2" d="M576.8,2256.9l5.3,8h-2.4l-2.8-4.3V2256.9z"/>
						<path id="Path_1043" class="st2" d="M576.8,2253.2l7.7,11.8H582l-5.3-8L576.8,2253.2z"/>
						<path id="Path_1044" class="st2" d="M576.8,2249.5l10.1,15.5h-2.4l-7.7-11.8L576.8,2249.5z"/>
						<path id="Path_1045" class="st2" d="M576.8,2245.7l10.5,16v3.2h-0.3l-10.1-15.5L576.8,2245.7z"/>
						<path id="Path_1046" class="st2" d="M576.8,2242l10.5,16v3.7l-10.5-16V2242z"/>
						<path id="Path_1047" class="st2" d="M576.8,2239.4l0.5-0.3l10,15.3v3.7l-10.5-16L576.8,2239.4z"/>
						<path id="Path_1048" class="st2" d="M577.2,2239l1.7-1.1l8.3,12.7v3.7L577.2,2239z"/>
						<path id="Path_1049" class="st2" d="M578.9,2237.9l1.7-1.1l6.6,10.1v3.7L578.9,2237.9z"/>
						<path id="Path_1050" class="st2" d="M580.6,2236.8l1.7-1.1l4.9,7.5v3.7L580.6,2236.8z"/>
						<path id="Path_1051" class="st2" d="M582.3,2235.7l1.3-0.8h0.6l3,4.6v3.7L582.3,2235.7z"/>
						<path id="Path_1052" class="st2" d="M586.6,2234.9l0.6,0.9v3.7l-3-4.6L586.6,2234.9z"/>
						<path id="Path_1053" class="st2" d="M587.2,2235.8l-0.6-0.9h0.6V2235.8z"/>
						<path id="Path_1054" class="st2" d="M556.3,2240.5l2.3,3.5h-2.3V2240.5z"/>
						<path id="Path_1055" class="st2" d="M556.3,2236.8l4.7,7.2h-2.4l-2.3-3.5L556.3,2236.8z"/>
						<path id="Path_1056" class="st2" d="M556.3,2233.1l7.2,10.9H561l-4.7-7.2V2233.1z"/>
						<path id="Path_1057" class="st2" d="M556.3,2229.4l9.6,14.6h-2.4l-7.2-10.9L556.3,2229.4z"/>
						<path id="Path_1058" class="st2" d="M556.3,2225.7l12,18.4h-2.4l-9.6-14.6L556.3,2225.7z"/>
						<path id="Path_1059" class="st2" d="M556.3,2221.9l14.4,22.1h-2.4l-12-18.4V2221.9z"/>
						<path id="Path_1060" class="st2" d="M556.3,2218.2l16.9,25.8h-2.4l-14.4-22.1V2218.2z"/>
						<path id="Path_1061" class="st2" d="M556.3,2215l0.2-0.1l18.7,28.5l-1,0.7h-1l-16.9-25.8L556.3,2215z"/>
						
							<rect id="Rectangle_115" x="565.7" y="2211.5" transform="matrix(0.8366 -0.5478 0.5478 0.8366 -1128.1353 674.4927)" class="st2" width="2" height="34.1"/>
						
							<rect id="Rectangle_116" x="567.4" y="2210.4" transform="matrix(0.8366 -0.5478 0.5478 0.8366 -1127.2482 675.2412)" class="st2" width="2" height="34.1"/>
						
							<rect id="Rectangle_117" x="569.1" y="2209.3" transform="matrix(0.8366 -0.5478 0.5478 0.8366 -1126.3606 675.9913)" class="st2" width="2" height="34.1"/>
						
							<rect id="Rectangle_118" x="570.8" y="2208.2" transform="matrix(0.8366 -0.5478 0.5478 0.8366 -1125.4729 676.7415)" class="st2" width="2" height="34.1"/>
						
							<rect id="Rectangle_119" x="572.5" y="2207.1" transform="matrix(0.8366 -0.5478 0.5478 0.8366 -1124.728 677.6501)" class="st2" width="2" height="34"/>
						
							<rect id="Rectangle_120" x="574.2" y="2206" transform="matrix(0.8366 -0.5478 0.5478 0.8366 -1123.8403 678.3986)" class="st2" width="2" height="34"/>
						
							<rect id="Rectangle_121" x="575.9" y="2204.8" transform="matrix(0.8366 -0.5478 0.5478 0.8366 -1122.8087 678.9895)" class="st2" width="2" height="34.1"/>
						<path id="Path_1062" class="st2" d="M568.4,2207.1l1.7-1.1l17,26v3.5l-0.1,0.1L568.4,2207.1z"/>
						<path id="Path_1063" class="st2" d="M570.1,2206l1.7-1.1l15.3,23.4v3.7L570.1,2206z"/>
						<path id="Path_1064" class="st2" d="M571.8,2204.8l1.7-1.1l13.6,20.8v3.7L571.8,2204.8z"/>
						<path id="Path_1065" class="st2" d="M573.5,2203.7l1.7-1.1l11.9,18.2v3.7L573.5,2203.7z"/>
						<path id="Path_1066" class="st2" d="M575.2,2202.6l1.7-1.1l10.2,15.6v3.7L575.2,2202.6z"/>
						<path id="Path_1067" class="st2" d="M576.9,2201.5l1.7-1.1l8.5,13v3.7L576.9,2201.5z"/>
						<path id="Path_1068" class="st2" d="M578.6,2200.4l0.4-0.3h1.8l6.3,9.6v3.7L578.6,2200.4z"/>
						<path id="Path_1069" class="st2" d="M583.3,2200.1l3.9,5.9v3.7l-6.3-9.6L583.3,2200.1z"/>
						<path id="Path_1070" class="st2" d="M585.7,2200.1l1.4,2.2v3.7l-3.9-5.9H585.7z"/>
						<path id="Path_1071" class="st2" d="M587.2,2202.3l-1.4-2.2h1.4V2202.3z"/>
						<path id="Path_1072" class="st2" d="M591.1,2212l1.4,2.2h-1.4V2212z"/>
						<path id="Path_1073" class="st2" d="M591.1,2208.3l3.3,5.1l-1.2,0.8h-0.7l-1.4-2.2L591.1,2208.3z"/>
						<path id="Path_1074" class="st2" d="M591.1,2204.6l5,7.7l-1.7,1.1l-3.3-5.1V2204.6z"/>
						<path id="Path_1075" class="st2" d="M591.1,2200.9l6.7,10.3l-1.7,1.1l-5-7.7L591.1,2200.9z"/>
						<path id="Path_1076" class="st2" d="M591.1,2197.2L591.1,2197.2l8.4,12.9l-1.7,1.1l-6.7-10.3L591.1,2197.2z"/>
						
							<rect id="Rectangle_122" x="595.2" y="2195.4" transform="matrix(0.8366 -0.5478 0.5478 0.8366 -1109.3705 686.4881)" class="st2" width="2" height="15.4"/>
						
							<rect id="Rectangle_123" x="596.9" y="2194.3" transform="matrix(0.8366 -0.5478 0.5478 0.8366 -1108.4828 687.2382)" class="st2" width="2" height="15.4"/>
						
							<rect id="Rectangle_124" x="598.6" y="2193.2" transform="matrix(0.8366 -0.5478 0.5478 0.8366 -1107.5952 687.9882)" class="st2" width="2" height="15.4"/>
						
							<rect id="Rectangle_125" x="600.3" y="2192.1" transform="matrix(0.8366 -0.5478 0.5478 0.8366 -1106.7081 688.7367)" class="st2" width="2" height="15.4"/>
						
							<rect id="Rectangle_126" x="602" y="2191" transform="matrix(0.8366 -0.5478 0.5478 0.8366 -1105.819 689.4864)" class="st2" width="2" height="15.4"/>
						<path id="Path_1077" class="st2" d="M599.6,2191.7l0.2-0.1h2.2l7,10.7v1.7l-0.9,0.6L599.6,2191.7z"/>
						<path id="Path_1078" class="st2" d="M604.4,2191.5l4.6,7v3.7l-7-10.7H604.4z"/>
						<path id="Path_1079" class="st2" d="M606.9,2191.5l2.1,3.3v3.7l-4.6-7L606.9,2191.5z"/>
						<path id="Path_1080" class="st2" d="M609,2194.8l-2.1-3.3h2.1V2194.8z"/>
						<path id="Path_1081" class="st2" d="M537.2,2356l2.2,3.3h-2.2V2356z"/>
						<path id="Path_1082" class="st2" d="M537.2,2352.3l4.6,7h-2.4l-2.2-3.3L537.2,2352.3z"/>
						<path id="Path_1083" class="st2" d="M537.2,2348.6l7,10.7h-2.4l-4.6-7L537.2,2348.6z"/>
						<path id="Path_1084" class="st2" d="M537.2,2344.9l9.5,14.4h-2.4l-7-10.7V2344.9z"/>
						<path id="Path_1085" class="st2" d="M537.2,2341.2l11.9,18.2h-2.4l-9.5-14.4V2341.2z"/>
						<path id="Path_1086" class="st2" d="M537.2,2337.5l14.3,21.9h-2.4l-11.9-18.2L537.2,2337.5z"/>
						<path id="Path_1087" class="st2" d="M537.2,2333.8l16.8,25.6h-2.4l-14.3-21.9V2333.8z"/>
						<path id="Path_1088" class="st2" d="M537.2,2330.1l19.2,29.3H554l-16.8-25.6L537.2,2330.1z"/>
						<path id="Path_1089" class="st2" d="M537.2,2326.4l21.6,33h-2.4l-19.2-29.3L537.2,2326.4z"/>
						<path id="Path_1090" class="st2" d="M537.2,2322.6l24,36.7h-2.4l-21.6-33L537.2,2322.6z"/>
						<path id="Path_1091" class="st2" d="M537.2,2318.9l26.5,40.4h-2.4l-24-36.7V2318.9z"/>
						<path id="Path_1092" class="st2" d="M537.2,2315.2l28.9,44.1h-2.4l-26.5-40.4L537.2,2315.2z"/>
						<path id="Path_1093" class="st2" d="M537.2,2311.5l31.3,47.8h-2.4l-28.9-44.1V2311.5z"/>
						<path id="Path_1094" class="st2" d="M537.2,2307.8l33.7,51.5h-2.4l-31.3-47.8V2307.8z"/>
						<path id="Path_1095" class="st2" d="M537.2,2304.1l36.2,55.3H571l-33.7-51.5V2304.1z"/>
						<path id="Path_1096" class="st2" d="M537.2,2300.4l38.6,59h-2.4l-36.2-55.3V2300.4z"/>
						<path id="Path_1097" class="st2" d="M537.2,2296.7l41,62.7h-2.4l-38.6-59V2296.7z"/>
						<path id="Path_1098" class="st2" d="M537.2,2293l43.5,66.4h-2.4l-41-62.7V2293z"/>
						<path id="Path_1099" class="st2" d="M537.2,2289.3l45.9,70.1h-2.4l-43.5-66.4V2289.3z"/>
						<path id="Path_1100" class="st2" d="M537.2,2285.5l48.3,73.8h-2.4l-45.9-70.1V2285.5z"/>
						<path id="Path_1101" class="st2" d="M537.2,2281.8l50.8,77.5h-2.4l-48.3-73.8V2281.8z"/>
						<path id="Path_1102" class="st2" d="M537.2,2278.1l53.2,81.2H588l-50.8-77.5V2278.1z"/>
						<path id="Path_1103" class="st2" d="M537.2,2274.4l55.6,84.9h-2.4l-53.2-81.2V2274.4z"/>
						<path id="Path_1104" class="st2" d="M537.2,2270.7l58.1,88.7h-2.4l-55.6-84.9V2270.7z"/>
						<path id="Path_1105" class="st2" d="M537.2,2267l60.5,92.4h-2.4l-58.1-88.7V2267z"/>
						<path id="Path_1106" class="st2" d="M537.2,2263.3l62.9,96.1h-2.4l-60.5-92.4V2263.3z"/>
						<path id="Path_1107" class="st2" d="M537.2,2259.6l65.3,99.8h-2.4l-62.9-96.1V2259.6z"/>
						<path id="Path_1108" class="st2" d="M537.2,2255.9l67.8,103.5h-2.4l-65.3-99.8L537.2,2255.9z"/>
						<path id="Path_1109" class="st2" d="M537.2,2252.2l70.2,107.2H605l-67.8-103.5V2252.2z"/>
						<path id="Path_1110" class="st2" d="M537.2,2248.4l72.6,110.9h-2.4l-70.2-107.2V2248.4z"/>
						<path id="Path_1111" class="st2" d="M537.2,2244.7l75.1,114.6h-2.4l-72.6-110.9V2244.7z"/>
						<path id="Path_1112" class="st2" d="M537.2,2241l77.5,118.3h-2.4l-75.1-114.6V2241z"/>
						<path id="Path_1113" class="st2" d="M537.2,2237.3l79.9,122h-2.4L537.2,2241V2237.3z"/>
						<path id="Path_1114" class="st2" d="M537.2,2233.6l82.4,125.8h-2.4l-79.9-122V2233.6z"/>
						<path id="Path_1115" class="st2" d="M537.2,2229.9l84.8,129.5h-2.4l-82.4-125.8L537.2,2229.9z"/>
						<path id="Path_1116" class="st2" d="M537.2,2226.2l87.2,133.2H622l-84.8-129.5V2226.2z"/>
						<path id="Path_1117" class="st2" d="M537.2,2222.5l89.6,136.9h-2.4l-87.2-133.2V2222.5z"/>
						<path id="Path_1118" class="st2" d="M537.2,2218.8l92.1,140.6h-2.4l-89.6-136.9V2218.8z"/>
						<path id="Path_1119" class="st2" d="M537.2,2215l94.5,144.3h-2.4l-92.1-140.6V2215z"/>
						<path id="Path_1120" class="st2" d="M537.2,2211.3l96.9,148h-2.4L537.2,2215V2211.3z"/>
						<path id="Path_1121" class="st2" d="M537.2,2207.6l99.4,151.7h-2.4l-96.9-148V2207.6z"/>
						<path id="Path_1122" class="st2" d="M537.2,2203.9L639,2359.4h-2.4l-99.4-151.7V2203.9z"/>
						<path id="Path_1123" class="st2" d="M537.2,2200.2l104.2,159.2H639l-101.8-155.4V2200.2z"/>
						<path id="Path_1124" class="st2" d="M537.2,2196.5l106.7,162.9h-2.4l-104.2-159.1V2196.5z"/>
						<path id="Path_1125" class="st2" d="M537.2,2192.8l109.1,166.6h-2.4l-106.7-162.9V2192.8z"/>
						<path id="Path_1126" class="st2" d="M537.2,2189.1l111.5,170.3h-2.4l-109.1-166.6V2189.1z"/>
						<path id="Path_1127" class="st2" d="M537.2,2185.4l113.9,174h-2.4l-111.5-170.3V2185.4z"/>
						<path id="Path_1128" class="st2" d="M537.2,2181.7l116.4,177.7h-2.4l-113.9-174V2181.7z"/>
						<path id="Path_1129" class="st2" d="M537.2,2177.9L656,2359.4h-2.4l-116.4-177.7V2177.9z"/>
						<path id="Path_1130" class="st2" d="M537.2,2174.2l121.2,185.1H656l-118.8-181.4V2174.2z"/>
						<path id="Path_1131" class="st2" d="M537.2,2170.5l123.7,188.8h-2.4l-121.2-185.1V2170.5z"/>
						<path id="Path_1132" class="st2" d="M537.2,2167l0.1-0.1l126,192.4h-2.4l-123.7-188.8V2167z"/>
						<path id="Path_1133" class="st2" d="M537.3,2167l1.7-1.1l126.7,193.5h-2.4L537.3,2167z"/>
						<path id="Path_1134" class="st2" d="M539,2165.9l1.7-1.1l127.5,194.6h-2.4L539,2165.9z"/>
						<path id="Path_1135" class="st2" d="M540.7,2164.7l1.7-1.1l128.2,195.7h-2.4L540.7,2164.7z"/>
						<path id="Path_1136" class="st2" d="M542.4,2163.6l1.7-1.1L673,2359.4h-2.4L542.4,2163.6z"/>
						<path id="Path_1137" class="st2" d="M544.1,2162.5l1.7-1.1l129.6,198H673L544.1,2162.5z"/>
						<path id="Path_1138" class="st2" d="M545.8,2161.4l1.7-1.1l130.4,199.1h-2.4L545.8,2161.4z"/>
						<path id="Path_1139" class="st2" d="M547.5,2160.3l1.7-1.1l131.1,200.2h-2.4L547.5,2160.3z"/>
						<path id="Path_1140" class="st2" d="M549.2,2159.2l1.7-1.1l131.8,201.3h-2.4L549.2,2159.2z"/>
						<path id="Path_1141" class="st2" d="M550.9,2158.1l1.7-1.1l132.6,202.4h-2.4L550.9,2158.1z"/>
						<path id="Path_1142" class="st2" d="M552.6,2156.9l1.7-1.1l133.3,203.5h-2.4L552.6,2156.9z"/>
						<path id="Path_1143" class="st2" d="M554.3,2155.8l1.7-1.1l134,204.6h-2.4L554.3,2155.8z"/>
						<path id="Path_1144" class="st2" d="M556,2154.7l1.7-1.1l134.7,205.8H690L556,2154.7z"/>
						<path id="Path_1145" class="st2" d="M557.7,2153.6l1.7-1.1l135.4,206.8l-0.1,0.1h-2.3L557.7,2153.6z"/>
						
							<rect id="Rectangle_127" x="627" y="2131.7" transform="matrix(0.8366 -0.5478 0.5478 0.8366 -1132.821 712.4521)" class="st2" width="2" height="247.3"/>
						
							<rect id="Rectangle_128" x="628.7" y="2130.6" transform="matrix(0.8366 -0.5478 0.5478 0.8366 -1131.9324 713.2001)" class="st2" width="2" height="247.3"/>
						
							<rect id="Rectangle_129" x="630.4" y="2129.5" transform="matrix(0.8366 -0.5478 0.5478 0.8366 -1131.0464 713.9506)" class="st2" width="2" height="247.3"/>
						
							<rect id="Rectangle_130" x="632.1" y="2128.4" transform="matrix(0.8366 -0.5478 0.5478 0.8366 -1130.1572 714.7003)" class="st2" width="2" height="247.3"/>
						
							<rect id="Rectangle_131" x="633.8" y="2127.3" transform="matrix(0.8366 -0.5478 0.5478 0.8366 -1129.2697 715.4503)" class="st2" width="2" height="247.3"/>
						
							<rect id="Rectangle_132" x="635.5" y="2126.2" transform="matrix(0.8366 -0.5478 0.5478 0.8366 -1128.3826 716.1989)" class="st2" width="2" height="247.3"/>
						
							<rect id="Rectangle_133" x="637.2" y="2125.1" transform="matrix(0.8366 -0.5478 0.5478 0.8366 -1127.6161 717.0978)" class="st2" width="2" height="247.2"/>
						
							<rect id="Rectangle_134" x="638.9" y="2123.9" transform="matrix(0.8366 -0.5478 0.5478 0.8366 -1126.7268 717.8476)" class="st2" width="2" height="247.2"/>
						
							<rect id="Rectangle_135" x="640.6" y="2122.8" transform="matrix(0.8366 -0.5478 0.5478 0.8366 -1125.7186 718.447)" class="st2" width="2" height="247.3"/>
						
							<rect id="Rectangle_136" x="642.3" y="2121.7" transform="matrix(0.8366 -0.5478 0.5478 0.8366 -1124.9513 719.3463)" class="st2" width="2" height="247.2"/>
						
							<rect id="Rectangle_137" x="644" y="2120.6" transform="matrix(0.8366 -0.5478 0.5478 0.8366 -1124.0636 720.0963)" class="st2" width="2" height="247.2"/>
						
							<rect id="Rectangle_138" x="645.7" y="2119.5" transform="matrix(0.8366 -0.5478 0.5478 0.8366 -1123.0554 720.6972)" class="st2" width="2" height="247.3"/>
						
							<rect id="Rectangle_139" x="647.4" y="2118.4" transform="matrix(0.8366 -0.5478 0.5478 0.8366 -1122.2865 721.5962)" class="st2" width="2" height="247.2"/>
						
							<rect id="Rectangle_140" x="649.1" y="2117.3" transform="matrix(0.8366 -0.5478 0.5478 0.8366 -1121.2792 722.1952)" class="st2" width="2" height="247.3"/>
						
							<rect id="Rectangle_141" x="650.8" y="2116.1" transform="matrix(0.8366 -0.5478 0.5478 0.8366 -1120.5114 723.0949)" class="st2" width="2" height="247.2"/>
						
							<rect id="Rectangle_142" x="652.5" y="2115" transform="matrix(0.8366 -0.5478 0.5478 0.8366 -1119.6237 723.845)" class="st2" width="2" height="247.2"/>
						
							<rect id="Rectangle_143" x="654.2" y="2113.9" transform="matrix(0.8366 -0.5478 0.5478 0.8366 -1118.6169 724.4439)" class="st2" width="2" height="247.3"/>
						
							<rect id="Rectangle_144" x="655.9" y="2112.8" transform="matrix(0.8366 -0.5478 0.5478 0.8366 -1117.8485 725.3438)" class="st2" width="2" height="247.2"/>
						
							<rect id="Rectangle_145" x="657.6" y="2111.7" transform="matrix(0.8366 -0.5478 0.5478 0.8366 -1116.9592 726.0935)" class="st2" width="2" height="247.2"/>
						
							<rect id="Rectangle_146" x="659.3" y="2110.6" transform="matrix(0.8366 -0.5478 0.5478 0.8366 -1115.9526 726.6937)" class="st2" width="2" height="247.3"/>
						
							<rect id="Rectangle_147" x="661" y="2109.5" transform="matrix(0.8366 -0.5478 0.5478 0.8366 -1115.0654 727.4422)" class="st2" width="2" height="247.3"/>
						
							<rect id="Rectangle_148" x="662.7" y="2108.3" transform="matrix(0.8366 -0.5478 0.5478 0.8366 -1114.1779 728.1923)" class="st2" width="2" height="247.3"/>
						
							<rect id="Rectangle_149" x="664.4" y="2107.2" transform="matrix(0.8366 -0.5478 0.5478 0.8366 -1113.2903 728.9424)" class="st2" width="2" height="247.3"/>
						
							<rect id="Rectangle_150" x="666.1" y="2106.1" transform="matrix(0.8366 -0.5478 0.5478 0.8366 -1112.4008 729.6918)" class="st2" width="2" height="247.3"/>
						
							<rect id="Rectangle_151" x="667.8" y="2105" transform="matrix(0.8366 -0.5478 0.5478 0.8366 -1111.5137 730.4403)" class="st2" width="2" height="247.3"/>
						
							<rect id="Rectangle_152" x="669.5" y="2103.9" transform="matrix(0.8366 -0.5478 0.5478 0.8366 -1110.626 731.1904)" class="st2" width="2" height="247.3"/>
						
							<rect id="Rectangle_153" x="671.2" y="2102.8" transform="matrix(0.8366 -0.5478 0.5478 0.8366 -1109.7384 731.9404)" class="st2" width="2" height="247.3"/>
						
							<rect id="Rectangle_154" x="672.9" y="2101.7" transform="matrix(0.8366 -0.5478 0.5478 0.8366 -1108.8497 732.6885)" class="st2" width="2" height="247.3"/>
						
							<rect id="Rectangle_155" x="674.6" y="2100.5" transform="matrix(0.8366 -0.5478 0.5478 0.8366 -1107.9622 733.4385)" class="st2" width="2" height="247.3"/>
						<path id="Path_1146" class="st2" d="M608.7,2120.2l0.6-0.4h1.6l135,206.1l-1.7,1.1L608.7,2120.2z"/>
						<path id="Path_1147" class="st2" d="M613.3,2119.8l134.2,205l-1.7,1.1l-135-206.1H613.3z"/>
						<path id="Path_1148" class="st2" d="M615.8,2119.8l133.5,203.9l-1.7,1.1l-134.2-205H615.8z"/>
						<path id="Path_1149" class="st2" d="M618.2,2119.8L751,2322.6l-1.7,1.1l-133.5-203.9H618.2z"/>
						<path id="Path_1150" class="st2" d="M620.6,2119.8l132,201.6l-1.7,1.1l-132.8-202.8H620.6z"/>
						<path id="Path_1151" class="st2" d="M623.1,2119.8l131.3,200.5l-1.7,1.1l-132-201.6H623.1z"/>
						<path id="Path_1152" class="st2" d="M625.5,2119.8l130.6,199.4l-1.7,1.1l-131.3-200.5L625.5,2119.8z"/>
						<path id="Path_1153" class="st2" d="M627.9,2119.8l129.9,198.3l-1.7,1.1l-130.6-199.4H627.9z"/>
						<path id="Path_1154" class="st2" d="M630.4,2119.8l128.4,196.1v1.5l-1,0.7l-129.9-198.3H630.4z"/>
						<path id="Path_1155" class="st2" d="M632.8,2119.8l126,192.4v3.7l-128.4-196.1H632.8z"/>
						<path id="Path_1156" class="st2" d="M635.2,2119.8l123.6,188.7v3.7l-126-192.4L635.2,2119.8z"/>
						<path id="Path_1157" class="st2" d="M637.6,2119.8l121.1,185v3.7l-123.6-188.7H637.6z"/>
						<path id="Path_1158" class="st2" d="M640.1,2119.8l118.7,181.3v3.7l-121.1-185H640.1z"/>
						<path id="Path_1159" class="st2" d="M642.5,2119.8l116.3,177.6v3.7l-118.7-181.3L642.5,2119.8z"/>
						<path id="Path_1160" class="st2" d="M644.9,2119.8l113.8,173.9v3.7l-116.3-177.6L644.9,2119.8z"/>
						<path id="Path_1161" class="st2" d="M647.4,2119.8l111.4,170.1v3.7l-113.8-173.9L647.4,2119.8z"/>
						<path id="Path_1162" class="st2" d="M649.8,2119.8l109,166.4v3.7l-111.4-170.1L649.8,2119.8z"/>
						<path id="Path_1163" class="st2" d="M652.2,2119.8l106.6,162.7v3.7l-109-166.4L652.2,2119.8z"/>
						<path id="Path_1164" class="st2" d="M654.6,2119.8l104.1,159v3.7l-106.6-162.7L654.6,2119.8z"/>
						<path id="Path_1165" class="st2" d="M657.1,2119.8l101.7,155.3v3.7l-104.1-159H657.1z"/>
						<path id="Path_1166" class="st2" d="M659.5,2119.8l99.3,151.6v3.7l-101.7-155.3L659.5,2119.8z"/>
						<path id="Path_1167" class="st2" d="M661.9,2119.8l96.8,147.9v3.7l-99.3-151.6H661.9z"/>
						<path id="Path_1168" class="st2" d="M664.4,2119.8l94.4,144.2v3.7l-96.8-147.9L664.4,2119.8z"/>
						<path id="Path_1169" class="st2" d="M666.8,2119.8l92,140.5v3.7l-94.4-144.2L666.8,2119.8z"/>
						<path id="Path_1170" class="st2" d="M669.2,2119.8l89.6,136.7v3.7l-92-140.5L669.2,2119.8z"/>
						<path id="Path_1171" class="st2" d="M671.7,2119.8l87.1,133v3.7l-89.6-136.7H671.7z"/>
						<path id="Path_1172" class="st2" d="M674.1,2119.8l84.7,129.3v3.7l-87.1-133L674.1,2119.8z"/>
						<path id="Path_1173" class="st2" d="M676.5,2119.8l82.3,125.6v3.7l-84.7-129.3H676.5z"/>
						<path id="Path_1174" class="st2" d="M678.9,2119.8l79.8,121.9v3.7l-82.3-125.6L678.9,2119.8z"/>
						<path id="Path_1175" class="st2" d="M681.4,2119.8l77.4,118.2v3.7l-79.8-121.9H681.4z"/>
						<path id="Path_1176" class="st2" d="M683.8,2119.8l75,114.5v3.7l-77.4-118.2L683.8,2119.8z"/>
						<path id="Path_1177" class="st2" d="M686.2,2119.8l72.5,110.8v3.7l-75-114.5L686.2,2119.8z"/>
						<path id="Path_1178" class="st2" d="M688.7,2119.8l70.1,107.1v3.7l-72.5-110.8H688.7z"/>
						<path id="Path_1179" class="st2" d="M691.1,2119.8l67.7,103.4v3.7l-70.1-107.1L691.1,2119.8z"/>
						<path id="Path_1180" class="st2" d="M693.5,2119.8l65.3,99.6v3.7l-67.7-103.4H693.5z"/>
						<path id="Path_1181" class="st2" d="M696,2119.8l62.8,95.9v3.7l-65.3-99.6L696,2119.8z"/>
						<path id="Path_1182" class="st2" d="M698.4,2119.8l60.4,92.2v3.7l-62.8-95.9H698.4z"/>
						<path id="Path_1183" class="st2" d="M700.8,2119.8l58,88.5v3.7l-60.4-92.2L700.8,2119.8z"/>
						<path id="Path_1184" class="st2" d="M703.2,2119.8l55.5,84.8v3.7l-58-88.5L703.2,2119.8z"/>
						<path id="Path_1185" class="st2" d="M705.7,2119.8l53.1,81.1v3.7l-55.5-84.8L705.7,2119.8z"/>
						<path id="Path_1186" class="st2" d="M708.1,2119.8l50.7,77.4v3.7l-53.1-81.1H708.1z"/>
						<path id="Path_1187" class="st2" d="M710.5,2119.8l48.2,73.7v3.7l-50.7-77.4L710.5,2119.8z"/>
						<path id="Path_1188" class="st2" d="M713,2119.8l45.8,70v3.7l-48.3-73.7H713z"/>
						<path id="Path_1189" class="st2" d="M715.4,2119.8l43.4,66.3v3.7l-45.8-70L715.4,2119.8z"/>
						<path id="Path_1190" class="st2" d="M717.8,2119.8l40.9,62.5v3.7l-43.4-66.3H717.8z"/>
						<path id="Path_1191" class="st2" d="M720.2,2119.8l38.5,58.8v3.7l-40.9-62.5L720.2,2119.8z"/>
						<path id="Path_1192" class="st2" d="M722.7,2119.8l36.1,55.1v3.7l-38.5-58.8L722.7,2119.8z"/>
						<path id="Path_1193" class="st2" d="M725.1,2119.8l33.7,51.4v3.7l-36.1-55.1L725.1,2119.8z"/>
						<path id="Path_1194" class="st2" d="M727.5,2119.8l31.2,47.7v3.7l-33.7-51.4H727.5z"/>
						<path id="Path_1195" class="st2" d="M730,2119.8l28.8,44v3.7l-31.2-47.7H730z"/>
						<path id="Path_1196" class="st2" d="M732.4,2119.8l26.4,40.3v3.7l-28.8-44L732.4,2119.8z"/>
						<path id="Path_1197" class="st2" d="M734.8,2119.8l23.9,36.6v3.7l-26.4-40.3H734.8z"/>
						<path id="Path_1198" class="st2" d="M737.3,2119.8l21.5,32.9v3.7l-23.9-36.6L737.3,2119.8z"/>
						<path id="Path_1199" class="st2" d="M739.7,2119.8l19.1,29.1v3.7l-21.5-32.9L739.7,2119.8z"/>
						<path id="Path_1200" class="st2" d="M742.1,2119.8l16.7,25.4v3.7l-19.1-29.1L742.1,2119.8z"/>
						<path id="Path_1201" class="st2" d="M744.5,2119.8l14.2,21.7v3.7l-16.7-25.4H744.5z"/>
						<path id="Path_1202" class="st2" d="M747,2119.8l11.8,18v3.7l-14.2-21.7L747,2119.8z"/>
						<path id="Path_1203" class="st2" d="M749.4,2119.8l9.4,14.3v3.7l-11.8-18L749.4,2119.8z"/>
						<path id="Path_1204" class="st2" d="M751.8,2119.8l6.9,10.6v3.7l-9.4-14.3L751.8,2119.8z"/>
						<path id="Path_1205" class="st2" d="M754.3,2119.8l4.5,6.9v3.7l-6.9-10.6H754.3z"/>
						<path id="Path_1206" class="st2" d="M756.7,2119.8l2.1,3.2v3.7l-4.5-6.9L756.7,2119.8z"/>
						<path id="Path_1207" class="st2" d="M758.8,2123l-2.1-3.2h2.1V2123z"/>
					</g>
				</g>
			</g>
		</g>
		<g id="Group_200">
			<g id="Group_199">
				<g>
					<defs>
						<path id="SVGID_5_" d="M542.2,2254c2.4-2,2.7-5.6,0.7-8.1c-2-2.4-5.6-2.7-8.1-0.7c-2.4,2-2.7,5.6-0.7,8.1
							C536.1,2255.7,539.7,2256,542.2,2254C542.1,2254,542.2,2254,542.2,2254z"/>
					</defs>
					<use xlink:href="#SVGID_5_"  style="overflow:visible;fill:#AFAFAF;"/>
					<clipPath id="SVGID_6_">
						<use xlink:href="#SVGID_5_"  style="overflow:visible;"/>
					</clipPath>
					<g id="Group_198" class="st5">
						<path id="Path_1210" class="st2" d="M532.1,2251.7l2.8,4.3h-2.4l-0.4-0.6L532.1,2251.7z"/>
						<path id="Path_1211" class="st2" d="M532.1,2248l5.3,8h-2.4l-2.8-4.3V2248z"/>
						<path id="Path_1212" class="st2" d="M532.1,2245.2l0.4-0.3l7.3,11.1h-2.4l-5.3-8V2245.2z"/>
						<path id="Path_1213" class="st2" d="M532.5,2244.9l1.7-1.1l7.9,12.1l-0.2,0.2h-2.1L532.5,2244.9z"/>
						<path id="Path_1214" class="st2" d="M534.2,2243.8l1-0.6h1.1l7.6,11.6l-1.7,1.1L534.2,2243.8z"/>
						<path id="Path_1215" class="st2" d="M538.6,2243.2l6.3,9.6v1.3l-1.1,0.7l-7.6-11.6L538.6,2243.2z"/>
						<path id="Path_1216" class="st2" d="M541.1,2243.2l3.8,5.9v3.7l-6.3-9.6H541.1z"/>
						<path id="Path_1217" class="st2" d="M543.5,2243.2l1.4,2.2v3.7l-3.8-5.9L543.5,2243.2z"/>
						<path id="Path_1218" class="st2" d="M544.9,2245.3l-1.4-2.2h1.4V2245.3z"/>
					</g>
				</g>
			</g>
		</g>
		<g id="Group_203">
			<g id="Group_202">
				<g>
					<defs>
						<path id="SVGID_7_" d="M568.1,2177.3c2.4-2,2.7-5.6,0.7-8.1c-2-2.4-5.6-2.7-8.1-0.7c-2.4,2-2.7,5.6-0.7,8.1
							C562.1,2179,565.7,2179.3,568.1,2177.3C568.1,2177.3,568.1,2177.3,568.1,2177.3z"/>
					</defs>
					<use xlink:href="#SVGID_7_"  style="overflow:visible;fill:#AFAFAF;"/>
					<clipPath id="SVGID_8_">
						<use xlink:href="#SVGID_7_"  style="overflow:visible;"/>
					</clipPath>
					<g id="Group_201" class="st6">
						<path id="Path_1220" class="st2" d="M558.1,2176.4l1.9,3h-1.9V2176.4z"/>
						<path id="Path_1221" class="st2" d="M558.1,2172.7l4.4,6.7H560l-1.9-3L558.1,2172.7z"/>
						<path id="Path_1222" class="st2" d="M558.1,2168.9l6.8,10.4h-2.4l-4.4-6.7L558.1,2168.9z"/>
						<path id="Path_1223" class="st2" d="M558.1,2168.5l1.5-1l7.7,11.8h-2.4l-6.8-10.4V2168.5z"/>
						<path id="Path_1224" class="st2" d="M559.6,2167.5l1.6-1h0.2l7.8,12l-1.3,0.9h-0.5L559.6,2167.5z"/>
						<path id="Path_1225" class="st2" d="M563.8,2166.5l7.1,10.9l-1.7,1.1l-7.8-12L563.8,2166.5z"/>
						<path id="Path_1226" class="st2" d="M566.2,2166.5l4.7,7.2v3.6l0,0l-7.1-10.9H566.2z"/>
						<path id="Path_1227" class="st2" d="M568.6,2166.5l2.3,3.5v3.7l-4.7-7.2L568.6,2166.5z"/>
						<path id="Path_1228" class="st2" d="M570.9,2170l-2.3-3.5h2.3V2170z"/>
					</g>
				</g>
			</g>
		</g>
		<g id="Group_206">
			<g id="Group_205">
				<g>
					<defs>
						<path id="SVGID_9_" d="M706.1,2154.2c2.4-2,2.7-5.6,0.7-8.1c-2-2.4-5.6-2.7-8.1-0.7c-2.4,2-2.7,5.6-0.7,8.1
							C700,2155.9,703.6,2156.3,706.1,2154.2C706.1,2154.2,706.1,2154.2,706.1,2154.2z"/>
					</defs>
					<use xlink:href="#SVGID_9_"  style="overflow:visible;fill:#AFAFAF;"/>
					<clipPath id="SVGID_10_">
						<use xlink:href="#SVGID_9_"  style="overflow:visible;"/>
					</clipPath>
					<g id="Group_204" class="st7">
						<path id="Path_1230" class="st2" d="M696,2153.2l2,3h-2V2153.2z"/>
						<path id="Path_1231" class="st2" d="M696,2149.5l4.4,6.7H698l-2-3V2149.5z"/>
						<path id="Path_1232" class="st2" d="M696,2145.8l6.8,10.4h-2.4l-4.4-6.7L696,2145.8z"/>
						<path id="Path_1233" class="st2" d="M696,2145.4l1.5-1l7.7,11.8h-2.4l-6.8-10.4L696,2145.4z"/>
						<path id="Path_1234" class="st2" d="M697.5,2144.4l1.5-1h0.2l7.8,12l-1.4,0.9h-0.5L697.5,2144.4z"/>
						<path id="Path_1235" class="st2" d="M701.7,2143.4l7.1,10.8l-1.7,1.1l-7.8-12H701.7z"/>
						<path id="Path_1236" class="st2" d="M704.1,2143.4l4.7,7.2v3.7h0l-7.1-10.8L704.1,2143.4z"/>
						<path id="Path_1237" class="st2" d="M706.6,2143.4l2.3,3.5v3.7l-4.7-7.2L706.6,2143.4z"/>
						<path id="Path_1238" class="st2" d="M708.8,2146.9l-2.3-3.5h2.3V2146.9z"/>
					</g>
				</g>
			</g>
		</g>
		<g id="Group_209">
			<g id="Group_208">
				<g>
					<defs>
						<path id="SVGID_11_" d="M738.2,2330.1c-2.4,2-2.7,5.6-0.7,8.1c2,2.4,5.6,2.7,8.1,0.7c2.4-2,2.7-5.6,0.7-8.1
							C744.2,2328.4,740.6,2328,738.2,2330.1C738.2,2330.1,738.2,2330.1,738.2,2330.1z"/>
					</defs>
					<use xlink:href="#SVGID_11_"  style="overflow:visible;fill:#AFAFAF;"/>
					<clipPath id="SVGID_12_">
						<use xlink:href="#SVGID_11_"  style="overflow:visible;"/>
					</clipPath>
					<g id="Group_207" class="st8">
						<path id="Path_1240" class="st2" d="M735.4,2339.6l0.8,1.3h-0.8V2339.6z"/>
						<path id="Path_1241" class="st2" d="M735.4,2335.9l3.3,5h-2.4l-0.8-1.3L735.4,2335.9z"/>
						<path id="Path_1242" class="st2" d="M735.4,2332.2l5.7,8.7h-2.4l-3.3-5V2332.2z"/>
						<path id="Path_1243" class="st2" d="M735.4,2330.1l0.7-0.5l7.4,11.3h-2.4l-5.7-8.7V2330.1z"/>
						<path id="Path_1244" class="st2" d="M736.1,2329.6l1.7-1.1l7.9,12.1l-0.6,0.4h-1.6L736.1,2329.6z"/>
						<path id="Path_1245" class="st2" d="M737.8,2328.5l0.6-0.4h1.5l7.4,11.4l-1.7,1.1L737.8,2328.5z"/>
						<path id="Path_1246" class="st2" d="M742.4,2328l5.8,8.9v1.9l-0.8,0.5L740,2328H742.4z"/>
						<path id="Path_1247" class="st2" d="M744.9,2328l3.4,5.2v3.7l-5.8-8.9L744.9,2328z"/>
						<path id="Path_1248" class="st2" d="M747.3,2328l1,1.5v3.7l-3.4-5.2L747.3,2328z"/>
						<path id="Path_1249" class="st2" d="M748.3,2329.5l-1-1.5h1V2329.5z"/>
					</g>
				</g>
			</g>
		</g>
		<g id="Group_212">
			<g id="Group_211">
				<g>
					<defs>
						<path id="SVGID_13_" d="M660.8,2365.2c-2.4,2-2.7,5.6-0.7,8.1c2,2.4,5.6,2.7,8.1,0.7c2.4-2,2.7-5.6,0.7-8.1
							C666.8,2363.4,663.2,2363.1,660.8,2365.2C660.8,2365.1,660.8,2365.1,660.8,2365.2z"/>
					</defs>
					<use xlink:href="#SVGID_13_"  style="overflow:visible;fill:#AFAFAF;"/>
					<clipPath id="SVGID_14_">
						<use xlink:href="#SVGID_13_"  style="overflow:visible;"/>
					</clipPath>
					<g id="Group_210" class="st9">
						<path id="Path_1251" class="st2" d="M658,2373.5l1.6,2.4H658V2373.5z"/>
						<path id="Path_1252" class="st2" d="M658,2369.8l4,6.2h-2.4l-1.6-2.4L658,2369.8z"/>
						<path id="Path_1253" class="st2" d="M658,2366.1l6.5,9.9H662l-4-6.2L658,2366.1z"/>
						<path id="Path_1254" class="st2" d="M658,2365.1l1.3-0.8l7.6,11.6h-2.4l-6.5-9.9V2365.1z"/>
						<path id="Path_1255" class="st2" d="M659.3,2364.3l1.7-1.1l7.9,12.1l-1.1,0.7h-0.9L659.3,2364.3z"/>
						<path id="Path_1256" class="st2" d="M661,2363.2l0.1-0.1h2.3l7.2,11l-1.7,1.1L661,2363.2z"/>
						<path id="Path_1257" class="st2" d="M665.8,2363.1l5.1,7.7v3.1l-0.3,0.2l-7.2-11H665.8z"/>
						<path id="Path_1258" class="st2" d="M668.2,2363.1l2.6,4v3.7l-5.1-7.7L668.2,2363.1z"/>
						<path id="Path_1259" class="st2" d="M670.6,2363.1l0.2,0.3v3.7l-2.6-4L670.6,2363.1z"/>
						<path id="Path_1260" class="st2" d="M670.8,2363.4l-0.2-0.3h0.2V2363.4z"/>
					</g>
				</g>
			</g>
		</g>
		<g id="Group_215">
			<g id="Group_214">
				<g>
					<defs>
						<path id="SVGID_15_" d="M579.2,2341.3c-2.4,2-2.7,5.6-0.7,8.1c2,2.4,5.6,2.7,8.1,0.7c2.4-2,2.7-5.6,0.7-8.1
							C585.2,2339.6,581.6,2339.3,579.2,2341.3C579.2,2341.3,579.2,2341.3,579.2,2341.3z"/>
					</defs>
					<use xlink:href="#SVGID_15_"  style="overflow:visible;fill:#AFAFAF;"/>
					<clipPath id="SVGID_16_">
						<use xlink:href="#SVGID_15_"  style="overflow:visible;"/>
					</clipPath>
					<g id="Group_213" class="st10">
						<path id="Path_1262" class="st2" d="M576.4,2349.1l2,3.1h-2V2349.1z"/>
						<path id="Path_1263" class="st2" d="M576.4,2345.4l4.4,6.8h-2.4l-2-3.1L576.4,2345.4z"/>
						<path id="Path_1264" class="st2" d="M576.4,2341.7l6.9,10.5h-2.4l-4.4-6.8V2341.7z"/>
						<path id="Path_1265" class="st2" d="M576.4,2341.3l1.5-1l7.8,11.8h-2.4l-6.9-10.5L576.4,2341.3z"/>
						<path id="Path_1266" class="st2" d="M577.9,2340.3l1.5-1h0.2l7.8,11.9l-1.4,0.9h-0.5L577.9,2340.3z"/>
						<path id="Path_1267" class="st2" d="M582.2,2339.3l7.1,10.8l-1.7,1.1l-7.8-11.9H582.2z"/>
						<path id="Path_1268" class="st2" d="M584.6,2339.3l4.7,7.1v3.7l0,0l-7.1-10.8L584.6,2339.3z"/>
						<path id="Path_1269" class="st2" d="M587,2339.3l2.2,3.4v3.7l-4.7-7.1L587,2339.3z"/>
						<path id="Path_1270" class="st2" d="M589.2,2342.7l-2.2-3.4h2.2V2342.7z"/>
					</g>
				</g>
			</g>
		</g>
	</g>
</g>
</svg>
