<svg xmlns="http://www.w3.org/2000/svg" viewBox="0 0 590.36 172.34"><defs><style>.cls-1,.cls-2{fill:#afafaf;}.cls-2{fill-rule:evenodd;}</style></defs><g id="Layer_2" data-name="Layer 2"><g id="comp_Azerbaijan"><path class="cls-1" d="M354,66.56c.63-.36.52-.49.87-1.3l1-2.56c.78-1.82-.53-1.83-2.12-2.24a14.62,14.62,0,0,1-2.18-.88,15.5,15.5,0,0,1-8.22-18c.26-1,.71-2-1-2.22-.62-.07-3.69-.65-4.15-.38-.8.47-.7,1.06-.91,2a21.51,21.51,0,0,0,5.64,19.73,23.62,23.62,0,0,0,3.43,2.87L349,65.13C349.89,65.54,353.3,67,354,66.56Z"/><path class="cls-1" d="M357.88,57.09c.47-.28.68-1.12.9-1.65l.71-1.76c.29-.7.4-.82,0-1.47a.92.92,0,0,0-.72-.4,8.22,8.22,0,0,1-2.36-.68,7,7,0,0,1-3.84-6.58c.07-2.06,1.06-2.39.46-3.42-.26-.45-.74-.45-1.11-.49s-.4-.06-.63-.09-.4,0-.63-.08c-2.76-.45-2.83-.57-3.56,2.23a11.59,11.59,0,0,0,5.72,13.13C353.68,56.3,357,57.6,357.88,57.09Z"/><path class="cls-1" d="M350.27,75.92c.56-.33.93-1.66,1.28-2.5.18-.44.35-.84.51-1.28.49-1.32.36-1.55-.86-2L349,69.41a25.49,25.49,0,0,1-16.11-21.36,23.29,23.29,0,0,1-.13-2.39,23.72,23.72,0,0,1,.43-4.67l.34-1.68c.27-1.34-1.52-1.33-2.72-1.47l-1.37-.17a3,3,0,0,0-1.36,0l-.13.07c-.3.23-.49.75-.66,1.89a31.54,31.54,0,0,0-.58,6.34,24.17,24.17,0,0,0,.18,2.94A27.79,27.79,0,0,0,328.17,55a35.18,35.18,0,0,0,2.72,6.28l.3.52a34.06,34.06,0,0,0,4.08,5.4,27,27,0,0,0,2.31,2.24,31.38,31.38,0,0,0,8.62,5.34C346.81,75,349.73,76.23,350.27,75.92Z"/><path class="cls-1" d="M165.46,119.77a10.25,10.25,0,0,1-20.5,0V44.6a10.28,10.28,0,0,1,10.26-10.26h56.37A29.05,29.05,0,0,1,240.65,63.4a27.93,27.93,0,0,1-8.49,20.49A27.72,27.72,0,0,1,217.07,92l20.58,20.58A10.24,10.24,0,1,1,223.16,127L185.55,89.44a10.26,10.26,0,0,1,7.26-17.5h18.78a8.55,8.55,0,1,0,0-17.1H165.46Z"/><path class="cls-1" d="M394.08,8.94c-.67.3-.58.44-1,1.21l-1.29,2.44c-1,1.72.34,1.87,1.87,2.44A15.53,15.53,0,0,1,402,34.9c-.37,1-.93,1.93.79,2.32.61.14,3.6,1,4.09.82.84-.38.81-1,1.11-1.9a21.51,21.51,0,0,0-3.52-20.22,23.1,23.1,0,0,0-3.11-3.21l-2.55-1.82C398,10.39,394.79,8.62,394.08,8.94Z"/><path class="cls-1" d="M389.19,18c-.5.22-.8,1-1.07,1.55l-.89,1.67c-.37.67-.49.77-.18,1.46a.91.91,0,0,0,.68.47A8.13,8.13,0,0,1,390,24a7,7,0,0,1,3.12,7c-.28,2-1.29,2.27-.81,3.35.21.47.69.52,1.06.6l.61.16.62.14c2.69.74,2.75.87,3.78-1.83a11.63,11.63,0,0,0-4.31-13.67C393.28,19.18,390.11,17.54,389.19,18Z"/><path class="cls-1" d="M398.74,0c-.59.27-1.09,1.55-1.53,2.35-.23.41-.44.79-.65,1.22-.63,1.26-.52,1.5.64,2.09l2.09.94a25.5,25.5,0,0,1,13.77,22.94,19.73,19.73,0,0,1-.13,2.4,23.33,23.33,0,0,1-.92,4.59l-.51,1.64c-.41,1.3,1.37,1.48,2.55,1.74l1.34.32a3,3,0,0,0,1.36.16l.13-.06c.32-.19.56-.7.85-1.81A30.26,30.26,0,0,0,419,32.31a26.08,26.08,0,0,0,.14-2.94,29.1,29.1,0,0,0-.6-6.21,35.18,35.18,0,0,0-2-6.54l-.25-.54a34.14,34.14,0,0,0-3.48-5.81,29.14,29.14,0,0,0-2.06-2.46,31.6,31.6,0,0,0-8-6.22C402.09,1.27,399.31-.23,398.74,0Z"/><path class="cls-1" d="M10.26,34.34a9.85,9.85,0,0,0-7.25,3A9.84,9.84,0,0,0,0,44.6V82.19a9.84,9.84,0,0,0,3,7.23,9.89,9.89,0,0,0,7.25,3,9.89,9.89,0,0,0,7.24-3,9.88,9.88,0,0,0,3-7.23V54.84H66.63a8.54,8.54,0,0,1,8.56,8.54,8.54,8.54,0,0,1-8.56,8.54H47.85a10.26,10.26,0,1,0,0,20.51H66.63a8.55,8.55,0,1,1,0,17.1H10.26a9.85,9.85,0,0,0-7.25,3A10.21,10.21,0,0,0,3,127a9.85,9.85,0,0,0,7.25,3H66.63A29.07,29.07,0,0,0,95.7,101a27.81,27.81,0,0,0-6.91-18.78A27.92,27.92,0,0,0,95.7,63.38a29.07,29.07,0,0,0-29.07-29Z"/><path class="cls-2" d="M372.56,18.92a17.72,17.72,0,1,1-17.73,17.72,17.72,17.72,0,0,1,17.73-17.72Zm0,9.75a8,8,0,1,0,8,8A8,8,0,0,0,372.56,28.67Z"/><path class="cls-1" d="M132.71,21.3a17.73,17.73,0,1,1-24.65,0l5.42,5.43a10.52,10.52,0,1,0,13.81,0Z"/><path class="cls-1" d="M469.84,80.47q0-3.91-2.17-5.73c-1.45-1.22-3.94-1.82-7.49-1.82H427v48.85q0,4.47-2.94,6.23a15.64,15.64,0,0,1-8,1.75,16.1,16.1,0,0,1-8-1.75q-3.08-1.75-3.08-6.23v-57q0-9,11.48-9h47.73q27.43,0,27.44,23.09v42.84c0,3-1,5.06-2.94,6.23a15.33,15.33,0,0,1-7.84,1.75,16.1,16.1,0,0,1-8-1.75q-3.07-1.75-3.08-6.23Z"/><path class="cls-1" d="M511.13,38.48q0-4.2,3.08-5.95a16.1,16.1,0,0,1,8-1.75,15.64,15.64,0,0,1,8,1.75q2.94,1.76,2.94,5.95v83.29q0,4.47-2.94,6.23a15.64,15.64,0,0,1-8,1.75,16.1,16.1,0,0,1-8-1.75q-3.08-1.75-3.08-6.23Z"/><path class="cls-1" d="M382.81,56.85v62.92a10.26,10.26,0,0,1-20.51,0V56.85a17.72,17.72,0,0,0,20.51,0Z"/><path class="cls-1" d="M590.36,121.77c0,3-1,5.06-3,6.23a16,16,0,0,1-8.05,1.75,15.71,15.71,0,0,1-7.91-1.75q-3-1.75-3-6.23v-9.1q0-5.33-2.94-7.77a11.21,11.21,0,0,0-7.42-2.45H544.31a5,5,0,0,1-4.62-2.24,11.52,11.52,0,0,1-1.4-6.16,10.94,10.94,0,0,1,1.4-5.88,5,5,0,0,1,4.62-2.24H558a11.84,11.84,0,0,0,7.42-2.24,7.45,7.45,0,0,0,2.94-6.29V62.7q0-4.2,2.73-6T578.74,55q5,0,7.7,1.75t2.66,6V77.4q0,8.11-3.15,11.82t-9.45,5.53a17.81,17.81,0,0,1,10.08,5.46q3.78,4.2,3.78,11.76Z"/><path class="cls-1" d="M130.64,56.57v62.91a10.26,10.26,0,1,1-20.51,0V56.57a17.76,17.76,0,0,0,20.51,0Z"/><path class="cls-1" d="M120.39,14.91h0A3.62,3.62,0,0,1,124,18.53v18a3.63,3.63,0,0,1-3.61,3.61h0a3.62,3.62,0,0,1-3.62-3.61v-18A3.63,3.63,0,0,1,120.39,14.91Z"/><polygon class="cls-1" points="294.3 77.23 294.3 31.15 286.05 31.15 273.11 50.26 273.1 74.44 273.05 74.44 273.05 93.37 294.3 77.23"/><polygon class="cls-1" points="294.3 87.02 294.3 81.02 273.05 97.16 273.05 103.16 294.3 87.02"/><path class="cls-1" d="M315.94,109.24h19.19a10.26,10.26,0,0,1,0,20.51H292.65c-11.08,0-19.6-8.32-19.6-20.72v-2.09L294.3,90.8v12.4c0,4.85,3.2,6.16,8.82,6.16h12.82Z"/><polygon class="cls-1" points="265.62 54.46 253.86 70.64 253.86 74.29 265.61 74.29 265.62 74.29 265.87 74.29 271.06 74.29 271.06 54.45 265.79 54.45 265.62 54.45 265.62 54.45 265.62 54.46"/><line class="cls-1" y1="172.34" x2="26.17" y2="172.34"/></g></g></svg>