<svg xmlns="http://www.w3.org/2000/svg" viewBox="0 0 444.33 304.29"><defs><style>.cls-1{fill:#afafaf;}</style></defs><g id="Layer_2" data-name="Layer 2"><g id="comp_Azerbaijan"><ellipse class="cls-1" cx="252.86" cy="51.62" rx="16.63" ry="16.97"/><path class="cls-1" d="M256.48,35.06a17,17,0,0,1-3.62,33.53,17.09,17.09,0,0,1-3-.28,17.15,17.15,0,1,0,6.59-33.25Z"/><ellipse class="cls-1" cx="187.69" cy="31.93" rx="16.63" ry="16.97"/><path class="cls-1" d="M171.06,31.93a16.8,16.8,0,0,1,16.63-17,16,16,0,0,1,1.71.09,17.15,17.15,0,1,0-4.5,33.7l.52,0A16.86,16.86,0,0,1,171.06,31.93Z"/><polygon class="cls-1" points="245.52 16.76 234.79 23.27 234.08 35.8 224.57 27.62 212.44 30.81 217.28 19.24 210.5 8.69 223 9.72 230.94 0 233.82 12.21 245.52 16.76"/><polygon class="cls-1" points="157.1 28.2 148.27 33.56 147.69 43.87 139.86 37.14 129.88 39.77 133.86 30.24 128.28 21.56 138.57 22.41 145.1 14.41 147.47 24.46 157.1 28.2"/><polygon class="cls-1" points="116.73 57.16 110.13 61.17 109.69 68.89 103.82 63.85 96.34 65.82 99.33 58.68 95.15 52.18 102.86 52.81 107.75 46.83 109.53 54.35 116.73 57.16"/><polygon class="cls-1" points="327.57 74.05 315.35 81.47 314.54 95.74 303.71 86.42 289.88 90.06 295.4 76.87 287.67 64.85 301.92 66.03 310.96 54.96 314.25 68.87 327.57 74.05"/><polygon class="cls-1" points="346.25 144.35 332.02 153 331.08 169.62 318.46 158.76 302.36 163 308.79 147.64 299.78 133.64 316.37 135 326.91 122.11 330.74 138.32 346.25 144.35"/><path class="cls-1" d="M210.05,76.29c17.2-5,55.58-8.42,67.21,29.87,13.12,43.22-48.88,105.9-48.88,105.9s17.88-28.52,20.37-50.24c-21.27,15.84-40.51,25.8-67.21,27.83,31.23-15.84,47.52-27.38,59.74-59.73-20.36-1.59-45.71-13.58-49.1-15.84,29.41,5.43,52.07,2.8,54.53-12S234.49,77.87,210.05,76.29Z"/><path class="cls-1" d="M209.15,76.06s-35.08-40.73-68.79-13.35S120,180.15,120,180.15s2.26-40.28,10.86-54.08c16.52,46.61,41.41,61.1,41.41,61.1s-29.19-38.47-17.42-82.6c18.1,8.37,29.87,9.28,35.75,9.05C163.44,98,162.76,84,166.15,77.42,169.08,71.75,177.92,58.41,209.15,76.06Z"/><path class="cls-1" d="M140.36,62.71c33.71-27.38,68.79,13.35,68.79,13.35-5.43-7-44.15-47.32-81-10C94.87,99.82,118.63,171.33,120,180.15,120,180.15,106.64,90.09,140.36,62.71Z"/><path class="cls-1" d="M130.85,126.07a38.87,38.87,0,0,0-3.56,8.08c4.13,9.63,17.58,36.56,44.79,52.9C169.89,185.7,146.59,170.46,130.85,126.07Z"/><path class="cls-1" d="M285.18,110C277.35,79.57,252,70,224.09,73.64c18.86-1.81,44.12,2.71,53.17,32.52,13.12,43.22-48.88,105.9-48.88,105.9C247.38,199,295.42,149.79,285.18,110Z"/><path class="cls-1" d="M248.75,161.82c-21.27,15.84-40.51,25.8-67.21,27.83,25.68.85,57.82-15.58,65.79-20.17A62.82,62.82,0,0,0,248.75,161.82Z"/><path class="cls-1" d="M48.71,257.92s-2.41,7.39-8.75,8.9-18.55,1.66-19-13.13l25.8-9.2s-5-20.52-24.59-15.84C8.89,231.82,4.36,250,7.08,260.33c3.31,12.67,17.19,21.27,30,15.84A18.6,18.6,0,0,0,48.71,257.92ZM28,234.53c8.45-.75,10.87,7.25,10.87,7.25l-18.56,2.86S19.6,235.29,28,234.53Z"/><path class="cls-1" d="M37.1,276.17c-8.21,3.48-16.85,1.2-22.88-4.21a22.62,22.62,0,0,1-7.14-11.63C4.36,250,8.89,231.82,22.16,228.65c.7-.16,1.37-.29,2-.4l.55-.07c.48-.06,1-.12,1.41-.15l.54,0c.48,0,.94,0,1.39,0h.4c.58,0,1.14.06,1.68.13l.15-.06C18.67,226.2-.77,233.85,0,256.48c.82,23.19,30.26,29.95,42.19,16.62A20.25,20.25,0,0,1,37.1,276.17Z"/><path class="cls-1" d="M28,234.53l-.42.06c5.25.42,7.82,5.45,8.68,7.59l2.61-.4S36.49,233.78,28,234.53Z"/><path class="cls-1" d="M108.56,213.3H82.5v65.59H71.68V213.3H45.61v-9.72h63Z"/><path class="cls-1" d="M159,259.35l12.93-30h10.49l-21.87,50.58h-3.09l-14.69-34.68-14.58,34.68h-3.09L103,229.31h10.49l13,30,12.59-30h7.29Z"/><path class="cls-1" d="M195.4,220.14a5.85,5.85,0,1,1,5.85-5.85A5.89,5.89,0,0,1,195.4,220.14Zm4.86,58.75h-9.83V229.31h9.83Z"/><path class="cls-1" d="M224.13,235.82h.22a19.21,19.21,0,0,1,14.8-7.51c9.39,0,16.89,6.41,16.89,20v30.59h-9.82v-30.7c0-7.29-3.76-12-9.72-12-4.31,0-7.73,2-12.37,7.17v35.56H214.3V229.31h9.83Z"/><path class="cls-1" d="M279.69,235.82h.22a19.17,19.17,0,0,1,14.79-7.51c9.39,0,16.9,6.41,16.9,20v30.59h-9.83v-30.7c0-7.29-3.75-12-9.72-12-4.3,0-7.73,2-12.36,7.17v35.56h-9.83V229.31h9.83Z"/><path class="cls-1" d="M330.43,220.14a5.85,5.85,0,1,1,5.85-5.85A5.89,5.89,0,0,1,330.43,220.14Zm4.85,58.75h-9.82V229.31h9.82Z"/><path class="cls-1" d="M359.16,235.82h.22a19.21,19.21,0,0,1,14.8-7.51c9.39,0,16.89,6.41,16.89,20v30.59h-9.82v-30.7c0-7.29-3.76-12-9.72-12-4.31,0-7.73,2-12.37,7.17v35.56h-9.83V229.31h9.83Z"/><path class="cls-1" d="M444.33,236.93H434.17c3.87,3.86,5.19,6.62,5.19,10.82a17.74,17.74,0,0,1-4.63,11.16c-6.63,7.06-20.1,3.53-20.1,9.38,0,2.76,5.19,4.42,15.13,6.41,10.6,2.09,14.35,7.51,14.35,13.8,0,9.83-8.72,15.79-23.41,15.79-13.36,0-22.86-6.29-22.86-15,0-7.28,3.87-11.59,12.48-13.69-3.42-2.1-5-4.09-5-6.29,0-3.21,3.09-6,7.84-7.07V262a18.9,18.9,0,0,1-8.28-6.3,15.81,15.81,0,0,1-2.65-9.27c0-10.61,8.28-17.12,21.64-17.12h20.43Zm-25.95,44.39c-6.62,0-11.26,3.1-11.26,7.51,0,5,4.86,7.62,13.8,7.62,8.62,0,13.7-2.65,13.7-7.18C434.62,283,424.46,281.32,418.38,281.32Zm2.54-43.51c-5.41,0-9.83,4.09-9.83,8.95,0,5.41,4,9.05,9.94,9.05,5.52,0,9.5-3.86,9.5-9.27C430.53,241.79,426.11,237.81,420.92,237.81Z"/></g></g></svg>