<svg xmlns="http://www.w3.org/2000/svg" width="28.996" height="28.999" viewBox="0 0 28.996 28.999">
  <g id="Group_730" data-name="Group 730" transform="translate(-71.5 -924)">
    <path id="Path_9" data-name="Path 9" d="M11.416,17.9l.691.688a2.048,2.048,0,0,1,0,2.895L4.146,29.443a2.048,2.048,0,0,1-2.895,0l-.688-.691a2.048,2.048,0,0,1,0-2.895l7.961-7.943a2.048,2.048,0,0,1,2.891-.014Z" transform="translate(71.536 906.7)" fill="#00aeef"/>
    <path id="Path_10" data-name="Path 10" d="M56.365,62.819l.688.691a2.048,2.048,0,0,1,0,2.895L49.11,74.366a2.048,2.048,0,0,1-2.895,0l-.691-.691a2.048,2.048,0,0,1,0-2.895l7.961-7.961A2.052,2.052,0,0,1,56.365,62.819Z" transform="translate(42.845 878.035)" fill="#00aeef" opacity="0.25"/>
    <path id="Path_11" data-name="Path 11" d="M.616,63.5l.688-.691a2.052,2.052,0,0,1,2.895,0l7.961,7.961a2.048,2.048,0,0,1,0,2.895l-.691.691a2.048,2.048,0,0,1-2.895,0L.631,66.392A2.048,2.048,0,0,1,.616,63.5Z" transform="translate(71.497 878.047)" fill="#00aeef" opacity="0.25"/>
    <path id="Path_12" data-name="Path 12" d="M45.508,18.571l.691-.688a2.048,2.048,0,0,1,2.895,0l7.943,7.961a2.048,2.048,0,0,1,0,2.895l-.688.691a2.048,2.048,0,0,1-2.895,0l-7.961-7.961a2.048,2.048,0,0,1,.014-2.9Z" transform="translate(42.861 906.716)" fill="#00aeef" opacity="0.25"/>
  </g>
</svg>
