<?xml version="1.0" encoding="utf-8"?>
<!-- Generator: Adobe Illustrator 24.3.0, SVG Export Plug-In . SVG Version: 6.00 Build 0)  -->
<svg version="1.1" id="Layer_1" xmlns="http://www.w3.org/2000/svg" xmlns:xlink="http://www.w3.org/1999/xlink" x="0px" y="0px"
	 viewBox="0 0 1178.5 255.9" style="enable-background:new 0 0 1178.5 255.9;" xml:space="preserve">
<style type="text/css">
	.st0{fill:#F4F6F9;}
	.st1{fill:#FFFFFF;}
	.st2{fill:#AFAFAF;}
	.st3{clip-path:url(#SVGID_2_);}
	.st4{clip-path:url(#SVGID_4_);}
	.st5{clip-path:url(#SVGID_6_);}
	.st6{clip-path:url(#SVGID_8_);}
	.st7{clip-path:url(#SVGID_10_);}
	.st8{clip-path:url(#SVGID_12_);}
	.st9{clip-path:url(#SVGID_14_);}
	.st10{clip-path:url(#SVGID_16_);}
	.st11{fill-rule:evenodd;clip-rule:evenodd;fill:#AFAFAF;}
</style>
<g>
	<g>
		<path class="st2" d="M317,86.6c1.6,0,2.8,0.6,3.8,1.8c0.9,1.2,1.4,2.7,1.4,4.6s-0.5,3.4-1.4,4.6c-0.9,1.2-2.2,1.8-3.8,1.8
			c-1.6,0-2.8-0.6-3.7-1.8c-0.9-1.2-1.4-2.7-1.4-4.6s0.5-3.4,1.4-4.6C314.2,87.2,315.4,86.6,317,86.6z M322.2,172.8h-10.4v-68.2
			h10.4V172.8z"/>
		<path class="st2" d="M340.4,122.1l0.3,5.9c2.7-4.5,6.3-6.8,10.8-6.8c4,0,6.9,1.6,8.9,4.7c1.9,3.2,2.9,7.9,3,14.2v32.8h-10v-32.4
			c0-2.9-0.5-5-1.4-6.3c-0.9-1.3-2.5-1.9-4.6-1.9c-2.8,0-4.9,1.6-6.3,4.9v35.8h-10v-50.7H340.4z"/>
		<path class="st2" d="M380.1,122.1l0.3,5.9c2.7-4.5,6.3-6.8,10.8-6.8c4,0,6.9,1.6,8.9,4.7c1.9,3.2,2.9,7.9,3,14.2v32.8h-10v-32.4
			c0-2.9-0.5-5-1.4-6.3c-0.9-1.3-2.5-1.9-4.6-1.9c-2.8,0-4.9,1.6-6.3,4.9v35.8h-10v-50.7H380.1z"/>
		<path class="st2" d="M409,147c0-5,0.7-9.5,2.1-13.4c1.4-3.9,3.5-7,6.2-9.1c2.7-2.2,5.8-3.2,9.4-3.2c5.1,0,9.2,2.1,12.4,6.3
			c3.2,4.2,5,9.9,5.3,17.1l0.1,3.5c0,7.8-1.6,14-4.8,18.7s-7.5,7.1-12.9,7.1c-5.4,0-9.7-2.3-12.9-7c-3.2-4.7-4.8-11.1-4.8-19.1V147z
			 M419,148c0,4.8,0.7,8.5,2,11.1c1.3,2.5,3.3,3.8,5.7,3.8c2.4,0,4.3-1.3,5.7-3.8c1.4-2.5,2-6.5,2-12.1c0-4.7-0.7-8.4-2-11
			c-1.4-2.6-3.3-3.9-5.7-3.9c-2.4,0-4.3,1.3-5.7,3.9C419.7,138.6,419,142.6,419,148z"/>
		<path class="st2" d="M464.1,156.3l7-34.2h10.4l-12.6,50.7h-9.5l-12.6-50.7h10.4L464.1,156.3z"/>
		<path class="st2" d="M507.1,172.8c-0.5-1.2-0.8-2.7-1-4.5c-2.4,3.7-5.6,5.5-9.4,5.5c-3.7,0-6.7-1.4-9.1-4.3s-3.6-6.5-3.6-10.9
			c0-5.4,1.5-9.5,4.4-12.4c2.9-2.9,7.2-4.3,12.7-4.4h4.6v-2.9c0-2.3-0.4-4.2-1.3-5.6c-0.9-1.4-2.3-2.1-4.2-2.1c-1.7,0-3,0.5-4,1.6
			c-1,1.1-1.4,2.6-1.4,4.5h-10c0-2.9,0.7-5.7,2-8.2s3.2-4.5,5.7-5.9c2.4-1.4,5.2-2.1,8.2-2.1c4.6,0,8.3,1.6,11,4.7
			c2.7,3.1,4.1,7.6,4.1,13.2v22c0,4.8,0.5,8.5,1.5,10.9v0.8H507.1z M498.8,163.4c1.5,0,2.8-0.4,4.1-1.3c1.2-0.9,2.2-2.1,2.8-3.6
			v-8.7h-3.7c-5,0-7.7,2.3-8,7l0,0.8c0,1.7,0.4,3.1,1.3,4.2C496.1,162.9,497.3,163.4,498.8,163.4z"/>
		<path class="st2" d="M535.4,109.7v12.5h6.4v9.9h-6.4v25.3c0,1.9,0.3,3.2,0.8,4c0.5,0.8,1.5,1.2,3,1.2c1.1,0,2.1-0.1,2.9-0.3v10.3
			c-2,0.8-4,1.2-6.1,1.2c-7,0-10.6-4.8-10.7-14.4v-27.3h-5.5v-9.9h5.5v-12.5H535.4z"/>
		<path class="st2" d="M547.3,109c0-2,0.5-3.7,1.5-5c1-1.3,2.4-2,4.1-2c1.7,0,3.1,0.7,4.1,2s1.5,3,1.5,5c0,2.1-0.5,3.7-1.5,5.1
			c-1,1.3-2.4,2-4.1,2s-3-0.7-4.1-2C547.8,112.8,547.3,111.1,547.3,109z M557.9,172.8h-10v-50.7h10V172.8z"/>
		<path class="st2" d="M580.1,156.3l7-34.2h10.4l-12.6,50.7h-9.5l-12.6-50.7h10.4L580.1,156.3z"/>
		<path class="st2" d="M630.6,161.5h22v11.3h-32.4v-68.2h10.4V161.5z"/>
		<path class="st2" d="M679.6,172.8c-0.5-1.2-0.8-2.7-1-4.5c-2.4,3.7-5.6,5.5-9.4,5.5c-3.7,0-6.7-1.4-9.1-4.3s-3.6-6.5-3.6-10.9
			c0-5.4,1.5-9.5,4.4-12.4c2.9-2.9,7.2-4.3,12.7-4.4h4.6v-2.9c0-2.3-0.4-4.2-1.3-5.6c-0.9-1.4-2.3-2.1-4.2-2.1c-1.7,0-3,0.5-4,1.6
			c-1,1.1-1.4,2.6-1.4,4.5h-10c0-2.9,0.7-5.7,2-8.2s3.2-4.5,5.7-5.9c2.4-1.4,5.2-2.1,8.2-2.1c4.6,0,8.3,1.6,11,4.7
			c2.7,3.1,4.1,7.6,4.1,13.2v22c0,4.8,0.5,8.5,1.5,10.9v0.8H679.6z M671.4,163.4c1.5,0,2.8-0.4,4.1-1.3c1.2-0.9,2.2-2.1,2.8-3.6
			v-8.7h-3.7c-5,0-7.7,2.3-8,7l0,0.8c0,1.7,0.4,3.1,1.3,4.2C668.6,162.9,669.8,163.4,671.4,163.4z"/>
		<path class="st2" d="M709.4,153.7l6.9-31.5H727l-15,58.6l-0.8,2.7c-2.2,6.6-5.9,9.9-11.1,9.9c-1.5,0-2.9-0.3-4.4-0.9v-10.3l1.5,0
			c1.9,0,3.3-0.4,4.2-1.2c0.9-0.8,1.7-2.1,2.2-3.9l1.2-4.2l-13.1-50.8h10.8L709.4,153.7z"/>
		<path class="st2" d="M730.9,109c0-2,0.5-3.7,1.5-5c1-1.3,2.4-2,4.1-2c1.7,0,3.1,0.7,4.1,2s1.5,3,1.5,5c0,2.1-0.5,3.7-1.5,5.1
			c-1,1.3-2.4,2-4.1,2s-3-0.7-4.1-2C731.4,112.8,730.9,111.1,730.9,109z M741.5,172.8h-10v-50.7h10V172.8z"/>
		<path class="st2" d="M759.5,127.7c2.7-4.3,6-6.5,10-6.5c8.1,0,12.2,6.4,12.4,19.2v32.5h-10v-32.1c0-2.9-0.5-5.1-1.4-6.4
			c-0.9-1.4-2.5-2.1-4.6-2.1c-2.9,0-5.1,1.5-6.4,4.6v36h-10v-72h10V127.7z"/>
		<path class="st2" d="M803.3,121.1c5.2,0,9.5,2.3,12.8,6.9c3.3,4.6,4.9,10.7,4.9,18.4v1.4c0,5-0.7,9.4-2.1,13.4s-3.4,7.1-6,9.3
			c-2.6,2.2-5.5,3.3-8.8,3.2c-5,0-8.9-2-11.7-6.1c-2.8-4-4.2-9.7-4.2-17v-7.4h22.6c-0.4-3.5-1.3-6.2-2.8-8.2c-1.5-2-3.5-3-5.8-3
			c-3.2,0-6,0.8-8.3,2.2l-2.1,1.4l-2.7-8.8c1.7-1.8,3.8-3.2,6.3-4.3C797.9,121.7,800.5,121.1,803.3,121.1z M804.2,162.8
			c1.8,0,3.2-0.9,4.4-2.7c1.1-1.8,1.9-4.3,2.2-7.7h-12.7v1.2c0,3,0.5,5.3,1.6,6.8C800.8,162,802.3,162.8,804.2,162.8z"/>
		<path class="st2" d="M837.5,172.8h-10v-72h10V172.8z"/>
		<path class="st2" d="M859.6,121.1c5.2,0,9.5,2.3,12.8,6.9c3.3,4.6,4.9,10.7,4.9,18.4v1.4c0,5-0.7,9.4-2.1,13.4s-3.4,7.1-6,9.3
			c-2.6,2.2-5.5,3.3-8.8,3.2c-5,0-8.9-2-11.7-6.1c-2.8-4-4.2-9.7-4.2-17v-7.4h22.6c-0.4-3.5-1.3-6.2-2.8-8.2c-1.5-2-3.5-3-5.8-3
			c-3.2,0-6,0.8-8.3,2.2l-2.1,1.4l-2.7-8.8c1.7-1.8,3.8-3.2,6.3-4.3C854.1,121.7,856.8,121.1,859.6,121.1z M860.5,162.8
			c1.8,0,3.2-0.9,4.4-2.7c1.1-1.8,1.9-4.3,2.2-7.7h-12.7v1.2c0,3,0.5,5.3,1.6,6.8C857,162,858.5,162.8,860.5,162.8z"/>
		<path class="st2" d="M904.2,134.8c-1.4-0.2-2.6-0.4-3.6-0.4c-3.8,0-6.3,1.7-7.4,5.2v33.2h-10v-50.7h9.4l0.3,6c2-4.7,4.8-7,8.3-7
			c1.1,0,2.1,0.2,3.1,0.6L904.2,134.8z"/>
		<path class="st2" d="M940.9,104.6l12.9,49.5l12.9-49.5h13.6v68.2h-10.4v-18.6l1-32.2l-13.6,50.8h-7.1L936.7,122l1,32.1v18.6h-10.4
			v-68.2H940.9z"/>
		<path class="st2" d="M1002.6,121.1c5.2,0,9.5,2.3,12.8,6.9c3.3,4.6,4.9,10.7,4.9,18.4v1.4c0,5-0.7,9.4-2.1,13.4s-3.4,7.1-6,9.3
			c-2.6,2.2-5.5,3.3-8.8,3.2c-5,0-8.9-2-11.7-6.1c-2.8-4-4.2-9.7-4.2-17v-7.4h22.6c-0.4-3.5-1.3-6.2-2.8-8.2c-1.5-2-3.5-3-5.8-3
			c-3.2,0-6,0.8-8.3,2.2l-2.1,1.4l-2.7-8.8c1.7-1.8,3.8-3.2,6.3-4.3C997.2,121.7,999.8,121.1,1002.6,121.1z M1003.5,162.8
			c1.8,0,3.2-0.9,4.4-2.7c1.1-1.8,1.9-4.3,2.2-7.7h-12.7v1.2c0,3,0.5,5.3,1.6,6.8C1000.1,162,1001.6,162.8,1003.5,162.8z"/>
		<path class="st2" d="M1047.3,134.8c-1.4-0.2-2.6-0.4-3.6-0.4c-3.8,0-6.3,1.7-7.4,5.2v33.2h-10v-50.7h9.4l0.3,6c2-4.7,4.8-7,8.3-7
			c1.1,0,2.1,0.2,3.1,0.6L1047.3,134.8z"/>
		<path class="st2" d="M1065.7,152.5l-3.6,4.9v15.5h-10v-72h10v39.9l1.9-3.4l9.6-15.2h12l-13.5,21.1l14.7,29.6h-11.5L1065.7,152.5z"
			/>
		<path class="st2" d="M1103.8,121.1c5.2,0,9.5,2.3,12.8,6.9c3.3,4.6,4.9,10.7,4.9,18.4v1.4c0,5-0.7,9.4-2.1,13.4s-3.4,7.1-6,9.3
			c-2.6,2.2-5.5,3.3-8.8,3.2c-5,0-8.9-2-11.7-6.1c-2.8-4-4.2-9.7-4.2-17v-7.4h22.6c-0.4-3.5-1.3-6.2-2.8-8.2c-1.5-2-3.5-3-5.8-3
			c-3.2,0-6,0.8-8.3,2.2l-2.1,1.4l-2.7-8.8c1.7-1.8,3.8-3.2,6.3-4.3C1098.4,121.7,1101,121.1,1103.8,121.1z M1104.7,162.8
			c1.8,0,3.2-0.9,4.4-2.7c1.1-1.8,1.9-4.3,2.2-7.7h-12.7v1.2c0,3,0.5,5.3,1.6,6.8C1101.3,162,1102.8,162.8,1104.7,162.8z"/>
		<path class="st2" d="M1139,161.9h18.3v10.9h-31.1v-8.2l17.6-31.5h-17.1v-10.9h30v8L1139,161.9z"/>
		<path class="st2" d="M1163.4,109c0-2,0.5-3.7,1.5-5c1-1.3,2.4-2,4.1-2c1.7,0,3.1,0.7,4.1,2s1.5,3,1.5,5c0,2.1-0.5,3.7-1.5,5.1
			c-1,1.3-2.4,2-4.1,2s-3-0.7-4.1-2C1164,112.8,1163.4,111.1,1163.4,109z M1174.1,172.8h-10v-50.7h10V172.8z"/>
	</g>
	<g>
		<g>
			<g>
				<path class="st11" d="M141.8,0.5l0.9,65.3c-0.9,0.1-1.6,0.5-2.2,1.1l-14-8.4V9.9C131.6,4.6,136.7,1.5,141.8,0.5z"/>
				<path class="st11" d="M143.9,0.1v65.7c0.5,0.1,1,0.3,1.4,0.5l58.1-38.8c-6.9-10-16.2-12.8-27.6-9.1
					C165.3,6.3,154.7-1.1,143.9,0.1z"/>
				<path class="st11" d="M207.7,35.4l-0.1,70.3c-1,0.2-1.9,0.9-2.4,1.8l-58.6-36.3c0.2-0.5,0.4-1.1,0.4-1.7c0-1-0.4-1.8-1-2.5
					l58.4-38C205.5,30.9,206.6,33.1,207.7,35.4z"/>
				<path class="st11" d="M233.7,61.3l-23.6,44.6c-0.5-0.2-1-0.3-1.5-0.4l1.7-68.2C223.8,40.5,231.9,48.2,233.7,61.3z"/>
				<path class="st11" d="M244.2,83.1l-32.4,24.5c-0.2-0.4-0.5-0.8-0.9-1.1l23.1-41.8c0.1,1.5,0.1,3.1,0,4.7
					C239.2,73.5,242.5,78,244.2,83.1z"/>
				<path class="st11" d="M245.9,131.7l-34.2-20.3c0.4-0.6,0.6-1.3,0.6-2.1c0-0.4,0-0.7-0.1-1l32.7-22.9c1.5,6.6,0.1,14.1-4.3,22.3
					C246.8,115.8,249.7,123.8,245.9,131.7z"/>
				<path class="st11" d="M237.7,170.1l-8.9,4.1c-0.6-1.3-1.9-2.1-3.4-2.1l0,0l-16.2-59c0.6-0.1,1.2-0.4,1.7-0.8l34,21.2
					c-1.5,2.5-3.8,5.1-6.9,7.6c10.3,10.6,8.3,20-0.5,28.7L237.7,170.1z"/>
				<path class="st11" d="M223.2,172.8l-37.6-49.9l19.9-11.3c0.6,0.9,1.7,1.4,2.8,1.5l16.2,59.1C224,172.3,223.5,172.5,223.2,172.8z
					"/>
				<path class="st11" d="M230.8,190.7l-3.5-11.6c1-0.5,1.7-1.5,1.9-2.6l9.5-4C241.3,181.5,238.5,187.4,230.8,190.7z"/>
				<path class="st11" d="M225.9,179.6l0.2,1.1l3.7,13.5c-3.3,14.3-10.1,24.6-19.7,31.5l-3.5-0.4l-28.3-17.9
					c0.4-0.6,0.6-1.3,0.6-2.1c0-0.4-0.1-0.9-0.2-1.3l44.4-25.3c0.6,0.5,1.4,0.8,2.3,0.8C225.6,179.6,225.7,179.6,225.9,179.6z"/>
				<path class="st11" d="M178.1,211.9l7.2,37.3c7.1-4.7,14.3-11.8,21.5-21.2l-29-19.8c-0.1,0.1-0.2,0.2-0.4,0.3L178.1,211.9z"/>
				<path class="st11" d="M221.7,175.1l-64.3-34.9c-0.3,0.4-0.7,0.7-1.1,0.9l18.3,60.5c0.2,0,0.4-0.1,0.6-0.1c1.3,0,2.4,0.6,3.1,1.6
					l44.3-25c-0.6-0.7-0.9-1.5-0.9-2.4C221.7,175.6,221.7,175.4,221.7,175.1z"/>
				<path class="st11" d="M173.4,202.1l-18.6-60.5l-0.2,0c-1.3,0-2.5-0.7-3.2-1.8l-25,12v41.1l45.1,11.6
					C171.7,203.5,172.4,202.6,173.4,202.1z"/>
				<path class="st11" d="M128.5,233.4l43.4-26.2c-0.3-0.5-0.5-1.2-0.5-1.8v0l-45-8.6v34C127.1,231.7,127.8,232.6,128.5,233.4z"/>
				<path class="st11" d="M172.6,208.1l-42.7,27c13,15.6,26,22.3,39.1,20.5l5.9-46.5C174,209.1,173.2,208.7,172.6,208.1z"/>
				<path class="st11" d="M182.9,250.6l-6.6-41.7c-0.1,0-0.3,0.1-0.4,0.1l-4.6,46.2C175.2,254.4,179,252.9,182.9,250.6z"/>
				<path class="st11" d="M126.4,62.5l13.4,5.4c-0.2,0.5-0.4,1-0.4,1.6l0,0.3l-13,2.3V62.5z"/>
				<path class="st11" d="M126.4,79.1l13.7-7.5c-0.1-0.2-0.2-0.4-0.3-0.6l-13.3,4.2V79.1z"/>
				<path class="st11" d="M126.4,130.1l24.5,6.8c0.4-1.6,1.9-2.9,3.7-2.9c1.3,0,2.5,0.7,3.2,1.7l25.1-12.8L144.5,73
					c-0.4,0.2-0.9,0.3-1.4,0.3c-0.8,0-1.5-0.2-2.1-0.6l-14.7,9.2V130.1z"/>
				<path class="st11" d="M126.4,132.4l24.4,5.2l0,0.1c0,0.4,0.1,0.7,0.1,1l-24.5,10.9V132.4z"/>
				<path class="st11" d="M221.9,174.4L158,139.3c0.2-0.5,0.3-1,0.3-1.5c0-0.4-0.1-0.8-0.2-1.1l25.8-12.8l38.3,49.9
					C222.1,173.9,222,174.2,221.9,174.4z"/>
				<path class="st11" d="M184.2,122.2l-38.4-50c0.1-0.1,0.3-0.3,0.4-0.4l58.7,36.6c-0.1,0.3-0.1,0.6-0.1,0.9c0,0.6,0.1,1.1,0.4,1.6
					L184.2,122.2z"/>
			</g>
			<g>
				<path class="st11" d="M105.8,0.5l-0.9,65.3c0.9,0.1,1.6,0.5,2.2,1.1l14-8.4V9.9C116,4.6,110.9,1.5,105.8,0.5z"/>
				<path class="st11" d="M103.7,0.1v65.7c-0.5,0.1-1,0.3-1.4,0.5L44.2,27.5c6.9-10,16.2-12.8,27.6-9.1C82.3,6.3,92.9-1.1,103.7,0.1
					z"/>
				<path class="st11" d="M39.9,35.4l0.1,70.3c1,0.2,1.9,0.9,2.4,1.8L101,71.2c-0.2-0.5-0.4-1.1-0.4-1.7c0-1,0.4-1.8,1-2.5L43.2,29
					C42.1,30.9,40.9,33.1,39.9,35.4z"/>
				<path class="st11" d="M13.9,61.3l23.6,44.6c0.5-0.2,1-0.3,1.5-0.4l-1.7-68.2C23.8,40.5,15.7,48.2,13.9,61.3z"/>
				<path class="st11" d="M3.4,83.1l32.4,24.5c0.2-0.4,0.5-0.8,0.9-1.1L13.5,64.6c-0.1,1.5-0.1,3.1,0,4.7C8.4,73.5,5.1,78,3.4,83.1z
					"/>
				<path class="st11" d="M1.7,131.7L36,111.4c-0.4-0.6-0.6-1.3-0.6-2.1c0-0.4,0-0.7,0.1-1L2.7,85.5C1.3,92.1,2.7,99.5,7,107.8
					C0.8,115.8-2.1,123.8,1.7,131.7z"/>
				<path class="st11" d="M9.8,170.1l8.9,4.1c0.6-1.3,1.9-2.1,3.4-2.1l0,0l16.2-59c-0.6-0.1-1.2-0.4-1.7-0.8l-34,21.2
					c1.5,2.5,3.8,5.1,6.9,7.6c-10.3,10.6-8.3,20,0.5,28.7L9.8,170.1z"/>
				<path class="st11" d="M24.4,172.8l37.6-49.9l-19.9-11.3c-0.6,0.9-1.7,1.4-2.8,1.5l-16.2,59.1C23.6,172.3,24.1,172.5,24.4,172.8z
					"/>
				<path class="st11" d="M16.8,190.7l3.5-11.6c-1-0.5-1.7-1.5-1.9-2.6l-9.5-4C6.3,181.5,9.1,187.4,16.8,190.7z"/>
				<path class="st11" d="M21.7,179.6l-0.2,1.1l-3.7,13.5c3.3,14.3,10.1,24.6,19.7,31.5l3.5-0.4l28.3-17.9c-0.4-0.6-0.6-1.3-0.6-2.1
					c0-0.4,0.1-0.9,0.2-1.3l-44.4-25.3c-0.6,0.5-1.4,0.8-2.3,0.8C22,179.6,21.9,179.6,21.7,179.6z"/>
				<path class="st11" d="M69.5,211.9l-7.2,37.3c-7.1-4.7-14.3-11.8-21.5-21.2l29-19.8c0.1,0.1,0.2,0.2,0.4,0.3L69.5,211.9z"/>
				<path class="st11" d="M25.9,175.1l64.3-34.9c0.3,0.4,0.7,0.7,1.1,0.9l-18.3,60.5c-0.2,0-0.4-0.1-0.6-0.1c-1.3,0-2.4,0.6-3.1,1.6
					l-44.3-25c0.6-0.7,0.9-1.5,0.9-2.4C25.9,175.6,25.9,175.4,25.9,175.1z"/>
				<path class="st11" d="M74.2,202.1l18.6-60.5l0.2,0c1.3,0,2.5-0.7,3.2-1.8l25,12v41.1l-45.1,11.6
					C75.8,203.5,75.1,202.6,74.2,202.1z"/>
				<path class="st11" d="M119.1,233.4l-43.4-26.2c0.3-0.5,0.5-1.2,0.5-1.8v0l45-8.6v34C120.5,231.7,119.8,232.6,119.1,233.4z"/>
				<path class="st11" d="M75,208.1l42.7,27c-13,15.6-26,22.3-39.1,20.5l-5.9-46.5C73.6,209.1,74.4,208.7,75,208.1z"/>
				<path class="st11" d="M64.7,250.6l6.6-41.7c0.1,0,0.3,0.1,0.4,0.1l4.6,46.2C72.4,254.4,68.6,252.9,64.7,250.6z"/>
				<path class="st11" d="M121.2,62.5l-13.4,5.4c0.2,0.5,0.4,1,0.4,1.6l0,0.3l13,2.3V62.5z"/>
				<path class="st11" d="M121.2,79.1l-13.7-7.5c0.1-0.2,0.2-0.4,0.3-0.6l13.3,4.2V79.1z"/>
				<path class="st11" d="M121.2,130.1l-24.5,6.8c-0.4-1.6-1.9-2.9-3.7-2.9c-1.3,0-2.5,0.7-3.2,1.7l-25.1-12.8L103,73
					c0.4,0.2,0.9,0.3,1.4,0.3c0.8,0,1.5-0.2,2-0.6l14.7,9.2V130.1z"/>
				<path class="st11" d="M121.2,132.4l-24.4,5.2l0,0.1c0,0.4-0.1,0.7-0.1,1l24.5,10.9V132.4z"/>
				<path class="st11" d="M25.7,174.4l63.9-35.1c-0.2-0.5-0.3-1-0.3-1.5c0-0.4,0.1-0.8,0.2-1.1l-25.8-12.8l-38.3,49.9
					C25.4,173.9,25.6,174.2,25.7,174.4z"/>
				<path class="st11" d="M63.4,122.2l38.4-50c-0.1-0.1-0.3-0.3-0.4-0.4l-58.7,36.6c0.1,0.3,0.1,0.6,0.1,0.9c0,0.6-0.1,1.1-0.4,1.6
					L63.4,122.2z"/>
			</g>
		</g>
	</g>
</g>
</svg>
