<?xml version="1.0" encoding="utf-8"?>
<!-- Generator: Adobe Illustrator 25.0.0, SVG Export Plug-In . SVG Version: 6.00 Build 0)  -->
<svg version="1.1" id="Layer_1" xmlns="http://www.w3.org/2000/svg" xmlns:xlink="http://www.w3.org/1999/xlink" x="0px" y="0px"
	 viewBox="0 0 269 65.1" style="enable-background:new 0 0 269 65.1;" xml:space="preserve">
<style type="text/css">
	.st0{fill:#AFAFAF;}
</style>
<g>
	<path class="st0" d="M74.5,24.7H72v4.4h-1.3V18.5h4c2.1,0,3.6,1.2,3.6,3.1c0,1.5-0.9,2.6-2.3,2.9l3,4.5h-1.5L74.5,24.7z M72,23.5
		h2.7c1.5,0,2.2-0.6,2.2-1.9c0-1.3-0.7-1.9-2.2-1.9H72V23.5z"/>
	<path class="st0" d="M87.7,25.6h-6c0.2,1.6,1.1,2.6,2.6,2.6c1.2,0,2-0.4,2.3-1.2l1.1,0.6c-0.6,1.1-1.6,1.7-3.3,1.7
		c-2.4,0-3.9-1.6-3.9-4.2c0-2.6,1.4-4.2,3.8-4.2c2.3,0,3.6,1.7,3.6,3.7C87.7,25.1,87.7,25.4,87.7,25.6z M81.6,24.4h4.9
		c-0.2-1.5-1-2.4-2.4-2.4C82.7,22.1,81.8,22.9,81.6,24.4z"/>
	<path class="st0" d="M97.7,25.1c0,2.6-1.4,4.2-3.6,4.2c-1.2,0-2.2-0.6-2.7-1.4v4.6h-1.3V21.1h1.1l0.1,1.4c0.5-0.9,1.5-1.6,2.7-1.6
		C96.3,20.9,97.7,22.5,97.7,25.1z M96.5,25.1c0-1.9-0.9-3-2.5-3c-1.5,0-2.5,1.1-2.5,2.9v0.2c0,1.8,1,2.9,2.5,2.9
		C95.5,28.1,96.5,27,96.5,25.1z"/>
	<path class="st0" d="M107.2,21.1v8H106l-0.1-1.2c-0.6,1-1.6,1.4-2.9,1.4c-1.6,0-2.9-0.8-2.9-2.9v-5.3h1.3V26c0,1.6,0.7,2.1,1.9,2.1
		c1.4,0,2.6-0.8,2.6-2.7v-4.3H107.2z"/>
	<path class="st0" d="M117.7,25.1c0,2.6-1.4,4.2-3.6,4.2c-1.3,0-2.3-0.6-2.7-1.6l-0.1,1.4h-1.1V17.4h1.3v4.9
		c0.5-0.8,1.5-1.4,2.7-1.4C116.3,20.9,117.7,22.5,117.7,25.1z M116.4,25.1c0-1.9-0.9-3-2.5-3c-1.5,0-2.5,1.1-2.5,2.9v0.2
		c0,1.8,1,2.9,2.5,2.9C115.5,28.1,116.4,27,116.4,25.1z"/>
	<path class="st0" d="M121.4,27c0,0.8,0.2,1.1,0.9,1.1c0.4,0,0.7,0,1.2-0.2l-0.2,1.2c-0.3,0.1-0.8,0.2-1.2,0.2
		c-1.3,0-1.9-0.7-1.9-2.1v-9.7h1.3V27H121.4z"/>
	<path class="st0" d="M124.8,18.6c0-0.6,0.4-1,1-1s1,0.4,1,1s-0.4,1-1,1S124.8,19.2,124.8,18.6z M126.4,29.1h-1.3v-8h1.3V29.1z"/>
	<path class="st0" d="M136.1,23.1l-1.2,0.6c-0.3-1-1-1.6-2.1-1.6c-1.6,0-2.6,1.1-2.6,3s1,3,2.6,3c1.2,0,2-0.6,2.2-1.6l1.2,0.4
		c-0.5,1.5-1.7,2.4-3.4,2.4c-2.4,0-3.9-1.6-3.9-4.2c0-2.6,1.5-4.2,3.9-4.2C134.4,20.9,135.5,21.8,136.1,23.1z"/>
	<path class="st0" d="M151.1,25.1c0,2.6-1.5,4.2-3.9,4.2s-3.9-1.6-3.9-4.2c0-2.6,1.5-4.2,3.9-4.2S151.1,22.5,151.1,25.1z
		 M144.6,25.1c0,1.9,1,3.1,2.6,3.1s2.6-1.2,2.6-3.1c0-1.9-1-3.1-2.6-3.1S144.6,23.2,144.6,25.1z"/>
	<path class="st0" d="M155.3,21.1h2.7v1.1h-2.7v6.9H154v-6.9h-1.6v-1.1h1.6v-1.3c0-1.4,0.9-2.4,2.6-2.4c0.6,0,1.1,0.1,1.4,0.4
		l-0.3,1c-0.3-0.2-0.5-0.2-0.9-0.2c-0.9,0-1.5,0.4-1.5,1.4V21.1z"/>
	<path class="st0" d="M170.1,26.2h-4.8l-1.1,2.9h-1.3l4.1-10.6h1.5l4.1,10.6h-1.4L170.1,26.2z M169.6,25l-1.4-3.7l-0.5-1.5l0,0
		l-0.5,1.4l-1.4,3.8H169.6z"/>
	<path class="st0" d="M173.9,28.1l4.2-4.9l1-1h-1.4H174v-1.1h6.6v1l-4.2,4.9l-1,1h1.6h3.8v1.1H174v-1H173.9z"/>
	<path class="st0" d="M189.7,25.6h-6c0.2,1.6,1.1,2.6,2.6,2.6c1.2,0,2-0.4,2.3-1.2l1.1,0.6c-0.6,1.1-1.6,1.7-3.3,1.7
		c-2.4,0-3.9-1.6-3.9-4.2c0-2.6,1.4-4.2,3.8-4.2c2.3,0,3.6,1.7,3.6,3.7C189.7,25.1,189.7,25.4,189.7,25.6z M183.7,24.4h4.8
		c-0.2-1.5-1-2.4-2.4-2.4C184.7,22.1,183.8,22.9,183.7,24.4z"/>
	<path class="st0" d="M196.8,21.1l-0.3,1.2c-0.2-0.1-0.6-0.2-1-0.2c-1,0-2.1,0.8-2.1,2.6v4.4h-1.3v-8h1l0.2,1.3
		c0.4-1,1.3-1.5,2.6-1.5C196.2,20.9,196.6,21,196.8,21.1z"/>
	<path class="st0" d="M206.3,25.1c0,2.6-1.4,4.2-3.6,4.2c-1.3,0-2.3-0.6-2.7-1.6l-0.1,1.4h-1.1V17.4h1.3v4.9
		c0.5-0.8,1.5-1.4,2.7-1.4C204.9,20.9,206.3,22.5,206.3,25.1z M205,25.1c0-1.9-0.9-3-2.5-3c-1.5,0-2.5,1.1-2.5,2.9v0.2
		c0,1.8,1,2.9,2.5,2.9C204.1,28.1,205,27,205,25.1z"/>
	<path class="st0" d="M216,28.1l-0.1,1c-0.2,0.1-0.6,0.2-1,0.2c-0.8,0-1.3-0.3-1.4-1.2c-0.5,0.8-1.6,1.2-2.6,1.2
		c-1.5,0-2.7-0.7-2.7-2.1c0-1.2,1.1-2.1,3.1-2.5l2.1-0.4v-0.4c0-1.1-0.7-1.8-1.9-1.8c-1.1,0-1.9,0.5-2.3,1.5l-0.9-0.7
		c0.4-1.2,1.7-2,3.2-2c1.8,0,3.2,0.9,3.2,2.7v3.9c0,0.4,0.2,0.6,0.6,0.6C215.5,28.2,215.8,28.1,216,28.1z M213.4,26.4v-1.1l-1.8,0.3
		c-1.4,0.3-2.1,0.7-2.1,1.5c0,0.7,0.5,1,1.5,1C212.3,28.1,213.4,27.5,213.4,26.4z"/>
	<path class="st0" d="M217.5,18.6c0-0.6,0.4-1,1-1s1,0.4,1,1s-0.4,1-1,1S217.5,19.2,217.5,18.6z M219.1,29.1h-1.3v-8h1.3V29.1z"/>
	<path class="st0" d="M223.4,29.9c0,2-1.3,2.6-2.4,2.6c-0.7,0-1.2-0.2-1.6-0.5l0.3-1.2c0.3,0.3,0.8,0.5,1.3,0.5
		c0.7,0,1.2-0.4,1.2-1.5v-8.7h1.3L223.4,29.9L223.4,29.9z M223.7,18.6c0,0.5-0.4,1-1,1s-1-0.4-1-1s0.4-1,1-1S223.7,18.1,223.7,18.6z
		"/>
	<path class="st0" d="M233.5,28.1l-0.1,1c-0.2,0.1-0.6,0.2-1,0.2c-0.8,0-1.3-0.3-1.4-1.2c-0.5,0.8-1.6,1.2-2.6,1.2
		c-1.5,0-2.7-0.7-2.7-2.1c0-1.2,1.1-2.1,3.1-2.5l2.1-0.4v-0.4c0-1.1-0.7-1.8-1.9-1.8c-1.1,0-1.9,0.5-2.3,1.5l-0.9-0.7
		c0.4-1.2,1.7-2,3.2-2c1.8,0,3.2,0.9,3.2,2.7v3.9c0,0.4,0.2,0.6,0.6,0.6C233.1,28.2,233.4,28.1,233.5,28.1z M231,26.4v-1.1l-1.8,0.3
		c-1.4,0.3-2.1,0.7-2.1,1.5c0,0.7,0.5,1,1.5,1C229.8,28.1,231,27.5,231,26.4z"/>
	<path class="st0" d="M242.4,24v5.1h-1.3v-4.7c0-1.8-0.9-2.4-2-2.4c-1.2,0-2.5,0.7-2.5,2.8v4.3h-1.3v-8h1.1l0.1,1.2
		c0.6-1,1.6-1.4,2.7-1.4C241,20.9,242.4,21.9,242.4,24z"/>
</g>
<g>
	<path class="st0" d="M80.9,51.1h-1.2v-6.6l0.1-2.8l0,0l-3.5,9.4h-1.1l-3.5-9.4l0,0l0.1,2.8v6.6h-1.2V40.5h2l2.3,6.4l0.8,2.6l0,0
		l0.8-2.6l2.3-6.4h2L80.9,51.1L80.9,51.1z"/>
	<path class="st0" d="M83.8,40.6c0-0.6,0.4-1,1-1s1,0.4,1,1s-0.4,1-1,1S83.8,41.2,83.8,40.6z M85.4,51.1h-1.3v-8h1.3V51.1z"/>
	<path class="st0" d="M95.4,46v5.1h-1.3v-4.7c0-1.8-0.9-2.4-2-2.4c-1.2,0-2.5,0.7-2.5,2.8v4.3h-1.3v-8h1.1l0.1,1.2
		c0.6-1,1.6-1.4,2.7-1.4C94,42.9,95.4,43.9,95.4,46z"/>
	<path class="st0" d="M98,40.6c0-0.6,0.4-1,1-1s1,0.4,1,1s-0.4,1-1,1S98,41.2,98,40.6z M99.6,51.1h-1.3v-8h1.3V51.1z"/>
	<path class="st0" d="M101.8,49.5l1-0.7c0.4,1,1.4,1.4,2.5,1.4c1.3,0,1.9-0.5,1.9-1.2c0-0.6-0.5-0.9-2.1-1.2c-2.3-0.4-3.1-1-3.1-2.4
		c0-1.3,1.2-2.4,3.2-2.4c1.7,0,2.7,0.6,3.2,1.9l-1.1,0.6c-0.4-1.1-1.1-1.4-2.1-1.4c-1.1,0-1.9,0.6-1.9,1.2c0,0.7,0.5,1,2.2,1.3
		c2.2,0.4,3,1,3,2.4s-1.3,2.4-3.3,2.4C103.8,51.3,102.5,50.7,101.8,49.5z"/>
	<path class="st0" d="M115.9,50.5c-0.5,0.4-1.2,0.7-2.1,0.7c-1.2,0-2.2-0.6-2.2-2.1v-4.9H110v-1.1h1.6v-1.9l1.3-0.4v2.3h3v1.1h-3
		v4.7c0,0.8,0.5,1.2,1.2,1.2c0.6,0,1-0.2,1.4-0.6L115.9,50.5z"/>
	<path class="st0" d="M122.4,43.1l-0.3,1.2c-0.2-0.1-0.6-0.2-1-0.2c-1,0-2.1,0.8-2.1,2.6v4.4h-1.3v-8h1l0.2,1.3
		c0.4-1,1.3-1.5,2.6-1.5C121.8,42.9,122.1,43,122.4,43.1z"/>
	<path class="st0" d="M127.3,52.4c-0.6,1.6-1.3,2.1-2.5,2.1c-0.8,0-1.3-0.2-1.8-0.7l0.4-1.1c0.4,0.5,0.8,0.6,1.3,0.6
		c0.6,0,1.1-0.2,1.5-1.3l0.4-1l-3.3-8h1.5l2,5.2l0.5,1.4l0.6-1.6l1.9-5.1h1.4L127.3,52.4z"/>
	<path class="st0" d="M145.1,47.1c0,2.6-1.5,4.2-3.9,4.2s-3.9-1.6-3.9-4.2s1.5-4.2,3.9-4.2S145.1,44.5,145.1,47.1z M138.6,47.1
		c0,1.9,1,3.1,2.6,3.1s2.6-1.2,2.6-3.1s-1-3.1-2.6-3.1S138.6,45.2,138.6,47.1z"/>
	<path class="st0" d="M149.3,43.1h2.7v1.1h-2.7v6.9H148v-6.9h-1.6v-1.1h1.6v-1.3c0-1.4,0.9-2.4,2.6-2.4c0.6,0,1.1,0.1,1.4,0.4
		l-0.3,1c-0.3-0.2-0.5-0.2-0.9-0.2c-0.9,0-1.5,0.4-1.5,1.4V43.1z"/>
	<path class="st0" d="M160.1,41.7v3.4h4.8v1.2h-4.8v4.8h-1.3V40.5h7.4v1.2H160.1z"/>
	<path class="st0" d="M174.7,47.1c0,2.6-1.5,4.2-3.9,4.2s-3.9-1.6-3.9-4.2s1.5-4.2,3.9-4.2S174.7,44.5,174.7,47.1z M168.2,47.1
		c0,1.9,1,3.1,2.6,3.1s2.6-1.2,2.6-3.1s-1-3.1-2.6-3.1S168.2,45.2,168.2,47.1z"/>
	<path class="st0" d="M181.8,43.1l-0.3,1.2c-0.2-0.1-0.6-0.2-1-0.2c-1,0-2.1,0.8-2.1,2.6v4.4h-1.3v-8h1l0.2,1.3
		c0.4-1,1.3-1.5,2.6-1.5C181.2,42.9,181.6,43,181.8,43.1z"/>
	<path class="st0" d="M190.2,47.6h-6c0.2,1.6,1.1,2.6,2.6,2.6c1.2,0,2-0.4,2.3-1.2l1.1,0.6c-0.6,1.1-1.6,1.7-3.3,1.7
		c-2.4,0-3.9-1.6-3.9-4.2s1.4-4.2,3.8-4.2c2.3,0,3.6,1.7,3.6,3.7C190.3,47.1,190.2,47.4,190.2,47.6z M184.2,46.4h4.8
		c-0.2-1.5-1-2.4-2.4-2.4C185.3,44.1,184.4,44.9,184.2,46.4z"/>
	<path class="st0" d="M192.4,40.6c0-0.6,0.4-1,1-1s1,0.4,1,1s-0.4,1-1,1S192.4,41.2,192.4,40.6z M194,51.1h-1.3v-8h1.3V51.1z"/>
	<path class="st0" d="M203.8,52c0,1.6-1.8,2.6-4,2.6c-2.5,0-3.7-0.9-3.7-2.1c0-0.7,0.5-1.3,1.4-1.6c-0.6-0.3-1.1-0.8-1.1-1.5
		c0-0.8,0.5-1.3,1.2-1.6c-0.8-0.5-1.2-1.3-1.2-2.2c0-1.6,1.4-2.7,3.3-2.7c0.6,0,1.2,0.1,1.6,0.3c0.3-1.1,1.1-1.6,2.3-1.6l0.3,1.1
		c-1.1,0-1.7,0.3-1.9,0.9c0.6,0.5,1,1.2,1,2c0,1.6-1.4,2.7-3.3,2.7c-0.5,0-0.9,0-1.2-0.1c-0.6,0.1-0.9,0.5-0.9,1
		c0,0.6,0.4,0.9,1.1,0.9h2.7C203,50.1,203.8,50.8,203.8,52z M202.7,52.1c0-0.6-0.4-0.9-1.6-0.9H199c-1,0-1.5,0.4-1.5,1
		c0,0.8,0.9,1.3,2.6,1.3C201.7,53.5,202.7,52.8,202.7,52.1z M197.9,45.6c0,1,0.8,1.7,2,1.7c1.1,0,2-0.7,2-1.7s-0.8-1.7-2-1.7
		C198.7,44,197.9,44.7,197.9,45.6z"/>
	<path class="st0" d="M212.8,46v5.1h-1.3v-4.7c0-1.8-0.9-2.4-2-2.4c-1.2,0-2.5,0.7-2.5,2.8v4.3h-1.3v-8h1.1l0.1,1.2
		c0.6-1,1.6-1.4,2.7-1.4C211.4,42.9,212.8,43.9,212.8,46z"/>
	<path class="st0" d="M226.6,48.2h-4.8l-1.1,2.9h-1.3l4.1-10.6h1.5l4.1,10.6h-1.4L226.6,48.2z M226.2,47l-1.4-3.7l-0.5-1.5l0,0
		l-0.5,1.4l-1.4,3.8C222.4,47,226.2,47,226.2,47z"/>
	<path class="st0" d="M232.6,43.1h2.7v1.1h-2.7v6.9h-1.3v-6.9h-1.6v-1.1h1.6v-1.3c0-1.4,0.9-2.4,2.6-2.4c0.6,0,1.1,0.1,1.4,0.4
		l-0.3,1c-0.3-0.2-0.5-0.2-0.9-0.2c-0.9,0-1.5,0.4-1.5,1.4L232.6,43.1L232.6,43.1z"/>
	<path class="st0" d="M237.7,43.1h2.7v1.1h-2.7v6.9h-1.3v-6.9h-1.6v-1.1h1.6v-1.3c0-1.4,0.9-2.4,2.6-2.4c0.6,0,1.1,0.1,1.4,0.4
		l-0.3,1c-0.3-0.2-0.5-0.2-0.9-0.2c-0.9,0-1.5,0.4-1.5,1.4L237.7,43.1L237.7,43.1z"/>
	<path class="st0" d="M248.8,50.1l-0.1,1c-0.2,0.1-0.6,0.2-1,0.2c-0.8,0-1.3-0.3-1.4-1.2c-0.5,0.8-1.6,1.2-2.6,1.2
		c-1.5,0-2.7-0.7-2.7-2.1c0-1.2,1.1-2.1,3.1-2.5l2.1-0.4v-0.4c0-1.1-0.7-1.8-1.9-1.8c-1.1,0-1.9,0.5-2.3,1.5l-0.9-0.7
		c0.4-1.2,1.7-2,3.2-2c1.8,0,3.2,0.9,3.2,2.7v3.9c0,0.4,0.2,0.6,0.6,0.6C248.4,50.2,248.6,50.1,248.8,50.1z M246.3,48.4v-1.1
		l-1.8,0.3c-1.4,0.3-2.1,0.7-2.1,1.5c0,0.7,0.5,1,1.5,1C245.1,50.1,246.3,49.5,246.3,48.4z"/>
	<path class="st0" d="M250.4,40.6c0-0.6,0.4-1,1-1s1,0.4,1,1s-0.4,1-1,1S250.4,41.2,250.4,40.6z M252,51.1h-1.3v-8h1.3V51.1z"/>
	<path class="st0" d="M259.6,43.1l-0.3,1.2c-0.2-0.1-0.6-0.2-1-0.2c-1,0-2.1,0.8-2.1,2.6v4.4h-1.3v-8h1l0.2,1.3
		c0.4-1,1.3-1.5,2.6-1.5C259,42.9,259.4,43,259.6,43.1z"/>
	<path class="st0" d="M260.4,49.5l1-0.7c0.4,1,1.4,1.4,2.5,1.4c1.3,0,1.9-0.5,1.9-1.2c0-0.6-0.5-0.9-2.1-1.2c-2.3-0.4-3.1-1-3.1-2.4
		c0-1.3,1.2-2.4,3.2-2.4c1.7,0,2.7,0.6,3.2,1.9l-1.1,0.6c-0.4-1.1-1.1-1.4-2.1-1.4c-1.1,0-1.9,0.6-1.9,1.2c0,0.7,0.5,1,2.2,1.3
		c2.2,0.4,3,1,3,2.4s-1.3,2.4-3.3,2.4C262.4,51.3,261,50.7,260.4,49.5z"/>
</g>
<g>
	<path class="st0" d="M29.3,1.7C14.6,1.7,2.6,13.6,2.6,28.3C2.6,43.1,14.6,55,29.3,55C44,55,56,43.1,56,28.3
		C56,13.6,44,1.7,29.3,1.7z M29.3,3.6c6.6,0,12.8,2.6,17.5,7.2S54,21.7,54,28.3c0,6.6-2.6,12.8-7.2,17.5s-10.9,7.2-17.5,7.2
		c-6.6,0-12.8-2.6-17.5-7.2c-4.7-4.7-7.2-10.9-7.2-17.5c0-6.6,2.6-12.8,7.2-17.5C16.5,6.2,22.7,3.6,29.3,3.6"/>
	<g>
		<path class="st0" d="M50.6,20.2c-0.4,0.2-0.8,0-1-0.4c-0.2-0.4,0-0.8,0.4-1c0.4-0.2,0.8,0,1,0.4C51.2,19.6,51,20.1,50.6,20.2z
			 M51.3,19.2c-0.2-0.5-0.8-0.7-1.3-0.5c-0.5,0.2-0.7,0.8-0.5,1.3c0.2,0.5,0.8,0.7,1.3,0.5C51.3,20.3,51.5,19.7,51.3,19.2z"/>
		<path class="st0" d="M8.4,20.2c-0.4,0.2-0.8,0-1-0.4c-0.2-0.4,0-0.8,0.4-1c0.4-0.2,0.8,0,1,0.4C9,19.6,8.8,20.1,8.4,20.2z
			 M9.1,19.2c-0.2-0.5-0.8-0.7-1.3-0.5c-0.5,0.2-0.7,0.8-0.5,1.3c0.2,0.5,0.8,0.7,1.3,0.5C9.1,20.3,9.3,19.7,9.1,19.2z"/>
		<path class="st0" d="M8.4,37.7c-0.4,0.2-0.8,0-1-0.4c-0.2-0.4,0-0.8,0.4-1c0.4-0.2,0.8,0,1,0.4C9,37.1,8.8,37.5,8.4,37.7z
			 M9.1,36.7c-0.2-0.5-0.8-0.7-1.3-0.5c-0.5,0.2-0.7,0.8-0.5,1.3c0.2,0.5,0.8,0.7,1.3,0.5C9.1,37.8,9.3,37.2,9.1,36.7z"/>
		<path class="st0" d="M20.8,50c-0.4,0.2-0.8,0-1-0.4c-0.2-0.4,0-0.8,0.4-1c0.4-0.2,0.8,0,1,0.4C21.4,49.4,21.2,49.9,20.8,50z
			 M21.5,49c-0.2-0.5-0.8-0.7-1.3-0.5c-0.5,0.2-0.7,0.8-0.5,1.3c0.2,0.5,0.8,0.7,1.3,0.5C21.5,50.1,21.7,49.5,21.5,49z"/>
		<path class="st0" d="M38.3,50c-0.4,0.2-0.8,0-1-0.4c-0.2-0.4,0-0.8,0.4-1c0.4-0.2,0.8,0,1,0.4C38.8,49.4,38.6,49.9,38.3,50z
			 M39,49c-0.2-0.5-0.8-0.7-1.3-0.5c-0.5,0.2-0.7,0.8-0.5,1.3c0.2,0.5,0.8,0.7,1.3,0.5C38.9,50.1,39.2,49.5,39,49z"/>
		<path class="st0" d="M50.6,37.7c-0.4,0.2-0.8,0-1-0.4c-0.2-0.4,0-0.8,0.4-1c0.4-0.2,0.8,0,1,0.4C51.2,37.1,51,37.5,50.6,37.7z
			 M51.3,36.7c-0.2-0.5-0.8-0.7-1.3-0.5c-0.5,0.2-0.7,0.8-0.5,1.3c0.2,0.5,0.8,0.7,1.3,0.5C51.3,37.8,51.5,37.2,51.3,36.7z"/>
		<path class="st0" d="M31,49.1l1.6-3.9c2.3-0.5,4.5-1.4,6.4-2.7l3.9,1.6C39.7,46.9,35.6,48.8,31,49.1z M38.9,42.5
			c-1.8,1.3-4,2.2-6.2,2.6l1.8-4.4L38.9,42.5z M29.4,50.7l-4.7-11.2l-11.2,4.7L18.1,33L6.9,28.5l11.2-4.7l-4.7-11.2l11.2,4.6L29.2,6
			l4.7,11.2L45,12.4l-4.6,11.2l11.2,4.6l-11.2,4.7l4.7,11.2L34,39.5L29.4,50.7z M19.9,42.6l4.4-1.8l1.8,4.4
			C23.8,44.7,21.7,43.8,19.9,42.6z M15.8,44.3l3.9-1.6c1.9,1.3,4.1,2.2,6.4,2.6l1.6,3.9C23.2,48.8,19.1,47,15.8,44.3z M15.2,37.9
			c-1.2-1.8-2.1-3.9-2.6-6.2l4.4,1.8L15.2,37.9z M8.5,30.1l3.9,1.6c0.5,2.3,1.4,4.5,2.7,6.4L13.5,42C10.7,38.7,8.9,34.6,8.5,30.1z
			 M15.1,18.9l1.8,4.4l-4.4,1.8C13,22.9,13.8,20.8,15.1,18.9z M13.4,14.9l1.6,3.9c-1.3,1.9-2.2,4.1-2.6,6.4l-3.9,1.6
			C8.8,22.3,10.6,18.1,13.4,14.9z M25.9,11.6L24.1,16l-4.4-1.8C21.5,12.9,23.6,12,25.9,11.6z M27.6,7.5L26,11.4
			c-2.3,0.5-4.5,1.4-6.4,2.7l-3.9-1.6C18.9,9.7,23,7.9,27.6,7.5z M38.7,14.1l-4.4,1.9l-1.9-4.4C34.8,12,36.9,12.8,38.7,14.1z
			 M42.8,12.4L38.9,14c-1.9-1.3-4.1-2.2-6.5-2.6l-1.6-3.9C35.3,7.8,39.5,9.6,42.8,12.4z M46.1,24.9l-4.4-1.8l1.8-4.4
			C44.7,20.6,45.6,22.7,46.1,24.9z M50.1,26.6L46.2,25c-0.5-2.4-1.4-4.5-2.7-6.4l1.6-3.9C47.9,17.9,49.8,22.1,50.1,26.6z M41.7,33.4
			l4.4-1.9c-0.4,2.3-1.3,4.4-2.6,6.3L41.7,33.4z M45.2,41.8l-1.6-3.9c1.3-1.9,2.2-4.1,2.7-6.5l3.9-1.6C49.8,34.4,48,38.5,45.2,41.8z
			 M46.9,45.7L45.3,42c2.8-3.3,4.7-7.6,5-12.2l3.7-1.6l-3.8-1.5c-0.4-4.6-2.2-8.8-5.1-12.1l1.5-3.8l-3.8,1.6
			c-3.3-2.8-7.6-4.7-12.2-5l-1.6-3.8l-1.5,3.8c-4.6,0.4-8.8,2.2-12.1,5.1l-3.8-1.6l1.6,3.8c-2.8,3.3-4.6,7.5-4.9,12.1l-3.8,1.6
			L8.4,30c0.4,4.6,2.2,8.8,5.1,12.1l-1.6,3.8l3.8-1.6c3.3,2.8,7.5,4.7,12.1,5l1.6,3.8l1.5-3.8c4.6-0.4,8.8-2.2,12.1-5.1L46.9,45.7z"
			/>
		<path class="st0" d="M30.5,32.9c0-4.6-1.9-5.7-1.9-10.2c0-1.7,0.5-4,1-5.1c-0.4,4.6,3.5,7.5,3.5,13.5c0,3.9-1.5,6.1-2.6,6.1
			c-0.7,0-0.7-0.5-1-0.5c-0.4,0-0.7,0.6-1.5,0.6c-0.8,0-3.2-1.2-3.6-6.6c-0.4,1.1-0.1,2.7,0.2,3.5c-1.5-2.7-1.4-6,0.8-9.4
			c-0.4,3.5-0.2,6.3,0.9,8.9c0.2,0.5,0.6,0.8,1,0.5c0.4-0.3,0-0.8-0.3-1.5c-0.3-0.6-3.3-7.2,1.2-12.6c-0.5,4.7,1.4,7.7,1.4,9.9
			c0,2.2-1.3,5.2,0,5.2C30.4,35.2,30.5,33.6,30.5,32.9z"/>
		<path class="st0" d="M32.1,36.2c2.4-1.7,3.6-4.7,3.6-7c0-3.8-3.8-6.9-4.5-9.1c0,3.5,2.4,5.7,2.4,10.5
			C33.7,34.9,32.1,36.2,32.1,36.2z"/>
		<g>
			<path class="st0" d="M7.7,44C7.7,44,7.7,44,7.7,44C7.7,44,7.7,44,7.7,44z"/>
			<path class="st0" d="M5.4,40.2c-0.1-0.2-0.1-0.3-0.2-0.5C5.3,39.9,5.3,40,5.4,40.2z"/>
			<path class="st0" d="M4.5,38c-0.1-0.1-0.1-0.3-0.2-0.4C4.3,37.7,4.4,37.9,4.5,38z"/>
			<path class="st0" d="M57.7,38.6c0-0.1,0-0.1-0.1-0.1c-0.1,0-0.1,0-0.1,0.1c-0.2,0.7-0.5,1.3-0.8,2l-0.4,0.4
				c0.1-0.2,0.1-0.4,0.1-0.7c0.5-0.9,0.8-2,1-2.6c0-0.1,0-0.1-0.1-0.1c-0.1,0-0.1,0-0.1,0.1c-0.1,0.5-0.4,1.3-0.7,2
				c0-0.3,0-0.6,0-0.9c0.3-0.7,0.6-1.5,0.8-2.4c0-0.1,0-0.1-0.1-0.1c-0.1,0-0.1,0-0.1,0.1c-0.2,0.7-0.3,1.3-0.5,1.9l0,0v-1
				c0.2-0.9,0.5-1.9,0.6-2.7c0-0.1,0-0.1-0.1-0.1c-0.1,0-0.1,0-0.1,0.1c-0.2,1-0.4,2.1-0.7,3l-0.3,0.6c-0.1,0.2-0.2,0.4-0.4,0.6
				c0,0,0,0,0,0c0.3-0.9,0.5-1.8,0.7-2.6c0-0.1,0-0.1-0.1-0.1c-0.1,0-0.1,0-0.1,0.1c-0.2,1-0.6,2.2-0.9,3.3c-0.2,0.3-0.4,0.7-0.6,1
				l0-0.8c0.3-0.9,0.7-1.9,1-3.2c0-0.1,0-0.1-0.1-0.1c-0.1,0-0.1,0-0.1,0.1c-0.4,1.5-0.8,2.6-1.1,3.6l-0.3,0.4
				c-0.2,0.2-0.4,0.5-0.5,0.8c0.3-1.2,0.9-2.5,1.1-3.7l0,0C50.7,47.6,40.9,55,29.3,55c-8.4,0-15.9-3.9-20.8-10c0,0,0,0,0,0
				c-0.1,0.6-0.5,1.3-1,1.1c-0.6-0.3-0.4-0.8-0.2-1c0.1-0.2,0.1-0.5-0.5-1C6.2,43.7,6.6,43,7,42.9C7,43,7,43,7,43
				c-0.5-0.7-0.9-1.5-1.3-2.2c0.1,0.1,0.1,0.2,0.2,0.3l0,0c0,0,0.5,1.9,0,1.1c-0.7-2.4-1.6-3.9-2.7-5.6c0-0.1-0.1-0.1-0.2,0
				c-0.1,0-0.1,0.1,0,0.2c0.9,1.3,1.6,2.5,2.2,4.1c-0.4-0.6-0.9-1.1-1.4-1.5l-0.1-0.1c0,0-0.1,0-0.2,0c0,0,0,0.1,0,0.2l0.1,0.1
				c0.8,0.7,1.6,1.4,2.1,3C6.1,43.9,5.4,45,4.4,45c-1.3,0-1.9-1.3-1.9-1.9c0-0.9,0.8-0.9,0.8-1.6c0.1-0.7-1.2-1.5-1.5-1.7
				c-0.4-0.3-0.7-0.9,0.3-1.4c0.4-0.2,0.4-0.8,0.2-1c-1-1.1-1-1.6-0.5-2.2c0.7-0.9,1.7,0.6,2,1.4l0,0C4,36.7,4,36.8,4,36.9
				c-0.2-0.5-0.4-1.1-0.5-1.6c-0.3-0.4-0.7-0.7-1.1-0.7c-0.2,0-0.5,0.1-0.8,0.4c-0.9,1.1-0.1,2.2,0.4,2.6c0.1,0.1,0.4,0.3-0.1,0.5
				c-0.7,0.3-0.7,0.6-0.8,0.9c0,0.2,0,0.5,0.1,0.7c-0.5-0.1-0.9,0.1-1.1,0.2c-0.5,0.5,0.5,1.5,1,1.9c0,0.2-0.1,0.5,0.5,0.7
				c0.2,0.1,0.5,0.1,0.7,0.1c0,0.1-0.1,0.3-0.1,0.5c0,0.7,0.5,2.3,2.3,2.3c-0.1,0.2-0.2,0.4-0.2,0.7c0,1.4,0.9,1.3,0.9,1.8
				c0,0.3-1.2,0.4-1.2,1.4c0,1,0.6,1.4,1.9,1.4c0.6,0,0.7,0.1,0.7,0.2c0,0.2-0.9,0.5-0.9,1.1c0,0.2,0.1,0.9,1.2,1.2
				c-0.3,0.2-0.6,0.4-0.6,0.7c0,0.3,0.1,0.6,0.9,1c0.4,0.2,0.9,0.3,1.3,0.3c0.1,0.1,0.3,0.2,0.4,0.2c0,0.2,0.1,0.5,0.3,0.7
				c0.3,0.3,0.5,0.5,0.7,0.6c-0.9,0-1.7,0.6-1.8,1.3c-0.1,0.4,0,0.7,0.2,1c0.3,0.4,0.8,0.5,1.1,0.5c0,0,0.1,0,0.1,0
				c0.3,0,0.5-0.1,0.7-0.1c0.1,0,0.3-0.1,0.4-0.1c0,0,0,0,0,0l0,0c0,0,0,0,0,0.1c0,0.1,0.1,0.2,0.1,0.4c0.1,0.4,0.3,0.9,0.9,0.9l0,0
				c-0.3,0.8-0.2,1.7,0.3,2.1c0.1,0.1,0.2,0.1,0.3,0.1c0.5,0,1.1-0.5,1.4-1c0.5-0.6,0.9-0.6,0.9-0.6l0,0c0.2,0.1,0.5,0.2,0.6,0.2
				c0.2,0,0.5,0.4,0.2,0.7c-0.3,0.3-0.5,0.8-0.5,1.2c0,0.9,0.6,1.5,1.4,1.5c1.8,0,1.7-1.3,1.6-1.7c0-0.5,0.3-0.4,0.4-0.3
				c0.5,0.4,1,0.5,1.5,0.1c0.2-0.1,0.3-0.3,0.4-0.5c0.2,0.2,0.5,0.3,0.8,0.3c0.3,0,0.6-0.1,0.8-0.2c0,0,0,0,0,0
				c0,0.3,0.1,0.5,0.3,0.6c0.1,0.1,0.2,0.1,0.2,0.1c-0.1,0-0.1,0.1-0.1,0.1c-0.1,0-0.2,0.1-0.2,0.1c-0.1,0.1-0.2,0.2-0.1,0.4
				c0.1,0.5,0.7,0.6,1.1,0.6c0.1,0,0.3,0,0.4,0c0.2,0,0.3-0.1,0.4-0.2v0c0.2-0.2,0.6-0.4,0.9-0.6c-0.2,0.1-0.4,0.3-0.6,0.4
				c0,0,0,0-0.1,0l0,0h0c-0.2,0.2-0.2,0.4-0.2,0.5c0.1,0.5,0.9,0.5,1.2,0.5c0.4,0,1.1-0.2,1.4-0.5v0l0,0c0,0,0.1-0.1,0.1-0.1
				c0.3-0.3,0.9-0.8,1.6-1.2c0.7,0.4,2.5,1.5,2.7,1.6v0c0.1,0.1,0.2,0.1,0.4,0.1c0.2,0,0.4,0,0.5,0c1.1,0,2-0.4,2-1
				c0-0.1,0-0.3-0.3-0.5l0,0c-0.6-0.2-1.5-0.7-2.7-1.2l0.1,0c0.7,0.1,3,1.5,3,1.5c0.2,0.1,0.4,0.1,0.7,0.1c0.4,0,1.2-0.2,1.3-0.7
				c0-0.1,0-0.4-0.4-0.6l0,0l0,0c0,0,0,0-0.1,0c-0.1,0-0.1,0-0.2-0.1c-2.2-0.7-3.1-1.2-3.4-1.4c1.7,0.7,4.2,1.6,6.2,2.2
				c-0.3,0.2-1.1,0.8-2.9,1c0,0,0,0.2,0.1,0.3c0.3,0.1,1.1,0.2,1.8,0.2c2.1,0,3.8-0.9,3.8-0.9c0.1-0.7,0.2-1.5,0.3-1.9l0.6,0
				c-0.4,0.5-0.6,1.2-0.6,1.2s0.7-0.2,1.9-0.9l0.9-0.5c0.5-0.6,0.9-1.4,1-1.8c-0.1-0.3-0.3-0.3-0.3-0.3c-1,0.1-2,0.2-2.8,0.3
				c1.3-0.2,3.1-0.7,4.5-1.3c0.7-0.2,1.5-0.6,2.4-1.1c0.1,0,0.1-0.1,0-0.1c0-0.1-0.1-0.1-0.1,0c-1,0.6-1.8,0.9-2.6,1.2
				c-1,0.3-1.9,0.2-2.7,0.1c1.5-0.2,4-1,6-2.5c0.5-0.3,0.9-0.6,1.3-0.9c0,0,0.1-0.1,0-0.2c0,0-0.1-0.1-0.2,0
				c-0.4,0.3-0.8,0.6-1.2,0.8c-1,0.5-2.2,0.6-2.8,0.7c1.2-0.4,2.7-1.2,4.2-2.3c0.6-0.4,1.3-0.8,1.9-1.3c0,0,0.1-0.1,0-0.2
				c0,0-0.1-0.1-0.2,0c-0.7,0.5-1.4,1-2.1,1.4c-0.7,0.4-1.4,0.4-1.8,0.4c1.3-0.4,2.4-1.2,4-2.6c0.5-0.4,1-0.8,1.5-1.3
				c0,0,0-0.1,0-0.2c0,0-0.1,0-0.2,0c-0.5,0.5-1,0.9-1.5,1.3c-0.6,0.4-1.3,0.6-1.9,0.7C52,52.1,53.1,51,54,50
				c0.3-0.3,0.7-0.7,1.1-1.1c0,0,0-0.1,0-0.2c0,0-0.1,0-0.2,0c-0.3,0.4-0.7,0.7-1,1c-0.3,0.2-0.6,0.3-0.9,0.4c0,0,0,0,0.1,0
				c0.7-0.6,1.6-1.4,2.2-2.5c0.6-0.7,1.3-1.6,1.9-2.5c0-0.1,0-0.1,0-0.2c-0.1,0-0.1,0-0.2,0c-0.6,1-1.4,1.9-2,2.7l0,0
				c-0.3,0.3-0.8,0.4-1.2,0.6c1.1-0.7,1.4-1.5,2.5-3.2c0.4-0.5,0.8-1.1,1.1-1.7c0-0.1,0-0.1,0-0.1c-0.1,0-0.1,0-0.1,0
				c-0.3,0.6-0.7,1.1-1,1.6c-0.2,0.2-0.4,0.4-0.6,0.5c0.4-0.6,0.8-1.3,1.2-2.3c0.3-0.5,0.6-1,0.9-1.7c0-0.1,0-0.1-0.1-0.1
				c-0.1,0-0.1,0-0.1,0.1c-0.3,0.6-0.5,1.1-0.8,1.5c-0.1,0.2-0.3,0.3-0.4,0.5c0.4-0.7,0.7-1.6,1-3.2C57.3,39.7,57.5,39.1,57.7,38.6z
				 M2.9,41.5c0,0.1-0.1,0.2-0.2,0.2c-0.1,0-0.2-0.1-0.2-0.2s0.1-0.2,0.2-0.2C2.8,41.3,2.9,41.4,2.9,41.5z M0.4,40.3
				c0.1-0.2,1.2-0.2,1.7,0.2c-0.1,0.3-0.4,0.8-0.8,1.1C0.9,41.3,0.3,40.6,0.4,40.3z M1.7,42.2c-0.1,0-0.2-0.1-0.2-0.2
				c0-0.1,0.1-0.2,0.2-0.2c0.1,0,0.2,0.1,0.2,0.2C1.8,42.1,1.8,42.2,1.7,42.2z M2.2,41.3c0.1,0,0.2,0.1,0.2,0.2
				c0,0.1-0.1,0.2-0.2,0.2c-0.1,0-0.2-0.1-0.2-0.2C2,41.3,2.1,41.3,2.2,41.3z M2.2,42.2C2.1,42.2,2,42.1,2,42c0-0.1,0.1-0.2,0.2-0.2
				c0.1,0,0.2,0.1,0.2,0.2C2.4,42.1,2.3,42.2,2.2,42.2z M2.4,40.8c0-0.1,0.1-0.2,0.2-0.2c0.1,0,0.2,0.1,0.2,0.2
				c0,0.1-0.1,0.2-0.2,0.2C2.5,41,2.4,40.9,2.4,40.8z M54.6,40.8c0.2-0.7,1.2-2.1,1.6-2.7c0,2.3-0.1,2.9-0.7,3.6
				C54.9,42.4,54.2,42.1,54.6,40.8z M54.6,42.3C54.5,42.3,54.5,42.4,54.6,42.3C54.5,42.4,54.5,42.3,54.6,42.3
				C54.5,42.3,54.5,42.3,54.6,42.3z M54.1,40.4c-0.1,0.7,0.2,1.7,0,2.1s-0.6,1.1-0.9,0.5C53,42.4,53.5,41.1,54.1,40.4z M51.6,43.6
				c0.1-0.6,1.2-2.4,1.2-2.4c-0.4,1.6,0.5,2.8-0.1,3.4C52.2,45.2,51.2,45.7,51.6,43.6z M50.8,47.1c0.5-0.4,1-1,1.5-1.8
				c0,0,0.1-0.1,0.2,0c0,0,0.1,0.1,0,0.2c-0.5,0.7-1,1.4-1.5,1.8c-0.1,0.3-0.3,0.5-0.4,0.8c0.5-0.5,1.2-1.2,1.8-1.8c0,0,0.1,0,0.2,0
				c0,0,0,0.1,0,0.2c-0.8,0.8-1.8,1.9-2.3,2.3c-0.2,0.2-0.3,0.4-0.5,0.6c-0.6,0.6-1.5,0-0.9-0.8C49.2,47.9,50.3,47.4,50.8,47.1z
				 M50.2,47c0.3-0.3,0.6-0.7,0.9-1c-0.1,0.3-0.1,0.5-0.3,0.7C50.6,46.9,50.4,47.1,50.2,47z M50.4,45.6c0,0-0.1,0-0.2,0
				c-0.1,0.2-0.3,0.4-0.4,0.5c0.1-0.8,1-1.9,1.3-2.3c0,0.6,0,1.2,0,1.7c-0.3,0.3-0.7,0.8-1.1,1.3c-0.1-0.1-0.2-0.2-0.2-0.4
				c0.2-0.2,0.4-0.5,0.6-0.7C50.5,45.8,50.5,45.7,50.4,45.6z M49.6,46.7c-1.7,2-1.1,2.6-1.5,3.2c-0.4,0.6-0.8,0.8-1.1,0.7
				c-0.2-0.2,0-0.9,0.6-1.7C48.2,48,49.2,47,49.6,46.7z M36.2,59.2c-0.9-0.3-0.9-1.2,0.2-1.5c1.2-0.2,3.2,0.8,4.9,0.8
				C38.6,59.4,37.1,59.5,36.2,59.2z M40,59.9c-2.1,0.8-3.9,1.1-5.6,0.9c-1.6-0.2-1.4-1.6-0.3-1.7C35.5,59,37.5,60.2,40,59.9z
				 M40,58.1c0.3,0,0.5,0,0.8-0.1c0.3,0.1,0.5,0.2,0.8,0.4C41.1,58.4,40.6,58.2,40,58.1z M38.7,57.8c-1.2-0.2-0.4-1.3,0.3-1.4
				c1-0.2,2.4,0.8,3.6,0.9C41.1,57.9,40,58,38.7,57.8z M41.8,56.8c0.5,0,1.2,0,2.3-0.5c0.2,0.1,0.3,0.2,0.5,0.3
				c-0.5,0.2-0.9,0.3-1.3,0.4C42.7,57.1,42.2,57,41.8,56.8z M41.4,56.6c-0.7-0.1-1.2-0.6-0.3-1.2c1.1-0.8,3.2,0.3,3.9,0.2
				C43.5,56.4,42.1,56.7,41.4,56.6z M43.1,54.1c0.6-0.4,2.1,0.2,3.2,0.1c-1.3,0.8-2,1.1-3,0.9C42.7,54.9,42.7,54.3,43.1,54.1z
				 M44.7,55.3c0.4-0.1,0.8-0.4,1.2-0.6c0.3,0,0.5,0,0.8,0.1c-0.3,0.2-0.6,0.3-1,0.5C45.3,55.4,45,55.3,44.7,55.3z M45.1,53.8
				c-0.7,0-0.9-0.5-0.4-1c0.8-0.7,1.8,0,3.4-0.1C46.5,53.7,45.8,53.8,45.1,53.8z M46.7,53.7c0.4-0.2,0.9-0.4,1.4-0.7
				c0.2,0,0.3,0,0.5,0c-0.7,0.4-1.4,0.7-2,0.9C46.7,53.9,46.7,53.8,46.7,53.7z M47.1,52.3c-0.8,0-1.2-0.4-0.3-1
				c0.8-0.5,2.3,0,3.2-0.4C48.7,52.1,47.9,52.3,47.1,52.3z M47.1,48.8c-0.7,1.3-0.5,1.2-0.6,2c-0.1,0.8-1,1.6-1,0.2
				C45.5,50.1,46.8,49.1,47.1,48.8z M43.9,51.8c0.4-1,1.5-1.8,1.5-1.8c-0.7,1.3-0.2,1.9-0.9,2.6C43.9,53.3,43.5,52.8,43.9,51.8z
				 M43.8,51.3c-0.5,1,0.1,1.7-0.8,2.5c-0.8,0.9-1.2,0-0.7-0.9C42.7,52.2,43.3,51.7,43.8,51.3z M42.5,52c-1.2,1.4-0.6,2.2-1.5,3.1
				c-1,0.9-1.4,0.1-0.9-0.8C40.5,53.5,41.8,52.4,42.5,52z M40.4,52.9c-0.8,1.4-0.9,2.6-1.6,3.3c-0.7,0.7-1.8,0.2-1.1-1
				C38.4,54.1,40,53.2,40.4,52.9z M38,54c-1,1.7-0.4,2.1-1.8,3.4c-1.2,1.2-1.5-0.2-1.1-0.8C35.9,55.5,37.2,54.5,38,54z M33.7,58.9
				c-0.7,0.6-1.5,0.2-1.1-0.8c0.7-1.5,2.5-2.9,3.5-3.5C34.7,56.6,34.4,58.2,33.7,58.9z M32.9,59.5c-0.6,0.2-1.3,0.5-2.1,0.8
				c0-0.1-0.1-0.3-0.2-0.4c0.7-0.3,1.3-0.5,1.9-0.6l0,0C32.5,59.4,32.7,59.5,32.9,59.5z M31.6,59.2c-0.8,0.8-1.9,0.4-1.4-0.8
				c0.6-1.2,2.7-2.9,4.1-3.4C32.5,57,32.8,58,31.6,59.2z M30.3,57.6c0-0.1-0.1-0.2-0.2-0.3c-0.2-0.2-0.3-0.3-0.5-0.4
				c0.8-0.7,1.8-1.4,2.8-1.7C31.5,56.2,30.7,57.1,30.3,57.6z M30.4,55.3c0.2,0.3-0.5,1.1-0.9,1.4c-0.1-0.9-0.7-1.2-0.6-1.2
				C29.4,55.1,30.3,55,30.4,55.3z M29,56.4c0.1,0,0.2,0.1,0.2,0.2c0,0.1-0.1,0.2-0.2,0.2c-0.1,0-0.2-0.1-0.2-0.2
				C28.9,56.5,28.9,56.4,29,56.4z M28.8,56.2c0,0.1-0.1,0.2-0.2,0.2c-0.1,0-0.2-0.1-0.2-0.2c0-0.1,0.1-0.2,0.2-0.2
				C28.7,56,28.8,56.1,28.8,56.2z M28.5,55.4c0.1,0,0.2,0.1,0.2,0.2c0,0.1-0.1,0.2-0.2,0.2c-0.1,0-0.2-0.1-0.2-0.2
				C28.4,55.5,28.4,55.4,28.5,55.4z M28.5,56.5c0.1,0,0.2,0.1,0.2,0.2c0,0.1-0.1,0.2-0.2,0.2c-0.1,0-0.2-0.1-0.2-0.2
				C28.3,56.6,28.4,56.5,28.5,56.5z M28.1,55.9c0.1,0,0.2,0.1,0.2,0.2s-0.1,0.2-0.2,0.2c-0.1,0-0.2-0.1-0.2-0.2S28,55.9,28.1,55.9z
				 M25.2,55.2c0.5-0.3,1-0.3,1.4,0.1c0.7,0.8-0.1,1.8,1.1,1.8c1.2,0.1,1.6-0.3,2.3,0.4c0.7,0.7-1.3,1.5-0.3,2
				c1.1,0.5,1,1.4,0.7,1.9c-0.4,0.5-1.2,0.6-1.6-0.1c-0.4-0.7-0.7-0.6-1-0.4c-0.3,0.3-0.7,0.9-1.2,0.2c-0.4-0.8,0-1.8-1.1-1.7
				c-1.1,0.1-1.2,1.7-2.5,0.7c-0.3-0.2-0.4-0.5-0.5-0.8c0-0.3,0.1-0.7,0.2-1c0,0,0,0,0.1,0c0.4-0.1,0.7-0.2,1-0.2
				c0.4,0.2,0.7,0.4,0.9,0.7c0,0,0.1,0.1,0.1,0.1c0,0,0,0,0.1,0c0.1,0,0.1-0.1,0-0.2c-0.2-0.3-0.4-0.5-0.7-0.7
				c1-0.2,1.7-0.2,2.4,0.1c0.8,0.6,0.8,1,0.8,1.6c0,0.1,0,0.1,0.1,0.1l0,0c0.1,0,0.1,0,0.1-0.1c0-0.5,0-0.8-0.3-1.3
				c0.6,0.4,1.2,1.1,2,2.1c0,0,0.1,0,0.1,0c0,0,0,0,0.1,0c0,0,0.1-0.1,0-0.2c-0.9-1.1-1.5-1.8-2.2-2.2c0.7,0.1,1.6,0.2,2.1,0
				c0.1,0,0.1-0.1,0.1-0.1c0-0.1-0.1-0.1-0.1-0.1c-0.6,0.3-2.2,0-2.7-0.1c0,0,0,0,0,0c-0.6-0.2-1.3-0.3-2.1-0.1
				c0.7-0.4,1.4-0.9,1.8-1.3c0,0,0-0.1,0-0.2c0,0-0.1,0-0.2,0c-0.5,0.5-1.4,1.2-2.3,1.6c-0.3,0.1-0.6,0.1-1,0.2
				C23.4,56.9,24.6,55.6,25.2,55.2z M24.6,61.1c0.3,0.3,0.6,0.5,0.9,0.7c-0.4,0.2-0.7,0.4-1.1,0.5C24.6,61.9,24.7,61.5,24.6,61.1z
				 M24.6,60.6c0,0,0.2-0.7,0.9-0.5c0,0,0.2,0.1,0.4,0.2c0,0,0,0.1,0,0.1c0.1,0.3,0.1,0.6,0.3,0.9c0,0,0,0,0,0
				c-0.1,0.1-0.2,0.1-0.3,0.2C25.4,61.2,25,60.9,24.6,60.6z M23.9,61.5c-0.1,0-0.2-0.1-0.2-0.2c0-0.1,0.1-0.2,0.2-0.2
				c0.1,0,0.2,0.1,0.2,0.2C24,61.5,24,61.5,23.9,61.5z M24,61.9c0,0.1-0.1,0.2-0.2,0.2c-0.1,0-0.2-0.1-0.2-0.2
				c0-0.1,0.1-0.2,0.2-0.2C23.9,61.8,24,61.8,24,61.9z M23.5,61.4c0,0.1-0.1,0.2-0.2,0.2c-0.1,0-0.2-0.1-0.2-0.2
				c0-0.1,0.1-0.2,0.2-0.2C23.4,61.2,23.5,61.3,23.5,61.4z M11.5,48.3c0.4,0.4,0.5,0.9,0.4,1.4l0,0c0,0-0.1-0.1-0.2-0.2
				c-0.1-0.3-0.4-1-1-1.2C10.9,48.1,11.2,48,11.5,48.3z M8.7,54.6c-0.8,0-1.8-0.4-1.8-0.8c0-0.4,1.1-0.7,1.8-0.6
				C8.8,53.7,8.8,54.1,8.7,54.6z M9.1,54.9c-0.1,0-0.2-0.1-0.2-0.2c0-0.1,0.1-0.2,0.2-0.2c0.1,0,0.2,0.1,0.2,0.2
				C9.3,54.9,9.2,54.9,9.1,54.9z M9.2,54.3c-0.1,0-0.2-0.1-0.2-0.2C9,54,9.1,54,9.2,54c0.1,0,0.2,0.1,0.2,0.2
				C9.3,54.2,9.2,54.3,9.2,54.3z M9.2,53.6c-0.1,0-0.2-0.1-0.2-0.2c0-0.1,0.1-0.2,0.2-0.2c0.1,0,0.2,0.1,0.2,0.2
				C9.4,53.5,9.3,53.6,9.2,53.6z M9.2,52.3c0,0.1,0,0.2,0,0.3c-0.3,0.2-0.8,0.4-1.3,0.4c-1.2-0.1-1.7-0.5-1.7-1c0-0.4,1-0.3,1-1.1
				c0-0.6-0.7-0.6-1.2-0.6c-1.5,0-1.6-0.5-1.6-0.9c0-0.5,0.4-0.5,1-0.9c0.8-0.4,0.3-1-0.3-1.3s-1-1.3-0.1-1.8
				c0.9-0.5,1.3-0.1,1.8,0.8c0.4,0.8,1.1,0.4,1.4,0.1C8.5,46,9,46,9.2,46.1c0.3,0.4,0.7,0.7,1.1,1c0.1,0.4,0.2,0.7,0.2,1
				c-0.1,0-0.1,0-0.2,0c-0.3,0-0.5,0.1-0.8,0.3C9,48.6,8.8,49,8.7,49.4c0,0.1,0,0.3,0,0.4c-0.2-0.2-0.4-0.4-0.7-0.7
				c-0.1-0.8,0-1.5,0.1-2.3c0-0.1,0-0.1-0.1-0.1c-0.1,0-0.1,0-0.1,0.1c-0.1,0.7-0.1,1.3-0.1,2c-0.8-0.9-1.6-1.9-2.3-3
				c0-0.1-0.1-0.1-0.2,0c-0.1,0-0.1,0.1,0,0.2c0.7,1.1,1.5,2.2,2.3,3.1c-0.5,0.1-1.1,0-2-0.2c-0.1,0-0.1,0-0.1,0.1
				c0,0.1,0,0.1,0.1,0.1c0.7,0.1,1.2,0.2,1.6,0.2c0.2,0,0.4,0,0.6,0c0.3,0.4,0.7,0.7,1,1c0.1,0.2,0.2,0.3,0.4,0.5
				c0.5,0.4,0.5,0.5,0.5,0.6c0,0,0,0.1-0.1,0.2C9.4,51.7,9.2,51.9,9.2,52.3z M9.6,54.3c0.1,0,0.2,0.1,0.2,0.2c0,0.1-0.1,0.2-0.2,0.2
				c-0.1,0-0.2-0.1-0.2-0.2C9.4,54.4,9.5,54.3,9.6,54.3z M9.5,53.8c0-0.1,0.1-0.2,0.2-0.2c0.1,0,0.2,0.1,0.2,0.2
				c0,0.1-0.1,0.2-0.2,0.2C9.5,54,9.5,53.9,9.5,53.8z M9.6,55.8c-0.7-0.7,0.5-1,0.9-1.6c0.3-0.4-0.1-0.8-0.7-1.3
				c-0.6-0.5-0.4-0.8,0.1-1.2c0.5-0.4,0.3-0.8-0.4-1.3c-0.8-0.6-0.6-1.5,0-1.8c1-0.6,1.5,0.2,1.8,0.9c0.3,0.7,0.6,0.5,1.1,0.2
				c0.6-0.3,0.8,0.4,1,1.2c0.2,0.8,0.6,0.6,1,0.6c0.8-0.2,1.1,0.2,1.4,0.8c-0.2,0.3-0.3,0.7-0.2,1.1c0.1,0.2,0.2,0.6,0.8,0.8
				c0.1,0.1,0.2,0.1,0.3,0.2c0.8,0.4,0.9,0.5,0.8,0.7c-0.1,0.2-0.1,0.2-0.5,0.2c-0.1,0-0.3,0-0.4,0c-0.5-0.7-1.4-1.4-2.1-1.4
				c0,0,0,0,0,0v-1c0-0.1,0-0.1-0.1-0.1c-0.1,0-0.1,0-0.1,0.1v1c-0.1,0-0.2,0.1-0.3,0.1c-0.2,0.1-0.3,0.3-0.4,0.4
				c-0.3-0.6-0.6-1.2-0.9-1.8c0-1.1,0.1-2,0.3-2.2c0-0.1,0-0.1,0-0.1c-0.1,0-0.1,0-0.1,0c-0.1,0.3-0.3,1.1-0.3,2
				c-0.7-1.2-1.6-2.2-2.2-3c0,0-0.1-0.1-0.2,0c0,0-0.1,0.1,0,0.2c0.6,0.8,1.5,1.8,2.2,3c-0.2-0.1-0.5-0.1-0.9-0.2
				c-0.3-0.1-0.7-0.1-1.1-0.2c-0.1,0-0.1,0-0.1,0.1c0,0.1,0,0.1,0.1,0.1c0.4,0.1,0.7,0.2,1.1,0.2c0.5,0.1,0.9,0.2,1.1,0.3
				c0.3,0.6,0.7,1.2,0.9,1.8c0,0,0,0,0.1,0.1c-0.1,0.2-0.1,0.4-0.2,0.5c-0.3,0-1-0.3-1.5-0.5c-0.1,0-0.1,0-0.1,0c0,0.1,0,0.1,0,0.1
				c0.5,0.2,1.2,0.5,1.6,0.6c0,0.2-0.1,0.2-0.2,0.3c-0.1,0.1-0.3,0.1-0.4,0.1c-0.2,0-0.4-0.1-0.6-0.2c-0.1-0.1-0.3-0.1-0.5-0.1
				c-0.2,0-0.4,0.1-0.5,0.2c-0.1,0.1-0.3,0.4-0.3,0.8c0,0,0,0.1,0,0.1C10.3,56.5,10,56.2,9.6,55.8z M10,54c0.1,0,0.2,0.1,0.2,0.2
				c0,0.1-0.1,0.2-0.2,0.2c-0.1,0-0.2-0.1-0.2-0.2C9.9,54.1,9.9,54,10,54z M9.9,53.5c0-0.1,0.1-0.2,0.2-0.2c0.1,0,0.2,0.1,0.2,0.2
				c0,0.1-0.1,0.2-0.2,0.2C10,53.6,9.9,53.5,9.9,53.5z M12.4,62.5c-0.3-0.2-0.3-1.1,0-1.9c0,0,0.9,0.1,1.4,0.7
				C13.7,61.6,12.7,62.8,12.4,62.5z M13.4,59.8c-0.1,0-0.2-0.1-0.2-0.2c0-0.1,0.1-0.2,0.2-0.2c0.1,0,0.2,0.1,0.2,0.2
				C13.6,59.7,13.5,59.8,13.4,59.8z M13.6,60c0.1,0,0.2,0.1,0.2,0.2c0,0.1-0.1,0.2-0.2,0.2c-0.1,0-0.2-0.1-0.2-0.2
				C13.5,60,13.6,60,13.6,60z M13.3,60.3c0,0.1-0.1,0.2-0.2,0.2c-0.1,0-0.2-0.1-0.2-0.2c0-0.1,0.1-0.2,0.2-0.2
				C13.2,60.1,13.3,60.2,13.3,60.3z M13.8,60.8c-0.1,0-0.2-0.1-0.2-0.2c0-0.1,0.1-0.2,0.2-0.2c0.1,0,0.2,0.1,0.2,0.2
				C14,60.7,13.9,60.8,13.8,60.8z M14,60c0-0.1,0.1-0.2,0.2-0.2c0.1,0,0.2,0.1,0.2,0.2s-0.1,0.2-0.2,0.2C14,60.2,14,60.1,14,60z
				 M14.3,60.8c-0.1,0-0.2-0.1-0.2-0.2c0-0.1,0.1-0.2,0.2-0.2c0.1,0,0.2,0.1,0.2,0.2C14.5,60.8,14.4,60.8,14.3,60.8z M14.5,59.8
				c-0.2-0.3-0.6-0.6-0.9-0.6c-0.7,0-0.8,1-1.7,1.1c-0.4,0-0.5-0.4-0.7-1c-0.2-0.6-0.9,0-1.6-0.1c-0.3,0-1.1-0.3-1-1.1
				c0.2-0.8,1-0.9,1.5-0.9c0.5,0.1,0.7,0,0.7-0.7c0-0.7,0.4-0.8,0.7-0.6c0.2,0.1,0.7,0.4,1.4,0.1c0.6-0.3,0.1-1,1-1.6
				c0.5-0.4,1.6,0.4,2.2,1.1c0,0-0.1,0.1-0.1,0.2c-0.1,0.3,0,0.6,0.2,0.9c0.1,0.1,0.2,0.2,0.3,0.3c-0.4-0.1-0.7-0.1-1-0.1
				c-0.4-0.2-1.5-1-1.6-1c-0.1,0-0.1,0-0.2,0c0,0.1,0,0.1,0,0.2c0,0,0.8,0.5,1.3,0.8c-0.8,0-1.4,0.3-2.1,0.5c0,0-0.1,0-0.1,0
				c-0.2,0-0.5-0.2-0.8-0.4c-0.2-0.1-0.4-0.2-0.7-0.3c-0.1,0-0.1,0-0.1,0.1c0,0.1,0,0.1,0.1,0.1c0.2,0.1,0.4,0.2,0.6,0.3
				c0.2,0.1,0.4,0.2,0.6,0.3c-0.7,0.2-1.3,0.4-2.3,0.3c-0.1,0-0.1,0-0.1,0.1c0,0.1,0,0.1,0.1,0.1c0.2,0,0.4,0,0.6,0
				c0.8,0,1.4-0.2,2-0.4c-0.3,0.5-0.8,1.1-0.9,1.2c0,0-0.1,0.1,0,0.2c0,0,0.1,0,0.1,0c0,0,0,0,0.1,0c0.2-0.1,0.8-1,1.1-1.5
				c0.6-0.2,1.2-0.4,2-0.4c-0.6,0.5-1.1,1.1-1.1,1.1c0,0,0,0.1,0,0.2c0,0,0,0,0.1,0c0,0,0.1,0,0.1,0c0,0,0.6-0.8,1.3-1.3
				c0.4,0,0.8,0.1,1.3,0.2c0,0,0,0,0,0c0,0.1-0.1,0.1-0.1,0.2c0,0.3,0.1,0.7,0.5,0.9c0.1,0,0.1,0.1,0.1,0.2c0,0.1,0,0.1-0.1,0.2
				c-0.4,0.3-0.8,0.4-1.5,0.5C15,59.3,14.6,59.5,14.5,59.8z M21.1,62.3c-0.3,0.1-0.5-0.1-0.7-0.4c-0.1-0.2-0.2-0.5-0.3-0.6
				c-0.1-0.2-0.2-0.4-0.2-0.5c0-0.1,0-0.2,0.1-0.2c0,0,0.1,0,0.1,0c0.1,0,0.1,0,0.2,0.1l0,0c0.3,0.3,0.7,0.7,1.2,0.7h0
				c0.1,0,0.2,0,0.3-0.1C21.8,61.8,21.6,62.2,21.1,62.3z M21.9,60.9c-0.4,0.4-1-0.2-1.4-0.5c-0.4-0.3-1-0.2-0.9,0.4
				c0,0.6,1,1.3,0.3,1.8c-0.7,0.5-1.3-0.4-1.8-0.3c-0.5,0.2-0.3,0.6-0.5,1.3c-0.1,0.7-1.1,1-1.7,0.5c-0.5-0.4-0.5-1.2,0-1.7
				c0.5-0.5,0.4-1,0.1-1.3c-0.3-0.3-1.4,0-1.3-0.9c0-0.4,0.4-0.7,1.2-0.9c0.8-0.1,1.2-0.3,1.7-0.6c0.5-0.3,0.3-0.8,0-1
				c-0.3-0.2-0.5-0.7,0-0.8c0.8-0.3,1.3,0,1.6,0.2c0,0.1,0.1,0.1,0.2,0.3c-0.1,0.1-0.2,0.1-0.3,0.2c-0.3,0.2-0.7,0.4-0.7,0.8
				c0,0.2,0.1,0.4,0.2,0.6c-0.2,0.2-0.3,0.3-0.5,0.5c-0.1,0.1-1,0.7-1.5,1.1c0,0,0,0.1,0,0.2c0,0,0.1,0.1,0.2,0
				c0.3-0.2,0.7-0.6,1-0.8c-0.7,1.1-1,2.5-1,3.3c0,0.1,0,0.1,0.1,0.1c0,0,0,0,0,0c0.1,0,0.1,0,0.1-0.1c0-0.9,0.4-2.3,1.1-3.4
				c0,0.7,0.2,1.3,0.5,1.7c0,0,0.1,0.1,0.1,0.1c0,0,0,0,0.1,0c0.1,0,0.1-0.1,0-0.2c-0.3-0.4-0.4-1.1-0.5-1.8
				c0.1-0.2,0.3-0.3,0.4-0.5c0,0,0,0,0,0c0.3,0.3,0.9,0.5,1.5,0.5h0c0.4,0,0.9-0.1,1.3-0.1c0,0,0,0,0.1,0
				C22,60.2,22.2,60.6,21.9,60.9z M22.3,58.8c-0.1-0.3-0.1-0.6-0.2-0.8c0-0.2,0-0.5-0.1-0.9c-0.1-0.5-0.1-1-0.1-1.4
				c0-0.1,0-0.1-0.1-0.1c-0.1,0-0.1,0-0.1,0.1c0,0.4,0.1,1,0.1,1.4c0,0.1,0,0.2,0,0.3c-0.5-0.9-1.2-1.4-1.9-1.9
				c0-0.8-0.2-1.4-0.3-1.7c0-0.1-0.1-0.1-0.1,0c-0.1,0-0.1,0.1,0,0.1c0.1,0.2,0.3,0.8,0.3,1.4c-0.1,0-0.1-0.1-0.2-0.1
				c-0.9-0.7-1.8-1.3-2.3-2.4c0-0.1-0.1-0.1-0.1-0.1c-0.1,0-0.1,0.1-0.1,0.1c0.5,1.2,1.4,1.9,2.4,2.5c0,0,0.1,0,0.1,0.1
				c-0.4,0.1-1,0.1-1.5,0.1c-0.1,0-0.1,0-0.1,0.1c0,0.1,0,0.1,0.1,0.1c0.1,0,0.2,0,0.3,0c0.6,0,1.3-0.1,1.5-0.2
				c0.8,0.6,1.6,1.2,2,2.2c-0.6-0.2-1.1-0.2-1.6,0c-0.1,0-0.1,0.1-0.1,0.1c0,0.1,0.1,0.1,0.1,0.1c0.4-0.2,0.9-0.2,1.6,0.1
				c0.1,0.3,0.2,0.6,0.2,0.9c-0.2,0.2-0.5,0.4-0.9,0.4c-0.8,0.1-1.8,0.2-2.4-0.3c-1-1,0.9-1.1,0.9-2c0-0.9-1.3-0.9-2.1-0.6
				c-0.9,0.3-1.4-0.6-1.3-1c0.1-0.4,1.1,0.1,1.3-0.6c0.2-0.6-0.5-0.8-1.3-1.3c-0.9-0.4-0.6-1.1-0.3-1.6c0,0,0.2-0.2,0.5-0.3
				c0,0,1.4,0.8,1.6,1.1c0.2,0.4,0.2,0.2,0.9,0.2c0.6,0,1.4,0.3,1.5,1c0.1,0.7,0.2,0.8,1.3,0.4c1.3-0.5,1.5,1.1,1.4,1.8l0,0
				c-0.1,0.3-0.1,0.6-0.3,0.8c-0.2,0.4-0.4,0.9-0.6,1.3C22.4,58.7,22.4,58.8,22.3,58.8z M22.5,62.9c-0.3-0.2-0.1-0.9,0.2-1.3
				c0,0,0.4,0.2,0.6,0.6C23.4,62.3,23,63.2,22.5,62.9z M23.6,64.2c-0.7,0.2-1.7-0.3-0.7-0.5C23.4,63.6,24.3,64,23.6,64.2z
				 M24.2,63.8c-0.1-0.1-0.6-0.4-1-0.4c0.9-0.5,2-1.1,3.3-1.7c0.2,0.2,0.3,0.2,0.5,0.2h0c0.3,0,0.6-0.2,0.8-0.4
				c0.1-0.1,0.1-0.1,0.2-0.2c0.1-0.1,0.2-0.1,0.2-0.1c0,0,0.1,0.1,0.2,0.2C26.6,62.3,25.1,63.1,24.2,63.8z M26.3,64.7
				c-1.1,0.4-2.3,0-1.5-0.4C25.4,64,27.3,64.4,26.3,64.7z M26.6,64.1c-0.5-0.2-1.2-0.2-1.8-0.1c1.2-0.8,2.6-1.5,3.8-2.1
				c0.2,0.2,0.4,0.3,0.7,0.3C28.4,62.8,27.3,63.5,26.6,64.1z M33.4,64c1,0.1-0.1,1-1.8,0.8C30.7,64.7,31.7,63.8,33.4,64z M33,63.7
				c-0.5-0.1-1.5,0.1-2,0.7c-0.4-0.2-1.2-0.6-2.2-1.1c0.5-0.3,0.9-0.6,1.4-0.8C31.3,62.9,32.4,63.4,33,63.7z M30.8,61.4
				c0.1-0.1,0.1-0.3,0.1-0.4c0.1,0,0.2-0.1,0.2-0.1l0.3,0.1C31.2,61.1,31,61.2,30.8,61.4z M35.6,63.2c0.8,0.3-0.6,0.8-1.2,0.5
				C33.9,63.4,34.8,62.9,35.6,63.2z M35,62.8c-0.3,0-0.9,0.1-1.1,0.4c0,0-1.5-0.7-2.4-1.1c0,0,0.2-0.3,0.5-0.4
				C32,61.7,33.6,62.4,35,62.8z M37.3,64.5c0.9-0.3,1.5-0.6,1.7-0.8c0.4,0.2,1,0.4,1,0.4C38.9,64.5,38,64.5,37.3,64.5z M40.6,63.7
				c-1.8-0.2-6.6-1.9-9-3c0,0,0.3-0.2,0.6-0.3c2.6,0.9,5.5,1.2,9,1.6C41.2,62,40.8,62.8,40.6,63.7z M42.1,62.8c0,0,0.5-0.7,0.5-0.7
				l0.6,0.1C43.2,62.2,42.1,62.8,42.1,62.8z M44.7,60.3c0,0-0.3,0.8-0.7,1.3c0,0-2.9,0.1-5.9-0.2c0,0,0.9-0.5,1.4-0.8
				C39.5,60.6,41.7,60.7,44.7,60.3z M44.4,59.3c-1.5,0.4-2.7,0.6-3.7,0.6c0.5-0.1,0.9-0.3,1.5-0.4l0.3-0.1c0.1,0,0.1-0.1,0.1-0.1
				c0-0.1-0.1-0.1-0.1-0.1l-0.3,0.1c-0.8,0.2-1.4,0.4-2,0.6c-0.3-0.1-0.6-0.2-0.9-0.3c0.8-0.2,1.5-0.5,2.1-0.7
				c0.2-0.1,0.4-0.1,0.6-0.2C42.7,58.9,43.5,59.2,44.4,59.3z M47.8,56.9c-2.4,1.2-3.8,1.6-5.1,1.5c0.7-0.2,1.3-0.4,2-0.8
				c0.1,0,0.1-0.1,0-0.1c0-0.1-0.1-0.1-0.1,0c-0.9,0.4-1.6,0.7-2.6,0.9c-0.3-0.1-0.5-0.2-0.6-0.3c0.8-0.2,1.7-0.6,2.5-0.9
				c0.3-0.1,0.7-0.2,1.1-0.4C45.4,57,46.2,57.1,47.8,56.9z M49.3,55c-1.8,1.1-2.8,1.6-3.8,1.6c-0.1,0-0.1,0-0.2,0
				c0.4-0.2,0.8-0.3,1.3-0.5l0.1,0c0.1,0,0.1-0.1,0.1-0.1c0-0.1-0.1-0.1-0.1-0.1l-0.1,0c-0.6,0.2-1.1,0.5-1.6,0.6
				c-0.2-0.1-0.3-0.2-0.4-0.3c0.5-0.2,1.1-0.5,1.6-0.9c0.1,0,0.1-0.1,0.2-0.1c0.2-0.1,0.3-0.2,0.5-0.3C47.7,55,48.4,55.1,49.3,55z
				 M51.5,52.8c-1.2,0.9-2,1.6-3.7,1.8c-0.1,0-0.2,0-0.3,0c0.2-0.1,0.4-0.2,0.5-0.3c0.1,0,0.1-0.1,0-0.2c0-0.1-0.1-0.1-0.2,0
				c-0.3,0.2-0.5,0.3-0.7,0.4c-0.2-0.1-0.3-0.2-0.4-0.3c0.7-0.3,1.5-0.6,2.2-1.1C49.7,53.1,50.5,53.1,51.5,52.8z M49.9,52.5
				c-0.4,0.1-0.6,0-0.8-0.1c0.4-0.2,0.9-0.5,1.3-0.9c0,0,0.1-0.1,0-0.2c0,0-0.1-0.1-0.2,0c-0.5,0.4-0.9,0.7-1.3,0.9
				c0-0.1,0-0.1-0.1-0.2c0.5-0.3,1.1-0.6,1.7-1.1l0,0c0.6,0,1.3,0,2-0.2C52.7,50.8,51.5,52.2,49.9,52.5z M54.2,48.5
				c-1.3,1.5-1.9,1.9-2.6,2.1c-0.1,0-0.2,0-0.4,0c0.3-0.2,0.7-0.5,1.2-1c0,0,0.1-0.1,0-0.2c0,0-0.1-0.1-0.2,0
				c-0.6,0.5-1,0.8-1.3,1.1c-0.2-0.1-0.3-0.2-0.4-0.4c0.5-0.4,1-0.9,1.4-1.3C52.9,48.6,54.2,48.5,54.2,48.5z M50.5,49.9
				c0-0.2,0.2-0.5,0.6-0.7c0.1-0.1,0.3-0.1,0.5-0.2C51.2,49.2,50.9,49.6,50.5,49.9z M52.7,48.4c-0.4,0.1-0.7-0.1-0.8-0.3
				c-0.7,0.8-1.7,1.7-1.7,1.7c0,0,0,0,0,0c-0.7,0.8-1.2,1.1-1.6,1.2c-0.7,0.2-1.3-0.2-0.3-0.9c0.5-0.4,1.4-0.4,2.2-0.8
				c0.4-0.3,1-0.9,1.4-1.5c0-0.2,0.1-0.5,0.4-0.7c0.7-0.7,2.3-0.4,3-1.3C53.8,48,53.4,48.2,52.7,48.4z M53.7,46.2
				c-0.5,0-1-0.6-0.5-1.1c0.4-0.5,1.9-0.2,2.4-0.9C54.9,45.5,54.2,46.2,53.7,46.2z M55,44.1c-0.6,0.5-1.6-0.1-0.7-1.1
				c0.5-0.5,1.3-0.8,1.9-1.6C56.1,42.8,55.6,43.5,55,44.1z"/>
			<path class="st0" d="M4.9,39.1c-0.1-0.2-0.1-0.3-0.2-0.5C4.8,38.8,4.8,39,4.9,39.1z"/>
		</g>
	</g>
</g>
</svg>
