<svg xmlns="http://www.w3.org/2000/svg" width="161.016" height="112.988" viewBox="0 0 161.016 112.988">
  <g id="logo" transform="translate(15.036 2.3)">
    <g id="Group_856" data-name="Group 856" transform="translate(-5.036 80.205)">
      <path id="Path_948" data-name="Path 948" d="M73.814,23.58H71.765v3.605H70.7V18.5h3.278c1.721,0,2.95.983,2.95,2.54a2.314,2.314,0,0,1-1.885,2.376L77.5,27.1H76.272ZM71.765,22.6h2.212c1.229,0,1.8-.492,1.8-1.557s-.574-1.557-1.8-1.557H71.765Z" transform="translate(-70.7 -17.599)" fill="#afafaf"/>
      <path id="Path_949" data-name="Path 949" d="M86.4,24.751H81.483a2.114,2.114,0,0,0,2.13,2.13c.983,0,1.639-.328,1.885-.983l.9.492a2.749,2.749,0,0,1-2.7,1.393c-1.967,0-3.2-1.311-3.2-3.442S81.647,20.9,83.614,20.9a2.859,2.859,0,0,1,2.95,3.032A1.969,1.969,0,0,0,86.4,24.751Zm-5-.983h4.015C85.253,22.539,84.6,21.8,83.45,21.8A2.064,2.064,0,0,0,81.4,23.768Z" transform="translate(-72.47 -18.032)" fill="#afafaf"/>
      <path id="Path_950" data-name="Path 950" d="M96.328,24.342c0,2.13-1.147,3.442-2.95,3.442a2.6,2.6,0,0,1-2.212-1.147v3.769H90.1V21.064H91l.082,1.147A2.55,2.55,0,0,1,93.3,20.9C95.18,20.9,96.328,22.211,96.328,24.342Zm-.983,0c0-1.557-.737-2.458-2.049-2.458-1.229,0-2.049.9-2.049,2.376v.164c0,1.475.819,2.376,2.049,2.376S95.344,25.9,95.344,24.342Z" transform="translate(-74.203 -18.032)" fill="#afafaf"/>
      <path id="Path_951" data-name="Path 951" d="M105.918,21.1v6.555h-.983l-.082-.983a2.532,2.532,0,0,1-2.376,1.147,2.153,2.153,0,0,1-2.376-2.376V21.1h1.065v4.015c0,1.311.574,1.721,1.557,1.721a2,2,0,0,0,2.13-2.212V21.1Z" transform="translate(-76.009 -18.068)" fill="#afafaf"/>
      <path id="Path_952" data-name="Path 952" d="M116.346,23.71c0,2.13-1.147,3.442-2.95,3.442a2.236,2.236,0,0,1-2.212-1.311l-.082,1.147h-.9V17.4h1.065v4.015a2.6,2.6,0,0,1,2.212-1.147C115.2,20.268,116.346,21.579,116.346,23.71Zm-1.065,0c0-1.557-.737-2.458-2.049-2.458-1.229,0-2.049.9-2.049,2.376v.164c0,1.475.819,2.376,2.049,2.376C114.543,26.168,115.28,25.266,115.28,23.71Z" transform="translate(-77.833 -17.4)" fill="#afafaf"/>
      <path id="Path_953" data-name="Path 953" d="M121.183,25.284c0,.656.164.9.737.9a2.249,2.249,0,0,0,.983-.164l-.164.983a3.522,3.522,0,0,1-.983.164c-1.065,0-1.557-.574-1.557-1.721V17.5h1.065v7.784Z" transform="translate(-79.639 -17.418)" fill="#afafaf"/>
      <path id="Path_954" data-name="Path 954" d="M124.8,18.419a.819.819,0,1,1,.819.819A.774.774,0,0,1,124.8,18.419Zm1.311,8.6h-1.065V20.468h1.065Z" transform="translate(-80.469 -17.436)" fill="#afafaf"/>
      <path id="Path_955" data-name="Path 955" d="M134.8,22.7l-.983.492a1.684,1.684,0,0,0-1.721-1.311c-1.311,0-2.13.9-2.13,2.458s.819,2.458,2.13,2.458a1.658,1.658,0,0,0,1.8-1.311l.983.328a2.761,2.761,0,0,1-2.786,1.967c-1.967,0-3.2-1.311-3.2-3.442s1.229-3.442,3.2-3.442A2.876,2.876,0,0,1,134.8,22.7Z" transform="translate(-81.21 -18.032)" fill="#afafaf"/>
      <path id="Path_956" data-name="Path 956" d="M149.691,24.342c0,2.13-1.229,3.442-3.2,3.442s-3.2-1.311-3.2-3.442,1.229-3.442,3.2-3.442S149.691,22.211,149.691,24.342Zm-5.326,0c0,1.557.819,2.54,2.13,2.54s2.13-.983,2.13-2.54-.819-2.54-2.13-2.54S144.365,22.785,144.365,24.342Z" transform="translate(-83.81 -18.032)" fill="#afafaf"/>
      <path id="Path_957" data-name="Path 957" d="M154.776,20.432h2.212v.9h-2.212v5.654h-1.065V21.333H152.4v-.9h1.311V19.367a1.9,1.9,0,0,1,2.13-1.967,1.6,1.6,0,0,1,1.147.328l-.246.819a1.1,1.1,0,0,0-.737-.164c-.737,0-1.229.328-1.229,1.147Z" transform="translate(-85.453 -17.4)" fill="#afafaf"/>
      <path id="Path_958" data-name="Path 958" d="M168.8,24.81h-3.933l-.9,2.376H162.9l3.36-8.686h1.229l3.36,8.686H169.7Zm-.41-.983-1.147-3.032-.41-1.229h0l-.41,1.147-1.147,3.114h3.114Z" transform="translate(-87.349 -17.599)" fill="#afafaf"/>
      <path id="Path_959" data-name="Path 959" d="M173.9,26.836l3.442-4.015.819-.819h-4.179v-.9h5.408v.819l-3.442,4.015-.819.819h4.425v.9h-5.572v-.819Z" transform="translate(-89.336 -18.068)" fill="#afafaf"/>
      <path id="Path_960" data-name="Path 960" d="M188.4,24.751h-4.917a2.114,2.114,0,0,0,2.13,2.13c.983,0,1.639-.328,1.885-.983l.9.492a2.749,2.749,0,0,1-2.7,1.393c-1.967,0-3.2-1.311-3.2-3.442s1.147-3.442,3.114-3.442a2.859,2.859,0,0,1,2.95,3.032A1.968,1.968,0,0,0,188.4,24.751Zm-4.917-.983h3.933c-.164-1.229-.819-1.967-1.967-1.967A1.941,1.941,0,0,0,183.483,23.768Z" transform="translate(-90.889 -18.032)" fill="#afafaf"/>
      <path id="Path_961" data-name="Path 961" d="M195.951,21.064l-.246.983a2.056,2.056,0,0,0-.819-.164c-.819,0-1.721.656-1.721,2.13v3.605H192.1V21.064h.819l.164,1.065a2.065,2.065,0,0,1,2.13-1.229A1.957,1.957,0,0,1,195.951,21.064Z" transform="translate(-92.622 -18.032)" fill="#afafaf"/>
      <path id="Path_962" data-name="Path 962" d="M204.946,23.71c0,2.13-1.147,3.442-2.95,3.442a2.236,2.236,0,0,1-2.212-1.311l-.082,1.147h-.9V17.4h1.065v4.015a2.6,2.6,0,0,1,2.212-1.147C203.8,20.268,204.946,21.579,204.946,23.71Zm-1.065,0c0-1.557-.737-2.458-2.049-2.458-1.229,0-2.049.9-2.049,2.376v.164c0,1.475.819,2.376,2.049,2.376C203.143,26.168,203.88,25.266,203.88,23.71Z" transform="translate(-93.832 -17.4)" fill="#afafaf"/>
      <path id="Path_963" data-name="Path 963" d="M214.591,26.8l-.082.819a2.056,2.056,0,0,1-.819.164.99.99,0,0,1-1.147-.983,2.535,2.535,0,0,1-2.13.983c-1.229,0-2.212-.574-2.212-1.721,0-.983.9-1.721,2.54-2.049l1.721-.328v-.328a1.4,1.4,0,0,0-1.557-1.475,1.875,1.875,0,0,0-1.885,1.229l-.737-.574A2.669,2.669,0,0,1,210.9,20.9c1.475,0,2.622.737,2.622,2.212v3.2a.435.435,0,0,0,.492.492C214.182,26.882,214.428,26.8,214.591,26.8Zm-2.13-1.393v-.9l-1.475.246c-1.147.246-1.721.574-1.721,1.229,0,.574.41.819,1.229.819C211.56,26.8,212.461,26.308,212.461,25.407Z" transform="translate(-95.53 -18.032)" fill="#afafaf"/>
      <path id="Path_964" data-name="Path 964" d="M217.5,18.419a.819.819,0,1,1,.819.819A.774.774,0,0,1,217.5,18.419Zm1.311,8.6h-1.065V20.468h1.065Z" transform="translate(-97.209 -17.436)" fill="#afafaf"/>
      <path id="Path_965" data-name="Path 965" d="M222.678,27.679a1.888,1.888,0,0,1-1.967,2.13,2.085,2.085,0,0,1-1.311-.41l.246-.983a1.558,1.558,0,0,0,1.065.41c.574,0,.983-.328.983-1.229V20.468h1.065l-.082,7.211Zm.246-9.259a.821.821,0,0,1-.819.819.819.819,0,0,1,0-1.639A.821.821,0,0,1,222.923,18.419Z" transform="translate(-97.552 -17.436)" fill="#afafaf"/>
      <path id="Path_966" data-name="Path 966" d="M232.091,26.8l-.082.819a2.056,2.056,0,0,1-.819.164.99.99,0,0,1-1.147-.983,2.535,2.535,0,0,1-2.13.983c-1.229,0-2.212-.574-2.212-1.721,0-.983.9-1.721,2.54-2.049l1.721-.328v-.328a1.4,1.4,0,0,0-1.557-1.475,1.875,1.875,0,0,0-1.885,1.229l-.737-.574A2.669,2.669,0,0,1,228.4,20.9c1.475,0,2.622.737,2.622,2.212v3.2a.435.435,0,0,0,.492.492A1.294,1.294,0,0,0,232.091,26.8Zm-2.049-1.393v-.9l-1.475.246c-1.147.246-1.721.574-1.721,1.229,0,.574.41.819,1.229.819C229.06,26.8,230.043,26.308,230.043,25.407Z" transform="translate(-98.69 -18.032)" fill="#afafaf"/>
      <path id="Path_967" data-name="Path 967" d="M241.118,23.44v4.179h-1.065V23.768c0-1.475-.737-1.967-1.639-1.967a2,2,0,0,0-2.049,2.294v3.524H235.3V21.064h.9l.082.983A2.432,2.432,0,0,1,238.5,20.9,2.387,2.387,0,0,1,241.118,23.44Z" transform="translate(-100.424 -18.032)" fill="#afafaf"/>
    </g>
    <g id="Group_857" data-name="Group 857" transform="translate(-15.036 98.233)">
      <path id="Path_968" data-name="Path 968" d="M79.04,49.186h-.983V43.778l.082-2.294h0l-2.868,7.7h-.9l-2.868-7.7h0l.082,2.294v5.408H70.6V40.5h1.639l1.885,5.244.656,2.13h0l.656-2.13L77.319,40.5h1.639l.082,8.686Z" transform="translate(-70.6 -39.599)" fill="#afafaf"/>
      <path id="Path_969" data-name="Path 969" d="M83.8,40.419a.819.819,0,1,1,.819.819A.774.774,0,0,1,83.8,40.419Zm1.311,8.6H84.046V42.468h1.065Z" transform="translate(-72.983 -39.436)" fill="#afafaf"/>
      <path id="Path_970" data-name="Path 970" d="M94.118,45.44v4.179H93.053V45.768c0-1.475-.737-1.967-1.639-1.967A2,2,0,0,0,89.365,46.1v3.524H88.3V43.064h.9l.082.983A2.432,2.432,0,0,1,91.5,42.9,2.387,2.387,0,0,1,94.118,45.44Z" transform="translate(-73.796 -40.032)" fill="#afafaf"/>
      <path id="Path_971" data-name="Path 971" d="M98,40.419a.819.819,0,1,1,.819.819A.774.774,0,0,1,98,40.419Zm1.311,8.6H98.246V42.468h1.065Z" transform="translate(-75.548 -39.436)" fill="#afafaf"/>
      <path id="Path_972" data-name="Path 972" d="M101.8,48.326l.819-.574a2.031,2.031,0,0,0,2.049,1.147c1.065,0,1.557-.41,1.557-.983,0-.492-.41-.737-1.721-.983-1.885-.328-2.54-.819-2.54-1.967,0-1.065.983-1.967,2.622-1.967a2.443,2.443,0,0,1,2.622,1.557l-.9.492a1.585,1.585,0,0,0-1.721-1.147c-.9,0-1.557.492-1.557.983,0,.574.41.819,1.8,1.065,1.8.328,2.458.819,2.458,1.967s-1.065,1.967-2.7,1.967A3.383,3.383,0,0,1,101.8,48.326Z" transform="translate(-76.234 -40.05)" fill="#afafaf"/>
      <path id="Path_973" data-name="Path 973" d="M114.835,48.748a2.7,2.7,0,0,1-1.721.574,1.613,1.613,0,0,1-1.8-1.721V43.586H110v-.9h1.311V41.128l1.065-.328v1.885h2.458v.9h-2.458v3.851a.9.9,0,0,0,.983.983,1.488,1.488,0,0,0,1.147-.492Z" transform="translate(-77.715 -39.653)" fill="#afafaf"/>
      <path id="Path_974" data-name="Path 974" d="M121.551,43.064l-.246.983a2.056,2.056,0,0,0-.819-.164c-.819,0-1.721.656-1.721,2.13v3.605H117.7V43.064h.819l.164,1.065a2.065,2.065,0,0,1,2.13-1.229A2.393,2.393,0,0,1,121.551,43.064Z" transform="translate(-79.105 -40.032)" fill="#afafaf"/>
      <path id="Path_975" data-name="Path 975" d="M126.523,50.684c-.492,1.311-1.065,1.721-2.049,1.721A1.859,1.859,0,0,1,123,51.832l.328-.9a1.2,1.2,0,0,0,1.065.492c.492,0,.9-.164,1.229-1.065l.328-.819-2.7-6.555h1.229l1.639,4.261.41,1.147.492-1.311,1.557-4.179h1.147Z" transform="translate(-80.062 -40.032)" fill="#afafaf"/>
      <path id="Path_976" data-name="Path 976" d="M143.691,46.342c0,2.13-1.229,3.442-3.2,3.442s-3.2-1.311-3.2-3.442,1.229-3.442,3.2-3.442S143.691,44.211,143.691,46.342Zm-5.326,0c0,1.557.819,2.54,2.13,2.54s2.13-.983,2.13-2.54-.819-2.54-2.13-2.54S138.365,44.785,138.365,46.342Z" transform="translate(-82.644 -40.032)" fill="#afafaf"/>
      <path id="Path_977" data-name="Path 977" d="M148.776,42.432h2.212v.9h-2.212v5.654h-1.065V43.333H146.4v-.9h1.311V41.367a1.9,1.9,0,0,1,2.13-1.967,1.6,1.6,0,0,1,1.147.328l-.246.819a1.1,1.1,0,0,0-.737-.164c-.737,0-1.229.328-1.229,1.147Z" transform="translate(-84.288 -39.4)" fill="#afafaf"/>
      <path id="Path_978" data-name="Path 978" d="M159.865,41.483v2.786H163.8v.983h-3.933v3.933H158.8V40.5h6.064v.983Z" transform="translate(-86.527 -39.599)" fill="#afafaf"/>
      <path id="Path_979" data-name="Path 979" d="M173.291,46.342c0,2.13-1.229,3.442-3.2,3.442s-3.2-1.311-3.2-3.442,1.229-3.442,3.2-3.442S173.291,44.211,173.291,46.342Zm-5.326,0c0,1.557.819,2.54,2.13,2.54s2.13-.983,2.13-2.54-.819-2.54-2.13-2.54S167.965,44.785,167.965,46.342Z" transform="translate(-87.99 -40.032)" fill="#afafaf"/>
      <path id="Path_980" data-name="Path 980" d="M180.951,43.064l-.246.983a2.056,2.056,0,0,0-.819-.164c-.819,0-1.721.656-1.721,2.13v3.605H177.1V43.064h.819l.164,1.065a2.065,2.065,0,0,1,2.13-1.229A1.957,1.957,0,0,1,180.951,43.064Z" transform="translate(-89.832 -40.032)" fill="#afafaf"/>
      <path id="Path_981" data-name="Path 981" d="M188.9,46.751h-4.917a2.114,2.114,0,0,0,2.13,2.13c.983,0,1.639-.328,1.885-.983l.9.492a2.749,2.749,0,0,1-2.7,1.393c-1.967,0-3.2-1.311-3.2-3.442s1.147-3.442,3.114-3.442a2.859,2.859,0,0,1,2.95,3.032A6.858,6.858,0,0,0,188.9,46.751Zm-4.917-.983h3.933c-.164-1.229-.819-1.967-1.967-1.967A2.049,2.049,0,0,0,183.983,45.768Z" transform="translate(-90.897 -40.032)" fill="#afafaf"/>
      <path id="Path_982" data-name="Path 982" d="M192.4,40.419a.819.819,0,1,1,.819.819A.774.774,0,0,1,192.4,40.419Zm1.311,8.6h-1.065V42.468h1.065Z" transform="translate(-92.594 -39.436)" fill="#afafaf"/>
      <path id="Path_983" data-name="Path 983" d="M202.41,50.122c0,1.311-1.475,2.13-3.278,2.13-2.049,0-3.032-.737-3.032-1.721a1.446,1.446,0,0,1,1.147-1.311,1.422,1.422,0,0,1-.9-1.229,1.4,1.4,0,0,1,.983-1.311,2.056,2.056,0,0,1-.983-1.8c0-1.311,1.147-2.212,2.7-2.212a3.12,3.12,0,0,1,1.311.246,1.73,1.73,0,0,1,1.885-1.311l.246.9c-.9,0-1.393.246-1.557.737a2.139,2.139,0,0,1,.819,1.639c0,1.311-1.147,2.212-2.7,2.212a3.377,3.377,0,0,1-.983-.082.8.8,0,0,0-.737.819c0,.492.328.737.9.737h2.212C201.754,48.565,202.41,49.139,202.41,50.122Zm-.9.082c0-.492-.328-.737-1.311-.737h-1.721c-.819,0-1.229.328-1.229.819,0,.656.737,1.065,2.13,1.065C200.689,51.351,201.508,50.777,201.508,50.2Zm-3.933-5.326a1.454,1.454,0,0,0,1.639,1.393,1.5,1.5,0,0,0,1.639-1.393,1.454,1.454,0,0,0-1.639-1.393C198.23,43.567,197.575,44.14,197.575,44.878Z" transform="translate(-93.263 -39.797)" fill="#afafaf"/>
      <path id="Path_984" data-name="Path 984" d="M211.518,45.44v4.179h-1.065V45.768c0-1.475-.737-1.967-1.639-1.967a2,2,0,0,0-2.049,2.294v3.524H205.7V43.064h.9l.082.983A2.432,2.432,0,0,1,208.9,42.9,2.387,2.387,0,0,1,211.518,45.44Z" transform="translate(-94.996 -40.032)" fill="#afafaf"/>
      <path id="Path_985" data-name="Path 985" d="M225.3,46.81h-3.933l-.9,2.376H219.4l3.36-8.686h1.229l3.36,8.686H226.2Zm-.328-.983-1.147-3.032-.41-1.229h0l-.41,1.147-1.147,3.114Z" transform="translate(-97.47 -39.599)" fill="#afafaf"/>
      <path id="Path_986" data-name="Path 986" d="M232.076,42.432h2.212v.9h-2.212v5.654h-1.065V43.333H229.7v-.9h1.311V41.367a1.9,1.9,0,0,1,2.13-1.967,1.6,1.6,0,0,1,1.147.328l-.246.819a1.1,1.1,0,0,0-.737-.164c-.737,0-1.229.328-1.229,1.147v.9Z" transform="translate(-99.33 -39.4)" fill="#afafaf"/>
      <path id="Path_987" data-name="Path 987" d="M237.176,42.432h2.212v.9h-2.212v5.654h-1.065V43.333H234.8v-.9h1.311V41.367a1.9,1.9,0,0,1,2.13-1.967,1.6,1.6,0,0,1,1.147.328l-.246.819a1.1,1.1,0,0,0-.737-.164c-.737,0-1.229.328-1.229,1.147v.9Z" transform="translate(-100.251 -39.4)" fill="#afafaf"/>
      <path id="Path_988" data-name="Path 988" d="M247.391,48.8l-.082.819a2.056,2.056,0,0,1-.819.164.99.99,0,0,1-1.147-.983,2.535,2.535,0,0,1-2.13.983c-1.229,0-2.212-.574-2.212-1.721,0-.983.9-1.721,2.54-2.049l1.721-.328v-.328a1.4,1.4,0,0,0-1.557-1.475,1.875,1.875,0,0,0-1.885,1.229l-.737-.574A2.669,2.669,0,0,1,243.7,42.9c1.475,0,2.622.737,2.622,2.212v3.2a.435.435,0,0,0,.492.492A1.339,1.339,0,0,0,247.391,48.8Zm-2.049-1.393v-.9l-1.475.246c-1.147.246-1.721.574-1.721,1.229,0,.574.41.819,1.229.819C244.36,48.8,245.343,48.308,245.343,47.407Z" transform="translate(-101.371 -40.032)" fill="#afafaf"/>
      <path id="Path_989" data-name="Path 989" d="M250.4,40.419a.819.819,0,1,1,.819.819A.774.774,0,0,1,250.4,40.419Zm1.311,8.6h-1.065V42.468h1.065Z" transform="translate(-103.068 -39.436)" fill="#afafaf"/>
      <path id="Path_990" data-name="Path 990" d="M258.751,43.064l-.246.983a2.056,2.056,0,0,0-.819-.164c-.819,0-1.721.656-1.721,2.13v3.605H254.9V43.064h.819l.164,1.065a2.065,2.065,0,0,1,2.131-1.229A1.957,1.957,0,0,1,258.751,43.064Z" transform="translate(-103.881 -40.032)" fill="#afafaf"/>
      <path id="Path_991" data-name="Path 991" d="M260.4,48.326l.819-.574a2.031,2.031,0,0,0,2.049,1.147c1.065,0,1.557-.41,1.557-.983,0-.492-.41-.737-1.721-.983-1.885-.328-2.54-.819-2.54-1.967,0-1.065.983-1.967,2.622-1.967a2.443,2.443,0,0,1,2.622,1.557l-.9.492a1.585,1.585,0,0,0-1.721-1.147c-.9,0-1.557.492-1.557.983,0,.574.41.819,1.8,1.065,1.8.328,2.458.819,2.458,1.967s-1.065,1.967-2.7,1.967A3.273,3.273,0,0,1,260.4,48.326Z" transform="translate(-104.874 -40.05)" fill="#afafaf"/>
    </g>
    <g id="Group_860" data-name="Group 860" transform="translate(34.964 -2.3)">
      <path id="Path_992" data-name="Path 992" d="M30.795,1.7A28.142,28.142,0,1,0,58.989,29.789,28.167,28.167,0,0,0,30.795,1.7Zm0,2.006a26.311,26.311,0,0,1,18.48,7.6,25.69,25.69,0,0,1,7.6,18.48,26.311,26.311,0,0,1-7.6,18.48,25.69,25.69,0,0,1-18.48,7.6,26.311,26.311,0,0,1-18.48-7.6,25.867,25.867,0,0,1-7.6-18.48A25.959,25.959,0,0,1,30.795,3.706" transform="translate(0.184 -1.7)" fill="#afafaf"/>
      <g id="Group_859" data-name="Group 859" transform="translate(0 2.006)">
        <path id="Path_993" data-name="Path 993" d="M50.666,20.288a.8.8,0,1,1,.422-1.056A.743.743,0,0,1,50.666,20.288Zm.739-1.056a1.04,1.04,0,1,0-.528,1.373A1.048,1.048,0,0,0,51.405,19.232Z" transform="translate(2.805 -2.759)" fill="#afafaf"/>
        <path id="Path_994" data-name="Path 994" d="M8.466,20.288a.8.8,0,1,1,.422-1.056A.743.743,0,0,1,8.466,20.288Zm.739-1.056a1.04,1.04,0,1,0-.528,1.373A1.048,1.048,0,0,0,9.205,19.232Z" transform="translate(0.443 -2.759)" fill="#afafaf"/>
        <path id="Path_995" data-name="Path 995" d="M8.466,37.788a.8.8,0,1,1,.422-1.056A.771.771,0,0,1,8.466,37.788Zm.739-1.056a1.04,1.04,0,1,0-.528,1.373A1.048,1.048,0,0,0,9.205,36.732Z" transform="translate(0.443 -1.779)" fill="#afafaf"/>
        <path id="Path_996" data-name="Path 996" d="M20.866,50.088a.8.8,0,1,1,.422-1.056A.743.743,0,0,1,20.866,50.088Zm.739-1.056a1.04,1.04,0,1,0-.528,1.373A1.048,1.048,0,0,0,21.605,49.032Z" transform="translate(1.137 -1.091)" fill="#afafaf"/>
        <path id="Path_997" data-name="Path 997" d="M38.366,50.088a.8.8,0,1,1,.422-1.056A.936.936,0,0,1,38.366,50.088Zm.739-1.056a1.04,1.04,0,1,0-.528,1.373A1.154,1.154,0,0,0,39.105,49.032Z" transform="translate(2.116 -1.091)" fill="#afafaf"/>
        <path id="Path_998" data-name="Path 998" d="M50.666,37.788a.8.8,0,1,1,.422-1.056A.771.771,0,0,1,50.666,37.788Zm.739-1.056a1.04,1.04,0,1,0-.528,1.373A1.048,1.048,0,0,0,51.405,36.732Z" transform="translate(2.805 -1.779)" fill="#afafaf"/>
        <path id="Path_999" data-name="Path 999" d="M32.483,51.647l1.69-4.118a19.2,19.2,0,0,0,6.758-2.851l4.118,1.69A21.155,21.155,0,0,1,32.483,51.647Zm8.342-6.969a16.353,16.353,0,0,1-6.547,2.746l1.9-4.646ZM30.794,53.337,25.831,41.51,14,46.473l4.857-11.827L7.034,29.894l11.827-4.963L13.9,13.1l11.827,4.857L30.583,6.134l4.963,11.827,11.721-5.069L42.41,24.72l11.827,4.857L42.41,34.54l4.963,11.827L35.651,41.51ZM20.762,44.783l4.646-1.9,1.9,4.646A19.123,19.123,0,0,1,20.762,44.783Zm-4.33,1.8,4.118-1.69a17.258,17.258,0,0,0,6.758,2.746L29,51.753A23.071,23.071,0,0,1,16.433,46.578ZM15.8,39.82a19.123,19.123,0,0,1-2.746-6.547l4.646,1.9ZM8.724,31.583l4.118,1.69a19.2,19.2,0,0,0,2.851,6.758L14,44.15A22.431,22.431,0,0,1,8.724,31.583Zm6.969-11.827,1.9,4.646-4.646,1.9A18.8,18.8,0,0,1,15.693,19.756Zm-1.8-4.224,1.69,4.118a17.258,17.258,0,0,0-2.746,6.758L8.724,28.1A21.322,21.322,0,0,1,13.9,15.533Zm13.2-3.485-1.9,4.646-4.646-1.9A15.747,15.747,0,0,1,27.1,12.048Zm1.8-4.33L27.2,11.837a19.2,19.2,0,0,0-6.758,2.851L16.327,13A21.824,21.824,0,0,1,28.893,7.718Zm11.721,6.969-4.646,2.006-2.006-4.646A15.486,15.486,0,0,1,40.614,14.688Zm4.33-1.8-4.118,1.69a17.09,17.09,0,0,0-6.864-2.746l-1.69-4.118A21.91,21.91,0,0,1,44.944,12.893Zm3.485,13.2-4.646-1.9,1.9-4.646A21.042,21.042,0,0,1,48.429,26.092Zm4.224,1.8L48.534,26.2a18.413,18.413,0,0,0-2.851-6.758l1.69-4.118A21.435,21.435,0,0,1,52.653,27.887Zm-8.87,7.181,4.646-2.006a16.8,16.8,0,0,1-2.746,6.653Zm3.7,8.87-1.69-4.118a18.917,18.917,0,0,0,2.851-6.864l4.118-1.69A22.44,22.44,0,0,1,47.478,43.938Zm1.8,4.118-1.69-3.907a22.356,22.356,0,0,0,5.28-12.883l3.907-1.69-4.013-1.584a22.161,22.161,0,0,0-5.385-12.777L48.957,11.2l-4.013,1.69a22.356,22.356,0,0,0-12.883-5.28L30.371,3.6,28.787,7.613A22.161,22.161,0,0,0,16.01,13L12,11.309l1.69,4.013A21.935,21.935,0,0,0,8.513,28.1L4.5,29.788l4.118,1.69A22.161,22.161,0,0,0,14,44.255l-1.69,4.013,4.013-1.69A22.046,22.046,0,0,0,29.1,51.858l1.69,4.013,1.584-4.013a22.161,22.161,0,0,0,12.777-5.385Z" transform="translate(0.29 -3.6)" fill="#afafaf"/>
        <path id="Path_1000" data-name="Path 1000" d="M30.887,33.756c0-4.857-2.006-6.019-2.006-10.771A15.728,15.728,0,0,1,29.936,17.6c-.422,4.857,3.7,7.92,3.7,14.256,0,4.118-1.584,6.441-2.746,6.441-.739,0-.739-.528-1.056-.528-.422,0-.739.634-1.584.634s-3.379-1.267-3.8-6.969a6.166,6.166,0,0,0,.211,3.7c-1.584-2.851-1.478-6.336.845-9.926a18.04,18.04,0,0,0,.95,9.4c.211.528.634.845,1.056.528s0-.845-.317-1.584c-.317-.634-3.485-7.6,1.267-13.305-.528,4.963,1.478,8.131,1.478,10.454s-1.373,5.491,0,5.491C30.781,36.185,30.887,34.5,30.887,33.756Z" transform="translate(1.359 -2.816)" fill="#afafaf"/>
        <path id="Path_1001" data-name="Path 1001" d="M32.15,37.1a9.508,9.508,0,0,0,3.8-7.392c0-4.013-4.013-7.286-4.752-9.609,0,3.7,2.534,6.019,2.534,11.088C33.84,35.728,32.15,37.1,32.15,37.1Z" transform="translate(1.785 -2.676)" fill="#afafaf"/>
        <g id="Group_858" data-name="Group 858" transform="translate(0 32.63)">
          <path id="Path_1002" data-name="Path 1002" d="M7.7,44Z" transform="translate(0.469 -33.968)" fill="#afafaf"/>
          <path id="Path_1003" data-name="Path 1003" d="M5.411,40.228c-.106-.211-.106-.317-.211-.528C5.306,39.911,5.306,40.017,5.411,40.228Z" transform="translate(0.329 -34.209)" fill="#afafaf"/>
          <path id="Path_1004" data-name="Path 1004" d="M4.511,38.022c-.106-.106-.106-.317-.211-.422A.8.8,0,0,0,4.511,38.022Z" transform="translate(0.279 -34.326)" fill="#afafaf"/>
          <path id="Path_1005" data-name="Path 1005" d="M60.932,38.83c0-.106,0-.106-.106-.106s-.106,0-.106.106a17.606,17.606,0,0,1-.845,2.112l-.422.422a1.566,1.566,0,0,0,.106-.739,15.714,15.714,0,0,0,1.056-2.746c0-.106,0-.106-.106-.106s-.106,0-.106.106a12.8,12.8,0,0,1-.739,2.112v-.95a14.248,14.248,0,0,0,.845-2.534c0-.106,0-.106-.106-.106s-.106,0-.106.106c-.211.739-.317,1.373-.528,2.006h0V37.457c.211-.95.528-2.006.634-2.851,0-.106,0-.106-.106-.106s-.106,0-.106.106a27.827,27.827,0,0,1-.739,3.168l-.317.634a2.209,2.209,0,0,1-.422.634h0c.317-.95.528-1.9.739-2.746,0-.106,0-.106-.106-.106s-.106,0-.106.106c-.211,1.056-.634,2.323-.95,3.485-.211.317-.422.739-.634,1.056v-.845a32.943,32.943,0,0,0,1.056-3.379c0-.106,0-.106-.106-.106s-.106,0-.106.106c-.422,1.584-.845,2.746-1.162,3.8l-.317.422a2.3,2.3,0,0,0-.528.845c.317-1.267.95-2.64,1.162-3.907h0A28.823,28.823,0,0,1,30.942,56.148,28.112,28.112,0,0,1,8.978,45.588h0c-.106.634-.528,1.373-1.056,1.162a.621.621,0,0,1-.211-1.056c.106-.211.106-.528-.528-1.056a.707.707,0,0,1,.211-1.267v.106a26.709,26.709,0,0,1-1.373-2.323c.106.106.106.211.211.317h0s.528,2.006,0,1.162a20.549,20.549,0,0,0-2.851-5.913c0-.106-.106-.106-.211,0-.106,0-.106.106,0,.211a18.834,18.834,0,0,1,2.323,4.33,7.107,7.107,0,0,0-1.478-1.584l-.106-.106H3.7v.211l.106.106a6.267,6.267,0,0,1,2.218,3.168c.422,1.373-.317,2.534-1.373,2.534a2.131,2.131,0,0,1-2.006-2.006c0-.95.845-.95.845-1.69.106-.739-1.267-1.584-1.584-1.8-.422-.317-.739-.95.317-1.478a.736.736,0,0,0,.211-1.056C1.375,36.4,1.375,35.873,1.9,35.239c.739-.95,1.8.634,2.112,1.478h0c.211.106.211.211.211.317a10.38,10.38,0,0,1-.528-1.69,1.6,1.6,0,0,0-1.162-.739,1.262,1.262,0,0,0-.845.422,1.909,1.909,0,0,0,.422,2.746c.106.106.422.317-.106.528a1.167,1.167,0,0,0-.845.95,1.8,1.8,0,0,0,.106.739A1.756,1.756,0,0,0,.108,40.2c-.528.528.528,1.584,1.056,2.006,0,.211-.106.528.528.739a1.8,1.8,0,0,0,.739.106,4.574,4.574,0,0,0-.106.528A2.409,2.409,0,0,0,4.754,46.01a1.526,1.526,0,0,0-.211.739c0,1.478.95,1.373.95,1.9,0,.317-1.267.422-1.267,1.478s.634,1.478,2.006,1.478c.634,0,.739.106.739.211,0,.211-.95.528-.95,1.162,0,.211.106.95,1.267,1.267-.317.211-.634.422-.634.739s.106.634.95,1.056a3.252,3.252,0,0,0,1.373.317.8.8,0,0,0,.422.211,1.141,1.141,0,0,0,.317.739,3.369,3.369,0,0,0,.739.634,1.872,1.872,0,0,0-1.9,1.373,1.228,1.228,0,0,0,.211,1.056,1.47,1.47,0,0,0,1.162.528h.106c.317,0,.528-.106.739-.106.106,0,.317-.106.422-.106h0v.106c0,.106.106.211.106.422.106.422.317.95.95.95h0a2.019,2.019,0,0,0,.317,2.218.388.388,0,0,0,.317.106,2.09,2.09,0,0,0,1.478-1.056c.528-.634.95-.634.95-.634h0a2.189,2.189,0,0,0,.634.211.439.439,0,0,1,.211.739,1.948,1.948,0,0,0-.528,1.267A1.472,1.472,0,0,0,17.109,66.6c1.9,0,1.8-1.373,1.69-1.8,0-.528.317-.422.422-.317A1.154,1.154,0,0,0,20.8,64.6a1.054,1.054,0,0,0,.422-.528,1.2,1.2,0,0,0,.845.317,1.989,1.989,0,0,0,.845-.211h0a.639.639,0,0,0,.317.634.327.327,0,0,0,.211.106.1.1,0,0,0-.106.106.369.369,0,0,0-.211.106c-.106.106-.211.211-.106.422.106.528.739.634,1.162.634h.422a.549.549,0,0,0,.422-.211h0a7.411,7.411,0,0,1,.95-.634c-.211.106-.422.317-.634.422H25.24a.683.683,0,0,0-.211.528c.106.528.95.528,1.267.528a2.523,2.523,0,0,0,1.478-.528h0l.106-.106a8.653,8.653,0,0,1,1.69-1.267c.739.422,2.64,1.584,2.851,1.69h0c.106.106.211.106.422.106h.528c1.162,0,2.112-.422,2.112-1.056a.575.575,0,0,0-.317-.528h0c-.634-.211-1.584-.739-2.851-1.267h.106a17.357,17.357,0,0,1,3.168,1.584,1.566,1.566,0,0,0,.739.106c.422,0,1.267-.211,1.373-.739a.66.66,0,0,0-.422-.634h-.106c-.106,0-.106,0-.211-.106a15.423,15.423,0,0,1-3.59-1.478c1.8.739,4.435,1.69,6.547,2.323a6.082,6.082,0,0,1-3.062,1.056.521.521,0,0,0,.106.317,7.866,7.866,0,0,0,1.9.211,9.513,9.513,0,0,0,4.013-.95c.106-.739.211-1.584.317-2.006h.634a4.178,4.178,0,0,0-.634,1.267,9.932,9.932,0,0,0,2.006-.95l.95-.528a5.855,5.855,0,0,0,1.056-1.9c-.106-.317-.317-.317-.317-.317-1.056.106-2.112.211-2.957.317a21.708,21.708,0,0,0,4.752-1.373,12.894,12.894,0,0,0,2.534-1.162c.106,0,.106-.106,0-.106,0-.106-.106-.106-.106,0a15.245,15.245,0,0,1-2.746,1.267,6.6,6.6,0,0,1-2.851.106,14.781,14.781,0,0,0,6.336-2.64,15.447,15.447,0,0,0,1.373-.95.149.149,0,1,0-.211-.211,8.808,8.808,0,0,1-1.267.845,9.974,9.974,0,0,1-2.957.739,17.121,17.121,0,0,0,4.435-2.429,22.614,22.614,0,0,0,2.006-1.373.149.149,0,0,0-.211-.211c-.739.528-1.478,1.056-2.218,1.478a3.658,3.658,0,0,1-1.9.422,11.821,11.821,0,0,0,4.224-2.746,18.356,18.356,0,0,0,1.584-1.373V51.5H56.5a18.355,18.355,0,0,1-1.584,1.373,5.175,5.175,0,0,1-2.006.739,8.1,8.1,0,0,0,4.118-2.746l1.162-1.162v-.211h-.211a9.955,9.955,0,0,1-1.056,1.056,3.751,3.751,0,0,1-.95.422h.106a9.664,9.664,0,0,0,2.323-2.64,28.662,28.662,0,0,0,2.006-2.64v-.211h-.211a33.363,33.363,0,0,1-2.112,2.851h0a4.746,4.746,0,0,1-1.267.634c1.162-.739,1.478-1.584,2.64-3.379a10.462,10.462,0,0,0,1.162-1.8v-.106H60.51c-.317.634-.739,1.162-1.056,1.69a2.8,2.8,0,0,1-.634.528,12.706,12.706,0,0,0,1.267-2.429,13.871,13.871,0,0,0,.95-1.8c0-.106,0-.106-.106-.106s-.106,0-.106.106a10.762,10.762,0,0,1-.845,1.584c-.106.211-.317.317-.422.528a10.575,10.575,0,0,0,1.056-3.379A3.037,3.037,0,0,1,60.932,38.83ZM3.064,41.892a.227.227,0,0,1-.211.211.211.211,0,0,1,0-.422A.227.227,0,0,1,3.064,41.892ZM.424,40.625c.106-.211,1.267-.211,1.8.211A2.707,2.707,0,0,1,1.375,42C.952,41.681.319,40.941.424,40.625ZM1.8,42.631a.211.211,0,0,1,0-.422.227.227,0,0,1,.211.211C1.9,42.525,1.9,42.631,1.8,42.631Zm.528-.95a.211.211,0,0,1,0,.422.227.227,0,0,1-.211-.211C2.114,41.681,2.22,41.681,2.325,41.681Zm0,.95a.211.211,0,0,1,0-.422.211.211,0,0,1,0,.422Zm.211-1.478a.227.227,0,0,1,.211-.211.211.211,0,0,1,0,.422A.227.227,0,0,1,2.536,41.153Zm55.122,0a15.589,15.589,0,0,1,1.69-2.851c0,2.429-.106,3.062-.739,3.8S57.236,42.525,57.658,41.153Zm0,1.584c-.106,0-.106.106,0,0-.106.106-.106,0,0,0ZM57.13,40.73c-.106.739.211,1.8,0,2.218s-.634,1.162-.95.528A3.8,3.8,0,0,1,57.13,40.73Zm-2.64,3.379a13.831,13.831,0,0,1,1.267-2.534c-.422,1.69.528,2.957-.106,3.59C55.124,45.8,54.068,46.327,54.49,44.109Zm-.845,3.7a7.525,7.525,0,0,0,1.584-1.9.149.149,0,0,1,.211.211,10.046,10.046,0,0,1-1.584,1.9c-.106.317-.317.528-.422.845l1.9-1.9h.211v.211c-.845.845-1.9,2.006-2.429,2.429-.211.211-.317.422-.528.634-.634.634-1.584,0-.95-.845C51.956,48.65,53.118,48.122,53.646,47.805Zm-.634-.106c.317-.317.634-.739.95-1.056-.106.317-.106.528-.317.739S53.223,47.805,53.012,47.7Zm.211-1.478h-.211a2.3,2.3,0,0,1-.422.528,6.664,6.664,0,0,1,1.373-2.429v1.8c-.317.317-.739.845-1.162,1.373a.549.549,0,0,1-.211-.422c.211-.211.422-.528.634-.739C53.329,46.433,53.329,46.327,53.223,46.221Zm-.845,1.162c-1.8,2.112-1.162,2.746-1.584,3.379s-.845.845-1.162.739c-.211-.211,0-.95.634-1.8A11.967,11.967,0,0,1,52.379,47.383Zm-14.15,13.2c-.95-.317-.95-1.267.211-1.584,1.267-.211,3.379.845,5.174.845C40.763,60.794,39.179,60.9,38.228,60.583Zm4.013.739a12.376,12.376,0,0,1-5.913.95c-1.69-.211-1.478-1.69-.317-1.8C37.489,60.371,39.6,61.639,42.241,61.322Zm0-1.9a2.325,2.325,0,0,0,.845-.106,3.162,3.162,0,0,1,.845.422A11.662,11.662,0,0,1,42.241,59.421ZM40.868,59.1c-1.267-.211-.422-1.373.317-1.478,1.056-.211,2.534.845,3.8.95A7.215,7.215,0,0,1,40.868,59.1Zm3.274-1.056a5.216,5.216,0,0,0,2.429-.528c.211.106.317.211.528.317a9.808,9.808,0,0,1-1.373.422A2.539,2.539,0,0,1,44.142,58.048Zm-.422-.211c-.739-.106-1.267-.634-.317-1.267,1.162-.845,3.379.317,4.118.211A7.354,7.354,0,0,1,43.72,57.837Zm1.8-2.64c.634-.422,2.218.211,3.379.106-1.373.845-2.112,1.162-3.168.95C45.092,56.042,45.092,55.408,45.515,55.2Zm1.69,1.267a7.1,7.1,0,0,0,1.267-.634,2.325,2.325,0,0,1,.845.106,9.812,9.812,0,0,1-1.056.528A3.52,3.52,0,0,1,47.2,56.464Zm.422-1.584c-.739,0-.95-.528-.422-1.056.845-.739,1.9,0,3.59-.106A5.413,5.413,0,0,1,47.627,54.88Zm1.69-.106c.422-.211.95-.422,1.478-.739h.528a11.964,11.964,0,0,1-2.112.95C49.316,54.986,49.316,54.88,49.316,54.775Zm.422-1.478c-.845,0-1.267-.422-.317-1.056.845-.528,2.429,0,3.379-.422A4.2,4.2,0,0,1,49.739,53.3Zm0-3.7a3.461,3.461,0,0,0-.634,2.112c-.106.845-1.056,1.69-1.056.211C48.049,50.973,49.422,49.917,49.739,49.6Zm-3.379,3.168a5.263,5.263,0,0,1,1.584-1.9c-.739,1.373-.211,2.006-.95,2.746C46.359,54.352,45.937,53.824,46.359,52.768Zm-.106-.528c-.528,1.056.106,1.8-.845,2.64-.845.95-1.267,0-.739-.95A6.127,6.127,0,0,1,46.254,52.24Zm-1.373.739c-1.267,1.478-.634,2.323-1.584,3.274-1.056.95-1.478.106-.95-.845A7.933,7.933,0,0,1,44.881,52.98Zm-2.218.95c-.845,1.478-.95,2.746-1.69,3.485s-1.9.211-1.162-1.056A10.5,10.5,0,0,1,42.664,53.93Zm-2.534,1.162c-1.056,1.8-.422,2.218-1.9,3.59-1.267,1.267-1.584-.211-1.162-.845A11.971,11.971,0,0,1,40.129,55.092Zm-4.541,5.174c-.739.634-1.584.211-1.162-.845a10.291,10.291,0,0,1,3.7-3.7C36.644,57.837,36.328,59.527,35.588,60.266Zm-.845.634c-.634.211-1.373.528-2.218.845a.8.8,0,0,0-.211-.422,8.7,8.7,0,0,1,2.006-.634h0C34.321,60.794,34.532,60.9,34.744,60.9Zm-1.373-.317c-.845.845-2.006.422-1.478-.845a9.718,9.718,0,0,1,4.33-3.59C34.321,58.259,34.638,59.315,33.371,60.583ZM32,58.893c0-.106-.106-.211-.211-.317a1.854,1.854,0,0,0-.528-.422,8.561,8.561,0,0,1,2.957-1.8C33.265,57.415,32.421,58.365,32,58.893Zm.106-2.429c.211.317-.528,1.162-.95,1.478a2.2,2.2,0,0,0-.634-1.267C31.048,56.253,32,56.148,32.1,56.464Zm-1.478,1.162a.211.211,0,1,1-.211.211C30.52,57.732,30.52,57.626,30.625,57.626Zm-.211-.211A.211.211,0,1,1,30.2,57.2.227.227,0,0,1,30.414,57.415ZM30.1,56.57a.211.211,0,1,1-.211.211C29.992,56.676,29.992,56.57,30.1,56.57Zm0,1.162a.211.211,0,1,1-.211.211A.227.227,0,0,1,30.1,57.732Zm-.422-.634a.211.211,0,1,1-.211.211A.227.227,0,0,1,29.675,57.1Zm-3.062-.739a1.122,1.122,0,0,1,1.478.106c.739.845-.106,1.9,1.162,1.9,1.267.106,1.69-.317,2.429.422s-1.373,1.584-.317,2.112a1.337,1.337,0,0,1,.739,2.006.992.992,0,0,1-1.69-.106c-.422-.739-.739-.634-1.056-.422-.317.317-.739.95-1.267.211-.422-.845,0-1.9-1.162-1.8s-1.267,1.8-2.64.739a1.451,1.451,0,0,1-.528-.845,3.752,3.752,0,0,1,.211-1.056h.106a4.648,4.648,0,0,1,1.056-.211,2.3,2.3,0,0,1,.95.739l.106.106H26.3c.106,0,.106-.106,0-.211a2.467,2.467,0,0,0-.739-.739,4.039,4.039,0,0,1,2.534.106,1.686,1.686,0,0,1,.845,1.69c0,.106,0,.106.106.106h0c.106,0,.106,0,.106-.106a2.2,2.2,0,0,0-.317-1.373,10.82,10.82,0,0,1,2.112,2.218h.211a.146.146,0,0,0,0-.211,9.484,9.484,0,0,0-2.323-2.323,5.208,5.208,0,0,0,2.218,0,.106.106,0,1,0,0-.211A6.446,6.446,0,0,1,28.2,59.1h0A3.869,3.869,0,0,0,25.979,59a9.848,9.848,0,0,0,1.9-1.373v-.211h-.211A8.914,8.914,0,0,1,25.24,59.1c-.317.106-.634.106-1.056.211A8.879,8.879,0,0,1,26.613,56.359Zm-.634,6.23a5.8,5.8,0,0,0,.95.739,5.659,5.659,0,0,1-1.162.528A1.818,1.818,0,0,0,25.979,62.589Zm0-.528a.753.753,0,0,1,.95-.528l.422.211v.106a3.356,3.356,0,0,0,.317.95h0c-.106.106-.211.106-.317.211A15.446,15.446,0,0,1,25.979,62.061Zm-.739.95a.211.211,0,1,1,.211-.211C25.345,63.011,25.345,63.011,25.24,63.011Zm.106.422a.211.211,0,1,1-.211-.211C25.24,63.328,25.345,63.328,25.345,63.434Zm-.528-.528a.211.211,0,1,1-.211-.211A.227.227,0,0,1,24.818,62.906ZM12.146,49.072a1.568,1.568,0,0,1,.422,1.478h0l-.211-.211A1.981,1.981,0,0,0,11.3,49.072.547.547,0,0,1,12.146,49.072ZM9.189,55.725c-.845,0-1.9-.422-1.9-.845s1.162-.739,1.9-.634A3.489,3.489,0,0,1,9.189,55.725Zm.422.317a.211.211,0,1,1,.211-.211C9.823,56.042,9.717,56.042,9.611,56.042Zm.106-.634a.227.227,0,0,1-.211-.211c0-.106.106-.106.211-.106a.227.227,0,0,1,.211.211A.369.369,0,0,0,9.717,55.408Zm0-.739a.211.211,0,1,1,.211-.211A.227.227,0,0,1,9.717,54.669Zm0-1.373v.317a2.641,2.641,0,0,1-1.373.422c-1.267-.106-1.8-.528-1.8-1.056,0-.422,1.056-.317,1.056-1.162,0-.634-.739-.634-1.267-.634-1.584,0-1.69-.528-1.69-.95,0-.528.422-.528,1.056-.95.845-.422.317-1.056-.317-1.373a1.056,1.056,0,0,1-.106-1.9c.95-.528,1.373-.106,1.9.845.422.845,1.162.422,1.478.106a1.042,1.042,0,0,1,1.056-.211,5.535,5.535,0,0,0,1.162,1.056,4.647,4.647,0,0,1,.211,1.056h-.211a1.4,1.4,0,0,0-.845.317,1.4,1.4,0,0,0-.845,1.056v.422l-.739-.739a9.376,9.376,0,0,1,.106-2.429c0-.106,0-.106-.106-.106s-.106,0-.106.106A14.152,14.152,0,0,0,8.239,49.6,25.049,25.049,0,0,1,5.81,46.433c0-.106-.106-.106-.211,0-.106,0-.106.106,0,.211a26.321,26.321,0,0,0,2.429,3.274,5.411,5.411,0,0,1-2.112-.211c-.106,0-.106,0-.106.106s0,.106.106.106a14.463,14.463,0,0,0,1.69.211h.634a9.956,9.956,0,0,0,1.056,1.056,1.854,1.854,0,0,0,.422.528c.528.422.528.528.528.634a.327.327,0,0,1-.106.211A.76.76,0,0,0,9.717,53.3Zm.422,2.112a.211.211,0,1,1-.211.211A.227.227,0,0,1,10.139,55.408Zm-.106-.528a.211.211,0,1,1,.211.211C10.034,55.092,10.034,54.986,10.034,54.88Zm.106,2.112c-.739-.739.528-1.056.95-1.69.317-.422-.106-.845-.739-1.373s-.422-.845.106-1.267.317-.845-.422-1.373a1.086,1.086,0,0,1,0-1.9c1.056-.634,1.584.211,1.9.95s.634.528,1.162.211c.634-.317.845.422,1.056,1.267s.634.634,1.056.634c.845-.211,1.162.211,1.478.845a1.466,1.466,0,0,0-.211,1.162,1.282,1.282,0,0,0,.845.845c.106.106.211.106.317.211.845.422.95.528.845.739s-.106.211-.528.211h-.422a3.358,3.358,0,0,0-2.218-1.478h0V53.93c0-.106,0-.106-.106-.106s-.106,0-.106.106v1.056c-.106,0-.211.106-.317.106-.211.106-.317.317-.422.422l-.95-1.9a5.039,5.039,0,0,1,.317-2.323v-.106h-.106a7.35,7.35,0,0,0-.317,2.112,31.094,31.094,0,0,0-2.323-3.168.149.149,0,1,0-.211.211A31.093,31.093,0,0,1,13.1,53.508a6.732,6.732,0,0,0-.95-.211c-.317-.106-.739-.106-1.162-.211-.106,0-.106,0-.106.106s0,.106.106.106a4.491,4.491,0,0,0,1.162.211,5.6,5.6,0,0,1,1.162.317,15.952,15.952,0,0,1,.95,1.9l.106.106c-.106.211-.106.422-.211.528a6.882,6.882,0,0,1-1.584-.528h-.106v.106a17.518,17.518,0,0,0,1.69.634c0,.211-.106.211-.211.317a.635.635,0,0,1-.422.106,1.5,1.5,0,0,1-.634-.211.791.791,0,0,0-.528-.106.807.807,0,0,0-.528.211,1.274,1.274,0,0,0-.317.845v.106A2.347,2.347,0,0,1,10.139,56.992Zm.422-1.9a.211.211,0,1,1-.211.211C10.456,55.2,10.456,55.092,10.562,55.092Zm-.106-.528a.211.211,0,1,1,.211.211Zm2.64,9.5c-.317-.211-.317-1.162,0-2.006a2.509,2.509,0,0,1,1.478.739C14.469,63.117,13.413,64.384,13.1,64.067Zm1.056-2.851a.211.211,0,1,1,.211-.211A.227.227,0,0,1,14.152,61.216Zm.211.211a.211.211,0,1,1-.211.211C14.258,61.427,14.363,61.427,14.363,61.427Zm-.317.317a.211.211,0,1,1-.211-.211A.227.227,0,0,1,14.047,61.744Zm.528.528a.211.211,0,1,1,.211-.211A.227.227,0,0,1,14.575,62.272Zm.211-.845a.211.211,0,1,1,.211.211C14.786,61.639,14.786,61.533,14.786,61.427Zm.317.845a.211.211,0,1,1,.211-.211C15.314,62.272,15.208,62.272,15.1,62.272Zm.211-1.056a1.406,1.406,0,0,0-.95-.634c-.739,0-.845,1.056-1.8,1.162-.422,0-.528-.422-.739-1.056s-.95,0-1.69-.106a1.081,1.081,0,0,1-1.056-1.162,1.444,1.444,0,0,1,1.584-.95c.528.106.739,0,.739-.739s.422-.845.739-.634a1.592,1.592,0,0,0,1.478.106c.634-.317.106-1.056,1.056-1.69.528-.422,1.69.422,2.323,1.162a.369.369,0,0,0-.106.211,1.077,1.077,0,0,0,.211.95l.317.317a3.961,3.961,0,0,0-1.056-.106c-.422-.211-1.584-1.056-1.69-1.056h-.211V57.2s.845.528,1.373.845a7.575,7.575,0,0,0-2.218.528h-.106a2.079,2.079,0,0,1-.845-.422,5.148,5.148,0,0,0-.739-.317c-.106,0-.106,0-.106.106s0,.106.106.106l.634.317.634.317A5.659,5.659,0,0,1,10.773,59c-.106,0-.106,0-.106.106s0,.106.106.106h.634a6.248,6.248,0,0,0,2.112-.422,9.438,9.438,0,0,1-.95,1.267.146.146,0,0,0,0,.211h.211a7.659,7.659,0,0,0,1.162-1.584,6.248,6.248,0,0,1,2.112-.422,10.371,10.371,0,0,0-1.162,1.162v.211H15.1a7.44,7.44,0,0,1,1.373-1.373,7.267,7.267,0,0,1,1.373.211h0c0,.106-.106.106-.106.211a1.011,1.011,0,0,0,.528.95c.106,0,.106.106.106.211s0,.106-.106.211a3.115,3.115,0,0,1-1.584.528C15.842,60.688,15.419,60.9,15.314,61.216Zm6.969,2.64c-.317.106-.528-.106-.739-.422a3.516,3.516,0,0,0-.317-.634,1.784,1.784,0,0,1-.211-.528c0-.106,0-.211.106-.211h.106c.106,0,.106,0,.211.106h0a1.959,1.959,0,0,0,1.267.739h0a.388.388,0,0,0,.317-.106A.947.947,0,0,1,22.283,63.856Zm.845-1.478c-.422.422-1.056-.211-1.478-.528s-1.056-.211-.95.422c0,.634,1.056,1.373.317,1.9s-1.373-.422-1.9-.317c-.528.211-.317.634-.528,1.373a1.109,1.109,0,0,1-1.8.528,1.214,1.214,0,0,1,0-1.8.908.908,0,0,0,.106-1.373c-.317-.317-1.478,0-1.373-.95q0-.634,1.267-.95a3.992,3.992,0,0,0,1.8-.634.6.6,0,0,0,0-1.056c-.317-.211-.528-.739,0-.845a1.692,1.692,0,0,1,1.69.211c0,.106.106.106.211.317-.106.106-.211.106-.317.211-.317.211-.739.422-.739.845a1.5,1.5,0,0,0,.211.634l-.528.528c-.106.106-1.056.739-1.584,1.162v.211a.146.146,0,0,0,.211,0c.317-.211.739-.634,1.056-.845a7.216,7.216,0,0,0-1.056,3.485c0,.106,0,.106.106.106h0c.106,0,.106,0,.106-.106a7.5,7.5,0,0,1,1.162-3.59,3.02,3.02,0,0,0,.528,1.8l.106.106h.106c.106,0,.106-.106,0-.211a4.515,4.515,0,0,1-.528-1.9c.106-.211.317-.317.422-.528h0a2.376,2.376,0,0,0,1.584.528h0c.422,0,.95-.106,1.373-.106h.106C23.234,61.639,23.445,62.061,23.128,62.378Zm.422-2.218c-.106-.317-.106-.634-.211-.845a3.637,3.637,0,0,0-.106-.95,7.481,7.481,0,0,1-.106-1.478c0-.106,0-.106-.106-.106s-.106,0-.106.106c0,.422.106,1.056.106,1.478v.317a6.065,6.065,0,0,0-2.006-2.006,5.458,5.458,0,0,0-.317-1.8c0-.106-.106-.106-.106,0-.106,0-.106.106,0,.106a3.863,3.863,0,0,1,.317,1.478c-.106,0-.106-.106-.211-.106a6.989,6.989,0,0,1-2.429-2.534.106.106,0,0,0-.211,0,5.6,5.6,0,0,0,2.534,2.64.1.1,0,0,1,.106.106,7.48,7.48,0,0,1-1.584.106c-.106,0-.106,0-.106.106s0,.106.106.106h.317a5.144,5.144,0,0,0,1.584-.211A5.618,5.618,0,0,1,23.128,59a2.327,2.327,0,0,0-1.69,0,.106.106,0,1,0,0,.211,1.938,1.938,0,0,1,1.69.106,3.083,3.083,0,0,1,.211.95,1.338,1.338,0,0,1-.95.422,3.439,3.439,0,0,1-2.534-.317c-1.056-1.056.95-1.162.95-2.112s-1.373-.95-2.218-.634a1.031,1.031,0,0,1-1.373-1.056c.106-.422,1.162.106,1.373-.634.211-.634-.528-.845-1.373-1.373-.95-.422-.634-1.162-.317-1.69a1.488,1.488,0,0,1,.528-.317,9.772,9.772,0,0,1,1.69,1.162c.211.422.211.211.95.211.634,0,1.478.317,1.584,1.056s.211.845,1.373.422c1.373-.528,1.584,1.162,1.478,1.9h0c-.106.317-.106.634-.317.845-.211.422-.422.95-.634,1.373C23.656,60.055,23.656,60.16,23.55,60.16Zm.211,4.33c-.317-.211-.106-.95.211-1.373a1.577,1.577,0,0,1,.634.634C24.712,63.856,24.29,64.807,23.762,64.49Zm1.162,1.373c-.739.211-1.8-.317-.739-.528C24.712,65.229,25.662,65.651,24.923,65.863Zm.634-.422a1.985,1.985,0,0,0-1.056-.422c.95-.528,2.112-1.162,3.485-1.8a.581.581,0,0,0,.528.211h0a1.3,1.3,0,0,0,.845-.422l.211-.211a.327.327,0,0,1,.211-.106l.211.211A29.678,29.678,0,0,0,25.557,65.44Zm2.218.95c-1.162.422-2.429,0-1.584-.422C26.824,65.651,28.83,66.074,27.774,66.391Zm.317-.634a3.806,3.806,0,0,0-1.9-.106A37.928,37.928,0,0,1,30.2,63.434a.959.959,0,0,0,.739.317A33.309,33.309,0,0,0,28.091,65.757Zm7.181-.106c1.056.106-.106,1.056-1.9.845C32.421,66.391,33.477,65.44,35.272,65.651Zm-.422-.317a2.509,2.509,0,0,0-2.112.739l-2.323-1.162a10.552,10.552,0,0,1,1.478-.845A30.648,30.648,0,0,1,34.849,65.335Zm-2.323-2.429a.635.635,0,0,0,.106-.422.369.369,0,0,0,.211-.106l.317.106A2.209,2.209,0,0,0,32.526,62.906Zm5.069,1.9c.845.317-.634.845-1.267.528C35.8,65.018,36.75,64.49,37.595,64.807Zm-.634-.422a1.588,1.588,0,0,0-1.162.422s-1.584-.739-2.534-1.162a1.188,1.188,0,0,1,.528-.422A29.876,29.876,0,0,0,36.961,64.384Zm2.429,1.8a5.6,5.6,0,0,0,1.8-.845,9.944,9.944,0,0,0,1.056.422A7.728,7.728,0,0,1,39.39,66.179Zm3.485-.845a47.62,47.62,0,0,1-9.5-3.168A3.119,3.119,0,0,1,34,61.85a45.2,45.2,0,0,0,9.5,1.69A8.847,8.847,0,0,0,42.875,65.335Zm1.584-.95.528-.739.634.106Zm2.746-2.64a6.01,6.01,0,0,1-.739,1.373,52.9,52.9,0,0,1-6.23-.211s.95-.528,1.478-.845A34.258,34.258,0,0,0,47.2,61.744Zm-.317-1.056a15.578,15.578,0,0,1-3.907.634c.528-.106.95-.317,1.584-.422l.317-.106a.106.106,0,0,0,0-.211l-.317.106c-.845.211-1.478.422-2.112.634l-.95-.317c.845-.211,1.584-.528,2.218-.739.211-.106.422-.106.634-.211A14.792,14.792,0,0,0,46.887,60.688Zm3.59-2.534c-2.534,1.267-4.013,1.69-5.385,1.584a8.826,8.826,0,0,0,2.112-.845c.106,0,.106-.106,0-.106,0-.106-.106-.106-.106,0a12.062,12.062,0,0,1-2.746.95,1.719,1.719,0,0,1-.634-.317,26.427,26.427,0,0,0,2.64-.95,8.021,8.021,0,0,0,1.162-.422A5.722,5.722,0,0,0,50.478,58.154Zm1.584-2.006c-1.9,1.162-2.957,1.69-4.013,1.69h-.211c.422-.211.845-.317,1.373-.528h.106a.106.106,0,0,0,0-.211h-.106a17.518,17.518,0,0,1-1.69.634,1.458,1.458,0,0,1-.422-.317,6.829,6.829,0,0,0,1.69-.95c.106,0,.106-.106.211-.106.211-.106.317-.211.528-.317A9.989,9.989,0,0,0,52.062,56.148Zm2.323-2.323a7.189,7.189,0,0,1-3.907,1.9h-.317a2.308,2.308,0,0,0,.528-.317c.106,0,.106-.106,0-.211,0-.106-.106-.106-.211,0a6.057,6.057,0,0,1-.739.422,1.458,1.458,0,0,1-.422-.317,11.931,11.931,0,0,0,2.323-1.162A8.781,8.781,0,0,0,54.385,53.824Zm-1.69-.317a1.045,1.045,0,0,1-.845-.106,5.369,5.369,0,0,0,1.373-.95.149.149,0,1,0-.211-.211,8.136,8.136,0,0,1-1.373.95c0-.106,0-.106-.106-.211a12.663,12.663,0,0,0,1.8-1.162h0a7.544,7.544,0,0,0,2.112-.211C55.652,51.712,54.385,53.191,52.7,53.508Zm4.541-4.224C55.863,50.868,55.23,51.29,54.49,51.5h-.422a8.175,8.175,0,0,0,1.267-1.056.149.149,0,0,0-.211-.211c-.634.528-1.056.845-1.373,1.162a.824.824,0,0,1-.422-.422A18.879,18.879,0,0,0,54.807,49.6C55.863,49.389,57.236,49.284,57.236,49.284Zm-3.907,1.478a1.006,1.006,0,0,1,.634-.739c.106-.106.317-.106.528-.211A9.192,9.192,0,0,0,53.329,50.762Zm2.323-1.584a.729.729,0,0,1-.845-.317c-.739.845-1.8,1.8-1.8,1.8h0a3.563,3.563,0,0,1-1.69,1.267c-.739.211-1.373-.211-.317-.95.528-.422,1.478-.422,2.323-.845a7.234,7.234,0,0,0,1.478-1.584.915.915,0,0,1,.422-.739c.739-.739,2.429-.422,3.168-1.373C56.814,48.756,56.391,48.967,55.652,49.178Zm1.056-2.323a.681.681,0,0,1-.528-1.162c.422-.528,2.006-.211,2.534-.95C57.975,46.116,57.236,46.855,56.708,46.855Zm1.373-2.218c-.634.528-1.69-.106-.739-1.162a13.1,13.1,0,0,0,2.006-1.69A4.02,4.02,0,0,1,58.081,44.637Z" transform="translate(0.036 -34.5)" fill="#afafaf"/>
          <path id="Path_1006" data-name="Path 1006" d="M4.911,39.128c-.106-.211-.106-.317-.211-.528C4.806,38.811,4.806,39.022,4.911,39.128Z" transform="translate(0.301 -34.27)" fill="#afafaf"/>
        </g>
      </g>
    </g>
  </g>
</svg>
