<svg xmlns="http://www.w3.org/2000/svg" viewBox="0 0 285.25 175.48"><defs><style>.cls-1{fill:#afafaf;}</style></defs><g id="Layer_2" data-name="Layer 2"><g id="comp_Azerbaijan"><path class="cls-1" d="M1.94,69.7,2.09,69l-.15.68Z"/><path class="cls-1" d="M2.68,66.51c.32-1.22.64-2.43,1-3.63-.37,1.2-.7,2.41-1,3.63Z"/><path class="cls-1" d="M2.09,69c.18-.84.38-1.68.59-2.51-.21.83-.4,1.67-.59,2.51Z"/><path class="cls-1" d="M163.7,118h-5.42l-.22,24.64a86.75,86.75,0,0,0,13.75-23.86,2.85,2.85,0,0,1-.78-.22,39.25,39.25,0,0,0-7.33-.56Z"/><path class="cls-1" d="M.55,78.59c-.09.78-.17,1.56-.24,2.35.06-.79.16-1.57.24-2.35Z"/><path class="cls-1" d="M144.53,147.61l-3.84-9-14-.11-4.17,8.92h-6l17.37-36.13,16.8,36.46-6.2-.11ZM114.42,121a17.56,17.56,0,0,0-5.07-3.12,17,17,0,0,0-5.75-1.11,13.27,13.27,0,0,0-9.47,3.56,12.68,12.68,0,0,0-3.73,9.48,12.83,12.83,0,0,0,3.39,9.37,11.93,11.93,0,0,0,8.9,3.79,15.4,15.4,0,0,0,6-1.12,16.94,16.94,0,0,0,5.41-3.23V145a17.44,17.44,0,0,1-5.07,2.35,17.84,17.84,0,0,1-6,.78,20.56,20.56,0,0,1-7.44-1.34,18.36,18.36,0,0,1-6.09-3.9,18.71,18.71,0,0,1-3.94-6,17,17,0,0,1-1.24-7.25,18.35,18.35,0,0,1,1.35-7.14,17.83,17.83,0,0,1,4.06-5.91,21.84,21.84,0,0,1,6.09-3.9,21.59,21.59,0,0,1,13.3-.33,26.62,26.62,0,0,1,5.64,2.9l-.34,5.68Zm-37.1,26.09-3.83-9h-14l-4.17,8.92-6.09-.11,17.36-36.12,16.8,36.45-6.09-.11Zm65-58.08-7.67,16.61-11.16-.11h0l-9.47-.11-7-32c-.11-.45-.23-1.9-.56-4.13-.23-1.89-.46-3.45-.57-4.68A30.37,30.37,0,0,1,104.72,69a46.66,46.66,0,0,1-1.91,4.46L85.44,107.7,68.64,72.47a42.44,42.44,0,0,1-1.91-4.13,38.84,38.84,0,0,1-1.25-4c-.11,1.34-.22,2.78-.45,4.23s-.56,3-.9,4.69L56.8,105.13,47.11,105,63,37.79,82.06,78.71c.23.56.79,1.67,1.35,3.23s1.24,3.35,2.15,5.58a48.29,48.29,0,0,1,2.93-7c.45-.78.67-1.33.9-1.78L108.67,38l15.08,66.81,31.94-66.37,21.76,47.16C176.44,38.46,137.54.33,89.5,0-1.38,29-11.3,136.91,87.92,175.37a88.48,88.48,0,0,0,65.52-27.76l.22-34.9,7.78.11c5,0,8.57.23,10.6.78.45.23.9.23,1.24.45a68,68,0,0,0,2.26-8.14l-7.33-16.72L142.27,89Z"/><path class="cls-1" d="M.55,78.59c.33-3,.78-6,1.39-8.89A78.74,78.74,0,0,0,.55,78.59Z"/><path class="cls-1" d="M155.69,58.31a34.52,34.52,0,0,1-1.24,4c-.45,1.23-.9,2.34-1.24,3.35l-6.77,14.49,18.27.22-6.54-14.71c-.45-1-.79-2.12-1.24-3.24a30.31,30.31,0,0,1-1.24-4.12Z"/><polygon class="cls-1" points="123.89 105.47 123.75 104.83 123.44 105.46 123.89 105.47 123.89 105.47"/><path class="cls-1" d="M28.73,152.51c17.7,15.61,37.54,23,59.42,23C-11.3,136.91-1.27,29,89.62.11,5.27-.56-29.23,100.23,28.73,152.51Z"/><path class="cls-1" d="M240.6,93.43l8.57-3.79a11.75,11.75,0,0,0,4.39,6.68c2.15,1.57,4.85,2.23,8.23,2.23A9.88,9.88,0,0,0,269.35,96a8.69,8.69,0,0,0,2.82-6.91c.11-3.79-3.05-7.25-9.47-10.26a13.47,13.47,0,0,0-2-.89c-7.11-3.57-12-6.69-14.32-9.59a14.78,14.78,0,0,1-3.5-10.26,16.58,16.58,0,0,1,5.53-12.82c3.6-3.23,8.34-4.79,14.2-4.79,4.85.11,8.91,1,12.07,2.9a14.61,14.61,0,0,1,6.65,8L273,55.52a11.76,11.76,0,0,0-4.29-4.46,10.58,10.58,0,0,0-5.41-1.45,9.51,9.51,0,0,0-6.77,2.12,7.64,7.64,0,0,0-2.59,5.91c-.11,3.9,3.61,7.58,10.94,10.92a6.86,6.86,0,0,0,1.35.67c6.43,2.9,10.83,5.91,13.19,8.7a15.45,15.45,0,0,1,3.5,10.59c0,6-2,10.93-6,14.49s-9.24,5.35-15.89,5.35c-5.53,0-10.15-1.33-13.65-3.9a18.21,18.21,0,0,1-6.76-11ZM203.16,77.15,202.94,106l-9.93-.11.57-64.55,14.77.11a54.63,54.63,0,0,1,10,.89,15.53,15.53,0,0,1,6.09,2.9,14.46,14.46,0,0,1,4.62,6,19.77,19.77,0,0,1,1.58,8.14c-.11,5.13-1.35,9.14-3.94,12.15s-6.32,4.69-11.28,5.13l22.33,29.66-12.07-.11-21.53-29.1ZM204,69l1.92.11c5.63,0,9.36-.56,11.27-1.89s2.82-3.57,2.82-6.8c0-3.57-.9-6-2.93-7.59s-5.64-2.22-10.94-2.22h-1.91L204,69Zm-28.3,36.9h0a89.83,89.83,0,0,0,1.92-17.39V85.73L186.81,106l-11.16-.11Z"/><path class="cls-1" d="M158.06,142.59h6.09a28.52,28.52,0,0,0,6.76-.44,8.11,8.11,0,0,0,3.5-1.79,11.42,11.42,0,0,0,2.93-4.24,17.16,17.16,0,0,0,1.13-5.79,15.76,15.76,0,0,0-1-5.91,9.18,9.18,0,0,0-5.75-5.8c.57-1.56,1.13-3.12,1.58-4.68a13.69,13.69,0,0,1,4.17,2.23,14.56,14.56,0,0,1,4.63,6,19.07,19.07,0,0,1,1.46,8.25,21,21,0,0,1-1.58,8.25,14.2,14.2,0,0,1-4.73,5.91,16.64,16.64,0,0,1-5.3,2.45c-1.92.56-5.08.67-9.25.67H161.1l-7.78-.11h0a38.81,38.81,0,0,0,4.74-5Z"/><polygon class="cls-1" points="190.53 148.05 190.87 113.05 210.49 113.27 210.38 118.06 196.4 117.95 196.4 126.65 210.38 126.76 210.38 131.78 196.4 131.67 196.28 142.93 210.26 143.04 210.15 148.05 190.53 148.05 190.53 148.05"/><path class="cls-1" d="M245.67,131.11a7.1,7.1,0,0,1-.23-2.23c-.22-1-.22-1.9-.33-2.57a19.41,19.41,0,0,1-.68,2.35,14.49,14.49,0,0,1-1,2.45l-9.36,18.39-9-19.06a12.25,12.25,0,0,1-1-2.23,17.37,17.37,0,0,1-.68-2.12,17,17,0,0,1-.22,2.23c-.11.78-.23,1.56-.45,2.57l-3.95,17.05h-5.3L222,111.6l10.26,22.07a9.73,9.73,0,0,1,.79,1.79c.23.89.68,1.78,1.13,3,.34-1,.9-2.23,1.58-3.79a4.12,4.12,0,0,1,.56-1l10.26-21.85,8.23,36.46-5.41-.11-3.72-17.06Z"/><path class="cls-1" d="M267,148.61l.11-16.05-11.72-19.07,6.09.11,7.33,11.93a12.4,12.4,0,0,1,.67,1.23c.23.56.57,1.11.79,1.56.23-.56.56-1,.79-1.56a14.42,14.42,0,0,1,.79-1.34l7.67-11.59h5.75L273,132.67l-.23,15.94Z"/><path class="cls-1" d="M134.6,126.09l3.61,8L128.4,134l3.72-7.92c.12-.56.46-1.11.68-1.89a11.14,11.14,0,0,0,.56-2.12c.23.89.46,1.56.68,2.23a6.67,6.67,0,0,0,.56,1.78Z"/><path class="cls-1" d="M67.4,125.65l3.61,8-9.92-.11,3.72-7.91a9.66,9.66,0,0,0,.67-1.9c.23-.67.46-1.34.68-2.12a22.23,22.23,0,0,1,.57,2.23c.22.67.45,1.23.67,1.79Z"/></g></g></svg>