<?xml version="1.0" encoding="utf-8"?>
<!-- Generator: Adobe Illustrator 25.0.0, SVG Export Plug-In . SVG Version: 6.00 Build 0)  -->
<svg version="1.1" id="Layer_1" xmlns="http://www.w3.org/2000/svg" xmlns:xlink="http://www.w3.org/1999/xlink" x="0px" y="0px"
	 viewBox="0 0 125 99.7" style="enable-background:new 0 0 125 99.7;" xml:space="preserve">
<style type="text/css">
	.st0{fill:#FFFFFF;}
	.st1{fill:#AFAFAF;}
	.st2{fill:#F1E9E6;}
	.st3{fill:#6D6D6D;}
</style>
<g>
	<g>
		<g>
			<path class="st0" d="M103.4,88.2c0-2.4,0-4.8,0-7.2c0-0.9,0-1.8,0.2-2.7c0.8-4,3.1-6.9,7-8.4c1.5-0.6,3.1-0.8,4.7-0.6
				c2.2,0.2,4.2,1.1,5.9,2.5c2,1.8,3.2,4,3.7,6.6c0.4,2,0.2,4-0.7,5.8c-0.6,1.3-1.4,2.4-2.5,3.4c-1.2,1.1-2.5,2-4,2.6
				c-2.1,0.8-4.3,0.7-6.4,0.1c-0.4-0.1-0.9-0.3-1.3-0.5c-0.2-0.1-0.5-0.2-0.8-0.2c-0.4,0-0.6,0.1-0.7,0.5c-0.1,0.3-0.1,0.7,0,1
				c0.1,1.1,0.1,2.1,0.1,3.2c0,0.7,0,1.4,0,2.1c0,0.5-0.1,1-0.2,1.5c-0.4,1.2-1.3,1.8-2.6,1.7c-1-0.1-1.7-0.6-2.1-1.5
				c-0.1-0.3-0.2-0.5-0.2-0.8c0-0.3-0.1-0.5-0.1-0.8C103.3,93.8,103.3,91,103.4,88.2C103.3,88.2,103.4,88.2,103.4,88.2z M114.2,74.4
				c-3.1,0-5.6,2.5-5.7,5.5c-0.1,3.1,2.4,5.8,5.6,5.8c3.1,0,5.7-2.5,5.7-5.7C119.8,76.9,117.3,74.4,114.2,74.4z"/>
			<path class="st0" d="M0,88.2c0-2.5,0-5,0-7.5c0-0.5,0-1,0-1.4c0.2-2.3,1-4.4,2.4-6.1c1.7-2,3.8-3.3,6.4-3.8
				c3.2-0.6,6.1,0.2,8.6,2.2c2.1,1.7,3.5,3.9,3.9,6.6c0.7,4.2-0.7,7.6-3.9,10.3c-1.3,1.1-2.8,1.8-4.5,2.1c-2,0.4-4,0.2-6-0.6
				c-0.2-0.1-0.3-0.1-0.5-0.2c-0.2-0.1-0.3-0.1-0.5-0.2c-0.6-0.1-0.8,0.1-0.9,0.6c0,0.6,0,1.3,0,1.9c0,1.6,0,3.2,0,4.8
				c0,0.5-0.1,0.9-0.3,1.4c-0.4,0.8-1,1.2-1.9,1.3c-0.4,0-0.7,0-1.1-0.1c-0.7-0.2-1.2-0.6-1.5-1.3c-0.2-0.5-0.3-1-0.3-1.6
				c0-2,0-3.9,0-5.9C0,90,0,89.1,0,88.2z M10.8,85.7c3,0,5.7-2.4,5.7-5.7c0-3.1-2.6-5.7-5.6-5.7c-3.2,0-5.7,2.5-5.7,5.7
				C5.1,83.2,7.8,85.7,10.8,85.7z"/>
			<path class="st0" d="M77.2,78.4c0,2,0,4,0,6c0.1,2,0,4.1,0,6.1c0,2,0,4.1,0,6.1c0,0.5-0.1,1-0.2,1.4c-0.4,1.2-1.4,1.7-2.5,1.6
				c-1.4-0.1-2.1-1-2.3-2.1c-0.1-0.4-0.1-0.9-0.1-1.3c0-1.9,0-3.8,0-5.7c0-0.2,0-0.4,0-0.6c-0.1-0.4-0.3-0.5-0.6-0.4
				c-0.2,0-0.4,0.1-0.6,0.2c-0.8,0.3-1.6,0.5-2.4,0.7c-2.2,0.4-4.4,0.3-6.5-0.6c-2.4-1-4.2-2.8-5.3-5.2c-0.6-1.2-0.9-2.5-1-3.9
				c-0.1-0.8-0.1-1.7-0.1-2.6c0-1.9,0-3.8,0-5.6c0-0.5,0.1-1,0.3-1.5c0.4-0.9,1.1-1.4,2.1-1.4c0.3,0,0.6,0,0.9,0.1
				c1,0.3,1.5,0.9,1.7,1.8c0.1,0.4,0.1,0.9,0.1,1.3c0,2,0,4.1,0,6.1c0,0.8,0,1.5,0.2,2.2c0.4,1.6,1.2,2.9,2.6,3.7
				c2.5,1.5,6.3,0.8,7.9-2.5c0.4-0.9,0.6-1.8,0.6-2.8c0-2.2,0-4.3,0-6.5c0-0.4,0-0.9,0.1-1.3c0.1-0.4,0.1-0.7,0.3-1
				c0.4-0.7,0.9-1.1,1.7-1.2c0.9-0.1,1.8,0,2.4,0.8c0.4,0.4,0.5,1,0.6,1.5c0.1,0.4,0,0.8,0,1.2C77.2,74.9,77.2,76.6,77.2,78.4
				C77.2,78.4,77.2,78.4,77.2,78.4z"/>
			<path class="st0" d="M23.4,79.7c0.2-3.7,1.9-6.8,5.3-8.9c1.3-0.8,2.7-1.3,4.2-1.5c3.4-0.4,6.3,0.6,8.7,3c1.6,1.6,2.7,3.5,3.1,5.7
				c0.6,3.2-0.1,6.1-2.1,8.7c-1.6,2.1-3.8,3.5-6.5,4c-2.7,0.5-5.3,0-7.6-1.4c-2.6-1.6-4.3-4-4.9-7C23.5,81.4,23.4,80.7,23.4,79.7z
				 M34.2,74.4c-3.1,0-5.6,2.5-5.6,5.6c0,3.1,2.5,5.7,5.6,5.7c3.1,0,5.7-2.6,5.7-5.7C39.9,76.9,37.3,74.4,34.2,74.4z"/>
			<path class="st0" d="M79.7,76.3c0-1.4,0-2.9,0.1-4.3c0-1.3,0.8-2.2,2.1-2.4c1.8-0.3,2.9,0.9,3,2.3c0.1,0.8,0,1.5,0,2.3
				c0,1.9,0,3.7,0,5.6c0,1.2,0.3,2.2,0.9,3.2c0.9,1.5,2.3,2.4,4,2.6c1.7,0.2,3.1-0.2,4.4-1.3c1-0.8,1.5-1.9,1.8-3.1
				c0.1-0.4,0.2-0.9,0.2-1.3c0-1.2,0-2.4,0-3.7c0-0.9,0-1.9,0-2.8c0-0.4,0-0.9,0-1.3c0-0.4,0.1-0.7,0.2-1.1c0.4-0.8,1-1.3,1.9-1.4
				c0.4,0,0.7,0,1.1,0.1c0.8,0.2,1.3,0.7,1.6,1.5c0.1,0.4,0.2,0.7,0.2,1.1c0,1.7,0,3.4,0,5.1c0,0.9,0,1.8,0,2.6
				c0,2.6-0.8,4.9-2.5,6.9c-1.6,1.9-3.5,3.1-5.9,3.7c-1.2,0.3-2.3,0.3-3.5,0.1c-1.9-0.3-3.6-0.9-5.1-2c-2.3-1.7-3.8-4-4.3-6.8
				c-0.1-0.8-0.2-1.5-0.2-2.3C79.7,78.5,79.7,77.4,79.7,76.3z"/>
			<path class="st0" d="M47.2,75.9c0-3.9,0-7.8,0-11.6c0-0.5,0.1-1,0.2-1.4c0.4-1.2,1.3-1.7,2.5-1.7c0.2,0,0.5,0,0.7,0.1
				c0.8,0.2,1.3,0.8,1.5,1.5c0.1,0.4,0.2,0.9,0.2,1.3c0,3.9,0,7.8,0,11.7c0,1.8,0,3.6,0,5.4c0,2.2,0,4.3,0,6.5c0,0.5-0.1,1-0.2,1.5
				c-0.3,0.9-1.1,1.5-2.1,1.5c-0.3,0-0.6,0-1-0.1c-0.7-0.2-1.2-0.6-1.5-1.3c-0.2-0.5-0.3-1.1-0.3-1.6c0-1.1,0-2.2,0-3.3
				C47.2,81.6,47.2,78.8,47.2,75.9C47.2,75.9,47.2,75.9,47.2,75.9z"/>
		</g>
		<g>
			<path class="st0" d="M87.9,25.3c0,6.1,0,12.3,0,18.4c0,0.5,0,1.1,0,1.6c0,0.8-0.2,1.5-0.4,2.3c-0.5,1.4-1.5,2.3-2.9,2.8
				c-0.9,0.3-1.9,0.4-2.8,0.4c-5,0-9.9,0-14.9,0c-7.9,0-15.9,0-23.8,0c-0.8,0-1.6-0.1-2.4-0.3c-1.8-0.5-2.9-1.6-3.3-3.4
				c-0.2-0.7-0.3-1.4-0.3-2.2c0-4.9,0-9.8,0-14.7c0-5.9,0-11.8,0-17.8c0-2.2,0-4.4,0-6.5c0-0.8,0.1-1.6,0.3-2.3
				c0.5-1.7,1.6-2.8,3.4-3.3C41.4,0.1,42.2,0,42.9,0C55.9,0,69,0,82,0c0.8,0,1.5,0.1,2.3,0.3c1.9,0.5,3,1.7,3.4,3.6
				c0.2,0.8,0.2,1.6,0.2,2.4C87.9,12.6,87.9,19,87.9,25.3z M75.4,36.2c4,0,7.1-3.3,7.2-7.1c0.1-3.9-3.1-7.2-7.1-7.3
				c-4,0-7.3,3.2-7.3,7.1C68.1,32.7,71.2,36.2,75.4,36.2z M50.3,36.2c4.2,0,7.3-3.5,7.2-7.3c-0.1-3.9-3.3-7.1-7.3-7
				c-4.1,0-7.2,3.4-7.1,7.2C43.1,32.9,46.1,36.2,50.3,36.2z M82.2,18.4c0-0.3,0-0.6,0-0.9c-0.1-0.6-0.6-1.1-1.3-1.2
				c-0.9-0.1-1.8-0.1-2.7-0.2c-0.8,0-1.6-0.1-2.3-0.1c-1.5-0.1-3-0.2-4.6-0.3c-0.4,0-0.8,0-1.2-0.1c-0.8-0.1-1.5,0.6-1.5,1.4
				c0,0.5,0,1,0,1.5c0,0.7,0.6,1.3,1.3,1.4c1.2,0.1,2.5,0.1,3.7,0.2c1.3,0.1,2.6,0.1,3.9,0.2c0.5,0,0.9,0.1,1.4,0.1
				c0.7,0,1.3,0.1,2,0.1c0.7,0,1.3-0.5,1.4-1.2C82.2,19,82.1,18.7,82.2,18.4z M56.6,17.8c0-0.2,0-0.5,0-0.7c0-0.8-0.7-1.4-1.5-1.4
				c-0.7,0.1-1.5,0.1-2.2,0.1c-1.2,0.1-2.4,0.1-3.6,0.2c-1.6,0.1-3.3,0.2-4.9,0.3c-0.8,0-1.4,0.6-1.4,1.4c0,0.4,0,0.9,0,1.3
				c0,0.8,0.7,1.5,1.5,1.4c0.4,0,0.7,0,1.1,0c1.5-0.1,3-0.1,4.4-0.2c1.3-0.1,2.6-0.1,4-0.2c0.5,0,1,0,1.4-0.1
				c0.8-0.1,1.3-0.6,1.3-1.4C56.6,18.3,56.6,18.1,56.6,17.8z M63.1,40.5c0.6,0,1.1-0.1,1.7-0.3c1.1-0.3,2-0.9,3-1.4
				c0.1-0.1,0.2-0.2,0.3-0.3c0.2-0.2,0.3-0.5,0.2-0.8c-0.2-0.6-0.7-0.9-1.3-0.7c-0.1,0-0.2,0.1-0.3,0.2c-0.4,0.3-0.9,0.5-1.3,0.7
				c-1.1,0.4-2.2,0.6-3.4,0.3c-0.8-0.2-1.6-0.5-2.3-0.9c-0.2-0.1-0.4-0.2-0.6-0.3c-0.4-0.1-0.8,0-1.1,0.4c-0.2,0.4-0.2,0.7,0.1,1.1
				c0.1,0.1,0.2,0.2,0.4,0.3c0.9,0.6,1.8,1.1,2.8,1.4C61.8,40.4,62.4,40.5,63.1,40.5z"/>
			<path class="st0" d="M75.4,36.2c-4.2,0-7.3-3.5-7.3-7.3c0-3.9,3.4-7.1,7.3-7.1c4,0,7.2,3.4,7.1,7.3C82.5,33,79.4,36.2,75.4,36.2z
				 M75.6,23.5c-0.4,0-0.9,0.1-1.3,0.2c-3.6,0.9-5.2,5.1-3.1,8.2c1.2,1.8,3.4,2.7,5.5,2.2c2.8-0.6,4.6-3.4,4.1-6.2
				C80.4,25.4,78.2,23.5,75.6,23.5z"/>
			<path class="st0" d="M50.3,36.2c-4.2,0-7.2-3.4-7.2-7.1c0-3.8,3.1-7.2,7.1-7.2c4,0,7.2,3.2,7.3,7C57.5,32.7,54.5,36.2,50.3,36.2z
				 M55.4,28.9c0-2.9-2.4-5.3-5.3-5.3c-2.9,0-5.3,2.4-5.3,5.3c0,3,2.4,5.4,5.3,5.4C53,34.3,55.4,31.8,55.4,28.9z"/>
			<path class="st0" d="M82.2,18.4c0,0.3,0,0.6,0,0.8c-0.1,0.7-0.7,1.2-1.4,1.2c-0.7,0-1.3-0.1-2-0.1c-0.5,0-0.9-0.1-1.4-0.1
				c-1.3-0.1-2.6-0.1-3.9-0.2c-1.2-0.1-2.5-0.1-3.7-0.2c-0.7,0-1.3-0.6-1.3-1.4c0-0.5,0-1,0-1.5c0-0.8,0.7-1.4,1.5-1.4
				c0.4,0,0.8,0.1,1.2,0.1c1.5,0.1,3,0.2,4.6,0.3c0.8,0,1.6,0.1,2.3,0.1c0.9,0.1,1.8,0.1,2.7,0.2c0.6,0,1.2,0.5,1.3,1.2
				C82.2,17.8,82.1,18.1,82.2,18.4z"/>
			<path class="st0" d="M56.6,17.8c0,0.2,0,0.5,0,0.7c0,0.8-0.5,1.3-1.3,1.4c-0.5,0-1,0.1-1.4,0.1c-1.3,0.1-2.6,0.1-4,0.2
				c-1.5,0.1-3,0.1-4.4,0.2c-0.4,0-0.7,0-1.1,0c-0.8,0-1.5-0.6-1.5-1.4c0-0.4,0-0.9,0-1.3c0-0.8,0.6-1.4,1.4-1.4
				c1.6-0.1,3.3-0.2,4.9-0.3c1.2-0.1,2.4-0.1,3.6-0.2c0.7,0,1.5-0.1,2.2-0.1c0.8-0.1,1.5,0.6,1.5,1.4C56.6,17.3,56.6,17.6,56.6,17.8
				z"/>
			<path class="st0" d="M63.1,40.5c-0.6,0-1.3-0.1-1.9-0.3c-1-0.3-1.9-0.8-2.8-1.4c-0.1-0.1-0.3-0.2-0.4-0.3
				c-0.3-0.4-0.3-0.7-0.1-1.1c0.2-0.4,0.6-0.5,1.1-0.4c0.2,0.1,0.4,0.1,0.6,0.3c0.7,0.4,1.5,0.8,2.3,0.9c1.2,0.2,2.3,0.1,3.4-0.3
				c0.5-0.2,0.9-0.4,1.3-0.7c0.1-0.1,0.2-0.1,0.3-0.2c0.6-0.2,1.1,0,1.3,0.7c0.1,0.3,0,0.6-0.2,0.8c-0.1,0.1-0.2,0.2-0.3,0.3
				c-0.9,0.6-1.9,1.1-3,1.4C64.2,40.4,63.6,40.5,63.1,40.5z"/>
			<path class="st0" d="M75.6,23.5c2.6,0,4.8,1.9,5.2,4.4c0.5,2.8-1.3,5.6-4.1,6.2c-2.1,0.5-4.2-0.4-5.5-2.2
				c-2.1-3.1-0.5-7.3,3.1-8.2C74.7,23.6,75.1,23.5,75.6,23.5z"/>
			<path class="st0" d="M55.4,28.9c0,3-2.4,5.4-5.3,5.4c-2.9,0-5.3-2.4-5.3-5.4c0-2.9,2.4-5.3,5.3-5.3C53,23.5,55.4,25.9,55.4,28.9z
				"/>
		</g>
	</g>
	<g>
		<g>
			<path class="st1" d="M103.4,88.2c0-2.4,0-4.8,0-7.2c0-0.9,0-1.8,0.2-2.7c0.8-4,3.1-6.9,7-8.4c1.5-0.6,3.1-0.8,4.7-0.6
				c2.2,0.2,4.2,1.1,5.9,2.5c2,1.8,3.2,4,3.7,6.6c0.4,2,0.2,4-0.7,5.8c-0.6,1.3-1.4,2.4-2.5,3.4c-1.2,1.1-2.5,2-4,2.6
				c-2.1,0.8-4.3,0.7-6.4,0.1c-0.4-0.1-0.9-0.3-1.3-0.5c-0.2-0.1-0.5-0.2-0.8-0.2c-0.4,0-0.6,0.1-0.7,0.5c-0.1,0.3-0.1,0.7,0,1
				c0.1,1.1,0.1,2.1,0.1,3.2c0,0.7,0,1.4,0,2.1c0,0.5-0.1,1-0.2,1.5c-0.4,1.2-1.3,1.8-2.6,1.7c-1-0.1-1.7-0.6-2.1-1.5
				c-0.1-0.3-0.2-0.5-0.2-0.8c0-0.3-0.1-0.5-0.1-0.8C103.3,93.8,103.3,91,103.4,88.2C103.3,88.2,103.4,88.2,103.4,88.2z M114.2,74.4
				c-3.1,0-5.6,2.5-5.7,5.5c-0.1,3.1,2.4,5.8,5.6,5.8c3.1,0,5.7-2.5,5.7-5.7C119.8,76.9,117.3,74.4,114.2,74.4z"/>
			<path class="st1" d="M0,88.2c0-2.5,0-5,0-7.5c0-0.5,0-1,0-1.4c0.2-2.3,1-4.4,2.4-6.1c1.7-2,3.8-3.3,6.4-3.8
				c3.2-0.6,6.1,0.2,8.6,2.2c2.1,1.7,3.5,3.9,3.9,6.6c0.7,4.2-0.7,7.6-3.9,10.3c-1.3,1.1-2.8,1.8-4.5,2.1c-2,0.4-4,0.2-6-0.6
				c-0.2-0.1-0.3-0.1-0.5-0.2c-0.2-0.1-0.3-0.1-0.5-0.2c-0.6-0.1-0.8,0.1-0.9,0.6c0,0.6,0,1.3,0,1.9c0,1.6,0,3.2,0,4.8
				c0,0.5-0.1,0.9-0.3,1.4c-0.4,0.8-1,1.2-1.9,1.3c-0.4,0-0.7,0-1.1-0.1c-0.7-0.2-1.2-0.6-1.5-1.3c-0.2-0.5-0.3-1-0.3-1.6
				c0-2,0-3.9,0-5.9C0,90,0,89.1,0,88.2z M10.8,85.7c3,0,5.7-2.4,5.7-5.7c0-3.1-2.6-5.7-5.6-5.7c-3.2,0-5.7,2.5-5.7,5.7
				C5.1,83.2,7.8,85.7,10.8,85.7z"/>
			<path class="st1" d="M77.2,78.4c0,2,0,4,0,6c0.1,2,0,4.1,0,6.1c0,2,0,4.1,0,6.1c0,0.5-0.1,1-0.2,1.4c-0.4,1.2-1.4,1.7-2.5,1.6
				c-1.4-0.1-2.1-1-2.3-2.1c-0.1-0.4-0.1-0.9-0.1-1.3c0-1.9,0-3.8,0-5.7c0-0.2,0-0.4,0-0.6c-0.1-0.4-0.3-0.5-0.6-0.4
				c-0.2,0-0.4,0.1-0.6,0.2c-0.8,0.3-1.6,0.5-2.4,0.7c-2.2,0.4-4.4,0.3-6.5-0.6c-2.4-1-4.2-2.8-5.3-5.2c-0.6-1.2-0.9-2.5-1-3.9
				c-0.1-0.8-0.1-1.7-0.1-2.6c0-1.9,0-3.8,0-5.6c0-0.5,0.1-1,0.3-1.5c0.4-0.9,1.1-1.4,2.1-1.4c0.3,0,0.6,0,0.9,0.1
				c1,0.3,1.5,0.9,1.7,1.8c0.1,0.4,0.1,0.9,0.1,1.3c0,2,0,4.1,0,6.1c0,0.8,0,1.5,0.2,2.2c0.4,1.6,1.2,2.9,2.6,3.7
				c2.5,1.5,6.3,0.8,7.9-2.5c0.4-0.9,0.6-1.8,0.6-2.8c0-2.2,0-4.3,0-6.5c0-0.4,0-0.9,0.1-1.3c0.1-0.4,0.1-0.7,0.3-1
				c0.4-0.7,0.9-1.1,1.7-1.2c0.9-0.1,1.8,0,2.4,0.8c0.4,0.4,0.5,1,0.6,1.5c0.1,0.4,0,0.8,0,1.2C77.2,74.9,77.2,76.6,77.2,78.4
				C77.2,78.4,77.2,78.4,77.2,78.4z"/>
			<path class="st1" d="M23.4,79.7c0.2-3.7,1.9-6.8,5.3-8.9c1.3-0.8,2.7-1.3,4.2-1.5c3.4-0.4,6.3,0.6,8.7,3c1.6,1.6,2.7,3.5,3.1,5.7
				c0.6,3.2-0.1,6.1-2.1,8.7c-1.6,2.1-3.8,3.5-6.5,4c-2.7,0.5-5.3,0-7.6-1.4c-2.6-1.6-4.3-4-4.9-7C23.5,81.4,23.4,80.7,23.4,79.7z
				 M34.2,74.4c-3.1,0-5.6,2.5-5.6,5.6c0,3.1,2.5,5.7,5.6,5.7c3.1,0,5.7-2.6,5.7-5.7C39.9,76.9,37.3,74.4,34.2,74.4z"/>
			<path class="st1" d="M79.7,76.3c0-1.4,0-2.9,0.1-4.3c0-1.3,0.8-2.2,2.1-2.4c1.8-0.3,2.9,0.9,3,2.3c0.1,0.8,0,1.5,0,2.3
				c0,1.9,0,3.7,0,5.6c0,1.2,0.3,2.2,0.9,3.2c0.9,1.5,2.3,2.4,4,2.6c1.7,0.2,3.1-0.2,4.4-1.3c1-0.8,1.5-1.9,1.8-3.1
				c0.1-0.4,0.2-0.9,0.2-1.3c0-1.2,0-2.4,0-3.7c0-0.9,0-1.9,0-2.8c0-0.4,0-0.9,0-1.3c0-0.4,0.1-0.7,0.2-1.1c0.4-0.8,1-1.3,1.9-1.4
				c0.4,0,0.7,0,1.1,0.1c0.8,0.2,1.3,0.7,1.6,1.5c0.1,0.4,0.2,0.7,0.2,1.1c0,1.7,0,3.4,0,5.1c0,0.9,0,1.8,0,2.6
				c0,2.6-0.8,4.9-2.5,6.9c-1.6,1.9-3.5,3.1-5.9,3.7c-1.2,0.3-2.3,0.3-3.5,0.1c-1.9-0.3-3.6-0.9-5.1-2c-2.3-1.7-3.8-4-4.3-6.8
				c-0.1-0.8-0.2-1.5-0.2-2.3C79.7,78.5,79.7,77.4,79.7,76.3z"/>
			<path class="st1" d="M47.2,75.9c0-3.9,0-7.8,0-11.6c0-0.5,0.1-1,0.2-1.4c0.4-1.2,1.3-1.7,2.5-1.7c0.2,0,0.5,0,0.7,0.1
				c0.8,0.2,1.3,0.8,1.5,1.5c0.1,0.4,0.2,0.9,0.2,1.3c0,3.9,0,7.8,0,11.7c0,1.8,0,3.6,0,5.4c0,2.2,0,4.3,0,6.5c0,0.5-0.1,1-0.2,1.5
				c-0.3,0.9-1.1,1.5-2.1,1.5c-0.3,0-0.6,0-1-0.1c-0.7-0.2-1.2-0.6-1.5-1.3c-0.2-0.5-0.3-1.1-0.3-1.6c0-1.1,0-2.2,0-3.3
				C47.2,81.6,47.2,78.8,47.2,75.9C47.2,75.9,47.2,75.9,47.2,75.9z"/>
		</g>
		<g>
			<path class="st1" d="M87.9,25.3c0,6.1,0,12.3,0,18.4c0,0.5,0,1.1,0,1.6c0,0.8-0.2,1.5-0.4,2.3c-0.5,1.4-1.5,2.3-2.9,2.8
				c-0.9,0.3-1.9,0.4-2.8,0.4c-5,0-9.9,0-14.9,0c-7.9,0-15.9,0-23.8,0c-0.8,0-1.6-0.1-2.4-0.3c-1.8-0.5-2.9-1.6-3.3-3.4
				c-0.2-0.7-0.3-1.4-0.3-2.2c0-4.9,0-9.8,0-14.7c0-5.9,0-11.8,0-17.8c0-2.2,0-4.4,0-6.5c0-0.8,0.1-1.6,0.3-2.3
				c0.5-1.7,1.6-2.8,3.4-3.3C41.4,0.1,42.2,0,42.9,0C55.9,0,69,0,82,0c0.8,0,1.5,0.1,2.3,0.3c1.9,0.5,3,1.7,3.4,3.6
				c0.2,0.8,0.2,1.6,0.2,2.4C87.9,12.6,87.9,19,87.9,25.3z M75.4,36.2c4,0,7.1-3.3,7.2-7.1c0.1-3.9-3.1-7.2-7.1-7.3
				c-4,0-7.3,3.2-7.3,7.1C68.1,32.7,71.2,36.2,75.4,36.2z M50.3,36.2c4.2,0,7.3-3.5,7.2-7.3c-0.1-3.9-3.3-7.1-7.3-7
				c-4.1,0-7.2,3.4-7.1,7.2C43.1,32.9,46.1,36.2,50.3,36.2z M82.2,18.4c0-0.3,0-0.6,0-0.9c-0.1-0.6-0.6-1.1-1.3-1.2
				c-0.9-0.1-1.8-0.1-2.7-0.2c-0.8,0-1.6-0.1-2.3-0.1c-1.5-0.1-3-0.2-4.6-0.3c-0.4,0-0.8,0-1.2-0.1c-0.8-0.1-1.5,0.6-1.5,1.4
				c0,0.5,0,1,0,1.5c0,0.7,0.6,1.3,1.3,1.4c1.2,0.1,2.5,0.1,3.7,0.2c1.3,0.1,2.6,0.1,3.9,0.2c0.5,0,0.9,0.1,1.4,0.1
				c0.7,0,1.3,0.1,2,0.1c0.7,0,1.3-0.5,1.4-1.2C82.2,19,82.1,18.7,82.2,18.4z M56.6,17.8c0-0.2,0-0.5,0-0.7c0-0.8-0.7-1.4-1.5-1.4
				c-0.7,0.1-1.5,0.1-2.2,0.1c-1.2,0.1-2.4,0.1-3.6,0.2c-1.6,0.1-3.3,0.2-4.9,0.3c-0.8,0-1.4,0.6-1.4,1.4c0,0.4,0,0.9,0,1.3
				c0,0.8,0.7,1.5,1.5,1.4c0.4,0,0.7,0,1.1,0c1.5-0.1,3-0.1,4.4-0.2c1.3-0.1,2.6-0.1,4-0.2c0.5,0,1,0,1.4-0.1
				c0.8-0.1,1.3-0.6,1.3-1.4C56.6,18.3,56.6,18.1,56.6,17.8z M63.1,40.5c0.6,0,1.1-0.1,1.7-0.3c1.1-0.3,2-0.9,3-1.4
				c0.1-0.1,0.2-0.2,0.3-0.3c0.2-0.2,0.3-0.5,0.2-0.8c-0.2-0.6-0.7-0.9-1.3-0.7c-0.1,0-0.2,0.1-0.3,0.2c-0.4,0.3-0.9,0.5-1.3,0.7
				c-1.1,0.4-2.2,0.6-3.4,0.3c-0.8-0.2-1.6-0.5-2.3-0.9c-0.2-0.1-0.4-0.2-0.6-0.3c-0.4-0.1-0.8,0-1.1,0.4c-0.2,0.4-0.2,0.7,0.1,1.1
				c0.1,0.1,0.2,0.2,0.4,0.3c0.9,0.6,1.8,1.1,2.8,1.4C61.8,40.4,62.4,40.5,63.1,40.5z"/>
			<path class="st2" d="M75.4,36.2c-4.2,0-7.3-3.5-7.3-7.3c0-3.9,3.4-7.1,7.3-7.1c4,0,7.2,3.4,7.1,7.3C82.5,33,79.4,36.2,75.4,36.2z
				 M75.6,23.5c-0.4,0-0.9,0.1-1.3,0.2c-3.6,0.9-5.2,5.1-3.1,8.2c1.2,1.8,3.4,2.7,5.5,2.2c2.8-0.6,4.6-3.4,4.1-6.2
				C80.4,25.4,78.2,23.5,75.6,23.5z"/>
			<path class="st2" d="M50.3,36.2c-4.2,0-7.2-3.4-7.2-7.1c0-3.8,3.1-7.2,7.1-7.2c4,0,7.2,3.2,7.3,7C57.5,32.7,54.5,36.2,50.3,36.2z
				 M55.4,28.9c0-2.9-2.4-5.3-5.3-5.3c-2.9,0-5.3,2.4-5.3,5.3c0,3,2.4,5.4,5.3,5.4C53,34.3,55.4,31.8,55.4,28.9z"/>
			<path class="st3" d="M82.2,18.4c0,0.3,0,0.6,0,0.8c-0.1,0.7-0.7,1.2-1.4,1.2c-0.7,0-1.3-0.1-2-0.1c-0.5,0-0.9-0.1-1.4-0.1
				c-1.3-0.1-2.6-0.1-3.9-0.2c-1.2-0.1-2.5-0.1-3.7-0.2c-0.7,0-1.3-0.6-1.3-1.4c0-0.5,0-1,0-1.5c0-0.8,0.7-1.4,1.5-1.4
				c0.4,0,0.8,0.1,1.2,0.1c1.5,0.1,3,0.2,4.6,0.3c0.8,0,1.6,0.1,2.3,0.1c0.9,0.1,1.8,0.1,2.7,0.2c0.6,0,1.2,0.5,1.3,1.2
				C82.2,17.8,82.1,18.1,82.2,18.4z"/>
			<path class="st3" d="M56.6,17.8c0,0.2,0,0.5,0,0.7c0,0.8-0.5,1.3-1.3,1.4c-0.5,0-1,0.1-1.4,0.1c-1.3,0.1-2.6,0.1-4,0.2
				c-1.5,0.1-3,0.1-4.4,0.2c-0.4,0-0.7,0-1.1,0c-0.8,0-1.5-0.6-1.5-1.4c0-0.4,0-0.9,0-1.3c0-0.8,0.6-1.4,1.4-1.4
				c1.6-0.1,3.3-0.2,4.9-0.3c1.2-0.1,2.4-0.1,3.6-0.2c0.7,0,1.5-0.1,2.2-0.1c0.8-0.1,1.5,0.6,1.5,1.4C56.6,17.3,56.6,17.6,56.6,17.8
				z"/>
			<path class="st3" d="M63.1,40.5c-0.6,0-1.3-0.1-1.9-0.3c-1-0.3-1.9-0.8-2.8-1.4c-0.1-0.1-0.3-0.2-0.4-0.3
				c-0.3-0.4-0.3-0.7-0.1-1.1c0.2-0.4,0.6-0.5,1.1-0.4c0.2,0.1,0.4,0.1,0.6,0.3c0.7,0.4,1.5,0.8,2.3,0.9c1.2,0.2,2.3,0.1,3.4-0.3
				c0.5-0.2,0.9-0.4,1.3-0.7c0.1-0.1,0.2-0.1,0.3-0.2c0.6-0.2,1.1,0,1.3,0.7c0.1,0.3,0,0.6-0.2,0.8c-0.1,0.1-0.2,0.2-0.3,0.3
				c-0.9,0.6-1.9,1.1-3,1.4C64.2,40.4,63.6,40.5,63.1,40.5z"/>
			<path class="st3" d="M75.6,23.5c2.6,0,4.8,1.9,5.2,4.4c0.5,2.8-1.3,5.6-4.1,6.2c-2.1,0.5-4.2-0.4-5.5-2.2
				c-2.1-3.1-0.5-7.3,3.1-8.2C74.7,23.6,75.1,23.5,75.6,23.5z"/>
			<path class="st3" d="M55.4,28.9c0,3-2.4,5.4-5.3,5.4c-2.9,0-5.3-2.4-5.3-5.4c0-2.9,2.4-5.3,5.3-5.3C53,23.5,55.4,25.9,55.4,28.9z
				"/>
		</g>
	</g>
</g>
</svg>
