<?xml version="1.0" encoding="utf-8"?>
<!-- Generator: Adobe Illustrator 24.3.0, SVG Export Plug-In . SVG Version: 6.00 Build 0)  -->
<svg version="1.1" id="Layer_1" xmlns="http://www.w3.org/2000/svg" xmlns:xlink="http://www.w3.org/1999/xlink" x="0px" y="0px"
	 viewBox="0 0 737.8 259.7" style="enable-background:new 0 0 737.8 259.7;" xml:space="preserve">
<style type="text/css">
	.st0{fill:#F4F6F9;}
	.st1{fill:#FFFFFF;}
	.st2{fill:#AFAFAF;}
	.st3{clip-path:url(#SVGID_2_);}
	.st4{clip-path:url(#SVGID_4_);}
	.st5{clip-path:url(#SVGID_6_);}
	.st6{clip-path:url(#SVGID_8_);}
	.st7{clip-path:url(#SVGID_10_);}
	.st8{clip-path:url(#SVGID_12_);}
	.st9{clip-path:url(#SVGID_14_);}
	.st10{clip-path:url(#SVGID_16_);}
	.st11{fill-rule:evenodd;clip-rule:evenodd;fill:#AFAFAF;}
</style>
<g>
	<g>
		<path class="st2" d="M315.6,47.3c0-8.2-5-11.6-13.4-11.6h-6.7v23.9h6.7C310.5,59.6,315.6,56.7,315.6,47.3L315.6,47.3z M376.3,26.6
			l-1.3,9.2H351v18.1h20.9v9.2H351v19.1h25.6v9.3h-38V26.6H376.3z M461.8,83.5c8.5,0,13.7-5.5,14.4-20.2h-28.5
			C447.9,77.9,453.4,83.5,461.8,83.5z M461.8,25.2c16.8,0,27.1,10.9,27.1,33.1c0,23.4-11,34.7-26.9,34.7
			c-17.7,0-26.5-12.3-26.5-33.1c0-1.7,0.2-3.8,0.4-5.5h40.2c-0.5-13.9-6-19.6-15.3-19.6c-6.6,0-11.6,2.5-15.8,5.7l-5.8-7
			C445.5,28,452.6,25.2,461.8,25.2L461.8,25.2z M518.2,176h-12.4v-64.9h12.4V176z M519.5,96.6c0,4-3.1,7.2-7.6,7.2
			c-4.4,0-7.5-3.2-7.5-7.2c0-4.1,3.1-7.3,7.5-7.3C516.4,89.3,519.5,92.5,519.5,96.6L519.5,96.6z M593.3,176H581v-64.9h12.4V176z
			 M594.7,96.6c0,4-3.1,7.2-7.6,7.2c-4.4,0-7.5-3.2-7.5-7.2c0-4.1,3.1-7.3,7.5-7.3C591.6,89.3,594.7,92.5,594.7,96.6L594.7,96.6z
			 M324.8,111.1l-1.3,9.9h-16.9v55h-12.5v-55h-17.5v-9.9L324.8,111.1z M365.7,147.8h-28.5c0.2,14.6,5.7,20.2,14.1,20.2
			C359.8,168,365,162.5,365.7,147.8L365.7,147.8z M351.3,109.7c16.8,0,27.1,10.9,27.1,33.1c0,23.4-11,34.7-26.9,34.7
			c-17.8,0-26.5-12.3-26.5-33.1c0-1.7,0.2-3.8,0.4-5.5h40.2c-0.5-13.9-6-19.6-15.3-19.6c-6.6,0-11.6,2.5-15.8,5.7l-5.8-7
			C335.1,112.5,342.1,109.7,351.3,109.7L351.3,109.7z M425.6,147h-23.1v29h-12.4v-64.9h12.4v26h23.1v-26h12.5V176h-12.5L425.6,147z
			 M471.9,109.7c9.5,0,15.8,2.8,21.4,8l-6.1,7c-4.7-3.8-9.2-5.5-14.6-5.5c-5.8,0-10,2.6-10,7.7c0,4.7,2.5,6.8,13.3,10.1
			c11.4,3.6,19.3,8.3,19.3,20.5c0,11.6-9.1,19.9-24.6,19.9c-10.3,0-18-3.7-23.4-8.9l6.4-7.1c4.8,4,10,6.5,16.7,6.5
			c6.9,0,11.9-3.4,11.9-9.7c0-5.5-2.7-7.9-12.9-11c-13.6-4.2-19.5-9.7-19.5-19.5C449.8,116.8,459.1,109.7,471.9,109.7z M545.8,165.9
			h26l-1.4,10.1h-37v-64.9h12.4V165.9z M411.3,92.4l1.3,4.7l-6.2,1.7l-1.6-5.8c-10.3,0-18-3.7-23.3-8.9l6.4-7.1
			c4.8,4,10,6.5,16.7,6.5c6.9,0,11.9-3.4,11.9-9.7c0-5.4-2.7-7.9-12.9-11c-13.6-4.2-19.5-9.7-19.5-19.5c0-10.8,9.3-17.9,22.1-17.9
			c9.5,0,15.8,2.8,21.4,8l-6.1,7c-4.7-3.9-9.2-5.5-14.6-5.5c-5.8,0-10.1,2.6-10.1,7.7c0,4.7,2.5,6.8,13.3,10.1
			c11.4,3.6,19.3,8.3,19.3,20.5C429.5,82.9,422.8,90.4,411.3,92.4L411.3,92.4z M328.6,47.3c0,14.9-10.8,21.6-25.5,21.6h-7.6v22.6
			h-12.4V26.6h19.2C318.6,26.6,328.6,33.3,328.6,47.3z"/>
	</g>
	<g>
		<path class="st2" d="M737,231.4h-4.2v-23.1h4.2V231.4z M737.8,199.9c0,1.5-1.2,2.5-3,2.5c-1.7,0-2.9-1.1-2.9-2.5
			c0-1.5,1.2-2.5,2.9-2.5C736.6,197.3,737.8,198.4,737.8,199.9z M727.4,208.2l-8.8,23.3c-1.8,4.9-4.8,8.4-11.8,9.1l-0.5-2.9
			c5.3-0.9,6.8-2.7,8.3-6.4h-1.4l-8.9-23.1h4.5l7.2,20.4l7.1-20.4H727.4z M698.9,231.4h-4.2v-23.1h4.2V231.4z M699.8,199.9
			c0,1.5-1.2,2.5-3,2.5c-1.7,0-2.9-1.1-2.9-2.5c0-1.5,1.2-2.5,2.9-2.5C698.6,197.3,699.8,198.4,699.8,199.9z M685.2,231.9
			c-3.2,0-5.2-1.7-5.2-4.9v-28l4.2-0.4v28.4c0,1.3,0.5,1.9,1.7,1.9c0.6,0,1.2-0.1,1.7-0.3l1.1,2.6
			C687.8,231.6,686.5,231.9,685.2,231.9z M674.3,227.8l1.6,2.5c-1.7,1-3.7,1.6-5.8,1.5c-4.3,0-6.9-2.2-6.9-6.5v-14.3h-4.5v-2.9h4.5
			v-5.3l4.2-0.4v5.7h6.3l-0.5,2.9h-5.9v14.2c0,2.4,0.9,3.6,3.3,3.6C671.9,228.8,673,228.5,674.3,227.8L674.3,227.8z M653.6,214.8
			v16.6h-4.2v-16c0-3.6-1.6-4.7-4.3-4.7c-3.1,0-5.2,1.7-7,4.3v16.5h-4.2v-23.1h3.6l0.3,3.5c1.9-2.4,4.7-4,8.2-4
			C650.8,207.7,653.6,210.4,653.6,214.8L653.6,214.8z M622.2,218c0-4.7-2.1-7.3-6.4-7.3c-3.6,0-6.1,2.3-6.4,7.7h12.8V218z
			 M626.3,219c0,0.8,0,1.5-0.1,2h-16.9c0.5,5.6,3.3,7.8,7.3,7.8c2.6,0,4.6-0.7,6.9-2.1l1.8,2.2c-2.6,1.9-5.8,2.9-9,2.9
			c-7.2,0-11.4-4.5-11.4-11.9c0-7.3,4.1-12.3,10.8-12.3C622.7,207.7,626.3,212.1,626.3,219L626.3,219z M589.6,210.4
			c-3.7,0-5.7,2.2-5.7,5.3c0,3.3,2.1,5.4,5.8,5.4c3.7,0,5.7-2,5.7-5.4C595.4,212.3,593.4,210.4,589.6,210.4z M601.4,205.8l1.2,3.4
			c-2.1,0.6-4.5,0.7-7.6,0.7c3,1.2,4.6,3.1,4.6,5.9c0,4.5-3.7,7.8-9.9,7.8c-1.1,0-2.2-0.1-3.3-0.4c-0.9,0.5-1.5,1.4-1.5,2.3
			c0,1.1,0.8,2,3.6,2h4.2c5.3,0,8.8,2.7,8.8,6.3c0,4.4-4,6.9-12,6.9c-8.4,0-11.1-2.2-11.1-6.9h3.8c0,2.8,1.5,4,7.4,4
			c5.8,0,7.8-1.4,7.8-3.8c0-2.3-2-3.4-5.4-3.4h-4.1c-4.6,0-6.7-2-6.7-4.3c0-1.5,1-3,2.8-4c-3-1.4-4.4-3.4-4.4-6.5c0-4.7,4.2-8,10-8
			C596.2,207.8,598.5,207,601.4,205.8L601.4,205.8z M568.4,220.5l-5.6-16.2l-5.6,16.2L568.4,220.5z M572.1,231.4l-2.6-7.7h-13.3
			l-2.7,7.7H549l11.1-30.2h5.5l11.1,30.2H572.1z M533.8,227.8l1.6,2.5c-1.7,1-3.7,1.6-5.8,1.5c-4.3,0-6.9-2.2-6.9-6.5v-14.3h-4.5
			v-2.9h4.5v-5.3l4.2-0.4v5.7h6.3l-0.4,2.9h-5.9v14.2c0,2.4,0.9,3.6,3.3,3.6C531.4,228.8,532.5,228.5,533.8,227.8L533.8,227.8z
			 M510.3,221.2h-13.3v0.4c0,4.7,2.5,7.3,6.7,7.3C507.6,228.9,510.1,226.8,510.3,221.2z M514.7,219.8c0,7.6-4.4,12.1-11.1,12.1
			c-6.6,0-10.8-4.3-10.8-11.4c0-0.7,0-1.4,0.1-2h17.3c-0.3-5.4-2.7-7.7-6.8-7.7c-2.5,0-4.6,0.6-6.8,2.2l-1.9-2.5
			c2.6-1.8,5.7-2.8,8.9-2.7C511.1,207.7,514.7,212.3,514.7,219.8z M480.6,227v-28l4.2-0.4v28.4c0,1.3,0.5,1.9,1.7,1.9
			c0.6,0,1.2-0.1,1.7-0.3l1.1,2.6c-0.9,0.4-2.2,0.7-3.5,0.7C482.6,231.9,480.6,230.2,480.6,227L480.6,227z M475.4,208.2l-9,23.1
			h-5.1l-9.1-23.1h4.6l7.1,19.8l7-19.8H475.4z M430.3,219.8c0,6.1,2.5,9.1,7,9.1c4.5,0,7.1-2.9,7.1-9.1c0-6.1-2.5-9.1-7-9.1
			C432.9,210.7,430.3,213.6,430.3,219.8z M437.4,207.7c7.4,0,11.5,4.7,11.5,12c0,7.3-4.2,12.1-11.5,12.1c-7.3,0-11.5-4.7-11.5-12
			C425.9,212.6,430.1,207.7,437.4,207.7L437.4,207.7z M445.2,200.2c0,1.3-1.2,2.3-2.7,2.3c-1.5,0-2.6-1-2.6-2.3
			c0-1.3,1.1-2.3,2.6-2.3C444,197.9,445.2,198.9,445.2,200.2z M435,200.2c0,1.3-1.1,2.3-2.6,2.3c-1.5,0-2.7-1-2.7-2.3
			c0-1.3,1.2-2.3,2.7-2.3C433.8,197.9,435,198.9,435,200.2z M400.4,204.2v24.1h4c5.5,0,11-2.1,11-12.3c0-10.4-5.8-11.9-11.4-11.9
			H400.4z M420.1,216.1c0,12.4-8.7,15.3-16,15.3h-8v-30.2h7.1C411.8,201.1,420.1,203.5,420.1,216.1z M363.7,228.9
			c4,0,6.5-2.1,6.7-7.7H357v0.4C357,226.3,359.6,228.9,363.7,228.9L363.7,228.9z M374.8,219.8c0,7.6-4.4,12.1-11.1,12.1
			c-6.6,0-10.8-4.3-10.8-11.4c0-0.7,0-1.4,0.1-2h17.3c-0.3-5.4-2.7-7.7-6.8-7.7c-2.5,0-4.6,0.6-6.8,2.2l-1.9-2.5
			c2.6-1.8,5.7-2.8,8.9-2.7C371.2,207.7,374.8,212.3,374.8,219.8z M348.6,207.7c0.9,0,1.8,0.1,2.6,0.3l-0.7,3.6
			c-0.7-0.2-1.5-0.3-2.3-0.3c-3.3,0-5.2,2.1-6.4,6.5v13.5h-4.2v-23.1h3.6l0.4,4.8C342.9,209.5,345.4,207.7,348.6,207.7L348.6,207.7z
			 M331,211l-13.9,17.2h14l-0.5,3.1h-18.2v-2.8l13.8-17.2h-12.7v-3.1H331L331,211z M306.3,208.2v23.1h-3.6l-0.4-3.7
			c-1.9,2.8-4.4,4.3-8.2,4.3c-4.6,0-7.3-2.6-7.3-7.1v-16.6h4.2v16.2c0,3.3,1.3,4.5,4.3,4.5s5.2-1.7,6.8-4.1v-16.6L306.3,208.2z
			 M304.3,200.2c0,1.3-1.1,2.3-2.7,2.3c-1.5,0-2.6-1-2.6-2.3c0-1.3,1.1-2.3,2.6-2.3C303.2,197.9,304.3,198.9,304.3,200.2z
			 M294.1,200.2c0,1.3-1.1,2.3-2.6,2.3c-1.5,0-2.7-1-2.7-2.3c0-1.3,1.1-2.3,2.7-2.3C293,197.9,294.1,198.9,294.1,200.2z"/>
	</g>
	<g>
		<path class="st2" d="M95.6,166.6c14.2-16.2,34.6-30.6,50.1-45.7c-15.4,10.7-37.7,24.1-52.9,40.5c1.1-4.6,1.3-9.3,0.6-14
			c8.8-9.6,19.2-19,29.7-28.2c34.6-30.5,73.1-56.5,39.7-91.2c-7.3-7.6-17.6-14.6-31.7-21.6l-0.2,0.2l-1.5-5.6l0.9-0.9
			c89.3,45.2,72.2,85.8,17.7,135c-11.1,10-23.3,19.2-33.9,28C107.7,162.5,101.3,163.7,95.6,166.6z M130.8,6.6L49.1,87.7L130.8,6.6z
			 M77,206l2.7,6.9l-0.7-6.8c-0.5-11.1,3.3-21,9.6-30.3c2.3,1.7,4.7,3.2,7.3,4.3c-10.8,12.3-15.4,24.7-6.7,39
			c6.5,10.7,17,21.3,42.5,34.4c0.2,2,0.3,4.4,0.5,6.2l-5.4-2.9c-60.9-32.9-65.3-62.2-47.9-90.4c1.4,2.3,3.1,4.5,5.1,6.5
			C77.4,182.9,74.3,194,77,206z"/>
	</g>
	<g>
		<path class="st2" d="M91.4,173.5c7.2-7.7,19.3-8.2,27.1-1.1C111.2,180.2,99.1,180.6,91.4,173.5z"/>
	</g>
	<g>
		<path class="st2" d="M87.5,168.4c-9.3-5-12.9-16.5-8-25.9C88.8,147.4,92.4,159,87.5,168.4z"/>
	</g>
	<g>
		<path class="st2" d="M218.9,79.7l-3.3,3.3l-3.3,3.3c-0.6,0.6-1.5,0.8-2.3,0.6c-0.8-0.2-1.5-0.8-1.7-1.7l-1.2-4.5l-1.2-4.5
			c-0.2-0.8,0-1.7,0.6-2.3c0.6-0.6,1.5-0.8,2.3-0.6l4.5,1.2l4.5,1.2c0.8,0.2,1.4,0.8,1.7,1.7C219.8,78.2,219.5,79.1,218.9,79.7z"/>
	</g>
	<g>
		<path class="st2" d="M30,160.2l3.3-3.3l3.3-3.3c0.6-0.6,1.5-0.8,2.3-0.6c0.8,0.2,1.4,0.8,1.7,1.7l1.2,4.5l1.2,4.5
			c0.2,0.8,0,1.7-0.6,2.3c-0.6,0.6-1.5,0.8-2.3,0.6l-4.5-1.2l-4.5-1.2c-0.8-0.2-1.5-0.8-1.7-1.7C29.2,161.7,29.4,160.8,30,160.2z"/>
	</g>
	<g>
		<path class="st2" d="M20.2,148.4L20.2,148.4c3.4,28.6,5.8,61.1,11,88.7l3.1-2c6.3-3.7,13.2-6.3,20.4-7.8c2.5-0.5,5.1-0.9,7.7-1.2
			c2.2-0.2,4.6-0.4,7-0.4c3.6-0.1,7.3,0.1,10.9,0.4c1,0.1,2.7,0.3,3.9,0.4c-1.7-1.8-3.2-3.7-4.7-5.7l-1.5-0.1l-1.8-0.1
			c-2.4-0.1-4.9-0.1-7.3-0.1c-2.4,0.1-4.7,0.2-7,0.5c-2.4,0.3-4.8,0.6-7.1,1.1c-2.3,0.5-4.6,1-6.8,1.6c-4.3,1.3-8.5,2.9-12.5,5
			l-0.4,0.2l-9-75.3L20.2,148.4l5.8,5.2l10.7,9.6l1.6-2.1l1.2-1.6l-20.2-17.7L6.3,130.2l42.8-42.5l81.7-81.2l-1.5-5.6
			c-11.4,11.3-22.7,22.7-34.1,34l-1.6,1.6c-0.7-0.4-1.5-0.8-2.2-1.3c-1.8-0.9-3.6-1.8-5.5-2.6c-1.8-0.8-3.7-1.5-5.6-2.2
			c-1.9-0.7-3.8-1.3-5.8-1.8c-1.9-0.5-3.9-1-5.8-1.5c-2.2-0.5-4.4-0.9-6.5-1.3c-2.1-0.4-4.3-0.7-6.4-1c-2.1-0.3-4.2-0.5-6.4-0.7
			c-2.1-0.2-4.1-0.4-6.2-0.5l-2-0.1h-1l2.5,26l-21.2,3.3l2.6,19.3l-11.8,7.7c1.8,10.8,3.6,21.6,5.4,32.4l-0.2,0.2l-3.8,3.8L0,130.2
			l15.2,13.7L20.2,148.4L20.2,148.4L20.2,148.4z M60.4,208.7c-4,0.1-8.1,0.5-12.1,1.2L48,210l-5.6-40.1c-0.6,0.4-1.3,0.5-1.9,0.3
			l-2.9-0.8c2.2,17.3,3.7,28.7,6,46.7l2.8-0.6c4.6-1,9.2-1.6,13.9-1.7c5-0.1,9.9,0.2,14.8,1l0.3,0.1c-1-1.8-1.9-3.6-2.7-5.5
			C68.7,208.8,64.5,208.6,60.4,208.7z M29,101.2l-3.4,3.4l-3.5,3.5l-4.4-25.5l7.2-4.7L29,101.2z M47,83.2l-2.6,2.7L33.5,96.6
			l-6.3-39.3l16-2.5L47,83.2z M51.6,78.5l-5.8-49.3l0.4,0c1.8,0.1,3.5,0.3,5.3,0.5c1.8,0.2,3.6,0.4,5.4,0.7c1.8,0.2,3.6,0.5,5.4,0.8
			c1.8,0.3,3.6,0.7,5.4,1.1c2,0.4,4,0.9,5.9,1.5c2,0.6,3.9,1.2,5.8,1.9c1.8,0.7,3.6,1.4,5.4,2.2c1.7,0.8,3.4,1.6,5.1,2.5
			C77.1,53,64.4,65.8,51.6,78.5L51.6,78.5z M219.3,173.8L214,210l-0.3-0.1c-3.3-0.6-6.7-0.9-10-1c-3.8-0.1-7.6-0.1-11.4,0.2
			c-3.9,0.3-6.7,0.6-9.4,1l-0.8,0.1C194.5,198.1,206.9,185.9,219.3,173.8z M169.8,222.5l0.1-0.1l4.9-4.8c2.9-0.9,5.4-1.5,8-2.1
			c3.1-0.6,6.3-1.1,10.4-1.4c4-0.3,8.1-0.3,11.9-0.1c3.7,0.2,7.3,0.7,10.6,1.5l2.8,0.6c2.3-16.1,4.6-32.1,6.9-48.2l4.5-4.4l7.1-7
			l-9.9,72.4l-0.4-0.2c-4-2-8.2-3.7-12.5-5c-2.2-0.6-4.5-1.2-6.8-1.6c-2.4-0.5-4.8-0.8-7.1-1.1c-2.4-0.3-4.9-0.4-7.4-0.5
			c-2.6-0.1-5.2,0-7.8,0.1c-2.6,0.1-5.3,0.4-8,0.7C174.6,221.7,172.2,222,169.8,222.5L169.8,222.5z M131.5,253.5
			c0.2,2,0.3,4.4,0.5,6.2c8.1-8,18.5-18.3,26.6-26.3l4.7-4.7l4.4-0.8c2.8-0.5,5.6-1,8.4-1.3c2.7-0.3,5.4-0.6,8.1-0.8
			c2.7-0.2,5.4-0.3,8.1-0.2c2.6,0,5,0.2,7.4,0.4c2.6,0.3,5.2,0.7,7.7,1.2c2.5,0.5,4.9,1.2,7.2,1.9c2.3,0.8,4.6,1.6,6.8,2.6
			c2.2,1,4.3,2.1,6.4,3.3l3.1,2c5.2-27.7,8.2-58.2,12-86.5l0.2-0.2l5.1-5l15.8-15.5l-16.8-17.3l-3.6-3.7l0,0
			c1.8-10.2,3.7-20.4,5.6-30.5l-11.9-7.5l2.2-19.3L218,48.6l2-25.3c-8.3,0-13.9,0.4-22.5,2.1c-6.7,1.3-13.1,3.2-20.7,6.1l-0.2,0.1
			c1.3,1.3,2.6,2.7,3.7,4c2.1-0.8,4.3-1.6,6.5-2.3c2.1-0.7,4.1-1.3,5.9-1.7c1.8-0.4,3.6-0.8,5.4-1.2c1.8-0.4,3.6-0.7,5.4-0.9
			c3.5-0.5,7.1-1,10.6-1.3l0.4,0l-4.3,42.7l3.5,0.9l1.7,0.5l2.3-18.6l16.1,2.2c-2,12.3-4,24.5-6.1,36.7l3.4,3.5l-3.4-3.5l-11.5-11.8
			l-1.2,1.2L213,84l44.2,45.8C214.8,171.5,173.7,211.7,131.5,253.5z M235.3,100.5l-3.1-3.2c1.4-7,2.8-13.9,4.2-20.9l7.2,4.6
			l-4.5,23.5L235.3,100.5z"/>
	</g>
	<g>
		<path class="st2" d="M193.9,40.6c6.7,0,12.2,5.5,12.2,12.2c0,6.7-5.5,12.2-12.2,12.2l0,0c-6.7,0-12.2-5.5-12.2-12.2
			S187.2,40.6,193.9,40.6L193.9,40.6z"/>
	</g>
</g>
</svg>
