<svg xmlns="http://www.w3.org/2000/svg" width="243.71" height="174.34" viewBox="0 0 243.71 174.34">
  <g id="Group_863" data-name="Group 863" transform="translate(9091 513)">
    <g id="Group_602" data-name="Group 602" transform="translate(-9118.589 -535.578)">
      <g id="Layer_2" data-name="Layer 2" transform="translate(50.589 22.578)">
        <path id="Path_669" data-name="Path 669" d="M213.74,72.579l-.625-1.394h-4.469l-.891,2c-.3.7.31,1.055.719,1.206v.181H205.3v-.194c.361-.124.888-.371,1.394-1.451l3.574-7.829c-.048-.3-.651-.508-.813-.522v-.194h2.3l3.928,8.638a2.39,2.39,0,0,0,1.378,1.357v.194h-3.82v-.194c.349-.138,1.021-.508.757-1.193C213.924,72.993,213.83,72.8,213.74,72.579Zm-4.668-2.316h3.635l-1.791-4.078Zm9.293-4.56h.1c.078.2.31.2.465.2h6.231v.813l-5.559,7.1h4.353c.525,0,1-.431,1.292-1.2h.116l-.331,1.946H217.8v-.724l5.555-7.11H219.17c-.366,0-.711.547-.861,1.072h-.115Zm17.857,1.434c0-.7-.224-.9-.659-1.072V65.9h4.647c1.869,0,2.788,1.037,2.788,2.356s-.948,2.356-2.812,2.356l2.445,2.9a3.083,3.083,0,0,0,1.123.908v.151h-2.028l-3.755-4.513v-.2h2.046a1.464,1.464,0,0,0,1.43-1.61,1.442,1.442,0,0,0-1.43-1.585h-2.005c-.254,0-.431,0-.431.431v6.287c0,.663.22.883.659,1.037v.151h-2.672v-.164c.431-.155.659-.374.659-1.037Zm8.892,7.435v-.164c.431-.155.659-.374.659-1.037V67.143c0-.7-.232-.9-.659-1.072v-.164h4.943c1.18,0,2.687.361,2.687,2.153a2.256,2.256,0,0,1-.788,1.774,2.351,2.351,0,0,1,1.413,2.239,2.7,2.7,0,0,1-3.015,2.532Zm2.024-7.906v2.881h2.778a1.445,1.445,0,1,0-.051-2.881Zm0,6.89a.22.22,0,0,0,.177.224h2.959a1.571,1.571,0,0,0,1.51-1.743c0-.888-.452-1.723-1.357-1.723h-3.295Zm13.965-.7-.534-1.193h-3.806l-.779,1.723c-.254.595.263.9.62,1.029v.151h-2.713V74.4c.315-.1.757-.315,1.193-1.236l3.053-6.658c-.038-.258-.555-.431-.7-.431v-.164h1.985l3.328,7.359a2.016,2.016,0,0,0,1.176,1.154v.138h-3.247V74.4c.288-.116.861-.431.633-1.016-.069-.159-.138-.323-.215-.508Zm-3.979-1.975h3.1L258.7,67.408Zm10.959-.245v2.924a.861.861,0,0,0,.663.831v.172h-2.7V74.4a.822.822,0,0,0,.676-.813V71l-2.941-4.1a1.779,1.779,0,0,0-.986-.861V65.88h2.846v.164c-.254.086-.611.242-.3.676l2.218,3.137,2.429-3.121c.315-.431,0-.62-.331-.689v-.164H272v.164a1.059,1.059,0,0,0-.711.431ZM276.9,74a3.04,3.04,0,0,0,2.967-1.975h.116l-.168,1.774a5.972,5.972,0,0,1-3.131.969,4.557,4.557,0,1,1,0-9.1,6.963,6.963,0,0,1,2.915.663,1.162,1.162,0,0,0,.125-.065h.1l-.164,1.942h-.116a2.618,2.618,0,0,0-2.661-1.743,3.791,3.791,0,0,0,.008,7.557Zm10.864-1.141-.534-1.193h-3.8l-.784,1.723c-.254.595.263.9.62,1.029v.151h-2.713V74.4c.315-.1.762-.315,1.193-1.236l3.061-6.67c-.043-.258-.555-.431-.7-.431V65.9h1.96l3.341,7.372a2.037,2.037,0,0,0,1.176,1.154v.138h-3.253V74.4c.3-.116.861-.431.641-1.016-.065-.159-.129-.323-.211-.508Zm-3.974-1.975h3.1l-1.529-3.475Zm16.079,3.681H298.9l-6.028-6.97v5.882a.887.887,0,0,0,.659.943v.151h-2.222V74.4a.861.861,0,0,0,.667-.943V66.977a.921.921,0,0,0-.668-.908v-.164h2.033l5.6,6.459V67.02a.9.9,0,0,0-.663-.951v-.164h2.213v.164a.883.883,0,0,0-.651.951Zm6.459-8.737c0-.822-.267-1.068-.779-1.257v-.194h5.463c2.2,0,3.268,1.223,3.268,2.768s-1.115,2.76-3.3,2.76l2.854,3.393a3.6,3.6,0,0,0,1.327,1.072v.194h-2.385l-4.4-5.278v-.232h2.4a1.719,1.719,0,0,0,1.683-1.887,1.7,1.7,0,0,0-1.683-1.865h-2.359c-.285,0-.482,0-.482.477v7.4c0,.775.25,1.037.771,1.214v.181h-3.157v-.194c.512-.177.779-.431.779-1.214Zm12.341.831v3.078h2.692c.328,0,.457-.374.551-.9h.116l-.164,2.519h-.1c-.048-.383-.134-.861-.4-.861H318.68v3.045c0,.164.081.258.185.258h3.385c.641,0,1.034-.7,1.171-1.2h.124l-.388,1.968h-6.533V74.4c.431-.155.646-.374.646-1.037V67.133c0-.7-.22-.9-.646-1.072V65.9H323a.28.28,0,0,0,.242-.1h.086l-.172,1.96h-.1c-.022-.349-.116-1.085-.491-1.085Zm6.128,5.361h.116a2.992,2.992,0,0,0,3.152,2c1.12,0,2.476-.508,2.476-1.683,0-1-1.055-1.292-2.23-1.619-1.564-.4-3.295-.861-3.295-2.584,0-1.666,1.787-2.44,3.532-2.44a4.306,4.306,0,0,1,2.323.573,2.976,2.976,0,0,0,.31-.1h.116v1.912h-.116c-.155-1.408-1.877-1.619-2.661-1.619-1.123,0-2.153.431-2.153,1.408,0,.711,1.421,1.059,2.067,1.236,1.572.431,3.444,1,3.444,3.045s-2.049,2.717-4.009,2.672a4.968,4.968,0,0,1-3.088-1.016Zm9.232-4.9c0-.7-.22-.9-.654-1.072v-.156h4.655c1.873,0,2.788,1.037,2.788,2.356s-.929,2.356-2.788,2.356h-2.639v2.765c0,.663.224.883.663,1.037v.164h-2.679v-.164c.431-.155.654-.374.654-1.037Zm1.779-.487c-.242,0-.431,0-.431.431v2.8h2.42a1.459,1.459,0,0,0,1.434-1.61,1.443,1.443,0,0,0-1.434-1.607Zm13.947,3.717c0,2.975-1.791,4.431-3.613,4.431s-3.707-1.51-3.707-4.486V67.141c0-.684-.232-.9-.663-1.072v-.164h2.743v.164a.9.9,0,0,0-.641.969v3.126c0,2.541,1.249,3.82,2.536,3.82s2.44-1.2,2.44-3.591V67.14c0-.684-.22-.9-.641-1.072V65.9h2.213v.164c-.431.168-.668.374-.668,1.072Zm1.981,4.211V74.4c.431-.155.663-.374.663-1.037V67.134c0-.7-.232-.9-.663-1.072V65.9h4.948c1.171,0,2.687.361,2.687,2.153a2.226,2.226,0,0,1-.792,1.774,2.342,2.342,0,0,1,1.43,2.239,2.7,2.7,0,0,1-3.015,2.532Zm2.028-7.906v2.881h2.778a1.445,1.445,0,1,0-.048-2.881Zm0,6.89a.223.223,0,0,0,.177.224H356.9a1.569,1.569,0,0,0,1.51-1.743c0-.888-.431-1.723-1.36-1.723h-3.272Zm14.063,1.016H361.48V74.4a.861.861,0,0,0,.651-.943V67.141c0-.7-.207-.9-.651-1.072v-.164h2.672v.164c-.431.168-.654.4-.654,1.072v6.287c0,.31.116.4.288.4H366.8c.53,0,1.016-.465,1.292-1.2h.116Zm4.12-8.677v.164c-.431.168-.654.4-.654,1.072v6.389a.8.8,0,0,0,.654.9v.151h-2.679V74.4a.813.813,0,0,0,.654-.9V67.141c0-.7-.215-.9-.654-1.072v-.164Zm-1.494-2.226a.792.792,0,1,1-.659.767.689.689,0,0,1,.659-.754Zm5.846,2.233v.164a.961.961,0,0,0-.668,1.072v3.485l3.444-3.824a.108.108,0,0,0,.03-.06c.28-.315.116-.628-.3-.676v-.16h2.338v.164a4.048,4.048,0,0,0-1.292,1.025l-2.359,2.584,3.015,3.785a2.556,2.556,0,0,0,1.128.939v.181h-2.076l-3.015-3.834-.9,1.029v1.7a.861.861,0,0,0,.668.943v.164h-2.684V74.41a.861.861,0,0,0,.663-.943V67.141c0-.7-.22-.9-.663-1.072v-.164Zm12.44,6.97-.53-1.193H384.4l-.779,1.723c-.254.595.263.9.62,1.029v.142h-2.709V74.4c.31-.1.754-.315,1.188-1.236l3.07-6.67c-.048-.258-.565-.431-.7-.431V65.9h1.963L390.4,73.27a2.071,2.071,0,0,0,1.176,1.154v.138h-3.247V74.4c.3-.116.861-.431.641-1.016-.065-.159-.142-.323-.224-.508Zm-3.979-1.975h3.105l-1.524-3.462Zm7.286,1.141h.116a2.973,2.973,0,0,0,3.148,2c1.115,0,2.476-.508,2.476-1.683,0-1-1.046-1.292-2.226-1.619-1.567-.4-3.295-.861-3.295-2.584,0-1.667,1.779-2.44,3.527-2.44a4.345,4.345,0,0,1,2.329.573,1.162,1.162,0,0,0,.31-.1h.116v1.912h-.116c-.159-1.408-1.882-1.619-2.665-1.619-1.115,0-2.153.431-2.153,1.408,0,.711,1.421,1.059,2.071,1.236,1.572.431,3.444,1,3.444,3.045s-2.054,2.717-4.009,2.672a5,5,0,0,1-3.091-1.016ZM403.3,65.9v.164a.956.956,0,0,0-.654,1.072v6.378a.805.805,0,0,0,.654.9v.151h-2.674V74.4a.813.813,0,0,0,.654-.9V67.141c0-.7-.211-.9-.654-1.072v-.164Zm-173.372-.2a6.86,6.86,0,0,0-2.855.7.43.43,0,0,0-.151-.081h-.116l.051,1.946h.116a2.606,2.606,0,0,1,2.76-1.774,3.492,3.492,0,0,1,3.485,3.755v.177H226.16a4.266,4.266,0,0,0,0,.457v.258h.026a3.906,3.906,0,0,0,2.556,3.444h0a5.672,5.672,0,0,0,1.292.172,4.447,4.447,0,0,0,4.736-4.513,4.493,4.493,0,0,0-4.842-4.536Zm.129,8.289a3.834,3.834,0,0,1-1.077-.159,2.76,2.76,0,0,1-1.626-2.7h5.8a3.085,3.085,0,0,1-3.094,2.86Zm17.287,16.712v.189h-3.137v-.189a.994.994,0,0,0,.775-1.1V81.674h-2.42c-.9,0-1.236.659-1.456,1.292h-.143l.211-2.273h9.211l.211,2.273h-.146c-.224-.641-.555-1.292-1.456-1.292h-2.42v7.919a1,1,0,0,0,.768,1.1Zm22.391-8.48v.164c-.431.172-.659.383-.659,1.072v6.33a.861.861,0,0,0,.659.943v.159h-2.682v-.159a.861.861,0,0,0,.668-.943V86.867h-5.159v2.915a.861.861,0,0,0,.663.943v.159h-2.687v-.159a.861.861,0,0,0,.667-.943V83.457c0-.7-.224-.9-.667-1.072v-.164h2.687v.164c-.431.159-.663.391-.663,1.072V86.1H267.7V83.457c0-.689-.232-.9-.668-1.072v-.164Zm1.413,6.131h.116a2.967,2.967,0,0,0,3.148,1.993c1.115,0,2.467-.5,2.467-1.68,0-1-1.046-1.317-2.222-1.626-1.567-.4-3.295-.835-3.295-2.584,0-1.671,1.787-2.44,3.522-2.44a4.306,4.306,0,0,1,2.334.573c.065-.026.129-.038.3-.1h.125v1.907h-.138c-.151-1.408-1.877-1.619-2.657-1.619-1.123,0-2.153.431-2.153,1.408,0,.714,1.421,1.059,2.071,1.241,1.572.409,3.444,1,3.444,3.04s-2.049,2.717-4.017,2.672a4.97,4.97,0,0,1-3.088-1.016ZM282.4,82.214v.164c-.431.159-.654.391-.654,1.072v6.373a.8.8,0,0,0,.654.9v.159h-2.672v-.159a.805.805,0,0,0,.651-.9V83.457c0-.7-.211-.9-.651-1.072v-.164Zm-1.489-2.23a.8.8,0,1,1-.659.77.7.7,0,0,1,.659-.77Zm9.526,10.9h-6.36v-.159a.861.861,0,0,0,.654-.943V83.457c0-.7-.211-.9-.654-1.072v-.164h2.682v.164c-.431.159-.663.391-.663,1.072V89.73c0,.315.116.4.288.4H289.4c.525,0,1.012-.465,1.292-1.2h.125Zm15,0H304.3L297.24,82.7v6.89a1.025,1.025,0,0,0,.77,1.1v.189H295.4v-.188a1.02,1.02,0,0,0,.784-1.1v-7.63a1.09,1.09,0,0,0-.784-1.068V80.7h2.365l6.593,7.587V82.014a1.037,1.037,0,0,0-.767-1.123V80.7h2.584v.194a1.046,1.046,0,0,0-.757,1.123Zm8.681-1.675-.53-1.193h-3.81L309,89.737c-.263.595.263.9.616,1.025v.159H306.9v-.157c.318-.1.762-.315,1.2-1.236l3.061-6.67c-.048-.25-.555-.431-.7-.431v-.164h1.96l3.346,7.351a2.032,2.032,0,0,0,1.171,1.162v.159h-3.253v-.159c.293-.116.861-.431.638-1.016a3.036,3.036,0,0,0-.209-.549Zm-3.979-1.975h3.118l-1.533-3.475Zm8.117-5.2h.108c.081.2.31.2.465.2h6.235v.813l-5.571,7.085h4.357c.525,0,1-.431,1.292-1.2h.108l-.348,1.955h-7.221v-.732l5.551-7.11h-4.19c-.358,0-.711.547-.861,1.072h-.116Zm11.063.2V82.4c-.431.159-.659.391-.659,1.072v6.378a.792.792,0,0,0,.659.9v.159h-2.679v-.159a.813.813,0,0,0,.651-.9V83.473c0-.7-.215-.9-.651-1.072v-.164ZM327.826,80a.8.8,0,1,1-.659.77.7.7,0,0,1,.659-.792Zm3.82,3.444c0-.7-.232-.913-.663-1.072v-.164h4.658c1.877,0,2.788,1.037,2.788,2.356s-.943,2.356-2.808,2.356l2.429,2.889a3.136,3.136,0,0,0,1.12.908v.159h-2.028l-3.759-4.508v-.181h2.054a1.472,1.472,0,0,0,1.434-1.61,1.45,1.45,0,0,0-1.434-1.585h-2.011c-.242,0-.431,0-.431.4v6.3c0,.668.22.888.659,1.037v.16h-2.682v-.159c.431-.151.663-.371.663-1.037Zm15.244,7.435h-6.37v-.159a.861.861,0,0,0,.646-.943V83.457c0-.7-.211-.9-.646-1.072v-.164h2.672v.164c-.431.159-.663.391-.663,1.072V89.73c0,.315.116.4.293.4h3.015c.534,0,1.016-.465,1.292-1.2h.138Zm3.936-8.668v.164c-.431.159-.659.391-.659,1.072v6.373a.8.8,0,0,0,.659.9v.159h-2.687v-.159a.8.8,0,0,0,.651-.9V83.457c0-.7-.211-.9-.651-1.072v-.164Zm-1.489-2.23a.724.724,0,0,1,.676.784.681.681,0,1,1-1.339,0,.7.7,0,0,1,.663-.784Zm7.514,6.984V89.9a.861.861,0,0,0,.663.827v.159h-2.7v-.159a.831.831,0,0,0,.671-.813V87.328l-2.944-4.1c-.272-.358-.5-.724-.977-.835v-.164H354.4v.164c-.25.081-.616.245-.306.676l2.218,3.131,2.415-3.121c.318-.431,0-.62-.328-.689v-.164h2.347v.164a1.007,1.007,0,0,0-.7.431Zm7.319-4.736v.164c-.431.159-.654.391-.654,1.072v6.38a.792.792,0,0,0,.654.9v.159h-2.682v-.159a.813.813,0,0,0,.65-.9V83.47c0-.7-.211-.9-.651-1.072v-.164ZM362.675,80a.719.719,0,0,1,.668.784.711.711,0,0,1-.659.784.719.719,0,0,1-.671-.8.7.7,0,0,1,.671-.788ZM254.726,81.938a6.89,6.89,0,0,0-2.851.671.673.673,0,0,0-.146-.078h-.116l.073,1.938h.125a2.571,2.571,0,0,1,2.743-1.774,3.485,3.485,0,0,1,3.485,3.755v.172h-7.073a2.491,2.491,0,0,0,0,.431v.275h0a3.936,3.936,0,0,0,2.584,3.448h0a5.451,5.451,0,0,0,1.292.181,4.449,4.449,0,0,0,4.736-4.513,4.508,4.508,0,0,0-4.849-4.521Zm.129,8.289a3.592,3.592,0,0,1-1.068-.164,2.733,2.733,0,0,1-1.626-2.7h5.778a3.048,3.048,0,0,1-3.075,2.841Z" transform="translate(-205.3 32.493)" fill="#afafaf"/>
        <g id="Group_564" data-name="Group 564" transform="translate(58.047 0)">
          <path id="Path_670" data-name="Path 670" d="M91.27,116.455a.331.331,0,0,0,.194.164l.288-.035v-.129h-.086a.2.2,0,0,1,0,.091c0,.035-.035.035-.035,0l-.086-.1a.6.6,0,0,0-.224,0Z" transform="translate(-51.969 -66.298)" fill="#afafaf" fill-rule="evenodd"/>
          <path id="Path_671" data-name="Path 671" d="M96.62,115Z" transform="translate(-55.015 -65.481)" fill="#afafaf" fill-rule="evenodd"/>
          <path id="Path_672" data-name="Path 672" d="M90.552,117.151v-.03s-.056-.06-.081-.06S90.5,117.12,90.552,117.151Z" transform="translate(-51.51 -66.653)" fill="#afafaf" fill-rule="evenodd"/>
          <path id="Path_673" data-name="Path 673" d="M114.019,97.4a.371.371,0,0,0-.379.366.379.379,0,0,0,.379.379.371.371,0,0,0,.371-.379.366.366,0,0,0-.371-.366Z" transform="translate(-64.706 -55.459)" fill="#afafaf" fill-rule="evenodd"/>
          <path id="Path_674" data-name="Path 674" d="M103.224,108.46a.371.371,0,0,0-.374.371.375.375,0,0,0,.749,0,.371.371,0,0,0-.375-.371Z" transform="translate(-58.562 -61.757)" fill="#afafaf" fill-rule="evenodd"/>
          <path id="Path_675" data-name="Path 675" d="M100.13,114.175h.026S100.13,114.149,100.13,114.175Z" transform="translate(-57.014 -65.004)" fill="#afafaf" fill-rule="evenodd"/>
          <path id="Path_676" data-name="Path 676" d="M99.194,116.555v-.081a.43.43,0,0,0-.134,0h0A.194.194,0,0,0,99.194,116.555Z" transform="translate(-56.404 -66.317)" fill="#afafaf" fill-rule="evenodd"/>
          <path id="Path_677" data-name="Path 677" d="M98.29,116.917a.749.749,0,0,0,.431-.129c-.03-.048-.116-.048-.177-.048A1.191,1.191,0,0,0,98.29,116.917Z" transform="translate(-55.966 -66.472)" fill="#afafaf" fill-rule="evenodd"/>
          <path id="Path_678" data-name="Path 678" d="M77.2,109.06H77.17Z" transform="translate(-43.94 -62.099)" fill="#afafaf" fill-rule="evenodd"/>
          <path id="Path_679" data-name="Path 679" d="M99.76,115.914l.124.116a1.648,1.648,0,0,0,.116-.25h-.1C99.863,115.914,99.782,115.914,99.76,115.914Z" transform="translate(-56.803 -65.925)" fill="#afafaf" fill-rule="evenodd"/>
          <path id="Path_680" data-name="Path 680" d="M76.2,81.91a.374.374,0,1,0,.371.374.374.374,0,0,0-.371-.374Z" transform="translate(-43.172 -46.639)" fill="#afafaf" fill-rule="evenodd"/>
          <path id="Path_681" data-name="Path 681" d="M93.91,114.68Z" transform="translate(-53.472 -65.298)" fill="#afafaf" fill-rule="evenodd"/>
          <path id="Path_682" data-name="Path 682" d="M93.13,116.779a.431.431,0,0,1-.185.035.57.57,0,0,0-.03.129l.03.035a.129.129,0,0,1,.043.03,1.012,1.012,0,0,0,.555-.1.633.633,0,0,0-.414-.13Z" transform="translate(-52.902 -66.493)" fill="#afafaf" fill-rule="evenodd"/>
          <path id="Path_683" data-name="Path 683" d="M96.433,116.12c-.026,0-.026.038-.043.038h0Z" transform="translate(-54.884 -66.119)" fill="#afafaf" fill-rule="evenodd"/>
          <path id="Path_684" data-name="Path 684" d="M77.28,108.88Z" transform="translate(-43.951 -61.996)" fill="#afafaf" fill-rule="evenodd"/>
          <path id="Path_685" data-name="Path 685" d="M74.4,103.641c0,.051.043.051.043,0v-.035l-.155-.116c-.035.081,0,.116,0,.151l.078.051S74.4,103.71,74.4,103.641Z" transform="translate(-42.292 -58.927)" fill="#afafaf" fill-rule="evenodd"/>
          <path id="Path_686" data-name="Path 686" d="M76.2,98.133a.375.375,0,1,0-.35-.228.379.379,0,0,0,.35.228Z" transform="translate(-43.172 -55.447)" fill="#afafaf" fill-rule="evenodd"/>
          <path id="Path_687" data-name="Path 687" d="M109.884,112.14h0a6.129,6.129,0,0,1-.654.349h.078a5.313,5.313,0,0,0,.576-.349Z" transform="translate(-62.196 -63.852)" fill="#afafaf" fill-rule="evenodd"/>
          <path id="Path_688" data-name="Path 688" d="M86.644,115.32Z" transform="translate(-49.303 -65.663)" fill="#afafaf" fill-rule="evenodd"/>
          <path id="Path_689" data-name="Path 689" d="M80.91,109.67Z" transform="translate(-46.07 -62.446)" fill="#afafaf" fill-rule="evenodd"/>
          <path id="Path_690" data-name="Path 690" d="M93.681,121.68a1.745,1.745,0,0,1-.151.091.452.452,0,0,0,.172-.073A.043.043,0,0,0,93.681,121.68Z" transform="translate(-53.256 -69.285)" fill="#afafaf" fill-rule="evenodd"/>
          <path id="Path_691" data-name="Path 691" d="M93.39,118.84Z" transform="translate(-53.176 -67.667)" fill="#afafaf" fill-rule="evenodd"/>
          <path id="Path_692" data-name="Path 692" d="M87.034,108.46a.371.371,0,0,0-.374.371.375.375,0,0,0,.749,0,.371.371,0,0,0-.374-.371Z" transform="translate(-49.344 -61.757)" fill="#afafaf" fill-rule="evenodd"/>
          <path id="Path_693" data-name="Path 693" d="M111.11,111.385a.89.89,0,0,0,.146-.065.482.482,0,0,0-.146.048Z" transform="translate(-63.266 -63.385)" fill="#afafaf" fill-rule="evenodd"/>
          <path id="Path_694" data-name="Path 694" d="M81.1,110Z" transform="translate(-46.157 -62.633)" fill="#afafaf" fill-rule="evenodd"/>
          <path id="Path_695" data-name="Path 695" d="M93.244,87.568v.194a.328.328,0,0,1-.275-.116c-.194-.5.275-1.327.081-2.019a2.862,2.862,0,0,0-.116-.59,13.422,13.422,0,0,1-.348-1.434,1.43,1.43,0,0,0-.073-.512,3.4,3.4,0,0,1-.078-.939v-.224a4.474,4.474,0,0,0-.9,3.07,8.637,8.637,0,0,0,.275,1.059c.078.5.391.861.391,1.292,0,.048-.078.048-.116.048-.775-.741-.663-2.028-.775-3.015v-.551a3.95,3.95,0,0,0-.581,2.412,3.742,3.742,0,0,0,.457,1.128,2.631,2.631,0,0,1-.154-1.2h.078a3.206,3.206,0,0,0,1.016,2.256c.151.038.232.073.391.116.267.048.431-.194.7-.194.043.151.275.151.465.116a1.77,1.77,0,0,0,.547-.9,4.676,4.676,0,0,0-.078-3.015c-.31-1.292-1.206-2.256-1.171-3.664C91.84,83.09,93.846,85.389,93.244,87.568Z" transform="translate(-51.648 -46.058)" fill="#afafaf" fill-rule="evenodd"/>
          <path id="Path_696" data-name="Path 696" d="M97.9,89.333a.318.318,0,0,0-.048.151,3.656,3.656,0,0,0,1.18-1.942c.379-1.869-1.016-3.075-1.723-4.241.116,1.365,1.094,2.459,1.012,3.875A3.673,3.673,0,0,1,97.9,89.333Z" transform="translate(-55.408 -47.431)" fill="#afafaf" fill-rule="evenodd"/>
          <path id="Path_697" data-name="Path 697" d="M87.033,71.4a.374.374,0,1,0-.266-.116.374.374,0,0,0,.266.116Z" transform="translate(-49.344 -40.228)" fill="#afafaf" fill-rule="evenodd"/>
          <path id="Path_698" data-name="Path 698" d="M80.08,108.13a.026.026,0,0,0,.026,0h0Z" transform="translate(-45.598 -61.569)" fill="#afafaf" fill-rule="evenodd"/>
          <path id="Path_699" data-name="Path 699" d="M86.11,115.27v.03h0C86.132,115.27,86.11,115.27,86.11,115.27Z" transform="translate(-49.031 -65.635)" fill="#afafaf" fill-rule="evenodd"/>
          <path id="Path_700" data-name="Path 700" d="M83.75,115.538h.058C83.808,115.481,83.75,115.538,83.75,115.538Z" transform="translate(-47.687 -65.772)" fill="#afafaf" fill-rule="evenodd"/>
          <path id="Path_701" data-name="Path 701" d="M83.5,116.48v.03S83.522,116.51,83.5,116.48Z" transform="translate(-47.545 -66.323)" fill="#afafaf" fill-rule="evenodd"/>
          <path id="Path_702" data-name="Path 702" d="M114.024,81.91a.374.374,0,1,0,.374.374A.374.374,0,0,0,114.024,81.91Z" transform="translate(-64.712 -46.639)" fill="#afafaf" fill-rule="evenodd"/>
          <path id="Path_703" data-name="Path 703" d="M100.881,120.88a.655.655,0,0,1-.091,0l.026.022Z" transform="translate(-57.389 -68.828)" fill="#afafaf" fill-rule="evenodd"/>
          <path id="Path_704" data-name="Path 704" d="M83.931,116.39v-.06H83.88Z" transform="translate(-47.761 -66.238)" fill="#afafaf" fill-rule="evenodd"/>
          <path id="Path_705" data-name="Path 705" d="M84.676,115.792s-.026-.03-.026,0l.026.026Z" transform="translate(-48.2 -65.924)" fill="#afafaf" fill-rule="evenodd"/>
          <path id="Path_706" data-name="Path 706" d="M84.26,115.852c0-.051,0-.051.051-.051s-.051,0,0-.03v-.03H84.26l-.03.146h.03Z" transform="translate(-47.96 -65.903)" fill="#afafaf" fill-rule="evenodd"/>
          <path id="Path_707" data-name="Path 707" d="M97.769,116.7c-.03.056-.069.1-.1.1s.065.03.065.065h0a.677.677,0,0,0,.129-.224.4.4,0,0,1-.1.06Z" transform="translate(-55.613 -66.415)" fill="#afafaf" fill-rule="evenodd"/>
          <path id="Path_708" data-name="Path 708" d="M84.82,116.116h.043l.035-.026v-.03Z" transform="translate(-48.297 -66.084)" fill="#afafaf" fill-rule="evenodd"/>
          <path id="Path_709" data-name="Path 709" d="M102.979,71.4a.374.374,0,1,0-.379-.379A.379.379,0,0,0,102.979,71.4Z" transform="translate(-58.42 -40.228)" fill="#afafaf" fill-rule="evenodd"/>
          <path id="Path_710" data-name="Path 710" d="M79.227,45.553a22.421,22.421,0,0,0-4.383-4.216,2.45,2.45,0,0,0-.215-.2,2.687,2.687,0,0,0,.215-.194,22.443,22.443,0,0,0,4.383-4.182,15.165,15.165,0,0,0,3.078-5.925,5.628,5.628,0,0,0-.767-.116l.116-.827a9.044,9.044,0,0,0-1.046-.108v-.805s-.757-.091-1.141-.086v-.973a19.454,19.454,0,0,1-2.024-1.21l.091-.1a6.434,6.434,0,0,0-.56-.6,19.907,19.907,0,0,1,.633-2.584l-.689-.689c.275-.267.749-.861.749-.861l-.581-.568a8.808,8.808,0,0,0,.668-.813l-.663-.508a5.593,5.593,0,0,0,.465-.6,15.7,15.7,0,0,0-6.368-2.011,22.42,22.42,0,0,0-6.071.129h-.3v-.288a22.249,22.249,0,0,0,.134-6.071,15.309,15.309,0,0,0-2.01-6.381,5.167,5.167,0,0,0-.624.465l-.5-.668A8.272,8.272,0,0,0,61,5.228l-.574-.581s-.595.474-.861.745L58.881,4.7a18.447,18.447,0,0,1-2.286.581V5.146a5.6,5.6,0,0,0-.813-.026A18.885,18.885,0,0,1,54.4,2.846h-.977c0-.383-.081-1.141-.081-1.141h-.813a10.2,10.2,0,0,0-.1-1.046L51.6.776A5.629,5.629,0,0,0,51.481,0a15.374,15.374,0,0,0-5.925,3.083,22.3,22.3,0,0,0-4.216,4.388,2.868,2.868,0,0,0-.2.211c-.065-.081-.194-.211-.194-.211a22.326,22.326,0,0,0-4.182-4.388A15.344,15.344,0,0,0,30.831,0a5.628,5.628,0,0,0-.116.767L29.888.651a9.041,9.041,0,0,0-.108,1.072h-.813s-.086.757-.081,1.141h-.973a19.409,19.409,0,0,1-1.378,2.273,5.53,5.53,0,0,0-.813.026V5.3a20.631,20.631,0,0,1-2.286-.581l-.689.689c-.267-.275-.861-.749-.861-.749l-.568.581a8.272,8.272,0,0,0-.813-.668l-.522.638a5.22,5.22,0,0,0-.6-.474,15.7,15.7,0,0,0-2.013,6.37,22.447,22.447,0,0,0,.129,6.076s0,.181,0,.288h-.288a22.421,22.421,0,0,0-6.071-.129,15.626,15.626,0,0,0-6.4,2.036,5.219,5.219,0,0,0,.474.6l-.663.5a8.945,8.945,0,0,0,.668.813l-.581.568s.477.6.749.861l-.689.689A19.738,19.738,0,0,1,5.327,26a5.417,5.417,0,0,0-.555.6l.086.1a19.119,19.119,0,0,1-2.024,1.206v.977c-.383,0-1.141.081-1.141.081v.813a9.044,9.044,0,0,0-1.046.108l.116.827A5.627,5.627,0,0,0,0,30.829a15.374,15.374,0,0,0,3.083,5.925,22.326,22.326,0,0,0,4.388,4.2,2.365,2.365,0,0,0,.211.194,2.178,2.178,0,0,0-.211.2,22.3,22.3,0,0,0-4.388,4.2A15.259,15.259,0,0,0,0,51.482a5.629,5.629,0,0,0,.767.116l-.116.827a9.043,9.043,0,0,0,1.072.108v.813s.757.086,1.141.081v.977a18.675,18.675,0,0,1,2.024,1.206l-.086.1a5.417,5.417,0,0,0,.555.6A19.576,19.576,0,0,1,4.723,58.9l.689.689c-.275.267-.749.861-.749.861l.581.568a8.273,8.273,0,0,0-.668.813l.663.5a6.028,6.028,0,0,0-.5.624,15.7,15.7,0,0,0,6.366,2.013,22.107,22.107,0,0,0,6.076-.129h.288v.288A22.447,22.447,0,0,0,17.34,71.2a15.282,15.282,0,0,0,2.011,6.368,5.22,5.22,0,0,0,.624-.457l.5.663a8.274,8.274,0,0,0,.813-.668l.568.581s.6-.474.861-.749l.689.689a20.627,20.627,0,0,1,2.286-.581v.138a6.232,6.232,0,0,0,.813.03,19.293,19.293,0,0,1,1.378,2.269h.973c0,.383.081,1.141.081,1.141h.813a9.045,9.045,0,0,0,.108,1.046l.827-.116a5.627,5.627,0,0,0,.116.767,15.31,15.31,0,0,0,5.925-3.078,22.442,22.442,0,0,0,4.2-4.388,2.693,2.693,0,0,0,.194-.215,2.449,2.449,0,0,0,.2.215,22.421,22.421,0,0,0,4.226,4.368,15.2,15.2,0,0,0,5.925,3.078,5.63,5.63,0,0,0,.116-.767l.827.116a9.037,9.037,0,0,0,.108-1.046h.813s.086-.757.081-1.141H54.4A18.444,18.444,0,0,1,55.774,77.2a5.6,5.6,0,0,0,.813-.03v-.138a20.4,20.4,0,0,1,2.286.581l.689-.689c.267.275.861.749.861.749l.568-.581a9.039,9.039,0,0,0,.813.671l.5-.668a6.03,6.03,0,0,0,.624.457,15.777,15.777,0,0,0,2.016-6.368,22.452,22.452,0,0,0-.134-6.076v-.286h.293a22.245,22.245,0,0,0,6.071.134,15.291,15.291,0,0,0,6.368-2.016,6.03,6.03,0,0,0-.457-.624l.663-.5A8.272,8.272,0,0,0,77.085,61l.581-.568s-.474-.6-.745-.861l.684-.689a19.573,19.573,0,0,1-.633-2.584,5.933,5.933,0,0,0,.56-.6l-.215-.254.124.151a19.121,19.121,0,0,1,2.024-1.206v-.977c.383,0,1.141-.081,1.141-.081v-.788a10.2,10.2,0,0,0,1.046-.1l-.116-.831a5.629,5.629,0,0,0,.767-.116,15.264,15.264,0,0,0-3.075-5.941Zm2.614-14.469a16.468,16.468,0,0,1-3.105,5.675,25.011,25.011,0,0,1-2.11,2.265,6.505,6.505,0,0,1-2.364,1.723,10.455,10.455,0,0,1-2.046.142c-2.153,0-4.263.043-6.368.086H58.016l-.124-.124a18.61,18.61,0,0,0,3.575-2.735l4.37,2.359,8.323-9.857c2.488.134,4.948.293,7.69.465ZM55.491,43.878l2.2-2.2a24.279,24.279,0,0,1,3.285,2.8l-4.715,2.549c-.06-.2-.124-.431-.189-.616a12.216,12.216,0,0,1-.581-2.532Zm.361,3.369-2.639,1.413V46.135L55,44.352Zm.22-11.338c.06-.2.124-.431.185-.62l4.715,2.549a23.61,23.61,0,0,1-3.272,2.8L55.5,38.44a11.906,11.906,0,0,1,.568-2.532ZM55,37.945l-1.787-1.774V33.644l2.644,1.425Zm25.246-8.634v.757s.951.078.991.1l-.1.431c-.172.078-3.221-.1-6.717-.331l1.046-1.231Zm-1.176-.431c-.056.048-1.387-.038-3.295-.172l.538-.638a24.17,24.17,0,0,1,2.8.3Zm-1.818-1.92c.624.379,1.51.918,1.572.973-.611-.073-1.37-.142-2.213-.215Zm-.7-.573.25.272-8,9.353h0c-.861,1.034-1.743,2.076-2.644,3.091.116-.508.155-1.253.285-1.882s.232-1.292.232-1.292c.336-.431,7.811-8.677,10.476-12.057,0,.138-.6,2.5-.6,2.5Zm.491-2.988c.038.2-7.751,9.133-10.455,12.191a34.363,34.363,0,0,0-6.938-4.736,23.683,23.683,0,0,1,6.89,3.557c3.29-3.393,9.9-11.321,10.115-11.338Zm.232-2.808c0,.038-.633.771-.633.771l.522.547L66.614,33.733c-.25-.2-.5-.34-.757-.522A22.885,22.885,0,0,0,60.009,30.5c-.263-.073-.53-.155-.792-.224a16.6,16.6,0,0,0-5.137-.5c-.254,0-.306.069-.1.069h.153c3.608.1,7.708,2.041,11.372,5.219l.8.7-.171,1.181-1.421-.994a42.58,42.58,0,0,0-10.869-5.025c-.078-.03-.134,0-.073,0,.918.568,3.242,1.585,4.133,1.981a44.352,44.352,0,0,1,7.712,4.306.813.813,0,0,1,.4,1.046c-3.209-2.067-9.043-4.672-12.35-6.343-.056-.026-.065,0,0,.048.969.719,4.306,2.488,5.12,2.941,2.084,1.145,4.246,2.153,6.389,3.389a1.417,1.417,0,0,1,.512,1.446c-3.182-1.524-7.049-3.742-10.27-5.447a12.147,12.147,0,0,1-2.2-1.382V29.841c.994-.181,7.243-1.2,12.057,1.394.482.194.961.34,1.443.568,2.98-3.381,9.848-11.346,10.18-11.462ZM64.86,18.043a6.273,6.273,0,0,1,2.881-.465,25.652,25.652,0,0,1,3.091.116,16.623,16.623,0,0,1,6.209,1.817c-3.591,4.074-6.389,7.277-10.412,11.626A18.766,18.766,0,0,0,53.2,29.561v-.177l5.542-5.538c1.529-1.451,3.058-2.941,4.569-4.466a9.934,9.934,0,0,1,1.546-1.335ZM62.8,5.265a16.466,16.466,0,0,1,1.823,6.207,24.018,24.018,0,0,1,.116,3.091,6.389,6.389,0,0,1-.465,2.881,10.214,10.214,0,0,1-1.352,1.546c-1.51,1.51-2.98,3.045-4.443,4.564L52.938,29.1h-.177a18.551,18.551,0,0,0,.6-4.461l-.538.159a23.931,23.931,0,0,1-.349,4.306h-3.1a11.916,11.916,0,0,1-1.382-2.2l-.306-.573L58.13,23.219,57.05,10.365c1.861-1.671,3.7-3.285,5.762-5.1ZM48.658,29.1H46.135l-1.783-1.783,2.876-.861ZM60.408,5.137l.551.522s.727-.616.767-.633l.242.383c-.065.177-2.351,2.207-4.986,4.513l-.134-1.607Zm-1.486.129.336.388a32.886,32.886,0,0,1-2.45,2.207l-.069-.831a24.444,24.444,0,0,1,2.2-1.766Zm-.489-.1c-.482.383-1.068.861-1.723,1.413l-.086-.986C57.34,5.409,58.351,5.167,58.433,5.167Zm-2.7.508h.371c.431,5.442.929,10.9,1.266,16.329-.28-.431-.775-.994-1.128-1.529L55.515,19.4C55.441,18.86,54.9,7.746,54.407,3.47c.081.108,1.33,2.2,1.33,2.2ZM53.45,3.253l.517-.035c.168.116.969,11.954,1.227,16.014a34.074,34.074,0,0,0-8.262,1.536,23.442,23.442,0,0,1,7.38-2.356c-.062-4.722-.991-15.014-.862-15.169ZM51.729,1.162l.431-.1c0,.038.1.991.1.991h.757l.9,15.835c-.318.038-.595.116-.9.168a22.964,22.964,0,0,0-6.08,2.23c-.242.138-.487.267-.719.4a16.324,16.324,0,0,0-3.987,3.282c-.168.189-.168.263,0,.116l.116-.116c2.622-2.48,6.89-4,11.733-4.353l1.046-.06.7.956-1.723.3a43.079,43.079,0,0,0-11.235,4.13c-.073.038-.108.086-.035.069,1.046-.25,3.411-1.171,4.306-1.519a44.352,44.352,0,0,1,8.535-2.4c.482-.069.671-.073,1.025.452-3.742.813-9.7,3.1-13.215,4.251-.06,0-.048.048.03.035,1.2-.177,4.793-1.292,5.692-1.537,2.286-.663,4.539-1.468,6.916-2.122a1.421,1.421,0,0,1,1.394.646c-3.328,1.171-7.63,2.338-11.114,3.406a11.923,11.923,0,0,1-2.536.581l-2.179-2.178c.568-.827,4.272-5.969,9.507-7.544.482-.2.921-.431,1.421-.62-.272-4.5-1.046-14.986-.9-15.312ZM41.337,16.47c.038-2.11.086-4.241.086-6.378a10.206,10.206,0,0,1,.138-2.049,6.213,6.213,0,0,1,1.723-2.364A25.013,25.013,0,0,1,45.55,3.57,16.468,16.468,0,0,1,51.23.465c.34,5.425.633,9.663.861,15.584a18.819,18.819,0,0,0-10.606,8.376l-.142-.116Zm-.2,9.087,4.426,4.426a9.943,9.943,0,0,0-8.861,0Zm9.293,18.279-.038.048c-.081,0-.081-.048-.081-.116-.116-.349.116-.741.232-1.059-.1.349.211.813-.1,1.128Zm.986-.7c-.073.275-.155.431-.232.663a1.025,1.025,0,0,1-.431.5.616.616,0,0,0-.194-.151,3.077,3.077,0,0,1,.155-.349c.22-.232.487-.388.719-.663Zm-.677-.157a7.876,7.876,0,0,1,.525-1.046,3.191,3.191,0,0,1,0,.888.861.861,0,0,1-.348.668l-.108-.078a.565.565,0,0,1-.051-.432Zm.431,1.244a2.614,2.614,0,0,1-.431.62.491.491,0,0,1-.349.2.207.207,0,0,1-.194-.116.4.4,0,0,1,.043-.232c.207-.31.7-.194.961-.465Zm-.22.62a2,2,0,0,1-.654.973c-.267.159-.431.159-.534,0l-.146.159c-.336.194-.568.757-.943,1.046a.762.762,0,0,1,.482,0,2.091,2.091,0,0,1-1.206.431H47.72c0-.038-.038-.038-.038-.159l.116-.116a.711.711,0,0,1,.457-.151h.116l-.142-.1v-.078c.232-.477.835-.31,1.137-.668.116-.151.452-.349.452-.465,0-.232.116-.263.2-.388a2.153,2.153,0,0,0,.973-.482ZM49.52,46.716v.038c0,.038-.081.116-.116.164s-.078,0,0,.116a6.533,6.533,0,0,0,.757-.194,9.607,9.607,0,0,1-.986.77h-.431a.565.565,0,0,1,.3-.189c.081-.116.232-.116.267-.232l-.568.275v-.038c.108-.116.431-.232.568-.388v-.106c.078-.043.116-.078.116-.164s-.078-.038-.078-.073c.078-.194.349-.318.379-.543h-.035l-.3.224v-.026c.3-.349.757-.232,1.176-.349a.116.116,0,0,0,.1-.069c-.134.232-.242.391-.4.452a.964.964,0,0,1-.651.391L50,46.386ZM46.359,50.16a2.3,2.3,0,0,1-1.107.116.757.757,0,0,1,.267-.038c.53-.388,1.1,0,1.6-.073a4.251,4.251,0,0,1-1.072.232h-.186c.185-.116.374-.038.573-.155Zm-1.107,1-.487-.069.116-.116h.108l.232-.051c0-.065,0-.116.035-.116h.081l.073.116v-.116h.116l.043.051c0-.051-.043-.051,0-.051h.038s0,.051.035,0,0-.069.081-.069c.491,0,1.025-.081,1.477-.081l-.3.465a1.188,1.188,0,0,1-.34.035Zm1.292.242-.232.116h-.077c.081-.116.081-.116.116-.116h.116c0-.051.073-.013.073-.013Zm-2.859,0c-.34-.159-.651-.242-.908-.349l-.383-.073-.116-.051-.035.051h-.073l-.038.151h-.113c-.043.035,0,.081-.043.081V51.1l.5-.349.116.069.035.051H42.7l.078.065v.051h.108v-.116c.091,0,.091.116.116.116h.116a.151.151,0,0,1,.151.073c.035,0,.078,0,.078-.073l.189.116c0-.043.116,0,.151-.043s.043,0,.043-.073c0,0,0,.073.116.073.608.116,1.322.194,2.011.275l-.232.581h-.035c-.62-.177-1.266-.288-1.912-.522Zm1.64.654V52.1a2.488,2.488,0,0,1-.861.2l.487-.242h.038s.151.043.151,0h.2Zm-2.059-.3v-.091H43c0-.043.03-.043.03-.043H43l-.038-.073-.116.073H42.8c0-.073-.035,0-.035,0v-.07h-.081l.081-.038h-.134c.038,0,.038,0,0-.116,0,0,0,.116-.035.116s-.038-.086-.03-.1l-.164.1c0-.116.078-.116.078-.116h-.2v-.043a.431.431,0,0,1,.232-.038,8.342,8.342,0,0,1,1.02.31l-.189.116H43.31c.038,0,.038,0,.038-.078Zm-.8.31h-.078l-.267.043.078-.043h.035V52l-.431.116L42.066,52c-.108,0-.263.073-.336.073l.151-.155H41.8L41.571,52c.038-.081.038-.081.078-.081h.03c.048-.086,0-.086,0-.086l-.108.086.078-.155h-.116a.258.258,0,0,1,.194-.116,2.975,2.975,0,0,1,1.059.431Zm.568.043v.151c-.151.194-.522.194-.788.194,0-.035-.043-.035-.081-.073.038,0,.081-.048.116-.116a1.124,1.124,0,0,1,.749-.164Zm-1.059,0H41.9a.711.711,0,0,1,.3-.043Zm-1.93-.366c-.073.069-.073,0-.189,0v.069h-.035c0,.086,0,.086-.081.086l-.224.081s.035,0,.035.073H39.12l1.206-.663v-.034c.051,0,.051-.038.116,0,.194,0,.232-.116.349-.189a.563.563,0,0,1,.189-.078.25.25,0,0,1,.146.116h-.142v.035l-.189.078v.038h-.116l-.038.038h-.194v.116h-.069c-.051,0-.051,0-.051.038h-.108v.073s-.069-.073-.069,0h-.1v.043h0c-.1.082,0,.082,0,.082Zm-2.291-2.839a2.334,2.334,0,0,1-.982-.929l-.035.03v.048a2.829,2.829,0,0,0,.918.929c-.116,0-.388,0-.495.116.22.035.495-.116.754,0,.232.194.538.465.573.745h-.551c0,.03-.043.03-.043.03l.043.043c.263,0,.495-.043.641.116l.155.383-1,.164c-.06,0-.1-.043-.1-.164a.964.964,0,0,1-.31-.189l.035-.159a1.249,1.249,0,0,0,.495-.383.383.383,0,0,0-.151-.28c-.189-.116-.534,0-.767.048-.1.035-.185-.048-.254-.048s-.038-.073-.116-.116a.2.2,0,0,1-.116-.194c.116-.116.3,0,.383-.116a.224.224,0,0,0,.185-.232c-.038-.232-.374-.306-.608-.388a.581.581,0,0,1-.194-.388l.035-.124v-.03a.285.285,0,0,1,.116-.129q.409.224.861.431a.681.681,0,0,1,.038.065h.116c.245.1.495.189.749.275a.159.159,0,0,1-.03.069.3.3,0,0,0,.116.232.547.547,0,0,0,.431-.078c.177-.043.331,0,.374.116a.551.551,0,0,1,.078.5c-.116.315-.232.551-.306.779a5.064,5.064,0,0,1-.263-.973c0-.116,0-.116-.043-.116v.581c-.078-.272-.388-.431-.611-.616l-.151-.581c0-.078-.03-.078-.03,0h-.059Zm.861,2.459h-.059c0,.035.06.035.06.035h-.1c.043,0,.043,0,.043.116l-.043-.116-.043.116h-.038v.038h-.108l-.189-.038c-.038-.151-.194-.349-.232-.543v-.038c.306.038.491.315.724.272-.048,0-.048,0-.048.043s.051.069,0,.116Zm.043-.391c-.048,0-.048,0-.116.073a.431.431,0,0,1-.31-.232c-.073,0-.263-.073-.349-.073-.03.073-.116.116-.151.232s.116.232.151.349.151.232.038.349c-.22.232-.431-.116-.724-.043-.189.116-.073.431-.189.671a.608.608,0,0,1-.185.091l-.207-.207H36.29a.478.478,0,0,1,0-.081.487.487,0,0,1,.159-.474c.038-.116.116-.232,0-.388s-.306-.073-.487-.151c-.043-.043-.086-.116-.043-.28a.431.431,0,0,1,.431-.224,1.236,1.236,0,0,1,.487-.2c.151-.038.194-.116.31-.154v-.159l-.263-.232c0-.116-.048-.116,0-.2l.374-.081.038.043h.116v.026h.022v.03h-.029v.078h.035l-.116.116c0,.03.078.03.038.073s-.038,0-.078.078l.038.078H37.29c-.038,0,.038.159-.038.159v.035h.078l.078.155h-.038v.116c-.146.267-.5.31-.641.547v.038c.108-.038.189-.155.336-.275l.038.073a1.92,1.92,0,0,0-.336,1.133,3.485,3.485,0,0,1,.487-1.206,1.317,1.317,0,0,0,.272.663,1.586,1.586,0,0,1-.116-.388c-.078-.2-.155-.465,0-.543h.056c0,.073,0,.073.073.073,0,0,.116.078.189,0l.116.078c.03,0,.03-.078.03-.078s0,.078.038.078l.232-.078h.263l-.081.078h.081l.078-.078.116.078.081.116ZM26.822,38.44l-2.194,2.192a23.546,23.546,0,0,1-3.29-2.8l4.718-2.522c.065.207.124.431.189.62a11.884,11.884,0,0,1,.581,2.51Zm-.361-3.369L29.1,33.646v2.528l-1.783,1.783Zm.361,8.806a11.828,11.828,0,0,1-.555,2.532c-.065.2-.124.431-.189.62l-4.715-2.549a23.609,23.609,0,0,1,3.285-2.8Zm.495.477L29.1,46.137v2.523l-2.639-1.425Zm-1.76-3.214L30.139,36.6V30.142h6.321a10.016,10.016,0,0,0-5.3,8.81,9.749,9.749,0,0,0,.3,2.386h-.03c-.116-.078-.116-.263-.189-.306-.194-.159-.431.043-.457.116-.116.275-.189.654,0,.861v.035l.151.194v.124c-.116.116-.189.116-.267.3-.073.086,0,.2,0,.349l-.431.124a.771.771,0,0,0,.038.391,1.786,1.786,0,0,0,.431.306v.194l.349.116a1.077,1.077,0,0,0,.431.929.651.651,0,0,0,.431.124,1.111,1.111,0,0,0,.232.888c0,.051,0,.051.073.051-.073.22-.336.22-.383.465,0,.155,0,.431.116.465.189.242.573,0,.835.242h.038c-.038.146-.3.146-.3.306a.481.481,0,0,0,.146.465.727.727,0,0,0,.306.081l-.306.232.073.232a1.688,1.688,0,0,0,.813.306v.048h.185a.939.939,0,0,0,.3.5h.035v.081a1.08,1.08,0,0,1-.263.073.921.921,0,0,0-.336.388.371.371,0,0,0,.224.391c.232.232.374.232.724.116.151.116.116.388.267.431.069,0,.069,0,.181.078a1.8,1.8,0,0,0,0,.775c.116,0,.116.078.2.078a2.265,2.265,0,0,0,.659-.59.431.431,0,0,1,.5.038c.035.038.035.038.035.155a1.2,1.2,0,0,0-.146.59.961.961,0,0,0,.035.1H30.142V45.73ZM34.32,26.9a11.914,11.914,0,0,1-1.382,2.2h-3.1a23.931,23.931,0,0,1-.349-4.306l5.137,1.529Zm.745-.431,2.876.861L36.17,29.1H33.644ZM42.518,32.6l-.624-1.51a7.816,7.816,0,0,1,4.3,1.789l-1.51.624a6.519,6.519,0,0,0-2.168-.9Zm1.963.991-1.33.551-.547-1.33A6.343,6.343,0,0,1,44.481,33.588Zm-1.653,1.36L46.8,33.311,45.144,37.29l4,1.64-4,1.653L46.8,44.562l-3.992-1.645L41.17,46.91l-1.653-3.987-3.983,1.645,1.64-3.98L33.2,38.935l3.979-1.645-1.645-3.983,3.979,1.637,1.658-3.987Zm3.131,2.019.551-1.348a6.217,6.217,0,0,1,.788,1.9l.073.03.138.051a6.459,6.459,0,0,0-.913-2.192l.624-1.51A7.849,7.849,0,0,1,49.01,38.2l-1.64-.659-.073-.03h0Zm2.076,10.955c.185-.051.315-.254.5-.2v.03l-.659.28c-.022,0-.026,0-.03-.035a1.615,1.615,0,0,1-.543.081h-.232V48a.358.358,0,0,1,.069-.349,1.292,1.292,0,0,1,.581-.043,2.864,2.864,0,0,0,.608,0h.194l-.078.043a1.23,1.23,0,0,0-.31.194.891.891,0,0,1-.138.081.138.138,0,0,0,.038-.013ZM43.3,50.854a.745.745,0,0,0-.328-.051c-.091-.069-.091-.151-.091-.379,0-.159.116-.2.267-.2a6.7,6.7,0,0,0,2.323.2.888.888,0,0,1-.538.232,6.416,6.416,0,0,1-1.626.2Zm.159.056Zm-.689-.56-.116.073v.116l-.038.051-.035-.051c-.116-.116-.194.051-.232.051l-.078.073h-.038c-.069,0-.116,0-.116.078-.038,0-.038.073-.108.073l-.038-.151h.146a2.362,2.362,0,0,1,.207-.215h-.177a.431.431,0,0,1-.177.134.573.573,0,0,1-.267-.2.232.232,0,0,1-.035-.232,2.808,2.808,0,0,1,1.593-1.4,5.153,5.153,0,0,0-.986,1.476h0a1.029,1.029,0,0,1,.379-.078.456.456,0,0,1-.035-.232,2.627,2.627,0,0,1,1.21-1.352h.056a2.773,2.773,0,0,0-.624,1.176,1.29,1.29,0,0,0-.065.134.25.25,0,0,1,.258.069v.132l-.349.065h0a.318.318,0,0,1-.232.159l-.065-.026v.048a.038.038,0,0,0-.035.03h0Zm-1.486-1.425h.487a.333.333,0,0,1-.065.232c-.035.03-.108.151-.224.151-.043,0-.043,0-.043-.108s-.069-.168-.151-.272Zm.038.371c0,.043,0,.043-.116.043v-.043c.134-.108.134-.108.134,0Zm.232.151a2.506,2.506,0,0,1,.813-.595h.1c-.245.293-.465.581-.714.861-.043,0-.043-.081-.078-.081l-.069-.116-.043.038a.481.481,0,0,1,.043-.038Zm4.306-1.7.069-.035H45.9l.159-.038a.081.081,0,0,0,0-.051l.086-.048c-.159.272-.185.706-.349,1.034-.038.116-.232.116-.272.151l-.116-.035a.358.358,0,0,0-.073-.232,2.584,2.584,0,0,1,.581-.775Zm.684-.4c.065-.048.134-.086.2-.129a.625.625,0,0,1-.1.207,1.594,1.594,0,0,1-.1.7.8.8,0,0,1-.315.116l-.03-.081c-.073-.035-.073-.116-.073-.31.116-.151.272-.331.418-.487ZM45.02,48.942a.318.318,0,0,1-.349.232c-.038,0-.073-.043-.108-.081a.62.62,0,0,1,.069-.581c.168-.146.323-.285.477-.4l.349-.159A8.37,8.37,0,0,1,45.02,48.942Zm-.921.551c-.185.194-.258.232-.431.232-.038,0-.116,0-.116-.035a.272.272,0,0,1,0-.4,3.677,3.677,0,0,1,1.012-.951l.069-.026c-.275.349-.306.878-.53,1.184Zm.654.9a.2.2,0,0,1-.116-.038h.194c.108-.081.3-.081.34.038Zm-.581-.124a.181.181,0,0,1-.146-.038c-.116,0-.185-.073-.3-.151a.477.477,0,0,1,.116-.349,4.2,4.2,0,0,1,1.666.2c.043.078.272.078.431.078a.982.982,0,0,1-.431.078,4.182,4.182,0,0,1-1.335.189Zm1.335-.431c.043-.116.272-.116.349,0Zm.349-.159a6.71,6.71,0,0,1-.831.035l-.267-.035s0-.048-.081-.048c-.038-.194,0-.349.155-.349a.711.711,0,0,1,.495-.151,6.747,6.747,0,0,0,1.1.31,2.067,2.067,0,0,1-.573.254Zm.388-.349-.232-.086a4.978,4.978,0,0,0,.9-.194.116.116,0,0,1,.043.086Zm-.267-.159H45.86a.242.242,0,0,1-.263-.2c-.038-.035.035-.194.151-.232.487-.232,1.025.035,1.481.035a1.842,1.842,0,0,1-1.249.409Zm1.059-.534h-.267c-.116,0-.155,0-.224-.116,0,0-.078,0-.078-.073a.263.263,0,0,1,.078-.275h.1c.431,0,.813.116,1.111.081l-.065.043.1.078a1.111,1.111,0,0,1-.762.293Zm-.267-1.068a1.029,1.029,0,0,1,.215-.53c.116-.086.242-.177.358-.272-.116.328-.124.668-.232.883l-.272.069H46.8c0-.056-.035-.1-.035-.138Zm.8-.272c-.081,0-.116,0-.116-.116-.086-.116,0-.31.03-.431a1.257,1.257,0,0,1,.155-.232c.116-.1.232-.2.336-.3a2.584,2.584,0,0,0-.142.861c-.078.116-.151.232-.267.232Zm-6.265.929.512-1.249a8.016,8.016,0,0,0,4.564-1.887l1.244.512A9.254,9.254,0,0,1,41.3,48.227Zm3.376-3.841,1.51.628a7.871,7.871,0,0,1-4.306,1.779l.62-1.51a6.408,6.408,0,0,0,2.17-.908Zm-2.079.684.543-1.317,1.327.547a6.157,6.157,0,0,1-1.869.757Zm4.909-4.776,1.51-.624a7.824,7.824,0,0,1-1.8,4.306l-.624-1.51a6.373,6.373,0,0,0,.913-2.183Zm-1,1.963L45.96,40.9l1.339-.555a6.214,6.214,0,0,1-.788,1.907Zm-5.4,6.726v-.06h.048a.146.146,0,0,1,0,.06h-.069Zm.035.31v.043h-.035v-.043c.029-.1.029-.1.029.006Zm-6.429-3.707,1.241-.512a8.031,8.031,0,0,0,4.569,1.89l.512,1.249a9.262,9.262,0,0,1-6.328-2.621ZM40.8,49.333v.073h-.146C40.686,49.333,40.686,49.406,40.8,49.333Zm-4.62-1.162h-.084v.078l.078.038v-.038c.035,0,.035.038.069.116v.151h-.069v-.074c0-.048.035-.048,0-.081l-.078.035c-.03,0-.116,0-.116.048V48.5h.116c.078,0,.078,0,.078.116L36,48.5h-.026l-.091-.065h0l-.043-.048.056.038a.129.129,0,0,1,.06-.038v-.035h-.215v-.358l-.069.391h-.079c-.116,0-.116.048-.116.048V48.5c.116,0,.116-.116.116,0h-.279a1.65,1.65,0,0,1-.263-1.473.431.431,0,0,0-.1.318h0a.921.921,0,0,1-.065.361,4.612,4.612,0,0,0-.638-.888.431.431,0,0,1-.194-.159V46.7c.194.349.534.7.771,1.094-.232,0-.465-.155-.737-.086l.8.242a1.723,1.723,0,0,1,.31.538h-.035V48.6h.073l.078.116h-.078c0,.038,0,.038-.038.038h-.035l-.457-.038H34.63v.038l.258.116h.124v.043c0,.035-.124-.043-.124,0v.035h-.1v.125H34.63c-.038,0-.038-.116-.038-.116l-.035.116a.336.336,0,0,0-.189.31h-.116a1.227,1.227,0,0,1-.431-.431s.108-.078.108-.146c.116-.048.306-.086.336-.323.159-.349-.431-.431-.431-.779l.108-.116h.035c.116-.035.116-.151.116-.306a.7.7,0,0,1-.146-.232c-.151,0-.189-.038-.232-.2a1.176,1.176,0,0,1,.116-.512.805.805,0,0,1,.53-.035c.091,0,.116.116.142.224l.056-.026c0-.091-.078-.091-.078-.116l.038-.03.048.043a.712.712,0,0,0,0,.116h-.073a.534.534,0,0,0,.116.306c.177.043.245-.048.371-.1l.272.207a1.408,1.408,0,0,0,.194.477c.142,0,.275-.065.431-.069l.285.172a.431.431,0,0,1,.06.25l-.035.267h-.078v.048c.063.058.063.058.063.093Zm.172.487h.043l.048-.03.056.116c-.026,0-.026.03-.026,0a.134.134,0,0,0-.03-.086h0v.116c-.078,0,0-.035-.078-.035h-.078v-.116h.043v-.116h.035l-.035.116Zm.116-.038V48.5h.078v.116Zm0,.267s-.038-.073,0-.073c.078.086,0,.013,0,.086Zm-.048.086-.073.116.073.086c-.073,0-.073.108-.073.108.073.043.073,0,.073,0l.038.116h.081v.048c-.081,0,0-.048-.081-.048H36.3c0,.048.038.048.038.081.073,0,.116-.081.116,0h-.038c-.306.073-.487-.2-.727-.358v.051l.3.306a2.877,2.877,0,0,0-.792.242c-.146-.043-.371-.242-.568-.242v.073l.534.168c-.336.185-.684,0-.913.263h.116c.263-.078.646,0,.831-.151-.035.151-.116.232-.31.388v.116c.275-.116.31-.431.547-.616a1.809,1.809,0,0,1,.646-.086c-.116.086-.232.2-.349.272v.155a2,2,0,0,0,.379-.383.28.28,0,0,1,.306-.043c.038,0,.151,0,.151.043l-.151.043.116.116h.03l.081.073a.116.116,0,0,1-.043.086v.026h-.035a.056.056,0,0,1-.035,0c0,.035,0,.035.03.035h-.03v.081h.03v.078h-.03v-.078H36.42s-.073.078-.116.078h-.129l.035.035c.035.081.035,0,.081.081l-.048.038-.069-.038v.051h-.081v-.116l-.116.116-.03.035v.164c-.03,0-.073,0-.073.073h-.048a.056.056,0,0,1-.026.048l.026.03H35.78a2.44,2.44,0,0,0-.069.431v-.242c0-.073.038-.116,0-.116h-.043v-.073c0-.078,0-.078.043-.078v.159c.03-.056.038-.069.069-.073a.186.186,0,0,0,0-.03c-.091-.091-.146-.288-.349-.318-.232.035-.3.349-.431.431a.724.724,0,0,1-.306,0l-.078-.151a.611.611,0,0,0-.073-.272c-.116-.116-.306.035-.5.035s-.3-.035-.34-.155c-.146-.116,0-.272.038-.431s.224-.116.336-.116a.762.762,0,0,0,.349-.043.788.788,0,0,0,.038-.28c0-.116.035-.224.116-.224.194,0,.465.151.646,0a.431.431,0,0,0,.2-.349c0-.164.151-.207.3-.323.267,0,.534.275.7.465ZM35.681,51.2a3.021,3.021,0,0,1-.581.547.431.431,0,0,0-.081-.124,1.292,1.292,0,0,1,.081-.581,2.4,2.4,0,0,1,.581.172Zm-.508-.232v-.151l.035.124a.035.035,0,0,1-.035.038Zm.073-.232a.073.073,0,0,1,.069-.081c0,.091,0,.091-.073.091Zm.116.073c0,.051.078.124,0,.164h-.048c0-.116-.073-.164,0-.164Zm.116-.151h-.048V50.58h.043c0,.086.116.086,0,.086Zm.116.078c0,.073.078.073,0,.124l-.116.073c0-.124-.043-.124,0-.2Zm0,.232h.116v.194c-.038-.065-.116-.065-.116-.181ZM35.1,48.939c0-.043.073-.043.073,0Zm-1.443-.22v.03H33.6Zm-.151,0a.581.581,0,0,1-.465-.224l-.038-.081a.939.939,0,0,1,.568-.272c.151.189,0,.349,0,.581Zm0-.745.078.048c0,.035,0,.035-.078.081h-.232a1.137,1.137,0,0,1-.608-.315v-.2l.34-.151c0-.043.038-.043.038-.155a1.209,1.209,0,0,0-.116-.232,2.712,2.712,0,0,0-.5-.038A.641.641,0,0,1,32,46.895v-.311c0-.069.108-.116.159-.116.138-.116.254-.116.3-.34-.043-.285-.3-.318-.457-.551a.482.482,0,0,1,.159-.431c.065-.116.254-.116.374-.116.232.116.263.383.431.538H33a.676.676,0,0,0,.379-.155l.081-.035a.34.34,0,0,1,.1,0c.159.189.328.374.5.551V46.1h-.146v.035s0-.035-.108-.035l-.081.151c-.038,0-.038,0-.038.035h-.1v.035l-.078.172s-.081,0-.081.069c.081.078.081.116.081.151l.065-.03h0a.078.078,0,0,1-.065.03l-.081-.073-.078-.388V45.67h-.073a4.737,4.737,0,0,0-.038.775,8.892,8.892,0,0,1-.943-1.107,4.551,4.551,0,0,0,.918,1.292l-.757-.069v.069a1.327,1.327,0,0,0,.568.151.888.888,0,0,1,.3,0l.159.116v.151s.078-.116.078,0l-.078.038h.1l-.078.116v.116h.078v.116h-.078v.043h.078c0,.116,0,.116.146.151-.146,0,0,.048-.146,0v.116a.56.56,0,0,0,.185-.03v.03h-.038Zm-1.619-3.192h-.026v.073h-.116c0-.035,0-.073-.038-.073h-.073c.116.073.181.275.288.275h.051c.035,0,0,0,0,.03H31.9l-.151-.03v-.043h-.116c0-.081.073-.159,0-.159h-.116c-.194-.073-.194-.275-.306-.465s.116-.349.232-.616c.078-.431-.379-.595-.611-.9-.035,0-.035-.151-.035-.151.035-.155.224-.155.306-.232.116-.194.038-.318,0-.349s-.272-.2-.272-.318a.921.921,0,0,1,0-.543H31.1c.224,0,.224.272.383.315h.06a9.689,9.689,0,0,0,.628,1.667v.078a5.412,5.412,0,0,0-.861-1.473,9.084,9.084,0,0,0,.431.813,1.382,1.382,0,0,1,.263.616,1.059,1.059,0,0,0-.495-.431h-.035a1.946,1.946,0,0,1,.827,1.176h-.138v.081c0,.035,0,.035.065.035h.064l-.138.081L32,44.156l.159.232v.073l-.086-.073c0,.073-.073.073-.073.116.073.038.159,0,.159.038V44.5a.168.168,0,0,1,.138-.043c0,.03.056.06.091.081s.026,0,.026.035,0-.022-.026-.035h-.091V44.5c-.073,0-.073.038-.138.038V44.7h.065l-.065.078.065.038h-.065v-.035s0,.038-.051.038-.035-.038-.108,0v.035c0,.078.073.078,0,.159l-.086-.081h-.026l.078-.116s0-.038.035-.038Zm-.792-1.22v.116l-.035-.116Zm-.035-.073c0-.073,0-.073.035-.073v.069Zm.035.31h.116v.038c0,.048,0,.048-.078.048H31.1Zm.116-.232h.078v.116h-.043Zm-.272.207.086.03.038.086h-.124Zm-.151,0a3.127,3.127,0,0,1-.293-.28.646.646,0,0,1-.086-.272.4.4,0,0,1,.151-.038.56.56,0,0,1,.465.155Zm5.021-8.132.543,1.322-1.292.538a6.261,6.261,0,0,1,.746-1.858Zm-.069-.207a6.389,6.389,0,0,0-.893,2.156l-1.51.62a7.872,7.872,0,0,1,1.779-4.306l.689,1.666Zm-2.587,2.853-1.266.508a9.224,9.224,0,0,1,2.618-6.313l.508,1.241a8.016,8.016,0,0,0-1.887,4.564Zm0,1.292a8,8,0,0,0,1.89,4.563l-.508,1.236a9.219,9.219,0,0,1-2.622-6.321Zm2.584,2.855-.628,1.529a7.829,7.829,0,0,1-1.783-4.306l1.522.628a6.459,6.459,0,0,0,.891,2.153Zm-.681-2.059,1.292.543-.538,1.292a6.3,6.3,0,0,1-.767-1.83ZM34.659,46.506Zm-.431-.331H34.2s.031-.022.031,0Zm-1.072-.762v.035l-.108-.035a.25.25,0,0,1-.078-.245h0a1.394,1.394,0,0,0,.078-.331c-.038-.038-.116-.038-.189-.081a.4.4,0,0,1-.189-.391.116.116,0,0,1,.06-.108,9.263,9.263,0,0,0,.633.891.046.046,0,0,0,.026.038l.035.038-.073-.035c-.073,0-.073.038-.073.038H33.16v.079s-.108,0-.108.03v.086Zm-.861-1.966.168.318h0c0,.03,0,.116.048.116v.146l-.048.124v.073l-.168.124c-.078-.035,0-.035,0-.116v-.066H32.4v-.318c-.065-.116-.177-.242-.151-.4Zm1.809,4.84v-.038c.035.038.035.038.035.116-.078,0-.078,0-.078-.078Zm.189.159v.069l-.155-.069Zm-.155.2v.013a.03.03,0,0,1-.035-.03V48.5a1.1,1.1,0,0,0-.008.159ZM34,48.515l-.116-.116L34,48.364c.035.035.108.035.108.081-.116.069-.116.069-.151.069Zm.035.232L34,48.786l-.116-.038c0-.078.116-.078.116-.078-.043.078-.008.078-.008.078Zm-.194-.388H33.76a.189.189,0,0,0-.038-.116v-.078h.038c.034.006.077.084.077.2Zm-.035.151c.035,0,.078,0,.078.129h-.116l-.038-.129Zm6.055-3.253.624,1.51a7.859,7.859,0,0,1-4.306-1.783l1.481-.646a6.505,6.505,0,0,0,2.157.913Zm-1.946-.982,1.292-.543.543,1.292a6.411,6.411,0,0,1-1.875-.742Zm3.015,5.013h.108v.043l-.043.073-.065-.073Zm.065-.108h-.065v-.1h.108v.086Zm.038-.116c.051-.03,0-.091.051-.091h.056c0,.06,0,.091-.035.091ZM37.639,33.51l-1.51-.634a7.837,7.837,0,0,1,4.3-1.787l-.633,1.51a6.347,6.347,0,0,0-2.155.911Zm2.071-.7-.53,1.322-1.335-.551a6.313,6.313,0,0,1,1.869-.768Zm.8-1.916a8.016,8.016,0,0,0-4.574,1.9L34.7,32.295a9.254,9.254,0,0,1,6.321-2.627ZM32.941,53.218a11.733,11.733,0,0,1,1.382,2.2l.306.573-5.137,1.529a23.864,23.864,0,0,1,.349-4.306Zm.7,0h2.528L37.949,55l-2.876.861Zm2.929-4.586c.073,0,.073.038.073.038v.078Zm.081,0V48.5c.035,0,.035.129.035.129Zm2.316,2.756v-.035l.116.035h.048l.035.155-.035.073h.056s0,.048-.035.048a.048.048,0,0,0-.048-.048v.124h-.146c-.1-.116-.1-.34.013-.34Zm.457.714v.151l-.349.048a.431.431,0,0,1-.232-.2h.091a.929.929,0,0,1,.5,0Zm0-.929c0,.038.081.038,0,.038v.035c0-.035,0-.035-.116-.035.006-.042.006-.042.122-.042Zm-.116-.078v-.043c0-.073.116-.073.116-.073v.116Zm.349.431.038-.349.267.2-.267.151Zm1.357-.543c-.151-.048-.22.155-.374.232h-.194c-.116-.159-.116-.547-.3-.62,0,0,0-.043-.038-.043a.078.078,0,0,0,0-.03h-.056v-.03h0c-.1-.026-.232.086-.318.177a.861.861,0,0,1,.495.151l.108.4h-.108v.03l-.069-.035.069-.078c-.069,0-.069.078-.108.038l.108-.078-.069-.043s0,.043-.038.043l.038-.043c-.038-.073-.038.043-.086,0l.048-.073h-.069c-.073,0-.073,0-.073.073v-.194c-.116,0-.116.073-.116.073l-.035.048.035-.116h-.035s0,.073-.081,0c0-.043.081-.043,0-.116v.073c-.035-.073-.035-.073,0-.073v-.078a.805.805,0,0,1-.568.151l-.151-.073H39.1v-.078l-.116.078c0-.078.043-.078,0-.078h-.051v-.073c0-.043,0-.2.03-.2s0-.116,0-.116v-.035l.043.035h.116a.035.035,0,0,0,.035-.035c-.035,0-.035-.078-.073-.078a.078.078,0,0,1-.078.078v-.159h.267l.035-.035a.374.374,0,0,1,.3.1h.1c-.043-.086-.146-.129-.2-.224a1.2,1.2,0,0,1,.947.116c.194.035.232.349.194.62h.038c.116-.272,0-.431,0-.581.306.194.452.663.757.737-.267-.224-.431-.581-.641-.771.146,0,.3.035.431.035a.21.21,0,0,0,.232-.2c-.232.116-.431,0-.641,0a1.176,1.176,0,0,1-.51-.042c-.232-.116-.431,0-.6-.116l.371-.232.155-.2a7.068,7.068,0,0,1-1.064.581v-.034c0-.116-.035-.116-.035-.116h.035l-.073-.043v-.043a.116.116,0,0,0,.073.043.03.03,0,0,1,0-.026h0a.048.048,0,0,1,.038,0v.03s0-.081-.069-.081v.035h0c0-.043-.035.038-.035,0l.035-.116h.116c.035-.035,0-.035,0-.081s.151,0,0-.073h-.116a6.589,6.589,0,0,1,.7-.5c.168,0,.331.038.5.051h.022c.116.078.069.28.116.5.116.048.151.155.189.155h.263c.155,0,.189-.073.379,0,.116.081.272.081.34.168.038.306-.224.34-.224.534a1.037,1.037,0,0,0,.31.391.28.28,0,0,1,.069.151c.151.164,0,.358-.069.431l-.267.116s-.043,0-.043-.038c-.224-.013-.258-.242-.414-.358Zm.6.349-.056.056.056-.06Zm4.859-1.454a5.984,5.984,0,0,1,.646-.185c0-.048.073-.048.073-.116h-.073c-.31.116-.53.155-.913.272-.073,0-.224,0-.263-.116A5,5,0,0,1,48.09,49.3h.142a3.677,3.677,0,0,1-1.671.581Zm1.408-1.046c-.189.073-.431.272-.651.272-.038.038-.116,0-.151-.116l.918-.465c.224,0,.431.116.6,0,.159.116.2,0,.267,0-.224.232-.53.272-.757.465a3.988,3.988,0,0,0-.641.159l.431-.232Zm.431-.431c-.048-.038-.078,0-.078-.038l.194-.194h-.116c-.048,0-.078.116-.159.194-.073,0-.142,0-.142-.078.142-.2.53-.232.757-.465a2.049,2.049,0,0,0,.947-.2,1.184,1.184,0,0,1-.714.547,2.458,2.458,0,0,1-.7.232Zm.565-1.464.465-.388V46.7Zm.349-2.079.267-.379v.379a.918.918,0,0,1-.431.551l-.069-.116a2.45,2.45,0,0,0-.689,1.394c-.078.073-.159.194-.267.159C48,46.845,48,46.8,48,46.8v-.431a8.216,8.216,0,0,1,.991-1.162l.336-.267c-.043-.086-.048-.091-.116-.091ZM49.1,46.149a.358.358,0,0,1-.336.224c-.048,0-.159,0-.159-.035s-.03-.03-.03-.155.03-.194.189-.349A2.584,2.584,0,0,0,49.93,44.79c-.315.426-.581.921-.84,1.357Zm.857-.983-.53.671c.026-.263.318-.474.495-.676Zm-1.223.633.28-.306-.189.232-.043.078Zm.727-.581a.462.462,0,0,1-.263.272h-.035l.3-.391s-.069.078-.035.116Zm.641-.711v-.043l-.151.194c0,.043,0,.043-.073.043,0-.043-.116,0-.151-.043a.861.861,0,0,1-.078-.409c.154-.245.3-.495.431-.754a.978.978,0,0,0,0,.391c.069.267.142.418-.013.616Zm-2.3.891-.513-1.236a7.97,7.97,0,0,0,1.9-4.582l1.249-.517A9.237,9.237,0,0,1,47.8,45.4Zm1.394-7.11a8.048,8.048,0,0,0-1.9-4.582l.508-1.241A9.241,9.241,0,0,1,50.432,38.8Zm-2.811-5.495A8.009,8.009,0,0,0,41.811,30.9L41.3,29.665a9.257,9.257,0,0,1,6.33,2.63ZM31.086.465A16.468,16.468,0,0,1,36.76,3.57a25.59,25.59,0,0,1,2.272,2.11,6.6,6.6,0,0,1,1.719,2.364,10.205,10.205,0,0,1,.139,2.05c0,2.132.048,4.259.091,6.368V24.3l-.124.116a18.852,18.852,0,0,0-10.622-8.376C30.457,10.128,30.745,5.891,31.086.465Zm-1.774,1.6h.757s.078-.951.1-.991l.431.1c.151.323-.628,10.816-.9,15.312.5.177.943.431,1.421.62,5.248,1.554,8.931,6.7,9.517,7.523L38.44,26.822a11.884,11.884,0,0,1-2.532-.555c-3.485-1.09-7.789-2.256-11.114-3.444a1.413,1.413,0,0,1,1.387-.646c2.377.654,4.633,1.46,6.916,2.122.9.267,4.5,1.36,5.692,1.537.078,0,.091,0,.03-.035-3.514-1.15-9.474-3.444-13.215-4.246a.808.808,0,0,1,1.025-.452,44.352,44.352,0,0,1,8.513,2.4,45.206,45.206,0,0,0,4.306,1.519c.069,0,.038-.03-.038-.069a43.079,43.079,0,0,0-11.235-4.13l-1.723-.3.7-.956,1.055.06c4.836.349,9.111,1.873,11.733,4.353l.116.116c.146.146.146.073,0-.116A16.488,16.488,0,0,0,36.066,20.7c-.232-.138-.482-.267-.719-.4a23.071,23.071,0,0,0-6.041-2.207c-.306-.051-.581-.129-.9-.168Zm-.961,1.141.5.035c.134.155-.788,10.446-.861,15.17a23.408,23.408,0,0,1,7.38,2.356,34.018,34.018,0,0,0-8.242-1.546c.25-4.061,1.051-15.9,1.217-16.015ZM26.2,5.679h.366S27.813,3.588,27.9,3.5c-.495,4.263-1.037,15.377-1.111,15.933,0,0-.4.59-.727,1.072s-.861,1.09-1.133,1.529c.349-5.452.857-10.912,1.287-16.354ZM25.686,5.6l-.086.991c-.646-.547-1.231-1.034-1.723-1.417C23.968,5.167,24.976,5.409,25.686,5.6Zm-2.308-.315a24.114,24.114,0,0,1,2.187,1.766l-.073.831c-1.445-1.258-2.447-2.153-2.45-2.208Zm-2.8-.242c.038,0,.767.633.767.633l.551-.522,3.561,3.178L25.325,9.9C22.689,7.613,20.4,5.6,20.342,5.408ZM17.689,11.5a16.623,16.623,0,0,1,1.817-6.209c2.063,1.817,3.9,3.444,5.775,5.1L24.2,23.217l4.736,1.421a18.546,18.546,0,0,0,.595,4.461h-.172l-5.521-5.537c-1.446-1.524-2.937-3.061-4.461-4.574a10.167,10.167,0,0,1-1.348-1.546,6.605,6.605,0,0,1-.452-2.881,25.689,25.689,0,0,1,.116-3.091Zm-6.217,6.188a25.689,25.689,0,0,1,3.091-.116,6.389,6.389,0,0,1,2.881.465,10.463,10.463,0,0,1,1.546,1.339c1.51,1.51,3.045,2.98,4.564,4.443L29.1,29.376v.177a18.768,18.768,0,0,0-13.427,1.581c-4.026-4.345-6.817-7.551-10.412-11.626a16.466,16.466,0,0,1,6.21-1.818Zm-6.335,4.2.522-.551s-.616-.727-.633-.767l.383-.232c.336.116,7.2,8.091,10.188,11.462.482-.232.961-.374,1.443-.568,4.823-2.584,11.071-1.572,12.057-1.394v3.1a11.914,11.914,0,0,1-2.2,1.382c-3.212,1.71-7.086,3.928-10.266,5.452a1.413,1.413,0,0,1,.517-1.451c2.153-1.223,4.306-2.243,6.389-3.393.827-.431,4.147-2.218,5.111-2.937.065-.048.056-.078,0-.048-3.3,1.671-9.138,4.276-12.35,6.338a.805.805,0,0,1,.4-1.046,44.353,44.353,0,0,1,7.712-4.306c.891-.4,3.217-1.413,4.133-1.981.06-.038,0-.048-.073,0a43.068,43.068,0,0,0-10.864,5.023l-1.417,1L16.013,35.8l.779-.732c3.664-3.178,7.751-5.12,11.372-5.219h.159c.207,0,.159-.051-.1-.069a16.591,16.591,0,0,0-5.137.5c-.267.069-.53.151-.8.224a22.885,22.885,0,0,0-5.848,2.713c-.254.181-.508.318-.757.522Zm.517,1.15c.2.017,6.834,7.962,10.115,11.338a23.683,23.683,0,0,1,6.884-3.557,34.186,34.186,0,0,0-6.938,4.736C13.033,32.506,5.222,23.567,5.26,23.361Zm-.495.861C7.824,27.261,15.3,35.529,15.632,35.96c0,0,.129.706.242,1.292s.168,1.373.28,1.882c-.9-1.016-1.761-2.059-2.644-3.088h0l-8-9.41.245-.267s-.581-2.359-.581-2.485Zm-.1,3.058.641.757c-.861.069-1.6.142-2.213.211.06-.069.947-.611,1.572-.986ZM6,28.071l.538.638c-1.9.134-3.238.22-3.295.172l-.035-.517A24.677,24.677,0,0,1,6,28.054Zm-3.95,2v-.757l4.758-.27,1.046,1.231c-3.5.232-6.545.431-6.717.331l-.1-.432c.06-.03,1.012-.1,1.012-.1Zm3.634,8.957a25.013,25.013,0,0,1-2.11-2.265A16.468,16.468,0,0,1,.465,31.086c2.743-.172,5.167-.331,7.69-.477l8.323,9.874,4.37-2.359a18.61,18.61,0,0,0,3.575,2.735l-.116.124H16.466c-2.11-.043-4.237-.091-6.378-.091a10.183,10.183,0,0,1-2.046-.138,6.574,6.574,0,0,1-2.363-1.727ZM2.067,53v-.754s-.951-.081-.991-.1l.1-.431c.172-.078,3.221.1,6.717.331l.116-.146.164-.189c-2.506-.146-4.948-.306-7.69-.477a16.506,16.506,0,0,1,3.105-5.675A25.013,25.013,0,0,1,5.7,43.3,6.505,6.505,0,0,1,8.06,41.574a10.18,10.18,0,0,1,2.049-.138c2.132,0,4.259-.048,6.365-.086h7.819l.124.116A18.61,18.61,0,0,0,20.843,44.2l-4.37-2.356L8.156,51.707h0l-.164.189L6.831,53.274Zm1.176.434c.056-.048,1.394.038,3.295.172L6,54.26a24.679,24.679,0,0,1-2.788-.293Zm1.817,1.917c-.624-.374-1.51-.918-1.572-.973.611.073,1.37.146,2.213.215Zm.7.573-.25-.267,8.005-9.37h0c.861-1.029,1.743-2.076,2.644-3.091-.116.508-.155,1.253-.28,1.882s-.242,1.292-.242,1.292C15.3,46.8,7.827,55.053,5.158,58.429c.013-.124.6-2.485.6-2.485Zm-.487,3.015c-.043-.2,7.751-9.141,10.455-12.2a34.186,34.186,0,0,0,6.928,4.739,23.683,23.683,0,0,1-6.89-3.557c-3.284,3.4-9.9,11.321-10.114,11.338Zm-.242,2.8c0-.038.633-.767.633-.767l-.522-.551L15.7,48.586c.25.2.5.34.757.522A22.885,22.885,0,0,0,22.3,51.819c.267.073.53.154.792.224a16.622,16.622,0,0,0,5.142.491c.25,0,.3-.069.1-.069h-.159c-3.608-.1-7.708-2.041-11.372-5.215-.134-.116-.663-.581-.788-.7l.177-1.171,1.421.994A42.4,42.4,0,0,0,28.481,51.4c.078.03.134,0,.073,0-.918-.568-3.242-1.58-4.133-1.981a44.073,44.073,0,0,1-7.712-4.306.813.813,0,0,1-.4-1.046c3.212,2.071,9.043,4.672,12.35,6.343.056.03.065,0,0-.048-.969-.719-4.306-2.485-5.111-2.937-2.084-1.145-4.251-2.153-6.389-3.393a1.408,1.408,0,0,1-.517-1.446c3.178,1.486,7.054,3.7,10.27,5.412A11.916,11.916,0,0,1,29.1,49.372v3.1c-.991.185-7.238,1.2-12.057-1.394-.482-.194-.961-.34-1.443-.568C12.616,53.887,5.743,61.857,5.412,61.974Zm12.418,2.536a6.335,6.335,0,0,1-2.881.465,23.989,23.989,0,0,1-3.091-.116,16.622,16.622,0,0,1-6.212-1.817c3.591-4.074,6.389-7.277,10.412-11.626A18.789,18.789,0,0,0,29.1,52.758v.177l-5.538,5.542c-1.524,1.464-3.061,2.937-4.574,4.448a10.213,10.213,0,0,1-1.546,1.352Zm2.06,12.8a16.411,16.411,0,0,1-1.817-6.209,24.089,24.089,0,0,1-.116-3.1,6.389,6.389,0,0,1,.465-2.881,10.464,10.464,0,0,1,1.339-1.567c1.51-1.51,2.98-3.045,4.443-4.564l5.542-5.542h.177a18.274,18.274,0,0,0-.581,4.483l-4.736,1.417L25.3,71.972C23.408,73.633,21.569,75.235,19.506,77.078Zm2.386.116-.551-.551s-.727.616-.767.633l-.232-.383c.06-.177,2.347-2.207,4.982-4.513l.134,1.607Zm1.486-.129-.336-.388a32.884,32.884,0,0,1,2.45-2.207l.069.835a24.81,24.81,0,0,1-2.183,1.743Zm.508.116c.482-.383,1.068-.861,1.723-1.417l.086.991c-.719.155-1.726.4-1.809.4Zm2.7-.534h-.366c-.431-5.442-.929-10.9-1.292-16.329.28.431.779,1,1.128,1.529l.732,1.072c.073.543.616,11.661,1.111,15.933-.064-.116-1.312-2.2-1.312-2.2Zm2.283,2.424-.518.04c-.168-.116-.969-11.958-1.227-16.014a34.285,34.285,0,0,0,8.258-1.546A23.516,23.516,0,0,1,27.987,63.9c.086,4.728,1.007,15.015.861,15.17Zm1.723,2.091-.431.1c0-.038-.1-.991-.1-.991H29.3l-.883-15.859c.318-.035.595-.116.9-.168a22.843,22.843,0,0,0,6.041-2.235c.242-.134.487-.267.724-.4a16.466,16.466,0,0,0,3.983-3.277c.168-.194.168-.267,0-.116l-.116.116c-2.618,2.48-6.89,4-11.733,4.353l-1.055.052-.7-.961,1.723-.3a43.079,43.079,0,0,0,11.235-4.13c.078-.035.108-.086.038-.069-1.046.25-3.411,1.171-4.306,1.524a44.65,44.65,0,0,1-8.513,2.394c-.482.073-.671.078-1.025-.452,3.734-.805,9.7-3.1,13.215-4.246.06-.022.048-.048-.03-.035-1.193.177-4.793,1.292-5.692,1.537-2.286.663-4.539,1.473-6.916,2.122a1.421,1.421,0,0,1-1.394-.663c3.328-1.171,7.635-2.338,11.118-3.4a11.849,11.849,0,0,1,2.532-.581l2.192,2.2c-.568.827-4.272,5.964-9.512,7.539-.477.2-.918.431-1.417.62.263,4.517,1.046,15.007.891,15.334ZM40.946,65.85c-.043,2.11-.091,4.237-.091,6.378a10.157,10.157,0,0,1-.138,2.046,6.213,6.213,0,0,1-1.723,2.364,25.59,25.59,0,0,1-2.269,2.11,16.468,16.468,0,0,1-5.675,3.105c-.34-5.422-.628-9.658-.861-15.579A18.807,18.807,0,0,0,40.8,57.894l.124.124Zm.194-9.095-4.206-4.22a.348.348,0,0,0,.164-.116.358.358,0,0,0,.116-.391c0-.065,0-.151.038-.151.267-.151.608.151.757-.151.038,0,.038-.081.073-.081.116.081.31.155.388.081a.242.242,0,0,0,.194-.081h.065c0,.155.116.232.194.318,0,.065-.146.065-.116.267.038.038.155.069.2.116.943-.078,1.373-.813,2.316-.973h.22v.116h-.1c-.038,0,0,0,0,.043l-.232-.043c.116.043.116,0,.116.043-.116.073-.116,0-.151,0V51.6h.035c0,.038-.073,0-.073,0l-.035.038c-.081,0-.116.081-.116,0v.081h-.048v.151h-.073l-.185.086H40.59c.048,0,.048,0,0,.065h-.116a.081.081,0,0,1-.116,0V52.1h-.086c-.185.151-.457,0-.611.151l-.146.189c0,.086.116.086.146.2h.116a.986.986,0,0,0,.482-.138,2.286,2.286,0,0,1-.547.043v-.035l-.035-.048a.659.659,0,0,1,.035-.146.431.431,0,0,0,.23-.042.8.8,0,0,1,.474.142,2.433,2.433,0,0,1,.741-.431,1.093,1.093,0,0,1,.611.306,1.37,1.37,0,0,0,1.327.116.331.331,0,0,0,.155-.31v-.051a6.027,6.027,0,0,1-1.141-.495c.477,0,.861.391,1.292.5l-.159-.134c.035,0,.116,0,.185-.155.116,0,.3-.078.431.069v.168l-.361.065a.676.676,0,0,0,.348,0c.073,0,.189-.065.189-.151v-.151c-.491-.232-1.025-.349-1.4-.543a5.675,5.675,0,0,1,1.514.469c.22.081.495.155.684.232a3.118,3.118,0,0,1-.994.391v.03a1.394,1.394,0,0,0,.994.091,1.8,1.8,0,0,0,.943-.361l.194-.7H46.2l.035.038-.185.272c0,.081.03.081.069.081a9.87,9.87,0,0,0,.956-.508l.3-.659s0-.043-.038-.043l-.116-.155a5.361,5.361,0,0,1-1.637.267h-.035a9.474,9.474,0,0,0,3.229-1.046.323.323,0,0,0-.038-.116,3.08,3.08,0,0,1-2.091.581,8.082,8.082,0,0,0,1.481-.5c.491-.285.991-.581,1.373-.822v-.116a3.04,3.04,0,0,1-1.675.551,7.967,7.967,0,0,0,1.481-.668c.31-.348.608-.431.956-.813,0-.038,0-.038-.048-.038a3.355,3.355,0,0,1-.792.508.943.943,0,0,1-.684.267,2.515,2.515,0,0,0,.982-.62c.349-.358.732-.624,1.037-.977l-.043-.03a4.841,4.841,0,0,1-1.335.813A4.466,4.466,0,0,0,51,46.119L50.96,46a9.813,9.813,0,0,1-.732.737,13.263,13.263,0,0,0,1.486-2.059c0-.081-.026-.081-.026-.081-.388.465-.581,1.123-1.223,1.292A7.477,7.477,0,0,0,51.532,44.5c.065-.242.258-.31.258-.581,0,0,0-.035-.078-.035a2.556,2.556,0,0,1-.608.888c.116-.267.272-.581.431-.888.065-.272.3-.431.34-.7h-.081l-.431.654V43.8l.525-1.723h-.031a3.444,3.444,0,0,1-.431.929c-.069,0,0-.043,0-.116l.383-1.171h-.038l-.349.788.349-1.214h-.077l-.181.659c-.155-.465.155-1.046.181-1.438l-.116-.035a3.785,3.785,0,0,1-.374,1.559h-.073l.151-.929-.035-.043-.495,1.783c-.043,0-.043.043-.043,0,0-.581.272-1.128.272-1.554-.038.275-.232.543-.272.9-.142.391-.3.7-.452,1.046l-.164.207a9.9,9.9,0,0,0,1.064-4.466,10.011,10.011,0,0,0-5.3-8.836h6.325V36.6l4.569,4.556L52.188,45.72v6.459H45.729Zm.391-4.836-.035.048h0s.017-.048.051-.048Zm9.133-6.033c0-.035,0-.069.038-.069Zm-2.687,9.526a11.85,11.85,0,0,1,1.378-2.2h3.105a23.93,23.93,0,0,1,.349,4.306l-5.12-1.542c.116-.181.207-.374.306-.56Zm-.745.431-2.876-.861,1.779-1.777h2.523Zm4.009,26.005a16.506,16.506,0,0,1-5.675-3.105,25.011,25.011,0,0,1-2.265-2.11,6.505,6.505,0,0,1-1.723-2.364,10.157,10.157,0,0,1-.138-2.046c0-2.153-.048-4.263-.086-6.368V58.015l.116-.124a18.777,18.777,0,0,0,10.606,8.379C51.862,72.191,51.57,76.427,51.242,81.849Zm1.774-1.6h-.754s-.081.951-.1.991l-.431-.1c-.155-.323.624-10.816.9-15.312-.5-.177-.939-.431-1.421-.616-5.236-1.58-8.935-6.717-9.507-7.544l2.192-2.2a12.1,12.1,0,0,1,2.532.581c3.485,1.068,7.789,2.235,11.118,3.406a1.413,1.413,0,0,1-1.394.663c-2.377-.651-4.633-1.46-6.916-2.119-.9-.267-4.5-1.365-5.692-1.542-.078,0-.091,0-.03.035,3.514,1.15,9.474,3.444,13.215,4.246-.349.53-.543.525-1.025.452A44.648,44.648,0,0,1,47.189,58.8c-.908-.349-3.272-1.292-4.306-1.524-.069,0-.035.035.038.069a43.231,43.231,0,0,0,11.235,4.133l1.723.3-.757.973-1.046-.06c-4.84-.349-9.116-1.873-11.733-4.353l-.116-.116c-.146-.146-.146-.073,0,.116a16.466,16.466,0,0,0,3.983,3.277c.232.138.482.272.724.4a22.964,22.964,0,0,0,6.04,2.22c.306.051.581.134.9.168Zm.964-1.145-.517-.035c-.134-.155.792-10.442.861-15.17a23.515,23.515,0,0,1-7.392-2.35A34.285,34.285,0,0,0,55.19,63.1c-.254,4.078-1.056,15.9-1.223,16.014Zm2.153-2.472h-.366s-1.249,2.091-1.33,2.179c.491-4.259,1.034-15.377,1.107-15.933,0,0,.4-.581.732-1.072s.861-1.09,1.128-1.529c-.371,5.452-.874,10.912-1.3,16.367Zm.53.1.086-.991c.646.547,1.231,1.034,1.723,1.417-.116,0-1.133-.25-1.842-.426Zm2.308.318a25.431,25.431,0,0,1-2.183-1.766l.069-.835C58.3,75.7,59.3,76.6,59.306,76.657Zm2.8.232c-.038,0-.767-.633-.767-.633l-.551.522L56.9,74l.134-1.607c2.636,2.308,4.922,4.337,4.982,4.517Zm2.884-6.459a16.647,16.647,0,0,1-1.811,6.215c-2.063-1.822-3.9-3.444-5.775-5.111l1.064-12.837L53.361,57.7a18.274,18.274,0,0,0-.595-4.461h.177l5.533,5.545c1.464,1.519,2.937,3.058,4.448,4.569a10.214,10.214,0,0,1,1.352,1.542,6.346,6.346,0,0,1,.465,2.881,24.087,24.087,0,0,1-.116,3.075ZM70.876,64.6a23.991,23.991,0,0,1-3.091.116,6.389,6.389,0,0,1-2.881-.465A10.214,10.214,0,0,1,63.357,62.9c-1.51-1.51-3.045-2.98-4.564-4.443l-5.546-5.542v-.172a18.819,18.819,0,0,0,13.427-1.576c4.03,4.34,6.82,7.544,10.412,11.626a16.651,16.651,0,0,1-6.244,1.826Zm6.336-4.195-.565.568s.616.727.633.767l-.383.242c-.331-.116-7.2-8.091-10.188-11.467-.477.232-.961.374-1.443.568-4.823,2.584-11.071,1.576-12.057,1.394V49.372a11.916,11.916,0,0,1,2.2-1.382c3.221-1.723,7.086-3.928,10.27-5.452a1.413,1.413,0,0,1-.512,1.446c-2.153,1.223-4.306,2.248-6.389,3.393-.831.431-4.151,2.222-5.12,2.937-.065.051-.056.078,0,.048,3.3-1.671,9.141-4.272,12.35-6.338a.813.813,0,0,1-.4,1.046,44.609,44.609,0,0,1-7.714,4.3c-.891.4-3.217,1.417-4.133,1.981-.06.038,0,.051.073,0A43,43,0,0,0,64.7,46.331l1.421-.994.177,1.171c-.129.116-.654.581-.788.7-3.664,3.178-7.751,5.124-11.372,5.219h-.159c-.207,0-.155.051.1.069a16.449,16.449,0,0,0,5.132-.5c.267-.069.534-.151.8-.224a22.885,22.885,0,0,0,5.848-2.713c.254-.181.508-.318.757-.517Zm-.517-1.15c-.2,0-6.825-7.94-10.115-11.338a23.683,23.683,0,0,1-6.89,3.557,34.186,34.186,0,0,0,6.938-4.736c2.687,3.053,10.493,11.992,10.455,12.2Zm.5-.861c-2.665-3.358-10.14-11.605-10.476-12.057,0,0-.124-.7-.232-1.292s-.172-1.373-.285-1.882c3.6,4.074,7.1,8.293,10.649,12.444l-.25.267s.56,2.433.565,2.556Zm.1-3.058-.638-.757c.84-.069,1.6-.142,2.207-.211-.091.086-.982.628-1.607,1Zm-.973-1.08-.53-.633c1.907-.134,3.238-.22,3.295-.172l.038.517a24.845,24.845,0,0,1-2.8.288Zm-1.873-2.215c3.5-.232,6.545-.431,6.717-.331l.1.431c-.038,0-.991.1-.991.1V53l-4.763.272L65.834,41.852l-4.367,2.359a18.774,18.774,0,0,0-3.578-2.735l.124-.116h7.833c2.11.038,4.237.086,6.378.086a10.158,10.158,0,0,1,2.046.138,6.213,6.213,0,0,1,2.364,1.723,25.013,25.013,0,0,1,2.11,2.265,16.468,16.468,0,0,1,3.105,5.675c-2.743.172-5.167.331-7.69.477Z" transform="translate(0 0)" fill="#afafaf" fill-rule="evenodd"/>
        </g>
      </g>
    </g>
    <g id="Group_862" data-name="Group 862" transform="translate(-9091 -506)">
      <text id="THSLD_NKAF_V_NNO" data-name="THSLD NKAF V NNO" transform="translate(0 148.43)" fill="#afafaf" font-size="13.26" font-family="SegoeUI, Segoe UI" letter-spacing="0.02em"><tspan x="0" y="0">THSLD NKAF V NNO</tspan></text>
      <text id="V" transform="translate(176.76 148.43)" fill="#afafaf" font-size="13.26" font-family="SegoeUI, Segoe UI" letter-spacing="-0.04em"><tspan x="0" y="0">V</tspan></text>
      <text id="AS" transform="translate(184.5 148.43)" fill="#afafaf" font-size="13.26" font-family="SegoeUI, Segoe UI" letter-spacing="0.02em"><tspan x="0" y="0">AS</tspan></text>
      <text id="Y" transform="translate(204.43 148.43)" fill="#afafaf" font-size="13.26" font-family="SegoeUI, Segoe UI" letter-spacing="-0.06em"><tspan x="0" y="0">Y</tspan></text>
      <text id="A" transform="translate(211 148.43)" fill="#afafaf" font-size="13.26" font-family="SegoeUI, Segoe UI" letter-spacing="0.02em"><tspan x="0" y="0">A</tspan></text>
      <text id="L" transform="translate(219.82 148.43)" fill="#afafaf" font-size="13.26" font-family="SegoeUI, Segoe UI" letter-spacing="0.05em"><tspan x="0" y="0">L</tspan></text>
      <text id="AR" transform="translate(226.71 148.43)" fill="#afafaf" font-size="13.26" font-family="SegoeUI, Segoe UI" letter-spacing="0.02em"><tspan x="0" y="0">AR</tspan></text>
      <text id="ZR_QRANT_MSABQS" data-name="ZR QRANT MSABQS" transform="translate(37.75 164.34)" fill="#afafaf" font-size="13.26" font-family="SegoeUI, Segoe UI" letter-spacing="0.02em"><tspan x="0" y="0">ZR QRANT MSABQS</tspan></text>
    </g>
    <rect id="Rectangle_121" data-name="Rectangle 121" width="131.55" height="0.27" transform="translate(-9035 -378.01)" fill="#afafaf"/>
  </g>
</svg>
