<svg xmlns="http://www.w3.org/2000/svg" viewBox="0 0 243.72 167.67"><defs><style>.cls-1,.cls-2{fill:#8b7736;}.cls-2{font-size:13.26px;font-family:SegoeUI, Segoe UI;letter-spacing:0.02em;}.cls-3{letter-spacing:-0.04em;}.cls-4{letter-spacing:0.02em;}.cls-5{letter-spacing:-0.06em;}.cls-6{letter-spacing:0.02em;}.cls-7{letter-spacing:0.05em;}.cls-8{fill:#8b7836;fill-rule:evenodd;}.cls-9{fill:#fff;}.cls-10{fill:#030001;}.cls-11{fill:#d1a860;}.cls-12{fill:#bca485;}.cls-13{fill:#79655d;}.cls-14{fill:#fbec00;}.cls-15{fill:#00aa5b;}.cls-16{fill:#f9ec00;}.cls-17{fill:#024f98;}.cls-18{fill:#0093c2;}.cls-19{fill:#ec1c24;}.cls-20{fill:#df1e26;}</style></defs><title>Asset 1</title><g id="Layer_2" data-name="Layer 2"><g id="Layer_1-2" data-name="Layer 1"><path class="cls-1" d="M30.93,98.27l-.63-1.4H25.81l-.92,2c-.31.7.31,1.06.72,1.21v.19H22.43v-.19c.36-.13.89-.37,1.4-1.46l3.61-7.86c0-.3-.66-.51-.82-.52v-.19h2.31l3.94,8.67a2.41,2.41,0,0,0,1.38,1.36v.19H30.43v-.19c.35-.14,1-.51.76-1.2C31.11,98.69,31,98.5,30.93,98.27ZM26.24,96h3.65l-1.8-4.1Zm9.33-4.58h.1c.08.2.31.2.47.2H42.4v.82l-5.58,7.13h4.37c.53,0,1-.45,1.31-1.21h.11l-.35,2H35v-.74l5.58-7.14h-4.2c-.37,0-.71.55-.87,1.08h-.11ZM53.5,92.81c0-.7-.23-.91-.66-1.08v-.16h4.67c1.88,0,2.8,1,2.8,2.36s-1,2.36-2.82,2.36l2.44,2.91a3.11,3.11,0,0,0,1.13.91v.17H59l-3.77-4.53v-.2H57.3a1.47,1.47,0,0,0,1.44-1.62,1.44,1.44,0,0,0-1.44-1.59h-2c-.25,0-.42,0-.42.41v6.32c0,.67.22.89.66,1v.17H52.84v-.17c.44-.16.66-.37.66-1Zm8.93,7.47v-.17c.43-.16.66-.37.66-1V92.81c0-.7-.23-.91-.66-1.08v-.16h5c1.19,0,2.7.36,2.7,2.17a2.27,2.27,0,0,1-.79,1.76,2.35,2.35,0,0,1,1.42,2.25c0,1.88-1.71,2.54-3,2.54Zm2-7.94v2.89h2.79a1.29,1.29,0,0,0,1.41-1.46c0-1.25-.8-1.43-1.47-1.43Zm0,6.93c0,.12.1.22.18.22h3a1.57,1.57,0,0,0,1.52-1.76c0-.88-.46-1.73-1.36-1.73H64.46Zm14-.7L78,97.38H74.13l-.78,1.71c-.25.6.27.9.62,1v.17H71.25v-.17c.32-.1.76-.32,1.2-1.24l3.08-6.7c0-.26-.56-.43-.7-.45v-.16h2L80.15,99a2,2,0,0,0,1.18,1.16v.17H78.07v-.17c.29-.11.87-.43.64-1Zm-4-2h3.11l-1.53-3.49Zm11-.25v2.94a.84.84,0,0,0,.66.83v.17H83.45v-.17a.82.82,0,0,0,.68-.82V96.7l-3-4.12a1.79,1.79,0,0,0-1-.84v-.16H83v.16c-.25.08-.62.24-.3.68L85,95.57l2.44-3.14c.32-.41,0-.62-.33-.69v-.16h2.36v.16a1.06,1.06,0,0,0-.71.46Zm8.86,3.37a3,3,0,0,0,3-2h.12l-.17,1.78a6,6,0,0,1-3.14,1,4.57,4.57,0,1,1,0-9.13,6.94,6.94,0,0,1,2.92.67,1,1,0,0,0,.13-.07h.1l-.16,1.93H97a2.63,2.63,0,0,0-2.67-1.76,3.81,3.81,0,0,0,0,7.59Zm10.91-1.14-.54-1.2h-3.82l-.78,1.71c-.26.6.26.9.62,1v.17H98v-.17c.32-.1.77-.32,1.2-1.24l3.08-6.7c0-.26-.56-.43-.7-.45v-.16h2L106.92,99a2,2,0,0,0,1.18,1.16v.17h-3.26v-.17c.3-.11.88-.43.64-1C105.41,98.93,105.33,98.76,105.26,98.58Zm-4-2h3.11l-1.53-3.49Zm16.14,3.69h-1l-6-7v5.89a.89.89,0,0,0,.66.95v.17h-2.23v-.17a.87.87,0,0,0,.67-.95V92.65a.92.92,0,0,0-.67-.91v-.16h2l5.64,6.49V92.7a.9.9,0,0,0-.67-1v-.16h2.22v.16a.89.89,0,0,0-.65,1Zm6.49-8.77c0-.83-.27-1.07-.78-1.27v-.19h5.49c2.21,0,3.29,1.23,3.29,2.78s-1.12,2.77-3.32,2.77L131.45,99a3.66,3.66,0,0,0,1.33,1.07v.19h-2.39L126,95v-.23h2.41a1.73,1.73,0,0,0,1.69-1.89A1.7,1.7,0,0,0,128.37,91H126c-.29,0-.48,0-.48.48v7.43c0,.78.25,1,.77,1.22v.19h-3.16v-.19c.51-.18.78-.44.78-1.22Zm12.4.83v3.09H139c.33,0,.46-.37.55-.9h.11l-.17,2.52h-.1c0-.38-.14-.84-.4-.84h-2.7v3.05c0,.17.08.26.18.26h3.4c.64,0,1-.7,1.18-1.21h.12l-.39,2h-6.57v-.17c.43-.16.65-.37.65-1V92.81c0-.7-.22-.91-.65-1.08v-.16h6.41a.28.28,0,0,0,.24-.1H141l-.19,2h-.1c0-.35-.11-1.09-.5-1.09Zm6.15,5.38h.12a3,3,0,0,0,3.16,2c1.17,0,2.49-.51,2.49-1.69,0-1-1.06-1.32-2.24-1.63-1.57-.41-3.31-.85-3.31-2.61s1.79-2.45,3.54-2.45a4.32,4.32,0,0,1,2.33.57c.06,0,.13,0,.31-.1H149v1.92h-.11c-.16-1.42-1.89-1.63-2.67-1.63-1.13,0-2.15.44-2.15,1.42,0,.71,1.42,1.06,2.08,1.24,1.58.41,3.47,1,3.47,3.05s-2.05,2.73-4,2.68a5,5,0,0,1-3.1-1Zm9.27-4.92c0-.7-.22-.91-.66-1.08v-.16h4.67c1.88,0,2.8,1,2.8,2.36s-.94,2.36-2.8,2.36h-2.65v2.78c0,.67.23.89.66,1v.17h-2.69v-.17c.43-.16.66-.37.66-1Zm1.78-.49c-.24,0-.42,0-.42.42v2.81h2.43a1.63,1.63,0,0,0,0-3.23Zm14,3.73c0,3-1.8,4.45-3.63,4.45S160.17,99,160.17,96V92.81c0-.69-.23-.9-.67-1.08v-.16h2.76v.16a.91.91,0,0,0-.64,1v3.14c0,2.55,1.25,3.84,2.55,3.84s2.45-1.2,2.45-3.61V92.81c0-.69-.22-.9-.65-1.08v-.16h2.22v.16c-.44.17-.67.38-.67,1.08Zm2,4.23v-.17c.43-.16.66-.37.66-1V92.81c0-.7-.23-.91-.66-1.08v-.16h5c1.18,0,2.7.36,2.7,2.17a2.25,2.25,0,0,1-.8,1.76,2.34,2.34,0,0,1,1.43,2.25c0,1.88-1.71,2.54-3,2.54Zm2-7.94v2.89h2.79a1.3,1.3,0,0,0,1.42-1.46c0-1.25-.81-1.43-1.47-1.43Zm0,6.93c0,.12.1.22.18.22h3a1.57,1.57,0,0,0,1.52-1.76c0-.88-.45-1.73-1.37-1.73h-3.29Zm14.11,1h-6.39v-.17a.87.87,0,0,0,.65-.95V92.81c0-.7-.21-.9-.65-1.08v-.16H182v.16c-.42.17-.66.4-.66,1.08v6.31c0,.32.11.4.29.4h3c.53,0,1-.47,1.3-1.21H186Zm4.14-8.71v.16c-.43.17-.66.4-.66,1.08v6.4a.8.8,0,0,0,.66.9v.17h-2.69v-.17a.81.81,0,0,0,.66-.9v-6.4c0-.7-.21-.9-.66-1.08v-.16Zm-1.5-2.23a.79.79,0,1,1-.66.77A.69.69,0,0,1,188.3,89.34Zm5.88,2.23v.16a1,1,0,0,0-.67,1.08v3.5L197,92.48a.1.1,0,0,0,0-.06c.28-.32.11-.63-.3-.68v-.16H199v.16a4.12,4.12,0,0,0-1.28,1l-2.37,2.61,3,3.8a2.55,2.55,0,0,0,1.13.94v.17h-2.1l-3-3.84-.9,1v1.7a.85.85,0,0,0,.67.95v.17h-2.7v-.17a.87.87,0,0,0,.66-.95V92.81c0-.7-.22-.9-.66-1.08v-.16Zm12.49,7-.53-1.2h-3.82l-.78,1.71c-.26.6.26.9.62,1v.17h-2.72v-.17c.31-.1.76-.32,1.19-1.24l3.08-6.7c0-.26-.57-.43-.71-.45v-.16h2L208.33,99a2.06,2.06,0,0,0,1.18,1.16v.17h-3.26v-.17c.3-.11.87-.43.64-1C206.82,98.93,206.75,98.76,206.66,98.58Zm-4-2h3.12l-1.53-3.49ZM210,97.73h.12c.4,1.63,2,2,3.16,2s2.49-.51,2.49-1.69c0-1-1.06-1.32-2.24-1.63-1.58-.41-3.31-.85-3.31-2.61s1.79-2.45,3.54-2.45a4.35,4.35,0,0,1,2.34.57l.31-.1h.11v1.92h-.11c-.16-1.42-1.89-1.63-2.67-1.63-1.12,0-2.15.44-2.15,1.42,0,.71,1.42,1.06,2.08,1.24,1.58.41,3.47,1,3.47,3.05s-2.06,2.73-4,2.68a5,5,0,0,1-3.1-1Zm11.29-6.16v.16c-.41.17-.66.4-.66,1.08v6.4a.8.8,0,0,0,.66.9v.17h-2.69v-.17a.81.81,0,0,0,.66-.9v-6.4c0-.7-.21-.9-.66-1.08v-.16ZM47.19,91.36a6.88,6.88,0,0,0-2.87.68.48.48,0,0,0-.15-.08H44l0,2h.12A2.61,2.61,0,0,1,47,92.13a3.51,3.51,0,0,1,3.5,3.77c0,.06,0,.12,0,.18H43.39a4.44,4.44,0,0,0,0,.46v.27h0A3.93,3.93,0,0,0,46,100.27h0a5.55,5.55,0,0,0,1.3.18A4.46,4.46,0,0,0,52,95.93,4.52,4.52,0,0,0,47.19,91.36Zm.13,8.32a3.73,3.73,0,0,1-1.08-.16,2.77,2.77,0,0,1-1.63-2.71h5.81A3.08,3.08,0,0,1,47.31,99.69Zm17.36,16.78v.19H61.52v-.19a1,1,0,0,0,.78-1.11v-7.95H59.87c-.9,0-1.24.66-1.46,1.3h-.14l.21-2.28h9.24l.21,2.28h-.15c-.23-.64-.56-1.3-1.46-1.3H63.89v7.95A1,1,0,0,0,64.67,116.47ZM87.14,108v.16c-.43.18-.66.39-.66,1.08v6.36a.88.88,0,0,0,.66.95v.16H84.45v-.16a.88.88,0,0,0,.67-.95v-2.93H80v2.93a.85.85,0,0,0,.66.95v.16H77.92v-.16a.87.87,0,0,0,.67-.95v-6.36c0-.71-.23-.9-.67-1.08V108h2.69v.16c-.42.16-.66.4-.66,1.08v2.66h5.16v-2.66c0-.69-.23-.9-.67-1.08V108Zm1.44,6.16h.12c.41,1.63,2,2,3.16,2s2.48-.5,2.48-1.69c0-1-1.06-1.32-2.24-1.63-1.57-.41-3.31-.84-3.31-2.61s1.79-2.45,3.54-2.45a4.34,4.34,0,0,1,2.35.57l.3-.1h.13v1.92H95c-.15-1.41-1.88-1.63-2.67-1.63-1.13,0-2.15.45-2.15,1.42,0,.71,1.43,1.06,2.08,1.24,1.58.41,3.47,1,3.47,3.05s-2.06,2.73-4,2.68a5,5,0,0,1-3.1-1ZM99.88,108v.16c-.42.16-.66.4-.66,1.08v6.4a.8.8,0,0,0,.66.9v.16H97.19v-.16a.81.81,0,0,0,.65-.9v-6.4c0-.71-.21-.9-.65-1.08V108Zm-1.5-2.24a.72.72,0,0,1,.68.79.68.68,0,1,1-1.34,0A.69.69,0,0,1,98.38,105.71Zm9.57,10.95h-6.39v-.16a.86.86,0,0,0,.66-.95v-6.36c0-.71-.21-.9-.66-1.08V108h2.69v.16c-.43.16-.66.4-.66,1.08v6.31c0,.31.11.4.29.4h3c.53,0,1-.47,1.3-1.21h.12Zm15.06,0h-1.14l-7.09-8.22v6.92a1,1,0,0,0,.78,1.11v.19h-2.62v-.19a1,1,0,0,0,.79-1.11V107.7a1.09,1.09,0,0,0-.79-1.07v-.19h2.38l6.62,7.62v-6.3a1,1,0,0,0-.77-1.13v-.19h2.6v.19a1,1,0,0,0-.76,1.13Zm8.71-1.71-.53-1.2h-3.82l-.78,1.71c-.26.59.26.9.62,1v.16h-2.72v-.16c.32-.1.76-.32,1.2-1.24l3.08-6.69c0-.26-.56-.43-.69-.45V108h2l3.36,7.39a2,2,0,0,0,1.18,1.16v.16H131.3v-.16c.3-.12.87-.43.64-1C131.88,115.3,131.79,115.14,131.72,115Zm-4-2h3.11l-1.54-3.49Zm8.15-5.22H136c.08.2.31.2.46.2h6.26v.82l-5.59,7.13h4.38c.53,0,1-.44,1.32-1.21h.11l-.34,2h-7.27v-.74l5.57-7.14h-4.2c-.36,0-.72.55-.86,1.08h-.11Zm11.1.2v.16c-.43.16-.66.4-.66,1.08v6.4a.8.8,0,0,0,.66.9v.16H144.3v-.16a.82.82,0,0,0,.65-.9v-6.4c0-.71-.22-.9-.65-1.08V108Zm-1.5-2.24a.8.8,0,1,1-.66.77A.7.7,0,0,1,145.48,105.71Zm3.84,3.48c0-.71-.23-.91-.66-1.08V108h4.67c1.89,0,2.8,1,2.8,2.36s-.95,2.36-2.82,2.36l2.44,2.9a3.2,3.2,0,0,0,1.12.91v.16h-2l-3.77-4.53v-.2h2.06a1.48,1.48,0,0,0,1.44-1.62,1.45,1.45,0,0,0-1.44-1.59h-2c-.24,0-.41,0-.41.41v6.32c0,.67.22.89.66,1v.16h-2.69v-.16c.43-.15.66-.37.66-1Zm15.31,7.47h-6.39v-.16a.86.86,0,0,0,.65-.95v-6.36c0-.71-.21-.9-.65-1.08V108h2.69v.16c-.42.16-.66.4-.66,1.08v6.31c0,.31.11.4.29.4h3c.54,0,1-.47,1.31-1.21H165Zm3.95-8.71v.16c-.42.16-.66.4-.66,1.08v6.4a.8.8,0,0,0,.66.9v.16h-2.69v-.16a.81.81,0,0,0,.66-.9v-6.4c0-.71-.21-.9-.66-1.08V108Zm-1.5-2.24a.73.73,0,0,1,.68.79.68.68,0,1,1-1.35,0A.7.7,0,0,1,167.08,105.71Zm7.55,7v2.94a.84.84,0,0,0,.66.83v.16h-2.71v-.16a.84.84,0,0,0,.68-.82v-2.6l-3-4.12a1.81,1.81,0,0,0-1-.84V108h2.86v.16c-.25.08-.62.25-.31.68l2.24,3.15,2.43-3.14c.32-.41,0-.62-.33-.69V108h2.36v.16a1,1,0,0,0-.71.46ZM182,108v.16c-.42.16-.66.4-.66,1.08v6.4a.8.8,0,0,0,.66.9v.16H179.3v-.16a.82.82,0,0,0,.66-.9v-6.4c0-.71-.21-.9-.66-1.08V108Zm-1.5-2.24a.72.72,0,0,1,.67.79.68.68,0,1,1-1.34,0A.7.7,0,0,1,180.49,105.71Zm-108.4,1.94a6.9,6.9,0,0,0-2.87.68.51.51,0,0,0-.15-.08H69l0,2h.13a2.59,2.59,0,0,1,2.76-1.78,3.5,3.5,0,0,1,3.49,3.77v.18H68.31a2.66,2.66,0,0,0,0,.45v.28h0a3.94,3.94,0,0,0,2.58,3.46h0a5.66,5.66,0,0,0,1.29.18,4.46,4.46,0,0,0,4.75-4.53A4.52,4.52,0,0,0,72.09,107.66Zm.13,8.32a3.51,3.51,0,0,1-1.07-.16,2.75,2.75,0,0,1-1.64-2.71h5.8A3.07,3.07,0,0,1,72.22,116Z"/><text class="cls-2" transform="translate(0 148.43)">TƏHSİLDƏ İNKİŞAF VƏ İNNO<tspan class="cls-3" x="176.76" y="0">V</tspan><tspan class="cls-4" x="184.5" y="0">ASİ</tspan><tspan class="cls-5" x="204.43" y="0">Y</tspan><tspan class="cls-6" x="211" y="0">A</tspan><tspan class="cls-7" x="219.82" y="0">L</tspan><tspan class="cls-4" x="226.71" y="0">AR</tspan><tspan x="37.75" y="15.91">ÜZRƏ QRANT MÜSABİQƏSİ</tspan></text><rect class="cls-1" x="56.09" y="127.99" width="131.55" height="0.27"/><path class="cls-8" d="M106.77,74.82c-.69.17-1.68.41-1.75.42.47-.37,1-.85,1.67-1.38l.08,1Zm26.85-39.56V32.8l2.57,1.39-.84,2.8-1.74-1.74Zm0-3.14a11.69,11.69,0,0,0,2.15,1.35c3.14,1.67,6.91,3.83,10,5.31a1.38,1.38,0,0,0-.5-1.41c-2.09-1.19-4.2-2.19-6.23-3.31-.81-.44-4-2.17-5-2.87-.06,0-.05-.07,0,0,3.22,1.63,8.91,4.17,12,6.18.12-.61,0-.74-.4-1a43.29,43.29,0,0,0-7.52-4.21c-.87-.39-3.14-1.38-4-1.93-.06,0,0,0,.07,0,3.12,1.13,6.95,2.33,10.6,4.9l1.38,1,.17-1.14-.77-.68c-3.58-3.1-7.57-5-11.09-5.09h-.15c-.2,0-.15-.05.09-.07a16.18,16.18,0,0,1,5,.49l.77.22a22.36,22.36,0,0,1,5.7,2.64c.25.18.49.31.74.51L157,21.35l-.51-.54s.6-.71.62-.75h0l-.37-.23c-.33.12-7,7.89-9.94,11.18-.47-.22-.94-.36-1.41-.55-4.7-2.53-10.79-1.54-11.76-1.36v3Zm0-3.31v-.17l5.4-5.4c1.48-1.43,3-2.86,4.46-4.34A9.92,9.92,0,0,1,145,17.59h0a6.17,6.17,0,0,1,2.81-.45,24.85,24.85,0,0,1,3,.11A16,16,0,0,1,156.86,19c-3.5,4-6.23,7.1-10.15,11.33a18.31,18.31,0,0,0-13.09-1.54Zm-.27-.44h-.17a18.07,18.07,0,0,0,.58-4.35l-.52.16a23.18,23.18,0,0,1-.34,4.2h-3a11.6,11.6,0,0,1-1.35-2.15l-.3-.56,10.17-3-1.06-12.53c1.83-1.63,3.62-3.2,5.63-5h0a16,16,0,0,1,1.77,6.05,24.13,24.13,0,0,1,.11,3A6.18,6.18,0,0,1,144.4,17a10.05,10.05,0,0,1-1.32,1.51c-1.47,1.47-2.91,3-4.33,4.45l-5.41,5.41Zm-4.16,0L127.8,25.8l-2.8.84,1.74,1.74Zm-4.68-2.22L122.37,24c.55-.81,4.16-5.82,9.27-7.36.47-.2.9-.43,1.39-.6-.27-4.39-1-14.62-.88-14.93l.43-.1s.09,1,.09,1l.74,0,.88,15.45c-.31,0-.58.11-.88.16a22.35,22.35,0,0,0-5.9,2.16l-.7.39a16.1,16.1,0,0,0-3.89,3.2c-.16.19-.16.26,0,.11l.11-.11c2.55-2.42,6.72-3.9,11.44-4.24l1-.06.68.93-1.67.29c-4.39.76-7.95,2.63-11,4-.07,0-.11.08,0,.07,1-.24,3.33-1.14,4.22-1.48a43.37,43.37,0,0,1,8.3-2.34c.47-.07.66-.07,1,.44-3.64.79-9.46,3-12.89,4.14-.06,0,0,0,0,0,1.16-.17,4.67-1.24,5.56-1.5,2.23-.65,4.43-1.43,6.74-2.07a1.37,1.37,0,0,1,1.35.64c-3.24,1.14-7.44,2.28-10.84,3.32a11.64,11.64,0,0,1-2.47.56Zm-2.34-2.34a18.31,18.31,0,0,1,10.34-8.17c-.22-5.77-.5-9.9-.83-15.19a16,16,0,0,0-5.53,3,24.64,24.64,0,0,0-2.21,2.06,6.17,6.17,0,0,0-1.67,2.31,9.89,9.89,0,0,0-.13,2c0,2.08,0,4.16-.08,6.22h0V23.7l.12.12Zm-.5-.12-.12.12a18.31,18.31,0,0,0-10.34-8.17c.22-5.77.5-9.9.83-15.19h0a16,16,0,0,1,5.53,3,24.65,24.65,0,0,1,2.21,2.06,6.17,6.17,0,0,1,1.67,2.31,9.88,9.88,0,0,1,.14,2c0,2.08,0,4.15.08,6.21V23.7Zm-.32.32c-.55-.81-4.16-5.82-9.27-7.36-.47-.2-.9-.43-1.39-.6.27-4.39,1-14.62.88-14.93l-.43-.1S111,2,111,2l-.74,0h0l-.88,15.45c.31,0,.58.11.88.16a22.36,22.36,0,0,1,5.9,2.16l.7.39a16.1,16.1,0,0,1,3.89,3.2c.16.19.16.26,0,.11l-.11-.11c-2.55-2.42-6.72-3.9-11.44-4.24l-1-.06-.68.93,1.67.29c4.39.76,7.95,2.63,11,4,.07,0,.11.08,0,.07-1-.24-3.33-1.14-4.22-1.48a43.36,43.36,0,0,0-8.3-2.34c-.47-.07-.66-.07-1,.44,3.64.79,9.46,3,12.89,4.14.06,0,0,0,0,0-1.17-.17-4.67-1.24-5.56-1.5-2.23-.65-4.43-1.43-6.74-2.07a1.37,1.37,0,0,0-1.35.64c3.24,1.14,7.44,2.28,10.84,3.32a11.65,11.65,0,0,0,2.47.56L121.35,24Zm-2.62,2.62L117,28.38h-2.46l1.39-2.57,2.8.84Zm-4.88,1.74h-3a23.15,23.15,0,0,1-.34-4.2l5,1.49-.3.56a11.64,11.64,0,0,1-1.35,2.15Zm-3.31,0h-.17L105,23c-1.43-1.48-2.86-3-4.34-4.46A9.88,9.88,0,0,1,99.32,17a6.16,6.16,0,0,1-.45-2.81,25,25,0,0,1,.11-3h0a16.06,16.06,0,0,1,1.77-6.05c2,1.77,3.8,3.35,5.63,5l-1.06,12.53L110,24a18.07,18.07,0,0,0,.58,4.35Zm-.44.27v.17A18.31,18.31,0,0,0,97,30.35C93.09,26.12,90.36,23,86.86,19a16.06,16.06,0,0,1,6.05-1.77h0a24.63,24.63,0,0,1,3-.11,6.16,6.16,0,0,1,2.81.45,9.84,9.84,0,0,1,1.51,1.32c1.47,1.47,3,2.91,4.45,4.33l5.41,5.41Zm0,.45v3A11.64,11.64,0,0,1,108,33.47c-3.14,1.67-6.91,3.83-10,5.31a1.37,1.37,0,0,1,.5-1.41c2.09-1.19,4.2-2.19,6.23-3.31.81-.44,4-2.17,5-2.87.06,0,.05-.07,0,0-3.22,1.63-8.91,4.17-12,6.18-.12-.61,0-.73.4-1a43.38,43.38,0,0,1,7.52-4.21c.87-.39,3.14-1.38,4-1.93.06,0,0,0-.07,0-3.12,1.13-6.95,2.33-10.59,4.9l-1.38,1-.18-1.14.77-.68c3.58-3.1,7.57-5,11.09-5.09h.15c.2,0,.15-.05-.09-.07a16.09,16.09,0,0,0-5,.49l-.77.22a22.37,22.37,0,0,0-5.7,2.64c-.25.18-.49.31-.74.51L86.74,21.35h0l.51-.54s-.6-.71-.62-.75l.37-.23c.33.12,7,7.89,9.94,11.18.47-.22.94-.36,1.41-.55,4.7-2.52,10.79-1.53,11.76-1.36Zm0,3.71-2.57,1.39.84,2.8,1.74-1.74V32.8Zm-2.22,4.68a11.64,11.64,0,0,0-.56-2.47h0l-.18-.6-4.6,2.49a23.24,23.24,0,0,0,3.21,2.73l2.14-2.14Zm-2.34,2.34a18.09,18.09,0,0,1-3.49-2.67l-4.26,2.3-8.12-9.61c-2.45.14-4.83.3-7.5.46a16,16,0,0,0,3,5.53,24.75,24.75,0,0,0,2.06,2.21h0a6.16,6.16,0,0,0,2.31,1.67,9.85,9.85,0,0,0,2,.14c2.08,0,4.16,0,6.22.08h7.64l.12-.12Zm-.12.5.12.12a18.1,18.1,0,0,0-3.49,2.67l-4.26-2.3L88.39,51.95l-4.65-.27h0l0-.74s-.93-.08-1-.09l.1-.43c.17-.08,3.14.1,6.55.32l.28-.33c-2.45-.14-4.83-.3-7.5-.46a16.06,16.06,0,0,1,3-5.53,24.63,24.63,0,0,1,2.06-2.21,6.17,6.17,0,0,1,2.31-1.67,10,10,0,0,1,2-.14c2.08,0,4.15,0,6.21-.08Zm.32.32a23.29,23.29,0,0,0-3.21,2.73l4.6,2.49.18-.6a11.63,11.63,0,0,0,.56-2.47l-2.14-2.14Zm2.62,2.62L110.1,45v2.46l-2.57-1.39.84-2.8Zm1.74,4.88A11.65,11.65,0,0,0,108,46.79c-3.14-1.67-6.91-3.83-10-5.31a1.37,1.37,0,0,0,.5,1.41c2.09,1.19,4.2,2.19,6.23,3.31.81.44,4,2.17,5,2.87.06,0,.05.07,0,0-3.22-1.63-8.91-4.17-12-6.18-.12.61,0,.73.4,1a43.3,43.3,0,0,0,7.52,4.21c.87.39,3.13,1.38,4,1.93.06,0,0,0-.07,0-3.12-1.13-7-2.33-10.6-4.9l-1.38-1-.18,1.15.77.68c3.58,3.1,7.57,5,11.09,5.09h.15c.2,0,.15.05-.09.07a16.12,16.12,0,0,1-5-.49l-.77-.22a22.36,22.36,0,0,1-5.7-2.64c-.25-.18-.49-.31-.74-.51L86.74,58.92l.51.54s-.6.71-.62.75h0l.37.23c.33-.12,7-7.89,9.94-11.18.47.22.94.36,1.41.55,4.7,2.53,10.8,1.54,11.76,1.36v-3Zm0,3.31A18.31,18.31,0,0,1,97,49.91c-3.93,4.24-6.65,7.36-10.15,11.33A16,16,0,0,0,92.91,63a24.63,24.63,0,0,0,3,.11,6.16,6.16,0,0,0,2.81-.45h0a9.86,9.86,0,0,0,1.51-1.32c1.47-1.47,3-2.91,4.46-4.34l5.4-5.4v-.17Zm.27.44L105,57.3c-1.43,1.48-2.86,3-4.33,4.45a10,10,0,0,0-1.32,1.51,6.18,6.18,0,0,0-.45,2.81,24.62,24.62,0,0,0,.11,3,16.07,16.07,0,0,0,1.77,6.05h0c2-1.77,3.8-3.35,5.63-5l-1.06-12.53L110,56.24a18.07,18.07,0,0,1,.58-4.35Zm.45,0h3A11.64,11.64,0,0,1,115.2,54l.3.56-5,1.49a23.2,23.2,0,0,1,.34-4.19Zm3.71,0,1.39,2.57,2.8-.84L117,51.89Zm4.68,2.22a11.67,11.67,0,0,0-2.47.57c-3.4,1-7.59,2.18-10.84,3.32a1.38,1.38,0,0,0,1.35.64c2.32-.64,4.52-1.42,6.74-2.07.88-.26,4.39-1.33,5.56-1.5.08,0,.09,0,0,0-3.43,1.12-9.25,3.35-12.89,4.14.35.51.53.51,1,.44a43.33,43.33,0,0,0,8.3-2.34c.89-.34,3.19-1.24,4.22-1.48.07,0,0,0,0,.06-3,1.4-6.56,3.27-11,4l-1.67.29.69.93,1-.06c4.72-.34,8.88-1.82,11.44-4.25l.11-.11c.14-.14.14-.07,0,.11a16.17,16.17,0,0,1-3.89,3.2l-.7.39a22.35,22.35,0,0,1-5.9,2.16c-.3.05-.57.13-.88.16l.88,15.45.74,0s.08.93.09,1l.43-.1c.15-.31-.61-10.54-.88-14.93.49-.17.92-.41,1.39-.6,5.11-1.54,8.72-6.55,9.27-7.36l-2.14-2.14Zm2.34,2.34.12.12v7.64h0c0,2.06-.08,4.13-.08,6.22a9.94,9.94,0,0,1-.14,2,6.17,6.17,0,0,1-1.67,2.31,24.7,24.7,0,0,1-2.21,2.06,16,16,0,0,1-5.53,3c-.33-5.29-.61-9.42-.83-15.19a18.31,18.31,0,0,0,10.34-8.17Zm.5.12.12-.12a18.31,18.31,0,0,0,10.34,8.17c-.22,5.77-.5,9.91-.83,15.19h0a16.06,16.06,0,0,1-5.53-3,24.41,24.41,0,0,1-2.21-2.06,6.17,6.17,0,0,1-1.67-2.31,10,10,0,0,1-.13-2c0-2.08,0-4.15-.08-6.21V56.57Zm.32-.32c.56.81,4.17,5.82,9.27,7.36.47.2.9.43,1.39.6-.27,4.39-1,14.62-.88,14.93l.43.1s.1-1,.1-1l.74,0h0l.88-15.45c-.31,0-.58-.11-.88-.16a22.39,22.39,0,0,1-5.9-2.16l-.7-.39a16.09,16.09,0,0,1-3.89-3.2c-.16-.19-.16-.26,0-.11l.11.11c2.55,2.42,6.72,3.91,11.44,4.25l1,.06.69-.93L134.5,60c-4.39-.76-7.95-2.63-11-4-.07,0-.11-.08,0-.06,1,.24,3.33,1.14,4.22,1.48a43.36,43.36,0,0,0,8.3,2.34c.47.07.66.07,1-.44-3.64-.79-9.46-3-12.89-4.14-.06,0,0,0,0,0,1.16.17,4.67,1.24,5.56,1.5,2.23.65,4.43,1.43,6.74,2.07a1.37,1.37,0,0,0,1.35-.64c-3.25-1.14-7.44-2.28-10.84-3.32a11.66,11.66,0,0,0-2.47-.56l-2.14,2.14ZM125,53.63l1.74-1.74h2.46l-1.39,2.57-2.8-.84Zm4.88-1.74h3a23.28,23.28,0,0,1,.34,4.19l-5-1.49.3-.56a11.71,11.71,0,0,1,1.35-2.15Zm7.44,18.7c2.57,2.25,4.8,4.23,4.86,4.4l-.23.37s-.75-.62-.75-.62l-.54.51-3.47-3.1.13-1.57Zm0-.43,1.05-12.53-4.64-1.38a18.11,18.11,0,0,0-.58-4.35h.17l5.4,5.4c1.43,1.48,2.86,3,4.34,4.46a9.92,9.92,0,0,1,1.32,1.51,6.18,6.18,0,0,1,.45,2.81,24.87,24.87,0,0,1-.11,3h0A16,16,0,0,1,143,75.14c-2-1.77-3.8-3.35-5.63-5Zm-3.72-18.54v-.17a18.32,18.32,0,0,0,13.09-1.54c3.93,4.24,6.65,7.36,10.16,11.33A16.05,16.05,0,0,1,150.81,63h0a24.29,24.29,0,0,1-3,.11,6.17,6.17,0,0,1-2.81-.45,10,10,0,0,1-1.51-1.32c-1.47-1.47-3-2.91-4.45-4.33l-5.41-5.41Zm0-.45v-3a11.62,11.62,0,0,1,2.15-1.35c3.14-1.67,6.91-3.83,10-5.32a1.37,1.37,0,0,1-.5,1.41c-2.09,1.19-4.2,2.19-6.23,3.31-.81.44-4,2.17-5,2.87-.06,0-.05.07,0,0,3.22-1.63,8.91-4.17,12-6.18.12.61,0,.73-.4,1a43.42,43.42,0,0,1-7.52,4.21c-.87.39-3.13,1.38-4,1.93-.06,0,0,0,.07,0,3.12-1.13,6.95-2.33,10.6-4.9l1.38-1,.18,1.14-.77.68c-3.58,3.1-7.57,5-11.09,5.09h-.15c-.2,0-.15.05.09.07a16.08,16.08,0,0,0,5-.49l.78-.22a22.4,22.4,0,0,0,5.7-2.64c.25-.18.49-.31.74-.51L157,58.92h0l-.51.54s.6.71.62.75l-.37.23c-.33-.12-7-7.89-9.94-11.18-.47.22-.94.36-1.41.55-4.7,2.52-10.79,1.53-11.76,1.36Zm0-3.71,2.57-1.39-.84-2.8L133.62,45v2.46Zm2.22-4.68a11.66,11.66,0,0,0,.56,2.47h0l.18.6,4.6-2.49a23.25,23.25,0,0,0-3.2-2.73l-2.14,2.14Zm2.34-2.34a18.11,18.11,0,0,1,3.49,2.67l4.26-2.3,9.41,11.14,4.65-.26,0-.74s.93-.08,1-.09l-.1-.43c-.17-.08-3.14.1-6.55.32h0l-.28-.33c2.45-.14,4.83-.3,7.5-.46a16,16,0,0,0-3-5.53,24.8,24.8,0,0,0-2.06-2.21,6.17,6.17,0,0,0-2.31-1.67,9.94,9.94,0,0,0-2-.14c-2.08,0-4.16,0-6.22-.08H138.3l-.12.12Zm.12-.5-.12-.12a18.08,18.08,0,0,0,3.49-2.67l4.26,2.3L154,29.85c2.45.14,4.82.3,7.5.46h0a16.06,16.06,0,0,1-3,5.53,24.58,24.58,0,0,1-2.06,2.21,6.18,6.18,0,0,1-2.3,1.67,10,10,0,0,1-2,.14c-2.08,0-4.15,0-6.21.08Zm-.32-.32a23.2,23.2,0,0,0,3.21-2.73l-4.6-2.49-.18.6a11.63,11.63,0,0,0-.56,2.47L138,39.62Zm-5.36,5,4.45-4.45-4.45-4.45v-6.3h-6.3l-4.45-4.45-4.45,4.45h-6.3v6.3l-4.45,4.45,4.45,4.45v6.3h6.3l4.45,4.45,4.45-4.45h6.3v-6.3ZM106.8,75.12v.13a5.62,5.62,0,0,0,.8,0,18.82,18.82,0,0,1,1.34,2.22h1c0,.37.08,1.11.08,1.11h.79a8.86,8.86,0,0,0,.1,1l.81-.11a5.1,5.1,0,0,0,.12.75,15,15,0,0,0,5.78-3,21.76,21.76,0,0,0,4.1-4.28,2.61,2.61,0,0,0,.19-.21,2.68,2.68,0,0,0,.19.21,21.77,21.77,0,0,0,4.1,4.28,14.94,14.94,0,0,0,5.78,3,5.11,5.11,0,0,0,.11-.75l.81.11a8.83,8.83,0,0,0,.1-1h.79s.08-.74.08-1.11h1a18.63,18.63,0,0,1,1.34-2.22,5.62,5.62,0,0,0,.8,0v-.13a19.23,19.23,0,0,1,2.23.56l.67-.67c.26.27.84.73.84.73l.56-.56a9,9,0,0,0,.8.65l.49-.65a5.22,5.22,0,0,0,.61.45,15,15,0,0,0,2-6.21A21.77,21.77,0,0,0,145,63.5a2.73,2.73,0,0,0,0-.28h.28a21.74,21.74,0,0,0,5.92.13,15,15,0,0,0,6.21-2,5.2,5.2,0,0,0-.45-.61l.65-.49a8.72,8.72,0,0,0-.65-.8l.56-.55s-.46-.58-.73-.84l.67-.67a18.76,18.76,0,0,1-.62-2.52,5.43,5.43,0,0,0,.54-.58l-.9-1.07c.82-.07,1.56-.14,2.16-.21-.06.05-.92.58-1.53.95l.19.23a19.15,19.15,0,0,1,2-1.18v-1c.37,0,1.11-.08,1.11-.08v-.79a9,9,0,0,0,1-.1l-.11-.81a5.3,5.3,0,0,0,.75-.12,15,15,0,0,0-3-5.78,21.78,21.78,0,0,0-4.28-4.1,2.81,2.81,0,0,0-.21-.19,2.56,2.56,0,0,0,.21-.19,21.8,21.8,0,0,0,4.28-4.1,15,15,0,0,0,3-5.78,5.09,5.09,0,0,0-.75-.11l.11-.81a8.72,8.72,0,0,0-1-.1v-.79s-.74-.08-1.11-.08v-1a18.85,18.85,0,0,1-2-1.18l.09-.1a5.65,5.65,0,0,0-.54-.58,19,19,0,0,1,.62-2.52l-.67-.67c.27-.26.73-.84.73-.84l-.56-.56a8.86,8.86,0,0,0,.65-.8l-.65-.49a5.36,5.36,0,0,0,.45-.61,15,15,0,0,0-6.21-2,21.78,21.78,0,0,0-5.92.13h-.28a2.68,2.68,0,0,0,0-.28,21.76,21.76,0,0,0,.13-5.92,14.94,14.94,0,0,0-2-6.21,5.17,5.17,0,0,0-.61.45L142,4.43a8.77,8.77,0,0,0-.8.65l-.55-.56s-.58.46-.84.73l-.67-.67a18.85,18.85,0,0,1-2.23.56V5a5.49,5.49,0,0,0-.8,0,18.74,18.74,0,0,1-1.34-2.22h-1c0-.37-.08-1.11-.08-1.11H133a9,9,0,0,0-.1-1L132,.75a5.1,5.1,0,0,0-.11-.75,15,15,0,0,0-5.78,3,21.78,21.78,0,0,0-4.1,4.28,2.67,2.67,0,0,0-.19.21,2.77,2.77,0,0,0-.19-.21A21.8,21.8,0,0,0,117.57,3a15,15,0,0,0-5.78-3,5,5,0,0,0-.11.75l-.81-.11a8.86,8.86,0,0,0-.1,1H110s-.08.74-.08,1.11h-1A18.73,18.73,0,0,1,107.61,5a5.49,5.49,0,0,0-.8,0v.13a19,19,0,0,1-2.23-.56l-.67.67c-.26-.27-.84-.73-.84-.73l-.56.56a9,9,0,0,0-.8-.65l-.49.65a5.09,5.09,0,0,0-.61-.45,15,15,0,0,0-2,6.21,21.8,21.8,0,0,0,.13,5.92,2.67,2.67,0,0,0,0,.28H98.5a21.78,21.78,0,0,0-5.92-.13,15,15,0,0,0-6.21,2,5.11,5.11,0,0,0,.45.61l-.65.49a9,9,0,0,0,.65.8l-.56.55s.46.58.73.84l-.67.67a18.87,18.87,0,0,1,.62,2.52,5.51,5.51,0,0,0-.54.58l.09.1a19.11,19.11,0,0,1-2,1.18v1c-.37,0-1.11.08-1.11.08V29a9.06,9.06,0,0,0-1,.1l.11.81a5.1,5.1,0,0,0-.75.12,15,15,0,0,0,3,5.78A21.77,21.77,0,0,0,89,39.94a2.59,2.59,0,0,0,.21.19,2.7,2.7,0,0,0-.21.19,21.79,21.79,0,0,0-4.28,4.1,15,15,0,0,0-3,5.78,5.05,5.05,0,0,0,.75.11l-.11.81a8.85,8.85,0,0,0,1,.1V52s.74.08,1.11.08v1a18.88,18.88,0,0,1,2,1.18l-.09.1a5.56,5.56,0,0,0,.54.58,18.85,18.85,0,0,1-.62,2.52l.67.67c-.27.26-.73.84-.73.84l.56.55a9.16,9.16,0,0,0-.65.8l.65.49a5.21,5.21,0,0,0-.45.61,14.94,14.94,0,0,0,6.21,2,21.71,21.71,0,0,0,5.92-.13h.28a2.74,2.74,0,0,0,0,.28,21.81,21.81,0,0,0-.13,5.92,15,15,0,0,0,2,6.21,5.1,5.1,0,0,0,.61-.45l.49.65a8.66,8.66,0,0,0,.8-.65l.55.56s.58-.46.84-.73l.67.67a18.77,18.77,0,0,1,2.23-.56Zm48.53-46.81,4.65.27,0,.74s.93.08,1,.1l-.1.43c-.17.08-3.14-.1-6.55-.32l1-1.2Zm.81-1a23.86,23.86,0,0,1,2.72.29l0,.5c-.05,0-1.35,0-3.21-.17l.52-.62Zm.29-.34.62-.74h0c.61.37,1.48.89,1.53.95-.6-.07-1.34-.14-2.16-.21Zm-.05-1.3h0l.24.26-7.8,9.14v0c-.86,1-1.7,2-2.58,3,.11-.5.15-1.23.28-1.84s.23-1.24.23-1.24c.33-.42,7.61-8.46,10.21-11.74,0,.12-.58,2.42-.58,2.42Zm.48-2.91h0c0,.2-7.57,8.91-10.19,11.89a33.4,33.4,0,0,0-6.76-4.63,23,23,0,0,1,6.71,3.47c3.21-3.31,9.66-11,9.86-11.06l.38.33ZM137.17,8.11l.13,1.57c2.57-2.25,4.8-4.23,4.86-4.4l-.23-.37s-.75.62-.75.62L140.65,5l-3.47,3.1Zm0-.44c1.41-1.22,2.38-2.08,2.39-2.15l-.33-.38h0a23.93,23.93,0,0,0-2.13,1.72l.07.81ZM138.7,5c-.08,0-1.06.24-1.75.42l.08,1c.63-.53,1.2-1,1.67-1.38Zm-2.63.5h.36c.42,5.31.91,10.63,1.24,15.92-.27-.43-.76-1-1.1-1.49l-.71-1c-.07-.53-.6-11.37-1.08-15.52.08.09,1.3,2.12,1.3,2.12Zm-2.23-2.36h0l.5,0c.17.11.95,11.66,1.2,15.61a33.34,33.34,0,0,0-8.06,1.51,23,23,0,0,1,7.2-2.3c-.07-4.61-1-14.64-.84-14.79Zm-24.48,0c-.17.11-.95,11.66-1.2,15.61a33.34,33.34,0,0,1,8.06,1.51A23,23,0,0,0,109,18c.07-4.61,1-14.64.84-14.79l-.5,0Zm-2.08,2.41h.36s1.22-2,1.3-2.12c-.48,4.16-1,15-1.08,15.52l-.71,1c-.34.52-.83,1.06-1.1,1.49.33-5.29.82-10.61,1.24-15.92Zm-.52-.1h0l-.08,1c-.63-.53-1.2-1-1.67-1.38.08,0,1.06.24,1.75.42Zm-.19,2.22c-1.41-1.22-2.38-2.08-2.39-2.15l.33-.38a23.94,23.94,0,0,1,2.13,1.72l-.07.81Zm0,.44-.13,1.57c-2.57-2.25-4.8-4.23-4.86-4.4l.23-.37h0s.75.62.75.62l.54-.51,3.47,3.1ZM87.24,22.47l-.38.33c0,.2,7.57,8.91,10.19,11.89a33.37,33.37,0,0,1,6.76-4.63,23,23,0,0,0-6.71,3.47c-3.21-3.31-9.66-11-9.86-11.06Zm-.49.82c0,.12.58,2.42.58,2.42L87.1,26l7.8,9.14v0c.86,1,1.7,2,2.58,3-.11-.5-.15-1.22-.28-1.84S97,35,97,35c-.32-.42-7.61-8.46-10.21-11.74Zm.82,4.06a23.93,23.93,0,0,0-2.72.29l0,.5c.05,0,1.35,0,3.21-.17l-.52-.62ZM87.29,27l-.62-.74c-.61.37-1.48.89-1.53.95.6-.07,1.34-.14,2.16-.21Zm-3.56,2.31s-.93.08-1,.09l.1.43c.17.08,3.14-.1,6.55-.32l-1-1.2-4.65.27,0,.74Zm1.17,22.8h0c.05,0,1.35,0,3.21.17l-.52.62a23.85,23.85,0,0,1-2.72-.29l0-.5ZM86.67,54h0c-.61-.37-1.48-.89-1.53-.95.6.07,1.34.14,2.16.21l-.62.74Zm.68.56s-.58,2.3-.58,2.42C89.36,53.7,96.65,45.66,97,45.23c0,0,.12-.69.23-1.24s.17-1.34.27-1.84c-.87,1-1.72,2-2.58,3v0l-7.8,9.14.24.26Zm-.48,2.92.38.33c.2,0,6.66-7.74,9.86-11.05a23,23,0,0,0,6.71,3.47,33.33,33.33,0,0,1-6.76-4.63c-2.62,3-10.23,11.69-10.19,11.89Zm19.69,14.69-.13-1.57c-2.57,2.25-4.8,4.23-4.86,4.4l.23.37s.75-.62.75-.62l.54.51,3.47-3.1Zm0,.44c-1.41,1.22-2.38,2.08-2.39,2.15l.33.38h0a23.81,23.81,0,0,0,2.13-1.72l-.07-.81Zm1.06,2.14s1.22,2,1.3,2.12c-.48-4.16-1-15-1.08-15.52l-.71-1c-.34-.52-.83-1.06-1.1-1.49.33,5.29.82,10.61,1.24,15.92Zm2.23,2.36h0l-.5,0c-.17-.11-.94-11.66-1.2-15.62A33.33,33.33,0,0,0,116.23,60a23,23,0,0,1-7.2,2.3c.07,4.61,1,14.64.84,14.79Zm24.48,0c.17-.11.95-11.66,1.2-15.61A33.35,33.35,0,0,1,127.49,60a23,23,0,0,0,7.2,2.3c-.07,4.61-1,14.64-.84,14.79l.5,0Zm2.08-2.41h-.36s-1.22,2-1.3,2.12c.48-4.16,1-15,1.08-15.52l.71-1c.34-.52.83-1.06,1.1-1.49-.33,5.29-.82,10.62-1.24,15.92Zm.52.1h0l.08-1c.63.53,1.2,1,1.67,1.38-.08,0-1.06-.24-1.75-.42Zm2.25.31h0a23.8,23.8,0,0,1-2.13-1.72l.07-.81c1.41,1.22,2.38,2.08,2.39,2.15l-.33.38ZM156.48,57.8l.38-.33c0-.2-7.57-8.91-10.19-11.89a33.32,33.32,0,0,1-6.76,4.63,23,23,0,0,0,6.71-3.47c3.21,3.31,9.66,11,9.86,11.06Zm.15-3.51c-3.46-4-6.87-8.16-10.38-12.13.11.5.15,1.22.28,1.84s.23,1.24.23,1.24c.33.42,7.61,8.46,10.21,11.74,0-.12-.58-2.42-.58-2.42l.24-.26Zm-.48-1.38a23.91,23.91,0,0,0,2.72-.29l0-.5c-.05,0-1.35,0-3.21.17l.53.62Z"/><path class="cls-1" d="M124.72,47.81h0Z"/><path class="cls-1" d="M115.7,46h.06s0,0,0,0Z"/><path class="cls-9" d="M120.24,49.07l.28,0v-.12a.8.8,0,0,0-.4,0h-.07a.31.31,0,0,0,.19.16Zm.53.19h0a1,1,0,0,0,.59-.1A.63.63,0,0,0,121,49a.44.44,0,0,1-.18,0,.62.62,0,0,0,0,.12l0,0v0Zm2-.06h0c.22,0,.52,0,.65-.16v-.12a.93.93,0,0,0-.62.12c0,.06-.07.1-.09.1s.06,0,.06.06Zm1-.31h0l.34-.06v-.14c-.09-.12-.24-.06-.34-.06s-.12.12-.15.12Z"/><path class="cls-9" d="M122.22,48.79l0,0s0,0,0,0Z"/><path class="cls-9" d="M122.25,48.32l0,0S122.23,48.32,122.25,48.32Z"/><path class="cls-9" d="M121.15,48.18s0,0,0,0Z"/><path class="cls-9" d="M120.24,48h0Z"/><path class="cls-9" d="M124.73,47.94h0Z"/><path class="cls-9" d="M123.77,47.94h0S123.77,47.92,123.77,47.94Z"/><path class="cls-9" d="M126.06,46.66l.58-.16s0-.07,0-.07a3.88,3.88,0,0,1-.73.16Z"/><path class="cls-9" d="M115.77,46.2h.06s0,0,0,0Z"/><path class="cls-9" d="M126.7,46.1a.94.94,0,0,0,.62-.23l-.09-.07a4,4,0,0,1-.56.3Z"/><path class="cls-10" d="M120.53,51.31c.57,0,.86-.53,1.34-.64a1.1,1.1,0,0,1,.6.3,1.34,1.34,0,0,0,1.3.12.32.32,0,0,0,.15-.3v-.05a5.75,5.75,0,0,1-1.11-.49c.62,0,1.08.68,1.66.49.07,0,.19-.06.19-.15v-.15c-.48-.23-1-.34-1.37-.53a5.44,5.44,0,0,1,1.48.45c.21.08.48.15.66.23a2.92,2.92,0,0,1-1,.38v0a1.37,1.37,0,0,0,1,.08,1.77,1.77,0,0,0,.92-.35l.19-.68h.23l0,0-.18.27c0,.08,0,.08.07.08.34-.12.59-.34.93-.49l.3-.64s0,0,0,0l-.11-.15a5.34,5.34,0,0,1-1.6.26h0a9.27,9.27,0,0,0,3.15-1,.32.32,0,0,0,0-.11,3,3,0,0,1-2,.57,8.46,8.46,0,0,0,1.44-.49c.48-.28,1-.57,1.34-.8V47.4a2.94,2.94,0,0,1-1.63.54h0a7.8,7.8,0,0,0,1.45-.65c.3-.34.59-.41.93-.8,0,0,0,0,0,0a3.26,3.26,0,0,1-.78.49.91.91,0,0,1-.67.26h0a2.39,2.39,0,0,0,1-.6c.34-.35.71-.61,1-1l0,0a4.72,4.72,0,0,1-1.3.79,4.4,4.4,0,0,0,1.57-1.48l0-.11c-.18.19-.48.54-.71.72a13.14,13.14,0,0,0,1.44-2c0-.08,0-.08,0-.08-.38.46-.57,1.1-1.19,1.25a7.55,7.55,0,0,0,1-1.37c.06-.23.25-.3.25-.57,0,0,0,0-.08,0a2.45,2.45,0,0,1-.59.86c.11-.26.27-.56.42-.86s.29-.42.33-.68h-.08l-.4.64v0l.51-1.67h0a3.31,3.31,0,0,1-.41.91c-.07,0,0,0,0-.11l.37-1.14h0l-.34.77.34-1.18h-.08l-.17.64c-.15-.45.15-1,.17-1.4l-.11,0a3.65,3.65,0,0,1-.36,1.52h-.07l.15-.91,0,0-.48,1.74s0,0,0,0c0-.56.27-1.1.27-1.51,0,.27-.23.53-.27.87s-.29.68-.44,1C122.28,53,114.16,45,112.42,40.31h0c-.11-.08-.11-.26-.18-.3s-.41,0-.44.11c-.11.27-.18.64,0,.84v0l.15.19v.12c-.11.11-.18.11-.26.29s0,.19,0,.34l-.41.12a.77.77,0,0,0,0,.38,1.6,1.6,0,0,0,.41.3v.19L112,43a1,1,0,0,0,.41.91.64.64,0,0,0,.43.12,1.1,1.1,0,0,0,.23.87s0,0,.07,0c-.07.22-.33.22-.37.45s0,.41.11.45c.18.23.56,0,.82.23h0c0,.14-.3.14-.3.3s.08.37.14.46a.77.77,0,0,0,.3.08l-.3.23.07.22a1.63,1.63,0,0,0,.79.3v0h.18a.91.91,0,0,0,.3.49h0v.08a1.06,1.06,0,0,1-.25.07.89.89,0,0,0-.33.38.36.36,0,0,0,.22.38c.22.23.36.23.71.11.15.11.11.38.26.42s.07,0,.18.08a1.74,1.74,0,0,0,0,.76c.11,0,.11.07.19.07a2.19,2.19,0,0,0,.62-.57.41.41,0,0,1,.49,0s0,0,0,.15a1.15,1.15,0,0,0-.14.58c.07.26.14.37.3.41a.57.57,0,0,0,.66-.08.35.35,0,0,0,.11-.38c0-.06,0-.15,0-.15.26-.15.59.15.74-.15,0,0,0-.08.07-.08s.3.15.38.08a.24.24,0,0,0,.19-.08h.06c0,.15.11.23.19.31s-.14.06-.11.26c0,0,.15.07.19.11.92-.08,1.34-.8,2.26-.95h.22v.11h-.1s0,0,0,0l-.23,0c.11,0,.11,0,.11,0s-.11,0-.15,0v.07h0s-.07,0-.07,0l0,0c-.08,0-.11.08-.11,0v.08h0v.15h-.07l-.18.08h-.08s0,0,0,.06h-.1a.08.08,0,0,1-.11,0v.05H121c-.18.15-.45,0-.6.15l-.14.18c0,.08.11.08.14.2ZM113,43.65l-.08,0s0-.07,0-.15l.15.11v0s0,0,0,0,0,0,0,0Z"/><path class="cls-10" d="M113.25,42.83v0h0v0Z"/><path class="cls-11" d="M111.75,42.69l.23-.42a.55.55,0,0,0-.45-.15.4.4,0,0,0-.15,0,.65.65,0,0,0,.08.27,2.66,2.66,0,0,0,.29.27Zm2.65,4.85h.07c0-.22.15-.38,0-.56a.91.91,0,0,0-.55.26l0,.08a.57.57,0,0,0,.45.22Zm1.55,2.92h0a2.64,2.64,0,0,0,.57-.53,2.21,2.21,0,0,0-.57-.16,1.28,1.28,0,0,0-.08.57.44.44,0,0,1,.08.12Zm3.15-.19h.07v0h0l0-.11,0,.11c0-.11,0-.11,0-.11h.1s-.06,0-.06,0h.06s0,0,0-.11,0,0,0,0c-.23,0-.41-.23-.71-.27v0c0,.19.19.38.23.53l.18,0Zm.59.19h.15v-.12s0,0,0,0,0,0,0,0h0l0-.07,0-.15h0l-.11,0v0C119.62,50.12,119.62,50.35,119.69,50.46Z"/><path class="cls-12" d="M119.84,51l.33,0V50.8a1,1,0,0,0-.48,0h-.09a.4.4,0,0,0,.23.19Zm.63.22h0a1.25,1.25,0,0,0,.7-.11.75.75,0,0,0-.48-.15.46.46,0,0,1-.22,0,.75.75,0,0,0,0,.15l0,0v0Zm2.45-.08h0c.26,0,.62,0,.77-.19V50.8A1.11,1.11,0,0,0,123,51c0,.07-.08.12-.11.12s.08,0,.08.07Zm1.15-.38h0l.41-.07v-.16c-.12-.15-.3-.07-.41-.07s-.15.15-.18.15Z"/><path class="cls-13" d="M122.65,50.8l.22,0-.08,0,.26,0h.41a2.8,2.8,0,0,0-1-.42.24.24,0,0,0-.19.12h.11l-.07.15.11-.08s0,0,0,.08h0s0,0-.07.08l.22-.08h.08l-.15.16c.07,0,.22-.07.33-.07l-.26.11.41-.11v.07a.85.85,0,0,0-.33,0Zm1.33-.34h0s0,0,0-.08l-.07.08v-.08h-.26s0,0,0,0h0l0-.07-.11.07h0c0-.07,0,0,0,0v-.07h-.08l.08,0h-.15s0,0,0-.12,0,.12,0,.12,0-.12,0-.12l-.19.12c0-.12.08-.12.08-.12h-.19v0a.42.42,0,0,1,.23,0,7.36,7.36,0,0,1,1,.3l-.18.12Zm-1.29-.92h0c.07,0,.07-.07.11-.07s0-.08.11-.08h0l.07-.07s.11-.16.23-.05l0,.05,0-.05v-.11l.11-.07c0-.08-.11-.08-.18-.08a1.46,1.46,0,0,0-.45.38h-.14l0,.15Zm-1.75.39h.11l-.11-.39a.8.8,0,0,0-.48-.15v.08s0,0,0,.07v-.07c.08.07,0,.07,0,.11s.08,0,.08,0h0l0,.12,0,0s0-.07.11-.07v.19c0-.07,0-.07.07-.07h0v0h0l0,.07s0-.07.08,0,0,0,0,0l0,0,.07,0-.1.07s0,0,.1,0l-.07.08.07,0v0Zm-.78.83h-.3l1.18-.65v0s0,0,.11,0,.23-.11.34-.19a.59.59,0,0,1,.18-.07.25.25,0,0,1,.15.11h-.15v0l-.18.08v0h-.11l0,0h-.19v.12h-.07s0,0,0,0h-.11v.07s-.07-.07-.07,0h-.08v0h0c-.07.08,0,.08,0,.08s-.07,0-.18,0v.07h0c0,.08,0,.08-.08.08l-.22.08s0,0,0,.07h-.11Z"/><path class="cls-9" d="M122.21,50.67l0,0s0,0-.05,0Z"/><path class="cls-9" d="M122.25,50.1l.05-.06S122.23,50.1,122.25,50.1Z"/><path class="cls-9" d="M120.92,49.92s0,0,0,0Z"/><path class="cls-9" d="M119.84,49.74h0Z"/><path class="cls-9" d="M125.23,49.64h0Z"/><path class="cls-9" d="M124.08,49.64h0S124.08,49.62,124.08,49.64Z"/><path class="cls-10" d="M119.64,49.29h0l0-.09Z"/><path class="cls-10" d="M119.8,49.24v0s-.05-.05-.08-.05S119.75,49.21,119.8,49.24Z"/><path class="cls-10" d="M116.79,48.93s0,0,0,0Z"/><path class="cls-10" d="M117,48.9v-.06s0,.06-.08,0Z"/><path class="cls-9" d="M117.37,48.78h0v-.05l-.08.05Z"/><path class="cls-10" d="M117.1,48.73h0v0c0-.05,0-.05,0-.05s0,0,0,0v0h0Z"/><path class="cls-10" d="M117.3,48.65v0s0,0,0,0Z"/><path class="cls-10" d="M116.9,48.52h.05C116.95,48.47,116.9,48.52,116.9,48.52Z"/><path class="cls-10" d="M117.88,48.43h0s0,0,0,0Z"/><path class="cls-9" d="M118.17,48.43v0h-.08A.13.13,0,0,0,118.17,48.43Z"/><path class="cls-10" d="M119.93,48.43s0,0,0,0,0,0,0,0,0-.08-.07-.08,0,0,0,.08Z"/><path class="cls-9" d="M118,48.24h0Z"/><path class="cls-14" d="M126.82,48.11l.69-.19c0-.06,0-.09,0-.09a4.69,4.69,0,0,1-.88.19Z"/><path class="cls-10" d="M120,48l0,0h0Z"/><path class="cls-9" d="M121.74,47.85h0s0,0,0-.08h-.05c-.05,0,0,.06-.05.08Z"/><path class="cls-9" d="M114.46,47.55h.08s0,0,0,0Z"/><path class="cls-9" d="M117.24,47.57v-.11h-.08l0,0,0-.12h0v.12h0v.11h.07c.08,0,0,0,.08,0Zm0,.11h0c0-.07.07,0,0-.07s0,.07,0,.07Zm.18-.15h0v-.08s0,0-.07,0h0V47.3h-.07v.12h.11Z"/><path class="cls-9" d="M117.3,47.53l-.05-.11s0,0,0,0,0,0,0,0a.13.13,0,0,1,0,.08S117.27,47.53,117.3,47.53Z"/><path class="cls-14" d="M127.59,47.43a1.08,1.08,0,0,0,.74-.27l-.1-.08a5.06,5.06,0,0,1-.67.35Z"/><path class="cls-14" d="M128.41,46.84l.64-.27v0c-.18-.05-.31.14-.49.2s-.15,0-.18.06S128.38,46.84,128.41,46.84Z"/><path class="cls-15" d="M114,44.31v0h-.11V44.2s.11,0,.11,0v-.08h.11s0,0,.07,0l.07,0s-.07,0-.07-.12v0s-.11,0-.11-.12,0,0,0,0c-.11-.22-.26-.46-.44-.76,0,.08-.15.08-.15.19a.38.38,0,0,0,.18.38c.07,0,.15,0,.18.08,0,.23-.18.38,0,.57l.11,0ZM112.83,44h.07s0,0,0,0h0c-.11,0-.17-.2-.28-.27h.07s0,0,0,.07h.11v-.07h.14s0,0,0,0l-.07.11h0l.08.08c.07-.08,0-.08,0-.16v0c.07,0,.07,0,.11,0s0,0,0,0v0h.07l-.07,0,.07-.08h-.07v-.16s-.08,0-.16,0,.07,0,.07-.11l.08.07v.08c.07,0,.07,0,.14,0v0c.11,0,.11,0,.11,0s-.11-.07-.11-.11a.17.17,0,0,0-.14,0v-.11l-.16-.23.16.08.14-.08h-.07c-.07,0-.07,0-.07,0v-.08h.14a1.9,1.9,0,0,0-.81-1.14h0a1,1,0,0,1,.48.42,1.37,1.37,0,0,0-.25-.6c-.15-.3-.3-.5-.42-.79h0a5.15,5.15,0,0,1,.83,1.44v-.15c-.19-.45-.41-1-.6-1.55h-.07c-.16,0-.16-.31-.37-.31h-.27a.94.94,0,0,0,0,.53c0,.11.18.23.27.31s.11.15,0,.34-.27.08-.3.23c0,0,0,.15,0,.15.23.3.67.46.6.88-.11.26-.33.37-.22.6s.11.38.3.45h.11c.07,0,0,.08,0,.16h.11v0l.15,0Zm1.33,3a1.08,1.08,0,0,1-.59-.31v-.19l.33-.15s0,0,0-.15a1,1,0,0,0-.11-.23,2.86,2.86,0,0,0-.48,0,.62.62,0,0,1-.41-.11v-.31c0-.07.11-.11.16-.11s.25-.12.29-.33-.29-.31-.45-.54a.47.47,0,0,1,.16-.41c.07-.11.25-.11.36-.11s.26.37.44.53h0a.66.66,0,0,0,.37-.15l.08,0a1,1,0,0,1,.44.19.57.57,0,0,0,.14.23V45h-.14v0s0,0-.11,0l-.08.15,0,0,0,0s0,0,0,0h-.14v0l-.08.16v0s-.08,0-.08.07.08.12.08.15.08-.07.08,0l-.08,0-.08-.07-.07-.38v-.57h-.07a4.69,4.69,0,0,0,0,.75,8.81,8.81,0,0,1-.89-1.14,4.41,4.41,0,0,0,.89,1.25l-.74-.07v.07a1.23,1.23,0,0,0,.55.15.89.89,0,0,1,.3,0l.15.12v.16s.08-.11.08,0l-.08,0h.08l-.08.11v.11h.08v.11h-.08v0h.08c0,.11,0,.11.14.15-.14,0,0,0-.14,0v.11a.58.58,0,0,0,.18,0v0h0l-.22.27.08,0s0,0-.08.08Zm1.08,1.24h0a.33.33,0,0,1,.19-.3l0-.11s0,.11,0,.11h.15v-.11h.1v0s.12,0,.12,0v0h-.12l-.25-.11v0h.07l.45,0h0s0,0,0,0h.08l-.08-.12H116v-.11h0a1.63,1.63,0,0,0-.3-.53l-.78-.24c.27-.07.49.08.72.08-.23-.39-.57-.72-.75-1.06v0a.41.41,0,0,0,.18.15,4.43,4.43,0,0,1,.62.86c.12-.26,0-.53.16-.67a1.6,1.6,0,0,0,.26,1.44h.26c0-.11,0,0-.12,0v-.07s0,0,.12,0h.08l.07-.38v.35h.22v0s0,0-.07,0l0,0,.34.23c0-.11,0-.11-.07-.11h-.11v-.07s.09,0,.11,0l.07,0s0,0,0,.08v.07h.07v-.15c0-.08,0-.11-.07-.11v0l-.07,0V47H117s0,0-.07,0v0H117l0-.26a.62.62,0,0,0-.11-.34c-.22-.15-.41,0-.63,0-.14-.15-.14-.53-.29-.65l-.11,0c-.16,0-.22.16-.41.12s-.07-.5-.26-.53-.41,0-.52,0a1.17,1.17,0,0,0-.11.5c0,.16.07.19.22.19a.66.66,0,0,0,.14.23c0,.15,0,.27-.11.3h0l-.11.11c0,.34.59.42.43.76s-.22.27-.33.31-.11.15-.11.15a1.28,1.28,0,0,0,.4.41Zm1.33,1.71v-.23c0-.07,0-.11,0-.11h0v-.07c0-.08,0-.08,0-.08v.15c0-.07,0-.07.11-.07-.11-.08-.15-.31-.37-.34s-.29.34-.44.41a.69.69,0,0,1-.3,0l-.07-.15a.61.61,0,0,0-.07-.26c-.11-.12-.3,0-.49,0s-.3,0-.33-.15,0-.27,0-.41.22-.11.33-.11a.78.78,0,0,0,.34,0,.78.78,0,0,0,0-.27c0-.11,0-.22.11-.22s.45.15.63,0a.42.42,0,0,0,.19-.34c0-.16.15-.2.29-.31s.51.27.67.46l-.07.11.07.08c-.07,0-.07.1-.07.1s.07,0,.07,0l0,.11h.08v0c-.08,0,0,0-.08,0h-.15s0,0,0,.08.11-.08.11,0h0c-.3.07-.48-.19-.71-.35v0l.3.3a2.93,2.93,0,0,0-.78.23c-.14,0-.36-.23-.55-.23v.07l.52.16c-.33.18-.67,0-.89.26h.11c.26-.08.63,0,.81-.15,0,.15-.11.22-.3.38v.11c.27-.11.3-.42.53-.6a1.75,1.75,0,0,1,.63-.08c-.12.08-.23.19-.34.26v.16a2,2,0,0,0,.37-.38.27.27,0,0,1,.3,0s.15,0,.15,0l-.15,0,.11.11h0l.08.07a.13.13,0,0,1-.11.12s0,0,0,0h0v.08h0V49h0v-.08h-.11s-.07.08-.11.08H117l0,0c0,.08,0,0,.08.08l0,0-.07,0v0h-.07V49l-.11.12,0,0v.16s-.07,0-.07.07h0c-.11.15-.07.31-.11.49Zm.82,1.21h0a.55.55,0,0,0,.4-.11c.11-.23,0-.53.19-.65s.49.27.71,0,0-.26,0-.34-.15-.19-.15-.34.11-.16.15-.23.26.07.33.07c.11.16.23.23.3.23s.07-.07.11-.07l0-.12-.08-.11-.11-.08-.07.08h-.08l.08-.08h-.26l-.23.08s0-.08,0-.08,0,.08,0,.08l-.11-.08c-.07.08-.18,0-.18,0s-.07,0-.07-.07h-.11c-.15.07-.08.33,0,.53a1.56,1.56,0,0,0,.11.38,1.31,1.31,0,0,1-.26-.65,3.43,3.43,0,0,0-.48,1.18,1.89,1.89,0,0,1,.33-1.11l0-.07c-.14.12-.22.23-.32.27v0c.14-.23.48-.28.63-.54v-.12h0L118,49H118v0c.07,0,0-.15,0-.15h0l0-.08c0-.08.08,0,.08-.08s0,0,0-.07l.11-.11h0v0l0-.08H118l0,0-.36.08c0,.08,0,.08,0,.19l.25.22V49c-.11,0-.15.11-.3.15a1.16,1.16,0,0,0-.48.2.41.41,0,0,0-.41.22c0,.16,0,.23,0,.28s.36,0,.48.15,0,.27,0,.38a.47.47,0,0,0-.16.46c0,.15,0,.27.19.3Zm1.14-1.78c-.06,0-.1,0-.1-.16a1,1,0,0,1-.3-.18l0-.15a1.23,1.23,0,0,0,.48-.38.39.39,0,0,0-.15-.27c-.18-.11-.52,0-.75,0s-.18,0-.25,0,0-.07-.11-.11-.11-.1-.11-.19.3,0,.37-.11a.23.23,0,0,0,.18-.23c0-.23-.37-.3-.59-.38a.57.57,0,0,1-.19-.38l0-.12v0c0-.11.16-.15.27-.19.25.19.55.23.7.53a.78.78,0,0,0,.3,0l.51.22s0,.08,0,.15a.29.29,0,0,0,.11.23.54.54,0,0,0,.42-.08c.17,0,.32,0,.36.11a.55.55,0,0,1,.07.49c-.12.31-.23.54-.3.76a5.25,5.25,0,0,1-.26-1c0-.11,0-.11,0-.11v.56c-.07-.26-.38-.42-.59-.6l-.15-.57c0-.08,0-.08,0,0h0l.1.53a2.26,2.26,0,0,1-1-.91l0,0v0a2.86,2.86,0,0,0,.89.91c-.11,0-.38,0-.48.11h0c.22,0,.48-.11.74,0a1.41,1.41,0,0,1,.56.73h-.52s0,0,0,0l0,0c.25,0,.48,0,.63.12l.15.37-1,.16Zm3.65.75h0l.26-.11c.07-.07.21-.26.07-.42a.28.28,0,0,0-.07-.15,1,1,0,0,1-.3-.38c0-.19.26-.22.22-.52-.07-.08-.22-.08-.33-.16s-.22,0-.37,0h-.26s-.07-.11-.18-.15c0-.22,0-.41-.11-.49a.41.41,0,0,0-.42-.11,4.24,4.24,0,0,0-.77.53H120c.15.07,0,.07,0,.07s0,0,0,.08h-.11l0,.11s0,0,0,0,0,0,0,.08a.11.11,0,0,1-.07,0v0l.07,0h0s0,0,0,.11v0c.48-.14.66-.41,1-.57l-.15.19-.37.23c.15.11.37,0,.59.11a1.2,1.2,0,0,0,.49,0c.22,0,.4.11.63,0,0,.11-.11.16-.23.19s-.26,0-.4,0c.22.19.36.53.63.75h0c-.3-.07-.44-.53-.74-.72,0,.15.11.3,0,.57h0c0-.26,0-.57-.19-.6a1.19,1.19,0,0,0-.92-.12c.07.12.22.16.22.31s0,0,0,0a.37.37,0,0,0-.37-.19l0,0h-.26V49a.07.07,0,0,0,.07-.08s0,.08.07.08,0,0,0,0h-.11l0,0v0s0,.08,0,.12,0,.15,0,.2v.07h0s0,0,0,.08l.12-.08v.08h-.07l.15.07a.78.78,0,0,0,.55-.15c.11-.11.3-.26.37-.11,0,0,0,0,0,0,.18.07.18.45.29.6h.19c.15-.08.22-.27.36-.23s.18.34.41.34C122.13,50.08,122.17,50.08,122.17,50.08Z"/><path class="cls-10" d="M113.86,44v0h0v0Z"/><path class="cls-16" d="M130.33,43.59c.07,0,.07,0,.07,0l.15-.19v0c.15-.19.08-.34,0-.6a2.54,2.54,0,0,1,0-.73,5.86,5.86,0,0,1-.44,1,1,1,0,0,0,.07.49s.15,0,.15,0Zm.56-.8c-.08,0-.08,0-.08-.11-.11-.34.11-.72.23-1-.11.34.19.8-.11,1.1l0,0Zm.51-.38h0a.84.84,0,0,0,.34-.65,3,3,0,0,0,0-.87,7.59,7.59,0,0,0-.51,1,.56.56,0,0,0,.07.42l.11.08Zm-.18.79h0a1,1,0,0,0,.44-.49c.07-.23.16-.38.23-.65-.23.27-.49.42-.7.65a3.25,3.25,0,0,0-.15.34.57.57,0,0,1,.19.15Zm-.33.73a.21.21,0,0,1-.19-.11.35.35,0,0,1,0-.23c.18-.3.66-.19.92-.46a2.61,2.61,0,0,1-.44.6.48.48,0,0,1-.33.2Zm-2.37,2.35h0a2.05,2.05,0,0,0,1.18-.41c-.21-.11-.48,0-.73,0h.25c.37-.28.6-.84.93-1l.14-.15c.11.15.26.15.52,0a2,2,0,0,0,.64-1,2.06,2.06,0,0,1-1,.46c-.08.12-.19.16-.19.38s-.33.31-.44.46c-.3.35-.89.18-1.11.65v.07l.19.11h-.11a.69.69,0,0,0-.45.15l-.11.11c0,.12,0,.12,0,.16Zm.74-1.07s-.15,0-.15,0,0,0,0-.15,0-.19.18-.34a2.55,2.55,0,0,0,1.14-1c-.29.41-.55.9-.82,1.33a.35.35,0,0,1-.33.22Zm-.71.47s0,0,0,0v-.42a8.33,8.33,0,0,1,1-1.13l.33-.26c0-.08,0-.08-.11-.08l-.14.2a.66.66,0,0,1,.14-.39c.11-.19.19-.41.3-.49a4,4,0,0,0,0,.67.91.91,0,0,1-.41.54l-.07-.11a2.42,2.42,0,0,0-.67,1.37c-.08.07-.16.19-.26.16Zm-.44.45c-.08,0-.11,0-.11-.11s0-.3,0-.42a2.17,2.17,0,0,1,.52-.6c-.18.22-.15.64-.18.91-.07.11-.14.23-.26.23Zm-.71.41h0l.26-.07c.11-.23.11-.6.25-.95a1.22,1.22,0,0,0-.59.87s0,.08,0,.15Zm-.59.5,0-.08c-.07,0-.07-.11-.07-.3.18-.23.44-.54.62-.76a.59.59,0,0,1-.11.34,1.51,1.51,0,0,1-.1.68.74.74,0,0,1-.3.11Zm-.7.53h0s.23,0,.26-.15c.19-.38.19-.91.44-1.14h0a2.68,2.68,0,0,0-.88,1,.35.35,0,0,1,.07.23l.11,0Zm-.82.38s-.07,0-.11-.08a.6.6,0,0,1,.07-.57,4.12,4.12,0,0,1,.85-.64c-.18.27-.26.76-.48,1.06a.31.31,0,0,1-.34.23Zm-1,.53h0c.18,0,.26,0,.44-.22s.22-.84.52-1.18a3.36,3.36,0,0,0-1.08,1,.27.27,0,0,0,0,.39s.08,0,.11,0Zm-.78.53c-.08,0-.16,0-.19-.11a.47.47,0,0,1,0-.23,2.61,2.61,0,0,1,1.26-1.37,2.75,2.75,0,0,0-.64,1.18c-.11.19-.14.49-.4.53Zm-.86.31h0A.56.56,0,0,0,123,49a5.07,5.07,0,0,1,1-1.44,2.78,2.78,0,0,0-1.55,1.37.22.22,0,0,0,0,.22.55.55,0,0,0,.26.2Zm6.65-2.89h0a.53.53,0,0,1,.3-.18c.08-.12.22-.12.26-.23l-.55.27v0c.11-.12.41-.23.55-.38v-.11c.08,0,.11-.07.11-.16s-.07,0-.07-.07c.07-.19.33-.31.37-.53h0l-.29.22v0c.29-.34.74-.23,1.14-.34.12,0,.12-.15.15-.15-.15.27-.26.46-.44.53a.94.94,0,0,1-.64.38l.37-.38-.48.35v0s-.08.12-.11.16-.08,0,0,.11a6.46,6.46,0,0,0,.74-.19,9.43,9.43,0,0,1-1,.75Zm-.48.76h0a2.3,2.3,0,0,0,.67-.23,1.14,1.14,0,0,0,.7-.53,2,2,0,0,1-.92.2c-.22.23-.6.26-.74.45s.07.08.14.08.11-.19.16-.19h.11l-.19.19s0,0,.08,0Zm-.82.72h0a3.85,3.85,0,0,1,.62-.15c.23-.19.53-.23.74-.46-.07,0-.11.12-.26,0-.18.12-.37,0-.59,0l-.89.46c0,.11.11.15.15.11.23,0,.45-.19.63-.26l0,.07-.44.23Zm-.89.72h0a3.6,3.6,0,0,0,1.63-.57h-.11a4.87,4.87,0,0,0-2.1.42c0,.11.18.11.25.11.37-.11.59-.15.89-.27h.07c0,.07-.07.07-.07.12a6.3,6.3,0,0,0-.63.18Zm-.49.49h-.18c.18-.11.37,0,.56-.15l-.08-.07a2.22,2.22,0,0,1-1.08.11.76.76,0,0,1,.26,0c.52-.38,1.08,0,1.56-.07a4.08,4.08,0,0,1-1,.22Zm-.78.76h1.27a1.13,1.13,0,0,0,.33,0l.29-.46c-.44,0-1,.08-1.44.08-.08,0,0,.07-.08.07s0,0,0,0h0s0,0,0,.05l0-.05H126v.11l-.07-.11h-.08s0,.05,0,.11l-.23.05h-.11l-.11.11.48.07Zm.34.73c-.6-.16-1.23-.27-1.86-.49-.33-.15-.64-.23-.89-.34l-.37-.07-.11-.05,0,.05h-.08l0,.15h-.1s0,.08,0,.08v-.11l.49-.34.11.07,0,.05h.07l.08.06v.05h.1v-.11c.09,0,.09.11.12.11h.11a.15.15,0,0,1,.14.07s.08,0,.08-.07l.18.11s.11,0,.15,0,0,0,0-.07,0,.07.11.07c.59.11,1.29.19,2,.27l-.23.57Zm-2.23-1h0a6.37,6.37,0,0,0,1.6-.2.87.87,0,0,0,.52-.23A6.56,6.56,0,0,1,123.8,49c-.14,0-.26,0-.26.19s0,.3.09.37a.72.72,0,0,1,.32.05Zm.85-.58a.18.18,0,0,1-.14,0c-.11,0-.18-.07-.29-.15a.48.48,0,0,1,.11-.35,4.16,4.16,0,0,1,1.63.19c0,.08.26.08.41.08a.93.93,0,0,1-.41.08,4.14,4.14,0,0,1-1.3.18Zm.83-.53h0a6.37,6.37,0,0,0,.81,0,2,2,0,0,0,.56-.23,6.58,6.58,0,0,1-1.08-.3.69.69,0,0,0-.48.15c-.15,0-.19.16-.15.34.08,0,.08,0,.08,0l.26,0Zm.93-.53h-.11a.24.24,0,0,1-.26-.2s0-.19.15-.23c.48-.23,1,0,1.44,0a1.81,1.81,0,0,1-1.22.38Zm.77-.53h.34a6.19,6.19,0,0,0,.63-.38c-.3,0-.67-.08-1.08-.08h-.1a.26.26,0,0,0-.07.27.07.07,0,0,0,.07.07c.07.12.1.12.22.12Zm.52-.54h-.23v-.08a.35.35,0,0,1,.07-.33,1.28,1.28,0,0,1,.57,0,2.7,2.7,0,0,0,.59,0H129l-.07,0c-.15,0-.23.15-.3.19a1.3,1.3,0,0,1-.81.22ZM125.07,51h0a2.46,2.46,0,0,0,.85-.19v0h-.19s-.15,0-.15,0h0l-.48.23Zm1.81-.76h0l.23-.11s-.07,0-.07,0h-.11s0,0-.11.11Zm-4.45-1.78s0-.08-.08-.08l-.11-.15a2.44,2.44,0,0,1,.93-.65c-.26.3-.48.6-.74.88Zm-.26-.39s0,0,0-.11-.11-.2-.22-.34H122a.78.78,0,0,1,.42,0l0,0c0,.15,0,.26-.08.3s-.11.15-.22.15Z"/><path class="cls-10" d="M114.17,45.79h.06l0,0s-.08,0-.1,0Z"/><path class="cls-10" d="M114.17,45.72h.06l-.08,0Z"/><path class="cls-9" d="M115.45,45.4a.79.79,0,0,1,0-.11s0,0,0,0,0-.06,0-.08l-.1.08s.08,0,.08.11l-.06,0h0s.08,0,.1,0Z"/><path class="cls-9" d="M115.51,45.35h0v-.09l0,0Z"/><path class="cls-9" d="M115.11,45s0,0,0,0h0S115.07,45,115.11,45Z"/><path class="cls-9" d="M112,42.8h0l0-.08-.08,0v.11Zm.11,0h0c.07,0,.07,0,.07,0v0h-.11v.08Zm0-.19h0v-.12h0l0,.12Zm.18,0h0v-.12h-.07l0,.12Zm-.22-.19h0v-.07s0,0,0,.07Zm1.22.83h0l.11-.11v-.07h-.11v.07c0,.07-.07.07,0,.11Zm.11-.18v-.31c-.11-.15-.25-.3-.11-.53l.11.23v.23s0,.11,0,.11v.15l0,.12Zm4.16,4.37h0s0-.12,0-.12v.12Zm-1.19,2.23h0l.11-.07c.08,0,0,0,0-.12h-.11c0,.07,0,.07,0,.19Zm5.08-1.48h.11v-.07c-.11.07-.11,0-.14.07Zm.44-.07h0v0c0-.1,0-.1,0,0v0Zm-.18.07h0l0-.07v0h-.11v0l.07.07Zm0-.22h0v-.08h-.11V48Zm.18-.19h0a.15.15,0,0,0,0-.08h0v.08Zm.07.34h0c.11,0,.11,0,.11,0s0-.1-.11,0v0Zm-1.85,1.71h.11v-.11s-.11,0-.11.07v0Zm.11.15h0v0c.08,0,0,0,0,0s-.11,0-.11,0,.11,0,.11,0Zm.26.27h0l.26-.15-.26-.19,0,.34ZM116,49.71h0s0,0,0,0l0-.12v.16Zm.14,0c0-.11-.07-.16,0-.16h0s.07.12,0,.16Zm-.07-.23h0c.07,0,.07,0,.07-.08a.07.07,0,0,0-.07.08Zm.18-.08h0c.11,0,0,0,0-.07h0v.07Zm.27.46h0v-.15h-.11c0,.11.08.11.11.18v0Zm-1.71-2.28h0l0,0s0,0,0-.08-.11,0-.11.08l.11,0Zm.14-.11h0v0s0-.12,0-.12v.12a0,0,0,0,0,0,0Zm.15-.15-.15-.07h.15v.07Zm-.15-.15h0c0-.08,0-.08,0-.11v0c0,.08,0,.08,0,.08Zm-.14.15-.11-.11.11,0s.11,0,.11.08-.07.07-.11.07Zm-.16-.15h0c0-.11,0-.19-.08-.19h0V47a.19.19,0,0,1,0,.11Zm0,.27h.08c0-.12,0-.12-.08-.12h0l0,.12Zm1.3.3H116s-.07,0-.07,0Zm-.45-2.51h0s0-.06-.07-.18l-.08,0h0v.15c0,.06.11,0,.14,0v.06Zm10.71,3.39h.23c-.07-.11-.29-.11-.34,0Zm-.85.53h.41c0-.12-.23-.12-.33,0h-.19a.19.19,0,0,0,.11,0Zm4-3.37h0l.45-.23v-.15l-.45.38Zm.53-1.07h0l.59-.75c-.15.23-.52.46-.59.75Zm-.23-.34h0l.29-.38s0,.08,0,.12a.42.42,0,0,1-.26.27Zm-.41.3h0l0-.08.18-.23-.27.3Z"/><path class="cls-11" d="M121.87,28.23A9.74,9.74,0,1,1,112.12,38a9.77,9.77,0,0,1,9.75-9.74Zm0,.69a9,9,0,1,0,9,9,9.06,9.06,0,0,0-9-9Z"/><path class="cls-17" d="M121.88,30A7.94,7.94,0,1,1,113.93,38,7.95,7.95,0,0,1,121.88,30Z"/><path class="cls-18" d="M121.89,28.6A9.36,9.36,0,1,1,112.51,38,9.37,9.37,0,0,1,121.89,28.6Z"/><path class="cls-19" d="M121.88,31.61A6.35,6.35,0,1,1,115.52,38,6.36,6.36,0,0,1,121.88,31.61Z"/><path class="cls-20" d="M121.87,30.19A7.77,7.77,0,1,1,114.09,38,7.79,7.79,0,0,1,121.87,30.19Z"/><circle class="cls-15" cx="121.87" cy="37.96" r="6.23"/><polygon class="cls-11" points="123.8 33.29 128.48 31.36 126.54 36.05 131.23 37.96 126.54 39.9 128.48 44.59 123.8 42.65 121.87 47.33 119.94 42.65 115.25 44.59 117.18 39.9 112.5 37.96 117.18 36.05 115.25 31.36 119.92 33.29 121.87 28.6 123.8 33.29"/><polygon class="cls-9" points="123.49 34.08 127.36 32.48 125.75 36.37 129.65 37.96 125.75 39.58 127.36 43.46 123.47 41.85 121.88 45.74 120.26 41.85 116.38 43.46 117.98 39.58 114.1 37.96 117.98 36.37 116.38 32.48 120.25 34.08 121.88 30.19 123.49 34.08"/><polygon class="cls-9" points="123.42 34.23 127.14 32.7 125.59 36.43 129.33 37.96 125.59 39.5 127.14 43.23 123.41 41.7 121.88 45.42 120.33 41.7 116.6 43.23 118.15 39.5 114.41 37.96 118.15 36.43 116.6 32.7 120.32 34.23 121.88 30.5 123.42 34.23"/><path class="cls-20" d="M123.12,41a3.58,3.58,0,0,0,1.15-1.9c.37-1.82-1-3-1.67-4.13.11,1.33,1.07,2.39,1,3.76a3.58,3.58,0,0,1-.41,2.12.33.33,0,0,0,0,.15Zm-1.55.42-.38-.11a3.13,3.13,0,0,1-1-2.2h-.07a2.51,2.51,0,0,0,.15,1.17,3.66,3.66,0,0,1-.45-1.1,3.87,3.87,0,0,1,.56-2.35v.54c.11,1,0,2.24.76,3,0,0,.11,0,.11,0,0-.45-.3-.79-.38-1.28a8,8,0,0,1-.27-1,4.35,4.35,0,0,1,.88-3v.22a3.21,3.21,0,0,0,.08.91,1.42,1.42,0,0,1,.07.5A12.44,12.44,0,0,0,122,38a3.17,3.17,0,0,1,.11.57c.19.67-.27,1.48-.08,2a.33.33,0,0,0,.27.11v-.19c.57-2.12-1.37-4.36-.27-6.49,0,1.37.84,2.32,1.14,3.57a4.58,4.58,0,0,1,.08,2.92,1.75,1.75,0,0,1-.53.87c-.19,0-.42,0-.46-.11-.26,0-.41.23-.68.19Z"/><circle class="cls-11" cx="125.28" cy="45.9" r="0.36"/><circle class="cls-11" cx="129.81" cy="41.26" r="0.36"/><circle class="cls-11" cx="129.81" cy="34.76" r="0.36"/><circle class="cls-11" cx="125.18" cy="30.03" r="0.37"/><circle class="cls-11" cx="118.48" cy="30.03" r="0.36"/><path class="cls-11" d="M114.3,34.76a.37.37,0,1,1-.36-.37A.37.37,0,0,1,114.3,34.76Z"/><path class="cls-11" d="M114.3,41.26a.37.37,0,1,1-.73,0,.37.37,0,0,1,.73,0Z"/><circle class="cls-11" cx="118.48" cy="45.9" r="0.36"/></g></g></svg>