<svg xmlns="http://www.w3.org/2000/svg" width="157.973" height="52.832" viewBox="0 0 157.973 52.832">
  <g id="reqemsal-logo" transform="translate(0.004)">
    <g id="Group_24" data-name="Group 24" transform="translate(0 3.555)">
      <path id="Path_34" data-name="Path 34" d="M445.522,422.45a3.813,3.813,0,1,0,3.817,3.81,3.813,3.813,0,0,0-3.817-3.81m0,5.877a2.064,2.064,0,1,1,1.462-.6,2.067,2.067,0,0,1-1.462.6" transform="translate(-426.993 -389.414)" fill="#afafaf"/>
      <path id="Path_35" data-name="Path 35" d="M428.005,437.322a2.98,2.98,0,0,0-2.287,1.063c-.018.02-.033.041-.05.061-2.892-1.916-6.511-4.317-8.213-5.454a3.007,3.007,0,1,0-.527.667c1.967,1.317,6.428,4.273,8.307,5.518a2.85,2.85,0,0,0-.236,1.145,3,3,0,1,0,3.007-3m-13.141-4.281a1.557,1.557,0,1,1,1.1-.454,1.559,1.559,0,0,1-1.1.454m13.141,8.843a1.562,1.562,0,1,1,1.562-1.562,1.562,1.562,0,0,1-1.562,1.562" transform="translate(-405.321 -394.045)" fill="#afafaf"/>
      <path id="Path_36" data-name="Path 36" d="M420,318.791a1.828,1.828,0,1,0-1.828-1.828A1.828,1.828,0,0,0,420,318.791" transform="translate(-409.909 -310.527)" fill="#afafaf"/>
      <path id="Path_37" data-name="Path 37" d="M390.806,327.821l2.512,2.032a3.759,3.759,0,0,0-.622,2.08,3.814,3.814,0,0,0,6.868,2.288c.484.3,1.261.746,2.513,1.406a2.006,2.006,0,0,0,.085,1.4l-2.98,1.412a1.4,1.4,0,1,0,.379.954,1.417,1.417,0,0,0-.019-.188l3.131-1.483a2.007,2.007,0,0,0,2.931-.29c1.023.313,2.63.834,4.082,1.313a2.045,2.045,0,1,0,.268-.8c-1.955-.647-3.2-1.044-3.988-1.283a2,2,0,0,0-.43-1.746h0l2.249-3.493a3.494,3.494,0,0,0,1.011.142,3.817,3.817,0,1,0,0-7.633,1.336,1.336,0,0,0-.162.007l-.026-.1-1.218-5.592a3.81,3.81,0,1,0-4.717-1.6l-4.05,3.039a2.862,2.862,0,0,0-2.164-.978,2.9,2.9,0,1,0,2.631,1.685l4.1-3.065a3.8,3.8,0,0,0,2.78,1.2,3.7,3.7,0,0,0,.6-.052l1.2,5.508.019.1a3.719,3.719,0,0,0-1.937,1.251l-1.482-1.191a1.828,1.828,0,1,0-3.247.56h0l-2.586,4.018a3.818,3.818,0,0,0-4.685.492L391.4,327.22h0a1.831,1.831,0,1,0-.593.611m7.216-6.23a1.571,1.571,0,1,1-.046-.369,1.369,1.369,0,0,1,.045.369m8.178-4.834c-.078.007-.156.013-.233.013a2.044,2.044,0,0,1-1.367-.519,1.888,1.888,0,0,1-.505-.68,1.994,1.994,0,0,1-.2-.875,2.07,2.07,0,1,1,3.007,1.847,1.993,1.993,0,0,1-.7.214m1.97,9.014a2.028,2.028,0,0,1,.628-.1c.071,0,.149.007.221.013a2.067,2.067,0,0,1-.221,4.121,2.17,2.17,0,0,1-.544-.071,1.728,1.728,0,0,1-.317-.123,2.066,2.066,0,0,1,.233-3.843m-6.4-.522a1.822,1.822,0,0,0,2.178-.373h0l1.439,1.154a3.807,3.807,0,0,0,1.594,5.067l-2.119,3.3a2,2,0,0,0-2.374.491c-.977-.518-1.926-1.045-2.493-1.391h0a3.82,3.82,0,0,0-.791-4.257Zm-5.26,4.617a2.052,2.052,0,0,1,1.082.311h.006a1.78,1.78,0,0,1,.253.181l.007.007a2.1,2.1,0,0,1,.719,1.568,2.067,2.067,0,1,1-4.134,0,1.943,1.943,0,0,1,.246-.965,2.029,2.029,0,0,1,.538-.655,2.058,2.058,0,0,1,1.283-.447" transform="translate(-388 -307.442)" fill="#afafaf"/>
      <path id="Path_38" data-name="Path 38" d="M471.046,337.937a2.04,2.04,0,1,0,2.04-2.04,2.04,2.04,0,0,0-2.04,2.04" transform="translate(-448.296 -325.873)" fill="#afafaf"/>
      <path id="Path_39" data-name="Path 39" d="M433.93,464.076a1.828,1.828,0,1,0,1.828,1.828,1.828,1.828,0,0,0-1.828-1.828" transform="translate(-420.02 -419.89)" fill="#afafaf"/>
      <path id="Path_40" data-name="Path 40" d="M397.141,337.286a1.4,1.4,0,1,0-1.4-1.4,1.4,1.4,0,0,0,1.4,1.4" transform="translate(-393.617 -324.825)" fill="#afafaf"/>
      <path id="Path_41" data-name="Path 41" d="M472.192,301.309a1.4,1.4,0,1,0-1.4-1.4,1.4,1.4,0,0,0,1.4,1.4" transform="translate(-448.108 -298.45)" fill="#afafaf"/>
      <path id="Path_42" data-name="Path 42" d="M477.373,436.609a1.3,1.3,0,1,0,1.3,1.3,1.3,1.3,0,0,0-1.3-1.3" transform="translate(-451.947 -399.691)" fill="#afafaf"/>
      <path id="Path_43" data-name="Path 43" d="M447.452,300.651a1.169,1.169,0,1,0-1.168-1.168,1.169,1.169,0,0,0,1.168,1.168" transform="translate(-430.317 -298.314)" fill="#afafaf"/>
      <path id="Path_44" data-name="Path 44" d="M408.2,455.468a1.4,1.4,0,1,0,1.4,1.4,1.4,1.4,0,0,0-1.4-1.4" transform="translate(-401.646 -413.64)" fill="#afafaf"/>
      <path id="Path_45" data-name="Path 45" d="M394.753,408.748a2.314,2.314,0,1,0-2.948,2.224l-.325,3.658a1.406,1.406,0,1,0,.842.094l.326-3.673a2.314,2.314,0,0,0,2.106-2.3" transform="translate(-389.542 -377.732)" fill="#afafaf"/>
    </g>
    <g id="Group_25" data-name="Group 25" transform="translate(28.784)">
      <path id="Path_46" data-name="Path 46" d="M509.974,317.389c-.045-10.673.059-21.393-.006-32.052a41.374,41.374,0,0,0-9.065,9.542,39.459,39.459,0,0,0-4.931,10.253v3.588a3.238,3.238,0,0,1,.818.185l2.778-3.9a1.986,1.986,0,0,1-.563-1.372,2.035,2.035,0,1,1,2.034,1.988,2.15,2.15,0,0,1-.778-.146l-2.7,3.787a3.653,3.653,0,0,1,1.848,3.174,3.58,3.58,0,0,1-.252,1.327l3.517,1.267h.011a2.057,2.057,0,0,1,1.7-.878,1.991,1.991,0,1,1-2.043,1.99,1.791,1.791,0,0,1,.034-.353l-3.6-1.289a3.811,3.811,0,0,1-2.8,1.637v6.384l1.3.088a1.244,1.244,0,1,1,0,.822l-1.3-.083v10.8a59.447,59.447,0,0,1,8.12-11.181,60.6,60.6,0,0,1,5.882-5.575m-4.3-20.2a1.142,1.142,0,1,1,.821-.324,1.142,1.142,0,0,1-.821.324" transform="translate(-495.972 -285.337)" fill="#afafaf"/>
      <path id="Path_47" data-name="Path 47" d="M529,339.159q-.02-16.232-.04-32.463l-3.553,1.613-.027,26.642a36.88,36.88,0,0,0-6.681,6.022,36.129,36.129,0,0,0-4.3,6.138,65.549,65.549,0,0,1,9.425-5.674c1.79-.882,3.522-1.634,5.17-2.277" transform="translate(-509.358 -300.845)" fill="#afafaf"/>
      <path id="Path_48" data-name="Path 48" d="M537.293,328.037v29.67a51.883,51.883,0,0,0-8.955,4.4,46.766,46.766,0,0,0-6.528,4.906,82.592,82.592,0,0,1,11.613-4.216c2.364-.662,4.626-1.183,6.761-1.591v-33.17Z" transform="translate(-514.734 -317.563)" fill="#afafaf"/>
    </g>
    <g id="Group_26" data-name="Group 26" transform="translate(64.181 7.507)">
      <path id="Path_49" data-name="Path 49" d="M645.143,328.628H642.6l-3.391-4.988H637.75v4.988h-2.11V315.043h5.3c2.918,0,4.14,2.169,4.14,4.318,0,1.972-1.006,3.944-3.51,4.2Zm-7.394-11.653v4.752h3.036a2.4,2.4,0,0,0,.079-4.752Z" transform="translate(-635.64 -314.412)" fill="#afafaf"/>
      <path id="Path_50" data-name="Path 50" d="M676.971,334.455h7.315a2.673,2.673,0,0,0-2.82-2.307,2.839,2.839,0,0,0-2.5,1.321l-1.656-.73a4.56,4.56,0,0,1,4.259-2.366A4.636,4.636,0,0,1,686.3,335.2a4.587,4.587,0,0,1-4.732,4.771,4.494,4.494,0,0,1-4.614-4.771c0-.217,0-.533.02-.749m1.972,1.478a2.5,2.5,0,0,0,2.622,2.267,2.6,2.6,0,0,0,2.721-2.267Z" transform="translate(-665.634 -325.542)" fill="#afafaf"/>
      <path id="Path_51" data-name="Path 51" d="M723.753,330.5h2.031v13.683h-2.031v-5.8a3.406,3.406,0,0,1-3.076,1.518,4.807,4.807,0,0,1,0-9.6,3.477,3.477,0,0,1,3.076,1.558Zm-2.819,1.774a2.722,2.722,0,0,0-2.741,2.879,2.666,2.666,0,0,0,2.741,2.8,2.839,2.839,0,0,0,0-5.678" transform="translate(-694.06 -325.49)" fill="#afafaf"/>
      <path id="Path_52" data-name="Path 52" d="M759.664,334.455h7.315a2.673,2.673,0,0,0-2.819-2.307,2.84,2.84,0,0,0-2.5,1.321l-1.656-.73a4.559,4.559,0,0,1,4.258-2.366,4.637,4.637,0,0,1,4.732,4.831,4.587,4.587,0,0,1-4.732,4.771,4.494,4.494,0,0,1-4.614-4.771c0-.217,0-.533.02-.749m1.972,1.478a2.5,2.5,0,0,0,2.622,2.267,2.6,2.6,0,0,0,2.721-2.267Z" transform="translate(-725.673 -325.542)" fill="#afafaf"/>
      <path id="Path_53" data-name="Path 53" d="M809.864,334.757v4.949h-2.031V334.54c-.019-1.42-.769-2.248-1.873-2.248a2.2,2.2,0,0,0-2.327,2.465v4.949H801.6V330.5h2.031v1.38a3.3,3.3,0,0,1,2.9-1.578,2.884,2.884,0,0,1,2.9,1.833,3.338,3.338,0,0,1,3.1-1.833c2.287,0,3.549,1.479,3.549,4.1v5.3h-2.031v-5.126c0-1.439-.769-2.287-1.952-2.287a2.213,2.213,0,0,0-2.228,2.465" transform="translate(-756.138 -325.49)" fill="#afafaf"/>
      <path id="Path_54" data-name="Path 54" d="M864.857,335.723c-1.971-.533-2.681-1.5-2.543-3,.1-1.361,1.617-2.425,3.293-2.425,1.617,0,3.253.749,3.352,2.721h-1.932a1.211,1.211,0,0,0-1.341-.986,1.658,1.658,0,0,0-1.3.513.939.939,0,0,0-.079.828c.138.375.631.572,1.124.71l1.42.355a2.711,2.711,0,0,1,2.406,2.681c0,1.775-1.557,2.78-3.667,2.78a3.275,3.275,0,0,1-3.529-3.016h1.873c.1.789.729,1.321,1.814,1.321.926,0,1.636-.414,1.636-1.1,0-.611-.591-.927-1.281-1.085Z" transform="translate(-800.031 -325.49)" fill="#afafaf"/>
      <path id="Path_55" data-name="Path 55" d="M902,338.385a3.672,3.672,0,0,1-3.1,1.518,4.8,4.8,0,0,1,0-9.6,3.654,3.654,0,0,1,3.1,1.5v-1.3h2.011v9.208H902Zm-2.859-.453a2.747,2.747,0,0,0,2.839-2.859,2.776,2.776,0,0,0-2.839-2.8,2.741,2.741,0,0,0-2.819,2.8,2.79,2.79,0,0,0,2.819,2.859" transform="translate(-823.389 -325.49)" fill="#afafaf"/>
      <rect id="Rectangle_62" data-name="Rectangle 62" width="2.031" height="14.216" transform="translate(83.457)" fill="#afafaf"/>
      <path id="Path_56" data-name="Path 56" d="M642.856,395.683a3.412,3.412,0,0,1,2.484,3.253,3.865,3.865,0,0,1-4.081,3.983H635.64V389.334h5.205a3.415,3.415,0,0,1,3.766,3.588,2.8,2.8,0,0,1-1.755,2.76m-2.09-.769A1.713,1.713,0,0,0,642.442,393a1.643,1.643,0,0,0-1.814-1.755H637.75v3.667Zm-3.017,1.794v4.3h3.411a2,2,0,0,0,1.992-2.09,2.153,2.153,0,0,0-2.051-2.208Z" transform="translate(-635.64 -369.575)" fill="#afafaf"/>
      <path id="Path_57" data-name="Path 57" d="M685.223,412.676a3.673,3.673,0,0,1-3.1,1.518,4.8,4.8,0,0,1,0-9.6,3.654,3.654,0,0,1,3.1,1.5v-1.3h2.011V414h-2.011Zm-2.859-.453a2.868,2.868,0,1,0-2.819-2.859,2.791,2.791,0,0,0,2.819,2.859" transform="translate(-666 -380.653)" fill="#afafaf"/>
      <path id="Path_58" data-name="Path 58" d="M726.265,404.592a4.681,4.681,0,0,1,3.648,1.6l-1.577,1.262a2.724,2.724,0,0,0-2.07-.888,2.782,2.782,0,0,0-2.9,2.8,2.848,2.848,0,0,0,2.9,2.879,2.74,2.74,0,0,0,2.07-.907l1.6,1.242a4.859,4.859,0,1,1-3.667-7.986" transform="translate(-697.874 -380.653)" fill="#afafaf"/>
      <path id="Path_59" data-name="Path 59" d="M765.4,412.676a3.673,3.673,0,0,1-3.1,1.518,4.8,4.8,0,0,1,0-9.6,3.654,3.654,0,0,1,3.1,1.5v-1.3h2.011V414H765.4Zm-2.859-.453a2.747,2.747,0,0,0,2.839-2.859,2.776,2.776,0,0,0-2.839-2.8,2.741,2.741,0,0,0-2.819,2.8,2.791,2.791,0,0,0,2.819,2.859" transform="translate(-724.211 -380.653)" fill="#afafaf"/>
      <path id="Path_60" data-name="Path 60" d="M805.72,414h-2.031v-9.208h2.031v2.11c.474-1.656,1.361-2.307,2.524-2.307a3.253,3.253,0,0,1,1.637.355l-.335,1.873a2.983,2.983,0,0,0-1.36-.316c-1.735,0-2.465,1.735-2.465,4.18Z" transform="translate(-757.653 -380.653)" fill="#afafaf"/>
      <rect id="Rectangle_63" data-name="Rectangle 63" width="2.011" height="9.208" transform="translate(53.903 24.136)" fill="#afafaf"/>
      <path id="Path_61" data-name="Path 61" d="M855.672,404.789H857.7v13.683h-2.031v-5.8a3.406,3.406,0,0,1-3.076,1.518,4.807,4.807,0,0,1,0-9.6,3.478,3.478,0,0,1,3.076,1.558Zm-2.82,1.774a2.721,2.721,0,0,0-2.74,2.879,2.666,2.666,0,0,0,2.74,2.8,2.839,2.839,0,1,0,0-5.678" transform="translate(-789.841 -380.653)" fill="#afafaf"/>
      <rect id="Rectangle_64" data-name="Rectangle 64" width="2.031" height="14.216" transform="translate(70.701 19.128)" fill="#afafaf"/>
      <path id="Path_62" data-name="Path 62" d="M917.108,412.676a3.672,3.672,0,0,1-3.1,1.518,4.8,4.8,0,0,1,0-9.6,3.652,3.652,0,0,1,3.1,1.5v-1.3h2.011V414h-2.011Zm-2.859-.453a2.747,2.747,0,0,0,2.839-2.859,2.776,2.776,0,0,0-2.839-2.8,2.741,2.741,0,0,0-2.819,2.8,2.791,2.791,0,0,0,2.819,2.859" transform="translate(-834.361 -380.653)" fill="#afafaf"/>
      <path id="Path_63" data-name="Path 63" d="M957.432,414H955.4v-9.208h2.031v2.11c.473-1.656,1.36-2.307,2.524-2.307a3.251,3.251,0,0,1,1.636.355l-.335,1.873a2.984,2.984,0,0,0-1.36-.316c-1.735,0-2.464,1.735-2.464,4.18Z" transform="translate(-867.803 -380.653)" fill="#afafaf"/>
    </g>
  </g>
</svg>
