<svg id="tkta-logo_with_text" xmlns="http://www.w3.org/2000/svg" width="126.325" height="43" viewBox="0 0 126.325 43">
  <g id="Group_853" data-name="Group 853">
    <g id="Group_843" data-name="Group 843">
      <g id="Group_809" data-name="Group 809">
        <path id="Path_766" data-name="Path 766" d="M1.44,37.59H0v-.862H3.919v.862H2.47v4H1.44Z" fill="#afafaf"/>
      </g>
      <g id="Group_810" data-name="Group 810">
        <path id="Path_767" data-name="Path 767" d="M5.5,40.858a.726.726,0,0,1-.768-.578h1.6A.793.793,0,0,1,5.5,40.858Zm-.1-2.667a3.069,3.069,0,0,0-1.333.314l.38.669a2.26,2.26,0,0,1,.906-.2.913.913,0,0,1,.977.655H3.794a1.958,1.958,0,0,0-.025.327,1.654,1.654,0,0,0,1.764,1.694,1.688,1.688,0,0,0,1.781-1.72A1.744,1.744,0,0,0,5.4,38.191Z" fill="#afafaf"/>
      </g>
      <g id="Group_811" data-name="Group 811">
        <path id="Path_768" data-name="Path 768" d="M10.232,38.191a1.205,1.205,0,0,1,1.325,1.39v2.012h-.965V39.809c0-.612-.241-.812-.7-.812a.789.789,0,0,0-.84.9V41.59H8.088V36.55h.963v2.1h.014a1.584,1.584,0,0,1,1.167-.46Z" fill="#afafaf"/>
      </g>
      <g id="Group_812" data-name="Group 812">
        <path id="Path_769" data-name="Path 769" d="M12.18,41.155l.467-.618a1.437,1.437,0,0,0,.995.391c.28,0,.442-.114.442-.277s-.187-.23-.654-.371c-.593-.18-1.106-.441-1.106-1.086,0-.6.56-1,1.293-1a2.125,2.125,0,0,1,1.315.421l-.467.655a1.333,1.333,0,0,0-.859-.354c-.158,0-.352.077-.352.25,0,.141.187.238.539.362.78.267,1.235.424,1.235,1.082,0,.592-.452,1.04-1.393,1.04a2.232,2.232,0,0,1-1.455-.492Z" fill="#afafaf"/>
      </g>
      <g id="Group_813" data-name="Group 813">
        <path id="Path_770" data-name="Path 770" d="M15.81,38.248h.962V41.59H15.81Zm-.115-1.02a.6.6,0,1,1,.6.549.573.573,0,0,1-.6-.549Z" fill="#afafaf"/>
      </g>
      <g id="Group_814" data-name="Group 814">
        <path id="Path_771" data-name="Path 771" d="M17.834,36.55H18.8v5.04h-.963Z" fill="#afafaf"/>
      </g>
      <g id="Group_815" data-name="Group 815">
        <path id="Path_772" data-name="Path 772" d="M22.456,39.932a.9.9,0,0,1-.948.912.875.875,0,0,1-.92-.912A.892.892,0,0,1,21.511,39,.912.912,0,0,1,22.456,39.932Zm-.05-3.381v2.075h-.019a1.44,1.44,0,0,0-1.085-.435,1.664,1.664,0,0,0-1.691,1.738,1.642,1.642,0,0,0,1.72,1.717,1.379,1.379,0,0,0,1.1-.46h.021v.4h.916V36.55Z" fill="#afafaf"/>
      </g>
      <g id="Group_816" data-name="Group 816">
        <path id="Path_773" data-name="Path 773" d="M26.695,40.28a.793.793,0,0,1-.83.578.726.726,0,0,1-.768-.578Zm.984-.355a1.744,1.744,0,0,0-1.91-1.734,3.069,3.069,0,0,0-1.333.314l.38.669a2.26,2.26,0,0,1,.906-.2.913.913,0,0,1,.977.655h-2.54a1.958,1.958,0,0,0-.025.327A1.654,1.654,0,0,0,25.9,41.646a1.688,1.688,0,0,0,1.781-1.72Z" fill="#afafaf"/>
      </g>
      <g id="Group_817" data-name="Group 817">
        <path id="Path_774" data-name="Path 774" d="M32.01,39.641l-.5.565V41.59H30.474V36.728H31.5V38.87h.007l1.807-2.142h1.307L32.7,38.873l1.99,2.717H33.414l-1.393-1.949Z" fill="#afafaf"/>
      </g>
      <g id="Group_818" data-name="Group 818">
        <path id="Path_775" data-name="Path 775" d="M36.764,38.98a.75.75,0,0,1,.776.585H35.956A.783.783,0,0,1,36.764,38.98Zm1.706,1.23a1.586,1.586,0,0,0,.025-.321,1.658,1.658,0,0,0-1.763-1.7,1.694,1.694,0,0,0-1.782,1.725,1.722,1.722,0,0,0,1.85,1.73,1.976,1.976,0,0,0,1.552-.631l-.626-.542a1.094,1.094,0,0,1-.858.378.9.9,0,0,1-.916-.642H38.47Z" fill="#afafaf"/>
      </g>
      <g id="Group_819" data-name="Group 819">
        <path id="Path_776" data-name="Path 776" d="M42.426,38.248,40.49,42.943h-.984l.64-1.56-1.437-3.135h1.005l.88,2.068H40.6l.822-2.068Z" fill="#afafaf"/>
      </g>
      <g id="Group_820" data-name="Group 820">
        <path id="Path_777" data-name="Path 777" d="M43.17,38.99h-.38v-.742h.38v-.575a1.042,1.042,0,0,1,1.129-1.18,1.833,1.833,0,0,1,.93.241l-.194.7a1.423,1.423,0,0,0-.538-.147c-.227,0-.363.123-.363.451v.508h.8v.742h-.8v2.6h-.963Z" fill="#afafaf"/>
      </g>
      <g id="Group_821" data-name="Group 821">
        <path id="Path_778" data-name="Path 778" d="M45.63,38.248h.963V41.59H45.63Zm-.115-1.02a.6.6,0,1,1,.6.549.574.574,0,0,1-.6-.549Z" fill="#afafaf"/>
      </g>
      <g id="Group_822" data-name="Group 822">
        <path id="Path_779" data-name="Path 779" d="M50.963,38.248l-1.937,4.695h-.983l.639-1.56-1.437-3.135h1.006l.88,2.068h.01l.823-2.068Z" fill="#afafaf"/>
      </g>
      <g id="Group_823" data-name="Group 823">
        <path id="Path_780" data-name="Path 780" d="M54.926,38.248,52.99,42.943h-.984l.639-1.56-1.437-3.135h1.006l.88,2.068h.01l.823-2.068Z" fill="#afafaf"/>
      </g>
      <g id="Group_824" data-name="Group 824">
        <path id="Path_781" data-name="Path 781" d="M56.863,40.858a.726.726,0,0,1-.768-.578h1.6a.793.793,0,0,1-.83.578Zm-.1-2.667a3.076,3.076,0,0,0-1.333.314l.381.669a2.26,2.26,0,0,1,.906-.2.911.911,0,0,1,.976.655H55.157a1.958,1.958,0,0,0-.025.327A1.653,1.653,0,0,0,56.9,41.646a1.688,1.688,0,0,0,1.781-1.72,1.744,1.744,0,0,0-1.91-1.735Z" fill="#afafaf"/>
      </g>
      <g id="Group_825" data-name="Group 825">
        <path id="Path_782" data-name="Path 782" d="M59.519,40.534V38.99H59.1v-.742h.424V37.155l.962-.1v1.19h.977v.742h-.977v1.42c0,.288.09.428.317.428a1.178,1.178,0,0,0,.452-.117l.248.715a1.851,1.851,0,0,1-.952.21.971.971,0,0,1-1.027-1.112Z" fill="#afafaf"/>
      </g>
      <g id="Group_826" data-name="Group 826">
        <path id="Path_783" data-name="Path 783" d="M65.274,37.59h-1.44v-.862h3.918v.862H66.3v4h-1.03Z" fill="#afafaf"/>
      </g>
      <g id="Group_827" data-name="Group 827">
        <path id="Path_784" data-name="Path 784" d="M69.334,40.858a.725.725,0,0,1-.768-.578h1.6A.793.793,0,0,1,69.334,40.858Zm1.814-.933a1.744,1.744,0,0,0-1.91-1.734,3.066,3.066,0,0,0-1.333.314l.38.669a2.26,2.26,0,0,1,.906-.2.913.913,0,0,1,.977.655h-2.54a1.958,1.958,0,0,0-.025.327,1.653,1.653,0,0,0,1.763,1.694,1.689,1.689,0,0,0,1.782-1.72Z" fill="#afafaf"/>
      </g>
      <g id="Group_828" data-name="Group 828">
        <path id="Path_785" data-name="Path 785" d="M76.293,38.191c.779,0,1.267.438,1.267,1.457v1.945H76.6V39.865c0-.535-.176-.868-.629-.868-.4,0-.733.324-.733.922v1.674h-.962V39.865c0-.535-.187-.868-.636-.868-.43,0-.758.324-.758.922v1.67h-.962v-3.34h.962v.44h.011a1.427,1.427,0,0,1,1.074-.5,1.149,1.149,0,0,1,1.067.538h.01a1.589,1.589,0,0,1,1.25-.538Z" fill="#afafaf"/>
      </g>
      <g id="Group_829" data-name="Group 829">
        <path id="Path_786" data-name="Path 786" d="M78.523,38.248h.963V41.59h-.963Zm-.115-1.02a.6.6,0,1,1,.6.549.574.574,0,0,1-.6-.549Z" fill="#afafaf"/>
      </g>
      <g id="Group_830" data-name="Group 830">
        <path id="Path_787" data-name="Path 787" d="M83.935,39.608v1.985h-.963V39.832c0-.638-.244-.835-.69-.835-.488,0-.815.317-.815.912v1.68H80.5v-3.34h.962v.43h.011a1.55,1.55,0,0,1,1.153-.488C83.4,38.191,83.935,38.579,83.935,39.608Z" fill="#afafaf"/>
      </g>
      <g id="Group_831" data-name="Group 831">
        <path id="Path_788" data-name="Path 788" d="M86.547,40.844a.874.874,0,0,1-.919-.912.914.914,0,1,1,.919.912Zm.87-2.6v.378H87.4a1.4,1.4,0,0,0-1.06-.435,1.664,1.664,0,0,0-1.691,1.738,1.642,1.642,0,0,0,1.72,1.717,1.335,1.335,0,0,0,1.074-.46h.018v.4h.916V38.248Z" fill="#afafaf"/>
      </g>
      <g id="Group_832" data-name="Group 832">
        <path id="Path_789" data-name="Path 789" d="M89.411,40.534V38.99h-.424v-.742h.424V37.155l.962-.1v1.19h.977v.742h-.977v1.42c0,.288.09.428.317.428a1.174,1.174,0,0,0,.452-.117l.248.715a1.851,1.851,0,0,1-.952.21A.971.971,0,0,1,89.411,40.534Z" fill="#afafaf"/>
      </g>
      <g id="Group_833" data-name="Group 833">
        <path id="Path_790" data-name="Path 790" d="M92.107,38.248h.963V41.59h-.963Z" fill="#afafaf"/>
      </g>
      <g id="Group_834" data-name="Group 834">
        <path id="Path_791" data-name="Path 791" d="M97.406,39.795l.7-1.908h.007l.7,1.908Zm2.062,1.795h1.081l-1.943-4.862h-1L95.67,41.59h1.081l.356-.973h2Z" fill="#afafaf"/>
      </g>
      <g id="Group_835" data-name="Group 835">
        <path id="Path_792" data-name="Path 792" d="M102.805,40.717a.857.857,0,1,1,.909-.865A.847.847,0,0,1,102.805,40.717Zm.866-2.469v.344h-.018a1.556,1.556,0,0,0-1.074-.4,1.669,1.669,0,1,0,.05,3.337,1.447,1.447,0,0,0,1.046-.39h.018v.337c0,.408-.345.742-1.017.742a2.444,2.444,0,0,1-1.167-.31l-.223.754a3.091,3.091,0,0,0,1.473.338,1.63,1.63,0,0,0,1.874-1.795V38.248Z" fill="#afafaf"/>
      </g>
      <g id="Group_836" data-name="Group 836">
        <path id="Path_793" data-name="Path 793" d="M107.189,38.98a.75.75,0,0,1,.775.585H106.38A.784.784,0,0,1,107.189,38.98ZM108.894,40.21Zm0,0a1.577,1.577,0,0,0,.026-.321,1.658,1.658,0,0,0-1.764-1.7,1.693,1.693,0,0,0-1.781,1.725,1.722,1.722,0,0,0,1.85,1.73,1.975,1.975,0,0,0,1.551-.631l-.625-.542a1.094,1.094,0,0,1-.858.378.9.9,0,0,1-.916-.642Z" fill="#afafaf"/>
      </g>
      <g id="Group_837" data-name="Group 837">
        <path id="Path_794" data-name="Path 794" d="M113.116,39.608v1.985h-.963V39.832c0-.638-.244-.835-.69-.835-.488,0-.814.317-.814.912v1.68h-.963v-3.34h.963v.43h.01a1.552,1.552,0,0,1,1.153-.488C112.582,38.191,113.116,38.579,113.116,39.608Z" fill="#afafaf"/>
      </g>
      <g id="Group_838" data-name="Group 838">
        <path id="Path_795" data-name="Path 795" d="M114.127,40.534V38.99H113.7v-.742h.424V37.155l.962-.1v1.19h.977v.742h-.977v1.42c0,.288.09.428.316.428a1.17,1.17,0,0,0,.453-.117l.248.715a1.851,1.851,0,0,1-.952.21A.971.971,0,0,1,114.127,40.534Z" fill="#afafaf"/>
      </g>
      <g id="Group_839" data-name="Group 839">
        <path id="Path_796" data-name="Path 796" d="M116.822,36.55h.963v5.04h-.963Z" fill="#afafaf"/>
      </g>
      <g id="Group_840" data-name="Group 840">
        <path id="Path_797" data-name="Path 797" d="M118.844,38.248h.962V41.59h-.962Zm-.115-1.02a.6.6,0,1,1,.6.549.574.574,0,0,1-.6-.549Z" fill="#afafaf"/>
      </g>
      <g id="Group_841" data-name="Group 841">
        <path id="Path_798" data-name="Path 798" d="M124.176,38.248l-1.936,4.695h-.984l.64-1.56-1.437-3.135h1.006l.88,2.068h.01l.823-2.068Z" fill="#afafaf"/>
      </g>
      <g id="Group_842" data-name="Group 842">
        <path id="Path_799" data-name="Path 799" d="M124.831,38.248h.963V41.59h-.963Zm-.115-1.02a.6.6,0,1,1,.6.549.574.574,0,0,1-.6-.549Z" fill="#afafaf"/>
      </g>
    </g>
    <g id="Group_852" data-name="Group 852">
      <g id="Group_844" data-name="Group 844">
        <path id="Path_800" data-name="Path 800" d="M32.894,13.455V.07H46.08Z" fill="#afafaf"/>
      </g>
      <g id="Group_845" data-name="Group 845">
        <path id="Path_801" data-name="Path 801" d="M62.712.07h-12.7L32.894,17.507V31.47L43.2,20.64,51.88,31.47H62.712L49.008,14.5Z" fill="#afafaf"/>
      </g>
      <g id="Group_847" data-name="Group 847">
        <g id="Group_846" data-name="Group 846">
          <path id="Path_802" data-name="Path 802" d="M9.807,7.588H.014V.093H27.842V7.588H18.164v23.93H9.807Z" fill="#afafaf"/>
        </g>
      </g>
      <g id="Group_849" data-name="Group 849">
        <g id="Group_848" data-name="Group 848">
          <path id="Path_803" data-name="Path 803" d="M77.605,7.588H67.813V.093H95.641V7.588H85.963v23.93H77.605Z" fill="#afafaf"/>
        </g>
      </g>
      <g id="Group_851" data-name="Group 851">
        <g id="Group_850" data-name="Group 850">
          <path id="Path_804" data-name="Path 804" d="M108.025,19.316l2.812-9.041h.087l2.812,9.041Zm9.5,12.157h8.8L114.9,0h-8.047L95.437,31.473h8.824l1.58-5.083h10.1Z" fill="#afafaf"/>
        </g>
      </g>
    </g>
  </g>
</svg>
