<svg xmlns="http://www.w3.org/2000/svg" width="170.442" height="106.417" viewBox="0 0 170.442 106.417">
  <g id="Group_602" data-name="Group 602" transform="translate(-50.589 -22.578)">
    <g id="Layer_2" data-name="Layer 2" transform="translate(87.09 22.578)">
      <path id="Path_669" data-name="Path 669" d="M212.565,71.336l-.538-1.2H208.18l-.767,1.72c-.26.6.267.908.619,1.038v.156H205.3v-.167c.311-.107.764-.319,1.2-1.249l3.077-6.739c-.041-.259-.56-.437-.7-.449v-.167h1.983l3.381,7.436a2.057,2.057,0,0,0,1.186,1.168v.167h-3.288v-.167c.3-.119.879-.437.652-1.027C212.724,71.692,212.643,71.525,212.565,71.336Zm-4.018-1.994h3.129l-1.542-3.51Zm8-3.925h.089c.067.171.267.171.4.171H222.4v.7L217.615,72.4h3.747c.452,0,.864-.371,1.112-1.034h.1l-.285,1.675h-6.231v-.623l4.782-6.12h-3.6c-.315,0-.612.471-.741.923h-.1Zm15.372,1.234c0-.6-.193-.778-.567-.923v-.141h4c1.609,0,2.4.893,2.4,2.028s-.816,2.028-2.421,2.028l2.1,2.5a2.654,2.654,0,0,0,.967.782v.13h-1.746l-3.232-3.885v-.171h1.761a1.26,1.26,0,0,0,1.231-1.386,1.241,1.241,0,0,0-1.231-1.364H233.46c-.219,0-.371,0-.371.371v5.412c0,.571.189.76.567.893v.13h-2.3v-.141c.371-.133.567-.322.567-.893Zm7.654,6.4V72.91c.371-.133.567-.322.567-.893v-5.36c0-.6-.2-.778-.567-.923v-.141h4.255c1.016,0,2.313.311,2.313,1.853a1.942,1.942,0,0,1-.678,1.527,2.024,2.024,0,0,1,1.216,1.927,2.324,2.324,0,0,1-2.595,2.18Zm1.742-6.806v2.48h2.391a1.244,1.244,0,1,0-.044-2.48Zm0,5.931a.189.189,0,0,0,.152.193h2.547a1.352,1.352,0,0,0,1.3-1.5c0-.764-.389-1.483-1.168-1.483H241.31Zm12.021-.6-.46-1.027H249.6l-.671,1.483c-.219.512.226.778.534.886v.13h-2.335v-.141c.271-.089.652-.271,1.027-1.064l2.628-5.731c-.033-.222-.478-.371-.6-.371V65.6h1.709l2.865,6.335a1.735,1.735,0,0,0,1.012.993v.119h-2.795v-.141c.248-.1.741-.371.545-.875-.059-.137-.119-.278-.185-.437Zm-3.425-1.7h2.669l-1.312-2.991Zm9.434-.211v2.517a.741.741,0,0,0,.571.715v.148h-2.324V72.9a.708.708,0,0,0,.582-.7V69.98l-2.532-3.529a1.531,1.531,0,0,0-.849-.741v-.141h2.45v.141c-.219.074-.526.208-.259.582l1.909,2.7,2.091-2.687c.271-.371,0-.534-.285-.593v-.141h2.02v.141a.912.912,0,0,0-.612.371Zm7.591,2.891a2.617,2.617,0,0,0,2.554-1.7h.1l-.145,1.527a5.141,5.141,0,0,1-2.7.834,3.923,3.923,0,1,1,0-7.832,5.994,5.994,0,0,1,2.509.571,1,1,0,0,0,.108-.056h.089l-.141,1.672h-.1a2.254,2.254,0,0,0-2.291-1.5,3.263,3.263,0,0,0,.007,6.5Zm9.352-.982-.46-1.027h-3.273l-.675,1.483c-.219.512.226.778.534.886v.13h-2.335V72.9c.271-.089.656-.271,1.027-1.064l2.635-5.742c-.037-.222-.478-.371-.6-.371v-.141h1.687l2.876,6.346a1.753,1.753,0,0,0,1.012.993v.119h-2.8V72.9c.259-.1.741-.371.552-.875-.056-.137-.111-.278-.182-.437Zm-3.421-1.7h2.665l-1.316-2.991Zm13.841,3.169h-.838l-5.189-6v5.063a.764.764,0,0,0,.567.812v.13h-1.913v-.141a.741.741,0,0,0,.574-.812V66.514a.793.793,0,0,0-.575-.782v-.141h1.75l4.819,5.56v-4.6a.771.771,0,0,0-.571-.819v-.141h1.9v.141a.76.76,0,0,0-.56.819Zm5.56-7.521c0-.708-.23-.919-.671-1.082v-.167h4.7c1.894,0,2.813,1.053,2.813,2.383s-.96,2.376-2.843,2.376l2.457,2.921a3.1,3.1,0,0,0,1.142.923v.167h-2.053L294.031,68.5v-.2H296.1a1.48,1.48,0,0,0,1.449-1.624,1.465,1.465,0,0,0-1.449-1.605h-2.031c-.245,0-.415,0-.415.411V71.85c0,.667.215.893.664,1.045v.156H291.6v-.167c.441-.152.671-.371.671-1.045Zm10.623.715v2.65h2.317c.282,0,.393-.322.474-.775h.1l-.141,2.168h-.089c-.041-.33-.115-.741-.341-.741H302.9V72.16c0,.141.07.222.159.222h2.914c.552,0,.89-.6,1.008-1.034h.107l-.334,1.694H301.13V72.9c.371-.133.556-.322.556-.893v-5.36c0-.6-.189-.778-.556-.923v-.141h5.49a.241.241,0,0,0,.208-.089h.074l-.148,1.687h-.089c-.019-.3-.1-.934-.423-.934Zm5.275,4.615h.1a2.576,2.576,0,0,0,2.713,1.72c.964,0,2.131-.437,2.131-1.449,0-.86-.908-1.112-1.92-1.394-1.346-.348-2.836-.741-2.836-2.224,0-1.434,1.538-2.1,3.04-2.1a3.707,3.707,0,0,1,2,.493,2.562,2.562,0,0,0,.267-.089h.1v1.646h-.1c-.133-1.212-1.616-1.394-2.291-1.394-.967,0-1.853.371-1.853,1.212,0,.612,1.223.912,1.779,1.064,1.353.371,2.965.864,2.965,2.621s-1.764,2.339-3.451,2.3a4.277,4.277,0,0,1-2.658-.875Zm7.947-4.215c0-.6-.189-.778-.563-.923V65.58h4.007c1.612,0,2.4.893,2.4,2.028s-.8,2.028-2.4,2.028h-2.272v2.38c0,.571.193.76.571.893v.141H315.55v-.141c.371-.133.563-.322.563-.893Zm1.531-.419c-.208,0-.371,0-.371.371V69h2.083a1.256,1.256,0,0,0,1.234-1.386,1.242,1.242,0,0,0-1.234-1.383Zm12.006,3.2c0,2.561-1.542,3.814-3.11,3.814s-3.191-1.3-3.191-3.862V66.655c0-.589-.2-.771-.571-.923v-.141h2.361v.141a.778.778,0,0,0-.552.834v2.691c0,2.187,1.075,3.288,2.183,3.288s2.1-1.03,2.1-3.091v-2.8c0-.589-.189-.771-.552-.923V65.59h1.9v.141c-.371.145-.575.322-.575.923Zm1.7,3.625V72.9c.371-.133.571-.322.571-.893v-5.36c0-.6-.2-.778-.571-.923v-.141h4.259c1.008,0,2.313.311,2.313,1.853a1.916,1.916,0,0,1-.682,1.527,2.016,2.016,0,0,1,1.231,1.927,2.324,2.324,0,0,1-2.6,2.18Zm1.746-6.806v2.48h2.391a1.244,1.244,0,1,0-.041-2.48Zm0,5.931a.192.192,0,0,0,.152.193H335.8a1.351,1.351,0,0,0,1.3-1.5c0-.764-.371-1.483-1.171-1.483h-2.817Zm12.106.875h-5.464V72.9a.741.741,0,0,0,.56-.812V66.655c0-.6-.178-.771-.56-.923v-.141h2.3v.141c-.371.145-.563.341-.563.923v5.412c0,.267.1.341.248.341h2.6c.456,0,.875-.4,1.112-1.034h.1Zm3.547-7.469v.141c-.371.145-.563.341-.563.923v5.5a.686.686,0,0,0,.563.775v.13h-2.306V72.9a.7.7,0,0,0,.563-.775V66.655c0-.6-.185-.771-.563-.923v-.141Zm-1.286-1.916a.682.682,0,1,1-.567.66.593.593,0,0,1,.567-.649ZM352.5,65.58v.141a.827.827,0,0,0-.575.923v3l2.965-3.292a.093.093,0,0,0,.026-.052c.241-.271.1-.541-.26-.582V65.58h2.013v.141a3.484,3.484,0,0,0-1.112.882l-2.031,2.224,2.6,3.258a2.2,2.2,0,0,0,.971.808v.156H355.3l-2.6-3.3-.775.886V72.1a.741.741,0,0,0,.575.812v.141H350.2v-.141a.741.741,0,0,0,.571-.812V66.655c0-.6-.189-.771-.571-.923v-.141Zm10.709,6-.456-1.027h-3.277l-.671,1.483c-.219.512.226.778.534.886v.122h-2.332V72.9c.267-.089.649-.271,1.023-1.064l2.643-5.742c-.041-.222-.486-.371-.6-.371v-.141h1.69l2.873,6.346a1.783,1.783,0,0,0,1.012.993v.119h-2.8V72.9c.256-.1.741-.371.552-.875-.056-.137-.122-.278-.193-.437Zm-3.425-1.7h2.673l-1.312-2.98Zm6.272.982h.1a2.559,2.559,0,0,0,2.71,1.72c.96,0,2.131-.437,2.131-1.449,0-.86-.9-1.112-1.916-1.394-1.349-.348-2.836-.741-2.836-2.224,0-1.435,1.531-2.1,3.036-2.1a3.74,3.74,0,0,1,2,.493,1,1,0,0,0,.267-.089h.1v1.646h-.1c-.137-1.212-1.62-1.394-2.294-1.394-.96,0-1.853.371-1.853,1.212,0,.612,1.223.912,1.783,1.064,1.353.371,2.965.864,2.965,2.621s-1.768,2.339-3.451,2.3a4.307,4.307,0,0,1-2.661-.875Zm9.686-5.278v.141a.823.823,0,0,0-.563.923v5.49a.693.693,0,0,0,.563.775v.13h-2.3V72.9a.7.7,0,0,0,.563-.775V66.655c0-.6-.182-.771-.563-.923v-.141ZM226.5,65.409a5.9,5.9,0,0,0-2.458.6.371.371,0,0,0-.13-.07h-.1l.044,1.675h.1a2.243,2.243,0,0,1,2.376-1.527,3.006,3.006,0,0,1,3,3.232v.152h-6.075a3.67,3.67,0,0,0,0,.393v.222h.022a3.362,3.362,0,0,0,2.2,2.965h0a4.883,4.883,0,0,0,1.112.148,3.828,3.828,0,0,0,4.077-3.885,3.868,3.868,0,0,0-4.168-3.905Zm.111,7.135a3.3,3.3,0,0,1-.927-.137,2.376,2.376,0,0,1-1.4-2.324h4.993a2.656,2.656,0,0,1-2.663,2.462ZM241.492,86.93v.163h-2.7V86.93a.856.856,0,0,0,.667-.949V79.165h-2.083c-.771,0-1.064.567-1.253,1.112H236l.182-1.957h7.929l.182,1.957h-.126c-.193-.552-.478-1.112-1.253-1.112h-2.083v6.817a.864.864,0,0,0,.661.948Zm19.275-7.3v.141c-.371.148-.567.33-.567.923v5.449a.741.741,0,0,0,.567.812v.137h-2.309v-.137a.741.741,0,0,0,.575-.812V83.635h-4.441v2.509a.741.741,0,0,0,.571.812v.137H252.85v-.137a.741.741,0,0,0,.574-.812V80.7c0-.6-.193-.775-.574-.923v-.141h2.313v.141c-.371.137-.571.337-.571.923v2.276h4.426V80.7c0-.593-.2-.775-.575-.923v-.141Zm1.216,5.278h.1a2.554,2.554,0,0,0,2.71,1.716c.96,0,2.124-.434,2.124-1.446,0-.864-.9-1.134-1.913-1.4-1.349-.348-2.836-.719-2.836-2.224,0-1.438,1.538-2.1,3.032-2.1a3.707,3.707,0,0,1,2.009.493c.056-.022.111-.033.259-.089h.108V81.5h-.119c-.13-1.212-1.616-1.394-2.287-1.394-.967,0-1.853.371-1.853,1.212,0,.615,1.223.912,1.783,1.068,1.353.352,2.965.86,2.965,2.617s-1.764,2.339-3.458,2.3a4.278,4.278,0,0,1-2.658-.875Zm9.686-5.278v.141c-.371.137-.563.337-.563.923V86.18a.686.686,0,0,0,.563.775v.137h-2.3v-.137a.693.693,0,0,0,.56-.775V80.7c0-.6-.182-.775-.56-.923v-.141Zm-1.282-1.92a.686.686,0,1,1-.567.663.6.6,0,0,1,.567-.663Zm8.2,9.382h-5.475v-.137a.741.741,0,0,0,.563-.812V80.7c0-.6-.182-.775-.563-.923v-.141h2.309v.141c-.371.137-.571.337-.571.923v5.4c0,.271.1.341.248.341h2.6c.452,0,.871-.4,1.112-1.034h.108Zm12.914,0h-.982l-6.075-7.043V85.98a.882.882,0,0,0,.663.949v.163h-2.243V86.93a.878.878,0,0,0,.675-.949V79.413a.938.938,0,0,0-.675-.919v-.167H284.9l5.675,6.531v-5.4a.893.893,0,0,0-.66-.967v-.167h2.224v.167a.9.9,0,0,0-.652.967Zm7.473-1.442-.456-1.027h-3.28l-.667,1.483c-.226.512.226.771.53.882v.137H292.76V86.99c.274-.089.656-.271,1.03-1.064l2.635-5.742c-.041-.215-.478-.371-.6-.371v-.141h1.687L300.392,86a1.749,1.749,0,0,0,1.008,1v.137h-2.8V87c.252-.1.741-.371.549-.875a2.613,2.613,0,0,0-.18-.473Zm-3.425-1.7h2.684l-1.32-2.991Zm6.987-4.478h.093c.07.174.267.174.4.174H308.4v.7l-4.8,6.1h3.751c.452,0,.864-.371,1.112-1.034h.093l-.3,1.683H302.04v-.63l4.778-6.12h-3.607c-.308,0-.612.471-.741.923h-.1Zm9.523.174v.141c-.371.137-.567.337-.567.923V86.2a.682.682,0,0,0,.567.775v.137h-2.306v-.137a.7.7,0,0,0,.56-.775V80.714c0-.6-.185-.775-.56-.923V79.65Zm-1.286-1.92a.686.686,0,1,1-.567.663.6.6,0,0,1,.567-.682Zm3.288,2.965c0-.6-.2-.786-.571-.923v-.141h4.01c1.616,0,2.4.893,2.4,2.028s-.812,2.028-2.417,2.028l2.091,2.487a2.7,2.7,0,0,0,.964.782v.137h-1.746l-3.236-3.881v-.156h1.768a1.267,1.267,0,0,0,1.234-1.386,1.248,1.248,0,0,0-1.234-1.364h-1.731c-.208,0-.371,0-.371.348v5.419c0,.575.189.764.567.893V87.1H313.48v-.137c.371-.13.571-.319.571-.893Zm13.122,6.4H321.7v-.137a.741.741,0,0,0,.556-.812V80.7c0-.6-.182-.775-.556-.923v-.141H324v.141c-.371.137-.571.337-.571.923v5.4c0,.271.1.341.252.341h2.6c.46,0,.875-.4,1.112-1.034h.119Zm3.388-7.462v.141c-.371.137-.567.337-.567.923v5.486a.686.686,0,0,0,.567.775v.137h-2.313v-.137a.69.69,0,0,0,.56-.775V80.7c0-.6-.182-.775-.56-.923v-.141Zm-1.282-1.92a.623.623,0,0,1,.582.675.586.586,0,1,1-1.153,0,.6.6,0,0,1,.571-.675Zm6.468,6.012v2.521a.741.741,0,0,0,.571.712v.137H334v-.137a.715.715,0,0,0,.578-.7V84.032L332.044,80.5c-.234-.308-.43-.623-.841-.719V79.64h2.446v.141c-.215.07-.53.211-.263.582l1.909,2.695,2.079-2.687c.274-.371,0-.534-.282-.593v-.141h2.02v.141a.867.867,0,0,0-.6.371Zm6.3-4.077v.141c-.371.137-.563.337-.563.923V86.2a.682.682,0,0,0,.563.775v.137h-2.309v-.137a.7.7,0,0,0,.56-.775V80.711c0-.6-.182-.775-.56-.923v-.141Zm-1.286-1.92a.619.619,0,0,1,.575.675.612.612,0,0,1-.567.675.619.619,0,0,1-.578-.686.6.6,0,0,1,.578-.678Zm-92.924,1.668a5.931,5.931,0,0,0-2.454.578.579.579,0,0,0-.126-.067h-.1l.063,1.668h.108a2.213,2.213,0,0,1,2.361-1.527,3,3,0,0,1,3,3.232v.148H244.61a2.143,2.143,0,0,0,0,.371v.237h0A3.388,3.388,0,0,0,246.834,87h0a4.692,4.692,0,0,0,1.112.156,3.83,3.83,0,0,0,4.077-3.885,3.881,3.881,0,0,0-4.174-3.892Zm.111,7.135a3.092,3.092,0,0,1-.919-.141,2.353,2.353,0,0,1-1.4-2.32h4.974a2.624,2.624,0,0,1-2.647,2.446Z" transform="translate(-241.801 19.112)" fill="#afafaf"/>
      <g id="Group_564" data-name="Group 564" transform="translate(13.467)">
        <path id="Path_670" data-name="Path 670" d="M91.27,116.452a.285.285,0,0,0,.167.141l.248-.03v-.111h-.074a.171.171,0,0,1,0,.078c0,.03-.03.03-.03,0l-.074-.085a.52.52,0,0,0-.193,0Z" transform="translate(-57.439 -73.276)" fill="#afafaf" fill-rule="evenodd"/>
        <path id="Path_671" data-name="Path 671" d="M96.62,115Z" transform="translate(-60.806 -72.373)" fill="#afafaf" fill-rule="evenodd"/>
        <path id="Path_672" data-name="Path 672" d="M90.54,117.138v-.026s-.048-.052-.07-.052S90.492,117.112,90.54,117.138Z" transform="translate(-56.932 -73.669)" fill="#afafaf" fill-rule="evenodd"/>
        <path id="Path_673" data-name="Path 673" d="M113.966,97.4a.319.319,0,0,0-.326.315.326.326,0,0,0,.326.326.319.319,0,0,0,.319-.326.315.315,0,0,0-.319-.315Z" transform="translate(-71.517 -61.296)" fill="#afafaf" fill-rule="evenodd"/>
        <path id="Path_674" data-name="Path 674" d="M103.172,108.46a.319.319,0,0,0-.322.319.322.322,0,0,0,.645,0,.319.319,0,0,0-.323-.319Z" transform="translate(-64.726 -68.257)" fill="#afafaf" fill-rule="evenodd"/>
        <path id="Path_675" data-name="Path 675" d="M100.13,114.173h.022S100.13,114.151,100.13,114.173Z" transform="translate(-63.015 -71.846)" fill="#afafaf" fill-rule="evenodd"/>
        <path id="Path_676" data-name="Path 676" d="M99.175,116.543v-.07a.37.37,0,0,0-.115,0h0A.167.167,0,0,0,99.175,116.543Z" transform="translate(-62.341 -73.297)" fill="#afafaf" fill-rule="evenodd"/>
        <path id="Path_677" data-name="Path 677" d="M98.29,116.892a.645.645,0,0,0,.371-.111c-.026-.041-.1-.041-.152-.041A1.026,1.026,0,0,0,98.29,116.892Z" transform="translate(-61.857 -73.468)" fill="#afafaf" fill-rule="evenodd"/>
        <path id="Path_678" data-name="Path 678" d="M77.2,109.06h-.03Z" transform="translate(-48.565 -68.635)" fill="#afafaf" fill-rule="evenodd"/>
        <path id="Path_679" data-name="Path 679" d="M99.76,115.895l.107.1a1.42,1.42,0,0,0,.1-.215h-.082C99.849,115.895,99.779,115.895,99.76,115.895Z" transform="translate(-62.782 -72.864)" fill="#afafaf" fill-rule="evenodd"/>
        <path id="Path_680" data-name="Path 680" d="M76.146,81.91a.322.322,0,1,0,.319.322.322.322,0,0,0-.319-.322Z" transform="translate(-47.716 -51.548)" fill="#afafaf" fill-rule="evenodd"/>
        <path id="Path_681" data-name="Path 681" d="M93.91,114.68Z" transform="translate(-59.1 -72.171)" fill="#afafaf" fill-rule="evenodd"/>
        <path id="Path_682" data-name="Path 682" d="M93.1,116.779a.371.371,0,0,1-.159.03.49.49,0,0,0-.026.111l.026.03a.111.111,0,0,1,.037.026.871.871,0,0,0,.478-.085.545.545,0,0,0-.356-.112Z" transform="translate(-58.471 -73.492)" fill="#afafaf" fill-rule="evenodd"/>
        <path id="Path_683" data-name="Path 683" d="M96.427,116.12c-.022,0-.022.033-.037.033h0Z" transform="translate(-60.661 -73.078)" fill="#afafaf" fill-rule="evenodd"/>
        <path id="Path_684" data-name="Path 684" d="M77.28,108.88Z" transform="translate(-48.59 -68.521)" fill="#afafaf" fill-rule="evenodd"/>
        <path id="Path_685" data-name="Path 685" d="M74.384,103.62c0,.044.037.044.037,0v-.03l-.133-.1c-.03.07,0,.1,0,.13l.067.044S74.384,103.679,74.384,103.62Z" transform="translate(-46.743 -65.129)" fill="#afafaf" fill-rule="evenodd"/>
        <path id="Path_686" data-name="Path 686" d="M76.146,98.029a.323.323,0,1,0-.3-.2.326.326,0,0,0,.3.2Z" transform="translate(-47.716 -61.284)" fill="#afafaf" fill-rule="evenodd"/>
        <path id="Path_687" data-name="Path 687" d="M109.793,112.14h0a5.275,5.275,0,0,1-.563.3h.067a4.574,4.574,0,0,0,.5-.3Z" transform="translate(-68.742 -70.573)" fill="#afafaf" fill-rule="evenodd"/>
        <path id="Path_688" data-name="Path 688" d="M86.644,115.32Z" transform="translate(-54.5 -72.574)" fill="#afafaf" fill-rule="evenodd"/>
        <path id="Path_689" data-name="Path 689" d="M80.91,109.67Z" transform="translate(-50.919 -69.019)" fill="#afafaf" fill-rule="evenodd"/>
        <path id="Path_690" data-name="Path 690" d="M93.66,121.68a1.5,1.5,0,0,1-.13.078.389.389,0,0,0,.148-.063.037.037,0,0,0-.018-.015Z" transform="translate(-58.861 -76.577)" fill="#afafaf" fill-rule="evenodd"/>
        <path id="Path_691" data-name="Path 691" d="M93.39,118.84Z" transform="translate(-58.773 -74.789)" fill="#afafaf" fill-rule="evenodd"/>
        <path id="Path_692" data-name="Path 692" d="M86.982,108.46a.319.319,0,0,0-.322.319.322.322,0,0,0,.645,0,.319.319,0,0,0-.322-.319Z" transform="translate(-54.538 -68.257)" fill="#afafaf" fill-rule="evenodd"/>
        <path id="Path_693" data-name="Path 693" d="M111.11,111.376a.766.766,0,0,0,.126-.056.415.415,0,0,0-.126.041Z" transform="translate(-69.925 -70.057)" fill="#afafaf" fill-rule="evenodd"/>
        <path id="Path_694" data-name="Path 694" d="M81.1,110Z" transform="translate(-51.02 -69.226)" fill="#afafaf" fill-rule="evenodd"/>
        <path id="Path_695" data-name="Path 695" d="M92.892,86.639v.167a.282.282,0,0,1-.237-.1c-.167-.434.237-1.142.07-1.738a2.464,2.464,0,0,0-.1-.508,11.554,11.554,0,0,1-.3-1.234,1.231,1.231,0,0,0-.063-.441,2.922,2.922,0,0,1-.067-.808v-.193a3.851,3.851,0,0,0-.778,2.643,7.435,7.435,0,0,0,.237.912c.067.43.337.741.337,1.112,0,.041-.067.041-.1.041-.667-.638-.571-1.746-.667-2.6v-.474a3.4,3.4,0,0,0-.5,2.076,3.221,3.221,0,0,0,.393.971,2.265,2.265,0,0,1-.133-1.034h.067a2.76,2.76,0,0,0,.875,1.942c.13.033.2.063.337.1.23.041.371-.167.6-.167.037.13.237.13.4.1a1.524,1.524,0,0,0,.471-.771,4.025,4.025,0,0,0-.067-2.6c-.267-1.112-1.038-1.942-1.008-3.154C91.683,82.784,93.41,84.763,92.892,86.639Z" transform="translate(-57.085 -50.906)" fill="#afafaf" fill-rule="evenodd"/>
        <path id="Path_696" data-name="Path 696" d="M97.818,88.493a.274.274,0,0,0-.041.13,3.147,3.147,0,0,0,1.016-1.672c.326-1.609-.875-2.647-1.483-3.651.1,1.175.942,2.117.871,3.336A3.162,3.162,0,0,1,97.818,88.493Z" transform="translate(-61.24 -52.423)" fill="#afafaf" fill-rule="evenodd"/>
        <path id="Path_697" data-name="Path 697" d="M86.982,71.295a.322.322,0,1,0-.229-.1.322.322,0,0,0,.229.1Z" transform="translate(-54.538 -44.462)" fill="#afafaf" fill-rule="evenodd"/>
        <path id="Path_698" data-name="Path 698" d="M80.08,108.13a.022.022,0,0,0,.022,0h0Z" transform="translate(-50.397 -68.049)" fill="#afafaf" fill-rule="evenodd"/>
        <path id="Path_699" data-name="Path 699" d="M86.11,115.27v.026h0C86.129,115.27,86.11,115.27,86.11,115.27Z" transform="translate(-54.192 -72.543)" fill="#afafaf" fill-rule="evenodd"/>
        <path id="Path_700" data-name="Path 700" d="M83.75,115.534h.05C83.8,115.485,83.75,115.534,83.75,115.534Z" transform="translate(-52.706 -72.695)" fill="#afafaf" fill-rule="evenodd"/>
        <path id="Path_701" data-name="Path 701" d="M83.5,116.48v.026S83.519,116.506,83.5,116.48Z" transform="translate(-52.549 -73.304)" fill="#afafaf" fill-rule="evenodd"/>
        <path id="Path_702" data-name="Path 702" d="M113.972,81.91a.322.322,0,1,0,.322.322A.322.322,0,0,0,113.972,81.91Z" transform="translate(-71.523 -51.548)" fill="#afafaf" fill-rule="evenodd"/>
        <path id="Path_703" data-name="Path 703" d="M100.868,120.88a.564.564,0,0,1-.078,0l.022.019Z" transform="translate(-63.43 -76.073)" fill="#afafaf" fill-rule="evenodd"/>
        <path id="Path_704" data-name="Path 704" d="M83.924,116.382v-.052H83.88Z" transform="translate(-52.788 -73.21)" fill="#afafaf" fill-rule="evenodd"/>
        <path id="Path_705" data-name="Path 705" d="M84.672,115.79s-.022-.026-.022,0l.022.022Z" transform="translate(-53.273 -72.863)" fill="#afafaf" fill-rule="evenodd"/>
        <path id="Path_706" data-name="Path 706" d="M84.256,115.836c0-.044,0-.044.044-.044s-.044,0,0-.026v-.026h-.044l-.026.126h.026Z" transform="translate(-53.008 -72.839)" fill="#afafaf" fill-rule="evenodd"/>
        <path id="Path_707" data-name="Path 707" d="M97.755,116.692c-.026.048-.059.085-.082.085s.056.026.056.056h0a.583.583,0,0,0,.111-.193.342.342,0,0,1-.085.052Z" transform="translate(-61.466 -73.405)" fill="#afafaf" fill-rule="evenodd"/>
        <path id="Path_708" data-name="Path 708" d="M84.82,116.108h.037l.03-.022v-.026Z" transform="translate(-53.38 -73.04)" fill="#afafaf" fill-rule="evenodd"/>
        <path id="Path_709" data-name="Path 709" d="M102.926,71.295a.322.322,0,1,0-.326-.326A.326.326,0,0,0,102.926,71.295Z" transform="translate(-64.569 -44.462)" fill="#afafaf" fill-rule="evenodd"/>
        <path id="Path_710" data-name="Path 710" d="M68.2,39.213a19.3,19.3,0,0,0-3.773-3.629,2.11,2.11,0,0,0-.185-.171,2.313,2.313,0,0,0,.185-.167,19.319,19.319,0,0,0,3.773-3.6,13.054,13.054,0,0,0,2.65-5.1,4.844,4.844,0,0,0-.66-.1l.1-.712a7.785,7.785,0,0,0-.9-.093v-.693s-.652-.078-.982-.074v-.838a16.747,16.747,0,0,1-1.742-1.042l.078-.089a5.538,5.538,0,0,0-.482-.515,17.137,17.137,0,0,1,.545-2.224l-.593-.593c.237-.23.645-.741.645-.741l-.5-.489a7.582,7.582,0,0,0,.575-.7l-.571-.437a4.815,4.815,0,0,0,.4-.519,13.516,13.516,0,0,0-5.482-1.731,19.3,19.3,0,0,0-5.226.111H55.8v-.248a19.152,19.152,0,0,0,.115-5.226A13.178,13.178,0,0,0,54.185,4.1a4.447,4.447,0,0,0-.537.4l-.434-.575a7.121,7.121,0,0,0-.7.575L52.02,4s-.512.408-.741.641l-.593-.593a15.88,15.88,0,0,1-1.968.5V4.43a4.819,4.819,0,0,0-.7-.022A16.256,16.256,0,0,1,46.831,2.45H45.99c0-.33-.07-.982-.07-.982h-.7a8.78,8.78,0,0,0-.089-.9l-.715.1a4.846,4.846,0,0,0-.1-.664,13.234,13.234,0,0,0-5.1,2.654,19.2,19.2,0,0,0-3.629,3.777,2.468,2.468,0,0,0-.171.182c-.056-.07-.167-.182-.167-.182a19.219,19.219,0,0,0-3.6-3.777A13.208,13.208,0,0,0,26.54,0a4.845,4.845,0,0,0-.1.66l-.712-.1a7.783,7.783,0,0,0-.093.923h-.7s-.074.652-.07.982h-.838a16.707,16.707,0,0,1-1.186,1.957,4.76,4.76,0,0,0-.7.022v.119a17.759,17.759,0,0,1-1.968-.5l-.593.593c-.23-.237-.741-.645-.741-.645l-.489.5a7.121,7.121,0,0,0-.7-.575l-.449.549a4.493,4.493,0,0,0-.519-.408A13.516,13.516,0,0,0,14.949,9.56a19.323,19.323,0,0,0,.111,5.23s0,.156,0,.248h-.248a19.3,19.3,0,0,0-5.226-.111A13.451,13.451,0,0,0,4.077,16.68a4.492,4.492,0,0,0,.408.519l-.571.434a7.7,7.7,0,0,0,.575.7l-.5.489s.411.515.645.741l-.593.593a16.991,16.991,0,0,1,.545,2.224,4.663,4.663,0,0,0-.478.515l.074.089A16.458,16.458,0,0,1,2.44,24.022v.841c-.33,0-.982.07-.982.07v.7a7.785,7.785,0,0,0-.9.093l.1.712a4.844,4.844,0,0,0-.656.1,13.234,13.234,0,0,0,2.654,5.1,19.219,19.219,0,0,0,3.777,3.618,2.036,2.036,0,0,0,.182.167,1.875,1.875,0,0,0-.182.171,19.2,19.2,0,0,0-3.777,3.614A13.135,13.135,0,0,0,0,44.317a4.846,4.846,0,0,0,.66.1l-.1.712a7.784,7.784,0,0,0,.923.093v.7s.652.074.982.07v.841a16.076,16.076,0,0,1,1.742,1.038l-.074.089a4.663,4.663,0,0,0,.478.515A16.851,16.851,0,0,1,4.066,50.7l.593.593c-.237.23-.645.741-.645.741l.5.489a7.121,7.121,0,0,0-.575.7l.571.434a5.189,5.189,0,0,0-.43.537,13.517,13.517,0,0,0,5.48,1.733,19.03,19.03,0,0,0,5.23-.111h.248v.248a19.323,19.323,0,0,0-.111,5.23,13.155,13.155,0,0,0,1.731,5.482,4.494,4.494,0,0,0,.537-.393l.434.571a7.122,7.122,0,0,0,.7-.575l.489.5s.515-.408.741-.645l.593.593a17.758,17.758,0,0,1,1.968-.5v.119a5.363,5.363,0,0,0,.7.026,16.608,16.608,0,0,1,1.186,1.953h.838c0,.33.07.982.07.982h.7a7.786,7.786,0,0,0,.093.9l.712-.1a4.844,4.844,0,0,0,.1.66,13.179,13.179,0,0,0,5.1-2.65,19.319,19.319,0,0,0,3.618-3.777,2.318,2.318,0,0,0,.167-.185,2.109,2.109,0,0,0,.171.185,19.3,19.3,0,0,0,3.638,3.76,13.08,13.08,0,0,0,5.1,2.65,4.846,4.846,0,0,0,.1-.66l.712.1a7.779,7.779,0,0,0,.093-.9h.7s.074-.652.07-.982h.841a15.877,15.877,0,0,1,1.182-1.953,4.817,4.817,0,0,0,.7-.026V66.31a17.559,17.559,0,0,1,1.968.5l.593-.593c.23.237.741.645.741.645l.489-.5a7.78,7.78,0,0,0,.7.578l.434-.575a5.191,5.191,0,0,0,.537.393,13.581,13.581,0,0,0,1.735-5.482,19.327,19.327,0,0,0-.115-5.23V55.8h.252a19.149,19.149,0,0,0,5.226.115,13.163,13.163,0,0,0,5.482-1.735,5.19,5.19,0,0,0-.393-.537l.571-.434a7.121,7.121,0,0,0-.575-.7l.5-.489s-.408-.515-.641-.741l.589-.593a16.849,16.849,0,0,1-.545-2.224,5.107,5.107,0,0,0,.482-.515l-.185-.219.107.13a16.459,16.459,0,0,1,1.742-1.038v-.841c.33,0,.982-.07.982-.07v-.678a8.78,8.78,0,0,0,.9-.089l-.1-.715a4.846,4.846,0,0,0,.66-.1A13.14,13.14,0,0,0,68.2,39.213Zm2.25-12.455a14.176,14.176,0,0,1-2.673,4.885,21.531,21.531,0,0,1-1.816,1.95,5.6,5.6,0,0,1-2.035,1.483,9,9,0,0,1-1.761.122c-1.853,0-3.67.037-5.482.074H49.941l-.107-.107a16.02,16.02,0,0,0,3.077-2.354l3.762,2.031,7.165-8.485c2.142.115,4.259.252,6.62.4ZM47.768,37.771l1.89-1.89a20.9,20.9,0,0,1,2.828,2.406l-4.059,2.194c-.052-.174-.107-.371-.163-.53a10.516,10.516,0,0,1-.5-2.18Zm.311,2.9-2.272,1.216V39.714l1.535-1.535Zm.189-9.76c.052-.174.107-.371.159-.534l4.059,2.194a20.323,20.323,0,0,1-2.817,2.406l-1.89-1.887a10.249,10.249,0,0,1,.489-2.18Zm-.923,1.753-1.538-1.527V28.961l2.276,1.227Zm21.732-7.432v.652s.819.067.853.082l-.085.371c-.148.067-2.773-.089-5.782-.285l.9-1.06Zm-1.012-.371c-.048.041-1.194-.033-2.836-.148l.463-.549a20.807,20.807,0,0,1,2.406.256ZM66.5,23.208c.537.326,1.3.79,1.353.838-.526-.063-1.179-.122-1.9-.185Zm-.6-.493.215.234L59.23,31h0c-.741.89-1.5,1.787-2.276,2.661.1-.437.133-1.079.245-1.62s.2-1.112.2-1.112c.289-.371,6.724-7.469,9.018-10.379,0,.119-.515,2.15-.515,2.15Zm.423-2.572c.033.171-6.672,7.862-9,10.494a29.58,29.58,0,0,0-5.972-4.077,20.387,20.387,0,0,1,5.931,3.062c2.832-2.921,8.525-9.745,8.707-9.76Zm.2-2.417c0,.033-.545.664-.545.664l.449.471L57.343,29.038c-.215-.174-.434-.293-.652-.449a19.7,19.7,0,0,0-5.034-2.335c-.226-.063-.456-.133-.682-.193a14.293,14.293,0,0,0-4.422-.43c-.219,0-.263.059-.085.059H46.6c3.106.085,6.635,1.757,9.789,4.493l.689.6L56.931,31.8l-1.223-.856a36.654,36.654,0,0,0-9.356-4.326c-.067-.026-.115,0-.063,0,.79.489,2.791,1.364,3.558,1.7a38.179,38.179,0,0,1,6.639,3.707.7.7,0,0,1,.348.9c-2.762-1.779-7.784-4.022-10.631-5.46-.048-.022-.056,0,0,.041.834.619,3.707,2.142,4.407,2.532,1.794.986,3.655,1.853,5.5,2.917a1.22,1.22,0,0,1,.441,1.245c-2.739-1.312-6.068-3.221-8.841-4.689a10.456,10.456,0,0,1-1.894-1.19V25.688c.856-.156,6.235-1.03,10.379,1.2.415.167.827.293,1.242.489C60,24.467,65.914,17.61,66.2,17.51Zm-10.69-2.194a5.4,5.4,0,0,1,2.48-.4,22.082,22.082,0,0,1,2.661.1A14.309,14.309,0,0,1,66.319,16.8c-3.091,3.507-5.5,6.264-8.963,10.008A16.154,16.154,0,0,0,45.8,25.447V25.3l4.771-4.767C51.885,19.279,53.2,18,54.5,16.684a8.551,8.551,0,0,1,1.331-1.149Zm-1.772-11A14.174,14.174,0,0,1,55.63,9.875a20.675,20.675,0,0,1,.1,2.661,5.5,5.5,0,0,1-.4,2.48,8.792,8.792,0,0,1-1.164,1.331c-1.3,1.3-2.565,2.621-3.825,3.929L45.57,25.05h-.152a15.969,15.969,0,0,0,.515-3.84l-.463.137a20.6,20.6,0,0,1-.3,3.707H42.5a10.257,10.257,0,0,1-1.19-1.894l-.263-.493,8.992-2.68L49.11,8.922c1.6-1.438,3.184-2.828,4.96-4.392ZM41.886,25.05H39.714l-1.535-1.535,2.476-.741ZM52,4.422l.474.449s.626-.53.66-.545l.208.33c-.056.152-2.024,1.9-4.292,3.885l-.115-1.383Zm-1.279.111.289.334a28.309,28.309,0,0,1-2.109,1.9l-.059-.715a21.042,21.042,0,0,1,1.894-1.52ZM50.3,4.448c-.415.33-.919.741-1.483,1.216l-.074-.849C49.359,4.656,50.23,4.448,50.3,4.448Zm-2.32.437H48.3c.371,4.685.8,9.385,1.09,14.056-.241-.371-.667-.856-.971-1.316l-.63-.923c-.063-.467-.53-10.034-.953-13.715.07.093,1.145,1.89,1.145,1.89ZM46.011,2.8l.445-.03c.145.1.834,10.29,1.056,13.785A29.331,29.331,0,0,0,40.4,17.877a20.179,20.179,0,0,1,6.353-2.028C46.7,11.784,45.9,2.925,46.011,2.791ZM44.529,1,44.9.916c0,.033.085.853.085.853h.652L46.412,15.4c-.274.033-.512.1-.775.145a19.768,19.768,0,0,0-5.234,1.92c-.208.119-.419.23-.619.348a14.052,14.052,0,0,0-3.432,2.825c-.145.163-.145.226,0,.1l.1-.1c2.257-2.135,5.931-3.447,10.1-3.747l.9-.052.6.823-1.483.259A37.083,37.083,0,0,0,36.9,21.476c-.063.033-.093.074-.03.059.9-.215,2.936-1.008,3.707-1.308a38.179,38.179,0,0,1,7.347-2.068c.415-.059.578-.063.882.389-3.221.7-8.351,2.669-11.376,3.659-.052,0-.041.041.026.03,1.03-.152,4.126-1.112,4.9-1.323,1.968-.571,3.907-1.264,5.953-1.827a1.223,1.223,0,0,1,1.2.556c-2.865,1.008-6.568,2.013-9.567,2.932a10.264,10.264,0,0,1-2.183.5L35.881,21.2c.489-.712,3.677-5.138,8.184-6.494.415-.174.793-.371,1.223-.534-.234-3.87-.9-12.9-.771-13.181ZM35.584,14.178c.033-1.816.074-3.651.074-5.49a8.785,8.785,0,0,1,.119-1.764A5.348,5.348,0,0,1,37.26,4.889a21.531,21.531,0,0,1,1.95-1.816A14.176,14.176,0,0,1,44.1.4c.293,4.67.545,8.318.741,13.415a16.2,16.2,0,0,0-9.13,7.21l-.122-.1ZM35.414,22l3.81,3.81a8.559,8.559,0,0,0-7.628,0Zm8,15.735-.033.041c-.07,0-.07-.041-.07-.1-.1-.3.1-.638.2-.912-.082.3.182.7-.082.971Zm.849-.6c-.063.237-.133.371-.2.571a.882.882,0,0,1-.371.434.53.53,0,0,0-.167-.13,2.649,2.649,0,0,1,.133-.3c.189-.2.419-.334.619-.571ZM43.68,37a6.78,6.78,0,0,1,.452-.9,2.747,2.747,0,0,1,0,.764.741.741,0,0,1-.3.575l-.093-.067A.486.486,0,0,1,43.695,37Zm.371,1.071a2.25,2.25,0,0,1-.371.534.423.423,0,0,1-.3.174.178.178,0,0,1-.167-.1.341.341,0,0,1,.037-.2c.178-.267.6-.167.827-.4Zm-.189.534a1.724,1.724,0,0,1-.563.838c-.23.137-.371.137-.46,0l-.126.137c-.289.167-.489.652-.812.9a.656.656,0,0,1,.415,0,1.8,1.8,0,0,1-1.038.371h-.2c0-.033-.033-.033-.033-.137l.1-.1a.612.612,0,0,1,.393-.13h.1l-.122-.082v-.067c.2-.411.719-.267.979-.575.1-.13.389-.3.389-.4,0-.2.1-.226.171-.334a1.853,1.853,0,0,0,.838-.415Zm-1.234,1.609v.033c0,.033-.07.1-.1.141s-.067,0,0,.1a5.624,5.624,0,0,0,.652-.167,8.27,8.27,0,0,1-.849.663H41.96a.486.486,0,0,1,.259-.163c.07-.1.2-.1.23-.2l-.489.237v-.033c.093-.1.371-.2.489-.334V40.4c.067-.037.1-.067.1-.141s-.067-.033-.067-.063c.067-.167.3-.274.326-.467h-.03l-.259.193V39.9c.259-.3.652-.2,1.012-.3a.1.1,0,0,0,.089-.059c-.115.2-.208.337-.348.389a.83.83,0,0,1-.56.337l.33-.337Zm-2.721,2.965a1.976,1.976,0,0,1-.953.1.652.652,0,0,1,.23-.033c.456-.334.949,0,1.379-.063a3.659,3.659,0,0,1-.923.2h-.16c.159-.1.322-.033.493-.133Zm-.953.864-.419-.059.1-.1h.093l.2-.044c0-.056,0-.1.03-.1h.07l.063.1v-.1h.1l.037.044c0-.044-.037-.044,0-.044h.033s0,.044.03,0,0-.059.07-.059c.423,0,.882-.07,1.271-.07l-.259.4a1.023,1.023,0,0,1-.293.03Zm1.112.208-.2.1H39.8c.07-.1.07-.1.1-.1H40c0-.044.063-.011.063-.011Zm-2.461,0c-.293-.137-.56-.208-.782-.3l-.33-.063-.1-.044-.03.044H36.3l-.033.13h-.1c-.037.03,0,.07-.037.07v-.1l.43-.3.1.059.03.044h.063l.067.056v.044h.093v-.1c.078,0,.078.1.1.1h.1a.13.13,0,0,1,.13.063c.03,0,.067,0,.067-.063l.163.1c0-.037.1,0,.13-.037s.037,0,.037-.063c0,0,0,.063.1.063.523.1,1.138.167,1.731.237l-.2.5h-.03c-.534-.152-1.09-.248-1.646-.449Zm1.412.563v.037a2.142,2.142,0,0,1-.741.171l.419-.208h.033s.13.037.13,0h.171Zm-1.772-.259v-.078h-.23c0-.037.026-.037.026-.037h-.026l-.033-.063-.1.063h-.037c0-.063-.03,0-.03,0v-.06h-.07l.07-.033H36.7c.033,0,.033,0,0-.1,0,0,0,.1-.03.1s-.033-.074-.026-.089l-.141.089c0-.1.067-.1.067-.1H36.4V44.21a.371.371,0,0,1,.2-.033,7.181,7.181,0,0,1,.878.267l-.163.1h-.033c.033,0,.033,0,.033-.067Zm-.689.267h-.067l-.23.037.067-.037h.03v-.063l-.371.1.226-.1c-.093,0-.226.063-.289.063l.13-.133h-.067l-.2.07c.033-.07.033-.07.067-.07h.026c.041-.074,0-.074,0-.074l-.093.074.067-.133h-.1a.222.222,0,0,1,.167-.1,2.561,2.561,0,0,1,.912.371Zm.489.037v.13c-.13.167-.449.167-.678.167,0-.03-.037-.03-.07-.063.033,0,.07-.041.1-.1a.968.968,0,0,1,.645-.141Zm-.912,0h-.067a.612.612,0,0,1,.259-.037Zm-1.661-.315c-.063.059-.063,0-.163,0V44.6h-.03c0,.074,0,.074-.07.074l-.193.07s.03,0,.03.063h-.371l1.038-.571V44.21c.044,0,.044-.033.1,0,.167,0,.2-.1.3-.163a.485.485,0,0,1,.163-.067.215.215,0,0,1,.126.1H35.28v.03l-.163.067v.033h-.1l-.033.033h-.167v.1h-.059c-.044,0-.044,0-.044.033h-.093v.063s-.059-.063-.059,0h-.089v.037h0c-.082.071,0,.071,0,.071ZM32.5,42.1a2.009,2.009,0,0,1-.845-.8l-.03.026v.041a2.435,2.435,0,0,0,.79.8c-.1,0-.334,0-.426.1.189.03.426-.1.649,0,.2.167.463.4.493.641h-.474c0,.026-.037.026-.037.026l.037.037c.226,0,.426-.037.552.1l.133.33-.86.141c-.052,0-.085-.037-.085-.141a.83.83,0,0,1-.267-.163l.03-.137a1.075,1.075,0,0,0,.426-.33.33.33,0,0,0-.13-.241c-.163-.1-.46,0-.66.041-.089.03-.159-.041-.219-.041s-.033-.063-.1-.1a.17.17,0,0,1-.1-.167c.1-.1.259,0,.33-.1a.193.193,0,0,0,.159-.2c-.033-.2-.322-.263-.523-.334a.5.5,0,0,1-.167-.334l.03-.107v-.026a.245.245,0,0,1,.1-.111q.352.193.741.371a.586.586,0,0,1,.033.056h.1c.211.085.426.163.645.237a.137.137,0,0,1-.026.059.259.259,0,0,0,.1.2.471.471,0,0,0,.371-.067c.152-.037.285,0,.322.1a.474.474,0,0,1,.067.434c-.1.271-.2.474-.263.671a4.359,4.359,0,0,1-.226-.838c0-.1,0-.1-.037-.1v.5c-.067-.234-.334-.371-.526-.53l-.13-.5c0-.067-.026-.067-.026,0H32.4Zm.741,2.117H33.19c0,.03.052.03.052.03h-.089c.037,0,.037,0,.037.1l-.037-.1-.037.1h-.033v.033H32.99l-.163-.033c-.033-.13-.167-.3-.2-.467v-.033c.263.033.423.271.623.234-.041,0-.041,0-.041.037s.044.059,0,.1Zm.037-.337c-.041,0-.041,0-.1.063a.371.371,0,0,1-.267-.2c-.063,0-.226-.063-.3-.063-.026.063-.1.1-.13.2s.1.2.13.3.13.2.033.3c-.189.2-.371-.1-.623-.037-.163.1-.063.371-.163.578a.523.523,0,0,1-.159.078l-.178-.178h-.282a.411.411,0,0,1,0-.07.419.419,0,0,1,.137-.408c.033-.1.1-.2,0-.334s-.263-.063-.419-.13c-.037-.037-.074-.1-.037-.241a.371.371,0,0,1,.371-.193,1.064,1.064,0,0,1,.419-.171c.13-.033.167-.1.267-.133V43.1l-.226-.2c0-.1-.041-.1,0-.171l.322-.07.033.037h.1v.022h.019v.026H32.2v.067h.03l-.1.1c0,.026.067.026.033.063s-.033,0-.067.067l.033.067H32.1c-.033,0,.033.137-.033.137v.03h.067l.067.133h-.033v.1c-.126.23-.43.267-.552.471v.033c.093-.033.163-.133.289-.237l.033.063a1.653,1.653,0,0,0-.289.975,3,3,0,0,1,.419-1.038,1.134,1.134,0,0,0,.234.571,1.365,1.365,0,0,1-.1-.334c-.067-.174-.133-.4,0-.467h.048c0,.063,0,.063.063.063,0,0,.1.067.163,0l.1.067c.026,0,.026-.067.026-.067s0,.067.033.067l.2-.067h.226l-.07.067h.07l.067-.067.1.067.07.1ZM23.089,33.09,21.2,34.977a20.268,20.268,0,0,1-2.832-2.406L22.429,30.4c.056.178.107.371.163.534a10.23,10.23,0,0,1,.5,2.161Zm-.311-2.9,2.272-1.227v2.176l-1.535,1.535Zm.311,7.58a10.182,10.182,0,0,1-.478,2.18c-.056.174-.107.371-.163.534L18.389,38.29a20.323,20.323,0,0,1,2.828-2.406Zm.426.411,1.535,1.535v2.172l-2.272-1.227ZM22,35.414l3.944-3.907v-5.56h5.441a8.622,8.622,0,0,0-4.559,7.584,8.392,8.392,0,0,0,.256,2.054h-.026c-.1-.067-.1-.226-.163-.263-.167-.137-.371.037-.393.1-.1.237-.163.563,0,.741v.03l.13.167v.107c-.1.1-.163.1-.23.259-.063.074,0,.171,0,.3l-.371.107a.664.664,0,0,0,.033.337,1.538,1.538,0,0,0,.371.263V37.9l.3.1a.927.927,0,0,0,.371.8.56.56,0,0,0,.371.107.956.956,0,0,0,.2.764c0,.044,0,.044.063.044-.063.189-.289.189-.33.4,0,.133,0,.371.1.4.163.208.493,0,.719.208h.033c-.033.126-.259.126-.259.263a.414.414,0,0,0,.126.4.626.626,0,0,0,.263.07l-.263.2.063.2a1.453,1.453,0,0,0,.7.263v.041h.159a.808.808,0,0,0,.259.434h.03v.07a.93.93,0,0,1-.226.063.793.793,0,0,0-.289.334.319.319,0,0,0,.193.337c.2.2.322.2.623.1.13.1.1.334.23.371.059,0,.059,0,.156.067a1.549,1.549,0,0,0,0,.667c.1,0,.1.067.171.067a1.95,1.95,0,0,0,.567-.508.371.371,0,0,1,.43.033c.03.033.03.033.03.133a1.031,1.031,0,0,0-.126.508.827.827,0,0,0,.03.089h-5.18v-5.56Zm7.543-12.258a10.256,10.256,0,0,1-1.19,1.894H25.688a20.6,20.6,0,0,1-.3-3.707l4.422,1.316Zm.641-.371,2.476.741L31.136,25.05H28.961ZM36.6,28.06l-.537-1.3a6.728,6.728,0,0,1,3.7,1.54l-1.3.537A5.612,5.612,0,0,0,36.6,28.06Zm1.69.853-1.145.474-.471-1.145A5.46,5.46,0,0,1,38.29,28.913Zm-1.423,1.171,3.421-1.409L38.861,32.1l3.447,1.412-3.447,1.423,1.423,3.425-3.436-1.416L35.44,40.381l-1.423-3.432-3.429,1.416L32,34.939l-3.425-1.423L32,32.1l-1.416-3.429,3.425,1.409,1.427-3.432Zm2.695,1.738.474-1.16a5.352,5.352,0,0,1,.678,1.635l.063.026.119.044a5.56,5.56,0,0,0-.786-1.887l.537-1.3a6.757,6.757,0,0,1,1.542,3.707l-1.412-.567-.063-.026h0Zm1.787,9.43c.159-.044.271-.219.434-.171v.026l-.567.241c-.019,0-.022,0-.026-.03a1.39,1.39,0,0,1-.467.07h-.2v-.067a.308.308,0,0,1,.059-.3,1.112,1.112,0,0,1,.5-.037,2.465,2.465,0,0,0,.523,0h.167l-.067.037a1.059,1.059,0,0,0-.267.167.768.768,0,0,1-.119.07.119.119,0,0,0,.033-.011Zm-4.077,2.524a.641.641,0,0,0-.282-.044c-.078-.059-.078-.13-.078-.326,0-.137.1-.171.23-.171a5.763,5.763,0,0,0,2,.171.764.764,0,0,1-.463.2,5.523,5.523,0,0,1-1.4.174Zm.137.048Zm-.593-.482-.1.063v.1l-.033.044-.03-.044c-.1-.1-.167.044-.2.044l-.067.063h-.033c-.059,0-.1,0-.1.067-.033,0-.033.063-.093.063l-.033-.13h.126a2.033,2.033,0,0,1,.178-.185h-.152a.371.371,0,0,1-.152.115.493.493,0,0,1-.23-.174.2.2,0,0,1-.03-.2,2.417,2.417,0,0,1,1.371-1.208,4.436,4.436,0,0,0-.849,1.271h0a.886.886,0,0,1,.326-.067.393.393,0,0,1-.03-.2A2.261,2.261,0,0,1,37.727,41.8h.048a2.387,2.387,0,0,0-.537,1.012,1.111,1.111,0,0,0-.056.115.215.215,0,0,1,.222.059V43.1l-.3.056h0a.274.274,0,0,1-.2.137l-.056-.022v.041a.033.033,0,0,0-.03.026h0Zm-1.279-1.227h.419a.287.287,0,0,1-.056.2c-.03.026-.093.13-.193.13-.037,0-.037,0-.037-.093s-.059-.145-.13-.234Zm.033.319c0,.037,0,.037-.1.037v-.037c.115-.093.115-.093.115,0Zm.2.13a2.157,2.157,0,0,1,.7-.512h.082c-.211.252-.4.5-.615.741-.037,0-.037-.07-.067-.07l-.059-.1-.037.033a.414.414,0,0,1,.037-.033Zm3.707-1.46.059-.03H39.51l.137-.033a.07.07,0,0,0,0-.044l.074-.041c-.137.234-.159.608-.3.89-.033.1-.2.1-.234.13l-.1-.03a.308.308,0,0,0-.063-.2,2.224,2.224,0,0,1,.5-.667Zm.589-.345c.056-.041.115-.074.171-.111a.538.538,0,0,1-.082.178,1.372,1.372,0,0,1-.089.6.686.686,0,0,1-.271.1l-.026-.07c-.063-.03-.063-.1-.063-.267.1-.13.234-.285.36-.419ZM38.754,42.13a.274.274,0,0,1-.3.2c-.033,0-.063-.037-.093-.07a.534.534,0,0,1,.059-.5c.145-.126.278-.245.411-.345l.3-.137A7.2,7.2,0,0,1,38.754,42.13Zm-.793.474c-.159.167-.222.2-.371.2-.033,0-.1,0-.1-.03a.234.234,0,0,1,0-.345,3.165,3.165,0,0,1,.871-.819l.059-.022c-.237.3-.263.756-.456,1.019Zm.563.771a.174.174,0,0,1-.1-.033h.167c.093-.07.256-.07.293.033Zm-.5-.107a.156.156,0,0,1-.126-.033c-.1,0-.159-.063-.259-.13a.411.411,0,0,1,.1-.3,3.619,3.619,0,0,1,1.434.171c.037.067.234.067.371.067a.845.845,0,0,1-.371.067,3.6,3.6,0,0,1-1.149.163Zm1.149-.371c.037-.1.234-.1.3,0Zm.3-.137a5.776,5.776,0,0,1-.715.03l-.23-.03s0-.041-.07-.041c-.033-.167,0-.3.133-.3a.612.612,0,0,1,.426-.13,5.808,5.808,0,0,0,.949.267,1.779,1.779,0,0,1-.493.219Zm.334-.3-.2-.074a4.285,4.285,0,0,0,.775-.167.1.1,0,0,1,.037.074Zm-.23-.137h-.1a.208.208,0,0,1-.226-.174c-.033-.03.03-.167.13-.2.419-.2.882.03,1.275.03a1.586,1.586,0,0,1-1.075.352Zm.912-.46h-.23c-.1,0-.133,0-.193-.1,0,0-.067,0-.067-.063a.226.226,0,0,1,.067-.237h.089c.371,0,.7.1.956.07l-.056.037.089.067a.956.956,0,0,1-.656.252Zm-.23-.919a.886.886,0,0,1,.185-.456c.1-.074.208-.152.308-.234-.1.282-.107.575-.2.76l-.234.059h-.033c0-.048-.03-.085-.03-.119Zm.689-.234c-.07,0-.1,0-.1-.1-.074-.1,0-.267.026-.371a1.082,1.082,0,0,1,.133-.2c.1-.085.2-.171.289-.259a2.224,2.224,0,0,0-.122.741c-.067.1-.13.2-.23.2Zm-5.393.8L36,40.435a6.9,6.9,0,0,0,3.929-1.624L41,39.252a7.966,7.966,0,0,1-5.445,2.263ZM38.461,38.2l1.3.541a6.776,6.776,0,0,1-3.707,1.531l.534-1.3a5.516,5.516,0,0,0,1.868-.782Zm-1.79.589.467-1.134,1.142.471a5.3,5.3,0,0,1-1.609.652ZM40.9,34.682l1.3-.537a6.735,6.735,0,0,1-1.546,3.707l-.537-1.3a5.486,5.486,0,0,0,.786-1.879Zm-.86,1.69-.474-1.164,1.153-.478a5.349,5.349,0,0,1-.678,1.642Zm-4.652,5.79V42.11h.041a.126.126,0,0,1,0,.052h-.059Zm.03.267v.037h-.03v-.037c.025-.087.025-.087.025,0Zm-5.534-3.191,1.068-.441a6.913,6.913,0,0,0,3.933,1.627l.441,1.075a7.973,7.973,0,0,1-5.447-2.256Zm5.238,3.229v.063h-.126C35.023,42.467,35.023,42.53,35.119,42.467Zm-3.977-1H31.07v.067l.067.033v-.033c.03,0,.03.033.059.1v.13h-.059V41.7c0-.041.03-.041,0-.07l-.067.03c-.026,0-.1,0-.1.041v.048h.1c.067,0,.067,0,.067.1l-.148-.1h-.022l-.078-.056h0l-.037-.041.048.033a.111.111,0,0,1,.052-.033v-.03h-.185v-.308l-.059.337H30.64c-.1,0-.1.041-.1.041v.059c.1,0,.1-.1.1,0H30.4a1.42,1.42,0,0,1-.226-1.268.371.371,0,0,0-.085.274h0a.793.793,0,0,1-.056.311,3.97,3.97,0,0,0-.549-.764.371.371,0,0,1-.167-.137V40.2c.167.3.46.6.664.942-.2,0-.4-.133-.634-.074l.686.208a1.483,1.483,0,0,1,.267.463h-.03v.1h.063l.067.1h-.067c0,.033,0,.033-.033.033h-.03l-.393-.033H29.81v.033l.222.1h.107v.037c0,.03-.107-.037-.107,0v.03h-.089v.108H29.81c-.033,0-.033-.1-.033-.1l-.03.1a.289.289,0,0,0-.163.267h-.1a1.056,1.056,0,0,1-.371-.371s.093-.067.093-.126c.1-.041.263-.074.289-.278.137-.3-.371-.371-.371-.671l.093-.1h.03c.1-.03.1-.13.1-.263a.6.6,0,0,1-.126-.2c-.13,0-.163-.033-.2-.171a1.012,1.012,0,0,1,.1-.441.693.693,0,0,1,.456-.03c.078,0,.1.1.122.193l.048-.022c0-.078-.067-.078-.067-.1l.033-.026.041.037a.612.612,0,0,0,0,.1h-.063a.46.46,0,0,0,.1.263c.152.037.211-.041.319-.085l.234.178a1.212,1.212,0,0,0,.167.411c.122,0,.237-.056.371-.059l.245.148a.371.371,0,0,1,.052.215l-.03.23h-.067v.041c.054.05.054.05.054.08Zm.148.419h.037l.041-.026.048.1c-.022,0-.022.026-.022,0a.115.115,0,0,0-.026-.074h0v.1c-.067,0,0-.03-.067-.03h-.067v-.1h.037v-.1h.03l-.03.1Zm.1-.033v-.1h.067v.1Zm0,.23s-.033-.063,0-.063c.067.074,0,.011,0,.074Zm-.041.074-.063.1.063.074c-.063,0-.063.093-.063.093.063.037.063,0,.063,0l.033.1h.07v.041c-.07,0,0-.041-.07-.041h-.13c0,.041.033.041.033.07.063,0,.1-.07.1,0h-.033c-.263.063-.419-.171-.626-.308v.044l.259.263a2.476,2.476,0,0,0-.682.208c-.126-.037-.319-.208-.489-.208v.063l.46.145c-.289.159-.589,0-.786.226h.1c.226-.067.556,0,.715-.13-.03.13-.1.2-.267.334v.1c.237-.1.267-.371.471-.53a1.557,1.557,0,0,1,.556-.074c-.1.074-.2.171-.3.234v.133a1.72,1.72,0,0,0,.326-.33.241.241,0,0,1,.263-.037c.033,0,.13,0,.13.037l-.13.037.1.1h.026l.07.063a.1.1,0,0,1-.037.074v.022h-.03a.048.048,0,0,1-.03,0c0,.03,0,.03.026.03h-.026v.07h.026v.067h-.026V43.16h-.1s-.063.067-.1.067H31.14l.03.03c.03.07.03,0,.07.07l-.041.033-.059-.033v.044h-.07v-.1l-.1.1-.026.03v.141c-.026,0-.063,0-.063.063H30.84a.048.048,0,0,1-.022.041l.022.026H30.8a2.1,2.1,0,0,0-.059.371v-.208c0-.063.033-.1,0-.1H30.7v-.063c0-.067,0-.067.037-.067v.137c.026-.048.033-.059.059-.063a.16.16,0,0,0,0-.026c-.078-.078-.126-.248-.3-.274-.2.03-.259.3-.371.371a.623.623,0,0,1-.263,0l-.067-.13a.526.526,0,0,0-.063-.234c-.1-.1-.263.03-.43.03s-.259-.03-.293-.133c-.126-.1,0-.234.033-.371s.193-.1.289-.1a.656.656,0,0,0,.3-.037.678.678,0,0,0,.033-.241c0-.1.03-.193.1-.193.167,0,.4.13.556,0a.371.371,0,0,0,.171-.3c0-.141.13-.178.256-.278.23,0,.46.237.6.4Zm-.634,1.913a2.6,2.6,0,0,1-.5.471.371.371,0,0,0-.07-.107,1.112,1.112,0,0,1,.07-.5,2.065,2.065,0,0,1,.5.148Zm-.437-.2v-.13l.03.107a.03.03,0,0,1-.03.033Zm.063-.2a.063.063,0,0,1,.059-.07c0,.078,0,.078-.063.078Zm.1.063c0,.044.067.107,0,.141H30.4c0-.1-.063-.141,0-.141Zm.1-.13H30.5V43.54h.037c0,.074.1.074,0,.074Zm.1.067c0,.063.067.063,0,.107l-.1.063c0-.107-.037-.107,0-.171Zm0,.2h.1v.167c-.033-.056-.1-.056-.1-.156Zm-.423-1.742c0-.037.063-.037.063,0Zm-1.242-.189v.026H28.92Zm-.13,0a.5.5,0,0,1-.4-.193l-.033-.07a.808.808,0,0,1,.489-.234c.13.163,0,.3,0,.5Zm0-.641.067.041c0,.03,0,.03-.067.07h-.2a.979.979,0,0,1-.523-.271v-.174l.293-.13c0-.037.033-.037.033-.133a1.041,1.041,0,0,0-.1-.2,2.335,2.335,0,0,0-.43-.033.552.552,0,0,1-.371-.1V40.1c0-.059.093-.1.137-.1.119-.1.219-.1.256-.293-.037-.245-.256-.274-.393-.474a.415.415,0,0,1,.137-.371c.056-.1.219-.1.322-.1.2.1.226.33.371.463h.033a.582.582,0,0,0,.326-.133l.07-.03a.293.293,0,0,1,.082,0c.137.163.282.322.434.474v.148H29.2v.03s0-.03-.093-.03l-.07.13c-.033,0-.033,0-.033.03h-.085v.03l-.067.148s-.07,0-.07.059c.07.067.07.1.07.13l.056-.026h0a.067.067,0,0,1-.056.026l-.07-.063-.067-.334v-.5h-.063a4.078,4.078,0,0,0-.033.667,7.654,7.654,0,0,1-.812-.953,3.918,3.918,0,0,0,.79,1.112l-.652-.059v.059a1.142,1.142,0,0,0,.489.13.764.764,0,0,1,.259,0l.137.1v.13s.067-.1.067,0l-.067.033h.089l-.067.1v.1h.067v.1h-.067v.037h.067c0,.1,0,.1.126.13-.126,0,0,.041-.126,0v.1a.482.482,0,0,0,.159-.026V41.1h-.033ZM27.452,38.55H27.43v.063h-.1c0-.03,0-.063-.033-.063h-.063c.1.063.156.237.248.237h.044c.03,0,0,0,0,.026h-.067l-.13-.026V38.75h-.1c0-.07.063-.137,0-.137h-.1c-.167-.063-.167-.237-.263-.4s.1-.3.2-.53c.067-.371-.326-.512-.526-.778-.03,0-.03-.13-.03-.13.03-.133.193-.133.263-.2.1-.167.033-.274,0-.3s-.234-.174-.234-.274a.793.793,0,0,1,0-.467h.234c.193,0,.193.234.33.271h.052A8.34,8.34,0,0,0,27.7,37.24v.067a4.659,4.659,0,0,0-.741-1.268,7.819,7.819,0,0,0,.371.7,1.19,1.19,0,0,1,.226.53.912.912,0,0,0-.426-.371H27.1a1.675,1.675,0,0,1,.712,1.012h-.119v.07c0,.03,0,.03.056.03H27.8l-.119.07-.137-.07.137.2v.063l-.074-.063c0,.063-.063.063-.063.1.063.033.137,0,.137.033V38.31a.145.145,0,0,1,.119-.037c0,.026.048.052.078.07s.022,0,.022.03,0-.019-.022-.03H27.8V38.31c-.063,0-.063.033-.119.033v.137h.056l-.056.067.056.033h-.056v-.03s0,.033-.044.033-.03-.033-.093,0v.03c0,.067.063.067,0,.137l-.074-.07h-.022l.067-.1s0-.033.03-.033ZM26.77,37.5v.1l-.03-.1Zm-.03-.063c0-.063,0-.063.03-.063v.059Zm.03.267h.1v.033c0,.041,0,.041-.067.041h-.03Zm.1-.2h.067v.1H26.9Zm-.234.178.074.026.033.074h-.107Zm-.13,0a2.692,2.692,0,0,1-.252-.241.556.556,0,0,1-.074-.234.348.348,0,0,1,.13-.033.482.482,0,0,1,.4.133Zm4.322-7L31.3,31.82l-1.112.463a5.39,5.39,0,0,1,.642-1.6Zm-.059-.178A5.5,5.5,0,0,0,30,32.36l-1.3.534a6.776,6.776,0,0,1,1.531-3.707l.593,1.434ZM28.542,32.96l-1.09.437a7.94,7.94,0,0,1,2.254-5.434l.437,1.068a6.9,6.9,0,0,0-1.624,3.929Zm0,1.112A6.887,6.887,0,0,0,30.169,38l-.437,1.064a7.936,7.936,0,0,1-2.257-5.441Zm2.224,2.458-.541,1.316a6.739,6.739,0,0,1-1.535-3.707L30,34.68a5.56,5.56,0,0,0,.767,1.853Zm-.586-1.772,1.112.467-.463,1.112a5.423,5.423,0,0,1-.66-1.575ZM29.835,40.033Zm-.371-.285h-.026s.027-.019.027,0Zm-.923-.656v.03l-.093-.03a.215.215,0,0,1-.067-.211h0a1.2,1.2,0,0,0,.067-.285c-.033-.033-.1-.033-.163-.07a.341.341,0,0,1-.163-.337.1.1,0,0,1,.052-.093,7.973,7.973,0,0,0,.545.767.04.04,0,0,0,.022.033l.03.033-.063-.03c-.063,0-.063.033-.063.033h-.1V39s-.093,0-.093.026V39.1ZM27.8,37.4l.145.274h0c0,.026,0,.1.041.1V37.9l-.041.107v.063l-.145.107c-.067-.03,0-.03,0-.1V38.02h.093v-.274c-.056-.1-.152-.208-.13-.345Zm1.557,4.166v-.033c.03.033.03.033.03.1-.067,0-.067,0-.067-.067Zm.163.137v.059l-.133-.059Zm-.133.171v.011a.026.026,0,0,1-.03-.026v-.111a.947.947,0,0,0-.007.137Zm-.122-.111-.1-.1.1-.03c.03.03.093.03.093.07-.1.059-.1.059-.13.059Zm.03.2-.03.033-.1-.033c0-.067.1-.067.1-.067-.037.067-.007.067-.007.067Zm-.167-.334h-.067a.163.163,0,0,0-.033-.1v-.067h.033c.029,0,.066.072.066.172Zm-.03.13c.03,0,.067,0,.067.111h-.1l-.033-.111Zm5.212-2.8.537,1.3a6.765,6.765,0,0,1-3.707-1.535l1.275-.556a5.6,5.6,0,0,0,1.857.786Zm-1.675-.845,1.112-.467.467,1.112A5.519,5.519,0,0,1,32.6,38.12Zm2.6,4.315h.093v.037l-.037.063-.056-.063Zm.056-.093H35.23v-.085h.093v.074Zm.033-.1c.044-.026,0-.078.044-.078h.048c0,.052,0,.078-.03.078ZM32.4,28.846,31.1,28.3a6.746,6.746,0,0,1,3.7-1.538l-.545,1.3a5.464,5.464,0,0,0-1.855.784Zm1.783-.6-.456,1.138-1.149-.474a5.434,5.434,0,0,1,1.609-.661Zm.686-1.649a6.9,6.9,0,0,0-3.937,1.638l-1.06-.435a7.966,7.966,0,0,1,5.441-2.261ZM28.356,45.811a10.1,10.1,0,0,1,1.19,1.89l.263.493L25.387,49.51a20.543,20.543,0,0,1,.3-3.707Zm.6,0h2.176l1.535,1.531-2.476.741Zm2.521-3.948c.063,0,.063.033.063.033v.067Zm.07,0v-.111c.03,0,.03.111.03.111Zm1.994,2.372v-.03l.1.03h.041l.03.133-.03.063h.048s0,.041-.03.041a.041.041,0,0,0-.041-.041v.107h-.126c-.085-.1-.085-.293.011-.293Zm.393.615v.13l-.3.041a.371.371,0,0,1-.2-.171h.078a.8.8,0,0,1,.427,0Zm0-.8c0,.033.07.033,0,.033v.03c0-.03,0-.03-.1-.03,0-.036,0-.036.1-.036Zm-.1-.067v-.037c0-.063.1-.063.1-.063v.1Zm.3.371.033-.3.23.171-.23.13Zm1.168-.467c-.13-.041-.189.133-.322.2h-.167c-.1-.137-.1-.471-.259-.534,0,0,0-.037-.033-.037a.067.067,0,0,0,0-.026h-.048v-.026h0c-.082-.022-.2.074-.274.152a.741.741,0,0,1,.426.13l.093.341h-.093v.026l-.059-.03.059-.067c-.059,0-.059.067-.093.033l.093-.067-.059-.037s0,.037-.033.037l.033-.037c-.033-.063-.033.037-.074,0l.041-.063h-.059c-.063,0-.063,0-.063.063v-.167c-.1,0-.1.063-.1.063l-.03.041.03-.1h-.03s0,.063-.07,0c0-.037.07-.037,0-.1v.063c-.03-.063-.03-.063,0-.063v-.067a.693.693,0,0,1-.489.13l-.13-.063h.067v-.067l-.1.067c0-.067.037-.067,0-.067h-.044v-.063c0-.037,0-.171.026-.171s0-.1,0-.1v-.03l.037.03h.1a.03.03,0,0,0,.03-.03c-.03,0-.03-.067-.063-.067a.067.067,0,0,1-.067.067v-.137h.23l.03-.03a.322.322,0,0,1,.256.082h.085c-.037-.074-.126-.111-.174-.193a1.031,1.031,0,0,1,.815.1c.167.03.2.3.167.534h.033c.1-.234,0-.371,0-.5.263.167.389.571.652.634-.23-.193-.371-.5-.552-.664.126,0,.259.03.371.03a.181.181,0,0,0,.2-.171c-.2.1-.371,0-.552,0A1.012,1.012,0,0,1,34.7,42.9c-.2-.1-.371,0-.519-.1l.319-.2.133-.171a6.084,6.084,0,0,1-.916.5V42.9c0-.1-.03-.1-.03-.1h.03l-.063-.037v-.037a.1.1,0,0,0,.063.037.026.026,0,0,1,0-.022h0a.041.041,0,0,1,.033,0v.026s0-.07-.059-.07v.03h0c0-.037-.03.033-.03,0l.03-.1h.1c.03-.03,0-.03,0-.07s.13,0,0-.063h-.1a5.671,5.671,0,0,1,.6-.43c.145,0,.285.033.43.044h.019c.1.067.059.241.1.434.1.041.13.133.163.133h.226c.133,0,.163-.063.326,0,.1.07.234.07.293.145.033.263-.193.293-.193.46a.893.893,0,0,0,.267.337.241.241,0,0,1,.059.13c.13.141,0,.308-.059.371l-.23.1s-.037,0-.037-.033c-.193-.011-.222-.208-.356-.308Zm.515.3-.048.048.048-.052ZM40,42.935a5.152,5.152,0,0,1,.556-.159c0-.041.063-.041.063-.1h-.063c-.267.1-.456.133-.786.234-.063,0-.193,0-.226-.1a4.3,4.3,0,0,1,1.853-.371h.122a3.165,3.165,0,0,1-1.438.5Zm1.212-.9c-.163.063-.371.234-.56.234-.033.033-.1,0-.13-.1l.79-.4c.193,0,.371.1.515,0,.137.1.174,0,.23,0-.193.2-.456.234-.652.4a3.432,3.432,0,0,0-.552.137l.371-.2Zm.371-.371c-.041-.033-.067,0-.067-.033l.167-.167h-.1c-.041,0-.067.1-.137.167-.063,0-.122,0-.122-.067.122-.171.456-.2.652-.4a1.764,1.764,0,0,0,.815-.171,1.019,1.019,0,0,1-.615.471,2.116,2.116,0,0,1-.6.2Zm.486-1.26.4-.334v.13Zm.3-1.79.23-.326v.326a.79.79,0,0,1-.371.474l-.059-.1a2.109,2.109,0,0,0-.593,1.2c-.067.063-.137.167-.23.137-.03,0-.03-.041-.03-.041v-.371a7.072,7.072,0,0,1,.853-1l.289-.23c-.037-.074-.041-.078-.1-.078Zm-.107,1.112a.308.308,0,0,1-.289.193c-.041,0-.137,0-.137-.03s-.026-.026-.026-.133.026-.167.163-.3a2.224,2.224,0,0,0,1.008-.9c-.271.367-.5.793-.723,1.168ZM43,38.88l-.456.578c.022-.226.274-.408.426-.582Zm-1.053.545.241-.263-.163.2-.037.067Zm.626-.5a.4.4,0,0,1-.226.234h-.03l.256-.337s-.059.067-.03.1Zm.552-.612v-.037l-.13.167c0,.037,0,.037-.063.037,0-.037-.1,0-.13-.037a.741.741,0,0,1-.067-.352c.133-.211.259-.426.371-.649a.842.842,0,0,0,0,.337c.059.23.122.36-.011.53Zm-1.983.767L40.7,38.016a6.861,6.861,0,0,0,1.638-3.944l1.075-.445a7.951,7.951,0,0,1-2.269,5.457Zm1.2-6.12a6.928,6.928,0,0,0-1.635-3.944l.437-1.068A7.955,7.955,0,0,1,43.413,33.4Zm-2.42-4.73a6.894,6.894,0,0,0-3.93-1.63l-.441-1.064A7.969,7.969,0,0,1,41,27.8ZM26.759.4a14.176,14.176,0,0,1,4.885,2.673A22.029,22.029,0,0,1,33.6,4.889a5.685,5.685,0,0,1,1.48,2.035,8.785,8.785,0,0,1,.12,1.765c0,1.835.041,3.666.078,5.482v6.75l-.107.1a16.228,16.228,0,0,0-9.144-7.21C26.218,8.718,26.466,5.071,26.759.4ZM25.232,1.779h.652s.067-.819.082-.853l.371.085c.13.278-.541,9.311-.775,13.181.43.152.812.371,1.223.534,4.518,1.338,7.688,5.764,8.192,6.476L33.09,23.089a10.23,10.23,0,0,1-2.18-.478c-3-.938-6.7-1.942-9.567-2.965a1.216,1.216,0,0,1,1.194-.556c2.046.563,3.988,1.257,5.953,1.827.778.23,3.877,1.171,4.9,1.323.067,0,.078,0,.026-.03-3.025-.99-8.155-2.965-11.376-3.655a.7.7,0,0,1,.882-.389,38.179,38.179,0,0,1,7.328,2.065,38.915,38.915,0,0,0,3.707,1.308c.059,0,.033-.026-.033-.059a37.083,37.083,0,0,0-9.671-3.555l-1.483-.259.6-.823.908.052c4.163.3,7.843,1.612,10.1,3.747l.1.1c.126.126.126.063,0-.1a14.193,14.193,0,0,0-3.432-2.825c-.2-.119-.415-.23-.619-.348a19.86,19.86,0,0,0-5.2-1.9c-.263-.044-.5-.111-.778-.145Zm-.827.982.43.03c.115.133-.678,8.992-.741,13.059a20.15,20.15,0,0,1,6.353,2.028,29.283,29.283,0,0,0-7.095-1.331c.215-3.5.9-13.689,1.048-13.786ZM22.552,4.889h.315s1.075-1.8,1.149-1.876c-.426,3.67-.893,13.237-.956,13.715,0,0-.348.508-.626.923s-.741.938-.975,1.316c.3-4.693.738-9.393,1.108-14.078Zm-.441-.07-.074.853c-.556-.471-1.06-.89-1.483-1.22C20.632,4.448,21.5,4.656,22.111,4.819Zm-1.987-.271a20.758,20.758,0,0,1,1.883,1.52l-.063.715C20.7,5.7,19.838,4.93,19.835,4.882ZM17.711,4.34c.033,0,.66.545.66.545l.474-.449L21.91,7.172,21.8,8.525c-2.269-1.972-4.237-3.707-4.289-3.87ZM15.227,9.9a14.309,14.309,0,0,1,1.564-5.345c1.776,1.564,3.358,2.965,4.971,4.392l-.93,11.039,4.077,1.223a15.965,15.965,0,0,0,.512,3.84h-.148L20.52,20.283c-1.245-1.312-2.528-2.635-3.84-3.937a8.752,8.752,0,0,1-1.16-1.331,5.686,5.686,0,0,1-.389-2.48,22.114,22.114,0,0,1,.1-2.661ZM9.875,15.227a22.113,22.113,0,0,1,2.661-.1,5.5,5.5,0,0,1,2.48.4,9.007,9.007,0,0,1,1.331,1.153c1.3,1.3,2.621,2.565,3.929,3.825l4.774,4.782v.152A16.156,16.156,0,0,0,13.492,26.8c-3.466-3.74-5.868-6.5-8.963-10.008a14.174,14.174,0,0,1,5.346-1.565ZM4.422,18.845l.449-.474s-.53-.626-.545-.66l.33-.2c.289.1,6.2,6.965,8.77,9.867.415-.2.827-.322,1.242-.489,4.152-2.224,9.53-1.353,10.379-1.2v2.669a10.256,10.256,0,0,1-1.894,1.19c-2.765,1.472-6.1,3.381-8.837,4.693a1.216,1.216,0,0,1,.445-1.249c1.853-1.053,3.707-1.931,5.5-2.921.712-.371,3.57-1.909,4.4-2.528.056-.041.048-.067,0-.041-2.839,1.438-7.866,3.681-10.631,5.456a.693.693,0,0,1,.348-.9,38.18,38.18,0,0,1,6.639-3.707c.767-.341,2.769-1.216,3.558-1.705.052-.033,0-.041-.063,0A37.074,37.074,0,0,0,15.16,30.97l-1.22.86-.156-1.012.671-.63c3.154-2.736,6.672-4.407,9.789-4.493h.137c.178,0,.137-.044-.082-.059a14.282,14.282,0,0,0-4.422.43c-.23.059-.456.13-.686.193a19.7,19.7,0,0,0-5.034,2.335c-.219.156-.437.274-.652.449Zm.445.99c.174.015,5.883,6.854,8.707,9.76A20.387,20.387,0,0,1,19.5,26.533a29.428,29.428,0,0,0-5.972,4.077c-2.309-2.628-9.033-10.323-9-10.5Zm-.426.741c2.294,2.891,8.729,10.008,9.015,10.379,0,0,.111.608.208,1.112s.145,1.182.241,1.62c-.771-.875-1.516-1.772-2.276-2.658h0l-6.887-8.1.211-.23s-.5-2.031-.5-2.139Zm-.085,2.632.552.652c-.741.059-1.379.122-1.9.182.052-.059.815-.526,1.353-.849Zm.808.956.463.549c-1.638.115-2.787.189-2.836.148l-.03-.445a21.242,21.242,0,0,1,2.4-.267Zm-3.4,1.72v-.652L5.86,25l.9,1.06c-3.01.2-5.634.371-5.782.285L.89,25.973c.052-.026.871-.089.871-.089Zm3.128,7.71a21.532,21.532,0,0,1-1.816-1.95A14.176,14.176,0,0,1,.4,26.759c2.361-.148,4.448-.285,6.62-.411l7.165,8.5,3.762-2.031a16.02,16.02,0,0,0,3.077,2.354l-.1.107h-6.75c-1.816-.037-3.647-.078-5.49-.078a8.766,8.766,0,0,1-1.761-.119,5.659,5.659,0,0,1-2.034-1.487ZM1.779,45.626v-.649s-.819-.07-.853-.085l.085-.371c.148-.067,2.773.089,5.782.285l.1-.126.141-.163c-2.157-.126-4.259-.263-6.62-.411a14.209,14.209,0,0,1,2.673-4.885A21.532,21.532,0,0,1,4.9,37.271a5.6,5.6,0,0,1,2.035-1.483A8.763,8.763,0,0,1,8.7,35.669c1.835,0,3.666-.041,5.479-.074h6.731l.107.1a16.02,16.02,0,0,0-3.077,2.354L14.18,36.021,7.021,44.51h0l-.141.163-1,1.186ZM2.791,46c.048-.041,1.2.033,2.836.148l-.463.56a21.244,21.244,0,0,1-2.4-.252Zm1.564,1.65c-.537-.322-1.3-.79-1.353-.838.526.063,1.179.126,1.9.185Zm.6.493-.215-.23,6.891-8.066h0c.741-.886,1.5-1.787,2.276-2.661-.1.437-.133,1.079-.241,1.62s-.208,1.112-.208,1.112c-.285.371-6.72,7.473-9.018,10.379.011-.107.515-2.139.515-2.139Zm-.419,2.6c-.037-.174,6.672-7.869,9-10.5A29.428,29.428,0,0,0,19.5,44.317a20.387,20.387,0,0,1-5.931-3.062C10.742,44.18,5.045,51,4.863,51.015Zm-.208,2.413c0-.033.545-.66.545-.66l-.449-.474,9.093-10.193c.215.174.434.293.652.449A19.7,19.7,0,0,0,19.2,44.607c.23.063.456.133.682.193a14.308,14.308,0,0,0,4.426.423c.215,0,.259-.059.082-.059h-.137c-3.106-.082-6.635-1.757-9.789-4.489-.115-.1-.571-.5-.678-.6l.152-1.008,1.223.856a36.5,36.5,0,0,0,9.356,4.322c.067.026.115,0,.063,0-.79-.489-2.791-1.36-3.558-1.705a37.939,37.939,0,0,1-6.639-3.707.7.7,0,0,1-.348-.9c2.765,1.783,7.784,4.022,10.631,5.46.048.026.056,0,0-.041-.834-.619-3.707-2.139-4.4-2.528-1.794-.986-3.659-1.853-5.5-2.921a1.212,1.212,0,0,1-.445-1.245c2.736,1.279,6.072,3.188,8.841,4.659A10.257,10.257,0,0,1,25.05,42.5v2.67c-.853.159-6.231,1.03-10.379-1.2-.415-.167-.827-.293-1.242-.489-2.569,2.906-8.485,9.767-8.77,9.867Zm10.69,2.183a5.453,5.453,0,0,1-2.48.4,20.65,20.65,0,0,1-2.661-.1A14.309,14.309,0,0,1,4.53,54.07c3.091-3.507,5.5-6.264,8.963-10.008A16.174,16.174,0,0,0,25.05,45.415v.152l-4.767,4.771c-1.312,1.26-2.635,2.528-3.937,3.829a8.792,8.792,0,0,1-1.331,1.164ZM16.791,66.35a14.127,14.127,0,0,1-1.564-5.345,20.736,20.736,0,0,1-.1-2.665,5.5,5.5,0,0,1,.4-2.48,9.008,9.008,0,0,1,1.153-1.349c1.3-1.3,2.565-2.621,3.825-3.929l4.771-4.771h.152a15.731,15.731,0,0,0-.5,3.859l-4.077,1.22.93,11.065C20.15,63.385,18.567,64.764,16.791,66.35Zm2.054.1-.474-.474s-.626.53-.66.545l-.2-.33c.052-.152,2.02-1.9,4.289-3.885l.115,1.383Zm1.279-.111L19.835,66a28.309,28.309,0,0,1,2.109-1.9l.059.719a21.357,21.357,0,0,1-1.879,1.5Zm.437.1c.415-.33.919-.741,1.483-1.22l.074.853c-.619.133-1.486.345-1.557.348Zm2.32-.46h-.315c-.371-4.685-.8-9.385-1.112-14.056.241.371.671.86.971,1.316l.63.923c.063.467.53,10.038.956,13.715-.055-.1-1.129-1.9-1.129-1.9Zm1.965,2.087L24.4,68.1c-.145-.1-.834-10.294-1.056-13.785a29.513,29.513,0,0,0,7.109-1.331,20.243,20.243,0,0,1-6.361,2.024c.074,4.07.867,12.925.741,13.059Zm1.483,1.8-.371.085c0-.033-.085-.853-.085-.853h-.649l-.76-13.652c.274-.03.512-.1.778-.145a19.664,19.664,0,0,0,5.2-1.924c.208-.115.419-.23.623-.348a14.174,14.174,0,0,0,3.429-2.821c.145-.167.145-.23,0-.1l-.1.1c-2.254,2.135-5.931,3.447-10.1,3.747L23.386,54l-.6-.827,1.483-.259a37.083,37.083,0,0,0,9.671-3.555c.067-.03.093-.074.033-.059-.9.215-2.936,1.008-3.707,1.312a38.435,38.435,0,0,1-7.328,2.061c-.415.063-.578.067-.882-.389,3.214-.693,8.351-2.665,11.376-3.655.052-.019.041-.041-.026-.03-1.027.152-4.126,1.112-4.9,1.323-1.968.571-3.907,1.268-5.953,1.827a1.223,1.223,0,0,1-1.2-.571c2.865-1.008,6.572-2.013,9.571-2.928a10.2,10.2,0,0,1,2.18-.5l1.887,1.89c-.489.712-3.677,5.134-8.188,6.49-.411.174-.79.371-1.22.534.226,3.888.9,12.918.767,13.2Zm8.918-13.181c-.037,1.816-.078,3.647-.078,5.49a8.744,8.744,0,0,1-.119,1.761,5.348,5.348,0,0,1-1.483,2.035,22.029,22.029,0,0,1-1.953,1.816,14.176,14.176,0,0,1-4.885,2.673c-.293-4.667-.541-8.314-.741-13.411a16.189,16.189,0,0,0,9.13-7.213l.107.107Zm.167-7.829-3.621-3.633a.3.3,0,0,0,.141-.1.308.308,0,0,0,.1-.337c0-.056,0-.13.033-.13.23-.13.523.13.652-.13.033,0,.033-.07.063-.07.1.07.267.133.334.07a.208.208,0,0,0,.167-.07h.056c0,.133.1.2.167.274,0,.056-.126.056-.1.23.033.033.133.059.171.1.812-.067,1.182-.7,1.994-.838h.189v.1h-.089c-.033,0,0,0,0,.037l-.2-.037c.1.037.1,0,.1.037-.1.063-.1,0-.13,0v.063h.03c0,.033-.063,0-.063,0l-.03.033c-.07,0-.1.07-.1,0v.07h-.041v.13h-.063l-.159.074h-.074c.041,0,.041,0,0,.056h-.1a.07.07,0,0,1-.1,0v.063h-.074c-.159.13-.393,0-.526.13l-.126.163c0,.074.1.074.126.174h.1a.849.849,0,0,0,.415-.119,1.968,1.968,0,0,1-.471.037V45.2l-.03-.041a.567.567,0,0,1,.03-.126.371.371,0,0,0,.2-.036.693.693,0,0,1,.408.122,2.094,2.094,0,0,1,.638-.371.941.941,0,0,1,.526.263,1.179,1.179,0,0,0,1.142.1.285.285,0,0,0,.133-.267V44.8a5.189,5.189,0,0,1-.982-.426c.411,0,.741.337,1.112.434l-.137-.115c.03,0,.1,0,.159-.133.1,0,.259-.067.371.059v.145l-.311.056a.582.582,0,0,0,.3,0c.063,0,.163-.056.163-.13v-.13c-.423-.2-.882-.3-1.208-.467a4.885,4.885,0,0,1,1.3.4c.189.07.426.133.589.2a2.684,2.684,0,0,1-.856.337v.026a1.2,1.2,0,0,0,.856.078,1.553,1.553,0,0,0,.812-.311l.167-.6h.2l.03.033-.159.234c0,.07.026.07.059.07a8.5,8.5,0,0,0,.823-.437l.259-.567s0-.037-.033-.037l-.1-.133a4.615,4.615,0,0,1-1.409.23h-.03a8.155,8.155,0,0,0,2.78-.9.278.278,0,0,0-.033-.1,2.651,2.651,0,0,1-1.8.5,6.957,6.957,0,0,0,1.275-.434c.423-.245.853-.5,1.182-.708v-.1a2.617,2.617,0,0,1-1.442.474,6.858,6.858,0,0,0,1.275-.575c.267-.3.523-.371.823-.7,0-.033,0-.033-.041-.033a2.888,2.888,0,0,1-.682.437.812.812,0,0,1-.589.23,2.165,2.165,0,0,0,.845-.534c.3-.308.63-.537.893-.841l-.037-.026a4.167,4.167,0,0,1-1.149.7A3.844,3.844,0,0,0,43.9,39.7l-.033-.1a8.448,8.448,0,0,1-.63.634,11.417,11.417,0,0,0,1.279-1.772c0-.07-.022-.07-.022-.07-.334.4-.5.967-1.053,1.112a6.436,6.436,0,0,0,.919-1.2c.056-.208.222-.267.222-.5,0,0,0-.03-.067-.03a2.2,2.2,0,0,1-.523.764c.1-.23.234-.5.371-.764.056-.234.256-.371.293-.6h-.07l-.371.563V37.7l.452-1.483H44.64a2.965,2.965,0,0,1-.371.8c-.059,0,0-.037,0-.1l.33-1.008h-.033l-.3.678.3-1.045H44.5l-.156.567c-.133-.4.133-.9.156-1.238l-.1-.03a3.258,3.258,0,0,1-.322,1.342h-.063l.13-.8-.03-.037-.426,1.535c-.037,0-.037.037-.037,0,0-.5.234-.971.234-1.338-.033.237-.2.467-.234.771-.122.337-.256.6-.389.9l-.141.178a8.526,8.526,0,0,0,.916-3.844,8.618,8.618,0,0,0-4.559-7.606h5.445V31.5l3.933,3.922-3.933,3.933v5.56h-5.56Zm.337-4.163-.03.041h0s.015-.041.044-.041ZM43.613,39.5c0-.03,0-.059.033-.059ZM41.3,47.7a10.2,10.2,0,0,1,1.186-1.894h2.673a20.6,20.6,0,0,1,.3,3.707l-4.407-1.327c.1-.156.178-.322.263-.482Zm-.641.371-2.476-.741,1.531-1.53h2.172ZM44.11,70.457a14.209,14.209,0,0,1-4.885-2.673,21.53,21.53,0,0,1-1.95-1.816,5.6,5.6,0,0,1-1.483-2.035,8.744,8.744,0,0,1-.119-1.761c0-1.853-.041-3.67-.074-5.482V49.94l.1-.107a16.164,16.164,0,0,0,9.13,7.213C44.644,62.143,44.392,65.79,44.11,70.457Zm1.527-1.375h-.649s-.07.819-.085.853l-.371-.085c-.133-.278.537-9.311.771-13.181-.43-.152-.808-.371-1.223-.53-4.507-1.36-7.691-5.782-8.184-6.494l1.887-1.89a10.413,10.413,0,0,1,2.18.5c3,.919,6.705,1.924,9.571,2.932a1.216,1.216,0,0,1-1.2.571c-2.046-.56-3.988-1.257-5.953-1.824-.778-.23-3.877-1.175-4.9-1.327-.067,0-.078,0-.026.03,3.025.99,8.155,2.965,11.376,3.655-.3.456-.467.452-.882.389a38.434,38.434,0,0,1-7.328-2.061c-.782-.3-2.817-1.112-3.707-1.312-.059,0-.03.03.033.059a37.214,37.214,0,0,0,9.671,3.558l1.483.256-.652.838-.9-.052c-4.166-.3-7.847-1.612-10.1-3.747l-.1-.1c-.126-.126-.126-.063,0,.1a14.174,14.174,0,0,0,3.429,2.821c.2.119.415.234.623.348A19.768,19.768,0,0,0,45.6,55.3c.263.044.5.115.775.145Zm.83-.986-.445-.03c-.115-.133.682-8.989.741-13.059A20.242,20.242,0,0,1,40.4,52.984a29.513,29.513,0,0,0,7.109,1.331C47.29,57.825,46.6,68,46.456,68.1Zm1.853-2.128h-.315s-1.075,1.8-1.145,1.876c.423-3.666.89-13.237.953-13.715,0,0,.348-.5.63-.923s.741-.938.971-1.316c-.319,4.693-.752,9.393-1.123,14.089Zm.456.085.074-.853c.556.471,1.06.89,1.483,1.22-.1,0-.975-.215-1.586-.367Zm1.987.274a21.892,21.892,0,0,1-1.879-1.52l.059-.719c1.242,1.079,2.1,1.853,2.109,1.9Zm2.413.2c-.033,0-.66-.545-.66-.545l-.474.449L48.977,63.7l.115-1.383c2.269,1.987,4.237,3.733,4.289,3.888Zm2.483-5.56a14.33,14.33,0,0,1-1.559,5.35c-1.776-1.568-3.355-2.965-4.971-4.4l.916-11.05-4.111-1.2a15.731,15.731,0,0,0-.512-3.84h.152L50.337,50.6c1.26,1.308,2.528,2.632,3.829,3.933A8.792,8.792,0,0,1,55.33,55.86a5.463,5.463,0,0,1,.4,2.48,20.734,20.734,0,0,1-.1,2.647Zm5.352-5.356a20.651,20.651,0,0,1-2.661.1,5.5,5.5,0,0,1-2.48-.4,8.792,8.792,0,0,1-1.331-1.164c-1.3-1.3-2.621-2.565-3.929-3.825l-4.774-4.771V45.4a16.2,16.2,0,0,0,11.558-1.357c3.469,3.736,5.871,6.494,8.963,10.008a14.334,14.334,0,0,1-5.375,1.572ZM66.465,52l-.486.489s.53.626.545.66l-.33.208c-.285-.1-6.2-6.965-8.77-9.871-.411.2-.827.322-1.242.489-4.152,2.224-9.53,1.357-10.379,1.2V42.5A10.257,10.257,0,0,1,47.7,41.31c2.773-1.483,6.1-3.381,8.841-4.693a1.216,1.216,0,0,1-.441,1.245c-1.853,1.053-3.707,1.935-5.5,2.921-.715.371-3.573,1.913-4.407,2.528-.056.044-.048.067,0,.041,2.843-1.438,7.869-3.677,10.631-5.456a.7.7,0,0,1-.348.9,38.4,38.4,0,0,1-6.64,3.7c-.767.345-2.769,1.22-3.558,1.705-.052.033,0,.044.063,0a37.016,37.016,0,0,0,9.356-4.322l1.223-.856.152,1.008c-.111.1-.563.5-.678.6-3.154,2.736-6.672,4.411-9.789,4.493h-.137c-.178,0-.133.044.085.059a14.16,14.16,0,0,0,4.418-.43c.23-.059.46-.13.686-.193a19.7,19.7,0,0,0,5.034-2.335c.219-.156.437-.274.652-.445Zm-.445-.99c-.174,0-5.875-6.835-8.707-9.76a20.387,20.387,0,0,1-5.931,3.062,29.428,29.428,0,0,0,5.972-4.077c2.313,2.628,9.033,10.323,9,10.5Zm.43-.741c-2.294-2.891-8.729-9.99-9.018-10.379,0,0-.107-.6-.2-1.112s-.148-1.182-.245-1.62c3.1,3.507,6.116,7.139,9.167,10.712l-.215.23s.482,2.094.486,2.2Zm.082-2.632-.549-.652c.723-.059,1.375-.122,1.9-.182-.078.074-.845.541-1.383.864Zm-.838-.93-.456-.545c1.642-.115,2.787-.189,2.836-.148l.033.445a21.387,21.387,0,0,1-2.413.248ZM64.082,44.8c3.01-.2,5.634-.371,5.782-.285l.085.371c-.033,0-.853.085-.853.085v.652l-4.1.234-8.325-9.83-3.759,2.031a16.161,16.161,0,0,0-3.08-2.354l.107-.1h6.743c1.816.033,3.647.074,5.49.074a8.744,8.744,0,0,1,1.761.119,5.348,5.348,0,0,1,2.035,1.483,21.531,21.531,0,0,1,1.816,1.95,14.176,14.176,0,0,1,2.673,4.885c-2.361.148-4.448.285-6.62.411Z" fill="#afafaf" fill-rule="evenodd"/>
      </g>
    </g>
  </g>
</svg>
