<svg xmlns="http://www.w3.org/2000/svg" viewBox="0 0 273.98 223.44"><defs><style>.cls-1,.cls-2{fill:#afafaf;}.cls-2{fill-rule:evenodd;}</style></defs><g id="Layer_2" data-name="Layer 2"><g id="comp_Azerbaijan"><g id="Group_863" data-name="Group 863"><g id="Group_602" data-name="Group 602"><g id="Layer_2-2" data-name="Layer 2"><path id="Path_669" data-name="Path 669" class="cls-1" d="M11.68,145.39l-.87-1.93H4.63L3.4,146.23c-.42,1,.43,1.46,1,1.67v.25H0v-.27c.5-.17,1.23-.51,1.93-2L6.87,135c-.06-.42-.9-.7-1.12-.72v-.27H8.93L14.37,146a3.29,3.29,0,0,0,1.9,1.88v.27H11v-.27c.48-.19,1.41-.7,1-1.65C11.93,146,11.8,145.7,11.68,145.39Zm-6.46-3.2h5l-2.48-5.65Zm12.86-6.31h.14c.1.27.43.27.64.27h8.62v1.13l-7.69,9.82h6c.73,0,1.39-.59,1.79-1.66h.16l-.46,2.69h-10v-1L25,137.29H19.19c-.5,0-1,.76-1.19,1.49h-.16Zm24.71,2c0-1-.31-1.25-.91-1.48v-.23h6.43c2.58,0,3.85,1.43,3.85,3.26s-1.31,3.26-3.89,3.26l3.39,4a4.21,4.21,0,0,0,1.55,1.26v.21H50.4l-5.19-6.25v-.27H48a2,2,0,0,0,2-2.07c0-.05,0-.11,0-.16a2,2,0,0,0-1.79-2.19h-3c-.35,0-.59,0-.59.6v8.7c0,.92.3,1.22.91,1.43v.21h-3.7v-.22c.6-.22.91-.52.91-1.44Zm12.3,10.29v-.23c.6-.21.91-.52.91-1.43v-8.62c0-1-.32-1.25-.91-1.49v-.22h6.84c1.63,0,3.72.5,3.72,3a3.14,3.14,0,0,1-1.09,2.45,3.24,3.24,0,0,1,2,3.1,3.72,3.72,0,0,1-3.93,3.52l-.24,0Zm2.8-10.94v4h3.85a2,2,0,1,0,.23-4H57.89Zm0,9.53a.31.31,0,0,0,.25.31h4.09a2.17,2.17,0,0,0,2.1-2.24,1,1,0,0,0,0-.17c0-1.23-.62-2.38-1.88-2.38H57.88Zm19.33-1-.74-1.65H71.21l-1.08,2.39c-.35.82.37,1.24.86,1.42v.21H67.24v-.23c.43-.14,1-.44,1.65-1.71L73.11,137c0-.36-.77-.6-1-.6v-.23h2.75l4.6,10.19a2.78,2.78,0,0,0,1.63,1.59v.19H76.63v-.22c.4-.16,1.19-.6.87-1.41-.09-.22-.19-.44-.29-.7ZM71.71,143H76l-2.11-4.81Zm15.16-.34v4.05a1.21,1.21,0,0,0,.92,1.15v.24H84.06v-.23a1.14,1.14,0,0,0,.93-1.13v-3.57l-4.07-5.68a2.49,2.49,0,0,0-1.36-1.19v-.22H83.5v.23c-.36.12-.85.33-.42.93l3.07,4.34,3.36-4.31c.44-.6,0-.86-.46-1v-.23h3.24v.23a1.46,1.46,0,0,0-1,.6Zm12.2,4.66a4.21,4.21,0,0,0,4.11-2.74h.16l-.23,2.46a8.24,8.24,0,0,1-4.33,1.34,6.3,6.3,0,1,1-.7-12.59,4.09,4.09,0,0,1,.7,0,9.68,9.68,0,0,1,4,.91.56.56,0,0,0,.17-.09h.14l-.23,2.69h-.16a3.62,3.62,0,0,0-3.68-2.41,5.25,5.25,0,0,0,0,10.46Zm15-1.58-.74-1.65h-5.26L107,146.51c-.36.82.36,1.25.85,1.42v.21h-3.75v-.23c.43-.14,1.05-.44,1.65-1.71L110,137c-.06-.36-.77-.6-1-.6v-.22h2.71l4.62,10.2A2.85,2.85,0,0,0,118,148v.19h-4.5v-.23c.41-.16,1.19-.6.88-1.41-.09-.22-.17-.44-.29-.7Zm-5.5-2.74h4.29l-2.12-4.8Zm22.25,5.1h-1.34l-8.34-9.65v8.14a1.22,1.22,0,0,0,.91,1.31v.21H119v-.24a1.19,1.19,0,0,0,.93-1.3v-9a1.29,1.29,0,0,0-.93-1.26v-.22h2.81l7.75,8.93V137.7a1.24,1.24,0,0,0-.91-1.32v-.22h3.06v.22a1.22,1.22,0,0,0-.9,1.32Zm8.93-12.09c0-1.14-.36-1.48-1.07-1.74V134h7.56c3,0,4.52,1.69,4.52,3.83s-1.54,3.82-4.57,3.82l4,4.7a5,5,0,0,0,1.84,1.48v.27h-3.3l-6.09-7.31v-.32H146a2.38,2.38,0,0,0,2.34-2.41c0-.07,0-.13,0-.2a2.36,2.36,0,0,0-2.11-2.57h-3.48c-.4,0-.67,0-.67.66v10.24c0,1.07.34,1.44,1.07,1.68v.25h-4.37v-.27c.71-.24,1.07-.59,1.07-1.68Zm17.08,1.15v4.26h3.73c.45,0,.63-.52.76-1.25h.16l-.23,3.49h-.14c-.06-.53-.18-1.19-.55-1.19h-3.71v4.21c0,.23.11.36.25.36h4.69c.88,0,1.43-1,1.62-1.66h.17l-.54,2.72h-9v-.23c.6-.21.9-.52.9-1.43v-8.63c0-1-.31-1.24-.9-1.48v-.22h8.82a.4.4,0,0,0,.34-.14h.12l-.24,2.71h-.14c0-.48-.16-1.5-.68-1.5Zm8.48,7.42h.16a4.14,4.14,0,0,0,4.36,2.76c1.55,0,3.43-.7,3.43-2.32,0-1.39-1.46-1.79-3.09-2.24-2.16-.56-4.56-1.2-4.56-3.58s2.48-3.38,4.89-3.38a6,6,0,0,1,3.22.8l.42-.14h.16v2.64h-.16c-.21-1.94-2.59-2.24-3.68-2.24-1.55,0-3,.6-3,2,0,1,2,1.47,2.86,1.71,2.18.6,4.77,1.39,4.77,4.22s-2.84,3.75-5.55,3.69a6.84,6.84,0,0,1-4.27-1.4Zm12.77-6.78c0-1-.3-1.25-.9-1.49v-.21h6.44c2.59,0,3.86,1.43,3.86,3.26s-1.29,3.26-3.86,3.26H180v3.82c0,.92.31,1.23.92,1.44v.23h-3.71v-.23c.6-.22.9-.52.9-1.44Zm2.47-.68c-.34,0-.6,0-.6.6v3.87h3.35a2,2,0,0,0,2-2,1.09,1.09,0,0,0,0-.18,2,2,0,0,0-1.75-2.22h-.23Zm19.3,5.15c0,4.11-2.48,6.13-5,6.13s-5.13-2.09-5.13-6.21v-4.36c0-1-.32-1.25-.92-1.49v-.22h3.79v.22a1.25,1.25,0,0,0-.88,1.34v4.33c0,3.51,1.73,5.28,3.51,5.28s3.37-1.66,3.37-5v-4.51c0-.94-.3-1.24-.88-1.48v-.23h3.06v.23c-.6.23-.93.51-.93,1.48Zm2.74,5.82v-.22c.59-.21.91-.52.91-1.43v-8.62c0-1-.32-1.25-.91-1.49v-.22h6.84c1.62,0,3.72.5,3.72,3a3.08,3.08,0,0,1-1.09,2.45,3.24,3.24,0,0,1,2,3.1,3.72,3.72,0,0,1-3.93,3.52l-.24,0Zm2.8-10.94v4h3.85a2,2,0,0,0,.24-4h-4.09Zm0,9.54a.31.31,0,0,0,.25.31h4.09a2.17,2.17,0,0,0,2.1-2.24.91.91,0,0,0,0-.17c0-1.23-.6-2.39-1.88-2.39h-4.53Zm19.46,1.4h-8.78v-.22a1.19,1.19,0,0,0,.9-1.3v-8.74c0-1-.29-1.25-.9-1.49v-.22h3.7v.22c-.6.23-.91.56-.91,1.49v8.69c0,.43.16.56.4.56h4.17c.73,0,1.41-.64,1.79-1.66h.16Zm5.7-12v.22c-.59.24-.9.56-.9,1.49v8.84a1.09,1.09,0,0,0,.9,1.24v.21h-3.7v-.22a1.13,1.13,0,0,0,.9-1.25v-8.79c0-1-.3-1.25-.9-1.49v-.22Zm-2.06-3.08a1.09,1.09,0,0,1,1.26.89,1.1,1.1,0,1,1-2.16.37,1.36,1.36,0,0,1,0-.2,1,1,0,0,1,.86-1h.06Zm8.08,3.09v.22a1.34,1.34,0,0,0-.92,1.49v4.82l4.77-5.29a.25.25,0,0,0,0-.09c.38-.43.16-.86-.42-.93v-.22h3.24v.22a5.63,5.63,0,0,0-1.79,1.42l-3.26,3.58,4.17,5.24a3.52,3.52,0,0,0,1.56,1.29v.26h-2.87L237,142.84l-1.24,1.42v2.36a1.2,1.2,0,0,0,.92,1.3v.23h-3.71v-.23a1.2,1.2,0,0,0,.92-1.3v-8.75c0-1-.31-1.25-.92-1.49v-.22Zm17.22,9.64-.74-1.65h-5.27l-1.07,2.38c-.36.83.36,1.25.85,1.43v.19h-3.74v-.22c.42-.14,1-.44,1.64-1.71l4.25-9.23c-.07-.36-.78-.6-1-.6v-.22h2.72l4.63,10.2a2.82,2.82,0,0,0,1.62,1.59v.19h-4.49v-.22c.42-.16,1.19-.6.89-1.41-.09-.22-.2-.44-.31-.7Zm-5.51-2.73h4.3l-2.11-4.79Zm10.08,1.58h.16a4.12,4.12,0,0,0,4.36,2.76c1.54,0,3.43-.7,3.43-2.32,0-1.39-1.45-1.79-3.08-2.25-2.17-.55-4.56-1.19-4.56-3.57s2.46-3.38,4.88-3.38a6,6,0,0,1,3.22.8,2.16,2.16,0,0,0,.43-.14h.16v2.64h-.16c-.22-1.95-2.6-2.24-3.69-2.24-1.54,0-3,.6-3,1.95,0,1,2,1.47,2.87,1.71,2.17.6,4.76,1.39,4.76,4.21s-2.84,3.76-5.54,3.7a6.93,6.93,0,0,1-4.28-1.4ZM274,136.15v.23a1.32,1.32,0,0,0-.91,1.48v8.82a1.12,1.12,0,0,0,.91,1.25v.21h-3.7v-.23a1.12,1.12,0,0,0,.9-1.25v-8.79c0-1-.29-1.25-.9-1.49v-.22Zm-239.9-.28a9.66,9.66,0,0,0-3.95,1,.53.53,0,0,0-.21-.11h-.16l.07,2.69H30A3.6,3.6,0,0,1,33.81,137a4.82,4.82,0,0,1,4.83,4.82c0,.13,0,.25,0,.37v.25H28.86q0,.32,0,.63v.36h0a5.39,5.39,0,0,0,3.54,4.76h0a7.63,7.63,0,0,0,1.78.24,6.16,6.16,0,0,0,6.55-5.74c0-.17,0-.34,0-.5a6.22,6.22,0,0,0-6.14-6.3,5.24,5.24,0,0,0-.56,0Zm.18,11.47a5,5,0,0,1-1.49-.22,3.8,3.8,0,0,1-2.25-3.73h8a4.25,4.25,0,0,1-4.28,4Zm23.92,23.13v.26H53.84v-.26a1.39,1.39,0,0,0,1.07-1.53V158H51.56c-1.25,0-1.71.91-2,1.78h-.2l.29-3.14H62.38l.3,3.14h-.21c-.31-.88-.76-1.78-2-1.78H57.11v11a1.37,1.37,0,0,0,1.06,1.52Zm31-11.74V159c-.6.24-.91.53-.91,1.48v8.76a1.19,1.19,0,0,0,.91,1.31v.22H85.45v-.22a1.19,1.19,0,0,0,.92-1.31v-4H79.23v4a1.21,1.21,0,0,0,.92,1.31v.22H76.43v-.22a1.2,1.2,0,0,0,.93-1.31v-8.75c0-1-.31-1.24-.93-1.48v-.23h3.72V159c-.59.22-.92.54-.92,1.48v3.66h7.11v-3.66c0-.95-.32-1.24-.92-1.48v-.23Zm2,8.49h.16A4.09,4.09,0,0,0,95.63,170c1.54,0,3.42-.69,3.42-2.32,0-1.38-1.45-1.82-3.08-2.25-2.17-.55-4.56-1.16-4.56-3.58s2.47-3.37,4.87-3.37a5.9,5.9,0,0,1,3.23.79c.09,0,.18-.05.42-.14h.17v2.64h-.19c-.21-2-2.6-2.24-3.68-2.24-1.55,0-3,.6-3,1.95,0,1,2,1.46,2.86,1.72,2.18.56,4.77,1.38,4.77,4.2s-2.84,3.76-5.56,3.7a6.85,6.85,0,0,1-4.27-1.41Zm15.56-8.5V159c-.59.22-.9.54-.9,1.48v8.82a1.12,1.12,0,0,0,.9,1.25v.22H103v-.22a1.12,1.12,0,0,0,.9-1.25v-8.81c0-1-.29-1.24-.9-1.48v-.23Zm-2.06-3.08a1.11,1.11,0,1,1-.89,1.28,1.5,1.5,0,0,1,0-.22,1,1,0,0,1,.87-1.06Zm13.19,15.08H109v-.22a1.19,1.19,0,0,0,.9-1.31v-8.75c0-1-.29-1.24-.9-1.48v-.23h3.71V159c-.6.22-.92.54-.92,1.48v8.68c0,.44.16.56.4.56h4.17c.73,0,1.4-.65,1.79-1.66h.17Zm20.75,0H137l-9.77-11.33v9.54a1.42,1.42,0,0,0,1.06,1.52v.26h-3.61v-.26a1.41,1.41,0,0,0,1.09-1.52V158.37a1.52,1.52,0,0,0-1.09-1.48v-.26H128l9.12,10.5v-8.68a1.44,1.44,0,0,0-1.06-1.56v-.26h3.57v.27a1.44,1.44,0,0,0-1,1.55Zm12-2.32-.73-1.65h-5.27l-1.08,2.38c-.36.83.37,1.25.85,1.42v.22h-3.75v-.22c.44-.14,1-.43,1.66-1.71l4.23-9.23c-.06-.34-.77-.59-1-.59v-.23h2.72L152.86,169a2.77,2.77,0,0,0,1.62,1.61v.22H150v-.22c.41-.16,1.2-.6.89-1.41a4.4,4.4,0,0,0-.29-.76Zm-5.5-2.73h4.31l-2.12-4.81Zm11.23-7.2h.15c.11.28.43.28.64.28h8.63v1.12L158,169.68h6c.73,0,1.38-.6,1.79-1.66H166l-.48,2.7h-10v-1l7.68-9.84h-5.79c-.5,0-1,.76-1.19,1.49H156Zm15.31.28V159c-.6.22-.91.54-.91,1.48v8.83a1.09,1.09,0,0,0,.91,1.24v.22H167.9v-.22a1.11,1.11,0,0,0,.9-1.24v-8.83c0-1-.3-1.24-.9-1.48v-.23Zm-2.07-3.09a1.11,1.11,0,1,1,.39,2.18,1.1,1.1,0,0,1-1.28-.9.78.78,0,0,1,0-.22,1,1,0,0,1,.83-1.08h.08Zm5.29,4.76c0-1-.32-1.26-.92-1.48v-.23h6.45c2.59,0,3.85,1.44,3.85,3.26s-1.3,3.26-3.88,3.26l3.36,4a4.21,4.21,0,0,0,1.55,1.26v.22h-2.81l-5.2-6.24v-.25h2.84a2,2,0,0,0,2-2.08.76.76,0,0,1,0-.15,2,2,0,0,0-1.81-2.18h-3c-.33,0-.6,0-.6.55v8.72c0,.92.31,1.23.92,1.43v.23h-3.72v-.22c.6-.21.92-.52.92-1.44Zm21.09,10.29h-8.81v-.22a1.18,1.18,0,0,0,.89-1.3v-8.75c0-1-.29-1.24-.89-1.48v-.23h3.69V159c-.59.22-.91.54-.91,1.48v8.68c0,.44.16.56.4.56h4.17c.74,0,1.41-.65,1.79-1.66h.19Zm5.45-12V159c-.6.22-.91.54-.91,1.48v8.82a1.1,1.1,0,0,0,.91,1.24v.22h-3.72v-.22a1.1,1.1,0,0,0,.9-1.24v-8.81c0-1-.29-1.24-.9-1.48v-.23Zm-2.06-3.09a1,1,0,0,1,.93,1.07v0a.94.94,0,1,1-1.85.34,1.34,1.34,0,0,1,.84-1.42Zm10.39,9.67v4.06a1.2,1.2,0,0,0,.92,1.14v.22h-3.73v-.22a1.14,1.14,0,0,0,.92-1.12V165.8l-4.07-5.67c-.38-.5-.69-1-1.35-1.16v-.23h3.92V159c-.34.11-.85.34-.42.94l3.07,4.33,3.34-4.32c.44-.6,0-.86-.45-.95v-.23h3.24V159a1.35,1.35,0,0,0-1,.59Zm10.13-6.56V159c-.59.22-.9.54-.9,1.48v8.83a1.1,1.1,0,0,0,.9,1.25v.22h-3.71v-.22a1.14,1.14,0,0,0,.9-1.25v-8.82c0-1-.29-1.25-.9-1.48v-.23Zm-2.07-3.08a1,1,0,0,1,.93,1.06v0a1,1,0,0,1-.88,1.09h0a1,1,0,0,1-.94-1.05.13.13,0,0,1,0-.06,1,1,0,0,1,.84-1.08h.09ZM68.39,158.34a9.45,9.45,0,0,0-3.94.93.84.84,0,0,0-.21-.11h-.16l.11,2.68h.17a3.54,3.54,0,0,1,3.79-2.45A4.82,4.82,0,0,1,73,164.2c0,.13,0,.25,0,.38v.24H63.19a3,3,0,0,0,0,.6v.38h0a5.45,5.45,0,0,0,3.57,4.77h0a7.8,7.8,0,0,0,1.79.25,6.15,6.15,0,0,0,6.54-5.75c0-.16,0-.33,0-.49a6.24,6.24,0,0,0-6.21-6.28l-.5,0Zm.18,11.47a5,5,0,0,1-1.48-.23,3.79,3.79,0,0,1-2.25-3.73h8a4.22,4.22,0,0,1-4.26,3.93Z"/><g id="Group_564" data-name="Group 564"><path id="Path_670" data-name="Path 670" class="cls-2" d="M134.7,69.4a.47.47,0,0,0,.27.23l.4,0V69.4h-.12a.29.29,0,0,1,0,.13s-.05,0-.05,0l-.12-.14a.81.81,0,0,0-.31,0Z"/><path id="Path_672" data-name="Path 672" class="cls-2" d="M134.34,69.88v0s-.07-.08-.11-.08S134.27,69.83,134.34,69.88Z"/><path id="Path_673" data-name="Path 673" class="cls-2" d="M148.56,58a.52.52,0,0,0-.53.51h0a.53.53,0,0,0,.53.53.51.51,0,0,0,.51-.52h0a.51.51,0,0,0-.51-.51Z"/><path id="Path_674" data-name="Path 674" class="cls-2" d="M142.12,64.62a.53.53,0,0,0-.52.51h0a.52.52,0,0,0,1,0,.51.51,0,0,0-.51-.52Z"/><path id="Path_675" data-name="Path 675" class="cls-2" d="M140,68h0S140,68,140,68Z"/><path id="Path_676" data-name="Path 676" class="cls-2" d="M139.53,69.52V69.4a.6.6,0,0,0-.19,0h0A.33.33,0,0,0,139.53,69.52Z"/><path id="Path_677" data-name="Path 677" class="cls-2" d="M138.89,69.8a1,1,0,0,0,.59-.18c0-.06-.16-.06-.24-.06A1.45,1.45,0,0,0,138.89,69.8Z"/><path id="Path_678" data-name="Path 678" class="cls-2" d="M126.34,65h0Z"/><path id="Path_679" data-name="Path 679" class="cls-2" d="M139.76,69.17l.17.16a1.74,1.74,0,0,0,.16-.34H140C139.9,69.17,139.79,69.17,139.76,69.17Z"/><path id="Path_680" data-name="Path 680" class="cls-2" d="M126,48.81a.51.51,0,0,0-.52.51.52.52,0,0,0,.51.52.53.53,0,0,0,.53-.51h0A.51.51,0,0,0,126,48.81Z"/><path id="Path_682" data-name="Path 682" class="cls-2" d="M136,69.58a.6.6,0,0,1-.26,0,.58.58,0,0,0,0,.18l0,0,.06,0a1.38,1.38,0,0,0,.77-.14.87.87,0,0,0-.58-.18Z"/><path id="Path_683" data-name="Path 683" class="cls-2" d="M137.81,69.19s0,0-.06,0h0Z"/><path id="Path_685" data-name="Path 685" class="cls-2" d="M124.75,61.87c0,.07.06.07.06,0v0l-.22-.16a.36.36,0,0,0,0,.21l.11.07S124.75,62,124.75,61.87Z"/><path id="Path_686" data-name="Path 686" class="cls-2" d="M126,59.07a.52.52,0,0,0,.51-.53.52.52,0,0,0-1,0,.45.45,0,0,0,0,.2A.53.53,0,0,0,126,59.07Z"/><path id="Path_687" data-name="Path 687" class="cls-2" d="M146.31,66.82h0a7.9,7.9,0,0,1-.91.48h.11A8.06,8.06,0,0,0,146.31,66.82Z"/><path id="Path_690" data-name="Path 690" class="cls-2" d="M136.26,72.5l-.21.13a.74.74,0,0,0,.24-.11Z"/><path id="Path_692" data-name="Path 692" class="cls-2" d="M132.47,64.62a.51.51,0,0,0-.51.51h0a.52.52,0,1,0,.52-.52Z"/><path id="Path_693" data-name="Path 693" class="cls-2" d="M146.52,66.42l.21-.09a.58.58,0,0,0-.21.07Z"/><path id="Path_695" data-name="Path 695" class="cls-2" d="M137.88,57.44v.27a.45.45,0,0,1-.38-.16c-.27-.7.38-1.84.11-2.8a4.47,4.47,0,0,0-.16-.81,17.45,17.45,0,0,1-.48-2,2.14,2.14,0,0,0-.1-.71,4.35,4.35,0,0,1-.11-1.3v-.31a6.2,6.2,0,0,0-1.25,4.25,14.4,14.4,0,0,0,.38,1.47c.11.69.54,1.19.54,1.79,0,.06-.1.06-.16.06-1.07-1-.91-2.8-1.07-4.17v-.76a5.41,5.41,0,0,0-.8,3.33,5.22,5.22,0,0,0,.63,1.57,3.61,3.61,0,0,1-.21-1.66h.11a4.42,4.42,0,0,0,1.4,3.12c.21,0,.32.1.54.16.37.06.6-.27,1-.27.06.21.38.21.64.16a2.39,2.39,0,0,0,.76-1.25,6.41,6.41,0,0,0-.11-4.17c-.43-1.79-1.67-3.12-1.62-5.07C135.94,51.24,138.71,54.42,137.88,57.44Z"/><path id="Path_696" data-name="Path 696" class="cls-2" d="M139.12,58a.52.52,0,0,0-.07.21,5,5,0,0,0,1.63-2.69c.53-2.58-1.4-4.25-2.38-5.87.16,1.89,1.51,3.41,1.4,5.37A5.06,5.06,0,0,1,139.12,58Z"/><path id="Path_697" data-name="Path 697" class="cls-2" d="M132.47,43.13a.52.52,0,1,0,0-1,.51.51,0,0,0-.53.51.54.54,0,0,0,.14.36A.52.52,0,0,0,132.47,43.13Z"/><path id="Path_698" data-name="Path 698" class="cls-2" d="M128,64.43h0Z"/><path id="Path_699" data-name="Path 699" class="cls-2" d="M131.63,68.68v0h0S131.63,68.68,131.63,68.68Z"/><path id="Path_700" data-name="Path 700" class="cls-2" d="M130.22,68.86h.08C130.3,68.78,130.22,68.86,130.22,68.86Z"/><path id="Path_701" data-name="Path 701" class="cls-2" d="M130.07,69.4v0S130.1,69.44,130.07,69.4Z"/><path id="Path_702" data-name="Path 702" class="cls-2" d="M148.55,48.81a.52.52,0,1,0,.52.51.51.51,0,0,0-.52-.51Z"/><path id="Path_703" data-name="Path 703" class="cls-2" d="M140.5,72h-.12l0,0Z"/><path id="Path_704" data-name="Path 704" class="cls-2" d="M130.37,69.4v-.09h-.07Z"/><path id="Path_705" data-name="Path 705" class="cls-2" d="M130.79,69s0,0,0,0l0,0Z"/><path id="Path_706" data-name="Path 706" class="cls-2" d="M130.55,69.12c0-.08,0-.08.07-.08s-.07,0,0,0v0h-.07l0,.2h0Z"/><path id="Path_707" data-name="Path 707" class="cls-2" d="M138.65,69.58c0,.08-.09.14-.14.14s.09,0,.09.09h0a1,1,0,0,0,.18-.31l-.14.08Z"/><path id="Path_708" data-name="Path 708" class="cls-2" d="M130.86,69.23h.06l.05,0v0Z"/><path id="Path_709" data-name="Path 709" class="cls-2" d="M142,43.13a.52.52,0,1,0-.53-.52A.52.52,0,0,0,142,43.13Z"/><path id="Path_710" data-name="Path 710" class="cls-2" d="M190,63a31.06,31.06,0,0,0-6.07-5.83,3.83,3.83,0,0,0-.29-.28,2.44,2.44,0,0,0,.29-.27A30.8,30.8,0,0,0,190,50.87a21.19,21.19,0,0,0,4.26-8.2,7.76,7.76,0,0,0-1.06-.16l.16-1.15c-.48-.07-1-.12-1.45-.15V40.1a15.67,15.67,0,0,0-1.58-.12V38.63a27.21,27.21,0,0,1-2.8-1.67l.13-.14a8.71,8.71,0,0,0-.78-.83,27.36,27.36,0,0,1,.88-3.57l-1-1c.38-.37,1-1.19,1-1.19l-.8-.78a12.27,12.27,0,0,0,.92-1.13l-.92-.7a7.42,7.42,0,0,0,.65-.83A21.83,21.83,0,0,0,178.83,24a31.17,31.17,0,0,0-8.41.18H170v-.4a30.69,30.69,0,0,0,.18-8.4,21.11,21.11,0,0,0-2.78-8.83,7.76,7.76,0,0,0-.86.65l-.69-.93a11.32,11.32,0,0,0-1.13.92l-.8-.8s-.82.66-1.19,1l-.94-1a25,25,0,0,1-3.17.81V7.12a8.39,8.39,0,0,0-1.12,0,25.77,25.77,0,0,1-1.91-3.14h-1.36c0-.53-.11-1.58-.11-1.58H153c0-.49-.07-1-.14-1.45l-1.15.16A7.67,7.67,0,0,0,151.56,0a21.07,21.07,0,0,0-8.2,4.27,30.55,30.55,0,0,0-5.84,6.07,3.71,3.71,0,0,0-.27.29c-.09-.11-.27-.29-.27-.29a30.85,30.85,0,0,0-5.79-6.07A21.18,21.18,0,0,0,123,0a7.53,7.53,0,0,0-.16,1.06L121.68.9a12.37,12.37,0,0,0-.15,1.48H120.4s-.12,1.05-.11,1.58h-1.35A28,28,0,0,1,117,7.11a7.11,7.11,0,0,0-1.13,0v.19a26.58,26.58,0,0,1-3.16-.8l-1,1c-.37-.38-1.2-1-1.2-1l-.78.8a11.07,11.07,0,0,0-1.13-.92l-.72.88a7.51,7.51,0,0,0-.83-.66,21.66,21.66,0,0,0-2.78,8.82,30.77,30.77,0,0,0,.17,8.41v.39h-.39a30.7,30.7,0,0,0-8.4-.17,21.48,21.48,0,0,0-8.86,2.81,7.51,7.51,0,0,0,.66.83l-.92.69a11.07,11.07,0,0,0,.92,1.13l-.8.79s.66.83,1,1.19l-1,.95A27.22,27.22,0,0,1,87.69,36a7.64,7.64,0,0,0-.77.83L87,37a25.45,25.45,0,0,1-2.8,1.66V40c-.53,0-1.58.11-1.58.11V41.2a11.72,11.72,0,0,0-1.44.15l.16,1.15a7.53,7.53,0,0,0-1.06.16,21.21,21.21,0,0,0,4.27,8.2,31,31,0,0,0,6.07,5.81l.29.27a3.71,3.71,0,0,0-.29.27A31,31,0,0,0,84.59,63a21.11,21.11,0,0,0-4.27,8.21,9.69,9.69,0,0,0,1.06.16l-.16,1.14a12.37,12.37,0,0,0,1.48.15v1.13s1,.11,1.58.11v1.35A24.62,24.62,0,0,1,87.08,77l-.11.14a8.49,8.49,0,0,0,.76.83,27.46,27.46,0,0,1-.87,3.58l1,1c-.38.37-1,1.2-1,1.2l.81.78a12.69,12.69,0,0,0-.93,1.13l.92.69a8.12,8.12,0,0,0-.69.86,21.73,21.73,0,0,0,8.81,2.79,30.31,30.31,0,0,0,8.4-.18h.4v.4a31.09,31.09,0,0,0-.18,8.4,21.09,21.09,0,0,0,2.79,8.81,7.59,7.59,0,0,0,.86-.63l.69.92a12.69,12.69,0,0,0,1.13-.93l.78.81s.83-.66,1.19-1l1,1a31.09,31.09,0,0,1,3.16-.8v.19a8.48,8.48,0,0,0,1.13,0,27,27,0,0,1,1.9,3.14h1.35c0,.53.11,1.58.11,1.58h1.13a11.68,11.68,0,0,0,.15,1.45l1.14-.16a7.76,7.76,0,0,0,.16,1.06,21.19,21.19,0,0,0,8.2-4.26,31,31,0,0,0,5.81-6.07,3.65,3.65,0,0,0,.27-.3,4,4,0,0,0,.28.3,31,31,0,0,0,5.84,6,21.06,21.06,0,0,0,8.2,4.26,7.53,7.53,0,0,0,.16-1.06l1.15.16c.07-.48.12-1,.15-1.45h1.12s.12-1,.11-1.58h1.37a25.1,25.1,0,0,1,1.9-3.13,7,7,0,0,0,1.12,0v-.19a30.44,30.44,0,0,1,3.16.8l1-1c.37.38,1.19,1,1.19,1l.79-.81a12.55,12.55,0,0,0,1.12.93l.69-.92a7.7,7.7,0,0,0,.87.63,22.09,22.09,0,0,0,2.79-8.81,31.58,31.58,0,0,0-.19-8.41V89.7h.41a31.09,31.09,0,0,0,8.4.18,21.18,21.18,0,0,0,8.81-2.79,7.67,7.67,0,0,0-.64-.86l.92-.69a10.07,10.07,0,0,0-.92-1.13l.81-.79s-.66-.83-1-1.19l.94-1a27.46,27.46,0,0,1-.87-3.58,8.6,8.6,0,0,0,.77-.83l-.29-.35.17.21a25.53,25.53,0,0,1,2.8-1.67V73.91c.53,0,1.58-.11,1.58-.11V72.7a14,14,0,0,0,1.44-.13l-.16-1.15a9.51,9.51,0,0,0,1.07-.16A21.13,21.13,0,0,0,190,63Zm3.62-20a22.65,22.65,0,0,1-4.3,7.85A34.67,34.67,0,0,1,186.35,54a9,9,0,0,1-3.27,2.38,14.14,14.14,0,0,1-2.83.2c-3,0-5.9.06-8.81.12H160.6l-.17-.17a25.94,25.94,0,0,0,4.94-3.79l6,3.27,11.52-13.64c3.44.18,6.84.4,10.64.64ZM157.1,60.71l3.05-3a32.31,32.31,0,0,1,4.54,3.88l-6.52,3.52c-.08-.27-.17-.59-.26-.85a17.6,17.6,0,0,1-.81-3.5Zm.5,4.67-3.65,2V63.84l2.48-2.47Zm.31-15.69c.08-.28.17-.6.25-.86l6.53,3.53a32.83,32.83,0,0,1-4.53,3.87l-3-3a16.11,16.11,0,0,1,.78-3.5Zm-1.48,2.82L154,50.05v-3.5l3.66,2Zm34.93-11.95v1s1.31.1,1.37.13l-.14.6c-.24.11-4.46-.14-9.29-.46l1.44-1.7Zm-1.63-.6c-.08.07-1.92-.05-4.56-.24l.75-.88a31.36,31.36,0,0,1,3.87.42Zm-2.51-2.65c.86.52,2.09,1.27,2.17,1.34-.84-.1-1.89-.2-3.06-.3Zm-1-.8.34.38L175.52,49.83h0c-1.19,1.43-2.41,2.87-3.66,4.28.17-.71.22-1.74.4-2.61s.32-1.78.32-1.78c.47-.6,10.81-12,14.5-16.69,0,.19-.83,3.46-.83,3.46Zm.68-4.13c0,.27-10.73,12.64-14.47,16.87a47.68,47.68,0,0,0-9.6-6.56,32.6,32.6,0,0,1,9.53,4.93c4.56-4.7,13.7-15.67,14-15.69Zm.32-3.89c0,.05-.88,1.07-.88,1.07l.72.76L172.5,46.68c-.35-.28-.7-.47-1.05-.73a32.18,32.18,0,0,0-8.09-3.75l-1.1-.31a23,23,0,0,0-7.11-.69c-.35,0-.42.1-.14.1h.22c5,.14,10.66,2.82,15.73,7.22l1.11,1-.24,1.63-2-1.37a59.07,59.07,0,0,0-15-7c-.11,0-.19,0-.11,0,1.28.79,4.49,2.2,5.72,2.74a61.91,61.91,0,0,1,10.67,6,1.12,1.12,0,0,1,.56,1.45c-4.44-2.86-12.51-6.47-17.09-8.78-.08,0-.09,0,0,.07,1.34,1,6,3.44,7.08,4.07,2.89,1.58,5.88,3,8.84,4.69a2,2,0,0,1,.71,2c-4.4-2.11-9.75-5.18-14.21-7.54a16.53,16.53,0,0,1-3-1.91V41.29c1.37-.25,10-1.66,16.68,1.93.67.27,1.33.47,2,.79,4.12-4.68,13.63-15.7,14.08-15.86ZM170.07,25a8.64,8.64,0,0,1,4-.65,35.86,35.86,0,0,1,4.27.16A23.1,23.1,0,0,1,186.92,27c-5,5.64-8.84,10.07-14.4,16.08a26,26,0,0,0-18.59-2.18v-.24L161.6,33q3.18-3,6.33-6.18A13.4,13.4,0,0,1,170.06,25ZM167.22,7.29a22.63,22.63,0,0,1,2.52,8.58,32.18,32.18,0,0,1,.16,4.28,8.79,8.79,0,0,1-.64,4,14.64,14.64,0,0,1-1.87,2.14c-2.09,2.09-4.13,4.21-6.15,6.31l-7.67,7.68h-.24a26.28,26.28,0,0,0,.83-6.18l-.75.22a33.06,33.06,0,0,1-.48,6h-4.29a16,16,0,0,1-1.91-3l-.43-.8,14.46-4.3-1.5-17.79c2.58-2.31,5.12-4.54,8-7Zm-19.57,33h-3.49l-2.47-2.47,4-1.19ZM163.91,7.11l.76.72s1-.85,1.06-.88l.34.53c-.09.25-3.26,3.06-6.9,6.25L159,11.51Zm-2.06.18.47.53a44.57,44.57,0,0,1-3.39,3.06l-.1-1.15a34.41,34.41,0,0,1,3-2.45Zm-.67-.14c-.67.53-1.48,1.19-2.39,1.95l-.12-1.36c1-.26,2.39-.59,2.51-.59Zm-3.74.7H158c.6,7.53,1.29,15.08,1.75,22.6-.38-.6-1.07-1.38-1.56-2.12l-1-1.49c-.1-.74-.85-16.12-1.54-22,.12.15,1.85,3.05,1.85,3.05ZM154.28,4.5l.72,0c.23.16,1.34,16.54,1.69,22.16a47.35,47.35,0,0,0-11.43,2.13,32.25,32.25,0,0,1,10.21-3.26c-.08-6.54-1.37-20.78-1.19-21ZM151.9,1.61l.6-.14c0,.05.13,1.37.13,1.37h1.05l1.25,21.91c-.44.05-.83.16-1.25.23a32,32,0,0,0-8.41,3.09l-1,.55a22.94,22.94,0,0,0-5.51,4.54c-.24.27-.24.37,0,.17l.16-.17c3.63-3.43,9.53-5.53,16.23-6l1.45-.08,1,1.32-2.39.42a59.47,59.47,0,0,0-15.54,5.71c-.1.05-.15.12,0,.1,1.45-.35,4.72-1.62,6-2.11a61.85,61.85,0,0,1,11.81-3.32,1.13,1.13,0,0,1,1.42.63c-5.18,1.12-13.43,4.29-18.29,5.88-.08,0-.07.07,0,.05,1.66-.24,6.63-1.79,7.88-2.13,3.16-.91,6.28-2,9.57-2.93a2,2,0,0,1,1.93.89c-4.61,1.62-10.56,3.24-15.38,4.71a16.4,16.4,0,0,1-3.51.81l-3-3c.79-1.14,5.92-8.26,13.16-10.43.67-.28,1.27-.6,2-.86-.38-6.23-1.45-20.74-1.25-21.19ZM137.52,22.79c0-2.92.12-5.87.12-8.83a14.18,14.18,0,0,1,.19-2.83,8.51,8.51,0,0,1,2.38-3.27,34.67,34.67,0,0,1,3.14-2.92,22.78,22.78,0,0,1,7.86-4.3c.47,7.51.87,13.37,1.19,21.57A26,26,0,0,0,137.72,33.8l-.19-.16Zm-.28,12.57,6.13,6.13a13.77,13.77,0,0,0-12.26,0Zm12.86,25.3,0,.06c-.11,0-.11-.06-.11-.16-.16-.48.16-1,.32-1.46-.14.48.29,1.12-.14,1.56Zm1.37-1c-.1.38-.22.59-.32.92a1.44,1.44,0,0,1-.6.69.9.9,0,0,0-.27-.21,3.48,3.48,0,0,1,.21-.48c.31-.33.68-.54,1-.92Zm-.94-.22a11.57,11.57,0,0,1,.73-1.45,5.06,5.06,0,0,1,0,1.23,1.19,1.19,0,0,1-.49.93l-.15-.11a.83.83,0,0,1-.07-.6Zm.6,1.72a3.69,3.69,0,0,1-.6.86.67.67,0,0,1-.48.28.29.29,0,0,1-.27-.16.58.58,0,0,1,.06-.32c.28-.43,1-.27,1.33-.65Zm-.31.86a2.77,2.77,0,0,1-.9,1.35c-.37.22-.6.22-.74,0l-.2.22c-.47.26-.79,1-1.31,1.44a1.1,1.1,0,0,1,.67,0,2.91,2.91,0,0,1-1.67.6h-.32s0,0,0-.22l.16-.16a1,1,0,0,1,.63-.21h.16l-.19-.14v-.11c.32-.66,1.15-.42,1.57-.92.16-.21.62-.48.62-.64,0-.32.17-.37.28-.54a2.92,2.92,0,0,0,1.35-.67Zm-2,2.59v0c0,.06-.11.16-.16.23s-.11,0,0,.16a9,9,0,0,0,1-.27,13.9,13.9,0,0,1-1.36,1.07h-.6a.78.78,0,0,1,.41-.26c.12-.16.32-.16.37-.32l-.78.38v-.06c.15-.16.59-.32.78-.53v-.15c.11-.06.16-.11.16-.23s-.1,0-.1-.1c.1-.27.48-.44.52-.75h0l-.41.31v0c.41-.49,1-.33,1.62-.49a.16.16,0,0,0,.14-.09c-.18.32-.33.54-.55.62a1.31,1.31,0,0,1-.9.54l.53-.53Zm-4.37,4.77a3.19,3.19,0,0,1-1.53.16.92.92,0,0,1,.37,0c.73-.54,1.52,0,2.21-.11a6.33,6.33,0,0,1-1.48.33h-.26c.26-.17.52-.06.79-.22Zm-1.53,1.38-.68-.09.16-.16h.15l.32-.08c0-.09,0-.16.05-.16h.11l.11.16V70.3h.16l.06.07c0-.07-.06-.07,0-.07h.05s0,.07,0,0,0-.09.11-.09c.68,0,1.42-.11,2-.11l-.41.64a1.88,1.88,0,0,1-.47.05Zm1.78.34-.32.16h-.1c.11-.16.11-.16.16-.16h.16c0-.07.1,0,.1,0Zm-3.95,0c-.47-.22-.9-.34-1.26-.49l-.53-.1-.16-.07,0,.07h-.1l0,.21h-.16c-.06,0,0,.11-.06.11v-.15l.7-.48.16.09,0,.07h.11l.1.09v.07h.15v-.16c.13,0,.13.16.16.16H140a.21.21,0,0,1,.21.1c.05,0,.11,0,.11-.1l.26.16c0-.06.16,0,.21-.06s.06,0,.06-.1,0,.1.16.1c.84.16,1.83.27,2.78.38l-.32.81h0c-.85-.25-1.75-.4-2.64-.73ZM143,72v.06a3.51,3.51,0,0,1-1.19.28l.67-.34h0s.21.06.21,0H143Zm-2.85-.41v-.13h-.37c0-.06,0-.06,0-.06h0l0-.1-.16.1h-.07c0-.1,0,0,0,0v-.1h-.12l.12,0h-.19c.05,0,.05,0,0-.16,0,0,0,.16-.05.16s0-.12,0-.14l-.23.14c0-.16.11-.16.11-.16h-.28v-.06a.62.62,0,0,1,.33,0,10.38,10.38,0,0,1,1.41.43l-.26.16h-.05c.05,0,.05,0,.05-.11Zm-1.11.42H139l-.37.06.11-.06h0V72l-.6.16.37-.16c-.15,0-.37.1-.47.1l.21-.21h-.11l-.32.11c.06-.11.06-.11.11-.11h0c.07-.12,0-.12,0-.12l-.15.12.11-.21h-.16a.34.34,0,0,1,.27-.16,4,4,0,0,1,1.46.59Zm.79.06v.21c-.21.27-.72.27-1.09.27,0,0-.06,0-.11-.1s.11-.07.16-.16a1.61,1.61,0,0,1,1-.23Zm-1.47,0h-.1a1,1,0,0,1,.41-.06Zm-2.67-.5c-.1.09-.1,0-.26,0v.09h-.05c0,.12,0,.12-.11.12l-.31.11s.05,0,.05.11h-.6l1.67-.92v0c.07,0,.07,0,.16,0,.27,0,.32-.16.48-.26a.81.81,0,0,1,.27-.11.39.39,0,0,1,.2.16H137v.05l-.26.11v0h-.16l-.05,0h-.27v.16h-.1c-.07,0-.07,0-.07.06H136v.1s-.09-.1-.09,0h-.14v.06h0c-.14.11,0,.11,0,.11Zm-3.17-3.93a3.25,3.25,0,0,1-1.36-1.29l0,.05v.06a4.12,4.12,0,0,0,1.27,1.29c-.16,0-.53,0-.68.16.3,0,.68-.16,1,0s.75.64.8,1h-.77s-.06,0-.06,0l.06.06c.37,0,.69-.06.89.16l.22.53-1.39.23c-.08,0-.14-.06-.14-.23a1.45,1.45,0,0,1-.43-.26l0-.22a1.8,1.8,0,0,0,.69-.53.55.55,0,0,0-.21-.39c-.26-.16-.74,0-1.06.07-.14,0-.26-.07-.35-.07s-.06-.1-.16-.16a.28.28,0,0,1-.17-.27c.17-.16.42,0,.53-.16a.3.3,0,0,0,.26-.32c0-.32-.52-.42-.84-.54a.78.78,0,0,1-.27-.53l0-.17v0a.37.37,0,0,1,.16-.17c.38.2.77.4,1.19.59a.41.41,0,0,1,0,.09H132c.34.14.69.26,1,.38a.3.3,0,0,1,0,.1.42.42,0,0,0,.16.32.76.76,0,0,0,.6-.11c.24-.06.45,0,.51.16a.75.75,0,0,1,.11.69c-.16.44-.32.77-.42,1.08a6.91,6.91,0,0,1-.37-1.35c0-.16,0-.16-.06-.16v.81c-.1-.38-.53-.6-.84-.85l-.21-.81c0-.11,0-.11,0,0h-.08Zm1.19,3.4h-.08c0,.05.08.05.08.05h-.13c.06,0,.06,0,.06.16l-.06-.16-.06.16h-.06v0h-.15l-.26,0c-.05-.21-.27-.48-.32-.75v0c.43,0,.68.43,1,.37-.06,0-.06,0-.06.06s.07.1,0,.16Zm.06-.54c-.06,0-.06,0-.16.1a.61.61,0,0,1-.43-.32c-.1,0-.36-.1-.48-.1s-.16.16-.21.32.16.32.21.48.21.32,0,.49-.59-.16-1-.06c-.26.16-.1.59-.26.93a1,1,0,0,1-.26.12l-.28-.28h-.45a.24.24,0,0,1,0-.12.65.65,0,0,1,.22-.65c.05-.16.16-.32,0-.54s-.43-.1-.68-.21c-.06-.06-.12-.16-.06-.39a.62.62,0,0,1,.6-.31,1.64,1.64,0,0,1,.67-.27c.21-.06.27-.16.43-.22v-.22l-.36-.32c0-.16-.07-.16,0-.27l.52-.12.05.06h.16v0h0v0h0v.11h0L132,69s.1,0,.05.1-.05,0-.11.11l.05.11h0s.05.22,0,.22v0H132l.1.21H132v.16c-.2.37-.69.43-.89.76v0c.15,0,.26-.21.47-.38l0,.1A2.58,2.58,0,0,0,131.2,72a4.59,4.59,0,0,1,.67-1.67,1.87,1.87,0,0,0,.38.92,2.09,2.09,0,0,1-.16-.54c-.11-.28-.22-.64,0-.75h.07c0,.1,0,.1.1.1s.16.11.27,0l.16.11s0-.11,0-.11,0,.11.05.11l.32-.11h.37l-.12.11h.12l.1-.11.16.11.12.16ZM117.43,53.19l-3,3a32.32,32.32,0,0,1-4.55-3.87l6.52-3.49c.09.29.18.6.27.86a16.49,16.49,0,0,1,.8,3.47Zm-.49-4.66,3.65-2v3.49l-2.47,2.47Zm.49,12.18a16.16,16.16,0,0,1-.76,3.51c-.09.27-.17.59-.26.85l-6.53-3.52a32.39,32.39,0,0,1,4.55-3.88Zm.69.66,2.47,2.47v3.49l-3.65-2Zm-2.44-4.44L122,50.64V41.71h8.75a13.84,13.84,0,0,0-7.33,12.19,13.62,13.62,0,0,0,.41,3.3h0c-.16-.11-.16-.36-.26-.42a.44.44,0,0,0-.63.16,1.2,1.2,0,0,0,0,1.19v0l.21.27v.17c-.16.16-.27.16-.37.41s0,.28,0,.49l-.6.17a1.1,1.1,0,0,0,0,.54,2.49,2.49,0,0,0,.6.42v.27l.48.16a1.51,1.51,0,0,0,.6,1.29,1,1,0,0,0,.59.17,1.57,1.57,0,0,0,.33,1.23c0,.07,0,.07.1.07-.1.3-.47.3-.53.64s0,.6.16.64c.26.34.79,0,1.15.34h.06c-.06.2-.42.2-.42.42a.69.69,0,0,0,.2.65,1.24,1.24,0,0,0,.43.11l-.43.32.1.32a2.33,2.33,0,0,0,1.13.42v.07H127a1.34,1.34,0,0,0,.42.69h0v.11a1.2,1.2,0,0,1-.37.1,1.33,1.33,0,0,0-.46.54.52.52,0,0,0,.31.54c.32.32.52.32,1,.16.21.16.16.54.37.6s.1,0,.25.11a2.42,2.42,0,0,0,0,1.07c.16,0,.16.11.28.11a3.23,3.23,0,0,0,.91-.82.6.6,0,0,1,.69,0c0,.06,0,.06,0,.22a1.55,1.55,0,0,0-.2.81.58.58,0,0,0,.05.14H122V63.28Zm12.13-19.71a17,17,0,0,1-1.91,3.05h-4.29a33.13,33.13,0,0,1-.48-6l7.1,2.11Zm1-.59,4,1.19-2.45,2.45h-3.5Zm10.31,8.48L138.29,43a10.75,10.75,0,0,1,6,2.48l-2.09.86a9.1,9.1,0,0,0-3-1.25Zm2.72,1.37-1.84.76-.76-1.84a8.73,8.73,0,0,1,2.6,1.08Zm-2.29,1.88,5.5-2.27-2.29,5.51,5.53,2.27-5.53,2.29,2.29,5.5-5.52-2.27-2.27,5.52L135,59.39l-5.51,2.28,2.27-5.51-5.5-2.28,5.51-2.28-2.28-5.51L135,48.35l2.29-5.51Zm4.34,2.8.76-1.87a8.93,8.93,0,0,1,1.09,2.63l.1,0,.19.07a9,9,0,0,0-1.26-3l.86-2.09a10.9,10.9,0,0,1,2.48,6L145.87,52l-.1-.05h0Zm2.87,15.15c.25-.07.43-.35.69-.27v0l-.91.39s0,0,0,0a2.19,2.19,0,0,1-.76.11h-.32v-.11a.49.49,0,0,1,.1-.48,1.55,1.55,0,0,1,.8-.06,3.93,3.93,0,0,0,.84,0h.27l-.1.06a1.34,1.34,0,0,0-.43.26,2,2,0,0,1-.19.12l0,0Zm-6.55,4.06a1,1,0,0,0-.46-.07c-.12-.1-.12-.21-.12-.53s.16-.27.37-.27a9.13,9.13,0,0,0,3.21.27,1.21,1.21,0,0,1-.74.32,9.06,9.06,0,0,1-2.25.28Zm-.74-.7-.16.1v.16l-.05.07,0-.07c-.16-.16-.27.07-.32.07l-.11.1h-.05c-.1,0-.16,0-.16.11s0,.1-.15.1l0-.21h.2a2.65,2.65,0,0,1,.29-.29h-.25a.61.61,0,0,1-.24.18.74.74,0,0,1-.37-.28.29.29,0,0,1-.05-.32,3.84,3.84,0,0,1,2.2-1.93,6.87,6.87,0,0,0-1.36,2h0a1.31,1.31,0,0,1,.52-.11.7.7,0,0,1-.05-.32A3.65,3.65,0,0,1,141,67.2h.08a3.74,3.74,0,0,0-.87,1.63l-.09.18a.35.35,0,0,1,.36.1v.18l-.48.09h0a.45.45,0,0,1-.32.22l-.09,0v.07a0,0,0,0,0-.05,0h0Zm-2.05-2h.67A.46.46,0,0,1,138,68c-.05,0-.15.21-.31.21s-.06,0-.06-.15-.09-.23-.21-.38Zm.05.51c0,.06,0,.06-.16.06v-.06c.18-.15.18-.15.18,0Zm.32.21a3.45,3.45,0,0,1,1.12-.82h.14c-.34.4-.64.8-1,1.19-.06,0-.06-.11-.11-.11l-.1-.16-.06,0,.06,0Zm6-2.35.09,0h0l.22,0a.08.08,0,0,0,0-.07l.12-.07c-.22.38-.25,1-.48,1.43-.05.16-.32.16-.38.21l-.16,0a.47.47,0,0,0-.1-.32,3.52,3.52,0,0,1,.81-1.07Zm.94-.56.28-.17a.74.74,0,0,1-.14.28,2.14,2.14,0,0,1-.14,1,1,1,0,0,1-.43.16l0-.11c-.1,0-.1-.16-.1-.43a8.47,8.47,0,0,1,.57-.67Zm-2.1,2.21a.45.45,0,0,1-.49.32s-.1-.06-.15-.11a.85.85,0,0,1,.1-.8c.23-.21.45-.4.66-.56l.48-.22A11.14,11.14,0,0,1,142.62,67.72Zm-1.28.76c-.25.27-.36.33-.59.33-.06,0-.17,0-.17,0a.38.38,0,0,1,0-.53l0,0a5.13,5.13,0,0,1,1.4-1.31l.1,0c-.38.48-.42,1.22-.73,1.64Zm.91,1.25a.28.28,0,0,1-.16,0h.26c.15-.11.42-.11.47,0Zm-.81-.17a.29.29,0,0,1-.2,0c-.16,0-.26-.11-.41-.21a.64.64,0,0,1,.16-.49,5.78,5.78,0,0,1,2.3.28c.06.11.38.11.6.11a1.36,1.36,0,0,1-.6.11,6.08,6.08,0,0,1-1.85.26Zm1.85-.6c.06-.16.38-.16.48,0Zm.48-.22a8.77,8.77,0,0,1-1.15.05l-.37-.05s0-.06-.11-.06c0-.27,0-.49.22-.49A1,1,0,0,1,143,68a8.79,8.79,0,0,0,1.52.43,2.55,2.55,0,0,1-.79.35Zm.54-.48-.32-.12a6.53,6.53,0,0,0,1.24-.27.14.14,0,0,1,.06.12Zm-.37-.22h-.16a.33.33,0,0,1-.37-.28c0-.05.05-.27.21-.32.68-.32,1.42,0,2,0a2.56,2.56,0,0,1-1.73.57Zm1.47-.74H145c-.16,0-.22,0-.31-.16,0,0-.11,0-.11-.1a.36.36,0,0,1,.11-.38h.13c.6,0,1.13.16,1.54.11l-.09.06.14.11a1.52,1.52,0,0,1-1,.4ZM145,65.82a1.38,1.38,0,0,1,.29-.73l.5-.38c-.16.46-.17.93-.32,1.22l-.38.1h0c0-.08-.05-.14-.05-.19Zm1.1-.37c-.11,0-.16,0-.16-.16s0-.43,0-.6a1.81,1.81,0,0,1,.22-.32c.16-.14.32-.28.46-.42a3.49,3.49,0,0,0-.19,1.19c-.11.16-.21.33-.37.33Zm-8.67,1.28.71-1.73a11,11,0,0,0,6.32-2.61l1.72.71a12.76,12.76,0,0,1-8.75,3.63Zm4.68-5.31,2.08.87a10.87,10.87,0,0,1-5.95,2.46l.85-2.09a9,9,0,0,0,3-1.26Zm-2.88.94.75-1.82,1.84.76a8.43,8.43,0,0,1-2.59,1Zm6.79-6.61,2.09-.86a10.8,10.8,0,0,1-2.49,6l-.86-2.09a8.93,8.93,0,0,0,1.26-3Zm-1.38,2.72-.76-1.88,1.85-.76a8.42,8.42,0,0,1-1.09,2.63Zm-7.47,9.31v-.09h.06a.14.14,0,0,1,0,.09h-.06Zm0,.43v.06h0v-.06c0-.14,0-.14,0,0Zm-8.89-5.13,1.72-.71A11.1,11.1,0,0,0,136.4,65l.71,1.73a12.8,12.8,0,0,1-8.76-3.62Zm8.42,5.18v.1h-.21C136.62,68.26,136.62,68.36,136.78,68.26Zm-6.4-1.6h-.11v.1l.11.06v-.06s0,.06.09.16v.21h-.09V67c0-.07,0-.07,0-.11l-.11,0s-.16,0-.16.06v.08h.16c.11,0,.11,0,.11.16l-.25-.16h0L130,67h0l-.06-.07L130,67a.16.16,0,0,1,.08-.06v0h-.29v-.5l-.1.54h-.11c-.16,0-.16.07-.16.07v.09c.16,0,.16-.16.16,0h-.38a2.29,2.29,0,0,1-.37-2,.63.63,0,0,0-.14.44h0a1.08,1.08,0,0,1-.09.5,6.58,6.58,0,0,0-.88-1.23.58.58,0,0,1-.27-.22v.06c.27.48.74,1,1.07,1.51-.32,0-.64-.21-1-.12l1.11.34a2.36,2.36,0,0,1,.42.74h0v.16h.1l.11.16h-.11s0,0-.06,0h0l-.64,0h-.1v0l.36.16h.17v.06s-.17-.06-.17,0v0h-.14v.17h-.22c-.05,0-.05-.16-.05-.16l-.05.16a.45.45,0,0,0-.26.43h-.16a1.7,1.7,0,0,1-.6-.59s.15-.11.15-.21c.16-.06.42-.12.46-.44.22-.49-.59-.6-.59-1.08l.15-.16h0c.16,0,.16-.21.16-.42a1.15,1.15,0,0,1-.21-.33c-.21,0-.26,0-.32-.27a1.71,1.71,0,0,1,.16-.71,1.11,1.11,0,0,1,.74-.05c.12,0,.16.16.19.31l.08,0c0-.12-.11-.12-.11-.16l.06,0,.06.06v.16h-.1a.76.76,0,0,0,.16.43c.25.06.34-.07.51-.14l.38.28a1.92,1.92,0,0,0,.27.66c.2,0,.38-.09.6-.09l.39.24a.57.57,0,0,1,.08.34l-.05.37h-.1v.07c.08.08.08.08.08.13Zm.24.67h.06l.07,0,.08.16s0,0,0,0a.21.21,0,0,0,0-.12h0v.16c-.11,0,0,0-.11,0h-.11v-.16h.06v-.16h0l0,.16Zm.16,0v-.17h.11v.16Zm0,.37s-.05-.11,0-.11,0,0,0,.12Zm-.06.11-.11.17.11.11c-.11,0-.11.15-.11.15s.11,0,.11,0l.05.16h.11v.07c-.11,0,0-.07-.11-.07h-.22c0,.07,0,.07,0,.12s.16-.12.16,0h0c-.42.1-.67-.28-1-.5V68l.42.43a3.88,3.88,0,0,0-1.1.33c-.2-.06-.51-.33-.78-.33v.1l.74.23c-.47.25-.95,0-1.27.36h.16c.37-.11.9,0,1.15-.21,0,.21-.16.32-.43.54v.16c.39-.16.43-.6.76-.85a2.48,2.48,0,0,1,.9-.12c-.17.12-.33.28-.49.38v.21a2.66,2.66,0,0,0,.53-.53.38.38,0,0,1,.42-.06s.21,0,.21.06l-.21.06.16.16h0l.11.1a.14.14,0,0,1-.06.12v0h-.09s0,0,0,0h0v.12h0v.1h0v-.1h-.15s-.11.1-.16.1h-.18l.05,0c0,.12,0,0,.11.12l-.07,0-.09,0v.07h-.12v-.16l-.16.16,0,0V70s-.1,0-.1.1h-.07a.09.09,0,0,1,0,.07l0,0h-.06a4.17,4.17,0,0,0-.1.6v-.34c0-.1.06-.16,0-.16h0v-.1c0-.11,0-.11,0-.11v.22c.05-.08.06-.09.1-.1v0c-.13-.13-.2-.4-.48-.44s-.42.48-.6.6a1,1,0,0,1-.42,0l-.11-.21a.86.86,0,0,0-.1-.38c-.16-.16-.42.05-.69.05s-.42-.05-.47-.22c-.21-.16,0-.37.05-.59s.31-.16.46-.16a1,1,0,0,0,.49-.06,1,1,0,0,0,0-.39c0-.16.05-.31.16-.31.27,0,.64.21.89,0a.6.6,0,0,0,.28-.48c0-.23.21-.29.42-.45.37,0,.73.38,1,.64Zm-1,3.09a4.07,4.07,0,0,1-.8.75,1,1,0,0,0-.11-.17,1.68,1.68,0,0,1,.11-.8,2.74,2.74,0,0,1,.8.24Zm-.7-.32v-.21l0,.17a.05.05,0,0,1,0,.05h0Zm.1-.33a.12.12,0,0,1,.09-.11h0c0,.13,0,.13-.1.13Zm.16.11c0,.07.11.17,0,.22h-.06c0-.16-.11-.22,0-.22Zm.16-.21h-.06V70h.06c0,.12.16.12,0,.12Zm.16.1c0,.11.11.11,0,.18l-.16.1c0-.17-.06-.17,0-.28Zm0,.33h.16v.26c0-.09-.16-.09-.16-.25Zm-.68-2.81a.05.05,0,0,1,.1,0Zm-2-.31v0h-.08Zm-.21,0a.77.77,0,0,1-.64-.31L126,67a1.3,1.3,0,0,1,.78-.37c.21.26,0,.48,0,.8Zm0-1,.11.07s0,0-.11.11h-.32a1.58,1.58,0,0,1-.84-.43v-.28l.47-.21c0-.06.05-.06.05-.21a1.26,1.26,0,0,0-.16-.33,5.21,5.21,0,0,0-.69,0,.88.88,0,0,1-.59-.16v-.43c0-.1.15-.16.22-.16.19-.16.35-.16.41-.47s-.41-.44-.63-.76a.67.67,0,0,1,.22-.6c.09-.16.35-.16.52-.16.32.16.36.53.6.74h0a.92.92,0,0,0,.53-.21l.11-.05h.14c.22.26.45.52.69.76v.24h-.2v.05s0-.05-.15-.05L127,64c-.06,0-.06,0-.06,0h-.13v0l-.11.23s-.11,0-.11.1.11.16.11.21l.09,0h0a.15.15,0,0,1-.09,0l-.11-.1-.11-.54v-.81h-.1a6.52,6.52,0,0,0-.06,1.08,13.48,13.48,0,0,1-1.3-1.53,6,6,0,0,0,1.27,1.78l-1-.09v.09a1.82,1.82,0,0,0,.79.21,1.41,1.41,0,0,1,.41,0l.22.16v.21s.11-.16.11,0l-.11.05h.14l-.11.16v.16h.11v.17h-.11v0h.11c0,.17,0,.17.2.21-.2,0,0,.07-.2,0v.16a.75.75,0,0,0,.26,0v0h0ZM124.44,62h0v.1h-.16s0-.1-.06-.1h-.1c.16.1.25.38.4.38h.07s0,0,0,0h-.1l-.21,0v-.06h-.16c0-.12.1-.22,0-.22h-.16c-.27-.1-.27-.38-.42-.65s.16-.48.32-.85c.11-.6-.53-.82-.85-1.24,0,0,0-.21,0-.21,0-.22.31-.22.42-.32a.39.39,0,0,0,0-.49S123,58,123,57.87a1.37,1.37,0,0,1,0-.75h.37c.31,0,.31.38.53.44H124a13.59,13.59,0,0,0,.87,2.3V60a7.73,7.73,0,0,0-1.19-2,10.12,10.12,0,0,0,.59,1.13,1.91,1.91,0,0,1,.37.85,1.5,1.5,0,0,0-.69-.6h0A2.69,2.69,0,0,1,125,60.94h-.19v.11c0,.05,0,.05.09.05H125l-.19.11-.21-.11.22.32v.1l-.12-.1c0,.1-.1.1-.1.16s.22,0,.22.05v-.05a.22.22,0,0,1,.19-.06s.08.08.13.11,0,0,0,0,0,0,0,0H125v-.05c-.1,0-.1.05-.19.05v.22h.09l-.09.11.09,0h-.09v0a.06.06,0,0,1-.07.06c-.07,0,0-.06-.15,0v0c0,.1.1.1,0,.22l-.12-.12h0l.11-.16a0,0,0,0,1,0,0Zm-1.09-1.69v.16l0-.16Zm0-.1c0-.1,0-.1,0-.1v.09Zm0,.43h.16v0c0,.06,0,.06-.11.06h-.05Zm.16-.33h.11v.17h-.06Zm-.38.29.12,0,0,.12h-.17Zm-.21,0a3.68,3.68,0,0,1-.4-.39.81.81,0,0,1-.12-.37.65.65,0,0,1,.21-.06.77.77,0,0,1,.64.22Zm7-11.25.75,1.83-1.79.74a9,9,0,0,1,1-2.57Zm-.1-.29a8.72,8.72,0,0,0-1.23,3l-2.09.85a10.87,10.87,0,0,1,2.46-5.95l1,2.3ZM126.2,53l-1.76.7A12.74,12.74,0,0,1,128.07,45l.7,1.71A11.1,11.1,0,0,0,126.16,53Zm0,1.79a11,11,0,0,0,2.61,6.31l-.7,1.71a12.72,12.72,0,0,1-3.63-8.74Zm3.57,3.95-.87,2.11a10.81,10.81,0,0,1-2.47-5.95l2.11.86a9.17,9.17,0,0,0,1.23,3Zm-.94-2.85,1.79.75-.75,1.79a8.94,8.94,0,0,1-1.06-2.53Zm-1.15,8h0s0,0,0,0Zm-1.48-1v0l-.15,0a.35.35,0,0,1-.11-.34h0a1.82,1.82,0,0,0,.11-.46s-.16,0-.26-.11a.54.54,0,0,1-.26-.54.16.16,0,0,1,.08-.15,11.94,11.94,0,0,0,.88,1.23.05.05,0,0,0,0,.05l0,.06-.1,0c-.1,0-.1,0-.1,0h-.17v.11s-.14,0-.14,0v.12ZM125,60.12l.23.44h0s0,.16.07.16v.2l-.07.17v.1l-.23.18c-.11,0,0,0,0-.17v-.09h.14v-.44a.89.89,0,0,1-.21-.55Zm2.5,6.7v-.06c0,.06,0,.06,0,.16s-.11,0-.11-.1Zm.26.22v.09l-.21-.09Zm-.21.27v0s0,0,0,0h0v-.18a1.62,1.62,0,0,0,0,.22Zm-.19-.18-.16-.16.16,0s.15,0,.15.11c-.16.1-.16.1-.21.1Zm0,.32,0,.06-.16-.06c0-.1.16-.1.16-.1s0,.1,0,.1Zm-.27-.53H127a.27.27,0,0,0-.06-.17v-.1H127s.1.11.1.27Zm-.05.2c.05,0,.11,0,.11.18h-.16l-.06-.18Zm8.38-4.5.86,2.09a10.9,10.9,0,0,1-6-2.46l2.05-.9a8.78,8.78,0,0,0,3,1.26Zm-2.7-1.36,1.79-.75.75,1.79a8.66,8.66,0,0,1-2.59-1ZM137,68.2h.15v.06l-.06.1-.09-.1Zm.09-.15H137v-.14h.15V68Zm0-.16c.07,0,0-.13.07-.13h.08c0,.09,0,.13-.05.13Zm-4.7-21.52-2.09-.88A10.84,10.84,0,0,1,136.26,43l-.87,2.09a8.65,8.65,0,0,0-3,1.26Zm2.87-1-.74,1.83-1.84-.76a9,9,0,0,1,2.58-1.07Zm1.11-2.65a11.06,11.06,0,0,0-6.33,2.63l-1.71-.69a12.77,12.77,0,0,1,8.74-3.64ZM125.9,73.64a16,16,0,0,1,1.91,3l.43.8-7.11,2.11a33.06,33.06,0,0,1,.48-6Zm1,0h3.5l2.46,2.46-4,1.2Zm4-6.35c.1,0,.1.06.1.06v.1Zm.12,0v-.18s0,.18,0,.18Zm3.2,3.82v0l.16,0h.07l.05.21-.05.1h.07s0,.07,0,.07a.07.07,0,0,0-.07-.07h0v.17h-.2c-.14-.16-.14-.47,0-.47Zm.63,1v.21l-.48.07a.59.59,0,0,1-.32-.28h.12a1.38,1.38,0,0,1,.7,0Zm0-1.28s.11,0,0,0v0s0,0-.16,0c0-.06,0-.06.17-.06Zm-.16-.11v-.06c0-.1.16-.1.16-.1v.16Zm.48.6.06-.49.37.28-.37.21Zm1.88-.75c-.21-.07-.3.21-.51.32h-.27c-.16-.22-.16-.76-.42-.86,0,0,0-.06-.05-.06v0h-.08v0h0c-.14,0-.32.12-.44.24a1.22,1.22,0,0,1,.69.21l.15.55H136v0l-.1,0,.1-.11c-.1,0-.1.11-.15,0l.15-.11-.1-.06s0,.06,0,.06l0-.06c0-.1,0,.06-.12,0l.07-.1h-.1c-.1,0-.1,0-.1.1v-.26c-.16,0-.16.1-.16.1l0,.06,0-.16h0s0,.1-.11,0,.11-.06,0-.16v.1c0-.1,0-.1,0-.1v-.11a1.07,1.07,0,0,1-.79.21l-.2-.1h.09v-.11l-.16.11c0-.11.06-.11,0-.11h-.07V70c0-.06,0-.27,0-.27s0-.16,0-.16v0l.06,0h.16a.05.05,0,0,0,.05,0c-.05,0-.05-.11-.1-.11a.11.11,0,0,1-.11.11v-.22h.37l.05,0a.51.51,0,0,1,.42.14h.14c-.06-.12-.21-.18-.28-.31a1.67,1.67,0,0,1,1.31.16c.27,0,.32.48.27.86h.05c.16-.38,0-.6,0-.81.42.27.63.92,1,1-.37-.31-.6-.8-.89-1.06.2,0,.42,0,.6,0a.29.29,0,0,0,.32-.25v0c-.32.16-.6,0-.89,0a1.64,1.64,0,0,1-.7-.06c-.33-.16-.6,0-.83-.16l.51-.32.21-.28a9.09,9.09,0,0,1-1.47.8v0c0-.16-.05-.16-.05-.16h.05l-.1-.06v-.06a.17.17,0,0,0,.1.06v0h.05v0s0-.11-.09-.11v0h0c0-.06-.05,0-.05,0l.05-.16h.16s0,0,0-.11.21,0,0-.1h-.16a8.22,8.22,0,0,1,1-.7c.23,0,.45.06.69.07h0c.16.11.09.39.16.7.16.06.21.21.26.21H137c.22,0,.27-.1.53,0s.38.11.47.23c0,.43-.31.47-.31.74a1.41,1.41,0,0,0,.43.54.4.4,0,0,1,.09.21c.21.23,0,.5-.09.6l-.37.16s-.06,0-.06,0c-.31,0-.36-.34-.57-.5Zm.83.48-.07.08.07-.09Zm6.73-2a9.07,9.07,0,0,1,.89-.26c0-.07.1-.07.1-.16h-.1c-.43.16-.73.22-1.26.38-.1,0-.31,0-.37-.16a6.93,6.93,0,0,1,3-.6h.2a5,5,0,0,1-2.31.8Zm1.94-1.45c-.26.1-.59.38-.9.38,0,0-.16,0-.21-.16l1.28-.65c.31,0,.59.16.83,0,.22.16.27,0,.36,0-.31.32-.73.38-1,.65A4.63,4.63,0,0,0,146,68l.6-.33Zm.6-.6c-.07,0-.11,0-.11,0l.27-.27h-.16c-.07,0-.11.16-.22.27s-.2,0-.2-.11c.2-.27.74-.32,1.05-.64a2.84,2.84,0,0,0,1.31-.28,1.58,1.58,0,0,1-1,.76,3.62,3.62,0,0,1-1,.32Zm.78-2,.65-.54v.21Zm.49-2.88.37-.52v.52a1.31,1.31,0,0,1-.6.76l-.1-.16a3.4,3.4,0,0,0-1,1.93c-.11.1-.22.27-.37.22s0-.06,0-.06v-.6a11.66,11.66,0,0,1,1.37-1.61l.47-.37c-.06-.11-.07-.12-.16-.12Zm-.18,1.79a.49.49,0,0,1-.46.31c-.07,0-.22,0-.22,0s-.05,0-.05-.22.05-.26.27-.48A3.62,3.62,0,0,0,149.41,62c-.44.59-.8,1.27-1.16,1.87Zm1.19-1.36-.74.93c0-.37.44-.66.69-.94Zm-1.7.87.39-.42-.26.32-.06.11Zm1-.8a.64.64,0,0,1-.36.38h-.05l.41-.55s-.09.11,0,.16Zm.89-1v-.06l-.21.26c0,.06,0,.06-.1.06s-.16,0-.21-.06a1.2,1.2,0,0,1-.11-.56c.21-.34.42-.69.6-1a1.28,1.28,0,0,0,0,.55c.09.37.19.57,0,.85Zm-3.18,1.23-.71-1.71a11.07,11.07,0,0,0,2.62-6.34l1.73-.72a12.73,12.73,0,0,1-3.65,8.77ZM148.39,53a11.07,11.07,0,0,0-2.62-6.34l.7-1.72a12.79,12.79,0,0,1,3.63,8.77Zm-3.89-7.6a11,11,0,0,0-6.32-2.62l-.71-1.71a12.82,12.82,0,0,1,8.76,3.64ZM123.34.64a22.83,22.83,0,0,1,7.85,4.3,36.06,36.06,0,0,1,3.14,2.92,9.17,9.17,0,0,1,2.38,3.27A14.23,14.23,0,0,1,136.9,14c0,3,.07,5.89.13,8.81V33.62l-.17.16a26.18,26.18,0,0,0-14.7-11.59C122.46,14,122.86,8.15,123.34.64Zm-2.46,2.22h1.05s.11-1.32.14-1.37l.59.13c.21.45-.87,15-1.24,21.19.69.25,1.3.6,2,.86,7.27,2.15,12.36,9.27,13.17,10.41l-3,3a16.08,16.08,0,0,1-3.5-.76c-4.82-1.51-10.78-3.13-15.38-4.77a1.94,1.94,0,0,1,1.92-.89c3.29.9,6.41,2,9.57,2.93,1.24.37,6.22,1.88,7.87,2.13.11,0,.13,0,0,0-4.87-1.59-13.11-4.76-18.29-5.87a1.11,1.11,0,0,1,1.42-.63A61,61,0,0,1,129,32.52a62.86,62.86,0,0,0,6,2.1c.09,0,.05,0-.06-.09a59.86,59.86,0,0,0-15.54-5.72l-2.39-.41,1-1.32,1.46.08c6.69.48,12.61,2.59,16.24,6l.16.16c.2.2.2.1,0-.16a23.19,23.19,0,0,0-5.52-4.54c-.32-.19-.67-.37-1-.55A31.88,31.88,0,0,0,120.87,25c-.42-.07-.8-.18-1.24-.24Zm-1.33,1.58.69,0c.19.22-1.09,14.46-1.19,21a32.25,32.25,0,0,1,10.21,3.26,47.13,47.13,0,0,0-11.4-2.14c.34-5.62,1.45-22,1.68-22.16Zm-3,3.42h.51s1.73-2.9,1.85-3c-.69,5.9-1.44,21.28-1.54,22.05,0,0-.55.82-1,1.48s-1.19,1.51-1.56,2.12c.48-7.55,1.18-15.1,1.78-22.63Zm-.71-.11-.12,1.37c-.89-.76-1.7-1.43-2.38-2C113.49,7.15,114.88,7.48,115.86,7.75Zm-3.19-.44a33.79,33.79,0,0,1,3,2.45l-.11,1.15c-2-1.74-3.38-3-3.39-3.06ZM108.79,7c.06,0,1.07.87,1.07.87l.76-.72,4.93,4.4-.19,2.17c-3.64-3.17-6.81-5.95-6.89-6.22Zm-4,8.93a22.9,22.9,0,0,1,2.51-8.59l8,7.06-1.49,17.75,6.55,2a25.61,25.61,0,0,0,.82,6.17H121l-7.64-7.66c-2-2.11-4.07-4.23-6.18-6.33a13.6,13.6,0,0,1-1.86-2.14,9,9,0,0,1-.63-4,36,36,0,0,1,.16-4.28Zm-8.61,8.57a36,36,0,0,1,4.28-.17,8.93,8.93,0,0,1,4,.65,13.93,13.93,0,0,1,2.14,1.85c2.09,2.09,4.21,4.12,6.31,6.15l7.68,7.69v.24A26,26,0,0,0,102,43.08c-5.57-6-9.43-10.45-14.41-16.09a22.72,22.72,0,0,1,8.59-2.51Zm-8.76,5.81.72-.77s-.85-1-.87-1.06l.53-.32c.46.16,10,11.2,14.09,15.86.67-.32,1.33-.52,2-.78,6.67-3.58,15.32-2.18,16.68-1.93v4.29a17.08,17.08,0,0,1-3,1.91c-4.45,2.37-9.81,5.43-14.21,7.54a1.93,1.93,0,0,1,.72-2c3-1.7,6-3.11,8.84-4.7,1.14-.6,5.74-3.07,7.07-4.06.09-.07.08-.11,0-.07-4.56,2.31-12.64,5.92-17.09,8.77a1.12,1.12,0,0,1,.56-1.45,61.91,61.91,0,0,1,10.67-6c1.23-.55,4.45-2,5.72-2.74.08,0,0-.06-.1,0a60.08,60.08,0,0,0-15,7l-2,1.39-.24-1.62,1.08-1c5.07-4.39,10.72-7.08,15.73-7.22h.22c.29,0,.22-.07-.14-.09a22.93,22.93,0,0,0-7.1.69c-.37.09-.74.21-1.11.31A31.67,31.67,0,0,0,103.07,46a12.32,12.32,0,0,0-1,.73Zm.71,1.59c.28,0,9.46,11,14,15.69a32.6,32.6,0,0,1,9.53-4.93,47.4,47.4,0,0,0-9.6,6.56C98.35,45,87.55,32.61,87.6,32.33Zm-.68,1.19c3.69,4.65,14,16.09,14.49,16.69,0,0,.18,1,.34,1.79s.23,1.9.38,2.6c-1.24-1.41-2.43-2.85-3.66-4.27h0L88,36.86l.33-.37s-.8-3.27-.8-3.44Zm-.14,4.23.89,1.05c-1.19.09-2.22.19-3.06.29.08-.1,1.31-.85,2.17-1.36Zm1.3,1.54.75.89c-2.63.18-4.48.3-4.56.23l0-.71a33.51,33.51,0,0,1,3.86-.43Zm-5.46,2.77v-1l6.58-.37,1.45,1.7c-4.84.32-9.06.6-9.3.46l-.13-.6c.08,0,1.4-.14,1.4-.14Zm5,12.39a33.19,33.19,0,0,1-2.92-3.13A22.81,22.81,0,0,1,81,43l10.65-.66L103.12,56l6-3.27a25.7,25.7,0,0,0,5,3.79l-.17.17H103.11c-2.92-.06-5.87-.13-8.83-.13a14.08,14.08,0,0,1-2.83-.19A9.11,9.11,0,0,1,88.18,54Zm-5,19.34v-1s-1.31-.11-1.37-.13l.14-.6c.24-.11,4.46.14,9.29.46l.16-.2.23-.27c-3.47-.2-6.85-.42-10.64-.66A22.83,22.83,0,0,1,85.29,63a33.08,33.08,0,0,1,2.92-3.12,8.84,8.84,0,0,1,3.26-2.39,13.53,13.53,0,0,1,2.84-.19c3,0,5.89-.07,8.81-.12h10.82l.17.16a25.25,25.25,0,0,0-5,3.78l-6-3.26L91.61,71.55h0l-.23.26-1.61,1.91Zm1.63.6a45.58,45.58,0,0,1,4.56.24l-.75.9a35.37,35.37,0,0,1-3.85-.4Zm2.51,2.65c-.86-.52-2.09-1.27-2.17-1.35.84.1,1.89.21,3.06.3Zm1,.79L88,77,99,64.05h0c1.19-1.43,2.41-2.87,3.66-4.28-.16.7-.21,1.73-.39,2.61s-.33,1.78-.33,1.78c-.47.6-10.81,12-14.5,16.69,0-.17.83-3.44.83-3.44Zm-.67,4.18c-.06-.28,10.72-12.65,14.46-16.89a47.48,47.48,0,0,0,9.59,6.56,32.57,32.57,0,0,1-9.53-4.92C97.59,71,88.44,82,88.14,82Zm-.34,3.87c0-.05.88-1.06.88-1.06l-.72-.76,14.61-16.38c.34.28.69.47,1,.72a31.49,31.49,0,0,0,8.09,3.75c.37.1.73.22,1.09.31a22.81,22.81,0,0,0,7.12.68c.34,0,.41-.09.14-.09h-.22c-5-.14-10.67-2.83-15.74-7.22-.18-.16-.92-.8-1.09-1l.25-1.62,2,1.38a58.39,58.39,0,0,0,15,7c.11,0,.19,0,.1,0-1.27-.78-4.48-2.18-5.72-2.74a60.61,60.61,0,0,1-10.67-6,1.11,1.11,0,0,1-.55-1.44c4.44,2.86,12.51,6.46,17.09,8.77.07,0,.09,0,0-.06-1.34-1-6-3.44-7.08-4.07-2.88-1.58-5.88-3-8.84-4.69a2,2,0,0,1-.71-2c4.4,2,9.76,5.12,14.21,7.49a16.74,16.74,0,0,1,3,1.9v4.29c-1.37.25-10,1.66-16.69-1.93-.66-.27-1.33-.47-2-.79-4.13,4.67-13.64,15.7-14.1,15.86Zm17.19,3.51a8.81,8.81,0,0,1-4,.64,32.18,32.18,0,0,1-4.28-.16,23.08,23.08,0,0,1-8.59-2.51c5-5.64,8.84-10.07,14.4-16.09A26,26,0,0,0,120.59,73v.25l-7.67,7.67c-2.1,2-4.23,4.06-6.33,6.15a14.06,14.06,0,0,1-2.13,1.87Zm2.85,17.71a22.73,22.73,0,0,1-2.52-8.59,34.19,34.19,0,0,1-.16-4.29,9.06,9.06,0,0,1,.64-4,14.8,14.8,0,0,1,1.86-2.17c2.09-2.09,4.12-4.21,6.15-6.31L121,73.63h.25a25,25,0,0,0-.81,6.2l-6.55,2,1.49,17.8c-2.62,2.3-5.16,4.51-8,7.06Zm3.3.16-.77-.76s-1,.85-1.06.87l-.32-.53c.09-.24,3.25-3,6.9-6.24l.18,2.22Zm2-.18-.46-.53A44.57,44.57,0,0,1,115.6,103l.09,1.16a35,35,0,0,1-3,2.41Zm.71.16c.66-.53,1.47-1.19,2.38-2l.12,1.37c-1,.22-2.39.56-2.5.56Zm3.73-.74h-.5c-.6-7.53-1.29-15.08-1.79-22.59.39.6,1.08,1.38,1.56,2.11l1,1.49c.1.75.85,16.13,1.54,22l-1.82-3Zm3.16,3.36-.72,0c-.23-.16-1.34-16.54-1.69-22.16a47.67,47.67,0,0,0,11.42-2.13,32.52,32.52,0,0,1-10.23,3.25c.12,6.54,1.39,20.78,1.19,21Zm2.39,2.89-.6.14s-.14-1.37-.14-1.37h-1.06l-1.22-21.95c.44,0,.83-.16,1.25-.23a31.62,31.62,0,0,0,8.36-3.09l1-.55a23.14,23.14,0,0,0,5.51-4.54c.23-.27.23-.37,0-.16l-.16.16c-3.62,3.43-9.53,5.54-16.24,6l-1.46.08-1-1.33,2.38-.42a59.67,59.67,0,0,0,15.55-5.71c.1,0,.15-.12,0-.1-1.45.35-4.72,1.62-6,2.11a61.73,61.73,0,0,1-11.78,3.31c-.67.1-.93.11-1.42-.62,5.17-1.12,13.42-4.29,18.29-5.88.08,0,.06-.06,0,0-1.65.25-6.64,1.79-7.88,2.13-3.16.92-6.28,2-9.57,2.94a2,2,0,0,1-1.93-.92C119.24,80.65,125.2,79,130,77.56a16.76,16.76,0,0,1,3.5-.8l3,3c-.78,1.15-5.91,8.26-13.16,10.44-.66.27-1.27.59-2,.85.36,6.25,1.45,20.77,1.23,21.22ZM137,91.12c-.06,2.92-.13,5.86-.13,8.82a14.08,14.08,0,0,1-.19,2.83,8.62,8.62,0,0,1-2.38,3.28,37.68,37.68,0,0,1-3.14,2.92,23,23,0,0,1-7.85,4.29c-.48-7.5-.87-13.36-1.2-21.56a26,26,0,0,0,14.69-11.59l.17.17Zm.27-12.59-5.82-5.84a.4.4,0,0,0,.22-.16.47.47,0,0,0,.16-.54c0-.09,0-.21.06-.21.37-.21.84.21,1-.21.06,0,.06-.11.11-.11s.42.22.53.11a.32.32,0,0,0,.27-.11h.09c0,.22.16.32.27.44s-.2.09-.16.37c0,0,.21.1.28.16,1.3-.11,1.9-1.12,3.2-1.34h.3v.16h-.13c-.06,0,0,0,0,.06l-.32-.06c.16.06.16,0,.16.06-.16.1-.16,0-.21,0v.09h0s-.11,0-.11,0l0,0c-.12,0-.16.11-.16,0v.11H137v.21h-.1l-.26.12h-.12c.06,0,.06,0,0,.09h-.16a.1.1,0,0,1-.16,0h0v.11h-.11c-.26.21-.64,0-.85.21l-.2.26c0,.12.16.12.2.28h.16a1.41,1.41,0,0,0,.67-.19,3.25,3.25,0,0,1-.76.06v0l-.05-.07a1.46,1.46,0,0,1,.05-.2.59.59,0,0,0,.32-.06,1.22,1.22,0,0,1,.66.2,3.39,3.39,0,0,1,1-.6,1.54,1.54,0,0,1,.85.43,1.92,1.92,0,0,0,1.83.16.47.47,0,0,0,.22-.43V72a8.9,8.9,0,0,1-1.58-.69c.66,0,1.19.54,1.79.69l-.22-.18s.16,0,.25-.22c.16,0,.42-.1.6.1V72l-.5.09a1,1,0,0,0,.48,0c.1,0,.26-.09.26-.21v-.21c-.68-.32-1.42-.48-1.94-.75a8.12,8.12,0,0,1,2.1.65l1,.32a4.32,4.32,0,0,1-1.38.54v.05a1.94,1.94,0,0,0,1.38.12,2.48,2.48,0,0,0,1.3-.5l.27-1h.32l.05.06-.26.37c0,.11,0,.11.1.11a13.91,13.91,0,0,0,1.32-.7l.41-.91s0-.06-.05-.06l-.16-.21a7.22,7.22,0,0,1-2.26.36h-.05a13.09,13.09,0,0,0,4.47-1.44.44.44,0,0,0-.06-.16,4.25,4.25,0,0,1-2.89.8,10.75,10.75,0,0,0,2-.69c.68-.4,1.37-.8,1.9-1.14v-.16a4.2,4.2,0,0,1-2.32.76,10.46,10.46,0,0,0,2.05-.92c.43-.48.84-.6,1.32-1.13,0,0,0,0-.06,0a4.37,4.37,0,0,1-1.1.7,1.28,1.28,0,0,1-1,.37,3.45,3.45,0,0,0,1.36-.85c.49-.5,1-.87,1.44-1.36l-.06,0a6.52,6.52,0,0,1-1.85,1.13,6.27,6.27,0,0,0,2.24-2.1l0-.17a12.27,12.27,0,0,1-1,1,17.51,17.51,0,0,0,2.06-2.85c0-.11,0-.11,0-.11-.53.64-.8,1.55-1.69,1.79a10.57,10.57,0,0,0,1.48-1.92c.09-.34.35-.43.35-.81,0,0,0-.05-.1-.05A3.4,3.4,0,0,1,151,62c.16-.37.38-.8.6-1.23s.42-.59.47-1H152l-.6.91v0l.73-2.39h0a5.06,5.06,0,0,1-.6,1.29c-.1,0,0-.06,0-.16l.53-1.62h0l-.49,1.09.49-1.68h-.11l-.25.91c-.21-.64.21-1.45.25-2l-.16-.05a5.24,5.24,0,0,1-.52,2.16h-.1l.21-1.29-.05-.06-.68,2.47c-.06,0-.06.06-.06,0,0-.8.37-1.56.37-2.15-.05.38-.32.75-.37,1.25-.2.54-.42,1-.63,1.44l-.22.29a13.82,13.82,0,0,0-5.87-18.41h8.76v8.93L158.85,57l-6.32,6.31V72.2H143.6Zm.54-6.69,0,.07h0s0-.07.07-.07Zm12.64-8.35c0-.05,0-.09,0-.09Zm-3.72,13.18a16.48,16.48,0,0,1,1.9-3h4.3a33.06,33.06,0,0,1,.48,6l-7.08-2.13c.16-.26.29-.52.42-.78Zm-1,.6-4-1.19,2.46-2.46h3.49Zm5.54,36a23,23,0,0,1-7.85-4.29,34.56,34.56,0,0,1-3.13-2.92,9.08,9.08,0,0,1-2.39-3.27,14.18,14.18,0,0,1-.19-2.83c0-3-.06-5.9-.12-8.82V80.28l.16-.18a26,26,0,0,0,14.68,11.6c-.3,8.19-.7,14-1.15,21.56Zm2.46-2.21h-1s-.12,1.32-.14,1.37l-.6-.14c-.21-.44.86-15,1.25-21.18-.7-.25-1.3-.6-2-.86-7.25-2.18-12.36-9.29-13.16-10.44l3-3a16.76,16.76,0,0,1,3.5.8c4.82,1.48,10.78,3.1,15.39,4.72a2,2,0,0,1-1.93.92c-3.29-.91-6.41-2-9.57-2.94-1.25-.37-6.23-1.89-7.88-2.13-.11,0-.13,0,0,0,4.86,1.59,13.11,4.76,18.29,5.87-.49.74-.76.73-1.42.63a61.53,61.53,0,0,1-11.78-3.31c-1.26-.48-4.53-1.79-6-2.11-.1,0,0,0,.05.1a59.92,59.92,0,0,0,15.55,5.72l2.38.41-1,1.35-1.44-.08c-6.7-.49-12.62-2.59-16.24-6l-.16-.16c-.2-.2-.2-.1,0,.16a22.67,22.67,0,0,0,5.51,4.54c.32.19.67.37,1,.55a31.7,31.7,0,0,0,8.36,3.07c.43.07.81.19,1.25.24Zm1.33-1.58-.71,0c-.19-.22,1.09-14.45,1.19-21a32.61,32.61,0,0,1-10.23-3.25,47.37,47.37,0,0,0,11.43,2.14c-.35,5.65-1.46,22-1.69,22.16Zm3-3.42h-.5s-1.73,2.89-1.85,3c.68-5.89,1.44-21.28,1.54-22l1-1.48c.46-.68,1.19-1.51,1.56-2.11-.51,7.54-1.21,15.09-1.8,22.64Zm.74.13.11-1.37c.9.76,1.71,1.43,2.39,2-.16,0-1.57-.34-2.55-.59Zm3.19.44a33.55,33.55,0,0,1-3-2.44L159,103c2,1.73,3.39,3,3.39,3Zm3.87.33s-1.06-.88-1.06-.88l-.76.72-4.92-4.38.19-2.23c3.65,3.2,6.81,6,6.89,6.25Zm4-8.94a23,23,0,0,1-2.5,8.6c-2.86-2.52-5.4-4.77-8-7.07l1.47-17.77-6.6-1.92a25.19,25.19,0,0,0-.83-6.17h.25l7.66,7.67c2,2.1,4.06,4.23,6.15,6.32a14.13,14.13,0,0,1,1.87,2.14,8.74,8.74,0,0,1,.64,4,31.94,31.94,0,0,1-.16,4.26Zm8.61-8.61a33.87,33.87,0,0,1-4.27.16,9.06,9.06,0,0,1-4-.64A14.64,14.64,0,0,1,168,87c-2.09-2.09-4.21-4.13-6.32-6.15L154,73.22V73a26.06,26.06,0,0,0,18.58-2.18c5.58,6,9.44,10.44,14.41,16.09a23,23,0,0,1-8.64,2.52Zm8.77-5.81-.78.79s.85,1,.87,1.06l-.53.34c-.45-.16-10-11.2-14.09-15.87-.66.32-1.33.52-2,.78C164,74.26,155.31,72.87,154,72.61V68.32a16.57,16.57,0,0,1,3-1.92C161.45,64,166.8,61,171.2,58.86a2,2,0,0,1-.71,2c-3,1.69-6,3.11-8.84,4.7-1.15.59-5.74,3.07-7.08,4.06-.09.07-.08.11,0,.07,4.56-2.32,12.65-5.91,17.09-8.77a1.12,1.12,0,0,1-.56,1.44,60.56,60.56,0,0,1-10.67,6c-1.23.56-4.45,2-5.72,2.75-.08,0,0,.07.1,0a60.08,60.08,0,0,0,15-7l2-1.38.25,1.62-1.09,1c-5.07,4.4-10.73,7.09-15.74,7.22H155c-.28,0-.21.07.14.1a22.93,22.93,0,0,0,7.1-.69l1.11-.31a31.86,31.86,0,0,0,8.09-3.76c.35-.25.7-.44,1.05-.71ZM186.45,82c-.28,0-9.45-11-14-15.69a32.85,32.85,0,0,1-9.53,4.93,48,48,0,0,0,9.6-6.56C176.23,68.9,187,81.27,187,81.55Zm.69-1.19c-3.69-4.65-14-16.06-14.5-16.68,0,0-.17-1-.32-1.79s-.24-1.9-.39-2.6c5,5.63,9.82,11.47,14.73,17.21l-.34.37s.77,3.37.78,3.54Zm.14-4.23-.89-1c1.16-.09,2.22-.19,3.06-.29-.13.12-1.36.87-2.23,1.38Zm-1.35-1.49-.73-.88a45.58,45.58,0,0,1,4.56-.24l.05.72a36.18,36.18,0,0,1-3.88.4ZM183.34,72c4.84-.32,9-.6,9.29-.46l.14.6-1.37.14v1l-6.59.37-13.39-15.8-6,3.27a25.7,25.7,0,0,0-5-3.79l.17-.16h10.84c2.92.05,5.87.12,8.83.12a14.13,14.13,0,0,1,2.83.19,8.59,8.59,0,0,1,3.27,2.38,34.67,34.67,0,0,1,2.92,3.14,22.83,22.83,0,0,1,4.3,7.85c-3.8.24-7.15.46-10.64.66Z"/></g></g></g></g><path class="cls-1" d="M128.08,216.29h.14c1,4,5.1,5,8,5s6.24-1.28,6.24-4.22c0-2.53-2.67-3.31-5.62-4-4-1-8.28-2.11-8.28-6.53s4.48-6.13,8.86-6.13a10.83,10.83,0,0,1,5.83,1.44,1.35,1.35,0,0,0,.78-.26h.28v4.79h-.12c-.4-3.54-4.72-4-6.69-4-2.83,0-5.38,1.12-5.38,3.55,0,1.79,3.57,2.66,5.2,3.1,4,1,8.68,2.51,8.68,7.65s-5.14,6.83-10.08,6.71a12.55,12.55,0,0,1-7.76-2.55l0-4.6Z"/><path class="cls-1" d="M113.43,223v.43h-7.21V223a2.27,2.27,0,0,0,1.8-2.52V202.65h-5.55c-2,0-2.81,1.5-3.31,2.95h-.4l.47-5.17h21l.48,5.17h-.36c-.5-1.45-1.26-2.95-3.31-2.95h-5.48v18a2.29,2.29,0,0,0,1.77,2.56l.07-.22Z"/><path class="cls-1" d="M160.59,200.47v.45c-1.14.44-1.75,1.05-1.75,2.86v16.86a2.1,2.1,0,0,0,1.75,2.38v.42H153.3V223a2.1,2.1,0,0,0,1.72-2.38V203.78c0-1.87-.57-2.38-1.72-2.86v-.45Z"/><path class="cls-1" d="M156.63,194.55a2.11,2.11,0,1,1-1.75,2.42c0-.1,0-.21,0-.31a1.83,1.83,0,0,1,1.6-1.86l.17-.25Z"/><path class="cls-1" d="M175.22,200.47v.45c-1.14.44-1.75,1.05-1.75,2.86v16.86a2.1,2.1,0,0,0,1.75,2.38v.42h-7.3V223a2.1,2.1,0,0,0,1.73-2.38V203.78c0-1.87-.57-2.38-1.73-2.86v-.45Z"/><path class="cls-1" d="M171.25,194.55a2.11,2.11,0,1,1-1.74,2.42,1.63,1.63,0,0,1,0-.31,1.85,1.85,0,0,1,1.6-1.86l.17-.25Z"/><polygon class="cls-1" points="214.24 211.05 197.23 211.05 197.23 210.37 213.55 210.37 213.55 185.96 60.42 185.96 60.42 210.37 76.75 210.37 76.75 211.05 59.74 211.05 59.74 185.28 214.24 185.28 214.24 211.05 214.24 211.05"/><path class="cls-1" d="M79.54,210.71a2.8,2.8,0,1,1-2.8-2.8,2.8,2.8,0,0,1,2.8,2.8Z"/><path class="cls-1" d="M194.46,210.71a2.8,2.8,0,1,0,2.8-2.8,2.81,2.81,0,0,0-2.8,2.8Z"/></g></g></svg>