<?xml version="1.0" encoding="utf-8"?>
<!-- Generator: Adobe Illustrator 24.3.0, SVG Export Plug-In . SVG Version: 6.00 Build 0)  -->
<svg version="1.1" id="Layer_1" xmlns="http://www.w3.org/2000/svg" xmlns:xlink="http://www.w3.org/1999/xlink" x="0px" y="0px"
	 viewBox="0 0 1100.3 255" style="enable-background:new 0 0 1100.3 255;" xml:space="preserve">
<style type="text/css">
	.st0{fill:#F4F6F9;}
	.st1{fill:#FFFFFF;}
	.st2{fill:#AFAFAF;}
	.st3{clip-path:url(#SVGID_2_);}
	.st4{clip-path:url(#SVGID_4_);}
	.st5{clip-path:url(#SVGID_6_);}
	.st6{clip-path:url(#SVGID_8_);}
	.st7{clip-path:url(#SVGID_10_);}
	.st8{clip-path:url(#SVGID_12_);}
	.st9{clip-path:url(#SVGID_14_);}
	.st10{clip-path:url(#SVGID_16_);}
	.st11{fill-rule:evenodd;clip-rule:evenodd;fill:#AFAFAF;}
</style>
<g id="Layer_2_1_">
	<g id="Layer_2-2">
		<path class="st2" d="M26.9,124.5l74.7-74.7l-30.2-30L91.3,0l82.5,82.5L154,102l-29.9-29.9L49.4,147L26.9,124.5z"/>
		<path class="st2" d="M124.5,108.3L49.8,183l-30-30L0,172.7L82.5,255l19.5-19.5l-29.7-29.9l74.7-74.7L124.5,108.3z"/>
		<path class="st2" d="M281.4,113.4H258v61.9h-22.3v-61.9h-23.5V93.8h69.3V113.4z"/>
		<path class="st2" d="M347.5,155.8v19.5h-58V93.7h57v19.5h-34.6v11.5h29.8v18.1h-29.6v12.9L347.5,155.8z"/>
		<path class="st2" d="M352.2,133.8c0-5,1-10,2.9-14.6c1.9-4.8,4.7-9.2,8.2-13c3.7-3.9,8.2-7.1,13.2-9.2c5.5-2.4,11.5-3.6,17.5-3.5
			c7.1-0.1,14.2,1.7,20.4,5.1c5.5,2.9,10,7.4,13,12.9l-17.1,12.1c-0.8-2.4-2.3-4.6-4.3-6.2c-1.8-1.4-3.9-2.5-6.1-3.1
			c-2.1-0.6-4.2-0.8-6.3-0.9c-2.9-0.1-5.7,0.6-8.3,1.9c-2.3,1.2-4.3,3-5.8,5.1c-1.5,2.1-2.6,4.4-3.3,6.9c-0.7,2.5-1.1,5-1.1,7.5
			c0,2.8,0.4,5.5,1.2,8.2c0.8,2.5,2.1,4.8,3.7,6.9c1.6,2,3.6,3.6,5.9,4.7c2.4,1.2,5.1,1.8,7.9,1.7c2.1,0,4.3-0.3,6.3-1
			c2.1-0.7,4.1-1.7,5.9-3.2c1.8-1.6,3.2-3.6,4-5.8l18.3,10.9c-1.7,4.1-4.5,7.6-8.1,10.2c-3.9,2.7-8.2,4.7-12.7,5.9
			c-4.6,1.5-9.3,2.2-14.1,2.2c-5.7,0.1-11.4-1.2-16.6-3.6c-4.9-2.3-9.3-5.6-13-9.6c-3.6-4-6.4-8.5-8.4-13.5
			C353.3,144.1,352.2,138.9,352.2,133.8z"/>
		<path class="st2" d="M508,93.8v81.6h-22.4v-32h-27.3v31.9h-22.3V93.7h22.3v30.1h27.3V93.8H508z"/>
		<path class="st2" d="M544.3,135.3v40h-22.4V93.7h17.4l32.7,41.4V93.8h22.3v81.6h-17.7L544.3,135.3z"/>
		<path class="st2" d="M645.1,175.8c-5.8,0.1-11.5-1.1-16.8-3.5c-4.9-2.2-9.3-5.3-13.1-9.2c-3.6-4-6.4-8.6-8.3-13.6
			c-1.9-4.9-2.9-10.1-2.9-15.3c0-5.3,1.1-10.5,3.1-15.3c2-4.9,5-9.3,8.6-13.2c3.8-3.9,8.2-7,13.2-9.1c5.3-2.2,10.9-3.4,16.7-3.3
			c5.8-0.1,11.6,1.1,16.9,3.5c4.9,2.2,9.3,5.4,13,9.4c3.5,3.9,6.4,8.4,8.3,13.4c1.9,4.9,2.9,10.1,2.9,15.3c0,5.2-1,10.4-3,15.3
			c-2.1,4.8-5,9.1-8.7,12.9c-3.7,3.9-8.2,7-13.2,9.2C656.6,174.7,650.9,175.9,645.1,175.8z M626.6,134.6c0,2.8,0.4,5.5,1.2,8.2
			c0.7,2.5,1.9,4.8,3.4,6.9c1.5,2,3.5,3.7,5.8,4.8c2.6,1.3,5.4,1.9,8.3,1.8c2.9,0.1,5.8-0.6,8.4-1.8c2.3-1.2,4.3-2.9,5.8-5.1
			c1.5-2.1,2.6-4.5,3.3-7c0.8-2.5,1.1-5.2,1.1-7.9c0-2.7-0.4-5.3-1.1-7.9c-0.8-2.5-1.9-4.8-3.5-6.8c-1.5-2-3.6-3.7-5.9-4.7
			c-2.6-1.2-5.4-1.8-8.3-1.7c-2.9-0.1-5.7,0.6-8.3,1.8c-2.3,1.2-4.2,3-5.8,5.1c-1.5,2.1-2.7,4.4-3.4,6.9
			C627,129.5,626.7,132,626.6,134.6z"/>
		<path class="st2" d="M696.2,175.3V93.7h22.3v62.1h36.9v19.5H696.2z"/>
		<path class="st2" d="M798.9,175.8c-5.8,0.1-11.5-1.1-16.8-3.5c-4.9-2.2-9.3-5.3-13-9.2c-3.6-3.9-6.5-8.4-8.4-13.3
			c-1.9-4.9-2.9-10.1-2.9-15.3c0-5.3,1.1-10.5,3.1-15.3c2-4.9,5-9.4,8.7-13.2c3.7-3.9,8.2-7,13.2-9.1c5.3-2.2,10.9-3.4,16.7-3.3
			c11.3-0.2,22.2,4.6,29.8,13c3.5,3.9,6.4,8.4,8.3,13.4c1.9,4.9,2.9,10.1,2.9,15.3c0,5.2-1,10.5-3,15.3c-2.1,4.7-5,9-8.6,12.6
			c-7.8,8.2-18.6,12.7-29.9,12.5V175.8z M780.3,134.6c0,2.7,0.4,5.4,1.2,8c0.7,2.5,1.9,4.8,3.4,6.9c1.5,2,3.5,3.7,5.8,4.8
			c2.6,1.3,5.4,1.9,8.3,1.8c2.9,0.1,5.8-0.6,8.4-1.8c2.3-1.2,4.3-3,5.8-5.1c1.5-2.1,2.6-4.5,3.3-7c0.7-2.6,1.1-5.2,1.1-7.9
			c0-2.7-0.4-5.3-1.1-7.9c-0.8-2.5-1.9-4.8-3.5-6.8c-1.5-2-3.5-3.6-5.8-4.7c-2.6-1.2-5.4-1.8-8.3-1.7c-2.9-0.1-5.7,0.6-8.3,1.8
			c-2.3,1.2-4.3,3-5.8,5.1c-1.5,2.1-2.7,4.4-3.4,6.9C780.7,129.4,780.3,132,780.3,134.6z"/>
		<path class="st2" d="M885.1,175.8c-5.2,0.1-10.4-0.9-15.3-2.8c-4.8-1.9-9.1-4.7-12.7-8.3c-3.7-3.8-6.7-8.2-8.7-13.2
			c-2.2-5.7-3.2-11.7-3.1-17.7c0-5.5,1-10.9,3.2-15.9c2.1-4.8,5.1-9.2,8.9-12.9c3.8-3.7,8.3-6.7,13.2-8.7c5.2-2.1,10.8-3.2,16.4-3.1
			c6.9-0.1,13.8,1.5,19.9,4.8c5.7,2.9,10.3,7.4,13.3,13l-16.6,12.7c-1.6-3.2-4.1-5.9-7.2-7.7c-3-1.9-6.6-3-10.2-3
			c-2.5,0-5.1,0.5-7.3,1.6c-2.2,1.1-4.2,2.6-5.8,4.4c-1.7,2-3,4.3-3.8,6.8c-0.9,2.8-1.4,5.7-1.3,8.7c0,3,0.4,5.9,1.4,8.7
			c0.8,2.5,2.1,4.7,3.8,6.7c1.6,1.9,3.6,3.4,5.9,4.4c2.4,1,5.1,1.6,7.7,1.5c3.6,0,7.1-0.9,10.2-2.7c3.4-1.9,6.5-4.5,8.9-7.6v21.8
			C900.3,172.8,892.9,175.8,885.1,175.8z M905.2,147.9h-15.3v-16h33.5v43.4h-18.5L905.2,147.9z"/>
		<path class="st2" d="M934.7,175.3V93.7H957v81.6H934.7z"/>
		<path class="st2" d="M1029,155.8v19.5h-58V93.7h57v19.5h-34.6v11.5h29.6v18.1h-29.6v12.9L1029,155.8z"/>
		<path class="st2" d="M1088.8,120.6c-2.3-1.4-4.7-2.6-7.1-3.7c-2.3-1-4.6-1.8-7-2.5c-2.4-0.8-4.9-1.2-7.4-1.2
			c-1.6-0.1-3.2,0.3-4.7,0.9c-1.2,0.5-1.9,1.8-1.8,3.1c0,1.3,0.7,2.6,1.8,3.3c1.6,1,3.3,1.7,5.1,2.2l8.1,2.5c4.5,1.3,8.9,3,13.1,5.1
			c3.4,1.8,6.3,4.4,8.5,7.5c2.2,3.7,3.2,8,3,12.2c0.2,4.2-0.8,8.4-2.7,12.2c-1.7,3.2-4.1,5.9-7.1,7.9c-3.1,2-6.6,3.5-10.2,4.3
			c-3.7,0.9-7.4,1.3-11.2,1.3c-4.1,0-8.2-0.4-12.2-1.2c-4.2-0.8-8.3-1.9-12.3-3.4c-3.8-1.3-7.4-3.1-10.9-5.1l9.6-19.6
			c2.7,1.6,5.5,3.1,8.4,4.5c2.7,1.2,5.5,2.2,8.4,3.1c3,0.9,6.2,1.4,9.4,1.4c1.8,0.1,3.5-0.2,5.1-0.9c0.9-0.5,1.4-1.4,1.4-2.4
			c-0.1-1.6-1-3.1-2.5-3.7c-2.1-1-4.3-1.9-6.6-2.5c-2.7-0.8-5.7-1.7-9-2.8c-4-1.3-7.8-3.1-11.4-5.3c-2.8-1.8-5.2-4.2-6.8-7.1
			c-1.5-3.2-2.3-6.7-2.1-10.2c-0.2-5.3,1.3-10.6,4.2-15c2.8-4,6.7-7.2,11.2-9.1c4.7-2.1,9.8-3.2,14.9-3.2c3.9,0,7.8,0.5,11.5,1.4
			c3.5,0.9,6.9,2.1,10.2,3.5c3.3,1.4,6.1,2.7,8.6,3.9L1088.8,120.6z"/>
	</g>
</g>
</svg>
