<?xml version="1.0" encoding="utf-8"?>
<!-- Generator: Adobe Illustrator 25.0.0, SVG Export Plug-In . SVG Version: 6.00 Build 0)  -->
<svg version="1.1" id="Layer_1" xmlns="http://www.w3.org/2000/svg" xmlns:xlink="http://www.w3.org/1999/xlink" x="0px" y="0px"
	 viewBox="0 0 125 45.29" style="enable-background:new 0 0 125 45.29;" xml:space="preserve">
<style type="text/css">
	.st0{fill:#AFAFAF;}
	.st1{fill:#FFFFFF;}
	.st2{fill:#D6E7B3;}
	.st3{fill:#D8E8B6;}
	.st4{fill:#E7F1D4;}
	.st5{fill:#D8E9B7;}
	.st6{fill:#ECF4DC;}
	.st7{fill:#F2F8E7;}
	.st8{fill:#9DC64A;}
	.st9{fill:#F2F7E7;}
	.st10{fill:#92C036;}
	.st11{fill:#EFF6E1;}
	.st12{fill:#F4F9EC;}
	.st13{fill:#E0EDC5;}
	.st14{fill:#E7F1D3;}
	.st15{fill:#F2F8E8;}
	.st16{fill:#DCEBC0;}
	.st17{fill:#9DC74B;}
	.st18{fill:#E1EEC9;}
	.st19{fill:#EFF6E2;}
	.st20{fill:#EEF5E0;}
	.st21{fill:#C2DC8F;}
	.st22{fill:#B1D26E;}
	.st23{fill:#EDF5DF;}
	.st24{fill:#C1DB8D;}
	.st25{fill:#EBF3DA;}
	.st26{fill:#C8DF9A;}
	.st27{fill:#D0E4A9;}
	.st28{fill:#B1D270;}
	.st29{fill:#BEDA87;}
	.st30{fill:#A0C84F;}
	.st31{fill:#D8E9B8;}
	.st32{fill:#E8F2D5;}
	.st33{fill:#DBEABD;}
</style>
<g>
	<path class="st0" d="M124.5,9.74c0,0.1,0,0.2,0,0.29c-0.04,0.04-0.02,0.09-0.02,0.14c0,0.04,0,0.08,0,0.11
		c-0.03,0.47-0.21,0.9-0.37,1.34c-0.17,0.46-0.34,0.92-0.51,1.38c-0.13,0.35-0.31,0.67-0.64,0.87c-0.21,0.13-0.42,0.21-0.67,0.21
		c-1.79-0.03-3.59-0.03-5.38-0.07c-1.06-0.02-2.13-0.04-3.19-0.02c-1.07,0.02-2.14,0.13-3.18,0.44c-0.83,0.25-1.61,0.62-2.24,1.24
		c-0.54,0.52-0.91,1.16-1.11,1.88c-0.94,3.31-1.9,6.61-2.84,9.92c-0.85,2.96-1.7,5.92-2.55,8.88c-0.21,0.72-0.68,1.1-1.43,1.1
		c-2.23,0.01-4.46,0-6.69,0c-0.12,0-0.25-0.02-0.37-0.04c-0.47-0.08-0.73-0.52-0.61-1.03c0.12-0.53,0.28-1.04,0.44-1.56
		c0.54-1.85,1.06-3.7,1.59-5.55c0.93-3.22,1.85-6.44,2.77-9.66c0.03-0.12,0.1-0.22,0.14-0.34c0,0,0.01-0.02,0.01-0.02
		s-0.01,0.02-0.01,0.02c-0.02,0.09-0.08,0.16-0.13,0.23c-0.77,0.94-1.68,1.72-2.7,2.37c-1.7,1.08-3.56,1.78-5.49,2.3
		c-1.82,0.49-3.67,0.78-5.53,1.01c-1.46,0.18-2.92,0.37-4.39,0.56c-1.74,0.22-3.48,0.45-5.21,0.67c-1.3,0.17-2.6,0.33-3.9,0.5
		c-0.33,0.04-0.39,0.12-0.39,0.44c-0.03,1.86,1.09,3.27,3,3.77c0.88,0.23,1.78,0.34,2.69,0.4c1.41,0.11,2.81,0.16,4.22,0.13
		c1.16-0.02,2.32-0.05,3.49-0.1c0.97-0.05,1.95-0.09,2.92-0.14c1.39-0.07,2.78-0.14,4.17-0.2c0.32-0.01,0.64-0.04,0.96-0.04
		c0.59,0.01,0.84,0.33,0.67,0.9c-0.22,0.75-0.46,1.49-0.69,2.23c-0.07,0.24-0.14,0.47-0.19,0.71c-0.15,0.72-0.57,1.23-1.21,1.59
		c-0.68,0.38-1.43,0.52-2.19,0.61c-1.46,0.16-2.92,0.19-4.38,0.21c-0.78,0.01-1.57-0.01-2.35,0.02c-0.51,0.02-1.02,0.01-1.52,0.02
		c-0.55,0-1.09,0-1.64,0c-0.68,0-1.36,0-2.04,0c-0.21,0-0.42,0-0.62,0c-1.71-0.02-3.42-0.07-5.1-0.44
		c-1.27-0.28-2.51-0.64-3.69-1.19c-1.3-0.62-2.42-1.47-3.31-2.61c-0.04-0.05-0.07-0.13-0.14-0.13c-0.09,0.01-0.07,0.12-0.09,0.18
		c-0.09,0.43-0.18,0.87-0.26,1.3c-0.21,1.12-0.87,1.84-1.94,2.2c-0.77,0.25-1.56,0.38-2.36,0.48c-1.35,0.16-2.71,0.15-4.07,0.18
		c-0.34,0.01-0.67,0.02-1.01,0.02c-0.25,0-0.49,0-0.74,0c-0.1,0-0.21,0-0.31,0c-0.13,0-0.27,0-0.4,0c-0.15,0-0.3,0-0.45,0
		c-0.48,0-0.97,0-1.45,0c-0.36,0-0.71,0-1.07,0c-0.23,0-0.45,0-0.68,0c-0.07,0-0.15,0-0.22,0c-0.11,0-0.23,0-0.34,0
		c-0.13,0-0.25,0-0.38,0c-2.02,0-3.99-0.27-5.91-0.93c-1.29-0.45-2.51-1.05-3.55-1.96c-0.97-0.85-1.7-1.87-2.16-3.09
		c-0.39-1.01-0.55-2.07-0.6-3.15c-0.01-0.17,0.05-0.34,0.06-0.51c-0.03,0.55-0.24,1.06-0.41,1.58c-0.5,1.57-0.99,3.14-1.48,4.71
		c-0.3,0.97-0.93,1.59-1.85,1.96c-0.9,0.36-1.85,0.5-2.8,0.65c-1.33,0.21-2.66,0.36-4,0.48c-1.08,0.09-2.17,0.18-3.26,0.2
		c-1.37,0.02-2.74,0.05-4.11,0.07c-0.37,0-0.73,0-1.1,0c-0.52,0-1.03,0-1.55,0c-0.24,0-0.48,0-0.72,0
		c-1.12-0.02-2.25-0.01-3.37-0.11c-2.03-0.19-4.03-0.53-5.93-1.32c-1.03-0.43-1.98-0.99-2.73-1.83c-0.68-0.76-1.14-1.62-1.15-2.67
		c0.01-0.15-0.03-0.3-0.02-0.45c0-0.16,0-0.31,0-0.47c0.01-0.18,0.04-0.36,0.02-0.55c0.04-1.29,0.49-2.45,1.17-3.53
		c0.94-1.48,2.26-2.53,3.76-3.38c2.09-1.17,4.35-1.85,6.67-2.36c1.75-0.39,3.53-0.61,5.31-0.84c1.79-0.23,3.59-0.5,5.37-0.78
		c1.95-0.3,3.9-0.62,5.85-0.94c0.73-0.12,1.2-0.52,1.37-1.26c0.09-0.39,0.17-0.78,0.11-1.19c-0.15-0.96-0.8-1.49-1.61-1.87
		c-0.88-0.42-1.83-0.58-2.78-0.69c-1.09-0.13-2.19-0.19-3.28-0.15c-1.01,0.04-2.01,0.06-3.02,0.12c-0.92,0.06-1.85,0.11-2.77,0.17
		c-0.95,0.06-1.91,0.14-2.86,0.22c-0.82,0.07-1.65,0.14-2.47,0.21c-0.62,0.06-1.24,0.11-1.86,0.18c-0.2,0.02-0.41,0.03-0.61,0.01
		c-0.47-0.05-0.68-0.36-0.55-0.81c0.28-0.93,0.54-1.86,0.88-2.76c0.4-1.11,1.27-1.71,2.35-2.05c0.73-0.23,1.5-0.28,2.25-0.36
		c1.5-0.16,3.01-0.19,4.51-0.21c1.05-0.01,2.09-0.04,3.14-0.04c0.32,0,0.64,0,0.95,0c0.26,0,0.53,0,0.79,0c0.92,0,1.84,0,2.76,0
		c0.15,0,0.29,0,0.44,0c1.98,0.01,3.94,0.13,5.86,0.64c1.29,0.34,2.53,0.79,3.64,1.56c1.51,1.04,2.42,2.45,2.62,4.3
		c0.08,0.73,0.04,1.45-0.06,2.18c-0.01,0.08-0.05,0.16-0.07,0.22c0.07-0.18,0.2-0.34,0.31-0.51c0.12-0.18,0.24-0.35,0.37-0.52
		c1.22-1.64,2.67-3.04,4.36-4.18c1.35-0.91,2.81-1.62,4.34-2.18c1.87-0.68,3.81-1.09,5.78-1.35c0.74-0.1,1.48-0.11,2.22-0.13
		c0.38-0.01,0.77-0.04,1.15-0.03c0.16,0,0.32,0,0.48,0c0.66,0,1.31,0,1.97,0c0.16,0,0.32,0,0.49,0c1.07,0.03,2.15,0.01,3.22,0.11
		c0.73,0.07,1.42,0.32,2.01,0.79c0.6,0.48,0.84,1.13,0.92,1.86c0.08,0.73,0.18,1.46,0.28,2.19c0.05,0.36,0.04,0.71-0.25,1.01
		c-0.21,0.22-0.45,0.29-0.73,0.26c-1.02-0.11-2.04-0.17-3.06-0.24c-1.61-0.11-3.22-0.17-4.84-0.13c-2.39,0.05-4.73,0.4-6.94,1.39
		c-0.98,0.44-1.87,1.02-2.68,1.73c-1.74,1.53-2.77,3.48-3.42,5.66c-0.3,1.02-0.57,2.05-0.72,3.11c-0.12,0.86-0.18,1.72-0.03,2.59
		c0.2,1.14,0.83,1.94,1.85,2.44c0.88,0.44,1.81,0.67,2.77,0.82c0.93,0.15,1.87,0.23,2.81,0.26c0.44,0.01,0.88,0.05,1.33,0.04
		c1.19-0.04,2.39-0.06,3.58-0.13c0.7-0.04,1.41-0.07,2.11-0.12c0.82-0.05,1.63-0.11,2.45-0.17c0.33-0.03,0.65-0.05,0.98-0.06
		c0.36-0.02,0.4-0.05,0.3-0.39c-0.35-1.2-0.47-2.43-0.39-3.67c0.08-1.4,0.34-2.78,0.73-4.13c0.43-1.48,0.95-2.93,1.65-4.31
		c1.06-2.11,2.43-3.98,4.18-5.57c1.14-1.03,2.4-1.9,3.76-2.62c2.53-1.33,5.23-2.08,8.04-2.48c1.06-0.15,2.13-0.2,3.2-0.22
		c0.24,0,0.47-0.04,0.71-0.02c0.15,0,0.29,0,0.44,0c0.72,0,1.44,0,2.16,0c0.16,0,0.32,0,0.48,0c1.06,0.03,2.13,0.01,3.19,0.11
		c2.1,0.2,4.18,0.56,6.12,1.44c1.1,0.5,2.06,1.18,2.75,2.2c0.5,0.74,0.71,1.56,0.75,2.43c0.01,0.19,0.01,0.38-0.01,0.59
		c0.61-1,1.37-1.85,2.22-2.62c0.79-0.73,1.68-1.33,2.63-1.85c2.14-1.16,4.45-1.78,6.84-2.11c0.9-0.12,1.8-0.15,2.7-0.17
		c0.37-0.01,0.74-0.04,1.1-0.03c0.57,0,1.14,0,1.7,0c0.29,0,0.58,0,0.87,0c1.23,0.02,2.46,0.02,3.68,0.05
		c0.69,0.02,1.38,0.1,2.03,0.35c0.26,0.1,0.49,0.26,0.7,0.45c0.24,0.23,0.41,0.48,0.43,0.82c0,0.04,0,0.08,0,0.12
		C124.48,9.65,124.46,9.7,124.5,9.74z"/>
	<path class="st1" d="M0.59,31.57c0.2,1.51,1,2.64,2.23,3.49c0.83,0.58,1.74,0.97,2.7,1.28c1.19,0.39,2.42,0.62,3.66,0.79
		c1.47,0.2,2.95,0.28,4.43,0.33c0.02,0,0.05,0.01,0.07,0.01c0.03,0.02,0.03,0.03,0,0.05c-4.39,0-8.78,0-13.18,0c0-2.05,0-4.1,0-6.14
		C0.64,31.39,0.53,31.52,0.59,31.57z"/>
	<path class="st1" d="M124.46,9.54c-0.14-0.53-0.49-0.87-0.95-1.13c-0.34-0.19-0.72-0.28-1.09-0.34c-0.97-0.17-1.95-0.19-2.93-0.21
		c-0.6-0.01-1.21-0.03-1.81-0.04c-0.03-0.01-0.03-0.03,0-0.05c2.28,0,4.56,0,6.84,0c0,0.59,0,1.18,0,1.77
		C124.48,9.58,124.47,9.58,124.46,9.54z"/>
	<path class="st2" d="M26.03,7.82c-0.5,0-0.99,0-1.49,0c-0.44,0-0.88,0-1.32-0.01c-0.04-0.01-0.04-0.03,0-0.04c0.93,0,1.87,0,2.8,0
		C26.06,7.79,26.06,7.81,26.03,7.82z"/>
	<path class="st3" d="M86.33,7.82c-0.74,0-1.48,0-2.22,0c-0.03-0.02-0.03-0.03,0-0.04c0.74,0,1.48,0,2.21,0
		C86.37,7.79,86.37,7.81,86.33,7.82z"/>
	<path class="st4" d="M75.76,37.47c0.69-0.02,1.38-0.01,2.07,0c0.03,0.01,0.03,0.03,0,0.04c-0.69,0-1.38,0-2.07,0
		C75.72,37.5,75.72,37.49,75.76,37.47z"/>
	<path class="st5" d="M59.43,7.82c-0.67,0-1.35,0-2.02,0c-0.03-0.02-0.03-0.03,0-0.04c0.67,0,1.34,0,2.02,0
		C59.46,7.79,59.46,7.8,59.43,7.82z"/>
	<path class="st6" d="M115.01,7.82c0-0.02,0-0.03,0-0.05c0.59,0,1.18,0,1.77,0c0.03,0.01,0.03,0.03,0,0.04
		C116.19,7.83,115.6,7.84,115.01,7.82z"/>
	<path class="st7" d="M77.82,37.52c0-0.01,0-0.03,0-0.04c0.56-0.01,1.11-0.02,1.67,0c0,0.02,0,0.03,0,0.05
		C78.94,37.52,78.38,37.52,77.82,37.52z"/>
	<path class="st4" d="M14.42,37.47c0.53-0.01,1.05-0.01,1.58,0c0.03,0.01,0.03,0.03,0,0.04c-0.52,0-1.05,0-1.57,0
		C14.38,37.5,14.38,37.49,14.42,37.47z"/>
	<path class="st8" d="M49.84,37.47c0.49,0,0.98,0,1.48,0c0.03,0.02,0.03,0.03,0,0.04c-0.49,0-0.98,0-1.48,0
		C49.8,37.5,49.8,37.48,49.84,37.47z"/>
	<path class="st9" d="M15.99,37.52c0-0.01,0-0.03,0-0.04c0.38-0.01,0.75-0.02,1.13,0c0,0.02,0,0.03,0,0.05
		C16.75,37.52,16.37,37.52,15.99,37.52z"/>
	<path class="st10" d="M49.84,37.47c0,0.02,0,0.03,0,0.05c-0.36,0-0.72,0-1.08,0c-0.03-0.01-0.04-0.03,0-0.05
		C49.11,37.47,49.47,37.47,49.84,37.47z"/>
	<path class="st11" d="M21.45,7.82c0-0.02,0-0.03,0-0.05c0.33,0,0.66,0,0.98,0c0.03,0.02,0.03,0.03,0,0.04
		C22.11,7.83,21.78,7.85,21.45,7.82z"/>
	<path class="st12" d="M116.78,7.82c0-0.01,0-0.03,0-0.04c0.3,0,0.59,0,0.89,0c0,0.02,0,0.03,0,0.05
		C117.37,7.84,117.07,7.84,116.78,7.82z"/>
	<path class="st13" d="M22.44,7.82c0-0.01,0-0.03,0-0.04c0.26,0,0.52,0,0.79,0c0,0.01,0,0.03,0,0.04
		C22.96,7.84,22.7,7.83,22.44,7.82z"/>
	<path class="st14" d="M53.23,37.47c0,0.01,0,0.03,0,0.04c-0.26,0-0.52,0-0.79,0c-0.03-0.02-0.03-0.03,0-0.04
		C52.71,37.47,52.97,37.45,53.23,37.47z"/>
	<path class="st15" d="M14.42,37.47c0,0.01,0,0.03,0,0.04c-0.25,0-0.49,0-0.74,0c0-0.02,0-0.03,0-0.05
		C13.93,37.45,14.17,37.46,14.42,37.47z"/>
	<path class="st16" d="M0.5,30.34c0.03-0.08,0.06-0.16,0.09-0.25c0.02,0.18-0.02,0.36-0.05,0.54c-0.01,0.03-0.03,0.04-0.05,0
		C0.5,30.54,0.5,30.44,0.5,30.34z"/>
	<path class="st17" d="M48.75,37.47c0,0.02,0,0.03,0,0.05c-0.23,0-0.46,0-0.69,0c-0.03-0.01-0.04-0.03,0-0.05
		C48.29,37.47,48.52,37.47,48.75,37.47z"/>
	<path class="st9" d="M75.76,37.47c0,0.01,0,0.03,0,0.04c-0.21,0-0.43,0-0.64,0c0-0.02,0-0.03,0-0.05
		C75.33,37.45,75.54,37.46,75.76,37.47z"/>
	<path class="st18" d="M0.59,31.57c-0.03-0.07-0.06-0.13-0.09-0.2c0-0.08,0-0.16,0-0.25c0.02-0.03,0.03-0.03,0.05,0
		C0.57,31.27,0.61,31.42,0.59,31.57z"/>
	<path class="st19" d="M57.41,7.78c0,0.01,0,0.03,0,0.04c-0.16,0.01-0.33,0.02-0.49,0c0-0.02,0-0.03,0-0.05
		C57.08,7.78,57.25,7.78,57.41,7.78z"/>
	<path class="st20" d="M59.43,7.82c0-0.01,0-0.03,0-0.04c0.16,0,0.33,0,0.49,0c0,0.02,0,0.03,0,0.05
		C59.75,7.84,59.59,7.83,59.43,7.82z"/>
	<path class="st21" d="M0.55,31.13c-0.02,0-0.03,0-0.05,0c0-0.16,0-0.33,0-0.49c0.02,0,0.03,0,0.05,0
		C0.57,30.8,0.57,30.96,0.55,31.13z"/>
	<path class="st11" d="M86.33,7.82c0-0.01,0-0.03,0-0.04c0.16,0,0.33,0,0.49,0c0,0.02,0,0.03,0,0.05
		C86.66,7.84,86.5,7.83,86.33,7.82z"/>
	<path class="st22" d="M51.31,37.52c0-0.01,0-0.03,0-0.04c0.15,0,0.29,0,0.44,0c0.01,0.01,0.02,0.02,0.03,0.02
		c-0.01,0.01-0.02,0.01-0.04,0.02C51.61,37.52,51.46,37.52,51.31,37.52z"/>
	<path class="st20" d="M26.03,7.82c0-0.01,0-0.03,0-0.04c0.15,0,0.3,0,0.44,0c0,0.02,0,0.03,0,0.05
		C26.32,7.84,26.18,7.83,26.03,7.82z"/>
	<path class="st23" d="M84.12,7.78c0,0.01,0,0.03,0,0.04c-0.15,0.01-0.29,0.02-0.44,0c0-0.02,0-0.03,0-0.05
		C83.82,7.78,83.97,7.78,84.12,7.78z"/>
	<path class="st24" d="M51.75,37.52c0-0.01,0-0.03,0-0.04c0.13,0,0.26,0,0.39,0c0.03,0.02,0.03,0.03,0,0.04
		C52.02,37.52,51.88,37.52,51.75,37.52z"/>
	<path class="st25" d="M47.13,37.52c0-0.01,0-0.03,0-0.04c0.13,0,0.26,0,0.39,0c0.04,0.01,0.04,0.02,0,0.04
		C47.39,37.52,47.26,37.52,47.13,37.52z"/>
	<path class="st26" d="M47.52,37.52c0-0.01,0-0.03,0-0.04c0.11-0.02,0.23-0.01,0.34,0c0.04,0.01,0.04,0.02,0,0.04
		C47.75,37.52,47.64,37.52,47.52,37.52z"/>
	<path class="st27" d="M52.15,37.52c0-0.01,0-0.03,0-0.04c0.1,0,0.2,0,0.3,0c0,0.01,0,0.03,0,0.04
		C52.34,37.52,52.24,37.52,52.15,37.52z"/>
	<path class="st28" d="M47.87,37.52c0-0.01,0-0.03,0-0.04c0.07,0,0.13,0,0.2-0.01c0,0.02,0,0.03,0,0.05
		C48,37.52,47.93,37.52,47.87,37.52z"/>
	<path class="st29" d="M124.46,10.14c-0.01-0.04,0-0.08,0.04-0.1c0,0.03,0,0.07,0,0.1C124.49,10.17,124.48,10.18,124.46,10.14z"/>
	<path class="st30" d="M124.5,9.74c-0.03-0.03-0.05-0.06-0.05-0.1c0.02-0.03,0.03-0.03,0.05,0C124.5,9.68,124.5,9.71,124.5,9.74z"/>
	<path class="st31" d="M124.5,9.65c-0.02,0-0.03,0-0.05,0c0-0.03,0-0.06,0-0.1c0.01,0,0.03,0,0.04,0
		C124.5,9.58,124.5,9.61,124.5,9.65z"/>
	<path class="st32" d="M124.46,10.14c0.01,0,0.03,0,0.04,0c0,0.03,0,0.07,0,0.1c-0.01,0-0.03,0-0.04,0
		C124.46,10.2,124.46,10.17,124.46,10.14z"/>
	<path class="st1" d="M28.19,23.39c-0.14,0.44-0.28,0.88-0.42,1.33c-0.72,2.28-1.43,4.56-2.14,6.84c-0.06,0.18-0.13,0.26-0.33,0.29
		c-0.66,0.08-1.32,0.16-1.98,0.21c-2.25,0.17-4.5,0.22-6.75,0.19c-1.48-0.02-2.95-0.11-4.39-0.43c-0.61-0.13-1.2-0.31-1.76-0.6
		c-0.23-0.12-0.44-0.25-0.64-0.41c-0.66-0.54-0.89-1.23-0.69-2.06c0.25-1.05,0.85-1.85,1.74-2.43c0.75-0.49,1.57-0.76,2.44-0.94
		c0.76-0.16,1.54-0.23,2.31-0.34c1.06-0.15,2.13-0.29,3.19-0.43c1.15-0.15,2.31-0.31,3.46-0.46c1.04-0.14,2.08-0.28,3.12-0.42
		c0.88-0.12,1.77-0.24,2.65-0.36C28.05,23.36,28.12,23.34,28.19,23.39z"/>
	<path class="st1" d="M70.95,22.14c-0.02-0.03-0.02-0.06-0.01-0.1c0.38-1.26,0.78-2.5,1.37-3.67c0.32-0.64,0.69-1.25,1.12-1.82
		c0.93-1.25,2.14-2.13,3.62-2.63c0.99-0.33,2.01-0.55,3.04-0.68c1.54-0.2,3.09-0.27,4.64-0.23c1.22,0.03,2.44,0.1,3.64,0.38
		c0.46,0.1,0.9,0.24,1.33,0.44c0.24,0.11,0.46,0.24,0.67,0.41c0.66,0.52,0.88,1.19,0.72,2.01c-0.14,0.67-0.48,1.21-0.97,1.67
		c-0.61,0.57-1.34,0.96-2.11,1.28c-1.08,0.45-2.2,0.74-3.34,0.97c-1.25,0.26-2.52,0.41-3.79,0.59c-1.33,0.19-2.66,0.38-3.99,0.57
		c-1.22,0.17-2.43,0.34-3.65,0.51c-0.72,0.1-1.44,0.2-2.17,0.31C71.03,22.15,70.99,22.17,70.95,22.14z"/>
	<path class="st33" d="M97.75,19.14c-0.02-0.02-0.04-0.04-0.06-0.06c0.01-0.04,0.04-0.1,0.07-0.08
		C97.83,19.04,97.79,19.1,97.75,19.14z"/>
</g>
</svg>
