<?xml version="1.0" encoding="utf-8"?>
<!-- Generator: Adobe Illustrator 25.0.0, SVG Export Plug-In . SVG Version: 6.00 Build 0)  -->
<svg version="1.1" id="Layer_1" xmlns="http://www.w3.org/2000/svg" xmlns:xlink="http://www.w3.org/1999/xlink" x="0px" y="0px"
	 viewBox="0 0 125 29.7" style="enable-background:new 0 0 125 29.7;" xml:space="preserve">
<style type="text/css">
	.st0{fill:#AFAFAF;}
</style>
<path class="st0" d="M124.5,2c0,0,0-0.1,0-0.2c0,0,0-0.1,0-0.1c0-0.3-0.2-0.6-0.4-0.8c-0.2-0.2-0.4-0.3-0.7-0.5
	c-0.6-0.2-1.3-0.3-2-0.3c-1.2,0-2.5,0-3.7,0c-0.3,0-0.6,0-0.9,0c-0.6,0-1.1,0-1.7,0c-0.4,0-0.7,0-1.1,0c-0.9,0-1.8,0-2.7,0.2
	c-2.4,0.3-4.7,1-6.8,2.1c-1,0.5-1.8,1.1-2.6,1.8c-0.8,0.8-1.6,1.6-2.2,2.6c0-0.2,0-0.4,0-0.6c0-0.9-0.2-1.7-0.8-2.4
	c-0.7-1-1.7-1.7-2.8-2.2c-1.9-0.9-4-1.2-6.1-1.4C88.9,0,87.8,0,86.8,0c-0.2,0-0.3,0-0.5,0c-0.7,0-1.4,0-2.2,0c-0.2,0-0.3,0-0.4,0
	c-0.2,0-0.5,0-0.7,0c-1.1,0-2.1,0.1-3.2,0.2c-2.8,0.4-5.5,1.1-8,2.5c-1.4,0.7-2.6,1.6-3.8,2.6c-1.8,1.6-3.1,3.5-4.2,5.6
	c-0.7,1.4-1.2,2.8-1.7,4.3c-0.4,1.3-0.6,2.7-0.7,4.1c-0.1,1.2,0,2.5,0.4,3.7c0.1,0.3,0.1,0.4-0.3,0.4c-0.3,0-0.6,0-1,0.1
	c-0.8,0.1-1.6,0.1-2.5,0.2c-0.7,0-1.4,0.1-2.1,0.1c-1.2,0.1-2.4,0.1-3.6,0.1c-0.5,0-0.9,0-1.3,0c-0.9,0-1.9-0.1-2.8-0.3
	c-1-0.2-1.9-0.4-2.8-0.8c-1-0.5-1.7-1.3-1.9-2.4c-0.1-0.9-0.1-1.7,0-2.6c0.2-1.1,0.4-2.1,0.7-3.1c0.7-2.2,1.7-4.1,3.4-5.7
	c0.8-0.7,1.7-1.3,2.7-1.7c2.2-1,4.5-1.3,6.9-1.4c1.6,0,3.2,0,4.8,0.1c1,0.1,2,0.1,3.1,0.2c0.3,0,0.5,0,0.7-0.3
	c0.3-0.3,0.3-0.7,0.2-1c-0.1-0.7-0.2-1.5-0.3-2.2C66,2,65.7,1.4,65.1,0.9c-0.6-0.5-1.3-0.7-2-0.8C62,0,61,0,59.9,0
	c-0.2,0-0.3,0-0.5,0c-0.7,0-1.3,0-2,0c-0.2,0-0.3,0-0.5,0c-0.4,0-0.8,0-1.2,0c-0.7,0-1.5,0-2.2,0.1c-2,0.3-3.9,0.7-5.8,1.3
	c-1.5,0.6-3,1.3-4.3,2.2c-1.7,1.1-3.1,2.5-4.4,4.2c-0.1,0.2-0.2,0.3-0.4,0.5c-0.1,0.2-0.2,0.3-0.3,0.5c0-0.1,0.1-0.1,0.1-0.2
	c0.1-0.7,0.1-1.4,0.1-2.2c-0.2-1.8-1.1-3.3-2.6-4.3c-1.1-0.8-2.3-1.2-3.6-1.6C30.4,0.1,28.4,0,26.4,0c-0.2,0-0.3,0-0.4,0
	c-0.9,0-1.8,0-2.8,0c-0.3,0-0.5,0-0.8,0c-0.3,0-0.6,0-1,0c-1,0-2.1,0-3.1,0c-1.5,0-3,0-4.5,0.2c-0.8,0.1-1.5,0.1-2.2,0.4
	c-1.1,0.3-1.9,0.9-2.3,2C8.9,3.6,8.6,4.5,8.4,5.4C8.2,5.9,8.4,6.2,8.9,6.2c0.2,0,0.4,0,0.6,0c0.6-0.1,1.2-0.1,1.9-0.2
	C12.2,6,13,5.9,13.8,5.8c1-0.1,1.9-0.2,2.9-0.2c0.9-0.1,1.8-0.1,2.8-0.2c1-0.1,2-0.1,3-0.1c1.1,0,2.2,0,3.3,0.2
	c1,0.1,1.9,0.3,2.8,0.7C29.4,6.6,30,7.1,30.2,8c0.1,0.4,0,0.8-0.1,1.2c-0.2,0.7-0.6,1.1-1.4,1.3c-2,0.3-3.9,0.6-5.9,0.9
	c-1.8,0.3-3.6,0.5-5.4,0.8c-1.8,0.2-3.6,0.5-5.3,0.8c-2.3,0.5-4.6,1.2-6.7,2.4c-1.5,0.8-2.8,1.9-3.8,3.4C1,19.9,0.6,21,0.6,22.3
	c0,0.2,0,0.4,0,0.6c0,0.2,0,0.3,0,0.5c0,0.2,0,0.3,0,0.5c0,1,0.5,1.9,1.2,2.7c0.8,0.8,1.7,1.4,2.7,1.8c1.9,0.8,3.9,1.1,5.9,1.3
	c1.1,0.1,2.2,0.1,3.4,0.1c0.2,0,0.5,0,0.7,0c0.5,0,1,0,1.5,0c0.4,0,0.7,0,1.1,0c1.4,0,2.7,0,4.1-0.1c1.1,0,2.2-0.1,3.3-0.2
	c1.3-0.1,2.7-0.3,4-0.5c1-0.2,1.9-0.3,2.8-0.7c0.9-0.4,1.6-1,1.9-2c0.5-1.6,1-3.1,1.5-4.7c0.1-0.4,0.3-0.8,0.4-1.2
	c0,0.1,0,0.1,0,0.2c0,1.1,0.2,2.1,0.6,3.2c0.5,1.2,1.2,2.2,2.2,3.1c1,0.9,2.3,1.5,3.6,2c1.9,0.7,3.9,0.9,5.9,0.9c0.1,0,0.2,0,0.4,0
	c0.1,0,0.2,0,0.3,0c0.1,0,0.2,0,0.2,0c0.2,0,0.5,0,0.7,0c0.4,0,0.7,0,1.1,0c0.5,0,1,0,1.5,0c0.1,0,0.3,0,0.5,0c0.1,0,0.3,0,0.4,0
	c0.1,0,0.2,0,0.3,0c0.2,0,0.5,0,0.7,0c0.3,0,0.7,0,1,0c1.4,0,2.7,0,4.1-0.2c0.8-0.1,1.6-0.2,2.4-0.5c1.1-0.4,1.7-1.1,1.9-2.2
	c0.1-0.4,0.2-0.9,0.3-1.3c0-0.1,0-0.2,0.1-0.2c0.1,0,0.1,0.1,0.1,0.1c0.9,1.1,2,2,3.3,2.6c1.2,0.5,2.4,0.9,3.7,1.2
	c1.7,0.4,3.4,0.4,5.1,0.4c0.2,0,0.4,0,0.6,0c0.7,0,1.4,0,2,0c0.6,0,1.1,0,1.6,0c0.5,0,1,0,1.5,0c0.8,0,1.6,0,2.3,0
	c1.5,0,2.9-0.1,4.4-0.2c0.8-0.1,1.5-0.2,2.2-0.6c0.6-0.4,1.1-0.9,1.2-1.6c0-0.2,0.1-0.5,0.2-0.7c0.2-0.7,0.5-1.5,0.7-2.2
	c0.2-0.6-0.1-0.9-0.7-0.9c-0.3,0-0.6,0-1,0c-1.4,0.1-2.8,0.1-4.2,0.2c-1,0-2,0.1-2.9,0.1c-1.2,0-2.3,0.1-3.5,0.1
	c-1.4,0-2.8,0-4.2-0.1c-0.9-0.1-1.8-0.2-2.7-0.4c-1.9-0.5-3-1.9-3-3.8c0-0.3,0.1-0.4,0.4-0.4c1.3-0.2,2.6-0.3,3.9-0.5
	c1.7-0.2,3.5-0.5,5.2-0.7c1.5-0.2,2.9-0.4,4.4-0.6c1.9-0.2,3.7-0.5,5.5-1c1.9-0.5,3.8-1.2,5.5-2.3c1-0.6,1.9-1.4,2.7-2.4
	c0-0.1,0.1-0.1,0.1-0.2c0,0.1-0.1,0.2-0.1,0.3c-0.9,3.2-1.8,6.4-2.8,9.7c-0.5,1.8-1,3.7-1.6,5.5c-0.2,0.5-0.3,1-0.4,1.6
	c-0.1,0.5,0.1,1,0.6,1c0.1,0,0.2,0,0.4,0c2.2,0,4.5,0,6.7,0c0.8,0,1.2-0.4,1.4-1.1c0.9-3,1.7-5.9,2.6-8.9c0.9-3.3,1.9-6.6,2.8-9.9
	c0.2-0.7,0.6-1.4,1.1-1.9c0.6-0.6,1.4-1,2.2-1.2c1-0.3,2.1-0.4,3.2-0.4c1.1,0,2.1,0,3.2,0c1.8,0,3.6,0,5.4,0.1
	c0.2,0,0.5-0.1,0.7-0.2c0.3-0.2,0.5-0.5,0.6-0.9c0.2-0.5,0.3-0.9,0.5-1.4c0.2-0.4,0.3-0.9,0.4-1.3c0,0,0-0.1,0-0.1c0,0,0-0.1,0-0.1
	C124.5,2.2,124.5,2.1,124.5,2z M27.8,17c-0.7,2.3-1.4,4.6-2.1,6.8c-0.1,0.2-0.1,0.3-0.3,0.3c-0.7,0.1-1.3,0.2-2,0.2
	c-2.2,0.2-4.5,0.2-6.8,0.2c-1.5,0-3-0.1-4.4-0.4c-0.6-0.1-1.2-0.3-1.8-0.6c-0.2-0.1-0.4-0.2-0.6-0.4c-0.7-0.5-0.9-1.2-0.7-2.1
	c0.2-1,0.8-1.8,1.7-2.4c0.8-0.5,1.6-0.8,2.4-0.9c0.8-0.2,1.5-0.2,2.3-0.3c1.1-0.2,2.1-0.3,3.2-0.4c1.1-0.2,2.3-0.3,3.5-0.5
	c1-0.1,2.1-0.3,3.1-0.4c0.9-0.1,1.8-0.2,2.7-0.4c0,0,0.1,0,0.2,0C28,16.1,27.9,16.5,27.8,17z M91.1,8.5c-0.1,0.7-0.5,1.2-1,1.7
	c-0.6,0.6-1.3,1-2.1,1.3c-1.1,0.5-2.2,0.7-3.3,1c-1.2,0.3-2.5,0.4-3.8,0.6c-1.3,0.2-2.7,0.4-4,0.6c-1.2,0.2-2.4,0.3-3.7,0.5
	c-0.7,0.1-1.4,0.2-2.2,0.3c0,0-0.1,0-0.1,0c0,0,0-0.1,0-0.1c0.4-1.3,0.8-2.5,1.4-3.7c0.3-0.6,0.7-1.2,1.1-1.8
	c0.9-1.2,2.1-2.1,3.6-2.6c1-0.3,2-0.5,3-0.7c1.5-0.2,3.1-0.3,4.6-0.2c1.2,0,2.4,0.1,3.6,0.4c0.5,0.1,0.9,0.2,1.3,0.4
	c0.2,0.1,0.5,0.2,0.7,0.4C91,7,91.2,7.7,91.1,8.5z"/>
</svg>
