<?xml version="1.0" encoding="utf-8"?>
<!-- Generator: Adobe Illustrator 25.0.0, SVG Export Plug-In . SVG Version: 6.00 Build 0)  -->
<svg version="1.1" id="Layer_1" xmlns="http://www.w3.org/2000/svg" xmlns:xlink="http://www.w3.org/1999/xlink" x="0px" y="0px"
	 viewBox="0 0 125 84.55" style="enable-background:new 0 0 125 84.55;" xml:space="preserve">
<style type="text/css">
	.st0{fill:#AFAFAF;}
</style>
<path class="st0" d="M125,26.93c0,1.43,0,2.86,0,4.29c-0.14,0.06-0.09,0.19-0.1,0.3c-0.22,2.11-0.63,4.17-1.33,6.17
	c-2.76,7.89-7.88,13.81-15.13,17.9c-4.56,2.57-9.48,3.87-14.75,3.76c-2.37-0.05-4.67-0.52-6.97-1.1c-3.82-0.97-7.37-2.51-10.67-4.65
	c-5.01-3.26-9.05-7.49-12.44-12.37c-0.5-0.73-0.98-1.47-1.5-2.24c-0.15,0.22-0.27,0.39-0.38,0.56c-2.77,4.21-5.92,8.12-9.59,11.59
	c-5.17,4.88-11.42,7.3-18.44,7.76c-7.02,0.46-13.61-1.07-19.68-4.64C7.43,50.37,3.01,44.76,0.76,37.44C0.45,36.42,0.3,35.36,0,34.34
	c0-2.8,0-5.59,0-8.39c0.16-0.33,0.15-0.69,0.22-1.04C1.49,18.7,4.37,13.34,8.8,8.81c3.98-4.06,8.69-6.87,14.27-8.15
	c3.93-0.9,7.9-0.74,11.85-0.31c5.72,0.63,10.84,2.83,15.47,6.21c4.22,3.08,7.7,6.88,10.8,11.05c0.42,0.57,0.84,1.14,1.27,1.74
	c0.45-0.63,0.87-1.23,1.29-1.82c3.71-5.14,8.01-9.68,13.43-13.09c4.56-2.87,9.47-4.53,14.91-4.43c2.08,0.04,4.16-0.09,6.23,0.27
	c7.45,1.31,13.9,4.54,19.11,10.05c3.98,4.21,6.46,9.18,7.31,14.94C124.82,25.83,124.79,26.4,125,26.93z M31.39,48.77
	c0.65-0.03,1.24-0.05,1.82-0.09c3.53-0.27,6.82-1.27,9.78-3.27c2.05-1.38,3.66-3.22,5.28-5.03c3.1-3.47,5.56-7.39,8.03-11.31
	c0.15-0.23,0.06-0.38-0.05-0.56c-0.89-1.38-1.79-2.75-2.75-4.08c-2.6-3.58-5.47-6.9-9.06-9.54c-3.17-2.33-6.67-3.87-10.6-4.38
	c-1.31-0.17-2.63-0.1-3.94-0.19c-2.59-0.19-5.07,0.21-7.42,1.25c-5.06,2.23-8.56,6.02-10.82,11c-1.38,3.06-2.03,6.29-1.54,9.64
	c0.6,4.16,2.45,7.72,5.54,10.57C20.1,46.88,25.49,48.61,31.39,48.77z M93.94,49.15c1.83-0.04,3.22-0.17,4.57-0.54
	c6.4-1.74,11.09-5.63,14.18-11.44c1.84-3.47,2.52-7.18,1.8-11.09c-0.82-4.42-3.17-7.91-6.62-10.71c-3.61-2.93-7.76-4.63-12.38-5.15
	c-4.2-0.48-8.21,0.14-11.91,2.28c-2.73,1.58-5.16,3.56-7.33,5.86c-2.96,3.14-5.37,6.68-7.69,10.3c-0.19,0.3-0.19,0.52-0.03,0.83
	c1.37,2.68,2.92,5.25,4.76,7.64c2.97,3.84,6.43,7.12,10.82,9.3C87.35,48.04,90.76,48.97,93.94,49.15z"/>
<path class="st0" d="M94.77,70.18c0,0.19,0,0.38,0,0.57c0,4.31-0.01,8.62,0.01,12.92c0,0.4-0.09,0.53-0.51,0.51
	c-0.88-0.03-1.76-0.03-2.64,0c-0.4,0.01-0.52-0.09-0.52-0.5c0.02-3.22,0.01-6.44,0.01-9.66s0.01-6.44-0.01-9.66
	c0-0.37,0.07-0.5,0.48-0.49c1.3,0.03,2.6,0.03,3.91,0c0.35-0.01,0.5,0.12,0.64,0.42c1.95,4.37,3.91,8.74,5.87,13.11
	c0.06,0.14,0.13,0.28,0.28,0.42c0.01-0.17,0.02-0.33,0.02-0.5c0-4.31,0.01-8.62,0-12.92c0-0.44,0.12-0.54,0.54-0.52
	c0.89,0.03,1.79,0.02,2.68,0c0.3-0.01,0.42,0.05,0.42,0.39c-0.01,6.5-0.01,13,0,19.51c0,0.32-0.09,0.41-0.41,0.4
	c-1.32-0.02-2.64-0.02-3.95,0c-0.37,0.01-0.5-0.14-0.63-0.44c-1.94-4.37-3.89-8.74-5.85-13.11c-0.07-0.16-0.15-0.31-0.22-0.47
	C94.85,70.17,94.81,70.18,94.77,70.18z"/>
<path class="st0" d="M37.99,74.01c0-3.2,0.01-6.4-0.01-9.6c0-0.4,0.06-0.55,0.52-0.55c2.16,0.04,4.33,0.01,6.49,0.04
	c2.38,0.04,4.53,0.7,6.16,2.54c1.32,1.49,1.91,3.3,2.16,5.23c0.27,2.14,0.08,4.25-0.5,6.32c-0.86,3.03-2.92,4.86-5.91,5.7
	c-1.18,0.33-2.4,0.44-3.62,0.46c-1.61,0.02-3.22-0.01-4.83,0.01c-0.37,0-0.46-0.09-0.46-0.46C37.99,80.47,37.99,77.24,37.99,74.01z
	 M41.97,73.94c0,2.14,0.01,4.29-0.01,6.43c0,0.31,0.07,0.43,0.4,0.41c0.6-0.03,1.2,0,1.8-0.03c2.32-0.14,3.83-1.24,4.5-3.38
	c0.8-2.56,0.67-5.12-0.29-7.63c-0.52-1.36-1.54-2.12-2.93-2.45c-0.99-0.23-2-0.16-3.01-0.18c-0.39-0.01-0.49,0.12-0.48,0.5
	C41.98,69.72,41.97,71.83,41.97,73.94z"/>
<path class="st0" d="M124.44,73.75c0,1.82-0.28,3.58-0.8,5.32c-0.92,3.03-3.07,4.67-6.04,5.29c-4.53,0.94-8.34-1.7-9.19-6.29
	c-0.52-2.82-0.63-5.65,0.19-8.45c0.71-2.42,2.01-4.41,4.38-5.5c2.01-0.92,4.06-0.75,6.15-0.18c2.55,0.69,3.83,2.53,4.6,4.86
	C124.26,70.41,124.46,72.06,124.44,73.75z M112.31,73.86c0,0.6-0.03,1.2,0.01,1.8c0.07,1.05,0.21,2.1,0.63,3.08
	c0.63,1.47,1.72,2.18,3.31,2.16c1.57-0.02,2.7-0.77,3.28-2.22c0.64-1.6,0.71-3.29,0.71-4.98c0-1.57-0.17-3.11-0.83-4.56
	c-0.8-1.77-2.22-2.43-4.12-1.95c-1.46,0.37-2.17,1.44-2.61,2.77C112.28,71.22,112.25,72.54,112.31,73.86z"/>
<path class="st0" d="M30.34,74.58c1.02,0.62,1.58,1.48,2.03,2.43c0.97,2.02,1.95,4.03,2.92,6.05c0.06,0.13,0.13,0.26,0.18,0.4
	c0.2,0.5,0.05,0.76-0.5,0.76c-1.02,0.01-2.05-0.06-3.07-0.01c-0.57,0.03-0.81-0.18-1.02-0.68c-0.85-2.07-1.79-4.1-2.71-6.14
	c-0.51-1.13-1.83-1.6-2.86-1.58c-0.37,0.01-0.3,0.26-0.31,0.48c-0.02,2.39-0.04,4.78-0.06,7.16c-0.01,0.73,0,0.73-0.75,0.73
	c-0.94,0-1.89-0.01-2.83,0.01c-0.28,0-0.4-0.04-0.39-0.37c0.01-6.52,0.01-13.03,0-19.55c0-0.29,0.07-0.39,0.38-0.39
	c2.72-0.01,5.43-0.09,8.14,0.2c2.15,0.23,3.75,1.28,4.54,3.32c0.76,1.97,0.53,3.86-0.84,5.54C32.48,73.82,31.51,74.3,30.34,74.58z
	 M24.97,69.92c0,0.81,0,1.62,0,2.43c0,0.16-0.02,0.33,0.23,0.33c1.2,0.01,2.41,0.03,3.54-0.48c1.09-0.5,1.56-1.38,1.45-2.7
	c-0.09-1.13-0.67-1.79-1.83-2.11c-1.04-0.28-2.1-0.19-3.15-0.21c-0.28-0.01-0.25,0.19-0.25,0.36
	C24.97,68.33,24.97,69.13,24.97,69.92z"/>
<path class="st0" d="M18.82,84.18c-1.35,0-2.7,0-4.05,0c-0.24,0-0.29-0.12-0.34-0.31c-0.3-1.11-0.63-2.22-0.92-3.33
	c-0.07-0.27-0.18-0.36-0.46-0.36c-2.07,0.01-4.13,0.01-6.2,0c-0.29,0-0.39,0.1-0.46,0.36c-0.3,1.08-0.62,2.15-0.91,3.23
	c-0.09,0.33-0.23,0.43-0.56,0.42c-1.01-0.03-2.02-0.03-3.03,0C1.46,84.2,1.41,84.1,1.53,83.7c1.89-6.32,3.76-12.65,5.64-18.98
	c0.25-0.83,0.25-0.83,1.13-0.83c1.4,0,2.8,0,4.2,0c0.23,0,0.38,0.03,0.46,0.3c1.96,6.63,3.92,13.25,5.89,19.87
	C18.84,84.07,18.84,84.09,18.82,84.18z M10.02,68.02c-0.06,0.13-0.1,0.2-0.12,0.27c-0.78,2.76-1.56,5.52-2.35,8.27
	c-0.08,0.3,0.01,0.37,0.29,0.36c1.19-0.01,2.37,0,3.56,0c1.11,0,1.11,0,0.81-1.09C11.48,73.25,10.76,70.66,10.02,68.02z"/>
<path class="st0" d="M70.77,71.48c-0.03,1.81,0.07,4.02-0.06,6.23c-0.22,3.7-2.89,6.46-6.59,6.85c-1.67,0.18-3.28-0.01-4.79-0.77
	c-2.14-1.07-3.21-2.82-3.38-5.2c-0.16-2.37-0.05-4.74-0.08-7.11c-0.03-2.4,0-4.81-0.01-7.21c0-0.35,0.07-0.48,0.45-0.47
	c1.02,0.03,2.05,0.03,3.07,0c0.39-0.01,0.48,0.11,0.48,0.49c0.01,4.5,0.04,9,0.05,13.5c0,1.32,0.45,2.41,1.66,3.02
	c1.31,0.67,2.65,0.6,3.9-0.18c0.89-0.55,1.08-1.51,1.22-2.45c0.22-1.44,0.08-2.89,0.09-4.33c0.02-3.18,0.02-6.37,0-9.55
	c0-0.41,0.11-0.51,0.51-0.5c1.01,0.03,2.02,0.03,3.03,0c0.37-0.01,0.46,0.11,0.46,0.46C70.76,66.53,70.77,68.81,70.77,71.48z"/>
<path class="st0" d="M82.71,73.9c0,2.13,0.01,4.26-0.01,6.39c0,0.42,0.12,0.5,0.52,0.5c1.15-0.03,2.31,0,3.46-0.02
	c0.35-0.01,0.49,0.06,0.48,0.45c-0.03,0.83-0.02,1.66,0,2.49c0,0.28-0.05,0.4-0.37,0.4c-4.07-0.01-8.13-0.01-12.2,0
	c-0.31,0-0.38-0.1-0.37-0.39c0.02-0.84,0.02-1.69,0-2.53c-0.01-0.32,0.08-0.41,0.4-0.41c1.2,0.02,2.41,0,3.61,0.01
	c0.33,0.01,0.44-0.07,0.44-0.43c-0.01-4.31-0.01-8.61,0-12.92c0-0.34-0.09-0.44-0.43-0.43c-1.2,0.02-2.41,0-3.61,0.01
	c-0.3,0-0.42-0.06-0.41-0.39c0.03-0.84,0.02-1.69,0-2.53c0-0.27,0.06-0.37,0.35-0.37c4.07,0.01,8.13,0.01,12.2,0
	c0.3,0,0.39,0.09,0.39,0.39c-0.02,0.84-0.02,1.69,0,2.53c0.01,0.32-0.11,0.37-0.4,0.37c-1.19-0.01-2.38,0.02-3.56-0.02
	c-0.42-0.01-0.5,0.12-0.5,0.51C82.72,69.65,82.71,71.78,82.71,73.9z"/>
<path class="st0" d="M121.35,4.07c0.16-0.51,0.34-1.01,0.47-1.53c0.11-0.45,0.44-0.27,0.7-0.29c0.34-0.02,0.22,0.26,0.22,0.42
	c0.01,0.73,0,1.46,0.01,2.19c0,0.22-0.05,0.32-0.3,0.32c-0.23,0-0.32-0.07-0.31-0.3c0.01-0.38,0-0.77-0.03-1.16
	c-0.24,0.35-0.3,0.76-0.43,1.15c-0.06,0.18-0.1,0.31-0.35,0.32c-0.24,0-0.34-0.1-0.4-0.31c-0.12-0.42-0.26-0.83-0.5-1.23
	c0,0.4-0.01,0.81,0,1.21c0,0.2-0.01,0.33-0.28,0.33c-0.26,0-0.33-0.09-0.33-0.34c0.01-0.75,0-1.49,0.01-2.24
	c0-0.14-0.08-0.38,0.19-0.35c0.25,0.03,0.6-0.19,0.73,0.24c0.16,0.52,0.33,1.04,0.49,1.56C121.29,4.06,121.32,4.07,121.35,4.07z"/>
<path class="st0" d="M118.5,2.25c0.31,0,0.62,0.01,0.92,0c0.2-0.01,0.3,0.04,0.29,0.27c0,0.21-0.05,0.36-0.29,0.32
	c-0.58-0.11-0.67,0.19-0.63,0.67c0.04,0.45,0,0.91,0.01,1.36c0.01,0.26-0.1,0.32-0.34,0.33c-0.28,0.01-0.32-0.11-0.31-0.34
	c0.01-0.47-0.02-0.94,0.01-1.41c0.04-0.45-0.05-0.72-0.58-0.61c-0.27,0.05-0.32-0.1-0.32-0.34c0-0.19,0.07-0.25,0.26-0.25
	C117.85,2.25,118.18,2.25,118.5,2.25z"/>
<path class="st0" d="M30.91,26.44c3.32,0,6.63,0.01,9.95-0.01c0.35,0,0.48,0.06,0.47,0.45c-0.03,1.15-0.02,2.31,0,3.46
	c0,0.32-0.05,0.45-0.42,0.45c-6.67-0.01-13.33-0.01-20,0c-0.37,0-0.42-0.14-0.42-0.45c0.02-1.15,0.02-2.31,0-3.46
	c-0.01-0.39,0.13-0.45,0.47-0.44C24.27,26.45,27.59,26.44,30.91,26.44z"/>
<path class="st0" d="M98.68,31.4c-0.86,0-1.73,0.02-2.59-0.01c-0.34-0.01-0.44,0.09-0.44,0.43c0.02,1.66,0,3.32,0.02,4.97
	c0,0.38-0.1,0.49-0.49,0.49c-1.53-0.02-3.06-0.03-4.59,0c-0.43,0.01-0.5-0.13-0.5-0.52c0.02-1.63-0.01-3.25,0.02-4.88
	c0.01-0.42-0.13-0.51-0.52-0.5c-1.58,0.02-3.16-0.01-4.74,0.02c-0.42,0.01-0.5-0.13-0.5-0.52c0.02-1.51,0.03-3.02,0-4.53
	c-0.01-0.46,0.14-0.52,0.55-0.52c1.56,0.02,3.13-0.01,4.69,0.02c0.45,0.01,0.53-0.14,0.53-0.55c-0.02-1.63,0-3.25-0.02-4.88
	c0-0.36,0.06-0.51,0.47-0.51c1.55,0.03,3.09,0.02,4.64,0c0.38-0.01,0.46,0.12,0.46,0.48c-0.02,1.63,0.01,3.25-0.02,4.88
	c-0.01,0.49,0.14,0.58,0.6,0.58c1.68-0.03,3.35,0,5.03-0.02c0.35,0,0.48,0.06,0.47,0.45c-0.02,1.56-0.02,3.12,0,4.68
	c0,0.34-0.09,0.45-0.44,0.44C100.44,31.38,99.56,31.4,98.68,31.4z"/>
</svg>
