<?xml version="1.0" encoding="utf-8"?>
<!-- Generator: Adobe Illustrator 25.0.0, SVG Export Plug-In . SVG Version: 6.00 Build 0)  -->
<svg version="1.1" id="Layer_1" xmlns="http://www.w3.org/2000/svg" xmlns:xlink="http://www.w3.org/1999/xlink" x="0px" y="0px"
	 viewBox="0 0 125 48" style="enable-background:new 0 0 125 48;" xml:space="preserve">
<style type="text/css">
	.st0{fill:#AFAFAF;}
	.st1{fill:#FFFFFF;}
</style>
<path class="st0" d="M45.84,35.21c0,0.26,0,0.5,0,0.73c-0.01,0.23-0.01,0.24-0.25,0.25c-0.07,0-0.14,0-0.22,0c-1.31,0-2.63,0-3.94,0
	c-0.06,0-0.12,0-0.18,0c-0.26-0.01-0.27-0.01-0.27-0.29c0-0.04,0-0.08,0-0.12c0-6.02,0-12.03,0-18.05c0-0.41-0.06-0.42,0.42-0.42
	c1.37,0,2.73,0,4.1,0c0.07,0,0.14,0,0.22,0c0.14,0,0.2,0.07,0.2,0.21c0,0.08,0,0.16,0,0.25c0,1.41,0,2.81,0,4.22
	c0,0.11,0,0.22,0,0.34c0.16,0.03,0.26-0.07,0.36-0.13c0.54-0.3,1.08-0.6,1.7-0.68c1.32-0.17,2.53,0.1,3.58,0.95
	c0.93,0.76,1.54,1.76,1.93,2.88c0.54,1.52,0.7,3.1,0.58,4.7c-0.07,0.88-0.23,1.75-0.52,2.59c-0.36,1.03-0.88,1.96-1.72,2.69
	c-0.79,0.68-1.7,1.09-2.74,1.1c-1.08,0.01-2.06-0.3-2.91-1C46.08,35.35,46.02,35.25,45.84,35.21z"/>
<path class="st0" d="M74.02,23.24c0.15-0.1,0.23-0.23,0.34-0.34c0.63-0.66,1.34-1.19,2.25-1.38c1.51-0.33,2.81,0.04,3.82,1.24
	c0.63,0.74,0.96,1.61,1.14,2.56c0.18,0.96,0.21,1.94,0.22,2.91c0.01,2.52,0,5.03,0.01,7.55c0,0.47-0.01,0.41-0.43,0.41
	c-1.35,0-2.71,0-4.06,0c-0.03,0-0.06,0-0.09,0c-0.34,0-0.34,0-0.34-0.34c0-1.45-0.01-2.9,0-4.34c0-1.02-0.02-2.03-0.05-3.05
	c-0.01-0.24-0.04-0.47-0.06-0.7c-0.04-0.36-0.22-0.67-0.46-0.92c-0.28-0.3-0.64-0.35-1.02-0.25c-0.57,0.15-0.95,0.54-1.24,1.04
	c-0.08,0.13-0.05,0.28-0.05,0.42c0,2.55,0,5.09,0,7.64c0,0.59,0.04,0.51-0.51,0.52c-1.31,0-2.63,0-3.94,0c-0.08,0-0.16,0-0.25,0
	c-0.21-0.01-0.22-0.02-0.23-0.24c0-0.06,0-0.12,0-0.18c0-4.56,0-9.12,0-13.67c0-0.49-0.01-0.43,0.44-0.43c1.34,0,2.69,0,4.03,0
	c0.05,0,0.1,0,0.15,0c0.25,0.01,0.26,0.01,0.27,0.26c0.01,0.36,0.02,0.72,0.03,1.08C73.97,23.07,73.97,23.14,74.02,23.24z"/>
<path class="st0" d="M65.94,30.71c0.09,0.06,0.1,0.16,0.14,0.24c0.41,1.06,0.83,2.12,1.24,3.18c0.1,0.26,0.1,0.26-0.12,0.42
	c-1.06,0.77-2.19,1.41-3.48,1.73c-1.22,0.3-2.44,0.36-3.65,0.02c-1.75-0.48-3.01-1.58-3.85-3.18c-0.52-1-0.78-2.07-0.88-3.18
	c-0.13-1.47,0.06-2.91,0.56-4.3c0.35-0.98,0.87-1.86,1.62-2.59c1.24-1.2,2.74-1.79,4.47-1.7c1.49,0.08,2.68,0.76,3.63,1.89
	c0.6,0.72,0.96,1.57,1.24,2.46c0.28,0.91,0.43,1.84,0.49,2.78c0.02,0.36,0.05,0.72,0.06,1.08c0.01,0.21-0.01,0.22-0.22,0.23
	c-0.09,0-0.18,0-0.28,0c-2.1,0-4.21,0-6.31,0c-0.41,0-0.43,0.01-0.32,0.41c0.29,0.98,0.95,1.59,1.93,1.85
	c0.76,0.2,1.49,0.07,2.18-0.28c0.46-0.23,0.87-0.54,1.27-0.87C65.74,30.84,65.82,30.74,65.94,30.71z"/>
<path class="st0" d="M46.79,43.67c-0.1,0.04-0.13,0.15-0.19,0.23c-0.43,0.65-0.86,1.3-1.29,1.95c-0.04,0.06-0.08,0.12-0.12,0.18
	c-0.08,0.12-0.14,0.09-0.21-0.01c-0.04-0.07-0.09-0.14-0.14-0.21c-0.42-0.64-0.84-1.29-1.27-1.93c-0.05-0.08-0.1-0.18-0.2-0.24
	c-0.07,0.12-0.04,0.23-0.04,0.34c0,1.1,0,2.2,0,3.29c0,0.05,0,0.1,0,0.15c-0.01,0.3-0.01,0.31-0.32,0.31c-0.67,0-1.33,0-2,0
	c-0.29,0-0.29-0.01-0.29-0.29c0-2.76,0-5.52,0-8.28c0-0.29,0.01-0.3,0.29-0.3c0.66,0,1.31,0.01,1.97,0c0.19,0,0.3,0.07,0.4,0.22
	c0.5,0.78,1.01,1.55,1.52,2.32c0.04,0.07,0.09,0.13,0.15,0.21c0.12-0.06,0.16-0.17,0.22-0.26c0.49-0.74,0.97-1.47,1.45-2.22
	c0.13-0.2,0.28-0.28,0.53-0.28c0.6,0.02,1.21,0,1.82,0.01c0.44,0,0.41-0.03,0.41,0.43c0,1.28,0,2.57,0,3.85c0,1.39,0,2.77,0,4.16
	c0,0.08,0,0.16,0,0.25c0.01,0.15-0.07,0.2-0.21,0.2c-0.29,0-0.57,0-0.86,0c-0.41,0-0.82,0-1.23,0c-0.33,0-0.33,0-0.33-0.32
	c0-0.94,0-1.89,0-2.83c0-0.25,0-0.49,0-0.74C46.84,43.78,46.86,43.71,46.79,43.67z"/>
<path class="st0" d="M77.78,44.72c-0.05,0.12-0.03,0.23-0.03,0.33c0,0.8,0,1.6,0,2.4c0,0.27-0.01,0.28-0.28,0.28
	c-0.75,0-1.5,0-2.25,0c-0.25,0-0.25-0.01-0.26-0.27c0-0.08,0-0.16,0-0.25c0-2.62,0-5.23,0-7.85c0-0.08,0-0.16,0-0.25
	c0.01-0.26,0.01-0.27,0.26-0.27c1.28,0,2.56,0,3.85,0.01c0.36,0,0.71,0.06,1.06,0.16c1.29,0.38,2.17,1.6,2.02,3.08
	c-0.08,0.81-0.42,1.47-1.08,1.96c-0.13,0.1-0.28,0.17-0.43,0.24c-0.13,0.05-0.14,0.13-0.06,0.24c0.04,0.06,0.08,0.12,0.12,0.18
	c0.58,0.89,1.15,1.77,1.73,2.66c0.06,0.09,0.14,0.18,0.16,0.29c-0.04,0.09-0.12,0.07-0.19,0.07c-0.9,0-1.81,0-2.71,0.01
	c-0.18,0-0.28-0.07-0.36-0.22c-0.45-0.84-0.91-1.68-1.36-2.52C77.92,44.91,77.89,44.81,77.78,44.72z"/>
<path class="st0" d="M62.44,42.32c0.12-0.07,0.17-0.17,0.23-0.26c0.68-0.99,1.37-1.97,2.05-2.96c0.12-0.17,0.24-0.25,0.45-0.24
	c0.85,0.01,1.7,0,2.56,0.01c0.07,0,0.14,0.01,0.21,0.01c0.04,0.12-0.05,0.18-0.1,0.24c-0.87,1.18-1.75,2.36-2.62,3.54
	c-0.25,0.34-0.24,0.24-0.02,0.61c0.83,1.38,1.67,2.75,2.51,4.13c0.06,0.09,0.14,0.18,0.14,0.3c-0.07,0.08-0.16,0.05-0.23,0.05
	c-0.89,0-1.79,0-2.68,0.01c-0.21,0-0.33-0.07-0.43-0.26c-0.62-1.15-1.25-2.29-1.88-3.43c-0.05-0.09-0.08-0.19-0.18-0.26
	c-0.06,0.12-0.04,0.24-0.04,0.34c0,1.03,0,2.05,0,3.08c0,0.07,0,0.14,0,0.22c-0.01,0.3-0.01,0.31-0.32,0.31c-0.72,0-1.44,0-2.16,0
	c-0.33,0-0.33,0-0.33-0.35c0-2.4,0-4.8,0-7.21c0-0.33,0-0.66,0-0.99c0-0.33,0-0.33,0.35-0.33c0.7,0,1.4,0,2.09,0
	c0.36,0,0.36,0,0.36,0.35c0,0.92,0,1.85,0,2.77C62.4,42.08,62.38,42.2,62.44,42.32z"/>
<path class="st0" d="M50.04,47.71c-0.04-0.12,0.02-0.21,0.06-0.3c1.05-2.77,2.11-5.54,3.16-8.31c0.13-0.33,0.09-0.3,0.44-0.3
	c0.71,0,1.42,0,2.12,0c0.3,0,0.3,0,0.39,0.27c0.92,2.78,1.84,5.57,2.76,8.35c0.01,0.03,0.02,0.06,0.03,0.09
	c0.05,0.19,0.04,0.22-0.16,0.22c-0.81,0-1.62,0-2.43,0c-0.15,0-0.22-0.06-0.26-0.2c-0.09-0.35-0.2-0.69-0.28-1.04
	c-0.04-0.16-0.12-0.24-0.3-0.24c-0.63,0.01-1.25,0.01-1.88,0c-0.19,0-0.27,0.09-0.32,0.25c-0.1,0.34-0.23,0.68-0.33,1.02
	c-0.04,0.14-0.12,0.2-0.26,0.2c-0.87,0-1.74,0-2.62,0C50.11,47.73,50.08,47.71,50.04,47.71z"/>
<path class="st0" d="M58.18,11.37c0.15,0,0.31,0.01,0.46,0c0.16-0.01,0.27,0.05,0.33,0.21c0.09,0.23,0.16,0.46,0.23,0.7
	c0.04,0.15-0.01,0.25-0.13,0.34c-0.24,0.16-0.46,0.34-0.7,0.5c-0.15,0.1-0.22,0.22-0.21,0.41c0.01,0.18,0,0.37-0.02,0.55
	c-0.02,0.14,0.03,0.24,0.13,0.32c0.23,0.19,0.45,0.39,0.69,0.57c0.16,0.12,0.22,0.25,0.13,0.45c-0.09,0.2-0.17,0.4-0.24,0.6
	c-0.07,0.18-0.2,0.24-0.39,0.22c-0.29-0.03-0.57-0.04-0.86-0.06c-0.17-0.01-0.3,0.03-0.4,0.17c-0.06,0.09-0.14,0.18-0.22,0.25
	c-0.23,0.18-0.3,0.39-0.21,0.67c0.07,0.23,0.09,0.48,0.14,0.72c0.04,0.17-0.01,0.28-0.16,0.35c-0.21,0.11-0.42,0.22-0.62,0.33
	c-0.16,0.09-0.28,0.07-0.41-0.06c-0.2-0.22-0.43-0.41-0.64-0.63c-0.12-0.12-0.25-0.18-0.41-0.12c-0.06,0.02-0.12,0.02-0.18,0.03
	c-0.65,0.07-0.48,0.01-0.79,0.53c-0.11,0.18-0.22,0.37-0.32,0.56c-0.06,0.1-0.14,0.15-0.25,0.13c-0.26-0.04-0.52-0.09-0.78-0.16
	c-0.18-0.05-0.25-0.16-0.26-0.33c-0.02-0.28-0.06-0.55-0.08-0.83c-0.01-0.19-0.08-0.33-0.26-0.42c-0.09-0.04-0.19-0.09-0.26-0.16
	c-0.19-0.18-0.39-0.17-0.62-0.06c-0.23,0.11-0.48,0.18-0.72,0.27c-0.16,0.06-0.27,0.04-0.38-0.09c-0.17-0.21-0.34-0.41-0.49-0.63
	c-0.08-0.12-0.08-0.22,0-0.34c0.18-0.25,0.34-0.51,0.52-0.77c0.1-0.14,0.1-0.26,0.07-0.43c-0.09-0.48-0.35-0.75-0.83-0.84
	c-0.17-0.03-0.33-0.12-0.49-0.17c-0.11-0.04-0.16-0.11-0.17-0.23c-0.01-0.29-0.01-0.57,0.01-0.86c0.01-0.14,0.09-0.22,0.22-0.26
	c0.3-0.08,0.59-0.18,0.89-0.25c0.16-0.04,0.28-0.12,0.32-0.29c0.01-0.06,0.03-0.12,0.06-0.17c0.2-0.3,0.13-0.57-0.07-0.84
	c-0.13-0.18-0.23-0.39-0.35-0.58c-0.08-0.12-0.08-0.22,0.01-0.33c0.17-0.22,0.35-0.43,0.55-0.62c0.1-0.1,0.2-0.12,0.33-0.06
	c0.28,0.13,0.57,0.24,0.84,0.37c0.15,0.07,0.29,0.08,0.43-0.03c0.05-0.04,0.1-0.08,0.16-0.09c0.37-0.11,0.5-0.38,0.52-0.74
	c0.01-0.21,0.07-0.43,0.1-0.64c0.02-0.14,0.09-0.22,0.23-0.25c0.26-0.05,0.52-0.1,0.79-0.12c0.15-0.01,0.25,0.05,0.31,0.19
	c0.13,0.27,0.27,0.53,0.39,0.8c0.07,0.16,0.17,0.25,0.35,0.25c0.11,0,0.23,0.02,0.33,0.06c0.27,0.11,0.47,0.01,0.66-0.17
	c0.18-0.18,0.39-0.33,0.58-0.5c0.11-0.09,0.21-0.11,0.33-0.04c0.24,0.13,0.46,0.27,0.68,0.41c0.12,0.08,0.14,0.18,0.11,0.32
	c-0.08,0.3-0.14,0.6-0.23,0.9c-0.05,0.16-0.02,0.3,0.11,0.42c0.09,0.08,0.18,0.18,0.23,0.28c0.13,0.26,0.34,0.33,0.61,0.3
	C57.99,11.36,58.09,11.37,58.18,11.37C58.18,11.37,58.18,11.37,58.18,11.37z"/>
<path class="st0" d="M74.52,10.64c0.17-0.01,0.35-0.01,0.52-0.03c0.13-0.01,0.22,0.04,0.26,0.16c0.09,0.24,0.19,0.48,0.28,0.72
	c0.06,0.14,0.03,0.25-0.1,0.35c-0.21,0.16-0.41,0.34-0.63,0.5c-0.19,0.14-0.3,0.3-0.25,0.54c0.02,0.11,0.02,0.23,0,0.34
	c-0.04,0.26,0.07,0.42,0.28,0.56c0.22,0.14,0.41,0.31,0.62,0.46c0.14,0.1,0.18,0.22,0.13,0.37c-0.06,0.18-0.11,0.35-0.18,0.53
	c-0.14,0.37-0.16,0.38-0.57,0.35c-0.24-0.01-0.47-0.01-0.71-0.03c-0.17-0.01-0.29,0.05-0.39,0.19c-0.1,0.15-0.22,0.29-0.35,0.43
	c-0.1,0.1-0.12,0.2-0.08,0.33c0.08,0.31,0.14,0.62,0.22,0.93c0.04,0.16-0.01,0.25-0.13,0.34c-0.21,0.14-0.44,0.27-0.66,0.39
	c-0.13,0.07-0.23,0.05-0.33-0.04c-0.24-0.21-0.49-0.41-0.72-0.63c-0.12-0.11-0.24-0.14-0.39-0.1c-0.16,0.04-0.32,0.07-0.48,0.09
	c-0.16,0.02-0.26,0.09-0.33,0.24c-0.13,0.27-0.27,0.53-0.4,0.8c-0.08,0.17-0.19,0.23-0.37,0.19c-0.22-0.04-0.44-0.08-0.67-0.11
	c-0.19-0.03-0.29-0.12-0.31-0.32c-0.04-0.31-0.1-0.61-0.14-0.91c-0.02-0.15-0.09-0.25-0.22-0.3c-0.06-0.02-0.12-0.05-0.16-0.09
	c-0.29-0.26-0.59-0.25-0.92-0.05c-0.18,0.1-0.38,0.16-0.56,0.25c-0.14,0.07-0.25,0.05-0.36-0.06c-0.18-0.19-0.35-0.4-0.52-0.61
	c-0.1-0.12-0.1-0.23-0.02-0.36c0.17-0.27,0.32-0.55,0.5-0.82c0.08-0.13,0.1-0.24,0.03-0.37c-0.04-0.07-0.08-0.15-0.09-0.23
	c-0.05-0.34-0.27-0.47-0.58-0.54c-0.22-0.05-0.43-0.13-0.65-0.19c-0.15-0.04-0.23-0.12-0.24-0.28c-0.03-0.29-0.02-0.57-0.01-0.86
	c0.01-0.14,0.09-0.19,0.21-0.23c0.29-0.1,0.58-0.2,0.87-0.3c0.16-0.05,0.27-0.14,0.3-0.31c0.01-0.07,0.03-0.14,0.07-0.2
	c0.16-0.28,0.11-0.51-0.09-0.76c-0.15-0.18-0.26-0.4-0.39-0.59c-0.1-0.14-0.11-0.25,0-0.39c0.15-0.2,0.3-0.39,0.46-0.58
	c0.12-0.15,0.25-0.18,0.43-0.1c0.26,0.12,0.54,0.21,0.8,0.32c0.15,0.06,0.29,0.08,0.43-0.04c0.04-0.03,0.08-0.07,0.13-0.08
	c0.35-0.14,0.52-0.39,0.51-0.77c0-0.22,0.06-0.45,0.08-0.67c0.01-0.13,0.08-0.2,0.21-0.23c0.26-0.07,0.52-0.12,0.78-0.16
	c0.16-0.02,0.25,0.03,0.32,0.16c0.13,0.26,0.28,0.5,0.41,0.76c0.09,0.19,0.22,0.28,0.43,0.28c0.15,0,0.31,0.03,0.45,0.07
	c0.14,0.03,0.23,0,0.33-0.1c0.23-0.22,0.47-0.43,0.69-0.65c0.12-0.12,0.24-0.14,0.38-0.06c0.18,0.1,0.36,0.19,0.54,0.3
	c0.28,0.17,0.28,0.19,0.22,0.49c-0.05,0.25-0.09,0.51-0.15,0.75c-0.04,0.19-0.03,0.34,0.14,0.47c0.05,0.04,0.1,0.08,0.13,0.13
	c0.2,0.35,0.49,0.46,0.88,0.38C74.44,10.63,74.48,10.64,74.52,10.64z"/>
<path class="st0" d="M68.38,43.25c0-1.3,0-2.61,0-3.91c0-0.07,0-0.14,0-0.22c0.01-0.27,0.01-0.27,0.28-0.27c1.66,0,3.32,0,4.98,0
	c0.28,0,0.28,0.01,0.28,0.27c0,0.51,0,1.03,0,1.54c0,0.25-0.01,0.26-0.27,0.26c-0.67,0-1.33,0-2,0c-0.08,0-0.16,0-0.25,0
	c-0.21,0.01-0.23,0.02-0.24,0.23c-0.01,0.25-0.01,0.49,0,0.74c0,0.27,0.01,0.28,0.28,0.28c0.64,0,1.27,0,1.91,0
	c0.07,0,0.14,0,0.22,0c0.12-0.01,0.2,0.04,0.2,0.17c0,0.59,0,1.19,0,1.78c0,0.18-0.12,0.18-0.25,0.18c-0.65,0-1.29,0-1.94,0
	c-0.08,0-0.16,0-0.25,0c-0.11,0-0.17,0.06-0.17,0.17c0,0.33,0,0.66,0,0.98c0,0.1,0.06,0.15,0.15,0.15c0.08,0,0.16,0,0.25,0
	c0.69,0,1.37,0,2.06,0c0.3,0,0.3,0,0.3,0.28c0,0.51,0,1.03,0,1.54c0,0.27-0.01,0.27-0.28,0.28c-0.02,0-0.04,0-0.06,0
	c-1.63,0-3.26,0-4.89,0c-0.32,0-0.33,0-0.33-0.32C68.38,46.02,68.38,44.64,68.38,43.25z"/>
<path class="st0" d="M66.38,4.75c0,0.08-0.04,0.14-0.08,0.2c-0.12,0.18-0.23,0.36-0.35,0.54c-0.09,0.13-0.1,0.26-0.04,0.41
	c0.1,0.25,0.17,0.51,0.21,0.77c0.02,0.17,0.11,0.27,0.26,0.34c0.18,0.08,0.35,0.18,0.52,0.26c0.15,0.07,0.22,0.17,0.21,0.33
	C67.1,7.91,67.06,8.2,67,8.49c-0.03,0.17-0.12,0.25-0.28,0.28c-0.2,0.04-0.4,0.09-0.6,0.13c-0.16,0.03-0.26,0.1-0.32,0.25
	c-0.11,0.26-0.25,0.5-0.42,0.72c-0.09,0.12-0.11,0.23-0.06,0.37c0.07,0.19,0.12,0.39,0.19,0.58c0.07,0.18,0.04,0.31-0.11,0.44
	c-0.23,0.19-0.46,0.37-0.71,0.54c-0.11,0.07-0.2,0.07-0.31,0c-0.2-0.13-0.4-0.25-0.59-0.38c-0.11-0.08-0.22-0.09-0.35-0.04
	c-0.27,0.11-0.55,0.18-0.83,0.22c-0.14,0.02-0.24,0.09-0.3,0.23c-0.09,0.2-0.2,0.38-0.29,0.58c-0.07,0.15-0.17,0.22-0.34,0.2
	c-0.3-0.03-0.59-0.06-0.88-0.12c-0.15-0.03-0.23-0.11-0.26-0.26c-0.04-0.22-0.1-0.44-0.14-0.66c-0.03-0.13-0.09-0.22-0.22-0.27
	c-0.26-0.11-0.51-0.26-0.75-0.43c-0.12-0.09-0.24-0.1-0.38-0.05c-0.21,0.08-0.43,0.14-0.64,0.21c-0.12,0.04-0.21,0.02-0.3-0.07
	c-0.23-0.24-0.42-0.5-0.6-0.78c-0.07-0.11-0.06-0.21,0.01-0.31c0.12-0.18,0.23-0.36,0.35-0.54c0.09-0.14,0.12-0.27,0.06-0.43
	c-0.1-0.25-0.17-0.51-0.21-0.77c-0.02-0.16-0.09-0.26-0.24-0.33c-0.2-0.09-0.4-0.21-0.6-0.3c-0.11-0.06-0.17-0.13-0.16-0.27
	c0.03-0.31,0.05-0.61,0.11-0.92c0.04-0.16,0.11-0.25,0.28-0.28c0.21-0.03,0.42-0.09,0.63-0.13c0.14-0.03,0.24-0.1,0.3-0.24
	c0.11-0.26,0.25-0.52,0.43-0.75c0.09-0.11,0.09-0.22,0.05-0.35c-0.07-0.21-0.13-0.43-0.21-0.64c-0.05-0.14-0.03-0.25,0.09-0.35
	c0.23-0.19,0.46-0.38,0.71-0.55c0.14-0.1,0.26-0.09,0.39,0.01c0.18,0.13,0.36,0.23,0.54,0.35c0.12,0.09,0.24,0.1,0.37,0.04
	c0.27-0.11,0.54-0.19,0.83-0.22c0.14-0.02,0.22-0.09,0.28-0.21c0.1-0.19,0.2-0.38,0.29-0.58c0.07-0.15,0.17-0.21,0.34-0.21
	c0.31,0.01,0.61,0.06,0.91,0.12c0.13,0.03,0.2,0.09,0.22,0.22c0.05,0.23,0.11,0.46,0.15,0.69c0.03,0.13,0.09,0.22,0.22,0.27
	c0.27,0.12,0.53,0.27,0.77,0.45c0.1,0.07,0.2,0.09,0.32,0.05c0.22-0.08,0.45-0.15,0.67-0.22c0.1-0.03,0.2-0.05,0.28,0.04
	c0.25,0.26,0.47,0.54,0.65,0.85C66.37,4.69,66.37,4.72,66.38,4.75z"/>
<path class="st0" d="M69.82,3.96c0.59,0.38,1.18,0.75,1.84,1.17c-0.75,0.24-1.41,0.46-2.12,0.69c0.05-0.24,0.25-0.35,0.3-0.55
	c-0.14-0.05-0.26,0-0.37,0.04c-0.48,0.17-0.81,0.5-0.98,0.99c-0.03,0.09-0.01,0.23-0.15,0.25c-0.14,0.02-0.29-0.01-0.42-0.06
	c-0.1-0.04-0.05-0.14-0.03-0.22C68,5.8,68.24,5.41,68.61,5.11c0.32-0.26,0.68-0.42,1.09-0.46c0.02,0,0.04,0,0.06-0.01
	c0.2-0.03,0.21-0.06,0.15-0.24c-0.05-0.13-0.1-0.26-0.15-0.4C69.78,3.99,69.8,3.98,69.82,3.96z"/>
<path class="st0" d="M52.37,6.77c0.17-0.14,0.38-0.14,0.53-0.29c-0.24-0.18-0.5-0.19-0.76-0.18c-0.37,0.02-0.69,0.17-0.97,0.42
	c-0.06,0.05-0.11,0.15-0.2,0.1c-0.14-0.07-0.27-0.15-0.35-0.29c-0.04-0.07,0.04-0.13,0.09-0.18c0.37-0.38,0.83-0.6,1.36-0.64
	c0.37-0.03,0.73,0.04,1.08,0.19c0.2,0.09,0.22,0.07,0.26-0.13c0.03-0.14,0.01-0.29,0.12-0.46c0.33,0.66,0.65,1.28,0.97,1.91
	C54.26,7.25,52.78,6.93,52.37,6.77z"/>
<path class="st0" d="M58,2.06c0.22,0.1,0.42,0.03,0.65,0.13c-0.64,0.38-1.23,0.74-1.83,1.09c-0.07-0.23,0.09-1.51,0.27-2.13
	c0.12,0.1,0.16,0.24,0.22,0.36c0.13,0.23,0.13,0.24,0.32,0.07c0.46-0.42,0.99-0.6,1.61-0.56c0.3,0.02,0.59,0.1,0.85,0.25
	c0.17,0.09,0.17,0.11,0.07,0.29c-0.03,0.04-0.06,0.08-0.09,0.13c-0.08,0.13-0.17,0.15-0.31,0.08c-0.32-0.16-0.67-0.2-1.02-0.12
	C58.46,1.71,58.22,1.83,58,2.06z"/>
<path class="st1" d="M45.91,28.93c0-0.52,0.01-1.05,0-1.57c-0.01-0.22,0.06-0.37,0.23-0.5c0.16-0.12,0.3-0.24,0.47-0.34
	c0.71-0.41,1.44-0.29,1.97,0.33c0.43,0.51,0.66,1.11,0.72,1.77c0.05,0.53-0.03,1.04-0.19,1.55c-0.1,0.31-0.26,0.58-0.48,0.82
	c-0.49,0.54-1.26,0.69-1.91,0.37c-0.06-0.03-0.13-0.07-0.19-0.1c-0.62-0.38-0.62-0.38-0.62-1.1C45.91,29.75,45.91,29.34,45.91,28.93
	z"/>
<path class="st1" d="M61.49,27.44c-0.36,0-0.72,0-1.08,0c-0.15,0-0.24-0.04-0.24-0.2c0-0.6,0.13-1.16,0.53-1.63
	c0.27-0.32,0.61-0.47,1.04-0.37c0.29,0.06,0.5,0.24,0.66,0.47c0.3,0.45,0.42,0.95,0.44,1.48c0.01,0.16-0.06,0.22-0.22,0.22
	c-0.38,0-0.76,0-1.14,0C61.49,27.42,61.49,27.43,61.49,27.44z"/>
<path class="st1" d="M77.76,41.87c0-0.25,0-0.49,0-0.74c0-0.14,0.06-0.2,0.2-0.2c0.27,0.01,0.53,0,0.79,0.06
	c0.25,0.06,0.42,0.2,0.53,0.43c0.12,0.26,0.16,0.52,0.09,0.81c-0.11,0.4-0.35,0.6-0.76,0.63c-0.21,0.02-0.43,0.01-0.64,0.02
	c-0.14,0-0.21-0.06-0.2-0.2c0-0.02,0-0.04,0-0.06C77.76,42.36,77.76,42.12,77.76,41.87C77.76,41.87,77.76,41.87,77.76,41.87z"/>
<path class="st1" d="M54.69,42.2c0.05,0.03,0.06,0.08,0.07,0.13c0.14,0.6,0.29,1.2,0.43,1.8c0.05,0.23,0.03,0.26-0.19,0.26
	c-0.25,0.01-0.49,0-0.74,0c-0.1,0-0.15-0.04-0.13-0.15C54.14,44.11,54.63,42.33,54.69,42.2z"/>
<path class="st1" d="M50.76,13.65c-0.04-1.51,1.18-3.11,3.11-3.11c1.76,0,3.1,1.4,3.11,3.13c0,1.7-1.4,3.09-3.11,3.1
	C52.16,16.78,50.76,15.38,50.76,13.65z"/>
<path class="st1" d="M70.34,10.01c1.72,0,3.11,1.4,3.1,3.12c0,1.71-1.41,3.11-3.13,3.1c-1.7-0.01-3.09-1.41-3.09-3.11
	C67.22,11.4,68.61,10.01,70.34,10.01z"/>
<path class="st1" d="M61.93,4.4c1.41-0.03,2.99,1.09,2.98,3.01c-0.01,1.85-1.52,2.99-3.01,2.98c-1.65-0.01-2.99-1.37-2.99-3.02
	C58.92,5.72,60.27,4.39,61.93,4.4z"/>
<path class="st0" d="M69.01,13.18c0-0.5,0-1,0-1.51c0-0.31,0.07-0.39,0.37-0.41c0.45-0.03,0.9-0.08,1.35-0.02
	c0.85,0.12,1.28,0.77,1.03,1.6c-0.06,0.21-0.18,0.39-0.37,0.51c-0.25,0.16-0.2,0.19-0.08,0.42c0.18,0.33,0.36,0.67,0.54,1
	c0.12,0.23,0.09,0.27-0.15,0.28c-0.64,0.04-0.64,0.04-0.94-0.54c-0.12-0.23-0.24-0.45-0.36-0.68c-0.05-0.09-0.1-0.17-0.23-0.18
	c-0.22-0.02-0.28,0.02-0.29,0.24c-0.01,0.3,0,0.59-0.01,0.89c-0.01,0.21-0.04,0.25-0.25,0.26c-0.72,0.02-0.61-0.01-0.61-0.55
	C69.01,14.06,69.01,13.62,69.01,13.18C69.01,13.18,69.01,13.18,69.01,13.18z"/>
<path class="st1" d="M69.88,12.45c0-0.49,0.12-0.58,0.64-0.47c0.34,0.07,0.49,0.3,0.4,0.63c-0.04,0.15-0.13,0.25-0.28,0.3
	c-0.18,0.05-0.36,0.06-0.55,0.06c-0.15-0.01-0.22-0.09-0.22-0.24C69.88,12.63,69.88,12.54,69.88,12.45z"/>
</svg>
