<?xml version="1.0" encoding="utf-8"?>
<!-- Generator: Adobe Illustrator 25.0.0, SVG Export Plug-In . SVG Version: 6.00 Build 0)  -->
<svg version="1.1" id="Layer_1" xmlns="http://www.w3.org/2000/svg" xmlns:xlink="http://www.w3.org/1999/xlink" x="0px" y="0px"
	 viewBox="0 0 125 75" style="enable-background:new 0 0 125 75;" xml:space="preserve">
<style type="text/css">
	.st0{fill:#AFAFAF;}
</style>
<g>
	<path class="st0" d="M82.3,35.7c0.2-0.2,0.4-0.4,0.5-0.5c1-1.1,2.2-1.9,3.6-2.2c2.4-0.5,4.5,0.1,6.1,2c1,1.2,1.5,2.6,1.8,4.1
		c0.3,1.5,0.3,3.1,0.4,4.7c0,4,0,8.1,0,12.1c0,0.8,0,0.7-0.7,0.7c-2.2,0-4.4,0-6.5,0c0,0-0.1,0-0.1,0c-0.5,0-0.5,0-0.5-0.5
		c0-2.3,0-4.7,0-7c0-1.6,0-3.3-0.1-4.9c0-0.4-0.1-0.8-0.1-1.1c-0.1-0.6-0.4-1.1-0.7-1.5c-0.4-0.5-1-0.6-1.6-0.4
		c-0.9,0.2-1.5,0.9-2,1.7c-0.1,0.2-0.1,0.4-0.1,0.7c0,4.1,0,8.2,0,12.3c0,0.9,0.1,0.8-0.8,0.8c-2.1,0-4.2,0-6.3,0
		c-0.1,0-0.3,0-0.4,0c-0.3,0-0.4,0-0.4-0.4c0-0.1,0-0.2,0-0.3c0-7.3,0-14.6,0-21.9c0-0.8,0-0.7,0.7-0.7c2.2,0,4.3,0,6.5,0
		c0.1,0,0.2,0,0.2,0c0.4,0,0.4,0,0.4,0.4c0,0.6,0,1.2,0,1.7C82.3,35.4,82.3,35.5,82.3,35.7z"/>
	<path class="st0" d="M38.6,68.5c-0.2,0.1-0.2,0.2-0.3,0.4c-0.7,1-1.4,2.1-2.1,3.1c-0.1,0.1-0.1,0.2-0.2,0.3c-0.1,0.2-0.2,0.1-0.3,0
		c-0.1-0.1-0.1-0.2-0.2-0.3c-0.7-1-1.3-2.1-2-3.1c-0.1-0.1-0.2-0.3-0.3-0.4c-0.1,0.2-0.1,0.4-0.1,0.5c0,1.8,0,3.5,0,5.3
		c0,0.1,0,0.2,0,0.2c0,0.5,0,0.5-0.5,0.5c-1.1,0-2.1,0-3.2,0c-0.5,0-0.5,0-0.5-0.5c0-4.4,0-8.9,0-13.3c0-0.5,0-0.5,0.5-0.5
		c1.1,0,2.1,0,3.2,0c0.3,0,0.5,0.1,0.6,0.4c0.8,1.3,1.6,2.5,2.4,3.7c0.1,0.1,0.1,0.2,0.2,0.3c0.2-0.1,0.3-0.3,0.4-0.4
		c0.8-1.2,1.6-2.4,2.3-3.6c0.2-0.3,0.4-0.4,0.9-0.4c1,0,1.9,0,2.9,0c0.7,0,0.7,0,0.7,0.7c0,2.1,0,4.1,0,6.2c0,2.2,0,4.4,0,6.7
		c0,0.1,0,0.3,0,0.4c0,0.2-0.1,0.3-0.3,0.3c-0.5,0-0.9,0-1.4,0c-0.7,0-1.3,0-2,0c-0.5,0-0.5,0-0.5-0.5c0-1.5,0-3,0-4.5
		c0-0.4,0-0.8,0-1.2C38.7,68.7,38.7,68.5,38.6,68.5z"/>
	<path class="st0" d="M63.8,66.3c0.2-0.1,0.3-0.3,0.4-0.4c1.1-1.6,2.2-3.2,3.3-4.8c0.2-0.3,0.4-0.4,0.7-0.4c1.4,0,2.7,0,4.1,0
		c0.1,0,0.2,0,0.3,0c0.1,0.2-0.1,0.3-0.2,0.4c-1.4,1.9-2.8,3.8-4.2,5.7c-0.4,0.5-0.4,0.4,0,1c1.3,2.2,2.7,4.4,4,6.6
		c0.1,0.1,0.2,0.3,0.2,0.5c-0.1,0.1-0.3,0.1-0.4,0.1c-1.4,0-2.9,0-4.3,0c-0.3,0-0.5-0.1-0.7-0.4c-1-1.8-2-3.7-3-5.5
		c-0.1-0.1-0.1-0.3-0.3-0.4c-0.1,0.2-0.1,0.4-0.1,0.5c0,1.7,0,3.3,0,4.9c0,0.1,0,0.2,0,0.4c0,0.5,0,0.5-0.5,0.5c-1.2,0-2.3,0-3.5,0
		c-0.5,0-0.5,0-0.5-0.6c0-3.9,0-7.7,0-11.6c0-0.5,0-1.1,0-1.6s0-0.5,0.6-0.5c1.1,0,2.2,0,3.4,0c0.6,0,0.6,0,0.6,0.6c0,1.5,0,3,0,4.4
		C63.7,65.9,63.7,66.1,63.8,66.3z"/>
	<path class="st0" d="M73.3,67.8c0-2.1,0-4.2,0-6.3c0-0.1,0-0.2,0-0.4c0-0.4,0-0.4,0.4-0.4c2.7,0,5.3,0,8,0c0.4,0,0.4,0,0.4,0.4
		c0,0.8,0,1.7,0,2.5c0,0.4,0,0.4-0.4,0.4c-1.1,0-2.1,0-3.2,0c-0.1,0-0.3,0-0.4,0c-0.3,0-0.4,0-0.4,0.4c0,0.4,0,0.8,0,1.2
		c0,0.4,0,0.4,0.4,0.4c1,0,2,0,3.1,0c0.1,0,0.2,0,0.4,0c0.2,0,0.3,0.1,0.3,0.3c0,0.9,0,1.9,0,2.9c0,0.3-0.2,0.3-0.4,0.3
		c-1,0-2.1,0-3.1,0c-0.1,0-0.3,0-0.4,0c-0.2,0-0.3,0.1-0.3,0.3c0,0.5,0,1.1,0,1.6c0,0.2,0.1,0.2,0.2,0.2c0.1,0,0.3,0,0.4,0
		c1.1,0,2.2,0,3.3,0c0.5,0,0.5,0,0.5,0.4c0,0.8,0,1.7,0,2.5c0,0.4,0,0.4-0.4,0.4c0,0-0.1,0-0.1,0c-2.6,0-5.2,0-7.8,0
		c-0.5,0-0.5,0-0.5-0.5C73.3,72.2,73.3,70,73.3,67.8z"/>
	<path class="st0" d="M75.6,4.7c0.9,0.6,1.9,1.2,3,1.9c-1.2,0.4-2.3,0.7-3.4,1.1c0.1-0.4,0.4-0.6,0.5-0.9c-0.2-0.1-0.4,0-0.6,0.1
		c-0.8,0.3-1.3,0.8-1.6,1.6c0,0.1,0,0.4-0.2,0.4s-0.5,0-0.7-0.1c-0.2-0.1-0.1-0.2,0-0.4c0.2-0.8,0.6-1.4,1.2-1.9
		c0.5-0.4,1.1-0.7,1.7-0.7c0,0,0.1,0,0.1,0c0.3,0,0.3-0.1,0.2-0.4C75.7,5.2,75.6,5,75.6,4.7C75.5,4.8,75.6,4.8,75.6,4.7z"/>
	<path class="st0" d="M47.6,9.2C47.9,9,48.2,9,48.4,8.8c-0.4-0.3-0.8-0.3-1.2-0.3c-0.6,0-1.1,0.3-1.6,0.7c-0.1,0.1-0.2,0.2-0.3,0.2
		c-0.2-0.1-0.4-0.2-0.6-0.5c-0.1-0.1,0.1-0.2,0.1-0.3c0.6-0.6,1.3-1,2.2-1c0.6,0,1.2,0.1,1.7,0.3C49.2,8,49.2,8,49.3,7.6
		c0-0.2,0-0.5,0.2-0.7C50,8,50.5,9,51,10C50.6,10,48.3,9.5,47.6,9.2z"/>
	<path class="st0" d="M56.6,1.7c0.4,0.2,0.7,0,1,0.2c-1,0.6-2,1.2-2.9,1.7c-0.1-0.4,0.1-2.4,0.4-3.4c0.2,0.2,0.3,0.4,0.4,0.6
		c0.2,0.4,0.2,0.4,0.5,0.1c0.7-0.7,1.6-1,2.6-0.9c0.5,0,0.9,0.2,1.4,0.4c0.3,0.1,0.3,0.2,0.1,0.5C60.1,0.9,60,1,60,1.1
		c-0.1,0.2-0.3,0.2-0.5,0.1C58.9,1,58.4,0.9,57.8,1C57.4,1.1,57,1.3,56.6,1.7z"/>
	<path class="st0" d="M49.4,39.1c-0.6-1.8-1.6-3.4-3.1-4.6c-1.7-1.4-3.6-1.8-5.7-1.5c-1,0.1-1.9,0.6-2.7,1.1
		c-0.2,0.1-0.3,0.3-0.6,0.2c0-0.2,0-0.4,0-0.5c0-2.3,0-4.5,0-6.8c0-0.1,0-0.3,0-0.4c0-0.2-0.1-0.3-0.3-0.3c-0.1,0-0.2,0-0.4,0
		c-2.2,0-4.4,0-6.6,0c-0.8,0-0.7,0-0.7,0.7c0,9.7,0,19.3,0,29c0,0.1,0,0.1,0,0.2c0,0.4,0,0.4,0.4,0.5c0.1,0,0.2,0,0.3,0
		c2.1,0,4.2,0,6.3,0c0.1,0,0.2,0,0.4,0c0.4,0,0.4,0,0.4-0.4c0-0.4,0-0.8,0-1.2c0.3,0.1,0.4,0.2,0.5,0.4c1.4,1.1,2.9,1.6,4.7,1.6
		c1.7,0,3.1-0.7,4.4-1.8c1.3-1.2,2.2-2.7,2.8-4.3c0.5-1.3,0.7-2.7,0.8-4.2C50.5,44,50.3,41.5,49.4,39.1z M42.4,46.8
		c-0.2,0.5-0.4,0.9-0.8,1.3c-0.8,0.9-2,1.1-3.1,0.6c-0.1,0-0.2-0.1-0.3-0.2c-1-0.6-1-0.6-1-1.8c0-0.7,0-1.3,0-2c0-0.8,0-1.7,0-2.5
		c0-0.4,0.1-0.6,0.4-0.8c0.3-0.2,0.5-0.4,0.8-0.5c1.1-0.7,2.3-0.5,3.2,0.5c0.7,0.8,1.1,1.8,1.2,2.8C42.7,45.2,42.6,46,42.4,46.8z"/>
	<path class="st0" d="M60.8,46.2c3.4,0,6.8,0,10.1,0c0.2,0,0.3,0,0.4,0c0.3,0,0.4,0,0.4-0.4c0-0.6-0.1-1.2-0.1-1.7
		c-0.1-1.5-0.3-3-0.8-4.5c-0.4-1.4-1-2.8-2-3.9c-1.5-1.8-3.4-2.9-5.8-3c-2.8-0.1-5.2,0.8-7.2,2.7c-1.2,1.2-2,2.6-2.6,4.2
		c-0.8,2.2-1.1,4.5-0.9,6.9c0.2,1.8,0.6,3.5,1.4,5.1c1.3,2.6,3.4,4.3,6.2,5.1c1.9,0.5,3.9,0.4,5.9,0c2.1-0.5,3.9-1.5,5.6-2.8
		c0.4-0.3,0.4-0.3,0.2-0.7c-0.7-1.7-1.3-3.4-2-5.1c-0.1-0.1-0.1-0.3-0.2-0.4c-0.2,0-0.3,0.2-0.4,0.3c-0.6,0.5-1.3,1-2,1.4
		c-1.1,0.6-2.3,0.8-3.5,0.4c-1.6-0.4-2.6-1.4-3.1-3C60.1,46.2,60.1,46.2,60.8,46.2z M60.1,42.1c0-1,0.2-1.9,0.9-2.6
		c0.4-0.5,1-0.8,1.7-0.6c0.5,0.1,0.8,0.4,1.1,0.8c0.5,0.7,0.7,1.5,0.7,2.4c0,0.3-0.1,0.4-0.4,0.4c-0.6,0-1.2,0-1.8,0c0,0,0,0,0,0
		c-0.6,0-1.2,0-1.7,0C60.3,42.4,60.1,42.4,60.1,42.1z"/>
	<path class="st0" d="M95.8,74.4c-0.9-1.4-1.8-2.8-2.8-4.3C93,70,92.9,70,92.9,69.9c-0.1-0.2-0.1-0.3,0.1-0.4
		c0.2-0.1,0.5-0.2,0.7-0.4c1.1-0.8,1.6-1.8,1.7-3.1c0.2-2.4-1.2-4.3-3.2-4.9c-0.6-0.2-1.1-0.3-1.7-0.3c-2.1,0-4.1,0-6.2,0
		c-0.4,0-0.4,0-0.4,0.4c0,0.1,0,0.3,0,0.4c0,4.2,0,8.4,0,12.6c0,0.1,0,0.3,0,0.4c0,0.4,0,0.4,0.4,0.4c1.2,0,2.4,0,3.6,0
		c0.4,0,0.4,0,0.4-0.4c0-1.3,0-2.6,0-3.9c0-0.2,0-0.3,0-0.5c0.2,0.1,0.2,0.3,0.3,0.4c0.7,1.3,1.5,2.7,2.2,4c0.1,0.2,0.3,0.4,0.6,0.4
		c1.4,0,2.9,0,4.4,0c0.1,0,0.2,0,0.3-0.1C96.1,74.7,95.9,74.6,95.8,74.4z M90.9,66.2c-0.2,0.6-0.6,1-1.2,1c-0.3,0-0.7,0-1,0
		c-0.2,0-0.3-0.1-0.3-0.3c0,0,0-0.1,0-0.1c0-0.4,0-0.8,0-1.2c0-0.4,0-0.8,0-1.2c0-0.2,0.1-0.3,0.3-0.3c0.4,0,0.9,0,1.3,0.1
		c0.4,0.1,0.7,0.3,0.9,0.7C91,65.3,91,65.7,90.9,66.2z"/>
	<path class="st0" d="M58.2,74.6c0,0,0-0.1,0-0.1c-1.5-4.5-3-8.9-4.4-13.4c-0.1-0.4-0.1-0.4-0.6-0.4c-1.1,0-2.3,0-3.4,0
		c-0.6,0-0.5,0-0.7,0.5c-1.7,4.4-3.4,8.9-5.1,13.3c-0.1,0.1-0.2,0.3-0.1,0.5c0.1,0,0.1,0,0.2,0c1.4,0,2.8,0,4.2,0
		c0.2,0,0.4-0.1,0.4-0.3c0.2-0.5,0.4-1.1,0.5-1.6c0.1-0.3,0.2-0.4,0.5-0.4c1,0,2,0,3,0c0.3,0,0.4,0.1,0.5,0.4
		c0.1,0.6,0.3,1.1,0.4,1.7c0.1,0.2,0.2,0.3,0.4,0.3c1.3,0,2.6,0,3.9,0C58.3,75,58.3,74.9,58.2,74.6z M51.8,69.6c-0.4,0-0.8,0-1.2,0
		c-0.2,0-0.2-0.1-0.2-0.2c0-0.2,0.8-3.1,0.9-3.3c0.1,0,0.1,0.1,0.1,0.2c0.2,1,0.5,1.9,0.7,2.9C52.2,69.6,52.2,69.6,51.8,69.6z"/>
	<path class="st0" d="M57.1,21.5c-0.2-0.1-0.2-0.3-0.2-0.5c0-0.3,0-0.6,0-0.9c0-0.3,0.1-0.5,0.3-0.7c0.4-0.3,0.7-0.5,1.1-0.8
		c0.2-0.1,0.3-0.3,0.2-0.5c-0.1-0.4-0.2-0.8-0.4-1.1c-0.1-0.3-0.3-0.4-0.5-0.3c-0.2,0-0.5,0-0.7,0c-0.1,0-0.3,0-0.5,0
		c-0.4,0-0.8-0.1-1-0.5c-0.1-0.2-0.2-0.3-0.4-0.4c-0.2-0.2-0.3-0.4-0.2-0.7c0.1-0.5,0.2-1,0.4-1.4c0-0.2,0-0.4-0.2-0.5
		c-0.4-0.2-0.7-0.4-1.1-0.7c-0.2-0.1-0.4-0.1-0.5,0.1c-0.3,0.3-0.6,0.5-0.9,0.8c-0.3,0.3-0.6,0.4-1.1,0.3c-0.2-0.1-0.4-0.1-0.5-0.1
		c-0.3,0-0.4-0.1-0.6-0.4c-0.2-0.4-0.4-0.9-0.6-1.3c-0.1-0.2-0.3-0.3-0.5-0.3c-0.4,0-0.9,0.1-1.3,0.2c-0.2,0-0.3,0.2-0.4,0.4
		c0,0.3-0.1,0.7-0.2,1c0,0.6-0.2,1-0.8,1.2c-0.1,0-0.2,0.1-0.3,0.1c-0.2,0.2-0.4,0.2-0.7,0c-0.4-0.2-0.9-0.4-1.3-0.6
		c-0.2-0.1-0.4-0.1-0.5,0.1c-0.3,0.3-0.6,0.6-0.9,1c-0.1,0.2-0.1,0.3,0,0.5c0.2,0.3,0.4,0.6,0.6,0.9c0.3,0.4,0.4,0.9,0.1,1.3
		c0,0.1-0.1,0.2-0.1,0.3c-0.1,0.3-0.3,0.4-0.5,0.5c-0.5,0.1-0.9,0.3-1.4,0.4c-0.2,0.1-0.3,0.2-0.4,0.4c0,0.5,0,0.9,0,1.4
		c0,0.2,0.1,0.3,0.3,0.4c0.3,0.1,0.5,0.2,0.8,0.3c0.8,0.1,1.2,0.6,1.3,1.3c0,0.3,0,0.5-0.1,0.7c-0.3,0.4-0.5,0.8-0.8,1.2
		c-0.1,0.2-0.1,0.4,0,0.5c0.2,0.4,0.5,0.7,0.8,1c0.2,0.2,0.4,0.2,0.6,0.1c0.4-0.1,0.8-0.3,1.2-0.4c0.4-0.2,0.7-0.2,1,0.1
		c0.1,0.1,0.3,0.2,0.4,0.3c0.3,0.1,0.4,0.4,0.4,0.7c0,0.4,0.1,0.9,0.1,1.3c0,0.3,0.1,0.4,0.4,0.5c0.4,0.1,0.8,0.2,1.3,0.3
		c0.2,0,0.3,0,0.4-0.2c0.2-0.3,0.3-0.6,0.5-0.9c0.5-0.8,0.2-0.7,1.3-0.9c0.1,0,0.2,0,0.3,0c0.3-0.1,0.5,0,0.7,0.2
		c0.3,0.4,0.7,0.7,1,1c0.2,0.2,0.4,0.2,0.7,0.1c0.3-0.2,0.7-0.4,1-0.5c0.2-0.1,0.3-0.3,0.3-0.6c-0.1-0.4-0.1-0.8-0.2-1.2
		c-0.1-0.4,0-0.8,0.3-1.1c0.1-0.1,0.3-0.3,0.4-0.4c0.2-0.2,0.4-0.3,0.6-0.3c0.5,0,0.9,0,1.4,0.1c0.3,0,0.5-0.1,0.6-0.4
		c0.1-0.3,0.2-0.6,0.4-1c0.1-0.3,0-0.5-0.2-0.7C57.8,22.1,57.4,21.8,57.1,21.5z M50,25.3c-2.7,0-5-2.2-5-5c-0.1-2.4,1.9-5,5-5
		c2.8,0,5,2.2,5,5C55,23,52.7,25.3,50,25.3z"/>
	<path class="st0" d="M84.7,21.2c-0.3-0.2-0.6-0.5-1-0.7c-0.3-0.2-0.5-0.5-0.4-0.9c0-0.2,0-0.4,0-0.5c-0.1-0.4,0.1-0.6,0.4-0.9
		c0.4-0.3,0.7-0.5,1-0.8c0.2-0.2,0.3-0.3,0.2-0.6c-0.1-0.4-0.3-0.8-0.4-1.2c-0.1-0.2-0.2-0.3-0.4-0.3c-0.3,0-0.6,0-0.8,0
		c-0.1,0-0.1,0-0.2,0c-0.6,0.1-1.1,0-1.4-0.6c0-0.1-0.1-0.1-0.2-0.2c-0.3-0.2-0.3-0.4-0.2-0.8c0.1-0.4,0.2-0.8,0.2-1.2
		c0.1-0.5,0.1-0.5-0.4-0.8c-0.3-0.2-0.6-0.3-0.9-0.5c-0.2-0.1-0.4-0.1-0.6,0.1c-0.4,0.4-0.7,0.7-1.1,1c-0.2,0.2-0.3,0.2-0.5,0.2
		c-0.2-0.1-0.5-0.1-0.7-0.1c-0.3,0-0.5-0.1-0.7-0.4c-0.2-0.4-0.4-0.8-0.7-1.2c-0.1-0.2-0.3-0.3-0.5-0.3c-0.4,0.1-0.8,0.1-1.3,0.3
		c-0.2,0-0.3,0.2-0.3,0.4c0,0.4-0.1,0.7-0.1,1.1c0,0.6-0.3,1-0.8,1.2c-0.1,0-0.1,0.1-0.2,0.1c-0.2,0.2-0.4,0.2-0.7,0.1
		c-0.4-0.2-0.9-0.3-1.3-0.5c-0.3-0.1-0.5-0.1-0.7,0.2c-0.3,0.3-0.5,0.6-0.7,0.9c-0.2,0.2-0.2,0.4,0,0.6c0.2,0.3,0.4,0.7,0.6,0.9
		c0.3,0.4,0.4,0.8,0.1,1.2c-0.1,0.1-0.1,0.2-0.1,0.3c0,0.3-0.2,0.4-0.5,0.5c-0.5,0.2-0.9,0.3-1.4,0.5c-0.2,0.1-0.3,0.1-0.3,0.4
		c0,0.5,0,0.9,0,1.4c0,0.3,0.1,0.4,0.4,0.4c0.4,0.1,0.7,0.2,1,0.3c0.5,0.1,0.9,0.3,0.9,0.9c0,0.1,0.1,0.3,0.1,0.4
		c0.1,0.2,0.1,0.4,0,0.6c-0.3,0.4-0.5,0.9-0.8,1.3c-0.1,0.2-0.1,0.4,0,0.6c0.3,0.3,0.5,0.7,0.8,1c0.2,0.2,0.4,0.2,0.6,0.1
		c0.3-0.1,0.6-0.2,0.9-0.4c0.5-0.3,1-0.3,1.5,0.1c0.1,0.1,0.2,0.1,0.3,0.1c0.2,0.1,0.3,0.2,0.4,0.5c0.1,0.5,0.2,1,0.2,1.5
		c0,0.3,0.2,0.5,0.5,0.5c0.4,0,0.7,0.1,1.1,0.2c0.3,0.1,0.5,0,0.6-0.3c0.2-0.4,0.4-0.9,0.6-1.3c0.1-0.2,0.3-0.4,0.5-0.4
		c0.3,0,0.5-0.1,0.8-0.1c0.2-0.1,0.4,0,0.6,0.2c0.4,0.4,0.8,0.7,1.2,1c0.2,0.1,0.3,0.2,0.5,0.1c0.4-0.2,0.7-0.4,1.1-0.6
		c0.2-0.1,0.3-0.3,0.2-0.5c-0.1-0.5-0.2-1-0.4-1.5c-0.1-0.2,0-0.4,0.1-0.5c0.2-0.2,0.4-0.4,0.6-0.7c0.2-0.2,0.4-0.3,0.6-0.3
		c0.4,0,0.8,0,1.1,0c0.7,0,0.7,0,0.9-0.6c0.1-0.3,0.2-0.6,0.3-0.9C85,21.6,84.9,21.4,84.7,21.2z M76.4,24.4c-2.7,0-5-2.3-5-5
		c0-2.8,2.2-5,5-5c2.8,0,5,2.2,5,5C81.4,22.2,79.2,24.4,76.4,24.4z"/>
	<path class="st0" d="M70.9,10c-0.3-0.1-0.5-0.3-0.8-0.4c-0.2-0.1-0.4-0.3-0.4-0.5c-0.1-0.4-0.2-0.8-0.3-1.2
		c-0.1-0.2-0.1-0.4,0.1-0.7c0.2-0.3,0.4-0.6,0.6-0.9C70,6.2,70.1,6.1,70.1,6c0,0,0-0.1-0.1-0.1c-0.3-0.5-0.6-0.9-1-1.4
		c-0.1-0.1-0.3-0.1-0.4-0.1c-0.4,0.1-0.7,0.2-1.1,0.4c-0.2,0.1-0.4,0-0.5-0.1c-0.4-0.3-0.8-0.5-1.2-0.7c-0.2-0.1-0.3-0.2-0.4-0.4
		c-0.1-0.4-0.2-0.7-0.2-1.1c0-0.2-0.1-0.3-0.4-0.4c-0.5-0.1-1-0.2-1.5-0.2c-0.3,0-0.4,0.1-0.5,0.3c-0.1,0.3-0.3,0.6-0.5,0.9
		c-0.1,0.2-0.2,0.3-0.4,0.3c-0.5,0-0.9,0.2-1.3,0.4c-0.2,0.1-0.4,0.1-0.6-0.1c-0.3-0.2-0.6-0.4-0.9-0.6c-0.2-0.2-0.4-0.2-0.6,0
		c-0.4,0.3-0.8,0.6-1.1,0.9c-0.2,0.2-0.2,0.3-0.1,0.6c0.1,0.3,0.2,0.7,0.3,1c0.1,0.2,0.1,0.4-0.1,0.6c-0.3,0.4-0.5,0.8-0.7,1.2
		c-0.1,0.2-0.3,0.3-0.5,0.4c-0.3,0.1-0.7,0.2-1,0.2c-0.3,0-0.4,0.2-0.4,0.4c-0.1,0.5-0.1,1-0.2,1.5c0,0.2,0.1,0.3,0.3,0.4
		c0.3,0.1,0.6,0.3,1,0.5c0.2,0.1,0.4,0.3,0.4,0.5c0.1,0.4,0.2,0.8,0.3,1.2c0.1,0.3,0,0.5-0.1,0.7c-0.2,0.3-0.4,0.6-0.6,0.9
		c-0.1,0.2-0.1,0.3,0,0.5c0.3,0.4,0.6,0.9,1,1.3c0.1,0.1,0.3,0.2,0.5,0.1c0.3-0.1,0.7-0.2,1-0.3c0.2-0.1,0.4-0.1,0.6,0.1
		c0.4,0.3,0.8,0.5,1.2,0.7c0.2,0.1,0.3,0.2,0.4,0.4c0.1,0.4,0.2,0.7,0.2,1.1c0,0.2,0.2,0.4,0.4,0.4c0.5,0.1,0.9,0.1,1.4,0.2
		c0.3,0,0.4-0.1,0.5-0.3c0.1-0.3,0.3-0.6,0.5-0.9c0.1-0.2,0.3-0.3,0.5-0.4c0.4-0.1,0.9-0.2,1.3-0.4c0.2-0.1,0.4-0.1,0.6,0.1
		c0.3,0.2,0.6,0.4,0.9,0.6c0.2,0.1,0.3,0.1,0.5,0c0.4-0.3,0.8-0.6,1.1-0.9c0.2-0.2,0.3-0.4,0.2-0.7c-0.1-0.3-0.2-0.6-0.3-0.9
		c-0.1-0.2,0-0.4,0.1-0.6c0.3-0.4,0.5-0.7,0.7-1.2c0.1-0.2,0.3-0.4,0.5-0.4c0.3-0.1,0.6-0.1,1-0.2c0.3,0,0.4-0.2,0.4-0.4
		c0.1-0.5,0.2-0.9,0.2-1.4C71.3,10.3,71.2,10.2,70.9,10z M62.9,15.1c-2.6,0-4.8-2.2-4.8-4.8c0-2.6,2.2-4.8,4.8-4.8
		c2.3,0,4.8,1.7,4.8,4.8C67.7,13.2,65.3,15.1,62.9,15.1z"/>
	<path class="st0" d="M78.9,22.1c-0.3-0.5-0.6-1.1-0.9-1.6c-0.2-0.4-0.3-0.4,0.1-0.7c0.3-0.2,0.5-0.5,0.6-0.8
		c0.4-1.3-0.3-2.4-1.7-2.6c-0.7-0.1-1.4,0-2.2,0c-0.5,0-0.6,0.2-0.6,0.7c0,0.8,0,1.6,0,2.4c0,0.7,0,1.4,0,2.1c0,0.9-0.2,0.9,1,0.9
		c0.3,0,0.4-0.1,0.4-0.4c0-0.5,0-0.9,0-1.4c0-0.4,0.1-0.4,0.5-0.4c0.2,0,0.3,0.1,0.4,0.3c0.2,0.4,0.4,0.7,0.6,1.1
		c0.5,0.9,0.5,0.9,1.5,0.9C79,22.5,79.1,22.5,78.9,22.1z M77.4,18.6c-0.1,0.2-0.2,0.4-0.4,0.5c-0.3,0.1-0.6,0.1-0.9,0.1
		c-0.2,0-0.4-0.1-0.4-0.4c0-0.2,0-0.3,0-0.4c0-0.8,0.2-0.9,1-0.8C77.3,17.7,77.5,18.1,77.4,18.6z"/>
</g>
</svg>
