<?xml version="1.0" encoding="utf-8"?>
<!-- Generator: Adobe Illustrator 25.0.0, SVG Export Plug-In . SVG Version: 6.00 Build 0)  -->
<svg version="1.1" id="Layer_1" xmlns="http://www.w3.org/2000/svg" xmlns:xlink="http://www.w3.org/1999/xlink" x="0px" y="0px"
	 viewBox="0 0 91.08 48" style="enable-background:new 0 0 91.08 48;" xml:space="preserve">
<style type="text/css">
	.st0{fill:#AFAFAF;}
	.st1{fill:#FFFFFF;}
</style>
<g>
	<path class="st0" d="M73.73,47.99c-0.3-0.17-0.65-0.14-0.97-0.21c-3.91-0.78-6.58-4.08-6.54-8.09c0.04-3.99,2.75-7.22,6.67-7.94
		c3.51-0.65,6.92,0.73,8.71,3.55c3.07,4.82,0.54,11.63-5.71,12.56c-0.21,0.03-0.45-0.02-0.64,0.13c-0.1,0-0.2,0-0.3,0
		c-0.28-0.06-0.56-0.06-0.83,0C73.98,47.99,73.86,47.99,73.73,47.99z"/>
	<path class="st0" d="M38.51,47.99c-0.33-0.15-0.68-0.1-1.02-0.14c-0.66-0.08-1.33-0.15-1.98-0.28c-0.12-0.02-0.25-0.01-0.25-0.21
		c0.01-1.15,0-2.29,0-3.47c1.16,0.31,2.3,0.54,3.46,0.58c0.75,0.03,1.49-0.01,2.2-0.27c0.34-0.12,0.64-0.3,0.84-0.62
		c0.31-0.5,0.18-1.1-0.32-1.52c-0.42-0.35-0.92-0.52-1.42-0.68c-0.85-0.27-1.71-0.54-2.49-0.99c-1.63-0.95-2.42-2.34-2.29-4.24
		c0.13-1.84,1.05-3.15,2.7-3.93c1.38-0.66,2.85-0.69,4.34-0.58c0.79,0.06,1.58,0.2,2.35,0.36c0.25,0.05,0.38,0.14,0.37,0.44
		c-0.02,0.88-0.03,1.77,0,2.65c0.01,0.35-0.12,0.35-0.39,0.28c-1.12-0.27-2.25-0.47-3.41-0.35c-0.43,0.04-0.85,0.14-1.22,0.36
		c-0.72,0.43-0.78,1.26-0.11,1.79c0.37,0.29,0.82,0.44,1.26,0.58c0.65,0.21,1.31,0.38,1.93,0.66c1.85,0.84,3.02,2.17,3.02,4.3
		c0,2.15-1.09,3.76-3.08,4.6c-0.79,0.33-1.61,0.51-2.45,0.6c-0.08,0.01-0.18-0.04-0.23,0.08c-0.1,0-0.2,0-0.3,0
		c-0.29-0.09-0.59-0.02-0.88-0.04c-0.16,0.02-0.33-0.04-0.49,0.04C38.61,47.99,38.56,47.99,38.51,47.99z"/>
	<path class="st0" d="M15.93,47.99c-0.32-0.19-0.7-0.14-1.05-0.22c-3.31-0.78-5.56-2.7-6.31-6.09c-1.08-4.88,1.9-9.39,7-10
		c1.55-0.19,3.07-0.01,4.57,0.4c0.15,0.04,0.27,0.08,0.27,0.29c-0.01,1.32-0.01,2.65-0.01,4.02c-0.69-0.35-1.37-0.6-2.09-0.72
		c-1.58-0.27-3.09-0.13-4.32,1.03c-1.27,1.2-1.58,2.7-1.11,4.34c0.46,1.61,1.59,2.54,3.21,2.85c1.38,0.26,2.71,0.01,3.98-0.57
		c0.09-0.04,0.18-0.09,0.27-0.13c0.1,0.07,0.06,0.17,0.06,0.25c0,1.21,0,2.42,0.01,3.64c0,0.25-0.07,0.34-0.31,0.41
		c-0.84,0.22-1.69,0.39-2.57,0.44c-0.15,0.05-0.3,0.01-0.45,0.02c-0.25,0.02-0.51-0.05-0.76,0.04
		C16.18,47.99,16.06,47.99,15.93,47.99z"/>
	<path class="st0" d="M57.52,47.99c-0.3-0.19-0.65-0.15-0.97-0.21c-3.52-0.69-5.99-3.18-6.49-6.75c-0.68-4.83,2.41-8.76,7.07-9.35
		c1.56-0.2,3.09-0.03,4.6,0.39c0.15,0.04,0.28,0.07,0.28,0.28c-0.01,1.32,0,2.65,0,4.02c-0.69-0.34-1.37-0.59-2.1-0.71
		c-1.56-0.26-3.03-0.11-4.27,0.98c-1.27,1.12-1.68,2.98-1.08,4.66c0.55,1.54,2.03,2.59,3.71,2.67c1.21,0.06,2.36-0.15,3.45-0.68
		c0.26-0.13,0.29-0.05,0.28,0.19c-0.01,1.2-0.01,2.4,0,3.6c0,0.22-0.05,0.33-0.29,0.39c-0.83,0.22-1.67,0.38-2.53,0.44
		c-0.17,0.06-0.35,0.01-0.52,0.03c-0.26,0.02-0.52-0.05-0.77,0.04C57.77,47.99,57.65,47.99,57.52,47.99z"/>
	<path class="st0" d="M24.19,0.01c0.15,0.13,0.35,0.1,0.51,0.19c0.69,0.35,1.11,0.89,1.16,1.68c0.01,0.13,0.01,0.25,0.01,0.38
		c0,6.83,0,13.67,0,20.5c0,1.13-0.49,1.86-1.43,2.14c-1.24,0.37-2.53-0.56-2.53-1.85c0-7.03,0-14.07,0-21.1
		c0-0.94,0.71-1.73,1.65-1.87C23.74,0,23.94,0.1,24.11,0.01C24.14,0.01,24.16,0.01,24.19,0.01z"/>
	<path class="st0" d="M91.08,19.49c-0.11,0.08-0.11,0.22-0.16,0.33c-0.37,0.85-1.28,1.34-2.19,1.17c-0.91-0.17-1.59-0.95-1.6-1.89
		c-0.01-1.39-0.01-2.77,0-4.16c0.01-1.02,0.69-1.83,1.63-1.98c1.03-0.15,1.9,0.38,2.24,1.37c0.02,0.06,0,0.13,0.08,0.15
		C91.08,16.15,91.08,17.82,91.08,19.49z"/>
	<path class="st0" d="M39.11,47.93c0.3,0.02,0.62-0.1,0.91,0.07c-0.3,0-0.61,0-0.91,0c-0.02-0.01-0.03-0.03-0.03-0.04
		C39.09,47.94,39.1,47.93,39.11,47.93z"/>
	<path class="st0" d="M74.11,47.99c0.28-0.12,0.56-0.12,0.83,0C74.67,47.99,74.39,47.99,74.11,47.99z"/>
	<path class="st0" d="M16.31,47.99c0.24-0.16,0.51-0.04,0.76-0.06c0.02,0.02,0.03,0.03,0.02,0.04c-0.01,0.01-0.02,0.02-0.02,0.02
		C16.82,47.99,16.56,47.99,16.31,47.99z"/>
	<path class="st0" d="M57.9,47.99c0.24-0.16,0.51-0.04,0.76-0.06c0.02,0.02,0.03,0.03,0.02,0.04c-0.01,0.01-0.02,0.02-0.02,0.02
		C58.4,47.99,58.15,47.99,57.9,47.99z"/>
	<path class="st0" d="M67.67,0.01c0.01,0.02,0.01,0.04,0.02,0.06c-0.21,0.17-0.42,0.17-0.63,0c0.01-0.02,0.01-0.04,0.01-0.07
		C67.27,0.01,67.47,0.01,67.67,0.01z"/>
	<path class="st0" d="M24.11,0.01c-0.17,0.14-0.36,0.06-0.55,0.06c0-0.02,0.01-0.04,0.02-0.06C23.76,0.01,23.94,0.01,24.11,0.01z"/>
	<path class="st0" d="M58.66,47.99c0-0.02,0-0.04,0-0.06c0.18,0,0.35,0,0.53,0c-0.01,0.02-0.01,0.04,0,0.07
		C59.01,47.99,58.83,47.99,58.66,47.99z"/>
	<path class="st0" d="M17.07,47.99c0-0.02,0-0.04,0-0.06c0.15,0,0.3,0,0.46,0c0,0.02,0,0.04-0.01,0.06
		C17.37,47.99,17.22,47.99,17.07,47.99z"/>
	<path class="st0" d="M39.11,47.93c0,0.02,0,0.04,0,0.07c-0.15,0-0.3,0-0.45,0C38.79,47.84,38.96,47.94,39.11,47.93z"/>
	<path class="st0" d="M67.05,0.08c0.21,0,0.42,0,0.63,0c0.94,0.14,1.65,0.93,1.65,1.87c0,7.03,0,14.07,0,21.1
		c0,1.06-0.85,1.9-1.93,1.93c-1.06,0.03-1.94-0.76-2.02-1.79c-0.01-0.15-0.02-0.3-0.02-0.45c0-6.82,0-13.64-0.01-20.46
		c0-0.94,0.32-1.64,1.18-2.06C66.7,0.12,66.87,0.07,67.05,0.08z"/>
	<path class="st0" d="M25.88,39.77c0-2.5,0.01-5-0.01-7.5c0-0.32,0.1-0.4,0.4-0.4c1.09,0.02,2.17,0.01,3.26,0
		c0.25,0,0.35,0.05,0.35,0.33c-0.01,5.05-0.01,10.11,0,15.16c0,0.27-0.07,0.34-0.34,0.33c-1.1-0.01-2.2-0.02-3.29,0
		c-0.31,0.01-0.37-0.09-0.37-0.38C25.88,44.8,25.88,42.28,25.88,39.77z"/>
	<path class="st0" d="M36.75,14.25c0,1.58,0.01,3.16,0,4.74c-0.01,0.83-0.37,1.47-1.12,1.83c-0.7,0.34-1.4,0.27-2.04-0.19
		c-0.55-0.4-0.8-0.97-0.8-1.64c-0.01-3.16-0.01-6.32,0-9.47c0.01-1.06,0.71-1.88,1.65-2.01c1-0.14,1.89,0.4,2.2,1.33
		c0.09,0.27,0.11,0.54,0.11,0.82C36.75,11.19,36.75,12.72,36.75,14.25z"/>
	<path class="st0" d="M54.5,14.24c0-1.58-0.01-3.16,0-4.74c0.01-0.81,0.37-1.44,1.1-1.81c0.7-0.35,1.4-0.29,2.04,0.16
		c0.62,0.44,0.83,1.08,0.83,1.82c-0.01,2.54,0,5.08,0,7.62c0,0.62,0.02,1.24-0.02,1.86c-0.09,1.15-0.94,1.9-2.07,1.86
		c-1.04-0.04-1.86-0.89-1.88-2C54.49,17.43,54.5,15.84,54.5,14.24z"/>
	<path class="st0" d="M76.24,14.26c0-1.58-0.01-3.16,0-4.74c0-0.89,0.51-1.62,1.29-1.91c0.76-0.28,1.63-0.06,2.18,0.55
		c0.34,0.39,0.49,0.85,0.5,1.36c0,3.16,0,6.32,0,9.47c0,0.81-0.35,1.44-1.08,1.82c-0.67,0.34-1.35,0.3-1.98-0.11
		c-0.62-0.4-0.9-1-0.9-1.74C76.24,17.39,76.24,15.83,76.24,14.26z"/>
	<path class="st0" d="M11.04,14.27c0-1.54,0-3.08,0-4.62c0-0.74,0.23-1.37,0.85-1.8c0.63-0.44,1.32-0.49,2.01-0.15
		C14.61,8.04,15,8.65,15,9.43c0.02,3.21,0.02,6.42,0,9.63C15,20.17,14.13,21,13.06,21.02c-1.1,0.01-1.96-0.76-1.99-1.89
		c-0.04-1.62-0.01-3.23-0.01-4.85C11.05,14.27,11.04,14.27,11.04,14.27z"/>
	<path class="st0" d="M47.6,17c0,0.72,0.01,1.44,0,2.16c-0.03,1.06-0.9,1.88-1.98,1.87c-1.07,0-1.95-0.82-1.97-1.88
		c-0.02-1.45-0.02-2.9,0-4.35c0.01-1.04,0.93-1.89,1.98-1.89c1.05,0,1.94,0.85,1.97,1.9C47.62,15.54,47.6,16.27,47.6,17z"/>
	<path class="st0" d="M4.12,16.98c0,0.68,0.01,1.36,0,2.05c-0.02,1.15-0.87,1.99-1.99,1.99c-1.09-0.01-1.95-0.87-1.96-1.98
		c-0.01-1.38-0.01-2.75,0-4.13c0.01-1.11,0.89-1.98,1.97-1.98c1.1,0,1.95,0.85,1.97,1.97C4.13,15.59,4.12,16.29,4.12,16.98z"/>
	<path class="st1" d="M74.54,43.93c-2.32-0.01-4.13-1.83-4.12-4.15c0.01-2.36,1.82-4.16,4.15-4.15c2.32,0.01,4.1,1.82,4.09,4.17
		C78.65,42.14,76.86,43.93,74.54,43.93z"/>
</g>
</svg>
