<?xml version="1.0" encoding="utf-8"?>
<!-- Generator: Adobe Illustrator 25.0.0, SVG Export Plug-In . SVG Version: 6.00 Build 0)  -->
<svg version="1.1" id="Layer_1" xmlns="http://www.w3.org/2000/svg" xmlns:xlink="http://www.w3.org/1999/xlink" x="0px" y="0px"
	 viewBox="0 0 91.1 48" style="enable-background:new 0 0 91.1 48;" xml:space="preserve">
<style type="text/css">
	.st0{fill:#AFAFAF;}
</style>
<g>
	<path class="st0" d="M38.4,48c-0.3-0.2-0.7-0.1-1-0.1c-0.7-0.1-1.3-0.2-2-0.3c-0.1,0-0.2,0-0.2-0.2c0-1.2,0-2.3,0-3.5
		c1.2,0.3,2.3,0.5,3.5,0.6c0.8,0,1.5,0,2.2-0.3c0.3-0.1,0.6-0.3,0.8-0.6c0.3-0.5,0.2-1.1-0.3-1.5c-0.4-0.3-0.9-0.5-1.4-0.7
		c-0.8-0.3-1.7-0.5-2.5-1c-1.6-1-2.4-2.3-2.3-4.2c0.1-1.8,1-3.2,2.7-3.9c1.4-0.7,2.8-0.7,4.3-0.6c0.8,0.1,1.6,0.2,2.3,0.4
		c0.2,0,0.4,0.1,0.4,0.4c0,0.9,0,1.8,0,2.7c0,0.3-0.1,0.3-0.4,0.3c-1.1-0.3-2.2-0.5-3.4-0.3c-0.4,0-0.8,0.1-1.2,0.4
		c-0.7,0.4-0.8,1.3-0.1,1.8c0.4,0.3,0.8,0.4,1.3,0.6c0.7,0.2,1.3,0.4,1.9,0.7c1.8,0.8,3,2.2,3,4.3c0,2.2-1.1,3.8-3.1,4.6
		c-0.8,0.3-1.6,0.5-2.5,0.6c-0.1,0-0.2,0-0.2,0.1c-0.1,0-0.2,0-0.3,0c-0.3-0.1-0.6,0-0.9,0c-0.2,0-0.3,0-0.5,0
		C38.5,48,38.5,48,38.4,48z"/>
	<path class="st0" d="M15.8,48c-0.3-0.2-0.7-0.1-1.1-0.2c-3.3-0.8-5.6-2.7-6.3-6.1c-1.1-4.9,1.9-9.4,7-10c1.6-0.2,3.1,0,4.6,0.4
		c0.1,0,0.3,0.1,0.3,0.3c0,1.3,0,2.7,0,4c-0.7-0.3-1.4-0.6-2.1-0.7c-1.6-0.3-3.1-0.1-4.3,1c-1.3,1.2-1.6,2.7-1.1,4.3
		c0.5,1.6,1.6,2.5,3.2,2.8c1.4,0.3,2.7,0,4-0.6c0.1,0,0.2-0.1,0.3-0.1c0.1,0.1,0.1,0.2,0.1,0.2c0,1.2,0,2.4,0,3.6
		c0,0.2-0.1,0.3-0.3,0.4c-0.8,0.2-1.7,0.4-2.6,0.4c-0.1,0-0.3,0-0.5,0c-0.2,0-0.5,0-0.8,0C16.1,48,16,48,15.8,48z"/>
	<path class="st0" d="M56.5,47.8c-3.5-0.7-6-3.2-6.5-6.8c-0.7-4.8,2.4-8.8,7.1-9.3c1.6-0.2,3.1,0,4.6,0.4c0.2,0,0.3,0.1,0.3,0.3
		c0,1.3,0,2.7,0,4c-0.7-0.3-1.4-0.6-2.1-0.7c-1.6-0.3-3-0.1-4.3,1c-1.3,1.1-1.7,3-1.1,4.7c0.5,1.5,2,2.6,3.7,2.7
		c1.2,0.1,2.4-0.2,3.5-0.7c0.3-0.1,0.3,0,0.3,0.2c0,1.2,0,2.4,0,3.6c0,0.2,0,0.3-0.3,0.4c-0.8,0.2-1.7,0.4-2.5,0.4
		c-0.3,0-0.9,0.1-1.3,0.1C57.7,48,56.8,47.8,56.5,47.8z"/>
	<path class="st0" d="M24.1,0c0.1,0.1,0.4,0.1,0.5,0.2c0.7,0.4,1.1,0.9,1.2,1.7c0,0.1,0,0.2,0,0.4c0,6.8,0,13.7,0,20.5
		c0,1.1-0.5,1.9-1.4,2.1c-1.2,0.4-2.5-0.6-2.5-1.9c0-7,0-14.1,0-21.1c0-0.9,0.7-1.7,1.6-1.9C23.7,0,23.9,0.1,24.1,0
		C24.1,0,24.1,0,24.1,0z"/>
	<path class="st0" d="M91,19.5c-0.1,0.1-0.1,0.2-0.2,0.3c-0.4,0.9-1.3,1.3-2.2,1.2s-1.6-1-1.6-1.9c0-1.4,0-2.8,0-4.2
		c0-1,0.7-1.8,1.6-2c1-0.1,1.9,0.4,2.2,1.4c0,0.1,0,0.1,0.1,0.1C91,16.1,91,17.8,91,19.5z"/>
	<path class="st0" d="M39,47.9c0.3,0,0.6-0.1,0.9,0.1C39.6,48,39.3,48,39,47.9C39,48,39,48,39,47.9C39,47.9,39,47.9,39,47.9z"/>
	<path class="st0" d="M16.2,48c0.2-0.2,0.5,0,0.8-0.1c0,0,0,0,0,0c0,0,0,0,0,0C16.7,48,16.5,48,16.2,48z"/>
	<path class="st0" d="M17,48C17,48,17,47.9,17,48c0.1-0.1,0.3-0.1,0.5-0.1c0,0,0,0,0,0.1C17.3,48,17.1,48,17,48z"/>
	<path class="st0" d="M39,47.9C39,47.9,39,48,39,47.9C38.9,48,38.7,48,38.6,48C38.7,47.8,38.9,47.9,39,47.9z"/>
	<path class="st0" d="M67,0.1c0.2,0,0.4,0,0.6,0c0.9,0.1,1.7,0.9,1.7,1.9c0,7,0,14.1,0,21.1c0,1.1-0.8,1.9-1.9,1.9
		c-1.1,0-1.9-0.8-2-1.8c0-0.1,0-0.3,0-0.5c0-6.8,0-13.6,0-20.5c0-0.9,0.3-1.6,1.2-2.1C66.6,0.1,66.8,0.1,67,0.1z"/>
	<path class="st0" d="M25.8,39.8c0-2.5,0-5,0-7.5c0-0.3,0.1-0.4,0.4-0.4c1.1,0,2.2,0,3.3,0c0.2,0,0.4,0,0.4,0.3c0,5,0,10.1,0,15.2
		c0,0.3-0.1,0.3-0.3,0.3c-1.1,0-2.2,0-3.3,0c-0.3,0-0.4-0.1-0.4-0.4C25.8,44.8,25.8,42.3,25.8,39.8z"/>
	<path class="st0" d="M36.7,14.2c0,1.6,0,3.2,0,4.7c0,0.8-0.4,1.5-1.1,1.8c-0.7,0.3-1.4,0.3-2-0.2c-0.5-0.4-0.8-1-0.8-1.6
		c0-3.2,0-6.3,0-9.5c0-1.1,0.7-1.9,1.7-2c1-0.1,1.9,0.4,2.2,1.3c0.1,0.3,0.1,0.5,0.1,0.8C36.7,11.2,36.7,12.7,36.7,14.2z"/>
	<path class="st0" d="M54.4,14.2c0-1.6,0-3.2,0-4.7c0-0.8,0.4-1.4,1.1-1.8c0.7-0.3,1.4-0.3,2,0.2c0.6,0.4,0.8,1.1,0.8,1.8
		c0,2.5,0,5.1,0,7.6c0,0.6,0,1.2,0,1.9c-0.1,1.1-0.9,1.9-2.1,1.9c-1,0-1.9-0.9-1.9-2C54.4,17.4,54.4,15.8,54.4,14.2z"/>
	<path class="st0" d="M76.2,14.3c0-1.6,0-3.2,0-4.7c0-0.9,0.5-1.6,1.3-1.9c0.8-0.3,1.6-0.1,2.2,0.6C80,8.5,80.1,9,80.1,9.5
		c0,3.2,0,6.3,0,9.5c0,0.8-0.3,1.4-1.1,1.8c-0.7,0.3-1.3,0.3-2-0.1c-0.6-0.4-0.9-1-0.9-1.7C76.2,17.4,76.2,15.8,76.2,14.3z"/>
	<path class="st0" d="M11,14.3c0-1.5,0-3.1,0-4.6c0-0.7,0.2-1.4,0.9-1.8c0.6-0.4,1.3-0.5,2-0.2c0.7,0.3,1.1,0.9,1.1,1.7
		c0,3.2,0,6.4,0,9.6c0,1.1-0.9,1.9-1.9,2c-1.1,0-2-0.8-2-1.9C10.9,17.5,11,15.9,11,14.3C11,14.3,11,14.3,11,14.3z"/>
	<path class="st0" d="M47.5,17c0,0.7,0,1.4,0,2.2c0,1.1-0.9,1.9-2,1.9c-1.1,0-2-0.8-2-1.9c0-1.5,0-2.9,0-4.4c0-1,0.9-1.9,2-1.9
		s1.9,0.9,2,1.9C47.5,15.5,47.5,16.3,47.5,17z"/>
	<path class="st0" d="M4,17c0,0.7,0,1.4,0,2c0,1.1-0.9,2-2,2c-1.1,0-2-0.9-2-2c0-1.4,0-2.8,0-4.1c0-1.1,0.9-2,2-2c1.1,0,2,0.9,2,2
		C4,15.6,4,16.3,4,17z"/>
	<path class="st0" d="M81.5,35.3c-1.8-2.8-5.2-4.2-8.7-3.5c-3.9,0.7-6.6,3.9-6.7,7.9c0,4,2.6,7.3,6.5,8.1c0.3,0.1,0.7,0,1,0.2
		c0.1,0,0.2,0,0.4,0c0.3-0.1,0.6-0.1,0.8,0c0,0,0,0,0,0c0.1,0,0.2,0,0.3,0c0.2-0.2,0.4-0.1,0.6-0.1C82.1,46.9,84.6,40.1,81.5,35.3z
		 M74.5,43.9c-2.3,0-4.1-1.8-4.1-4.2c0-2.4,1.8-4.2,4.2-4.2c2.3,0,4.1,1.8,4.1,4.2C78.6,42.1,76.8,43.9,74.5,43.9z"/>
</g>
</svg>
