<?xml version="1.0" encoding="utf-8"?>
<!-- Generator: Adobe Illustrator 25.0.0, SVG Export Plug-In . SVG Version: 6.00 Build 0)  -->
<svg version="1.1" id="Layer_1" xmlns="http://www.w3.org/2000/svg" xmlns:xlink="http://www.w3.org/1999/xlink" x="0px" y="0px"
	 viewBox="0 0 122.9 41.7" style="enable-background:new 0 0 122.9 41.7;" xml:space="preserve">
<style type="text/css">
	.st0{fill:#AFAFAF;}
</style>
<g>
	<path class="st0" d="M122.9,15.5c-0.4,0-0.7,0-1.1,0c-4.1,0-8.2,0-12.3,0c-0.4,0-0.5-0.1-0.4-0.5c0-0.4,0-0.8,0-1.2
		c0-0.2,0.1-0.3,0.3-0.3c0.1,0,0.2,0,0.3,0c4.3,0,8.5,0,12.8,0c0.2,0,0.3,0,0.5,0C122.9,14.2,122.9,14.9,122.9,15.5z"/>
	<path class="st0" d="M47.2,22.7c0-2,0-4,0-5.9c0-0.3,0.1-0.5,0.4-0.5c1.2,0,2.3,0,3.5,0c0.3,0,0.4,0.1,0.4,0.4c0,3.3,0,6.6,0,9.9
		c0,0.5,0,0.5,0.5,0.5c1.1,0,2.3,0,3.4,0c0.9,0,1.4-0.5,1.4-1.4c0-2.9,0-5.9,0-8.8c0-0.9-0.5-1.4-1.4-1.4c-2.6,0-5.2,0-7.7,0
		c-0.3,0-0.5-0.1-0.4-0.4c0-0.4,0-0.8,0-1.2c0-0.2,0.1-0.3,0.3-0.3c2.8,0,5.7,0,8.5,0c2.6,0,4.6,1.8,5,4.3c0.1,0.3,0.1,0.6,0.1,0.9
		c0,1.8,0,3.7,0,5.5c-0.1,2.6-2.4,4.7-5,4.7c-2.8,0-5.6,0-8.4,0c-0.3,0-0.4-0.1-0.4-0.4C47.2,26.7,47.2,24.7,47.2,22.7z"/>
	<path class="st0" d="M118.1,22.7c0,2,0,4,0,5.9c0,0.3-0.1,0.4-0.4,0.4c-1.2,0-2.4,0-3.5,0c-0.3,0-0.4-0.1-0.4-0.4c0-4,0-8,0-12.1
		c0-0.3,0.1-0.4,0.3-0.4c1.2,0,2.4,0,3.6,0c0.3,0,0.3,0.1,0.3,0.4C118.1,18.7,118.1,20.7,118.1,22.7z"/>
	<path class="st0" d="M35.1,8.9c-4.8-2.8-9.6-5.5-14.4-8.3c-1.4-0.8-2.8-0.8-4.1,0C11.7,3.3,6.9,6.1,2.1,8.9C0.7,9.7,0,10.9,0,12.5
		c0,5.5,0,11,0,16.5c0,1.7,0.7,2.9,2.2,3.8c3.6,2,7.1,4.1,10.7,6.1c1.7,1,3.3,2.2,5.2,2.7c0.4,0,0.8,0,1.1,0c0.5-0.2,1-0.3,1.5-0.6
		c4.8-2.8,9.6-5.5,14.4-8.3c1.4-0.8,2.1-2,2.1-3.6c0-5.5,0-11.1,0-16.6C37.2,10.9,36.5,9.7,35.1,8.9z M12.9,19.6c0,3.2,0,6.3,0,9.5
		c0,0.4,0,0.4-0.4,0.2c-0.8-0.5-1.6-0.9-2.3-1.4c-1.3-0.8-2-2-2-3.5c0-2.5,0-4.9,0-7.4c0-1.5,0.6-2.6,1.9-3.4
		c2.2-1.3,4.4-2.6,6.6-3.8c1.1-0.6,2.3-0.7,3.5-0.1c1,0.5,2,1.1,3.1,1.7c-0.6,0.3-1,0.6-1.5,0.9c-2.4,1.4-4.8,2.8-7.1,4.1
		C13.5,17.2,12.9,18.2,12.9,19.6z M29,24.5c0,1.6-0.7,2.7-2,3.5c-2.1,1.2-4.2,2.5-6.3,3.7c-1.4,0.8-2.7,0.8-4.1,0
		c-0.8-0.5-1.6-0.9-2.4-1.4c-0.3-0.2-0.3-0.2,0-0.4c2.8-1.6,5.6-3.2,8.3-4.8c1.2-0.7,1.7-1.7,1.7-3c0-1.6,0-3.2,0-4.7
		c0-1.6,0-3.3,0-4.9c0-0.4,0-0.4,0.3-0.2c0.8,0.5,1.6,0.9,2.4,1.4c1.3,0.8,2,2,2,3.5C29,19.6,29,22.1,29,24.5z"/>
	<path class="st0" d="M90.8,21.5c-0.2-0.1-0.1-0.2,0-0.3c0.3-0.3,0.6-0.6,0.8-0.9c1.6-2.6-0.3-6.4-3.3-6.6c-3.2-0.2-6.5,0-9.7,0
		c-0.2,0-0.2,0.1-0.2,0.3c0,0.4,0,0.8,0,1.2c0,0.4,0.1,0.4,0.4,0.4c2.5,0,5,0,7.5,0c0.1,0,0.3,0,0.4,0c0.7,0.1,1.1,0.5,1.2,1.2
		c0,0.8,0,1.6,0,2.4c0,0.8-0.5,1.2-1.3,1.3c-1.2,0-2.4,0-3.6,0c-0.3,0-0.4-0.1-0.4-0.4c0-1.1,0-2.2,0-3.4c0-0.3-0.1-0.4-0.4-0.4
		c-1.1,0-2.3,0-3.4,0c-0.3,0-0.4,0.1-0.4,0.4c0,2,0,4,0,6c0,2,0,3.9,0,5.9c0,0.5,0,0.5,0.5,0.5c2.9,0,5.7,0,8.6,0c0.3,0,0.6,0,1-0.1
		c1.8-0.3,3-1.3,3.6-3C92.5,24.3,92.2,22.7,90.8,21.5z M87.8,26c0,0.7-0.5,1.1-1.2,1.2c-1.3,0-2.5,0-3.8,0c-0.2,0-0.3-0.1-0.3-0.3
		c0-0.7,0-1.5,0-2.2c0-0.7,0-1.4,0-2.1c0-0.2,0.1-0.3,0.3-0.3c1.2,0,2.5,0,3.8,0c0.7,0,1.2,0.5,1.2,1.1C87.8,24.2,87.8,25.1,87.8,26
		z"/>
	<path class="st0" d="M76.4,21.3c0-1,0-1.9,0-2.9c-0.1-2.6-2.4-4.8-5-4.8c-1.3,0-2.5,0-3.8,0c-2.5,0-4.8,2.1-5,4.6
		c-0.2,2.1-0.2,4.2,0,6.2c0.2,2.3,2.2,4.3,4.5,4.5c1.4,0.1,2.8,0.1,4.2,0c2.8-0.1,4.9-2.2,5-5C76.4,23.2,76.4,22.3,76.4,21.3z
		 M72.1,25.8c0,0.9-0.5,1.3-1.3,1.3c-0.9,0-1.7,0-2.6,0c-0.8,0-1.3-0.5-1.3-1.3c0-1.5,0-3,0-4.5c0-1.5,0-3,0-4.5
		c0-0.8,0.5-1.3,1.3-1.3c0.9,0,1.8,0,2.7,0c0.8,0,1.3,0.5,1.3,1.3C72.1,19.8,72.1,22.8,72.1,25.8z"/>
	<path class="st0" d="M107.9,21.3c0-0.9,0-1.7,0-2.5c0-2.9-2.3-5.2-5.2-5.2c-1.2,0-2.4,0-3.6,0c-2.6,0-4.8,2.1-5,4.6
		c-0.1,2-0.1,4,0,6c0.1,2.5,2.1,4.5,4.6,4.7c1.4,0.1,2.9,0.1,4.3,0c2.8-0.2,4.8-2.2,4.9-5C108,23.1,107.9,22.2,107.9,21.3z
		 M103.6,25.8c0,0.9-0.5,1.3-1.3,1.3c-0.9,0-1.7,0-2.6,0c-0.8,0-1.3-0.5-1.3-1.3c0-3,0-6,0-9c0-0.8,0.4-1.3,1.2-1.3
		c0.9,0,1.9,0,2.8,0c0.8,0,1.2,0.5,1.2,1.3c0,1.5,0,3,0,4.5C103.6,22.8,103.6,24.3,103.6,25.8z"/>
</g>
</svg>
