<?xml version="1.0" encoding="utf-8"?>
<!-- Generator: Adobe Illustrator 25.0.0, SVG Export Plug-In . SVG Version: 6.00 Build 0)  -->
<svg version="1.1" id="Layer_1" xmlns="http://www.w3.org/2000/svg" xmlns:xlink="http://www.w3.org/1999/xlink" x="0px" y="0px"
	 viewBox="0 0 125 43.94" style="enable-background:new 0 0 125 43.94;" xml:space="preserve">
<style type="text/css">
	.st0{fill:#AFAFAF;}
	.st1{fill:#FFFFFF;}
</style>
<g>
	<path class="st0" d="M19.16,42.84c-1.92-0.55-3.49-1.76-5.19-2.72c-3.58-2.01-7.12-4.09-10.68-6.14c-1.46-0.84-2.18-2.08-2.18-3.77
		c0.01-5.51,0.01-11.01,0-16.52c0-1.62,0.7-2.83,2.1-3.64c4.81-2.78,9.63-5.56,14.44-8.32c1.36-0.78,2.75-0.78,4.11,0
		c4.82,2.77,9.63,5.55,14.44,8.32c1.4,0.81,2.1,2.02,2.1,3.64c0,5.54,0,11.08,0,16.63c0,1.6-0.7,2.81-2.09,3.61
		c-4.8,2.77-9.61,5.54-14.41,8.32c-0.48,0.28-1,0.4-1.51,0.59C19.92,42.84,19.54,42.84,19.16,42.84z"/>
	<path class="st0" d="M123.99,16.65c-0.37,0-0.74,0.01-1.11,0.01c-4.11,0-8.21,0-12.32,0.01c-0.36,0-0.48-0.09-0.45-0.45
		c0.03-0.4,0.01-0.81,0.01-1.21c0-0.2,0.07-0.29,0.27-0.27c0.11,0.01,0.21,0,0.32,0c4.26,0,8.52,0,12.79,0
		c0.17,0,0.33-0.01,0.5-0.01C123.99,15.37,123.99,16.01,123.99,16.65z"/>
	<path class="st0" d="M79.4,23.83c0-1.99,0.01-3.97-0.01-5.96c0-0.35,0.11-0.43,0.44-0.43c1.14,0.02,2.29,0.02,3.43,0
		c0.34-0.01,0.45,0.08,0.44,0.43c-0.02,1.12,0,2.24-0.01,3.35c0,0.27,0.07,0.37,0.36,0.37c1.2-0.01,2.41,0,3.61-0.01
		c0.8-0.01,1.27-0.47,1.28-1.26c0.01-0.8,0.01-1.59,0-2.39c-0.01-0.73-0.43-1.18-1.15-1.25c-0.14-0.02-0.29-0.01-0.43-0.01
		c-2.51,0-5.03-0.01-7.54,0.01c-0.35,0-0.46-0.09-0.43-0.44c0.03-0.4,0.01-0.81,0.01-1.21c0-0.18,0.06-0.26,0.25-0.26
		c3.24,0.01,6.48-0.13,9.71,0.05c3.07,0.17,4.94,3.98,3.33,6.58c-0.21,0.35-0.48,0.65-0.8,0.91c-0.14,0.12-0.17,0.18-0.01,0.32
		c1.41,1.23,1.68,2.78,1.14,4.48c-0.55,1.72-1.79,2.73-3.58,3.03c-0.31,0.05-0.64,0.06-0.96,0.06c-2.87,0-5.74,0-8.61,0
		c-0.47,0-0.47,0-0.47-0.49C79.4,27.75,79.4,25.79,79.4,23.83z"/>
	<path class="st0" d="M48.35,23.81c0-1.97,0.01-3.95-0.01-5.92c0-0.34,0.08-0.45,0.43-0.45c1.15,0.02,2.31,0.02,3.47,0
		c0.35-0.01,0.43,0.11,0.43,0.44c-0.01,3.31-0.01,6.61-0.01,9.92c0,0.47,0,0.47,0.46,0.47c1.13,0,2.26,0,3.39,0
		c0.92,0,1.38-0.47,1.38-1.39c0-2.94,0-5.88,0-8.81c0-0.94-0.46-1.41-1.4-1.41c-2.57-0.01-5.15-0.01-7.72,0.01
		c-0.34,0-0.46-0.09-0.44-0.44c0.03-0.4,0.01-0.81,0-1.21c0-0.21,0.08-0.29,0.29-0.29c2.82,0.01,5.65-0.03,8.47,0.02
		c2.56,0.04,4.57,1.79,5.03,4.29c0.06,0.3,0.08,0.61,0.08,0.92c0,1.83,0.05,3.67-0.04,5.49c-0.13,2.63-2.39,4.72-5.04,4.74
		c-2.81,0.02-5.62,0-8.43,0.01c-0.29,0-0.36-0.09-0.36-0.37C48.35,27.83,48.35,25.82,48.35,23.81z"/>
	<path class="st0" d="M77.49,22.49c0,0.92,0.04,1.83-0.01,2.75c-0.14,2.78-2.2,4.84-5.02,4.95c-1.41,0.06-2.83,0.09-4.25-0.04
		c-2.36-0.22-4.37-2.2-4.53-4.55c-0.15-2.07-0.15-4.16,0-6.24c0.18-2.53,2.45-4.58,4.99-4.59c1.26-0.01,2.52-0.01,3.79,0
		c2.64,0.01,4.92,2.21,5.02,4.83C77.51,20.56,77.48,21.53,77.49,22.49C77.48,22.49,77.48,22.49,77.49,22.49z"/>
	<path class="st0" d="M109.02,22.48c0,0.9,0.04,1.81-0.01,2.71c-0.13,2.77-2.09,4.79-4.91,4.99c-1.42,0.1-2.86,0.11-4.28-0.02
		c-2.53-0.24-4.49-2.2-4.63-4.72c-0.1-2-0.11-4.02,0.01-6.02c0.15-2.54,2.43-4.62,4.98-4.64c1.2-0.01,2.4,0,3.61,0
		c2.94,0,5.21,2.24,5.23,5.18C109.03,20.79,109.02,21.63,109.02,22.48C109.02,22.48,109.02,22.48,109.02,22.48z"/>
	<path class="st0" d="M119.21,23.86c0,1.97-0.01,3.95,0.01,5.92c0,0.31-0.06,0.43-0.41,0.43c-1.18-0.02-2.36-0.02-3.54,0
		c-0.27,0-0.37-0.07-0.37-0.36c0.01-4.02,0.01-8.04,0-12.05c0-0.26,0.06-0.36,0.34-0.35c1.21,0.01,2.43,0.01,3.64,0
		c0.29,0,0.33,0.11,0.33,0.36C119.2,19.82,119.21,21.84,119.21,23.86z"/>
	<path class="st1" d="M25.37,18.57c0-1.64,0-3.28,0-4.92c0-0.38,0.01-0.39,0.33-0.2c0.82,0.47,1.64,0.93,2.44,1.41
		c1.31,0.79,1.98,1.96,1.99,3.48c0.01,2.44,0.01,4.88,0,7.31c0,1.56-0.69,2.74-2.04,3.53c-2.11,1.23-4.22,2.45-6.34,3.66
		c-1.35,0.77-2.72,0.77-4.08,0c-0.8-0.45-1.59-0.91-2.38-1.37c-0.33-0.19-0.33-0.19,0.01-0.38c2.78-1.61,5.56-3.22,8.35-4.81
		c1.16-0.67,1.72-1.67,1.72-2.99C25.37,21.71,25.37,20.14,25.37,18.57z"/>
	<path class="st1" d="M24.44,12.7c-0.56,0.32-1.04,0.6-1.52,0.88c-2.38,1.37-4.76,2.75-7.14,4.12c-1.2,0.68-1.78,1.69-1.77,3.07
		c0.01,3.17,0,6.35,0,9.52c0,0.43,0,0.43-0.36,0.22c-0.78-0.45-1.57-0.89-2.35-1.36c-1.31-0.79-1.99-1.95-1.99-3.48
		c-0.01-2.46-0.01-4.92,0-7.38c0.01-1.47,0.64-2.63,1.9-3.38c2.2-1.31,4.42-2.58,6.64-3.83c1.12-0.63,2.32-0.68,3.47-0.12
		C22.36,11.46,23.35,12.09,24.44,12.7z"/>
	<path class="st1" d="M83.7,25.79c0-0.7,0.01-1.4,0-2.1c0-0.24,0.06-0.33,0.32-0.33c1.25,0.01,2.5,0,3.75,0.01
		c0.65,0,1.15,0.47,1.16,1.11c0.02,0.88,0.02,1.76,0,2.64c-0.02,0.66-0.5,1.14-1.18,1.15c-1.26,0.02-2.52,0-3.79,0.01
		c-0.24,0-0.27-0.11-0.27-0.31C83.71,27.24,83.7,26.52,83.7,25.79z"/>
	<path class="st1" d="M67.96,22.44c0-1.49,0-2.97,0-4.46c0-0.81,0.45-1.3,1.27-1.32c0.89-0.02,1.78-0.02,2.68,0
		c0.83,0.02,1.28,0.51,1.29,1.34c0,2.97,0,5.94,0,8.91c0,0.87-0.48,1.35-1.35,1.35c-0.86,0-1.71,0-2.57,0
		c-0.83,0-1.31-0.48-1.31-1.3C67.95,25.46,67.96,23.95,67.96,22.44z"/>
	<path class="st1" d="M104.7,22.45c0,1.5,0,2.99,0,4.49c0,0.85-0.48,1.33-1.33,1.33c-0.87,0-1.74,0.01-2.61,0
		c-0.81-0.01-1.29-0.48-1.3-1.29c0-3.01,0-6.01,0-9.02c0-0.77,0.44-1.27,1.22-1.29c0.93-0.03,1.86-0.03,2.78,0
		c0.79,0.03,1.23,0.52,1.23,1.32C104.7,19.48,104.7,20.96,104.7,22.45z"/>
</g>
</svg>
