<?xml version="1.0" encoding="utf-8"?>
<!-- Generator: Adobe Illustrator 25.0.0, SVG Export Plug-In . SVG Version: 6.00 Build 0)  -->
<svg version="1.1" id="Layer_1" xmlns="http://www.w3.org/2000/svg" xmlns:xlink="http://www.w3.org/1999/xlink" x="0px" y="0px"
	 viewBox="0 0 125 45.29" style="enable-background:new 0 0 125 45.29;" xml:space="preserve">
<style type="text/css">
	.st0{fill:#AFAFAF;}
	.st1{fill:#FFFFFF;}
</style>
<path class="st0" d="M111.03,21.41c0-1.4,0-2.93,0-4.47c0-0.62-0.04-1.23-0.04-1.85c0-3.66,0-7.32-0.01-10.98
	c0-0.42,0.1-0.56,0.54-0.55c1.47,0.03,2.93,0.02,4.4,0c0.39-0.01,0.53,0.07,0.53,0.5c-0.01,8.44-0.01,16.89,0,25.33
	c0,0.39-0.13,0.45-0.47,0.45c-1.61-0.02-3.23-0.01-4.84,0c-0.28,0-0.44-0.08-0.58-0.32c-3.36-5.79-7.1-11.36-9.92-17.46
	c-0.04-0.09-0.05-0.19-0.19-0.24c0.28,5.83,0.13,11.65,0.18,17.48c0,0.45-0.12,0.56-0.56,0.55c-1.47-0.03-2.93-0.02-4.4,0
	c-0.34,0-0.47-0.06-0.47-0.44c0.01-8.46,0.01-16.92,0-25.38c0-0.37,0.11-0.46,0.47-0.46c1.61,0.02,3.23,0.01,4.84,0.01
	c0.22,0,0.38,0.02,0.52,0.25c2.53,4.3,5.2,8.53,7.61,12.89C109.52,18.3,110.29,19.94,111.03,21.41z"/>
<path class="st0" d="M80.67,30.63c-2.64,0-5.23-0.7-7.46-2.48c-2.03-1.62-3.34-3.75-4.04-6.23c-1.08-3.82-1.06-7.65,0.34-11.38
	c1.73-4.61,5.08-7.2,10.02-7.68c2.78-0.27,5.41,0.18,7.83,1.65c2.47,1.5,4.07,3.7,4.94,6.41c1.43,4.49,1.36,8.94-0.69,13.23
	c-1.78,3.72-4.82,5.8-8.91,6.36C82.08,30.6,81.46,30.6,80.67,30.63z"/>
<path class="st0" d="M63.81,11.39c-0.75,0-1.5-0.03-2.25,0.01c-0.38,0.02-0.5-0.12-0.54-0.47c-0.13-1.13-0.61-2.07-1.62-2.7
	c-0.66-0.41-1.39-0.63-2.15-0.73c-1.49-0.2-2.96-0.19-4.32,0.56c-1.3,0.72-1.81,2.33-1.1,3.5c0.36,0.6,0.97,0.86,1.57,1.08
	c2.13,0.8,4.35,1.29,6.55,1.85c1.72,0.44,3.39,0.97,4.84,2.06c1.97,1.48,2.8,3.49,2.71,5.89c-0.09,2.13-0.89,3.98-2.48,5.43
	c-1.43,1.3-3.16,2.02-5.04,2.39c-3.09,0.6-6.16,0.51-9.12-0.66c-2.9-1.15-4.88-3.15-5.56-6.27c-0.13-0.61-0.15-1.22-0.22-1.84
	c-0.03-0.31,0.09-0.38,0.39-0.38c1.6,0.01,3.19,0.01,4.79,0c0.21,0,0.37,0.01,0.38,0.3c0.11,2.52,1.76,3.89,3.98,4.37
	c1.89,0.4,3.76,0.33,5.54-0.46c1.43-0.64,2.04-1.83,1.7-3.23c-0.21-0.89-0.86-1.42-1.63-1.84c-1.28-0.69-2.69-1.02-4.09-1.37
	c-1.95-0.49-3.92-0.93-5.77-1.76c-1.9-0.86-3.51-2.05-4.09-4.17c-0.92-3.33,0.22-6.64,3.42-8.54c2.28-1.35,4.76-1.76,7.36-1.6
	c1.9,0.12,3.74,0.5,5.42,1.42c2.61,1.43,3.95,3.66,4.08,6.63c0.02,0.39-0.06,0.54-0.49,0.52C65.34,11.36,64.58,11.39,63.81,11.39z"
	/>
<path class="st0" d="M0.87,16.69c0-4.2,0.01-8.4-0.01-12.59c0-0.44,0.13-0.54,0.55-0.53c6.21,0.01,12.42,0.01,18.62,0
	c0.4,0,0.53,0.09,0.52,0.51c-0.03,1.25-0.03,2.51,0,3.76c0.01,0.4-0.1,0.51-0.51,0.51c-4.33-0.02-8.67-0.01-13-0.01
	c-0.64,0-0.63,0-0.63,0.66c0,1.5,0.02,2.99-0.01,4.49c-0.01,0.5,0.16,0.57,0.6,0.57c4.01-0.02,8.02,0,12.03-0.02
	c0.46,0,0.61,0.11,0.6,0.59c-0.03,1.19-0.03,2.38,0,3.56c0.01,0.4-0.1,0.52-0.51,0.52c-4.06-0.02-8.11,0-12.17-0.02
	c-0.42,0-0.55,0.08-0.54,0.53c0.03,1.82,0.02,3.64,0,5.47c0,0.38,0.11,0.46,0.47,0.46c4.38-0.01,8.77,0,13.15-0.02
	c0.42,0,0.55,0.08,0.54,0.53c-0.04,1.25-0.03,2.51,0,3.76c0.01,0.38-0.11,0.45-0.47,0.45c-6.26-0.01-12.51-0.01-18.77,0
	c-0.37,0-0.45-0.11-0.45-0.46C0.87,25.15,0.87,20.92,0.87,16.69z"/>
<path class="st0" d="M22.8,16.71c0-4.2,0.01-8.39-0.01-12.59c0-0.41,0.08-0.56,0.53-0.56c3.47,0.02,6.94-0.03,10.41,0.02
	c2.64,0.04,5.16,0.58,7.35,2.17c1.91,1.39,2.96,3.28,3.27,5.59c0.28,1.99,0.05,3.93-0.9,5.73c-1.1,2.1-2.89,3.37-5.08,4.13
	c-1.61,0.56-3.29,0.78-4.99,0.79c-1.5,0.01-3,0.02-4.5-0.01c-0.42-0.01-0.58,0.08-0.57,0.54c0.03,2.28,0,4.56,0.02,6.83
	c0,0.39-0.11,0.49-0.49,0.48c-1.51-0.02-3.03-0.03-4.54,0c-0.46,0.01-0.52-0.14-0.52-0.55C22.81,25.1,22.8,20.9,22.8,16.71z"/>
<path class="st0" d="M111.78,39.12c-0.12,0.18-0.07,0.34-0.07,0.5c0,1.43-0.01,2.86,0,4.29c0,0.31-0.07,0.42-0.4,0.42
	c-0.83-0.01-0.83,0.01-0.83-0.8c0-2.02,0.01-4.03-0.01-6.05c0-0.38,0.12-0.41,0.46-0.45c0.69-0.08,1.07,0.18,1.41,0.78
	c0.78,1.37,1.64,2.69,2.47,4.02c0.08,0.14,0.18,0.26,0.35,0.51c0-0.27,0-0.42,0-0.57c0-1.45,0.01-2.89-0.01-4.34
	c0-0.29,0.05-0.39,0.37-0.39c0.88,0.01,0.88-0.01,0.88,0.85c0,2-0.01,4,0.01,6c0,0.33-0.08,0.41-0.42,0.45
	c-0.71,0.08-1.11-0.17-1.46-0.79c-0.79-1.38-1.66-2.71-2.5-4.07C111.95,39.37,111.87,39.25,111.78,39.12z"/>
<path class="st0" d="M75.14,40.84c0.76,0.29,0.96,0.85,0.98,1.56c0.01,0.63,0.01,1.27,0.39,1.92c-0.44,0-0.82,0-1.2,0
	c-0.27,0-0.3-0.22-0.32-0.41c-0.04-0.44-0.05-0.87-0.09-1.31c-0.08-0.9-0.47-1.25-1.39-1.26c-0.5,0-1.01,0.01-1.51-0.01
	c-0.27-0.01-0.36,0.07-0.35,0.35c0.02,0.75,0,1.5,0.01,2.24c0.01,0.28-0.04,0.4-0.36,0.4c-0.95,0.01-0.95,0.03-0.95-0.94
	c0-1.98,0.01-3.97-0.01-5.95c0-0.31,0.07-0.41,0.4-0.41c1.11,0.02,2.21-0.01,3.32,0.01c1.25,0.03,2.04,0.61,2.17,1.62
	C76.34,39.59,76.09,40.37,75.14,40.84z"/>
<path class="st0" d="M37,40.64c0-1.06,0.01-2.11-0.01-3.17c-0.01-0.33,0.07-0.45,0.42-0.44c0.84,0.03,1.69,0.01,2.54,0.01
	c1.85,0,3.04,1.04,3.24,2.87c0.09,0.79,0.08,1.59-0.19,2.36c-0.44,1.28-1.41,2-2.84,2.04c-0.94,0.03-1.89-0.01-2.83,0.01
	c-0.3,0.01-0.35-0.12-0.34-0.37C37,42.85,37,41.75,37,40.64z"/>
<path class="st0" d="M108.84,40.61c0,1.9-0.96,3.33-2.48,3.75c-2.23,0.62-4.31-0.87-4.47-3.21c-0.05-0.69,0-1.36,0.24-2.01
	c0.55-1.5,1.88-2.38,3.44-2.27c1.57,0.1,2.77,1.12,3.15,2.67C108.8,39.92,108.85,40.3,108.84,40.61z"/>
<path class="st0" d="M0.88,40.66c0-1.09,0.01-2.18-0.01-3.27c0-0.28,0.08-0.35,0.36-0.35c1.52,0.01,3.03,0.01,4.55,0
	c0.27,0,0.39,0.06,0.36,0.35c-0.02,0.14-0.02,0.29,0,0.44c0.04,0.29-0.1,0.35-0.36,0.35c-1.06-0.01-2.12,0.01-3.18-0.01
	c-0.32-0.01-0.44,0.08-0.41,0.41c0.03,0.36,0.03,0.72,0,1.07c-0.03,0.36,0.12,0.43,0.45,0.42c0.94-0.02,1.89,0.02,2.83-0.02
	c0.42-0.01,0.4,0.21,0.37,0.48c-0.02,0.25,0.15,0.6-0.37,0.58c-0.94-0.03-1.89,0-2.83-0.02c-0.33-0.01-0.47,0.06-0.45,0.42
	c0.03,0.45,0.02,0.91,0,1.37c-0.01,0.26,0.07,0.33,0.33,0.32c1.08-0.01,2.15,0.02,3.23-0.02c0.41-0.01,0.54,0.13,0.45,0.49
	c-0.05,0.22,0.24,0.63-0.25,0.64c-1.6,0.02-3.19,0-4.79,0.01c-0.32,0-0.27-0.2-0.27-0.39C0.88,42.84,0.88,41.75,0.88,40.66z"/>
<path class="st0" d="M53.93,40.76c-0.12-2.77,2.37-4.64,4.84-3.62c1.38,0.57,1.97,1.72,2.12,3.14c0.07,0.64-0.01,1.27-0.22,1.87
	c-0.56,1.65-1.99,2.52-3.78,2.32c-1.55-0.17-2.78-1.51-2.94-3.17C53.95,41.11,53.94,40.93,53.93,40.76z"/>
<path class="st0" d="M22.56,40.66c0-1.07,0.01-2.15-0.01-3.22c0-0.27,0.02-0.4,0.35-0.4c1.51,0.02,3.03,0.02,4.55,0
	c0.27,0,0.39,0.06,0.36,0.35c-0.02,0.14-0.02,0.29,0,0.44c0.04,0.29-0.1,0.35-0.37,0.35c-1.08-0.01-2.15,0.01-3.23-0.01
	c-0.29,0-0.41,0.06-0.38,0.37c0.05,0.5-0.2,1.14,0.11,1.45c0.25,0.24,0.89,0.07,1.36,0.07c0.62,0,1.24,0.01,1.86,0
	c0.23,0,0.35,0.03,0.35,0.31c0.01,0.73,0.03,0.73-0.71,0.73c-0.88,0-1.76,0.01-2.64,0c-0.24,0-0.34,0.05-0.33,0.32
	c0.02,0.47,0.03,0.94,0,1.41c-0.02,0.3,0.07,0.38,0.37,0.38c1.09-0.02,2.18,0.01,3.27-0.02c0.33-0.01,0.4,0.1,0.39,0.41
	c-0.02,0.72,0,0.72-0.72,0.72c-1.4,0-2.8-0.01-4.2,0.01c-0.32,0-0.42-0.08-0.41-0.4C22.57,42.84,22.56,41.75,22.56,40.66z"/>
<path class="st0" d="M94.44,44.49c-0.83,0.01-1.5-0.12-2.09-0.5c-0.38-0.25-0.67-0.57-0.84-0.99c-0.14-0.33-0.36-0.76-0.16-1.01
	c0.22-0.28,0.7-0.06,1.06-0.1c0.21-0.02,0.16,0.15,0.18,0.27c0.1,0.61,0.44,1.01,1.03,1.17c0.69,0.18,1.4,0.24,1.99-0.27
	c0.56-0.48,0.37-1.36-0.34-1.6c-0.68-0.23-1.37-0.38-2.06-0.58c-1.13-0.32-1.64-0.89-1.65-1.82c-0.01-0.99,0.56-1.71,1.63-2.03
	c0.96-0.28,1.9-0.22,2.78,0.29c0.61,0.36,0.97,0.89,1.03,1.61c0.02,0.2-0.03,0.3-0.25,0.28c-0.16-0.02-0.33-0.02-0.49,0
	c-0.33,0.04-0.54-0.01-0.63-0.42c-0.25-1.08-2.09-1.05-2.59-0.46c-0.42,0.5-0.14,1.21,0.58,1.43c0.75,0.22,1.52,0.37,2.25,0.61
	c1.4,0.46,1.82,2.23,0.79,3.29c-0.49,0.51-1.12,0.7-1.79,0.79C94.69,44.49,94.5,44.48,94.44,44.49z"/>
<path class="st0" d="M32.43,44.32c-0.75,0-1.5-0.01-2.25,0.01c-0.28,0.01-0.4-0.05-0.39-0.37c0.01-2.19,0.01-4.39,0-6.58
	c0-0.3,0.11-0.34,0.36-0.33c1.48,0.01,2.96,0.02,4.44,0c0.35,0,0.47,0.09,0.42,0.43c-0.02,0.13-0.02,0.26,0,0.39
	c0.03,0.27-0.1,0.32-0.34,0.32c-1.07-0.01-2.15,0.01-3.22-0.01c-0.3-0.01-0.4,0.07-0.37,0.38c0.05,0.49-0.21,1.14,0.11,1.44
	c0.25,0.24,0.89,0.07,1.36,0.07c0.59,0,1.17,0.01,1.76,0c0.29-0.01,0.43,0.04,0.42,0.39c-0.02,0.66,0,0.66-0.68,0.66
	c-0.88,0-1.76,0.01-2.64,0c-0.24,0-0.35,0.05-0.33,0.32c0.02,0.47,0.02,0.94,0,1.41c-0.02,0.29,0.06,0.39,0.37,0.38
	c1.07-0.02,2.15,0.01,3.22-0.02c0.33-0.01,0.49,0.06,0.43,0.42c-0.02,0.11-0.02,0.23,0,0.34c0.04,0.3-0.06,0.39-0.37,0.38
	C33.96,44.31,33.19,44.32,32.43,44.32z"/>
<path class="st0" d="M62.42,39.67c0-0.76,0.01-1.53-0.01-2.29c0-0.25,0.07-0.33,0.33-0.33c0.98-0.02,0.98-0.03,0.98,0.94
	c0,1.19,0.02,2.37-0.01,3.56c-0.03,1.6,0.98,2.03,2.26,1.77c0.7-0.14,1.07-0.61,1.09-1.41c0.03-1.45,0.04-2.89,0.03-4.34
	c0-0.38,0.05-0.54,0.49-0.52c0.82,0.04,0.83,0.01,0.82,0.86c-0.02,1.41,0.09,2.83-0.05,4.24c-0.13,1.34-0.95,2.14-2.29,2.32
	c-0.45,0.06-0.91,0.06-1.36-0.01c-1.45-0.22-2.26-1.15-2.29-2.64C62.41,41.1,62.42,40.38,62.42,39.67z"/>
<path class="st0" d="M10.37,39.59c0.5-0.75,0.97-1.41,1.4-2.1c0.2-0.32,0.41-0.49,0.81-0.44c0.28,0.04,0.58,0.01,0.96,0.01
	c-0.56,0.81-1.09,1.56-1.59,2.32c-0.27,0.4-0.77,0.78-0.73,1.21c0.03,0.41,0.48,0.78,0.74,1.17c0.55,0.8,1.1,1.61,1.65,2.41
	c0.02,0.03,0.03,0.06,0.07,0.16c-0.49,0-0.95,0-1.41,0c-0.21,0-0.25-0.19-0.33-0.32c-0.53-0.79-1.05-1.59-1.59-2.43
	c-0.52,0.79-1.04,1.51-1.5,2.27C8.6,44.2,8.37,44.4,7.93,44.33c-0.27-0.04-0.55-0.01-0.86-0.01c0.03-0.23,0.18-0.36,0.28-0.52
	c0.66-0.97,1.31-1.94,1.99-2.89c0.21-0.29,0.18-0.48-0.02-0.75c-0.71-1-1.4-2.02-2.15-3.12c0.51,0,0.96,0.01,1.4,0
	c0.22,0,0.26,0.17,0.34,0.3C9.39,38.07,9.86,38.8,10.37,39.59z"/>
<path class="st0" d="M14.17,40.46c0-1.63,0.96-3.04,2.52-3.46c0.88-0.24,1.74-0.16,2.57,0.22c0.49,0.22,0.87,0.56,1.14,1.03
	c0.18,0.33,0.47,0.75,0.28,1.03c-0.19,0.27-0.69,0.05-1.06,0.09c-0.19,0.02-0.2-0.13-0.25-0.25c-0.3-0.82-0.91-1.21-1.76-1.19
	c-0.89,0.01-1.52,0.47-1.86,1.27c-0.42,0.99-0.41,2,0.01,2.99c0.37,0.87,1.16,1.31,2.07,1.23c0.85-0.08,1.42-0.61,1.61-1.57
	c0.05-0.24,0.13-0.31,0.36-0.31c1.05-0.02,1.11,0.06,0.74,1.04c-0.42,1.11-1.24,1.74-2.4,1.88c-1.36,0.17-2.51-0.24-3.31-1.42
	C14.35,42.33,14.15,41.54,14.17,40.46z"/>
<path class="st0" d="M83.96,42.77c0.36-1.08,0.68-2.05,0.99-3.02c0.25-0.77,0.51-1.54,0.74-2.31c0.09-0.3,0.21-0.43,0.54-0.4
	c0.29,0.03,0.58,0.01,0.92,0.01c-0.49,1.44-0.96,2.83-1.43,4.23c-0.3,0.89-0.63,1.77-0.91,2.67c-0.1,0.3-0.23,0.39-0.55,0.39
	c-1.02-0.01-1.02,0-1.36-1.01c-0.65-1.95-1.29-3.9-1.96-5.85c-0.11-0.33-0.12-0.45,0.28-0.44c0.93,0.02,0.93,0,1.2,0.88
	C82.92,39.49,83.42,41.07,83.96,42.77z"/>
<path class="st0" d="M53.7,37.05c-0.87,1.41-1.69,2.75-2.52,4.08c-0.16,0.26-0.24,0.51-0.24,0.82c0.02,0.67-0.01,1.33,0.01,2
	c0.01,0.29-0.06,0.39-0.37,0.39c-0.92,0-0.99,0.01-0.91-0.9c0.13-1.36-0.2-2.53-1.02-3.62c-0.63-0.84-1.12-1.78-1.73-2.76
	c0.51,0,0.95,0,1.39,0c0.22,0,0.24,0.2,0.31,0.33c0.57,0.94,1.12,1.89,1.72,2.89c0.57-0.98,1.13-1.88,1.64-2.81
	c0.17-0.31,0.35-0.46,0.71-0.42C53,37.08,53.31,37.05,53.7,37.05z"/>
<path class="st0" d="M89.74,40.71c0,1.07-0.01,2.14,0.01,3.21c0.01,0.33-0.1,0.4-0.41,0.4c-0.9,0-0.9,0.01-0.9-0.88
	c0-1.98,0.01-3.96-0.01-5.94c0-0.34,0.04-0.48,0.44-0.47c0.87,0.03,0.88,0,0.88,0.9C89.74,38.86,89.74,39.79,89.74,40.71z"/>
<path class="st0" d="M98.94,40.61c0-1.07,0.01-2.14-0.01-3.21c0-0.27,0.06-0.35,0.34-0.35c0.95,0,0.95-0.02,0.95,0.91
	c0,1.96-0.01,3.93,0.01,5.89c0,0.37-0.07,0.5-0.47,0.49c-0.82-0.03-0.82,0-0.82-0.8C98.94,42.56,98.94,41.58,98.94,40.61z"/>
<path class="st0" d="M121.61,9.14c-1.45,0.08-2.96-1.28-2.91-2.94c0.04-1.58,1.36-2.91,2.94-2.9c1.59,0.01,2.92,1.34,2.92,2.92
	C124.56,7.86,123.26,9.14,121.61,9.14z"/>
<path class="st1" d="M87.7,16.78c-0.07,2.15-0.4,4.25-1.54,6.18c-2.11,3.57-7.15,3.79-9.71,1.22c-1.25-1.26-1.88-2.86-2.2-4.58
	c-0.47-2.59-0.39-5.15,0.53-7.64c0.71-1.92,1.9-3.46,3.95-4.08c3.25-0.99,6.7,0.12,8.18,4.14C87.48,13.54,87.67,15.13,87.7,16.78z"
	/>
<path class="st1" d="M28.34,12.76c0-1.35,0.01-2.7-0.01-4.05c0-0.29,0.06-0.39,0.37-0.39c1.76,0.02,3.52-0.03,5.28,0.03
	c1.37,0.05,2.68,0.38,3.71,1.38c2.2,2.14,1.4,5.92-1.47,7.02c-0.88,0.33-1.79,0.48-2.72,0.49c-1.58,0.01-3.16-0.01-4.74,0.01
	c-0.35,0-0.44-0.09-0.43-0.43C28.35,15.46,28.34,14.11,28.34,12.76z"/>
<path class="st1" d="M72.95,38.12c0.34,0,0.69-0.02,1.03,0c0.58,0.04,0.91,0.36,0.96,0.91c0.06,0.67-0.18,1.11-0.76,1.24
	c-0.77,0.18-1.56,0.04-2.34,0.08c-0.15,0.01-0.2-0.07-0.2-0.21c0-0.6,0.01-1.2,0-1.81c0-0.23,0.13-0.22,0.28-0.22
	C72.27,38.12,72.61,38.12,72.95,38.12C72.95,38.12,72.95,38.12,72.95,38.12z"/>
<path class="st1" d="M38.3,40.69c0-0.75,0.01-1.49-0.01-2.24c-0.01-0.25,0.05-0.34,0.32-0.33c0.42,0.02,0.85-0.01,1.27,0.01
	c1.11,0.04,1.78,0.61,1.99,1.7c0.12,0.63,0.11,1.26-0.03,1.88c-0.19,0.84-0.74,1.35-1.59,1.49c-0.55,0.09-1.1,0.07-1.65,0.09
	c-0.25,0.01-0.3-0.09-0.3-0.31C38.31,42.21,38.3,41.45,38.3,40.69z"/>
<path class="st1" d="M107.55,40.77c0.01,0.37-0.07,0.78-0.21,1.18c-0.34,0.96-1.07,1.49-2,1.48c-0.93-0.01-1.68-0.56-1.98-1.52
	c-0.31-0.98-0.29-1.95,0.18-2.88c0.37-0.74,1-1.11,1.81-1.11c0.81,0,1.43,0.36,1.82,1.09C107.45,39.55,107.55,40.12,107.55,40.77z"
	/>
<path class="st1" d="M55.22,40.78c0-0.52,0.06-0.93,0.2-1.34c0.33-0.96,1.05-1.51,1.98-1.52c0.92-0.01,1.68,0.54,2,1.49
	c0.33,0.98,0.3,1.95-0.16,2.88c-0.37,0.76-1.01,1.14-1.84,1.13c-0.81,0-1.43-0.38-1.81-1.11C55.32,41.81,55.22,41.26,55.22,40.78z"
	/>
<path class="st1" d="M121.65,3.65c1.42,0,2.56,1.16,2.56,2.58c0,1.42-1.16,2.58-2.57,2.58c-1.44,0-2.61-1.18-2.59-2.61
	C119.07,4.77,120.22,3.65,121.65,3.65z"/>
<path class="st0" d="M120.39,6.22c0-0.45,0.01-0.91,0-1.36c-0.01-0.24,0.06-0.36,0.32-0.35c0.44,0.02,0.88-0.01,1.32,0.01
	c0.51,0.02,0.87,0.28,1.02,0.76c0.14,0.46,0.01,0.88-0.42,1.14c-0.25,0.15-0.19,0.28-0.07,0.46c0.14,0.2,0.29,0.39,0.41,0.6
	c0.08,0.14,0.33,0.3,0.15,0.44c-0.14,0.11-0.49,0.13-0.59-0.01c-0.39-0.51-0.75-1.06-1.07-1.61c-0.11-0.18,0.12-0.18,0.24-0.18
	c0.23-0.01,0.46,0.01,0.62-0.2c0.23-0.31,0.07-0.75-0.3-0.86c-0.7-0.2-0.95-0.02-0.95,0.7c0,0.6,0,1.2,0,1.8
	c0,0.22,0.02,0.4-0.31,0.4c-0.34,0-0.37-0.17-0.36-0.42C120.4,7.1,120.39,6.66,120.39,6.22z"/>
</svg>
