<?xml version="1.0" encoding="utf-8"?>
<!-- Generator: Adobe Illustrator 25.0.0, SVG Export Plug-In . SVG Version: 6.00 Build 0)  -->
<svg version="1.1" id="Layer_1" xmlns="http://www.w3.org/2000/svg" xmlns:xlink="http://www.w3.org/1999/xlink" x="0px" y="0px"
	 viewBox="0 0 123.7 41.7" style="enable-background:new 0 0 123.7 41.7;" xml:space="preserve">
<style type="text/css">
	.st0{fill:#AFAFAF;}
</style>
<g>
	<path class="st0" d="M110.2,18.6c0-1.4,0-2.9,0-4.5c0-0.6,0-1.2,0-1.9c0-3.7,0-7.3,0-11c0-0.4,0.1-0.6,0.5-0.5c1.5,0,2.9,0,4.4,0
		c0.4,0,0.5,0.1,0.5,0.5c0,8.4,0,16.9,0,25.3c0,0.4-0.1,0.5-0.5,0.5c-1.6,0-3.2,0-4.8,0c-0.3,0-0.4-0.1-0.6-0.3
		c-3.4-5.8-7.1-11.4-9.9-17.5c0-0.1-0.1-0.2-0.2-0.2c0.3,5.8,0.1,11.6,0.2,17.5c0,0.5-0.1,0.6-0.6,0.5c-1.5,0-2.9,0-4.4,0
		c-0.3,0-0.5-0.1-0.5-0.4c0-8.5,0-16.9,0-25.4c0-0.4,0.1-0.5,0.5-0.5c1.6,0,3.2,0,4.8,0c0.2,0,0.4,0,0.5,0.2
		c2.5,4.3,5.2,8.5,7.6,12.9C108.7,15.5,109.4,17.2,110.2,18.6z"/>
	<path class="st0" d="M63,8.6c-0.8,0-1.5,0-2.2,0c-0.4,0-0.5-0.1-0.5-0.5C60,7,59.5,6.1,58.5,5.5c-0.7-0.4-1.4-0.6-2.2-0.7
		c-1.5-0.2-3-0.2-4.3,0.6C50.8,6,50.3,7.6,51,8.8c0.4,0.6,1,0.9,1.6,1.1c2.1,0.8,4.3,1.3,6.5,1.9c1.7,0.4,3.4,1,4.8,2.1
		c2,1.5,2.8,3.5,2.7,5.9c-0.1,2.1-0.9,4-2.5,5.4c-1.4,1.3-3.2,2-5,2.4C56,28.1,53,28,50,26.8c-2.9-1.1-4.9-3.1-5.6-6.3
		c-0.1-0.6-0.2-1.2-0.2-1.8c0-0.3,0.1-0.4,0.4-0.4c1.6,0,3.2,0,4.8,0c0.2,0,0.4,0,0.4,0.3c0.1,2.5,1.8,3.9,4,4.4
		c1.9,0.4,3.8,0.3,5.5-0.5c1.4-0.6,2-1.8,1.7-3.2c-0.2-0.9-0.9-1.4-1.6-1.8c-1.3-0.7-2.7-1-4.1-1.4c-2-0.5-3.9-0.9-5.8-1.8
		c-1.9-0.9-3.5-2.1-4.1-4.2c-0.9-3.3,0.2-6.6,3.4-8.5c2.3-1.3,4.8-1.8,7.4-1.6c1.9,0.1,3.7,0.5,5.4,1.4c2.6,1.4,3.9,3.7,4.1,6.6
		c0,0.4-0.1,0.5-0.5,0.5C64.5,8.6,63.7,8.6,63,8.6z"/>
	<path class="st0" d="M0,13.9C0,9.7,0,5.5,0,1.3c0-0.4,0.1-0.5,0.6-0.5c6.2,0,12.4,0,18.6,0c0.4,0,0.5,0.1,0.5,0.5
		c0,1.2,0,2.5,0,3.8c0,0.4-0.1,0.5-0.5,0.5c-4.3,0-8.7,0-13,0c-0.6,0-0.6,0-0.6,0.7c0,1.5,0,3,0,4.5c0,0.5,0.2,0.6,0.6,0.6
		c4,0,8,0,12,0c0.5,0,0.6,0.1,0.6,0.6c0,1.2,0,2.4,0,3.6c0,0.4-0.1,0.5-0.5,0.5c-4.1,0-8.1,0-12.2,0c-0.4,0-0.6,0.1-0.5,0.5
		c0,1.8,0,3.6,0,5.5c0,0.4,0.1,0.5,0.5,0.5c4.4,0,8.8,0,13.1,0c0.4,0,0.5,0.1,0.5,0.5c0,1.2,0,2.5,0,3.8c0,0.4-0.1,0.5-0.5,0.5
		c-6.3,0-12.5,0-18.8,0C0.1,27.1,0,27,0,26.6C0,22.4,0,18.1,0,13.9z"/>
	<path class="st0" d="M110.9,36.3c-0.1,0.2-0.1,0.3-0.1,0.5c0,1.4,0,2.9,0,4.3c0,0.3-0.1,0.4-0.4,0.4c-0.8,0-0.8,0-0.8-0.8
		c0-2,0-4,0-6c0-0.4,0.1-0.4,0.5-0.5c0.7-0.1,1.1,0.2,1.4,0.8c0.8,1.4,1.6,2.7,2.5,4c0.1,0.1,0.2,0.3,0.3,0.5c0-0.3,0-0.4,0-0.6
		c0-1.5,0-2.9,0-4.3c0-0.3,0.1-0.4,0.4-0.4c0.9,0,0.9,0,0.9,0.8c0,2,0,4,0,6c0,0.3-0.1,0.4-0.4,0.5c-0.7,0.1-1.1-0.2-1.5-0.8
		c-0.8-1.4-1.7-2.7-2.5-4.1C111.1,36.6,111,36.5,110.9,36.3z"/>
	<path class="st0" d="M0,37.9c0-1.1,0-2.2,0-3.3c0-0.3,0.1-0.3,0.4-0.3c1.5,0,3,0,4.6,0c0.3,0,0.4,0.1,0.4,0.3c0,0.1,0,0.3,0,0.4
		c0,0.3-0.1,0.3-0.4,0.3c-1.1,0-2.1,0-3.2,0c-0.3,0-0.4,0.1-0.4,0.4c0,0.4,0,0.7,0,1.1c0,0.4,0.1,0.4,0.5,0.4c0.9,0,1.9,0,2.8,0
		C5,37.3,5,37.5,5,37.8c0,0.2,0.2,0.6-0.4,0.6c-0.9,0-1.9,0-2.8,0c-0.3,0-0.5,0.1-0.5,0.4c0,0.5,0,0.9,0,1.4c0,0.3,0.1,0.3,0.3,0.3
		c1.1,0,2.1,0,3.2,0c0.4,0,0.5,0.1,0.4,0.5c-0.1,0.2,0.2,0.6-0.2,0.6c-1.6,0-3.2,0-4.8,0C0,41.5,0,41.3,0,41.2C0,40.1,0,39,0,37.9z"
		/>
	<path class="st0" d="M21.7,37.9c0-1.1,0-2.2,0-3.2c0-0.3,0-0.4,0.4-0.4c1.5,0,3,0,4.6,0c0.3,0,0.4,0.1,0.4,0.3c0,0.1,0,0.3,0,0.4
		c0,0.3-0.1,0.3-0.4,0.3c-1.1,0-2.1,0-3.2,0c-0.3,0-0.4,0.1-0.4,0.4c0,0.5-0.2,1.1,0.1,1.5c0.2,0.2,0.9,0.1,1.4,0.1
		c0.6,0,1.2,0,1.9,0c0.2,0,0.4,0,0.4,0.3c0,0.7,0,0.7-0.7,0.7c-0.9,0-1.8,0-2.6,0c-0.2,0-0.3,0-0.3,0.3c0,0.5,0,0.9,0,1.4
		c0,0.3,0.1,0.4,0.4,0.4c1.1,0,2.2,0,3.3,0c0.3,0,0.4,0.1,0.4,0.4c0,0.7,0,0.7-0.7,0.7c-1.4,0-2.8,0-4.2,0c-0.3,0-0.4-0.1-0.4-0.4
		C21.7,40.1,21.7,39,21.7,37.9z"/>
	<path class="st0" d="M93.6,41.7c-0.8,0-1.5-0.1-2.1-0.5c-0.4-0.2-0.7-0.6-0.8-1c-0.1-0.3-0.4-0.8-0.2-1c0.2-0.3,0.7-0.1,1.1-0.1
		c0.2,0,0.2,0.2,0.2,0.3c0.1,0.6,0.4,1,1,1.2c0.7,0.2,1.4,0.2,2-0.3c0.6-0.5,0.4-1.4-0.3-1.6c-0.7-0.2-1.4-0.4-2.1-0.6
		c-1.1-0.3-1.6-0.9-1.7-1.8c0-1,0.6-1.7,1.6-2c1-0.3,1.9-0.2,2.8,0.3c0.6,0.4,1,0.9,1,1.6c0,0.2,0,0.3-0.2,0.3c-0.2,0-0.3,0-0.5,0
		c-0.3,0-0.5,0-0.6-0.4c-0.2-1.1-2.1-1-2.6-0.5c-0.4,0.5-0.1,1.2,0.6,1.4c0.8,0.2,1.5,0.4,2.2,0.6c1.4,0.5,1.8,2.2,0.8,3.3
		c-0.5,0.5-1.1,0.7-1.8,0.8C93.8,41.7,93.6,41.7,93.6,41.7z"/>
	<path class="st0" d="M31.6,41.5c-0.8,0-1.5,0-2.2,0c-0.3,0-0.4,0-0.4-0.4c0-2.2,0-4.4,0-6.6c0-0.3,0.1-0.3,0.4-0.3c1.5,0,3,0,4.4,0
		c0.3,0,0.5,0.1,0.4,0.4c0,0.1,0,0.3,0,0.4c0,0.3-0.1,0.3-0.3,0.3c-1.1,0-2.2,0-3.2,0c-0.3,0-0.4,0.1-0.4,0.4c0,0.5-0.2,1.1,0.1,1.4
		c0.2,0.2,0.9,0.1,1.4,0.1c0.6,0,1.2,0,1.8,0c0.3,0,0.4,0,0.4,0.4c0,0.7,0,0.7-0.7,0.7c-0.9,0-1.8,0-2.6,0c-0.2,0-0.4,0-0.3,0.3
		c0,0.5,0,0.9,0,1.4c0,0.3,0.1,0.4,0.4,0.4c1.1,0,2.2,0,3.2,0c0.3,0,0.5,0.1,0.4,0.4c0,0.1,0,0.2,0,0.3c0,0.3-0.1,0.4-0.4,0.4
		C33.1,41.5,32.3,41.5,31.6,41.5z"/>
	<path class="st0" d="M61.6,36.9c0-0.8,0-1.5,0-2.3c0-0.2,0.1-0.3,0.3-0.3c1,0,1,0,1,0.9c0,1.2,0,2.4,0,3.6c0,1.6,1,2,2.3,1.8
		c0.7-0.1,1.1-0.6,1.1-1.4c0-1.5,0-2.9,0-4.3c0-0.4,0.1-0.5,0.5-0.5c0.8,0,0.8,0,0.8,0.9c0,1.4,0.1,2.8-0.1,4.2
		c-0.1,1.3-0.9,2.1-2.3,2.3c-0.4,0.1-0.9,0.1-1.4,0c-1.5-0.2-2.3-1.2-2.3-2.6C61.5,38.3,61.6,37.6,61.6,36.9z"/>
	<path class="st0" d="M9.5,36.8c0.5-0.8,1-1.4,1.4-2.1c0.2-0.3,0.4-0.5,0.8-0.4c0.3,0,0.6,0,1,0c-0.6,0.8-1.1,1.6-1.6,2.3
		c-0.3,0.4-0.8,0.8-0.7,1.2c0,0.4,0.5,0.8,0.7,1.2c0.6,0.8,1.1,1.6,1.6,2.4c0,0,0,0.1,0.1,0.2c-0.5,0-0.9,0-1.4,0
		c-0.2,0-0.2-0.2-0.3-0.3c-0.5-0.8-1.1-1.6-1.6-2.4c-0.5,0.8-1,1.5-1.5,2.3c-0.2,0.4-0.5,0.6-0.9,0.5c-0.3,0-0.6,0-0.9,0
		c0-0.2,0.2-0.4,0.3-0.5c0.7-1,1.3-1.9,2-2.9c0.2-0.3,0.2-0.5,0-0.8c-0.7-1-1.4-2-2.2-3.1c0.5,0,1,0,1.4,0c0.2,0,0.3,0.2,0.3,0.3
		C8.5,35.3,9,36,9.5,36.8z"/>
	<path class="st0" d="M13.3,37.7c0-1.6,1-3,2.5-3.5c0.9-0.2,1.7-0.2,2.6,0.2c0.5,0.2,0.9,0.6,1.1,1c0.2,0.3,0.5,0.8,0.3,1
		c-0.2,0.3-0.7,0-1.1,0.1c-0.2,0-0.2-0.1-0.2-0.2c-0.3-0.8-0.9-1.2-1.8-1.2c-0.9,0-1.5,0.5-1.9,1.3c-0.4,1-0.4,2,0,3
		c0.4,0.9,1.2,1.3,2.1,1.2c0.9-0.1,1.4-0.6,1.6-1.6c0-0.2,0.1-0.3,0.4-0.3c1,0,1.1,0.1,0.7,1c-0.4,1.1-1.2,1.7-2.4,1.9
		c-1.4,0.2-2.5-0.2-3.3-1.4C13.5,39.6,13.3,38.8,13.3,37.7z"/>
	<path class="st0" d="M83.1,40c0.4-1.1,0.7-2,1-3c0.2-0.8,0.5-1.5,0.7-2.3c0.1-0.3,0.2-0.4,0.5-0.4c0.3,0,0.6,0,0.9,0
		c-0.5,1.4-1,2.8-1.4,4.2c-0.3,0.9-0.6,1.8-0.9,2.7c-0.1,0.3-0.2,0.4-0.6,0.4c-1,0-1,0-1.4-1c-0.7-2-1.3-3.9-2-5.8
		c-0.1-0.3-0.1-0.5,0.3-0.4c0.9,0,0.9,0,1.2,0.9C82.1,36.7,82.6,38.3,83.1,40z"/>
	<path class="st0" d="M52.8,34.3c-0.9,1.4-1.7,2.8-2.5,4.1c-0.2,0.3-0.2,0.5-0.2,0.8c0,0.7,0,1.3,0,2c0,0.3-0.1,0.4-0.4,0.4
		c-0.9,0-1,0-0.9-0.9c0.1-1.4-0.2-2.5-1-3.6c-0.6-0.8-1.1-1.8-1.7-2.8c0.5,0,1,0,1.4,0c0.2,0,0.2,0.2,0.3,0.3
		c0.6,0.9,1.1,1.9,1.7,2.9c0.6-1,1.1-1.9,1.6-2.8c0.2-0.3,0.3-0.5,0.7-0.4C52.1,34.3,52.5,34.3,52.8,34.3z"/>
	<path class="st0" d="M88.9,37.9c0,1.1,0,2.1,0,3.2c0,0.3-0.1,0.4-0.4,0.4c-0.9,0-0.9,0-0.9-0.9c0-2,0-4,0-5.9c0-0.3,0-0.5,0.4-0.5
		c0.9,0,0.9,0,0.9,0.9C88.9,36.1,88.9,37,88.9,37.9z"/>
	<path class="st0" d="M98.1,37.8c0-1.1,0-2.1,0-3.2c0-0.3,0.1-0.3,0.3-0.3c0.9,0,0.9,0,0.9,0.9c0,2,0,3.9,0,5.9
		c0,0.4-0.1,0.5-0.5,0.5c-0.8,0-0.8,0-0.8-0.8C98.1,39.8,98.1,38.8,98.1,37.8z"/>
	<path class="st0" d="M91.4,8.1c-0.9-2.7-2.5-4.9-4.9-6.4c-2.4-1.5-5-1.9-7.8-1.6c-4.9,0.5-8.3,3.1-10,7.7
		c-1.4,3.7-1.4,7.6-0.3,11.4c0.7,2.5,2,4.6,4,6.2c2.2,1.8,4.8,2.5,7.5,2.5c0.8,0,1.4,0,2-0.1c4.1-0.6,7.1-2.6,8.9-6.4
		C92.8,17.1,92.9,12.6,91.4,8.1z M85.3,20.2c-2.1,3.6-7.1,3.8-9.7,1.2c-1.2-1.3-1.9-2.9-2.2-4.6c-0.5-2.6-0.4-5.2,0.5-7.6
		c0.7-1.9,1.9-3.5,3.9-4.1c3.2-1,6.7,0.1,8.2,4.1c0.6,1.5,0.8,3.1,0.8,4.8C86.8,16.2,86.4,18.3,85.3,20.2z"/>
	<path class="st0" d="M43.5,8.6c-0.3-2.3-1.4-4.2-3.3-5.6c-2.2-1.6-4.7-2.1-7.4-2.2c-3.5,0-6.9,0-10.4,0c-0.5,0-0.5,0.2-0.5,0.6
		c0,4.2,0,8.4,0,12.6c0,4.2,0,8.4,0,12.6c0,0.4,0.1,0.6,0.5,0.5c1.5,0,3,0,4.5,0c0.4,0,0.5-0.1,0.5-0.5c0-2.3,0-4.5,0-6.8
		c0-0.5,0.2-0.5,0.6-0.5c1.5,0,3,0,4.5,0c1.7,0,3.4-0.2,5-0.8c2.2-0.8,4-2,5.1-4.1C43.5,12.5,43.8,10.6,43.5,8.6z M35.4,14
		c-0.9,0.3-1.8,0.5-2.7,0.5c-1.6,0-3.2,0-4.7,0c-0.4,0-0.4-0.1-0.4-0.4c0-1.4,0-2.7,0-4.1c0-1.3,0-2.7,0-4c0-0.3,0.1-0.4,0.4-0.4
		c1.8,0,3.5,0,5.3,0c1.4,0,2.7,0.4,3.7,1.4C39,9.1,38.2,12.9,35.4,14z"/>
	<path class="st0" d="M75.3,39.6c0-0.7-0.2-1.3-1-1.6c1-0.5,1.2-1.2,1.1-2.2c-0.1-1-0.9-1.6-2.2-1.6c-1.1,0-2.2,0-3.3,0
		c-0.3,0-0.4,0.1-0.4,0.4c0,2,0,4,0,5.9c0,1,0,1,0.9,0.9c0.3,0,0.4-0.1,0.4-0.4c0-0.7,0-1.5,0-2.2c0-0.3,0.1-0.4,0.3-0.4
		c0.5,0,1,0,1.5,0c0.9,0,1.3,0.4,1.4,1.3c0,0.4,0,0.9,0.1,1.3c0,0.2,0.1,0.4,0.3,0.4c0.4,0,0.8,0,1.2,0
		C75.3,40.9,75.3,40.3,75.3,39.6z M73.3,37.5c-0.8,0.2-1.6,0-2.3,0.1c-0.2,0-0.2-0.1-0.2-0.2c0-0.6,0-1.2,0-1.8
		c0-0.2,0.1-0.2,0.3-0.2c0.4,0,0.7,0,1,0c0.3,0,0.7,0,1,0c0.6,0,0.9,0.4,1,0.9C74.1,36.9,73.9,37.4,73.3,37.5z"/>
	<path class="st0" d="M42.3,37.1c-0.2-1.8-1.4-2.9-3.2-2.9c-0.9,0-1.7,0-2.5,0c-0.3,0-0.4,0.1-0.4,0.4c0,1.1,0,2.1,0,3.2
		c0,1.1,0,2.2,0,3.3c0,0.2,0,0.4,0.3,0.4c0.9,0,1.9,0,2.8,0c1.4,0,2.4-0.8,2.8-2C42.4,38.7,42.4,37.9,42.3,37.1z M41,38.9
		c-0.2,0.8-0.7,1.3-1.6,1.5c-0.5,0.1-1.1,0.1-1.7,0.1c-0.2,0-0.3-0.1-0.3-0.3c0-0.8,0-1.5,0-2.3c0-0.8,0-1.5,0-2.2
		c0-0.2,0.1-0.3,0.3-0.3c0.4,0,0.9,0,1.3,0c1.1,0,1.8,0.6,2,1.7C41.1,37.7,41.1,38.3,41,38.9z"/>
	<path class="st0" d="M107.9,36.8c-0.4-1.5-1.6-2.6-3.1-2.7c-1.6-0.1-2.9,0.8-3.4,2.3c-0.2,0.7-0.3,1.3-0.2,2
		c0.2,2.3,2.2,3.8,4.5,3.2c1.5-0.4,2.5-1.9,2.5-3.8C108,37.5,107.9,37.1,107.9,36.8z M106.5,39.2c-0.3,1-1.1,1.5-2,1.5
		c-0.9,0-1.7-0.6-2-1.5c-0.3-1-0.3-2,0.2-2.9c0.4-0.7,1-1.1,1.8-1.1s1.4,0.4,1.8,1.1c0.3,0.5,0.4,1.1,0.4,1.8
		C106.7,38.4,106.6,38.8,106.5,39.2z"/>
	<path class="st0" d="M57.9,34.4c-2.5-1-5,0.9-4.8,3.6c0,0.2,0,0.4,0,0.5c0.2,1.7,1.4,3,2.9,3.2c1.8,0.2,3.2-0.7,3.8-2.3
		c0.2-0.6,0.3-1.2,0.2-1.9C59.9,36.1,59.3,34.9,57.9,34.4z M58.4,39.5c-0.4,0.8-1,1.1-1.8,1.1c-0.8,0-1.4-0.4-1.8-1.1
		c-0.3-0.5-0.4-1-0.4-1.5c0-0.5,0.1-0.9,0.2-1.3c0.3-1,1.1-1.5,2-1.5c0.9,0,1.7,0.5,2,1.5C58.9,37.6,58.8,38.6,58.4,39.5z"/>
	<path class="st0" d="M120.8,0.5c-1.6,0-2.9,1.3-2.9,2.9c0,1.7,1.5,3,2.9,2.9c1.7,0,3-1.3,3-2.9C123.7,1.9,122.4,0.5,120.8,0.5z
		 M120.8,6c-1.4,0-2.6-1.2-2.6-2.6c0-1.4,1.2-2.5,2.6-2.5c1.4,0,2.6,1.2,2.6,2.6C123.4,4.9,122.2,6,120.8,6z"/>
	<path class="st0" d="M119.5,3.4c0-0.4,0-0.9,0-1.4c0-0.2,0.1-0.4,0.3-0.3c0.4,0,0.9,0,1.3,0c0.5,0,0.9,0.3,1,0.8
		c0.1,0.5,0,0.9-0.4,1.1c-0.2,0.2-0.2,0.3-0.1,0.5c0.1,0.2,0.3,0.4,0.4,0.6c0.1,0.1,0.3,0.3,0.2,0.4c-0.1,0.1-0.5,0.1-0.6,0
		c-0.4-0.5-0.8-1.1-1.1-1.6c-0.1-0.2,0.1-0.2,0.2-0.2c0.2,0,0.5,0,0.6-0.2c0.2-0.3,0.1-0.8-0.3-0.9c-0.7-0.2-0.9,0-0.9,0.7
		c0,0.6,0,1.2,0,1.8c0,0.2,0,0.4-0.3,0.4c-0.3,0-0.4-0.2-0.4-0.4C119.5,4.3,119.5,3.9,119.5,3.4z"/>
</g>
</svg>
