<?xml version="1.0" encoding="utf-8"?>
<!-- Generator: Adobe Illustrator 25.0.0, SVG Export Plug-In . SVG Version: 6.00 Build 0)  -->
<svg version="1.1" id="Layer_1" xmlns="http://www.w3.org/2000/svg" xmlns:xlink="http://www.w3.org/1999/xlink" x="0px" y="0px"
	 viewBox="0 0 125 46.38" style="enable-background:new 0 0 125 46.38;" xml:space="preserve">
<style type="text/css">
	.st0{fill:#AFAFAF;}
	.st1{fill:#FFFFFF;}
</style>
<path class="st0" d="M62.51,31.63c-0.14-0.13-0.22-0.2-0.3-0.28c-1.69-1.69-3.38-3.38-5.07-5.07c-3.17-3.17-6.35-6.34-9.53-9.51
	c-0.2-0.2-0.23-0.3-0.01-0.52c4.89-4.86,9.76-9.73,14.64-14.6c0.2-0.2,0.28-0.18,0.47,0.01c4.87,4.87,9.75,9.74,14.63,14.61
	c0.2,0.2,0.21,0.29,0,0.49c-4.88,4.86-9.76,9.73-14.63,14.6C62.63,31.44,62.58,31.53,62.51,31.63z M58.99,19.79
	c2.18-2.18,4.3-4.3,6.48-6.48c0.01,0.14,0.02,0.18,0.02,0.23c0,1.92,0,3.83,0.01,5.75c0,0.2-0.09,0.33-0.22,0.46
	c-0.85,0.85-1.7,1.7-2.56,2.54c-0.18,0.18-0.25,0.36-0.25,0.61c0.01,2.36,0,4.73,0.01,7.09c0,0.11-0.04,0.22,0.06,0.34
	c0.06-0.05,0.11-0.09,0.15-0.13c4.5-4.49,8.99-8.98,13.49-13.46c0.2-0.2,0.13-0.29-0.03-0.44c-4.47-4.46-8.94-8.92-13.41-13.38
	c-0.07-0.07-0.11-0.18-0.26-0.15c0,0.12,0,0.25,0,0.38c0,1.87-0.01,3.73,0.01,5.6c0,0.35-0.1,0.59-0.35,0.83
	c-0.99,0.96-1.96,1.95-2.94,2.92c-0.14,0.14-0.22,0.29-0.22,0.5c0.01,2.18,0,4.37,0.01,6.55C58.97,19.58,58.98,19.64,58.99,19.79z"
	/>
<g>
	<g>
		<path class="st0" d="M108.19,45.09c-0.86,0-1.71-0.01-2.57,0c-0.24,0-0.3-0.04-0.24-0.3c0.13-0.58,0.24-1.18,0.32-1.77
			c0.04-0.28,0.13-0.35,0.41-0.35c1.52,0.01,3.04,0,4.57,0.01c0.32,0,0.54-0.1,0.68-0.39c0.19-0.42,0.01-0.7-0.45-0.71
			c-0.84-0.01-1.69,0.04-2.53-0.03c-1.77-0.14-2.75-1.63-2.23-3.33c0.45-1.48,1.94-2.58,3.49-2.58c1.52,0,3.04,0.01,4.57-0.01
			c0.26,0,0.35,0.03,0.28,0.32c-0.13,0.6-0.23,1.2-0.32,1.81c-0.04,0.24-0.15,0.3-0.38,0.3c-1.43-0.01-2.87-0.01-4.3,0
			c-0.43,0-0.68,0.2-0.73,0.57c-0.05,0.36,0.1,0.52,0.47,0.52c0.79,0,1.59-0.01,2.38,0c1.59,0.03,2.69,1.21,2.55,2.71
			c-0.16,1.69-1.79,3.19-3.5,3.21C109.82,45.1,109.01,45.09,108.19,45.09z"/>
		<path class="st0" d="M124,44.77c0.02,0.22-0.03,0.33-0.3,0.32c-0.82-0.03-1.64-0.02-2.46-0.03c-0.03-0.37-0.07-0.74-0.09-1.11
			c-0.01-0.21-0.1-0.25-0.28-0.25c-1.02,0.01-2.05,0.01-3.07,0c-0.18,0-0.27,0.06-0.34,0.23c-0.13,0.32-0.28,0.63-0.41,0.95
			c-0.06,0.14-0.13,0.22-0.31,0.22c-0.84-0.01-1.69,0-2.58,0c0.26-0.58,0.5-1.12,0.74-1.66c0.86-1.92,1.71-3.83,2.57-5.75
			c0.69-1.55,2.22-2.42,3.83-2.19c1.09,0.15,1.89,0.94,2,2.05C123.55,39.94,123.77,42.36,124,44.77z M119.76,41.28
			c0.27,0,0.54-0.01,0.8,0c0.25,0.02,0.33-0.04,0.3-0.32c-0.1-0.88-0.17-1.77-0.25-2.66c-0.02-0.18,0-0.39-0.22-0.43
			c-0.21-0.03-0.3,0.16-0.37,0.33c-0.42,0.94-0.83,1.88-1.26,2.82c-0.09,0.19-0.08,0.27,0.16,0.26
			C119.2,41.27,119.48,41.28,119.76,41.28z"/>
		<path class="st0" d="M101.26,45.09c-1.07,0-2.15,0-3.22,0c-1.6-0.24-2.47-1.35-2.23-2.94c0.33-2.1,0.72-4.2,1.09-6.29
			c0.02-0.12,0.05-0.21,0.21-0.21c0.84,0.01,1.68,0,2.55,0c-0.33,1.86-0.65,3.68-0.97,5.5c-0.06,0.31-0.12,0.63-0.17,0.94
			c-0.07,0.42,0.08,0.6,0.51,0.6c0.68,0,1.36,0,2.03,0c0.44,0,0.66-0.18,0.74-0.61c0.36-2.03,0.72-4.07,1.07-6.1
			c0.04-0.26,0.13-0.33,0.39-0.33c0.7,0.02,1.41,0.01,2.11,0c0.22,0,0.27,0.04,0.22,0.28c-0.38,2.1-0.73,4.2-1.1,6.29
			C104.22,43.64,102.88,44.82,101.26,45.09z"/>
	</g>
	<g>
		<path class="st0" d="M83.66,45.06c-1.58,0.01-3.17,0.01-4.75,0.02c-0.38,0-0.77,0.01-1.15,0.02c-1.65-0.2-2.56-1.45-2.25-3.1
			c0.22-1.18,0.4-2.36,0.64-3.54c0.31-1.51,1.88-2.8,3.42-2.81c1.8-0.01,3.61,0,5.41-0.01c0.28,0,0.35,0.07,0.3,0.34
			c-0.12,0.59-0.22,1.18-0.31,1.77c-0.04,0.25-0.15,0.32-0.4,0.32c-1.65-0.01-3.3-0.01-4.95-0.01c-0.55,0-0.74,0.15-0.83,0.68
			c-0.19,1.07-0.38,2.13-0.55,3.2c-0.1,0.62,0.01,0.73,0.62,0.73c0.74,0,1.48-0.01,2.23,0.01c0.23,0.01,0.3-0.08,0.35-0.29
			c0.18-0.87,0.18-0.87-0.71-0.87c-0.58,0-0.58,0-0.47-0.56c0.1-0.53,0.2-1.05,0.28-1.58c0.03-0.19,0.08-0.29,0.31-0.29
			c1.2,0.01,2.4,0.01,3.61,0c0.35,0,0.25,0.2,0.21,0.38c-0.32,1.8-0.64,3.59-0.96,5.38C83.68,44.93,83.67,44.99,83.66,45.06z"/>
		<path class="st0" d="M67.94,45.08c-0.89-0.01-1.78-0.02-2.67-0.03c0.13-0.74,0.26-1.47,0.39-2.21c0.4-2.27,0.81-4.55,1.2-6.82
			c0.05-0.3,0.15-0.39,0.46-0.39c1.74,0.02,3.48,0.01,5.22,0.01c1.73,0,2.8,1.29,2.57,3c-0.15,1.15-0.59,2.1-1.56,2.78
			c-0.11,0.07-0.15,0.13-0.09,0.28c0.42,1.09,0.61,2.24,0.92,3.35c-0.91,0.04-1.82,0.04-2.73,0c-0.19-0.78-0.39-1.56-0.58-2.34
			c-0.09-0.38-0.29-0.6-0.73-0.56c-0.32,0.03-0.64,0.01-1,0.01c0.13-0.77,0.26-1.52,0.38-2.26c0.03-0.2,0.18-0.18,0.32-0.18
			c0.54,0,1.07-0.01,1.61,0.01c0.33,0.01,0.51-0.15,0.59-0.43c0.07-0.25,0.12-0.52,0.14-0.79c0.02-0.29-0.13-0.45-0.44-0.45
			c-0.83,0-1.66,0.01-2.49,0c-0.22,0-0.27,0.1-0.3,0.29c-0.38,2.17-0.76,4.34-1.15,6.51C68,44.94,67.97,45.01,67.94,45.08z"/>
		<path class="st0" d="M89.82,45.09c-0.74,0-1.48,0-2.23,0c-1.58-0.01-2.7-1.26-2.48-2.82c0.18-1.27,0.41-2.54,0.67-3.8
			c0.33-1.58,1.91-2.81,3.54-2.81c1.52,0,3.04,0,4.57,0c0.24,0,0.34,0.03,0.27,0.31c-0.14,0.58-0.24,1.18-0.32,1.77
			c-0.04,0.28-0.14,0.35-0.41,0.35c-1.38-0.01-2.76-0.01-4.14-0.01c-0.6,0-0.94,0.36-0.91,0.96c0.01,0.23,0.19,0.13,0.29,0.13
			c0.97,0.01,1.94,0,2.92,0c0.58,0,1.15,0.01,1.73,0c0.22,0,0.28,0.04,0.23,0.28c-0.13,0.6-0.25,1.2-0.31,1.81
			c-0.04,0.32-0.18,0.36-0.45,0.35c-1.47-0.01-2.94,0-4.41,0c-0.46,0-0.55,0.11-0.54,0.64c0.01,0.37,0.23,0.46,0.56,0.46
			c1.41-0.01,2.81,0,4.22-0.01c0.3,0,0.36,0.06,0.3,0.36c-0.13,0.58-0.23,1.18-0.32,1.77c-0.03,0.23-0.13,0.29-0.35,0.28
			C91.43,45.08,90.63,45.09,89.82,45.09z"/>
		<path class="st0" d="M59.99,45.09c-0.46,0-0.92,0-1.38,0c-1.58-0.02-2.71-1.34-2.45-2.89c0.2-1.23,0.42-2.46,0.66-3.69
			c0.3-1.54,1.88-2.84,3.46-2.86c0.88-0.01,1.76,0,2.65,0c1.72,0,2.83,1.31,2.55,3.01c-0.2,1.17-0.4,2.34-0.62,3.5
			c-0.3,1.6-1.9,2.92-3.53,2.93C60.88,45.09,60.43,45.09,59.99,45.09z M61.24,38.06c-0.36,0-0.72,0.01-1.07,0
			c-0.39-0.01-0.6,0.2-0.67,0.55c-0.21,1.17-0.42,2.33-0.61,3.5c-0.07,0.41,0.09,0.57,0.5,0.57c0.68,0,1.35,0,2.03,0
			c0.44,0,0.65-0.14,0.73-0.57c0.22-1.18,0.42-2.36,0.62-3.54c0.06-0.33-0.1-0.5-0.45-0.5C61.96,38.06,61.6,38.06,61.24,38.06z"/>
		<path class="st0" d="M42.06,41.56c-0.41,0-0.82,0.02-1.23-0.01c-0.29-0.02-0.4,0.09-0.44,0.36c-0.15,0.93-0.33,1.86-0.47,2.79
			c-0.05,0.3-0.15,0.4-0.46,0.39c-0.68-0.03-1.36-0.02-2.03,0c-0.22,0-0.29-0.05-0.25-0.28c0.53-2.96,1.06-5.93,1.57-8.89
			c0.04-0.24,0.14-0.28,0.35-0.28c0.67,0.01,1.33,0.02,2,0c0.33-0.01,0.42,0.08,0.35,0.4c-0.18,0.93-0.33,1.86-0.51,2.79
			c-0.05,0.26-0.03,0.36,0.28,0.36c0.88-0.02,1.77-0.02,2.65,0c0.24,0,0.32-0.07,0.36-0.31c0.16-0.98,0.36-1.96,0.51-2.94
			c0.04-0.23,0.13-0.29,0.34-0.29c0.68,0.01,1.36,0.02,2.03,0c0.3-0.01,0.37,0.08,0.31,0.36c-0.35,1.91-0.68,3.82-1.01,5.73
			c-0.17,0.99-0.35,1.98-0.52,2.98c-0.05,0.28-0.13,0.41-0.46,0.39c-0.65-0.03-1.31-0.03-1.96,0c-0.34,0.01-0.37-0.09-0.31-0.39
			c0.18-0.9,0.31-1.81,0.5-2.71c0.08-0.38-0.05-0.46-0.39-0.44C42.88,41.58,42.47,41.56,42.06,41.56z"/>
		<path class="st0" d="M33.78,45.09c-1.82,0-3.64,0-5.46,0c-0.03-0.44,0.12-0.85,0.19-1.27c0.06-0.37-0.01-0.88,0.27-1.07
			c0.25-0.18,0.71-0.06,1.08-0.06c1.25,0,2.51-0.01,3.76,0c0.32,0,0.55-0.11,0.68-0.4c0.19-0.44-0.03-0.73-0.45-0.71
			c-0.85,0.03-1.72,0.05-2.57-0.03c-1.69-0.15-2.64-1.54-2.23-3.18c0.38-1.52,1.93-2.73,3.49-2.73c1.53,0,3.07,0.01,4.6-0.01
			c0.27,0,0.35,0.06,0.29,0.34c-0.13,0.58-0.24,1.17-0.33,1.77c-0.04,0.26-0.14,0.33-0.39,0.33c-1.43-0.01-2.86-0.01-4.3,0
			c-0.43,0-0.67,0.2-0.72,0.58c-0.04,0.33,0.11,0.51,0.45,0.51c0.81,0.01,1.61-0.01,2.42,0.01c1.27,0.02,2.31,0.84,2.5,1.96
			c0.15,0.93-0.09,1.78-0.68,2.51C35.72,44.45,34.86,44.96,33.78,45.09z"/>
		<path class="st0" d="M20.34,45.06c-0.92,0-1.84,0.01-2.76,0.01c0.25-0.74,0.6-1.43,0.92-2.14c0.79-1.78,1.59-3.56,2.39-5.34
			c0.72-1.6,2.57-2.51,4.14-2.03c0.97,0.3,1.57,0.96,1.67,1.98c0.24,2.42,0.45,4.85,0.69,7.28c0.02,0.22-0.06,0.26-0.25,0.26
			c-0.75-0.01-1.51-0.01-2.26,0c-0.23,0-0.28-0.1-0.29-0.29c-0.02-0.28-0.06-0.56-0.07-0.84c-0.01-0.19-0.08-0.26-0.28-0.26
			c-1.02,0.01-2.05,0.01-3.07,0c-0.19,0-0.27,0.08-0.34,0.24C20.67,44.32,20.5,44.69,20.34,45.06z M23.16,41.29
			c0.28,0,0.56-0.01,0.84,0c0.19,0.01,0.28-0.04,0.25-0.26c-0.1-0.94-0.18-1.87-0.27-2.81c-0.01-0.14-0.02-0.3-0.19-0.34
			c-0.19-0.04-0.29,0.1-0.35,0.24c-0.45,0.98-0.88,1.97-1.33,2.96c-0.09,0.2,0.01,0.21,0.16,0.21
			C22.57,41.28,22.87,41.29,23.16,41.29z"/>
		<path class="st0" d="M3.68,45.06c-0.89,0-1.79,0.01-2.68,0.01c0.09-1.02,0.33-2.01,0.5-3.02c0.18-1.09,0.4-2.18,0.58-3.28
			c0.3-1.82,1.85-3.14,3.7-3.14c1.48,0,2.97,0.01,4.45-0.01c0.29,0,0.35,0.08,0.29,0.35c-0.12,0.59-0.22,1.18-0.31,1.77
			c-0.04,0.26-0.16,0.32-0.41,0.32c-1.41-0.01-2.81-0.01-4.22-0.01c-0.53,0-0.9,0.43-0.82,0.95c0.04,0.23,0.21,0.13,0.33,0.13
			c1.47,0.01,2.94,0,4.41,0c0.46,0,0.45,0,0.37,0.47c-0.1,0.53-0.2,1.05-0.28,1.58c-0.04,0.28-0.14,0.4-0.45,0.39
			c-1.5-0.02-2.99,0-4.49-0.02c-0.28,0-0.37,0.1-0.42,0.35C4.06,42.98,3.87,44.02,3.68,45.06z"/>
		<path class="st0" d="M49.44,45.08c-0.89-0.01-1.78-0.02-2.68-0.03c0.38-2.13,0.76-4.27,1.13-6.4c0.28-1.63,1.85-2.99,3.5-3.01
			c1.55-0.01,3.09,0.01,4.64-0.01c0.3,0,0.33,0.08,0.27,0.35c-0.12,0.56-0.21,1.13-0.29,1.7c-0.04,0.28-0.14,0.4-0.46,0.39
			c-1.37-0.02-2.74-0.01-4.1-0.01c-0.61,0-0.78,0.17-0.88,0.76c-0.05,0.29,0.05,0.34,0.31,0.34c1.46-0.01,2.92-0.01,4.37-0.01
			c0.48,0,0.48,0,0.4,0.46c-0.1,0.55-0.22,1.1-0.29,1.66c-0.04,0.27-0.15,0.33-0.39,0.33c-1.5-0.01-2.99,0-4.49-0.01
			c-0.3,0-0.41,0.08-0.46,0.39C49.84,43.01,49.71,44.06,49.44,45.08z"/>
		<path class="st0" d="M16.64,45.05c-1.08,0.07-2.16,0.01-3.25,0.03c-0.27,0-0.53,0.01-0.8,0.01c-1.64-0.25-2.5-1.44-2.21-3.1
			c0.35-2.02,0.72-4.04,1.07-6.06c0.04-0.22,0.12-0.29,0.35-0.29c0.72,0.02,1.43,0.01,2.15,0c0.21,0,0.28,0.03,0.24,0.28
			c-0.37,2.04-0.73,4.09-1.09,6.13c-0.08,0.46,0.06,0.63,0.54,0.63c1.02,0,2.04,0.01,3.07,0c0.26,0,0.35,0.03,0.29,0.33
			C16.85,43.68,16.75,44.37,16.64,45.05z"/>
	</g>
</g>
<path class="st1" d="M58.99,19.79c-0.01-0.15-0.01-0.21-0.01-0.26c0-2.18,0-4.37-0.01-6.55c0-0.21,0.08-0.36,0.22-0.5
	c0.98-0.97,1.95-1.96,2.94-2.92c0.25-0.24,0.36-0.48,0.35-0.83c-0.02-1.87-0.01-3.73-0.01-5.6c0-0.13,0-0.25,0-0.38
	c0.15-0.02,0.2,0.09,0.26,0.15c4.47,4.46,8.94,8.92,13.41,13.38c0.15,0.15,0.23,0.24,0.03,0.44c-4.5,4.48-9,8.97-13.49,13.46
	c-0.04,0.04-0.09,0.08-0.15,0.13c-0.09-0.11-0.06-0.23-0.06-0.34c0-2.36,0-4.73-0.01-7.09c0-0.25,0.07-0.43,0.25-0.61
	c0.86-0.84,1.7-1.7,2.56-2.54c0.13-0.13,0.22-0.26,0.22-0.46c-0.01-1.92,0-3.83-0.01-5.75c0-0.05-0.01-0.09-0.02-0.23
	C63.29,15.48,61.17,17.61,58.99,19.79z"/>
</svg>
