<?xml version="1.0" encoding="utf-8"?>
<!-- Generator: Adobe Illustrator 25.0.0, SVG Export Plug-In . SVG Version: 6.00 Build 0)  -->
<svg version="1.1" id="Layer_1" xmlns="http://www.w3.org/2000/svg" xmlns:xlink="http://www.w3.org/1999/xlink" x="0px" y="0px"
	 viewBox="0 0 125 34.86" style="enable-background:new 0 0 125 34.86;" xml:space="preserve">
<style type="text/css">
	.st0{fill:#AFAFAF;}
</style>
<g id="Layer_2_1_">
	<g id="NAV_BAR">
		<g>
			<g>
				<path class="st0" d="M50.01,20.1h5v6.32c-1.72,0.78-3.59,1.19-5.48,1.2c-2.18,0.1-4.32-0.68-5.92-2.17
					c-1.46-1.39-2.26-3.32-2.22-5.33c-0.04-2.1,0.81-4.12,2.34-5.55c1.54-1.48,3.61-2.28,5.75-2.22c0.8-0.01,1.61,0.09,2.39,0.28
					c0.99,0.26,1.96,0.59,2.9,0.99v2.17c-1.6-0.98-3.42-1.51-5.29-1.55c-1.54-0.03-3.03,0.57-4.11,1.67
					c-1.1,1.07-1.71,2.55-1.68,4.08c-0.09,1.57,0.5,3.09,1.61,4.2c1.16,1.09,2.72,1.67,4.31,1.61c1.05-0.04,2.08-0.23,3.06-0.59
					l0.2-0.07v-3.13h-2.9L50.01,20.1z"/>
				<rect x="57.25" y="12.54" class="st0" width="1.94" height="14.9"/>
				<path class="st0" d="M65.93,19.36c-0.86-0.03-1.69,0.3-2.3,0.92c-0.6,0.62-0.93,1.47-0.9,2.33c-0.03,0.86,0.3,1.7,0.92,2.3
					c0.63,0.6,1.49,0.92,2.36,0.89c0.87,0.04,1.73-0.28,2.35-0.89c0.61-0.61,0.94-1.45,0.91-2.31c0.03-0.87-0.32-1.71-0.95-2.31
					c-0.64-0.62-1.5-0.95-2.39-0.92 M66.05,17.62c1.39-0.04,2.73,0.48,3.72,1.45c0.97,0.95,1.49,2.26,1.45,3.62
					c0.03,1.34-0.52,2.63-1.51,3.53c-1.03,0.94-2.39,1.45-3.79,1.4c-1.38,0.03-2.71-0.49-3.69-1.45c-0.96-0.93-1.49-2.22-1.45-3.56
					c-0.04-1.37,0.5-2.69,1.5-3.62c1.01-0.97,2.37-1.49,3.77-1.45"/>
				<path class="st0" d="M74.6,20.19v5.32c0.66,0.2,1.35,0.3,2.04,0.3c0.8,0.03,1.57-0.29,2.11-0.89c0.56-0.65,0.85-1.49,0.82-2.35
					c0.04-0.86-0.23-1.71-0.77-2.38c-0.48-0.6-1.22-0.94-1.99-0.92c-0.83,0.05-1.61,0.39-2.21,0.96 M72.66,12.54h1.94v5.79
					c0.77-0.59,1.72-0.92,2.69-0.92c1.18-0.03,2.3,0.49,3.05,1.4c0.82,1.02,1.24,2.31,1.19,3.62c0.06,1.4-0.46,2.77-1.45,3.77
					c-1.01,0.95-2.36,1.45-3.74,1.4c-0.67,0-1.34-0.07-2-0.2c-0.58-0.09-1.14-0.26-1.67-0.51L72.66,12.54z"/>
				<path class="st0" d="M83.27,17.62h1.95v9.82h-1.95V17.62z M84.24,13.5c0.31-0.01,0.6,0.11,0.82,0.33
					c0.23,0.21,0.35,0.5,0.35,0.81c0,0.31-0.12,0.6-0.35,0.81c-0.21,0.22-0.51,0.34-0.82,0.34c-0.3,0-0.59-0.13-0.79-0.35
					c-0.44-0.42-0.46-1.12-0.03-1.57c0.01-0.01,0.02-0.02,0.03-0.03C83.65,13.62,83.94,13.5,84.24,13.5"/>
				<path class="st0" d="M87.55,26.74v-2.09c0.52,0.37,1.09,0.69,1.68,0.93c0.46,0.21,0.95,0.33,1.45,0.35
					c0.37,0.01,0.73-0.1,1.04-0.3c0.26-0.15,0.42-0.42,0.43-0.72c0.01-0.27-0.09-0.53-0.28-0.72c-0.37-0.31-0.78-0.59-1.22-0.81
					c-0.92-0.45-1.75-1.05-2.46-1.79c-0.37-0.46-0.58-1.03-0.58-1.62c-0.02-0.72,0.31-1.4,0.88-1.85c0.65-0.5,1.45-0.75,2.27-0.72
					c1.04,0.03,2.06,0.32,2.96,0.85v1.92c-0.84-0.59-1.81-0.95-2.83-1.05c-0.32-0.02-0.64,0.07-0.91,0.24
					c-0.22,0.13-0.35,0.38-0.35,0.64c0.01,0.25,0.12,0.49,0.31,0.65c0.34,0.28,0.71,0.53,1.11,0.72l0.72,0.39
					c1.64,0.93,2.46,1.95,2.46,3.07c0.01,0.77-0.34,1.51-0.95,1.98c-0.7,0.55-1.57,0.84-2.46,0.8c-0.53,0.01-1.05-0.06-1.56-0.19
					C88.67,27.25,88.1,27.02,87.55,26.74"/>
				<path class="st0" d="M97.94,21.54h4.94c-0.01-0.66-0.27-1.3-0.72-1.79c-0.44-0.43-1.05-0.66-1.67-0.63
					c-0.63-0.02-1.25,0.2-1.71,0.63c-0.48,0.49-0.78,1.11-0.87,1.79 M104.8,22.74h-6.9c0.01,0.84,0.35,1.64,0.94,2.24
					c0.61,0.57,1.42,0.87,2.25,0.83c1.28,0,2.52-0.42,3.54-1.19v1.9c-0.55,0.38-1.15,0.66-1.78,0.85c-0.67,0.18-1.37,0.27-2.06,0.26
					c-0.92,0.04-1.83-0.19-2.62-0.67c-0.68-0.46-1.23-1.08-1.61-1.81c-0.41-0.81-0.62-1.72-0.6-2.63c-0.05-1.32,0.4-2.62,1.27-3.62
					c0.84-0.93,2.04-1.45,3.3-1.4c1.19-0.05,2.34,0.45,3.12,1.36c0.82,1.04,1.23,2.34,1.16,3.66V22.74z"/>
				<path class="st0" d="M108.85,17.62v1.25c0.72-0.9,1.8-1.43,2.95-1.45c0.6,0,1.19,0.16,1.71,0.47c0.52,0.31,0.93,0.76,1.2,1.3
					c0.32,0.84,0.46,1.73,0.41,2.62v5.62h-1.94v-5.59c0.07-0.75-0.09-1.51-0.46-2.17c-0.37-0.46-0.95-0.7-1.54-0.64
					c-0.96,0.03-1.84,0.55-2.33,1.38v7.03h-1.98v-9.82H108.85z"/>
				<path class="st0" d="M117.35,26.74v-2.09c0.54,0.37,1.11,0.69,1.72,0.93c0.46,0.21,0.95,0.33,1.45,0.35
					c0.37,0.01,0.73-0.09,1.04-0.3c0.26-0.15,0.43-0.42,0.44-0.72c0.01-0.27-0.09-0.53-0.28-0.72c-0.38-0.31-0.79-0.59-1.22-0.81
					c-0.92-0.45-1.75-1.06-2.46-1.79c-0.37-0.46-0.58-1.03-0.58-1.62c-0.02-0.72,0.31-1.41,0.88-1.85c0.65-0.5,1.45-0.75,2.27-0.72
					c1.04,0.02,2.05,0.3,2.95,0.81v1.92c-0.85-0.58-1.84-0.93-2.87-1.01c-0.32-0.02-0.64,0.07-0.91,0.24
					c-0.22,0.14-0.35,0.38-0.34,0.64c0.01,0.25,0.12,0.49,0.31,0.65c0.34,0.28,0.71,0.52,1.1,0.72l0.72,0.39
					c1.64,0.93,2.46,1.95,2.46,3.07c0.02,0.77-0.33,1.51-0.94,1.98c-0.69,0.54-1.55,0.81-2.43,0.77c-0.53,0.01-1.05-0.06-1.56-0.19
					c-0.59-0.18-1.17-0.41-1.72-0.69"/>
			</g>
			<g>
				<path class="st0" d="M29.26,2.12c0.81,0.07-0.36-0.37,0.55,0C29.65,2.25,29.42,2.25,29.26,2.12"/>
				<path class="st0" d="M45.24,22.01c-2.39,1.45-6.03,0.77-8.89,1.32c-0.34,0.04,0.09-0.48-0.68-0.36c-2.82,0.67-7.24,0-10.59-0.95
					l0.22-0.11c-0.63-0.17-1.45,0.18-2.17,0c0-0.09,0.23-0.09,0.09-0.24c-0.21,0.25-1.25-0.04-1.57,0.11
					c-0.25-0.15-0.19-0.36-0.51-0.54l-0.44,0.24c-1.21,0.55-2.61-0.51-4.15-0.46c0.09-0.05,0.25-0.08,0.14-0.17
					c-2.73-0.23-5.41-0.84-7.97-1.81c0.14-0.07,0.3-0.21,0.21-0.38c-0.25,0.25-1.06,0.04-1.75-0.24c-0.15-0.43-1.27-0.28-1.93-0.88
					h0.1c-0.72,0-0.68-0.68-1.36-0.62l-0.09-0.47c-0.51,0.18-0.58-0.72-1.09-0.98l-0.06,0.08c-0.46-0.28-0.43-0.65-0.77-1v-0.07
					c-0.72-0.87-0.64-1.63-0.98-1.51C1.16,12.55,1.52,14,1.7,13.26C0.53,11.59,2.22,9.5,3.98,9.14c1.71-0.53,3.49-0.82,5.29-0.87
					c0.41,0.13,0.67,0.17,0.72,0.3c0.55-0.04,1.1-0.14,1.64-0.29c-0.12,0,0.22,0.19,0.41,0.21c0.64,0.14,0.72-0.4,1.4-0.22
					c-0.28,0.09-0.38,0.21-0.29,0.34c0.69-0.2,1.4-0.28,2.11-0.25c-0.11,0.06-0.28,0.08-0.26,0.2c0.79-0.29,1.4,0.14,2.09,0
					l-0.27,0.2c1.07,0.33,0.35-0.43,1.28-0.2c-0.22,0.05-0.15,0.14-0.2,0.22c0.91-0.32,2.32-0.07,3.21-0.1
					c-0.03,0.01-0.05,0.05-0.04,0.08c0.96,0.05,1.94,0.28,3.01,0.25c0.37,0.14-0.19,0.49,0.83,0.54c0-0.43,1.72,0.07,1.2-0.49
					c0.91,0.26,1.84,0.43,2.77,0.51c-0.41,0.09,0.33,0.58-0.38,0.5l0.49,0.34c-0.11,0.16-0.54-0.14-0.41,0.09
					c0.58,0.02,1.15,0.08,1.72,0.19c0.8-0.28,1.66-0.35,2.49-0.19c-0.54,0,0.13,0.54-0.22,0.5c0.55-0.08,1.13-0.2,1.72-0.22
					c0.35,0.14-0.07,0.34,0.47,0.46c0-0.11,0.28-0.08,0.46-0.08c0.19,0,1.45,0.72,1.32,1.22c0,0.23-0.54-0.3-0.3,0.07
					c0.43,0.23,0.82,0.53,1.17,0.88v0.04c0.27,0.35,0.78,1.3,0.82,0.67c-0.13-0.38-0.17,0.22-0.28-0.35
					c0.65,0.62,0.79,1.6,0.34,2.38c0.09-0.33-0.06-0.35-0.12-0.51c-0.12,1.38-1.37,2.17-2.38,2.61c0.05,0.2,0.3-0.48,0.49-0.43
					c-1.45,0.28-2.81,1.04-3.97,0.64c0.18,0,0.1,0.28,0.09,0.22c-0.64,0-0.62-0.3-1.03-0.2c-0.04-0.17-0.52,0-0.95,0.06
					c-0.22,0.12-0.11-0.09,0.26-0.09c-1.44,0.2-2.91,0.11-4.31-0.28c0,0.12-0.91,0.27-1.22,0.19l0.17-0.23
					c-0.25-0.21-1.05-0.18-1.05-0.41c-0.72,0.18,2.59,0.23,1.65,0.3c-0.19-0.26-1.33,0.17-1.06-0.14c-0.62-0.1-1.29,0-1.83-0.36
					c0.17,0.09,0.59-0.22,0.09-0.33c-0.88-0.19-0.28,0.07-1.01-0.06l-0.47-0.04c-0.11,0.23-0.77-0.3-0.54,0.08
					c-0.04-0.2-1.33-0.36-1.07-0.72l0.25-0.25c-0.37-0.14-0.72,0.05-1.1,0.05c-0.04-0.05-0.1-0.15-0.07-0.2
					c-0.35,0.39-0.85-0.54-1.45-0.54c-0.61-0.65-1.73-1.48-1.74-2.07c-0.66-0.43-1.14-1.08-1.36-1.83c0.09,0.19,0.23,0.37,0.35,0.38
					c-0.09-0.41-0.24-0.81-0.43-1.19c0,0.14,0.19-1.31,0.64-1.79c0.25-0.72-0.1-0.67-0.21-0.83c0.72-0.38,1.35-1.83,2.32-1.92
					c-0.22,0.1-0.72,0.84-0.19,0.54c0.72,0.11,0.96-0.85,1.99-1.02l-0.42-0.33c0.5,0,1.39-0.54,1.38-0.14
					c0.3-0.2,1.17-0.05,1.01-0.44c1.61,0.14,3.94-0.21,4.77,0.72c0.23,0,0.77,0.12,0.72-0.1c-0.33-0.28-0.55,0.08-0.65-0.09
					c0.12,0.02,0.24-0.03,0.3-0.14c0.47,0.15,0.82,0.3,0.3,0.51c0.95,0.54,1.25-0.35,2.54,0.22c-0.12,0.15,0,0.2,0.35,0.36
					l0.82,0.09c0.8,0.48,0.28,0.58,0.17,0.84c0.39,0.2,0.81,0.34,1.25,0.4l0.25,0.66c-0.18-0.48,0.41,0.11,0.63,0.2l-0.22-0.09
					c0,0.15,0.47,0.44,0.72,0.59c0.07-0.17-0.33-0.59-0.55-0.83c0.28,0.06,0.56,0.33,0.93,0.43c-0.25,0.12,0.49,0.67,0.68,1.04
					c0.2,0.38,0.53,0.25,0.61,0.36c-0.11,0.1,0.45,0.62,0.06,0.44c-0.13-0.09-0.11-0.36-0.38-0.49c0.1,0.31-0.1,0.41,0.4,0.82
					c0.33,0.33,0.41-0.41,0.72,0.49c-0.17-0.18-0.29-0.16-0.46-0.27l0.26,0.8l0.25-0.08c0,0.13-0.07,0.07-0.07,0.13
					c0.41,0.09,0.56,1.12,0.9,1.21c0.12,0.42,0.17,0.85,0.16,1.29v-0.07c-0.03,0.52,0.1,1.04,0.38,1.48h-0.06
					c-0.01,0.42,0.04,0.83,0.14,1.24c-0.17,0.67-0.96,0.24-0.61,0.95c-0.04,0.63,0.38,1.04,0.57,0.79
					c-0.22,1.17-0.09,2.59-0.72,3.56c0.04,0.2,0.14,0.11,0.09,0.46c-0.52,1.65-1.09,3.62-2.22,4.56c0.15-0.5-0.2-0.16-0.33-0.23
					c0,0.49-0.46,0.28-0.22,0.62c0.22,0.09,0.3,0.2,0.64-0.17c-0.46,0.96-1.45,2.26-2.06,2.51c0.28-0.14,0.17,0.07,0.07,0.3
					c-0.24-0.33-0.72,0.25-1.14,0.72l0.09,0.22l-0.46,0.07c-0.13,0.2,0.09,0.53-0.51,0.72c-0.08-0.07-0.18-0.1-0.28-0.09
					c-0.43,0.46-1.04,1.25-1.77,1.38l-0.66-0.09c-0.26,0.14-0.67,0.51-0.14,0.41c-0.76,0.28-1.59,0.32-2.38,0.12
					c-1.85,0.98-4.62,1.04-6.87,0.59l0.09-0.15c-0.57-0.25-0.36,0.24-0.76,0.06c0.22-0.13-0.38-0.42,0.12-0.54
					c-0.8-0.29-1.14,0-1.71,0c-0.14,0.19,0.48,0,0.3,0.22c-0.12,0.05-1.12-0.49-1.36-0.22c-0.16-0.22,0.08-0.37,0.24-0.46
					l-0.56-0.05c-0.46-0.56,1.61-0.15,1.13-0.84l-0.46-0.09c-0.29-0.46,1.27,0,0.23-0.46c-0.5,0-1.09,0.25-0.72,0.56
					c-1.02-0.34-0.79,0.57-1.86,0c-0.21-0.3,0.88,0.4,0.8,0c-0.41-0.42-1.05-0.4-1.45-0.72c0.42,0.39-0.16,0.45-0.51,0.3
					c-0.46-0.45,0.51-0.06-0.22-0.54c-0.22,0.08-0.96-0.31-0.48,0.23c-0.51,0.15-0.67-0.67-1.27-0.72c0-0.41,1.17,0,0.51-0.72
					c-0.09,0.36-1.13-0.54-1.07,0.15c-0.22-0.35-0.08-0.54,0.25-0.46c-0.24-0.51-1.35-0.59-0.99-1.13l-0.35,0.04
					c0-0.2-0.12-0.44-0.16-0.76c-0.31-0.35-1.19-1.09-0.77-1.27c-0.12-0.11-0.64-1.07-0.72-0.56c0.17,0.72,0.59,0.57,0.42,1.12
					c0.05-0.6-0.55-0.84-0.84-1.16l0.13-0.14c-0.16-0.19-0.34-0.72-0.57-0.78c0.17,0.14,0.24,0,0.2-0.2l-0.37-0.13
					c-0.49-0.87,0.35-0.38,0-1.24l0.4,0.61c-0.09-0.14,0.07-0.51-0.14-0.91c-0.28-0.09-0.66-0.33-0.89-0.43
					c-0.24-0.5,0.22-0.3-0.13-0.72l0.42,0.6c0.09,0.08,0.3-0.54,0.18-1.2c-0.16-0.41-0.63-1.05-0.64-0.33
					c-0.08-0.35,0.05-0.85,0.25-0.6c-0.14-0.77-0.26,0.14-0.46-0.54c0.16-0.57,0.35-1.13,0.57-1.68l0.41,0.68V18.7
					c0.31,0.57,0.26-0.29,0.59,0c0.03-0.32-0.01-0.65-0.12-0.96c-0.59,0.88-0.72-1.04-1.22-0.83c0.04-1.3,1.27-0.62,0.72-2.04
					C5,15.07,4.76,14.38,4.73,15.2c0.22-0.76-0.38-0.64,0-1.51c0.05,0.72,0.66-0.59,0.72,0.44c-0.15-0.1-0.25,0.51-0.24,0.66
					c0.27-0.27,0.49,0.17,0.66-0.59c0-0.48,0.25-1.09,0-1.08c-0.25,0.01-0.2,0.72-0.38,0.33c0.2-0.96,0.67-0.96,0.3-1.51
					c-0.14,0.59-0.48,0.65-0.67,0.58l0.12-0.72L5.39,12c0.52-1.05-0.22-0.45,0.28-1.5l0.56-0.33c0.2,0.38-0.78,1.45-0.2,1.45
					c0.3-0.65,0.14-0.98,0.54-1.56l-0.1,0.51c0.12-0.24,0.83-0.16,0.96-1.23c0.11-0.54-0.1-0.22-0.27-0.33
					c0.3-0.7,0.63-1.38,0.99-2.05c0.2,0.33,0.84-1.04,0.64-0.15c-0.4,0.17-1.38,1.58-1.2,2.17c0.59-0.13-0.49,0.72-0.2,1.19
					c0.44-0.78,0.82-0.52,1.14-0.5c0.09-0.19,0.15-0.4,0.17-0.62c-0.19-0.24-0.35,0-0.6-0.09c0.52-0.69,0.91-1.46,1.16-2.29
					C9.59,6.5,9.74,6.77,9.51,7.09C10.2,6.1,11.04,5.23,12,4.52c-0.88,0.11,0.92-0.88,0.29-0.85c-0.55,0.3-1.19,0.4-1.05,0
					c0.33-0.22,0.12,0.17,0.31,0.13c0.24-0.51,0.86-0.17,1.01-0.79c-0.8,0.82,0.17,0.58,0.22,0.99c0.49-0.64,0.13,0.22,0.72-0.25
					c0.58-0.66,1.25-1.24,1.99-1.71c1.11-0.22,2.53-1.09,3.48-1.36c0.54,0.06,0.31,0.53,0.85,0.48s-0.56-0.32,0.4-0.35l-0.07,0.1
					c0.26-0.21,1.72,0,1.93-0.62l-0.24,0.47c0.17,0,0.33-0.1,0.46-0.17c0,0.14,0.23,0.25-0.04,0.38c0.59,0.21,1.17-0.13,1.8-0.15
					l-0.41-0.25c1.07-0.25,1.78,0,2.81,0.06l-0.05,0.25l0.66-0.09c-0.17,0.24,0.35,0.41,0.72,0.29c-0.54,0.1-1.09,0.3-1.61,0.46
					c-0.41-0.19,0.49-0.27,0.25-0.54c-0.25-0.28-1.23-0.26-1.38-0.01C25.28,1,25.51,0.98,25.72,0.9c0.09,0.37-0.45,0.29-0.72,0.53
					c0.18,0,0.43,0.12,0.49,0c-0.42,0.13-0.85,0.2-1.29,0.2c0.41-0.14-0.22-0.22-0.07-0.33c-0.07,0.33-0.65,0.43-1.38,0.37
					c-0.56-0.28-1.35,0.35-2.17,0.44c0.29-0.42,0.71-0.73,1.19-0.89c-0.39-0.02-0.79-0.02-1.18,0c-0.2,0.43-0.54,0.77-0.96,0.98
					l-0.09-0.22c-0.59,0.25-0.49,0.62-1.25,0.81c-1.24,0.33-2.42,0.86-3.5,1.57L14.62,4.2c-0.24,0.69-1.45,1.29-1.9,1.98
					c-1.14,0.72-1.78,2.22-2.46,2.56c-1.11,1.97-1.95,4.08-2.49,6.28l-0.23-0.48c0.14,0.49-0.25,0.23-0.3,0.67
					c0.38-0.42,0.18,0.65,0.38,0.98c-0.34,1.09-0.3,2.26,0.1,3.33l-0.19,0.05c0.49,0.9,0.25,2.04,0.54,3.18
					c-0.12,0.24-0.15,0.51-0.08,0.77c0.62,0.44,0.67,0.79,1.31,1.45c0.29,0.59,0.83,1.51,1.14,2.13c1.98,1.53,4.03,3.06,6.66,3.43
					l0.11,0.32c2.48,0.07,5.91,0.57,7.79-0.13l-0.09,0.49c0.72,0.09,1.37-0.56,1.09-0.79c0.67,0,1.28-0.86,1.83-0.72
					c0.62-0.25,0.51-0.67,0.9-1.04c0.88-0.57,1.6-1.36,2.07-2.29l-0.2,0.24c0,0.18,0.14,0.31,0.36,0.07
					c0.21-0.44,1.08-1.45,0.35-1.31c1.04-1.02,1.14-2.97,1.92-4.12c-0.17,0.07-0.11-0.26-0.19-0.43c0.25-1.15,0.72-2.39,0.44-3.33
					c0.07-0.19,0.27,0.3,0.27-0.18c-0.07-0.28-0.2,0-0.3-0.35c-0.35-1.81-0.35-3.75-1.38-5.07c-2.14-2.14-4.96-3.46-7.97-3.74
					l0.04-0.1c-0.97,0.34-2.39-0.59-3.06,0.24c-0.23-0.07-0.84,0.09-0.72-0.15c-0.62,0.38-2.17,0.35-2.46,1.24
					c0.07-0.04,0.08-0.08,0.12-0.17c-1.08,0.63-0.72,0.58-0.72,1.35c-0.07-0.05-0.12-0.16-0.23-0.15c-0.2,0.36,0.77,0.5,0.39,0.96
					c0.16,0.19,0.33,0,0.22-0.13c1.27,2.17,4.21,3.01,7.15,3.49c2.05,0.72-0.04,0.93,1.71,0.84c0.12,0.12,0.13-0.19,0.14-0.08
					c0.67-0.06,0.95,0.72,1.45,0.53c-0.15-0.35,0.33-0.15,0.36-0.35c1.3,0.35,1.56,0.65,2.61,0.45l-0.09,0.17
					c1.23-0.46,2.64-0.23,3.35-1.02c0.46-0.08,0.9-0.28,1.26-0.59c0.8,0.2-0.24,0.33-0.2,0.1c-0.96-0.86-2.12-1.46-3.37-1.76
					c-2.79-0.77-6.45-1.04-9.72-1.45c-6.29-0.72-14.04-1.3-18.53,0.37c-0.72,0.08-0.64-0.2-0.35,0.51c-0.08,0-0.1-0.05-0.16,0
					c0.35-0.11,0.38,0.72,0.79,0.61c0.93,1.45,2.95,2.51,5.15,3.42c-0.37-0.11-0.67,0.1-0.24,0.25l0.54-0.04l0.04,0.13
					c0.31,0.07,0.72,0,0.44-0.21c5.85,1.86,12.09,3.62,18.42,4.09c1.75,0.25,3.51,0.34,5.27,0.25c4.39,0.62,10.21,0.94,12.8-0.72
					c0-0.15,0.8,0.94-1.32,1.77"/>
				<path class="st0" d="M28.29,1.97c-0.13-0.22-0.68-0.42-0.19-0.59C28.1,1.58,28.38,1.82,28.29,1.97"/>
				<path class="st0" d="M12.99,3.18c0,0.06-0.22,0.09-0.29,0.09c0.16-0.14,0.21-0.4,0.41-0.4C12.94,3,13.02,3.06,12.99,3.18"/>
				<path class="st0" d="M9.8,5.96c-0.09-0.17,0.43-0.94,0.82-1.33C10.32,5.06,10.05,5.5,9.8,5.96"/>
				<path class="st0" d="M6.93,8.85c-0.29,0.24-0.31,0.12-0.08-0.3C6.95,8.54,6.91,8.72,6.93,8.85"/>
				<path class="st0" d="M7.13,9.28C7.02,9.49,6.85,9.67,6.65,9.77C6.78,9.83,6.93,9.05,7.13,9.28"/>
				<path class="st0" d="M4.26,17.54c0,0.22,0.13,0.68-0.06,0.88C4.34,18.2,4.02,17.36,4.26,17.54"/>
				<path class="st0" d="M4.74,21.67c-0.01,0.12,0.01,0.23,0.07,0.34c-0.04,0.26-0.2,0-0.25-0.18L4.74,21.67z"/>
				<polygon class="st0" points="17.96,5.78 18.35,5.7 18.36,5.52 				"/>
				<path class="st0" d="M38.2,16.72c0.29-0.59,0.39-0.29,0.48-0.38C38.35,16.86,38.63,16.06,38.2,16.72"/>
				<polygon class="st0" points="24.87,9.38 24.95,9.05 24.83,9.04 				"/>
			</g>
		</g>
	</g>
</g>
</svg>
