<?xml version="1.0" encoding="utf-8"?>
<!-- Generator: Adobe Illustrator 25.0.0, SVG Export Plug-In . SVG Version: 6.00 Build 0)  -->
<svg version="1.1" id="Layer_1" xmlns="http://www.w3.org/2000/svg" xmlns:xlink="http://www.w3.org/1999/xlink" x="0px" y="0px"
	 viewBox="0 0 125 48" style="enable-background:new 0 0 125 48;" xml:space="preserve">
<style type="text/css">
	.st0{fill:#AFAFAF;}
</style>
<path class="st0" d="M0.02,12.59c2.11-3.57,5.58-5.54,9.02-7.5c2.85-1.63,5.87-2.92,9.06-3.77c0.28-0.07,0.55-0.17,1.01-0.07
	c-0.72,0.68-1.36,1.31-2.02,1.91c-2.67,2.47-5.19,5.05-7.11,8.16c-0.99,1.6-1.82,3.27-2.06,5.16c-0.09,0.69-0.34,0.83-1.01,0.69
	c-1.58-0.34-3.12-0.79-4.6-1.43c-0.92-0.39-1.67-0.99-2.29-1.77C0.02,13.51,0.02,13.05,0.02,12.59z"/>
<path class="st0" d="M124.48,44.92c-0.48,0.29-1,0.38-1.56,0.36c-0.86-0.04-1.73-0.05-2.59,0c-1.43,0.08-2.5-0.52-3.35-1.61
	c-0.97-1.25-1.94-2.5-2.93-3.74c-0.19-0.24-0.35-0.42-0.08-0.73c1.09-1.22,2.17-2.46,3.25-3.7c0.35-0.4,0.49-0.03,0.64,0.17
	c1.35,1.71,2.7,3.44,4.05,5.16c0.85,1.08,1.71,2.15,2.57,3.23C124.48,44.34,124.48,44.63,124.48,44.92z"/>
<path class="st0" d="M47.97,33.26c0-3.31,0-6.62,0-9.94c0-1.42,0.51-1.93,1.92-1.93c4.61,0,9.23-0.02,13.84,0.01
	c2.43,0.02,4.68,0.62,6.45,2.42c2.21,2.25,2.21,6.03-0.01,8.26c-0.38,0.38-0.44,0.53,0.03,0.88c3.94,2.91,3.26,9.1-1.21,11.2
	c-1.59,0.75-3.25,1.11-5.01,1.11c-4.7-0.01-9.4,0-14.1-0.01c-1.3,0-1.9-0.59-1.91-1.9C47.96,40,47.97,36.63,47.97,33.26z
	 M59.5,35.07c-1.53,0-3.06,0.01-4.59-0.01c-0.45-0.01-0.69,0.09-0.68,0.61c0.03,1.47,0.02,2.94,0,4.41c0,0.46,0.13,0.68,0.64,0.68
	c3-0.01,6,0.02,9-0.02c1.62-0.02,2.61-1.16,2.59-2.83c-0.02-1.82-0.99-2.83-2.73-2.84C62.32,35.06,60.91,35.06,59.5,35.07z
	 M59.16,25.9c-1.41,0-2.83,0-4.24,0c-0.36,0-0.69-0.02-0.68,0.51c0.02,1.24,0.01,2.48,0,3.72c0,0.4,0.16,0.59,0.56,0.58
	c2.91-0.07,5.83,0.15,8.73-0.12c1.38-0.12,2.01-1.04,1.92-2.56c-0.08-1.34-0.88-2.1-2.23-2.11C61.87,25.9,60.52,25.9,59.16,25.9z"/>
<path class="st0" d="M87.65,45.8c-3.19-0.03-5.7-0.29-8.05-1.36c-2.57-1.17-4.32-3.11-5.18-5.82c-1.02-3.24-1.04-6.52-0.24-9.79
	c0.97-4,3.63-6.41,7.56-7.37c3.6-0.88,7.26-0.89,10.86,0.04c4.04,1.05,6.6,3.61,7.51,7.72c0.63,2.88,0.61,5.76-0.12,8.62
	c-1.04,4.11-3.79,6.45-7.82,7.41C90.47,45.65,88.76,45.83,87.65,45.8z M94.18,33.28c0.09-0.79-0.06-1.62-0.17-2.44
	c-0.34-2.72-2.04-4.62-4.69-5.2c-1.48-0.33-2.97-0.33-4.45,0c-2.35,0.52-3.86,1.95-4.47,4.29c-0.52,2.01-0.56,4.04-0.19,6.07
	c0.49,2.69,1.99,4.47,4.74,5.06c1.54,0.33,3.09,0.27,4.61-0.11c2.03-0.5,3.42-1.73,4.07-3.72C94.05,35.96,94.26,34.66,94.18,33.28z"
	/>
<path class="st0" d="M20.94,18.47c-3,0.06-5.87-0.21-8.75-0.43c-0.68-0.05-0.85-0.33-0.82-0.97c0.13-2.78,1.33-5.14,2.79-7.41
	c1.88-2.95,4.24-5.51,6.59-8.08c0.23-0.25,0.42-0.49,0.76-0.12c3.23,3.6,6.57,7.11,8.55,11.63c0.55,1.25,0.8,2.57,0.96,3.92
	c0.08,0.71-0.16,0.97-0.86,1.03C27.05,18.29,23.95,18.55,20.94,18.47z"/>
<path class="st0" d="M22.47,42.39c0-0.81,0-1.61,0-2.42c0-2.7,1.33-4.24,3.84-5.34c4.2-1.84,8.52-3.37,12.75-5.12
	c0.77-0.32,1.54-0.63,2.33-0.91c1.02-0.37,1.59,0.06,1.57,1.16c-0.02,0.9-0.37,1.74-0.55,2.61c-0.2,0.98-0.43,1.96-0.7,2.93
	c-0.46,1.62-1.25,2.96-2.83,3.82c-4.48,2.43-8.9,4.94-13.35,7.41c-0.27,0.15-0.56,0.29-0.86,0.39c-1.33,0.44-2.16-0.13-2.19-1.51
	C22.44,44.41,22.46,43.4,22.47,42.39C22.46,42.39,22.46,42.39,22.47,42.39z"/>
<path class="st0" d="M20.62,42.36c0,1.01,0.01,2.02,0,3.02c-0.02,1.4-0.87,2.02-2.17,1.48c-1.01-0.41-1.95-0.98-2.91-1.51
	c-3.82-2.12-7.63-4.26-11.46-6.38c-1.2-0.66-2-1.67-2.38-2.94c-0.59-1.95-1.12-3.93-1.42-5.95c-0.22-1.53,0.3-1.91,1.75-1.34
	c5.06,1.99,10.12,3.98,15.18,5.98c2.04,0.8,3.4,2.83,3.41,5.04C20.62,40.63,20.62,41.5,20.62,42.36z"/>
<path class="st0" d="M102.97,21.39c0.49,0,0.98,0.03,1.47,0c1.24-0.08,2.19,0.47,2.91,1.4c2.54,3.27,5.11,6.52,7.82,9.66
	c0.37,0.43,0.29,0.73-0.04,1.11c-2.8,3.17-5.37,6.53-7.96,9.87c-0.99,1.27-2.18,2-3.85,1.86c-0.83-0.07-1.67-0.01-2.51-0.01
	c-0.46,0-0.97,0.08-1.21-0.45c-0.22-0.51,0.04-0.95,0.35-1.35c1.14-1.45,2.28-2.89,3.42-4.34c1.51-1.92,3.01-3.85,4.54-5.75
	c0.31-0.38,0.17-0.57-0.07-0.87c-2.32-2.93-4.63-5.87-6.94-8.81c-0.27-0.34-0.57-0.66-0.77-1.04c-0.39-0.72-0.07-1.25,0.75-1.27
	C101.58,21.37,102.28,21.39,102.97,21.39z"/>
<path class="st0" d="M63.57,10.68c-2.5-0.12-4.55,0.08-6.59-0.16c-3.02-0.35-3.85-1.71-3.69-4.6c0.17-3.08,1.81-4.06,4.77-4.14
	c3.45-0.09,6.92-0.2,10.37,0.09c2.35,0.2,3.87,1.61,4.08,3.73c0.03,0.31,0.28,0.88-0.33,0.86c-0.49-0.02-1.22,0.47-1.43-0.55
	c-0.3-1.47-1.17-2.12-2.72-2.32c-1.55-0.2-3.11-0.14-4.66-0.13c-1.99,0.02-3.98-0.1-5.96,0.11c-2.03,0.22-3.17,2.54-2.05,4.27
	c0.47,0.72,1.25,0.86,2.03,0.96c1.87,0.25,3.74,0.09,5.61,0.14C64.96,9,66.92,8.8,68.87,9.1c3.36,0.5,4.14,2.51,3.76,5.44
	c-0.33,2.51-1.23,3.38-3.84,3.59c-3.85,0.3-7.72,0.34-11.56-0.03c-2.28-0.22-3.54-1.64-3.81-3.9c-0.04-0.34-0.12-0.79,0.43-0.69
	c0.46,0.08,1.17-0.45,1.36,0.41c0.39,1.72,1,2.27,2.78,2.52c1.47,0.2,2.94,0.12,4.4,0.1c1.99-0.02,3.98,0.16,5.96-0.11
	c2.37-0.31,2.98-2.17,2.4-4.15c-0.37-1.26-1.48-1.54-2.61-1.58C66.46,10.64,64.79,10.68,63.57,10.68z"/>
<path class="st0" d="M23.28,1.12c2.53,0.39,4.86,1.39,7.15,2.45c3.33,1.55,6.49,3.37,9.28,5.77c0.83,0.72,1.61,1.49,2.18,2.44
	c0.84,1.4,0.61,2.52-0.74,3.4c-1.85,1.19-3.96,1.67-6.07,2.11c-0.34,0.07-0.56-0.05-0.61-0.42c-0.51-3.7-2.59-6.58-4.94-9.31
	c-1.75-2.03-3.71-3.86-5.67-5.68c-0.23-0.21-0.44-0.45-0.67-0.67C23.21,1.18,23.24,1.15,23.28,1.12z"/>
<path class="st0" d="M87.49,11.59c0.42-2.31-0.39-3.51-2.56-3.61c-1.84-0.09-3.69-0.17-5.53,0.08c-0.99,0.13-1.81,0.39-2.07,1.58
	c-0.14,0.66-0.84,0.22-1.27,0.3c-0.34,0.06-0.51-0.15-0.55-0.5C75.41,8.59,75.86,8,76.45,7.51c0.78-0.65,1.7-0.96,2.71-0.97
	c2.13-0.01,4.27-0.04,6.4,0.01c2.44,0.05,3.77,1.41,3.79,3.86c0.02,2.33,0.02,4.67,0,7c0,0.3,0.21,0.83-0.31,0.83
	c-0.48,0-1.18,0.46-1.43-0.39c-0.12-0.39-0.28-0.16-0.43-0.06c-0.69,0.44-1.45,0.53-2.24,0.5c-2.42-0.08-4.85,0.18-7.26-0.14
	c-1.98-0.27-2.7-1.16-2.71-3.12c0-0.12,0-0.23,0-0.35c-0.01-2.63,0.93-3.6,3.55-3.63c2.34-0.02,4.67,0,7.01-0.01
	C86.23,11.03,86.9,11.14,87.49,11.59z M81.98,12.56c0,0.01,0,0.01,0,0.02c-1.21,0-2.42-0.03-3.63,0.01
	c-1.12,0.04-1.58,0.52-1.65,1.58c-0.09,1.62,0.22,2.26,1.4,2.41c2.55,0.33,5.12,0.21,7.67,0.08c1.31-0.07,1.91-0.98,1.83-2.25
	c-0.07-1.12-0.8-1.8-2.09-1.84C84.34,12.54,83.16,12.56,81.98,12.56z"/>
<path class="st0" d="M123.98,10.01c0,2.48,0.01,4.95-0.01,7.43c0,0.31,0.24,0.89-0.4,0.82c-0.45-0.05-1.25,0.5-1.31-0.54
	c-0.02-0.28-0.18-0.37-0.4-0.23c-1.93,1.21-4.09,0.72-6.16,0.79c-0.97,0.03-1.95,0.08-2.93-0.12c-2.09-0.41-3.25-1.5-3.46-3.61
	c-0.14-1.42-0.16-2.89,0-4.31c0.26-2.33,1.74-3.61,4.49-3.79c2.03-0.13,4.09-0.17,6.13,0.07c0.56,0.07,1.06,0.26,1.54,0.52
	c0.8,0.44,0.8,0.44,0.8-0.5c0-1.32,0.04-2.65-0.02-3.97c-0.03-0.76,0.33-0.82,0.94-0.85c0.69-0.03,0.81,0.25,0.8,0.86
	C123.97,5.06,123.98,7.54,123.98,10.01z M116.66,16.74c0.86,0,1.73,0.04,2.59-0.01c1.86-0.1,2.96-1.24,3.02-3.09
	c0.03-0.78,0.02-1.55,0-2.33c-0.03-2.07-1.13-3.27-3.22-3.37c-1.58-0.08-3.17-0.08-4.75,0c-2.33,0.11-3.3,1.2-3.3,3.52
	c0,0.72,0,1.44,0.01,2.16c0.02,1.73,0.77,2.65,2.47,3.02C114.53,16.87,115.6,16.7,116.66,16.74z"/>
<path class="st0" d="M21.73,19.49c0.37,0,0.76,0.06,1.12-0.01c0.89-0.17,1.16,0.26,1.22,1.06c0.24,3.3,0.42,6.59,0.57,9.89
	c0.05,1-0.44,1.51-1.26,1.8c-0.94,0.34-1.93,0.39-2.89,0.13c-1.55-0.41-1.89-0.82-1.78-2.34c0.21-3.1,0.35-6.2,0.54-9.29
	c0.08-1.25,0.1-1.25,1.36-1.23c0.37,0,0.75,0,1.12,0C21.73,19.5,21.73,19.49,21.73,19.49z"/>
<path class="st0" d="M93.82,8.14c0.87-1.24,1.91-1.62,3.13-1.62c1.79,0,3.58-0.02,5.36,0.01c2.8,0.06,4.51,1.81,4.51,4.59
	c0.01,2.07-0.03,4.15,0.02,6.22c0.01,0.7-0.17,0.92-0.9,0.93c-0.8,0.01-0.87-0.32-0.86-0.97c0.03-1.96,0.02-3.92,0.01-5.87
	c0-2.09-0.89-3.23-2.96-3.41c-1.89-0.17-3.8-0.23-5.69,0.06c-1.72,0.27-2.6,1.36-2.62,3.11c-0.02,2.1-0.04,4.2,0.01,6.3
	c0.02,0.73-0.3,0.78-0.88,0.77c-0.56,0-0.9-0.03-0.89-0.77c0.04-3.4,0.04-6.79,0.01-10.19c-0.01-0.68,0.23-0.82,0.85-0.81
	c0.61,0.01,1.03,0.07,0.9,0.83C93.8,7.52,93.82,7.72,93.82,8.14z"/>
<path class="st0" d="M26.17,23.65c0-0.21,0-0.36,0-0.5c-0.01-0.93,0.1-1.04,0.98-0.79c2.27,0.63,4.54,1.29,6.81,1.93
	c1.61,0.45,3.22,0.87,4.83,1.31c0.19,0.05,0.39,0.1,0.58,0.17c0.44,0.18,1.06,0.28,1.08,0.85c0.01,0.56-0.62,0.6-1.02,0.77
	c-1.17,0.48-2.36,0.92-3.53,1.39c-0.37,0.15-0.71,0.14-1.09,0.03c-2.56-0.77-5.12-1.54-7.69-2.29c-0.55-0.16-0.8-0.46-0.8-1.05
	C26.31,24.84,26.22,24.21,26.17,23.65z"/>
<path class="st0" d="M17.16,24.2c-0.08,2.13-0.08,2.13-2.12,2.77c-2.11,0.67-4.22,1.33-6.33,2c-0.3,0.1-0.59,0.17-0.92,0.04
	c-1.37-0.53-2.75-1.03-4.11-1.56c-0.29-0.11-0.65-0.2-0.65-0.6c0-0.37,0.34-0.51,0.61-0.66c0.2-0.11,0.41-0.2,0.63-0.27
	c3.86-1.13,7.73-2.25,11.59-3.37c1.32-0.38,1.32-0.38,1.3,0.95C17.15,23.74,17.16,23.97,17.16,24.2z"/>
<path class="st0" d="M121.06,21.39c0.61,0,1.21,0,1.82,0c0.41,0,0.83-0.01,1.03,0.45c0.18,0.42,0,0.79-0.26,1.12
	c-0.79,1.02-1.6,2.03-2.41,3.05c-1.09,1.37-2.2,2.73-3.26,4.13c-0.39,0.51-0.61,0.54-1.02,0.05c-0.93-1.13-1.9-2.23-2.87-3.34
	c-0.23-0.27-0.36-0.45-0.07-0.8c0.86-1.04,1.68-2.12,2.52-3.18c0.84-1.06,1.91-1.64,3.3-1.49
	C120.24,21.42,120.65,21.39,121.06,21.39z"/>
<path class="st0" d="M48.47,12.35c0-1.7,0.04-3.4-0.02-5.1c-0.02-0.76,0.38-0.74,0.91-0.74c0.52,0,0.86,0.02,0.86,0.71
	c-0.03,3.46-0.04,6.91,0,10.37c0.01,0.73-0.38,0.7-0.87,0.69c-0.46-0.01-0.91,0.09-0.89-0.66C48.5,15.86,48.47,14.1,48.47,12.35z"/>
<path class="st0" d="M50.18,2.63c0.16,0.71-0.1,0.94-0.84,0.96c-0.81,0.02-0.94-0.32-0.96-1.01c-0.03-0.73,0.29-0.84,0.92-0.85
	C49.97,1.72,50.37,1.85,50.18,2.63z"/>
<path class="st0" d="M23.18,1.21c-0.03-0.04-0.09-0.09-0.08-0.11c0.06-0.09,0.12-0.05,0.18,0.01C23.24,1.15,23.21,1.18,23.18,1.21z"
	/>
</svg>
