<?xml version="1.0" encoding="utf-8"?>
<!-- Generator: Adobe Illustrator 25.0.0, SVG Export Plug-In . SVG Version: 6.00 Build 0)  -->
<svg version="1.1" id="Layer_1" xmlns="http://www.w3.org/2000/svg" xmlns:xlink="http://www.w3.org/1999/xlink" x="0px" y="0px"
	 viewBox="0 0 125 30.2" style="enable-background:new 0 0 125 30.2;" xml:space="preserve">
<style type="text/css">
	.st0{fill:#AFAFAF;}
</style>
<g>
	<path class="st0" d="M42.9,17.4h2.4c0,1.4-0.4,2.4-1.2,2.8c-0.6,0.3-1.7,0.5-3.4,0.5c-1.9,0-3.1-0.4-3.8-1.2
		c-0.6-0.7-0.8-2-0.8-3.9c0-1.9,0.3-3.2,0.8-3.9c0.6-0.8,1.9-1.2,3.8-1.2c2,0,3.3,0.4,3.9,1.1c0.5,0.7,0.8,2.1,0.8,4.4h-6.9
		c0,1.2,0.1,1.9,0.3,2.2c0.3,0.4,0.9,0.6,1.9,0.6c0.8,0,1.4-0.1,1.6-0.2C42.6,18.5,42.9,18.1,42.9,17.4 M38.4,14.5h4.5
		c0-1-0.1-1.6-0.4-1.8c-0.2-0.2-0.9-0.4-1.9-0.4c-1,0-1.6,0.1-1.9,0.4C38.5,13,38.4,13.6,38.4,14.5"/>
	<path class="st0" d="M54.1,20.6l0.1-1.5h-0.1c-0.5,1.1-1.5,1.6-3.1,1.6c-1.7,0-2.8-0.5-3.3-1.6c-0.4-0.7-0.5-2-0.5-3.8
		c0-1.7,0.2-2.8,0.6-3.5c0.5-0.9,1.6-1.3,3.2-1.3c1.6,0,2.6,0.5,3,1.4h0.1V6.3h2.4v14.3L54.1,20.6L54.1,20.6z M51.7,12.3
		c-1,0-1.6,0.3-1.9,0.8c-0.2,0.4-0.3,1.1-0.3,2.2c0,1.4,0.1,2.2,0.2,2.6c0.3,0.6,0.9,0.9,1.9,0.9c1.1,0,1.9-0.3,2.1-0.9
		c0.2-0.4,0.3-1.3,0.3-2.7c0-1.1-0.1-1.8-0.4-2.2C53.4,12.6,52.8,12.3,51.7,12.3"/>
	<path class="st0" d="M67.6,20.6h-2.3v-1.5h-0.1c-0.5,1.1-1.5,1.6-3.2,1.6c-2.2,0-3.4-1-3.4-2.9v-7.2h2.4v6.3c0,0.8,0.1,1.3,0.3,1.5
		c0.2,0.3,0.7,0.5,1.4,0.5c0.9,0,1.5-0.2,1.9-0.6c0.4-0.4,0.6-1,0.6-1.9l0-5.8h2.4L67.6,20.6L67.6,20.6z"/>
	<path class="st0" d="M76.2,16.8h2.4c0,1.6-0.4,2.7-1.1,3.2c-0.6,0.5-1.8,0.7-3.5,0.7c-1.9,0-3.1-0.4-3.7-1.2
		c-0.5-0.7-0.8-2-0.8-3.9c0-1.9,0.2-3.2,0.8-3.9c0.6-0.8,1.9-1.2,3.7-1.2c1.6,0,2.8,0.2,3.4,0.6c0.8,0.5,1.2,1.5,1.2,3h-2.4
		c0-0.8-0.2-1.3-0.5-1.5c-0.3-0.2-0.8-0.3-1.6-0.3c-1,0-1.6,0.2-1.8,0.7c-0.2,0.3-0.3,1.2-0.3,2.6c0,1.4,0.1,2.2,0.2,2.6
		c0.2,0.5,0.8,0.7,1.8,0.7c0.9,0,1.5-0.1,1.8-0.4C76.1,18.3,76.2,17.7,76.2,16.8"/>
	<path class="st0" d="M86.8,20.6l0.1-1.2h-0.1c-0.2,0.6-0.6,1-1.3,1.2c-0.4,0.1-1,0.2-1.8,0.2c-1.3,0-2.2-0.2-2.8-0.6
		c-0.6-0.5-1-1.3-1-2.6c0-1.2,0.3-2,1-2.5c0.6-0.4,1.5-0.6,2.7-0.6c0.8,0,1.4,0,1.7,0.1c0.6,0.2,1,0.5,1.2,1h0.1v-1.3
		c0-0.9-0.1-1.4-0.3-1.7c-0.3-0.3-0.9-0.5-1.8-0.5c-0.6,0-1.1,0.1-1.3,0.2c-0.4,0.2-0.6,0.6-0.6,1.2h-2.4c0-1.3,0.4-2.2,1.3-2.6
		c0.6-0.3,1.6-0.4,3-0.4c1.7,0,2.9,0.2,3.5,0.7c0.7,0.5,1.1,1.6,1.1,3.2v6.3L86.8,20.6L86.8,20.6z M84.6,16.1
		c-0.8,0-1.3,0.1-1.6,0.2c-0.4,0.2-0.6,0.6-0.6,1.2c0,0.7,0.2,1.1,0.5,1.3c0.3,0.2,0.9,0.3,1.7,0.3c0.8,0,1.3-0.1,1.6-0.2
		c0.4-0.2,0.6-0.7,0.6-1.3c0-0.6-0.2-1-0.7-1.2C85.9,16.2,85.4,16.1,84.6,16.1"/>
	<path class="st0" d="M90.4,12.4v-1.8h1.2V8.4H94v2.2h3.8v1.8H94v5.1c0,0.5,0,0.9,0.1,1c0.1,0.2,0.4,0.3,0.9,0.3
		c0.6,0,1-0.2,1.1-0.7c0.1-0.2,0.1-0.7,0.1-1.4h2.1c0,1.4-0.2,2.4-0.6,3c-0.5,0.6-1.4,1-2.8,1c-1.3,0-2.2-0.2-2.6-0.6
		c-0.5-0.4-0.8-1.3-0.8-2.5v-5.1L90.4,12.4L90.4,12.4z"/>
	<path class="st0" d="M102.6,8.4h-2.4v-2h2.4V8.4z M102.6,20.6h-2.4v-10h2.4V20.6z"/>
	<path class="st0" d="M109.2,10.5c2,0,3.3,0.4,3.9,1.1c0.5,0.6,0.8,2,0.8,4c0,2-0.3,3.4-0.8,4c-0.6,0.7-1.9,1.1-3.9,1.1
		s-3.3-0.4-3.9-1.1c-0.5-0.6-0.8-2-0.8-4c0-2,0.3-3.4,0.8-4C105.9,10.9,107.2,10.5,109.2,10.5 M109.2,12.3c-1,0-1.7,0.2-2,0.6
		c-0.3,0.4-0.4,1.3-0.4,2.6s0.1,2.2,0.4,2.6c0.3,0.4,0.9,0.6,2,0.6s1.7-0.2,2-0.6c0.2-0.4,0.4-1.2,0.4-2.6c0-1.4-0.1-2.3-0.4-2.6
		C110.9,12.5,110.3,12.3,109.2,12.3"/>
	<path class="st0" d="M116,10.6h2.4v1.5h0.1c0.2-0.7,0.7-1.1,1.2-1.4c0.4-0.2,1.1-0.3,1.9-0.3c1.3,0,2.2,0.3,2.7,0.8
		c0.5,0.5,0.8,1.4,0.8,2.7v6.6h-2.4v-6.3c0-0.8-0.1-1.2-0.4-1.5c-0.3-0.3-0.8-0.4-1.5-0.4c-1,0-1.6,0.2-2,0.7
		c-0.3,0.4-0.4,1.1-0.4,2.1v5.5H116V10.6z"/>
	<rect x="36.1" y="0" class="st0" width="88.9" height="1.2"/>
	<rect x="36.1" y="29" class="st0" width="61.4" height="1.2"/>
	<rect x="105.6" y="29" class="st0" width="19.4" height="1.2"/>
	<g>
		<path class="st0" d="M29,9c0-0.1,0-0.1-0.1-0.1h-0.1v0.2h0.1C28.9,9.1,29,9,29,9z"/>
		<path class="st0" d="M0.2,0.2V30H30V0.2H0.2z M28.8,13.7c-0.1,1.1-0.9,3.1-1.3,3.9c-1,2.1-2.4,3.8-5.1,3.8c-1.4,0-2.6-0.5-3.3-1.3
			c-1,0.9-2.3,1.4-3.6,1.4c-1,0-2-0.3-2.6-0.9c-0.8,0.5-1.8,0.9-3,0.9c-1,0-1.8-0.3-2.5-0.8c-0.8,0.5-1.7,0.8-2.9,0.7
			c-1.9,0-3.2-1.3-3.3-3c0-2.4,1.9-6.7,2.9-8.1c0.7-1.1,1.8-1.8,3.1-1.8c1.4,0,1.9,0.4,2.2,0.9c1.1-0.9,2.5-1,3.6-1
			c1.1,0,1.9,0.3,2.5,0.8c0.8-0.5,1.8-0.8,3-0.8c1.5,0,2.6,0.3,3.3,1.1c0.9-0.7,2-1.1,3.2-1.1c1.6,0,2.7,0.6,3.4,1.5
			C29.1,11.1,29,12.4,28.8,13.7z M28.8,9.8c-0.4,0-0.7-0.3-0.7-0.7c0-0.4,0.3-0.7,0.7-0.7c0.4,0,0.7,0.3,0.7,0.7S29.2,9.8,28.8,9.8z
			"/>
		<path class="st0" d="M28.8,8.5c-0.3,0-0.6,0.3-0.6,0.6c0,0.3,0.3,0.6,0.6,0.6c0.3,0,0.6-0.3,0.6-0.6C29.4,8.8,29.1,8.5,28.8,8.5z
			 M29.2,9.5H29l-0.1-0.1c0-0.1-0.1-0.1-0.1-0.1c0,0-0.1,0-0.1,0h0v0.3h-0.1V8.8h0.4c0.1,0,0.2,0.1,0.2,0.2c0,0.1-0.1,0.2-0.2,0.2
			c0.1,0,0.1,0,0.2,0.2L29.2,9.5L29.2,9.5z"/>
	</g>
	<path class="st0" d="M0,0v30.2h30.2V0H0z M29.8,29.8H0.4V0.4h29.3V29.8z"/>
	<path class="st0" d="M24.9,9.2c-1.6,0-2.6,0.6-3.4,1.5c-0.1-0.3-0.2-0.4-0.4-0.5c-0.6-0.7-1.6-1-2.9-1c-1.2,0-2.3,0.4-3,1
		c-0.4-0.6-1.3-1-2.4-1c-1.4,0-3,0.2-3.9,1.7c0-0.5-0.1-0.8-0.4-1.1c-0.4-0.4-1-0.5-1.5-0.5c-1,0-1.8,0.5-2.4,1.4
		c-0.8,1.3-2.8,5.6-2.8,7.7c0,1.4,0.9,2.3,2.6,2.4c1.3,0,2.2-0.3,2.9-0.9c0.6,0.6,1.4,1,2.5,1c1.1,0,2.3-0.4,3-1.1
		c0.6,0.7,1.5,1.1,2.6,1.1c1.5,0,2.9-0.7,3.8-1.8c0.5,1.3,1.7,1.8,3,1.8c2.9,0,4.2-2,5.3-5.2c0.2-0.7,0.6-1.9,0.6-2.9
		C28.3,10.9,27.6,9.2,24.9,9.2 M5.5,17.1c1.5-0.3,1.9,0.3,1.8,0.8c-0.1,1.5-1.5,1.9-2.7,1.8c-0.9,0-1.7-0.4-1.7-1.4
		c0-1.8,1.8-5.9,2.6-7.2c0.4-0.6,0.9-1,1.6-1c0.7,0,0.9,0.4,0.9,0.8C8,12.1,6.1,15.7,5.5,17.1 M10.4,15.7c-0.1,0.3-0.3,0.8-0.4,1.4
		c0.5-0.1,0.9-0.2,1.5-0.2c0.7,0,1.2,0.3,1.2,0.9c0,1.5-1.6,1.9-2.7,1.9c-1.2,0-2.3-0.7-2.3-2c0-1.6,0.9-4,1.6-5.5
		c1-1.9,2-2.2,3.7-2.2c0.8,0,1.6,0.3,1.6,1c0,1-0.8,1.4-1.7,1.4c-0.4,0-0.9,0-1.2,0c0,0-0.3,0.4-0.6,1.2c1.5-0.2,2.2,0.1,1.9,1
		C12.7,15.9,11.7,16,10.4,15.7 M18,12c-0.4,0-0.7,0.3-0.9,0.5c-0.4,0.6-1.4,3.1-1.6,4.2c-0.1,0.7,0.2,0.9,0.5,0.9
		c0.5,0,1.1-0.6,1.3-1.5c0,0-1,0-0.7-0.9c0.3-0.9,0.8-1.1,1.6-1.1c1.7-0.1,1.5,1.2,1.4,1.9c-0.4,2.2-2,3.9-4.2,3.9
		c-1.5,0-2.4-0.8-2.4-2.4c0-1.1,0.5-2.8,1-3.8c0.9-2.1,1.9-3.6,4.3-3.6c1.5,0,2.6,0.5,2.4,1.9c-0.1,1-0.6,1.6-1.5,1.7
		c-0.2,0-1.3,0-1-1C18.4,12.3,18.5,12,18,12 M27.1,13.8c-0.2,1.3-0.8,2.8-1.5,3.9c-1,1.8-2.3,2.1-3.4,2.1c-1.1,0-2.3-0.4-2.3-2.1
		c0-1.2,0.5-2.9,1-4c0.8-2,1.5-3.6,4-3.6C27.9,10.1,27.4,12.7,27.1,13.8 M25.1,12.5c0,0.8-1.2,3.9-1.6,4.5c-0.2,0.3-0.4,0.5-0.7,0.5
		c-0.3,0-0.4-0.2-0.5-0.5c0-0.7,1.2-4.2,1.7-4.7c0.2-0.3,0.4-0.4,0.7-0.4C25,12,25.1,12.3,25.1,12.5"/>
</g>
</svg>
