<?xml version="1.0" encoding="utf-8"?>
<!-- Generator: Adobe Illustrator 25.0.0, SVG Export Plug-In . SVG Version: 6.00 Build 0)  -->
<svg version="1.1" id="Layer_1" xmlns="http://www.w3.org/2000/svg" xmlns:xlink="http://www.w3.org/1999/xlink" x="0px" y="0px"
	 viewBox="0 0 125 30.09" style="enable-background:new 0 0 125 30.09;" xml:space="preserve">
<style type="text/css">
	.st0{fill:#AFAFAF;}
	.st1{fill:#FFFFFF;}
</style>
<g>
	<path class="st0" d="M30.05,30.09c-10.04,0-20.02,0-30.05,0C0,20.07,0,10.07,0,0.02c9.99,0,19.99,0,30.05,0
		C30.05,10.01,30.05,20.03,30.05,30.09z M19.06,20.15c2.19,1.95,5.69,1.54,7.26-0.62c1.64-2.25,2.56-4.76,2.56-7.55
		c0-1.69-1.12-3.05-2.65-3.4c-1.47-0.34-2.87-0.18-4.2,0.59c-0.18,0.11-0.54,0.17-0.68,0.07c-1.37-0.98-2.92-1.11-4.44-0.69
		c-1.08,0.3-1.97,0.32-3.05-0.01c-1.56-0.48-3.15-0.16-4.56,0.71c-1.1-1.32-3.9-1.09-5,0.55c-0.51,0.76-0.94,1.58-1.33,2.4
		c-0.85,1.79-1.58,3.63-1.8,5.63c-0.2,1.79,0.86,3.19,2.63,3.47c1.08,0.17,2.11,0.05,3.11-0.4c0.22-0.1,0.58-0.11,0.78-0.01
		c1.36,0.73,2.77,0.7,4.13,0.14c0.7-0.29,1.2-0.28,1.91,0.02C15.65,21.88,17.42,21.35,19.06,20.15z"/>
	<path class="st0" d="M80.65,0.02c14.38,0,28.76,0,43.15,0c0.19,0,0.39,0.01,0.58,0c0.39-0.03,0.65,0.13,0.54,0.53
		c-0.06,0.2-0.32,0.36-0.51,0.5c-0.08,0.06-0.24,0.01-0.36,0.01c-28.96,0-57.92,0-86.87-0.01c-0.38,0-0.98,0.22-0.92-0.53
		c0.02-0.18,0.26-0.4,0.45-0.48c0.18-0.08,0.43-0.02,0.64-0.02C51.79,0.02,66.22,0.02,80.65,0.02z"/>
	<path class="st0" d="M56.43,20.5c-0.81,0-1.55,0-2.32,0c0.02-0.45,0.04-0.85,0.07-1.43c-0.27,0.31-0.43,0.53-0.61,0.72
		c-1.21,1.23-4.41,1.15-5.53-0.15c-0.27-0.32-0.51-0.73-0.6-1.14c-0.4-1.91-0.46-3.83-0.06-5.75c0.22-1.07,0.86-1.83,1.92-2.02
		c0.93-0.16,1.93-0.23,2.86-0.08c0.67,0.11,1.27,0.63,1.92,0.98c0-1.66,0-3.45,0-5.29c0.82,0,1.56,0,2.34,0
		C56.43,11.07,56.43,15.76,56.43,20.5z M49.47,15.55c0.08,0.72,0.07,1.43,0.25,2.1c0.1,0.37,0.46,0.88,0.76,0.93
		c0.83,0.14,1.71,0.18,2.53,0.04c0.35-0.06,0.85-0.63,0.88-1c0.11-1.33,0.1-2.68,0.01-4.01c-0.02-0.35-0.4-0.81-0.73-0.99
		c-0.78-0.41-1.66-0.49-2.52-0.19c-0.54,0.19-0.92,0.54-0.99,1.13C49.59,14.23,49.53,14.9,49.47,15.55z"/>
	<path class="st0" d="M66.83,30.07c-9.81,0-19.63,0-29.44,0c-0.19,0-0.39-0.01-0.58,0c-0.39,0.03-0.66-0.14-0.55-0.53
		c0.05-0.2,0.32-0.37,0.52-0.49c0.1-0.07,0.28-0.01,0.43-0.01c19.75,0,39.5,0,59.25,0.01c0.37,0,0.98-0.24,0.9,0.53
		c-0.02,0.18-0.26,0.39-0.44,0.48c-0.15,0.08-0.38,0.02-0.57,0.02C86.51,30.07,76.67,30.07,66.83,30.07z"/>
	<path class="st0" d="M45.31,16.04c-2.46,0-4.7,0-7.05,0c0.07,0.67,0.08,1.27,0.21,1.84c0.15,0.67,0.73,0.87,1.33,0.93
		c0.53,0.05,1.06,0.04,1.59,0.03c0.72-0.01,1.27-0.26,1.42-1.06c0.03-0.14,0.27-0.34,0.42-0.35c0.62-0.04,1.25-0.02,1.86-0.02
		c0.28,1.51-0.47,2.72-1.9,3.01c-1.6,0.32-3.22,0.34-4.82-0.03c-1.16-0.27-1.91-0.97-2.16-2.17c-0.37-1.7-0.34-3.4-0.05-5.11
		c0.24-1.42,1.1-2.23,2.49-2.46c1.51-0.25,3.03-0.28,4.52,0.18c0.87,0.27,1.51,0.8,1.67,1.72C45.03,13.67,45.14,14.79,45.31,16.04z
		 M42.73,14.46c0.22-1.58-0.18-2.09-1.68-2.17c-0.38-0.02-0.77-0.02-1.15,0.01c-1.35,0.12-1.8,0.79-1.45,2.16
		C39.88,14.46,41.31,14.46,42.73,14.46z"/>
	<path class="st0" d="M86.77,15.32c0-0.51,0.05-1.16-0.01-1.79c-0.09-0.94-0.43-1.27-1.36-1.39c-0.36-0.05-0.72-0.05-1.09-0.04
		c-1.06,0.03-1.33,0.25-1.62,1.34c-0.75,0-1.51,0-2.26,0c-0.15-1.44,0.58-2.6,1.96-2.72c1.57-0.14,3.18-0.1,4.75,0.04
		c1.11,0.1,1.7,0.99,1.85,2.05c0.13,0.88,0.14,1.78,0.16,2.67c0.02,1.66,0.01,3.33,0.01,5.06c-0.78,0-1.5,0-2.29,0
		c0-0.34,0-0.66,0-0.98c-0.59,0.82-1.43,1.05-2.31,1.05c-0.96,0-1.92-0.12-2.87-0.24c-0.27-0.03-0.57-0.19-0.77-0.37
		c-1.04-0.92-0.97-2.16-0.83-3.36c0.12-0.99,0.69-1.75,1.72-1.89c1.07-0.15,2.16-0.24,3.23-0.17
		C85.62,14.62,86.18,15.06,86.77,15.32z M84.6,16.06C84.6,16.07,84.6,16.07,84.6,16.06c-0.31,0.01-0.63,0-0.94,0.01
		c-0.14,0.01-0.28,0.06-0.42,0.1c-0.64,0.2-0.94,0.74-0.87,1.55c0.06,0.66,0.33,1.18,1.07,1.23c0.67,0.05,1.35,0.08,2.02,0.02
		c0.97-0.09,1.38-0.6,1.36-1.52c-0.02-0.86-0.47-1.3-1.43-1.39C85.13,16.04,84.86,16.06,84.6,16.06z"/>
	<path class="st0" d="M104.46,15.54c0.13-0.97,0.21-1.98,0.41-2.97c0.18-0.92,0.79-1.52,1.72-1.77c1.74-0.46,3.48-0.43,5.22,0.01
		c1.06,0.26,1.66,0.94,1.86,1.98c0.36,1.85,0.35,3.69,0,5.54c-0.21,1.13-0.91,1.78-1.98,2.05c-1.59,0.4-3.2,0.41-4.8,0.05
		c-1.11-0.25-1.87-0.89-2.06-2.05C104.67,17.46,104.58,16.53,104.46,15.54z M111.6,15.82c-0.03-0.71-0.04-1.26-0.09-1.82
		c-0.1-1.14-0.47-1.56-1.6-1.69c-0.54-0.06-1.11,0-1.65,0.07c-0.75,0.09-1.16,0.58-1.23,1.31c-0.07,0.82-0.14,1.64-0.12,2.46
		c0.06,2.43,0.7,2.97,3.12,2.67c0.1-0.01,0.19-0.02,0.29-0.04c0.6-0.17,1.06-0.49,1.13-1.17C111.51,16.97,111.55,16.32,111.6,15.82z
		"/>
	<path class="st0" d="M116.05,10.63c0.78,0,1.5,0,2.28,0c0,0.44,0,0.84,0,1.24c0.86-1.35,2.2-1.41,3.53-1.42
		c2-0.01,3.07,1.01,3.12,3.01c0.05,2.32,0.01,4.64,0.01,7.02c-0.75,0-1.48,0-2.3,0c-0.01-0.24-0.04-0.49-0.04-0.74
		c0-1.79,0.01-3.58-0.01-5.37c-0.01-1.54-0.39-2.05-1.5-2.1c-1.85-0.08-2.59,0.4-2.7,1.93c-0.1,1.37-0.07,2.75-0.09,4.13
		c-0.01,0.7,0,1.4,0,2.15c-0.77,0-1.51,0-2.3,0C116.05,17.23,116.05,13.96,116.05,10.63z"/>
	<path class="st0" d="M65.23,10.63c0.84,0,1.56,0,2.33,0c0,3.31,0,6.57,0,9.88c-0.75,0-1.47,0-2.23,0
		c-0.03-0.44-0.05-0.85-0.08-1.37c-1.36,1.79-3.11,1.75-4.93,1.24c-0.9-0.25-1.51-0.94-1.53-1.83c-0.08-2.62-0.03-5.25-0.03-7.91
		c0.76,0,1.47,0,2.26,0c0.01,0.27,0.04,0.53,0.04,0.79c0,1.86,0,3.72,0,5.58c0,1.25,0.31,1.72,1.18,1.83
		c1.62,0.2,2.62-0.3,2.88-1.49c0.09-0.42,0.12-0.86,0.13-1.29C65.23,14.26,65.23,12.47,65.23,10.63z"/>
	<path class="st0" d="M76.29,16.81c0.77,0,1.48,0,2.2,0c0.3,2.12-0.7,3.51-2.75,3.71c-1.1,0.11-2.22,0.1-3.31,0
		c-1.53-0.14-2.45-0.89-2.6-2.37c-0.16-1.67-0.13-3.36-0.01-5.04c0.09-1.36,1.01-2.25,2.33-2.39c1.4-0.15,2.85-0.17,4.23,0.04
		c1.63,0.25,2.35,1.51,2.13,3.25c-0.73,0-1.47,0-1.97,0c-0.42-0.6-0.64-1.27-1.09-1.49c-0.88-0.44-1.9-0.4-2.79,0.08
		c-0.28,0.15-0.56,0.6-0.57,0.93c-0.06,1.37-0.05,2.75-0.02,4.12c0.01,0.6,0.41,0.96,0.98,1.11c0.09,0.02,0.19,0.05,0.28,0.06
		C75.33,19.09,75.83,18.76,76.29,16.81z"/>
	<path class="st0" d="M98.36,16.78c-0.09,0.74-0.12,1.4-0.27,2.02c-0.28,1.19-1.1,1.73-2.7,1.85c-0.38,0.03-0.77,0.01-1.16-0.03
		c-2.05-0.22-2.6-0.77-2.68-2.84c-0.06-1.5-0.02-3-0.02-4.49c0-0.26,0-0.52,0-0.83c-0.41-0.03-0.76-0.06-1.14-0.09
		c0-0.57,0-1.12,0-1.75c0.36-0.02,0.74-0.05,1.21-0.08c0-0.72,0-1.43,0-2.18c0.81,0,1.53,0,2.34,0c0,0.7,0,1.41,0,2.2
		c1.32,0,2.54,0,3.82,0c0,0.62,0,1.16,0,1.8c-1.24,0-2.48,0-3.78,0c0,2-0.02,3.9,0.01,5.8c0.01,0.6,0.51,0.68,1.01,0.66
		c0.59-0.02,1.05-0.22,1.14-0.87c0.05-0.38,0.06-0.76,0.09-1.18C96.93,16.78,97.57,16.78,98.36,16.78z"/>
	<path class="st0" d="M100.25,20.48c0-3.29,0-6.53,0-9.83c0.77,0,1.52,0,2.32,0c0,3.26,0,6.51,0,9.83
		C101.83,20.48,101.07,20.48,100.25,20.48z"/>
	<path class="st0" d="M115.36,29.03c2.95,0,5.89,0,8.84,0c0.36,0,0.74-0.08,0.75,0.5c0.01,0.57-0.34,0.53-0.72,0.53
		c-5.96,0-11.93,0-17.89,0c-0.39,0-0.72,0.02-0.71-0.54c0.01-0.59,0.41-0.49,0.76-0.49C109.37,29.03,112.36,29.03,115.36,29.03z"/>
	<path class="st0" d="M100.27,6.34c0.79,0,1.52,0,2.3,0c0,0.63,0,1.22,0,1.87c-0.76,0-1.51,0-2.3,0
		C100.27,7.6,100.27,7.01,100.27,6.34z"/>
	<path class="st1" d="M19.06,20.15c-1.65,1.2-3.41,1.74-5.33,0.91c-0.71-0.3-1.2-0.31-1.91-0.02c-1.36,0.56-2.77,0.59-4.13-0.14
		c-0.21-0.11-0.56-0.1-0.78,0.01c-1,0.46-2.03,0.58-3.11,0.4c-1.77-0.28-2.83-1.69-2.63-3.47c0.23-2,0.96-3.84,1.8-5.63
		c0.39-0.83,0.82-1.65,1.33-2.4c1.1-1.64,3.9-1.87,5-0.55c1.41-0.87,3.01-1.19,4.56-0.71c1.08,0.33,1.98,0.32,3.05,0.01
		c1.51-0.43,3.06-0.29,4.44,0.69c0.14,0.1,0.5,0.04,0.68-0.07c1.32-0.77,2.73-0.93,4.2-0.59c1.53,0.35,2.65,1.71,2.65,3.4
		c0,2.79-0.92,5.3-2.56,7.55C24.75,21.68,21.25,22.1,19.06,20.15z M19.16,19.03c1.21,1.91,4.12,2.4,5.79,0.84
		c2.39-2.23,3.19-5.17,3.1-8.34c-0.03-1.24-0.95-2.04-2.17-2.3c-1.68-0.35-3.15,0.08-4.39,1.25c-1.76-1.76-3.89-1.91-6.25-0.47
		c-1.86-1.43-3.96-1.28-6.29,0.51C8.82,9.59,8.19,9.25,7.38,9.17c-1.09-0.11-2.06,0.23-2.63,1.18c-1.36,2.27-2.43,4.67-2.88,7.29
		c-0.32,1.84,0.77,3.04,2.64,3.06c1.02,0.01,1.96-0.24,2.76-0.88c1.88,1.35,3.71,1.14,5.51-0.11
		C14.47,21.19,17.07,21.17,19.16,19.03z"/>
	<path class="st1" d="M49.47,15.55c0.06-0.65,0.12-1.32,0.2-1.99c0.07-0.59,0.45-0.94,0.99-1.13c0.86-0.3,1.74-0.22,2.52,0.19
		c0.33,0.18,0.71,0.63,0.73,0.99c0.08,1.33,0.09,2.68-0.01,4.01c-0.03,0.37-0.53,0.94-0.88,1c-0.82,0.14-1.71,0.1-2.53-0.04
		c-0.31-0.05-0.67-0.57-0.76-0.93C49.54,16.98,49.55,16.27,49.47,15.55z"/>
	<path class="st1" d="M42.73,14.46c-1.42,0-2.86,0-4.29,0c-0.35-1.37,0.1-2.05,1.45-2.16c0.38-0.03,0.77-0.03,1.15-0.01
		C42.56,12.38,42.95,12.88,42.73,14.46z"/>
	<path class="st1" d="M84.6,16.06c0.27,0,0.53-0.02,0.8,0c0.96,0.09,1.41,0.53,1.43,1.39c0.02,0.92-0.39,1.43-1.36,1.52
		c-0.67,0.06-1.35,0.03-2.02-0.02c-0.74-0.05-1.01-0.57-1.07-1.23c-0.08-0.81,0.23-1.35,0.87-1.55c0.14-0.04,0.28-0.09,0.42-0.1
		C83.97,16.06,84.28,16.07,84.6,16.06C84.6,16.07,84.6,16.07,84.6,16.06z"/>
	<path class="st1" d="M111.6,15.82c-0.04,0.5-0.09,1.15-0.16,1.8c-0.07,0.67-0.53,1-1.13,1.17c-0.09,0.03-0.19,0.03-0.29,0.04
		c-2.42,0.29-3.06-0.24-3.12-2.67c-0.02-0.82,0.04-1.64,0.12-2.46c0.07-0.73,0.47-1.22,1.23-1.31c0.55-0.06,1.11-0.13,1.65-0.07
		c1.13,0.13,1.5,0.54,1.6,1.69C111.56,14.55,111.56,15.11,111.6,15.82z"/>
	<path class="st0" d="M19.16,19.03c-2.1,2.14-4.7,2.16-6.39,0.68c-1.8,1.24-3.63,1.45-5.51,0.11c-0.8,0.64-1.74,0.89-2.76,0.88
		c-1.87-0.02-2.96-1.22-2.64-3.06c0.46-2.62,1.52-5.03,2.88-7.29c0.57-0.95,1.54-1.29,2.63-1.18c0.81,0.08,1.44,0.42,1.57,1.35
		c2.33-1.78,4.43-1.94,6.29-0.51c2.36-1.44,4.49-1.28,6.25,0.47c1.25-1.17,2.72-1.6,4.39-1.25c1.23,0.26,2.14,1.06,2.17,2.3
		c0.09,3.17-0.71,6.11-3.1,8.34C23.28,21.43,20.38,20.95,19.16,19.03z M18.29,12.06c-0.02,0.22-0.04,0.38-0.06,0.54
		c-0.08,0.67,0.24,1.01,0.9,0.97c0.87-0.05,1.45-0.59,1.59-1.5c0.16-0.99-0.15-1.53-1.06-1.87c-1.72-0.64-3.59-0.09-4.62,1.43
		c-1.05,1.54-1.65,3.27-1.93,5.11c-0.33,2.2,1.03,3.46,3.2,2.93c1.91-0.47,2.85-1.87,3.3-3.67c0.39-1.54-0.24-2.21-1.82-2
		c-0.66,0.09-1.11,0.47-1.16,1.1c-0.03,0.36,0.28,0.74,0.43,1.11c0.08-0.01,0.16-0.03,0.23-0.04c-0.12,0.26-0.18,0.6-0.38,0.75
		c-0.34,0.25-0.76,0.37-1.15,0.55c-0.08-0.37-0.31-0.79-0.21-1.1c0.38-1.22,0.85-2.41,1.33-3.59
		C17.11,12.23,17.53,11.88,18.29,12.06z M27.25,12.85c0.04-1.58-0.33-2.29-1.18-2.64c-1.23-0.51-3.07-0.14-3.84,0.94
		c-1.41,1.99-2.18,4.23-2.26,6.68c-0.03,0.88,0.48,1.47,1.28,1.73c1.41,0.47,2.81,0.13,3.74-1.02C26.41,16.79,27,14.69,27.25,12.85z
		 M11.17,13.55c0.13-0.81,0.48-1.22,1.31-1.14c0.37,0.04,0.77-0.06,1.13-0.18c0.58-0.19,0.93-0.59,0.9-1.24
		c-0.03-0.68-0.52-0.93-1.06-1c-2.04-0.27-3.19,0.18-4.06,1.75c-0.9,1.64-1.54,3.37-1.81,5.23c-0.19,1.25,0.18,2.11,1.08,2.51
		c1.16,0.52,2.96,0.27,3.54-0.61c0.25-0.37,0.37-0.99,0.23-1.39c-0.1-0.29-0.72-0.47-1.13-0.54c-0.41-0.07-0.85,0.06-1.27,0.11
		c0.03-1.13,0.15-1.22,1.18-1.26c0.4-0.01,0.92-0.05,1.15-0.3c0.33-0.37,0.63-0.94,0.62-1.41c-0.02-0.56-0.66-0.5-1.11-0.52
		C11.64,13.55,11.43,13.55,11.17,13.55z M5.44,17.01c0.16-0.33,0.29-0.6,0.42-0.88c0.58-1.27,1.17-2.54,1.74-3.82
		c0.15-0.35,0.27-0.73,0.34-1.11c0.15-0.82-0.15-1.12-0.96-1.14c-0.78-0.01-1.27,0.43-1.61,1.04c-1.09,1.92-1.94,3.94-2.44,6.1
		c-0.09,0.39-0.11,0.82-0.09,1.22c0.02,0.59,0.35,1.03,0.91,1.17c0.99,0.25,1.98,0.2,2.84-0.44c0.51-0.39,0.79-0.98,0.59-1.6
		c-0.2-0.62-0.81-0.57-1.36-0.55C5.72,17.01,5.63,17.01,5.44,17.01z"/>
	<path class="st1" d="M18.29,12.06c-0.76-0.19-1.18,0.16-1.4,0.71c-0.48,1.18-0.95,2.37-1.33,3.59c-0.1,0.31,0.13,0.73,0.21,1.1
		c0.39-0.18,0.82-0.3,1.15-0.55c0.2-0.15,0.26-0.49,0.38-0.75c-0.08,0.01-0.16,0.03-0.23,0.04c-0.16-0.37-0.46-0.75-0.43-1.11
		c0.05-0.63,0.5-1.01,1.16-1.1c1.58-0.21,2.21,0.46,1.82,2c-0.45,1.8-1.39,3.2-3.3,3.67c-2.17,0.53-3.53-0.73-3.2-2.93
		c0.27-1.84,0.88-3.56,1.93-5.11c1.03-1.52,2.89-2.07,4.62-1.43c0.91,0.34,1.21,0.88,1.06,1.87c-0.14,0.91-0.72,1.45-1.59,1.5
		c-0.66,0.04-0.98-0.31-0.9-0.97C18.25,12.45,18.27,12.28,18.29,12.06z"/>
	<path class="st1" d="M27.25,12.85c-0.25,1.83-0.84,3.94-2.26,5.7c-0.93,1.16-2.33,1.49-3.74,1.02c-0.8-0.27-1.31-0.85-1.28-1.73
		c0.08-2.45,0.85-4.69,2.26-6.68c0.77-1.08,2.6-1.45,3.84-0.94C26.92,10.57,27.29,11.27,27.25,12.85z M22.24,17.07
		c0.13,0.14,0.33,0.46,0.41,0.44c0.29-0.1,0.68-0.26,0.78-0.5c0.54-1.36,1.03-2.74,1.49-4.13c0.08-0.23-0.11-0.54-0.17-0.82
		c-0.29,0.15-0.73,0.23-0.84,0.46c-0.47,1-0.86,2.03-1.25,3.07C22.48,16.03,22.39,16.51,22.24,17.07z"/>
	<path class="st1" d="M11.17,13.55c0.25,0,0.47-0.01,0.69,0c0.45,0.02,1.1-0.04,1.11,0.52c0.01,0.47-0.29,1.04-0.62,1.41
		c-0.22,0.25-0.75,0.29-1.15,0.3c-1.04,0.04-1.15,0.13-1.18,1.26c0.43-0.04,0.87-0.18,1.27-0.11c0.41,0.07,1.03,0.25,1.13,0.54
		c0.14,0.39,0.01,1.02-0.23,1.39c-0.58,0.88-2.38,1.13-3.54,0.61c-0.89-0.4-1.26-1.26-1.08-2.51c0.27-1.86,0.91-3.59,1.81-5.23
		c0.86-1.57,2.01-2.02,4.06-1.75c0.53,0.07,1.03,0.32,1.06,1c0.03,0.65-0.33,1.05-0.9,1.24c-0.36,0.12-0.76,0.21-1.13,0.18
		C11.65,12.33,11.3,12.75,11.17,13.55z"/>
	<path class="st1" d="M5.44,17.01c0.19,0,0.29,0,0.38,0c0.54-0.03,1.16-0.08,1.36,0.55c0.2,0.62-0.08,1.22-0.59,1.6
		c-0.85,0.64-1.84,0.69-2.84,0.44c-0.56-0.14-0.89-0.58-0.91-1.17c-0.01-0.41,0-0.83,0.09-1.22c0.5-2.16,1.35-4.17,2.44-6.1
		c0.35-0.62,0.83-1.05,1.61-1.04c0.81,0.01,1.1,0.32,0.96,1.14c-0.07,0.38-0.18,0.75-0.34,1.11c-0.57,1.28-1.16,2.55-1.74,3.82
		C5.73,16.41,5.59,16.68,5.44,17.01z"/>
	<path class="st0" d="M22.24,17.07c0.15-0.56,0.24-1.03,0.41-1.48c0.39-1.03,0.78-2.07,1.25-3.07c0.11-0.23,0.55-0.31,0.84-0.46
		c0.06,0.28,0.25,0.59,0.17,0.82c-0.46,1.39-0.95,2.77-1.49,4.13c-0.1,0.24-0.49,0.4-0.78,0.5C22.57,17.53,22.37,17.21,22.24,17.07z
		"/>
</g>
</svg>
