<?xml version="1.0" encoding="utf-8"?>
<!-- Generator: Adobe Illustrator 25.0.0, SVG Export Plug-In . SVG Version: 6.00 Build 0)  -->
<svg version="1.1" id="Layer_1" xmlns="http://www.w3.org/2000/svg" xmlns:xlink="http://www.w3.org/1999/xlink" x="0px" y="0px"
	 viewBox="0 0 125 21" style="enable-background:new 0 0 125 21;" xml:space="preserve">
<style type="text/css">
	.st0{fill:#AFAFAF;}
</style>
<g>
	<path class="st0" d="M10.2,21c-5.2,0-9.1-3.4-9.9-8.5C-0.5,7.2,3.8,1.9,9.1,1.7c5-0.1,10.1-0.1,15.1-0.1c4.4,0,7.6,2,9.3,6.1
		c2.4,5.7-1.5,12.6-7.7,13.1C23,21.1,20.1,21,17.2,21C15.5,21,12.6,21,10.2,21z M17.2,17.2c2.4,0,4.9,0,7.3,0c3.2,0,5.9-2.6,6-5.8
		c0-3.3-2.6-6-5.9-6c-4.9,0-9.8,0-14.8,0C6.7,5.4,4,8.2,4,11.3c0.1,3.3,2.6,5.9,5.9,5.9C12.4,17.2,14.8,17.2,17.2,17.2z"/>
	<path class="st0" d="M44.7,16.9c0-2,0-4.1,0-6.1c0-0.5-0.1-1.1-0.2-1.6c-0.3-1.1-1.1-1.7-2.1-1.6c-0.9,0-1.7,0.8-1.9,1.8
		c-0.1,0.4-0.1,0.8-0.1,1.2c0,2.1,0,4.2,0,6.4c-0.7,0-1.3,0-2,0c-0.1,0-0.3-0.3-0.3-0.4c0-2.4-0.1-4.8,0-7.2
		c0.1-1.7,1.1-3.1,2.7-3.8c1.7-0.7,3.4-0.3,4.7,1c0.1,0.1,0.2,0.1,0.1,0.1c0.9-0.5,1.7-1.1,2.6-1.3c2.6-0.6,5.1,1,5.2,3.8
		c0.2,2.6,0,5.1,0,7.8c-0.6,0-1.3,0-2.1,0c0-0.3,0-0.6,0-0.9c0-1.8,0-3.7,0-5.5c0-0.4,0-0.8-0.1-1.2c-0.3-1.1-1.2-1.8-2.1-1.8
		c-1,0.1-1.9,0.9-2,2.1C47,10.9,47,12.2,47,13.5c0,0.5,0,1.1,0,1.6C47,17.2,46.9,17.3,44.7,16.9z"/>
	<path class="st0" d="M99.2,0c0,0,1.5,0,2.3,0c0,1,0,2.1,0,3.1s0,2.1,0,3.2c0.7-0.3,1.2-0.5,1.7-0.7c3.4-1.2,7.1,1,7.7,4.6
		c0.5,3.2-1.2,6.1-4.2,6.9c-3.4,0.9-6.7-1.1-7.3-4.6c-0.1-0.7-0.2-1.3-0.2-2C99.2,7.2,99.2,0,99.2,0z M105.1,15c2,0,3.7-1.6,3.7-3.6
		c0-2.1-1.7-3.9-3.7-3.9s-3.6,1.7-3.6,3.7C101.5,13.4,103,15,105.1,15z"/>
	<path class="st0" d="M85,17.3c-3.3,0-5.9-2.6-5.9-6c0-3.5,2.5-6.1,5.9-6.1c3.3,0,5.9,2.7,5.9,6.1C90.9,14.6,88.3,17.3,85,17.3z
		 M88.4,11.3c0-2.1-1.4-3.7-3.5-3.7c-1.9,0-3.6,1.8-3.6,3.7c0,2.1,1.6,3.8,3.6,3.8C87,15,88.4,13.5,88.4,11.3z"/>
	<path class="st0" d="M70.6,7.2c-0.5,0.5-1,1.1-1.6,1.7c-1-0.9-2.1-1.6-3.6-1.3c-0.9,0.2-1.7,0.6-2.2,1.4c-1.2,1.6-1,3.7,0.4,5
		c1.2,1.2,3.3,1.6,5.4-0.3c0.5,0.5,1.1,1,1.6,1.5c-1.7,2.2-5.8,3.1-8.5,0.5c-2.5-2.3-2.6-6.5-0.2-8.8C64.2,4.6,68.3,4.7,70.6,7.2z"
		/>
	<path class="st0" d="M124.9,17.5c-1.1-0.4-2-0.6-2.8-0.9c-1.8-0.8-2.5-2.5-2.6-4.4c-0.1-1.1,0-2.1-0.1-3.2c0-1,0-1-1.1-1.1
		c0-0.6-0.1-1.3,0-1.9c0.1-0.2,0.6-0.4,1.1-0.6c0-0.4,0-1.1,0-1.7c0-0.5,0.2-0.7,0.7-0.7c0.5,0,1,0,1.6,0c0,0.8,0,1.4,0,2.1
		c0,0.4,0.2,0.5,0.5,0.5c0.7,0,1.4,0,2.1,0c0.4,0,0.5,0.1,0.5,0.5c0,0,0,0.1,0,0.1c0.1,1.6,0.1,1.6-1.5,1.6c-1.6,0-1.6,0-1.6,1.6
		c0,1,0,2,0.1,3c0.1,1.3,1,2.1,2.2,2.3c0.6,0.1,0.8,0.3,0.8,1C124.9,16.2,124.9,16.8,124.9,17.5z"/>
	<path class="st0" d="M72.6,17c0-2.5-0.1-5,0-7.4c0.1-2.2,1.8-3.7,3.9-4c0.5-0.1,0.9-0.1,1.6-0.2c0,0.7,0,1.4,0,2.1
		c0,0.1-0.3,0.3-0.4,0.4C75.7,8.3,75.1,9,75,11c0,1.7,0,3.5,0,5.2c0,0.6-0.2,0.8-0.8,0.8C73.7,16.9,73.1,17,72.6,17z"/>
	<path class="st0" d="M115.6,5.6c0,3.8,0,7.5,0,11.4c-0.8,0-1.5,0-2.3,0c0-3.8,0-7.5,0-11.4C114.1,5.6,114.8,5.6,115.6,5.6z"/>
	<path class="st0" d="M58.1,16.9c-0.8,0-1.5,0-2.2,0c0-0.2,0-0.4,0-0.6c0-3.4,0-6.8,0-10.1c0-0.6,0.2-0.8,0.7-0.7
		c1.9,0,1.6-0.2,1.6,1.6c0,3,0,6,0,9C58.2,16.3,58.2,16.6,58.1,16.9z"/>
	<path class="st0" d="M95.1,17c-0.9,0-1.6-0.7-1.6-1.6c0-0.9,0.7-1.6,1.7-1.6c0.9,0,1.6,0.7,1.6,1.7C96.7,16.3,96,17,95.1,17z"/>
	<path class="st0" d="M95.1,8.4c-0.9,0-1.6-0.7-1.6-1.6c0-0.9,0.7-1.6,1.6-1.6c0.9,0,1.6,0.7,1.6,1.6C96.7,7.7,96,8.4,95.1,8.4z"/>
	<path class="st0" d="M57,0.7c0.9,0,1.5,0.6,1.5,1.5c0,0.8-0.7,1.4-1.5,1.4c-0.9,0-1.5-0.7-1.5-1.6C55.5,1.2,56.1,0.7,57,0.7z"/>
	<path class="st0" d="M114.4,0.7c0.9,0,1.6,0.6,1.6,1.6c0,0.8-0.7,1.4-1.5,1.4c-0.9,0-1.5-0.6-1.5-1.5C113,1.2,113.5,0.7,114.4,0.7z
		"/>
	<path class="st0" d="M24.3,13.2c-1,0-1.9-1-1.9-1.9c0-1,0.9-1.9,1.9-1.9c1,0,1.9,1,1.9,1.9C26.2,12.3,25.3,13.2,24.3,13.2z"/>
	<path class="st0" d="M8.1,11.3c0-1.1,0.7-1.8,1.9-1.8c1.1,0,1.9,0.8,1.9,1.9c0,1-0.8,1.9-1.9,1.9C8.9,13.2,8.1,12.4,8.1,11.3z"/>
</g>
</svg>
