<?xml version="1.0" encoding="utf-8"?>
<!-- Generator: Adobe Illustrator 25.0.0, SVG Export Plug-In . SVG Version: 6.00 Build 0)  -->
<svg version="1.1" id="Layer_1" xmlns="http://www.w3.org/2000/svg" xmlns:xlink="http://www.w3.org/1999/xlink" x="0px" y="0px"
	 viewBox="0 0 125 48" style="enable-background:new 0 0 125 48;" xml:space="preserve">
<style type="text/css">
	.st0{fill:#AFAFAF;}
	.st1{fill:#FFFFFF;}
</style>
<g>
	<path class="st0" d="M17.25,34.87c-2.34,0-4.68,0.01-7.02,0c-5.24-0.02-9.14-3.38-9.93-8.54c-0.8-5.28,3.5-10.62,8.82-10.77
		c5.04-0.14,10.08-0.13,15.11-0.1c4.37,0.03,7.57,2.03,9.29,6.1c2.44,5.74-1.51,12.57-7.69,13.14c-2.84,0.26-5.73,0.04-8.59,0.04
		C17.25,34.79,17.25,34.83,17.25,34.87z M17.24,31.04c2.44,0,4.87,0.01,7.31,0c3.23-0.02,5.93-2.65,5.95-5.78
		c0.02-3.27-2.6-5.99-5.87-6.01c-4.92-0.03-9.84-0.03-14.76,0C6.66,19.27,3.95,22.01,4,25.11c0.05,3.33,2.63,5.92,5.93,5.93
		C12.37,31.05,14.8,31.04,17.24,31.04z"/>
	<path class="st0" d="M44.68,30.74c0-2.05,0.01-4.08-0.01-6.1c-0.01-0.53-0.06-1.07-0.2-1.57c-0.29-1.06-1.14-1.69-2.1-1.65
		c-0.89,0.04-1.7,0.76-1.94,1.77c-0.09,0.39-0.13,0.81-0.13,1.22c-0.01,2.1-0.01,4.19-0.01,6.42c-0.68,0-1.32,0.02-1.95-0.02
		c-0.12-0.01-0.32-0.28-0.32-0.44c-0.01-2.41-0.09-4.83,0.05-7.23c0.11-1.74,1.06-3.13,2.74-3.77c1.74-0.66,3.36-0.33,4.71,1.04
		c0.07,0.07,0.15,0.12,0.08,0.07c0.91-0.46,1.68-1.06,2.56-1.26c2.64-0.63,5.06,1.05,5.25,3.76c0.18,2.56,0.04,5.15,0.04,7.8
		c-0.6,0-1.3,0-2.1,0c0-0.29,0-0.57,0-0.85c0-1.83,0.01-3.67-0.01-5.5c0-0.41-0.05-0.82-0.14-1.21c-0.28-1.13-1.16-1.84-2.14-1.78
		c-1,0.07-1.89,0.93-1.97,2.06c-0.09,1.3-0.08,2.6-0.11,3.9c-0.01,0.53,0,1.06,0,1.59C46.97,31.08,46.92,31.11,44.68,30.74z"/>
	<path class="st0" d="M99.28,13.85c0.74,0,1.42,0,2.23,0c0,1.04,0,2.07,0,3.1c0,1.03,0,2.06,0,3.19c0.65-0.27,1.18-0.53,1.74-0.72
		c3.43-1.17,7.06,1.03,7.65,4.62c0.52,3.23-1.2,6.1-4.16,6.92c-3.36,0.93-6.68-1.14-7.32-4.59c-0.12-0.66-0.18-1.34-0.18-2.01
		c-0.02-3.28-0.01-6.56-0.01-9.84C99.22,14.31,99.25,14.1,99.28,13.85z M105.09,28.9c2.03,0,3.71-1.65,3.71-3.63
		c0-2.09-1.69-3.86-3.68-3.85c-1.99,0.01-3.64,1.69-3.64,3.71C101.49,27.28,103.04,28.9,105.09,28.9z"/>
	<path class="st0" d="M85,31.16c-3.29,0.01-5.87-2.63-5.88-6.02c-0.01-3.46,2.52-6.11,5.86-6.11c3.28-0.01,5.92,2.72,5.93,6.11
		C90.91,28.46,88.27,31.15,85,31.16z M88.43,25.13c0-2.15-1.44-3.7-3.47-3.71c-1.88-0.02-3.6,1.77-3.57,3.71
		c0.03,2.12,1.59,3.77,3.55,3.77C86.98,28.9,88.43,27.33,88.43,25.13z"/>
	<path class="st0" d="M70.55,21.08c-0.5,0.53-1.01,1.07-1.58,1.66c-1.01-0.92-2.12-1.59-3.56-1.29c-0.9,0.19-1.65,0.64-2.21,1.39
		c-1.15,1.57-1.02,3.69,0.38,5c1.24,1.16,3.27,1.64,5.39-0.28c0.53,0.5,1.07,1,1.6,1.5c-1.71,2.16-5.8,3.09-8.53,0.54
		c-2.45-2.29-2.58-6.49-0.21-8.82C64.19,18.46,68.35,18.57,70.55,21.08z"/>
	<path class="st0" d="M124.9,31.39c-1.07-0.35-1.96-0.56-2.78-0.93c-1.84-0.84-2.46-2.49-2.59-4.35c-0.08-1.06-0.04-2.12-0.05-3.18
		c-0.01-1.03,0-1.03-1.11-1.15c0-0.63-0.09-1.29,0.04-1.9c0.05-0.24,0.59-0.37,1.07-0.64c0-0.44,0.03-1.07-0.01-1.68
		c-0.03-0.51,0.18-0.69,0.67-0.67c0.52,0.03,1.04,0.01,1.63,0.01c0,0.78,0.01,1.43,0,2.07c-0.01,0.37,0.15,0.52,0.52,0.51
		c0.7-0.02,1.4,0.01,2.1-0.01c0.38-0.01,0.53,0.14,0.52,0.51c0,0.05,0,0.1,0,0.14c0.06,1.59,0.06,1.59-1.53,1.59
		c-1.6,0-1.62,0-1.6,1.61c0.01,0.99,0.03,1.98,0.14,2.95c0.14,1.26,0.97,2.1,2.22,2.32c0.58,0.1,0.84,0.34,0.78,0.95
		C124.86,30.07,124.9,30.62,124.9,31.39z"/>
	<path class="st0" d="M72.62,30.83c0-2.55-0.11-4.96,0.03-7.36c0.13-2.16,1.75-3.68,3.91-4.01c0.47-0.07,0.94-0.12,1.57-0.2
		c0,0.74,0.03,1.4-0.02,2.06c-0.01,0.13-0.27,0.32-0.44,0.36c-1.97,0.43-2.6,1.17-2.63,3.17c-0.02,1.74-0.03,3.47,0.01,5.21
		c0.01,0.59-0.16,0.83-0.77,0.78C73.72,30.79,73.14,30.83,72.62,30.83z"/>
	<path class="st0" d="M115.63,19.42c0,3.8,0,7.54,0,11.35c-0.75,0-1.48,0-2.28,0c0-3.75,0-7.52,0-11.35
		C114.1,19.42,114.85,19.42,115.63,19.42z"/>
	<path class="st0" d="M58.13,30.79c-0.77,0-1.48,0-2.24,0c-0.02-0.22-0.05-0.41-0.05-0.59c0-3.37,0.01-6.75-0.02-10.12
		c0-0.59,0.19-0.75,0.74-0.73c1.91,0.05,1.6-0.23,1.61,1.6c0.02,2.99,0.01,5.98,0,8.97C58.18,30.19,58.15,30.48,58.13,30.79z"/>
	<path class="st0" d="M95.06,30.83c-0.94-0.01-1.6-0.69-1.6-1.65c0-0.91,0.74-1.63,1.65-1.61c0.93,0.02,1.62,0.73,1.61,1.66
		C96.71,30.15,95.99,30.84,95.06,30.83z"/>
	<path class="st0" d="M95.1,22.29c-0.92,0.01-1.64-0.7-1.64-1.63c0-0.92,0.72-1.64,1.64-1.63c0.9,0.01,1.62,0.7,1.62,1.58
		C96.72,21.51,95.98,22.28,95.1,22.29z"/>
	<path class="st0" d="M56.96,14.53c0.9,0,1.55,0.65,1.54,1.54c-0.01,0.77-0.72,1.44-1.52,1.43c-0.9-0.01-1.54-0.66-1.52-1.56
		C55.49,15.1,56.1,14.53,56.96,14.53z"/>
	<path class="st0" d="M114.39,14.53c0.94-0.01,1.58,0.64,1.56,1.58c-0.01,0.78-0.7,1.41-1.53,1.39c-0.89-0.01-1.46-0.61-1.46-1.52
		C112.97,15.1,113.52,14.53,114.39,14.53z"/>
	<path class="st1" d="M17.24,31.04c-2.44,0-4.87,0.01-7.31,0c-3.3-0.02-5.88-2.6-5.93-5.93c-0.05-3.1,2.66-5.84,5.87-5.86
		c4.92-0.03,9.84-0.03,14.76,0c3.27,0.02,5.89,2.74,5.87,6.01c-0.02,3.13-2.72,5.77-5.95,5.78C22.11,31.05,19.67,31.04,17.24,31.04z
		 M24.3,27.04c0.98,0.02,1.92-0.9,1.92-1.88c0-0.98-0.91-1.91-1.89-1.93c-1.01-0.02-1.9,0.86-1.92,1.88
		C22.4,26.07,23.33,27.02,24.3,27.04z M8.07,25.17c0.01,1.07,0.81,1.88,1.85,1.88c1.04,0,1.86-0.82,1.86-1.87
		c0-1.06-0.79-1.85-1.85-1.85C8.81,23.33,8.06,24.07,8.07,25.17z"/>
	<path class="st1" d="M105.09,28.9c-2.05,0-3.6-1.62-3.6-3.78c0-2.02,1.64-3.7,3.64-3.71c1.99-0.01,3.69,1.76,3.68,3.85
		C108.8,27.25,107.12,28.89,105.09,28.9z"/>
	<path class="st1" d="M88.43,25.13c0,2.2-1.45,3.77-3.48,3.77c-1.96,0-3.52-1.66-3.55-3.77c-0.03-1.94,1.69-3.73,3.57-3.71
		C86.99,21.43,88.43,22.98,88.43,25.13z"/>
	<path class="st0" d="M24.3,27.04c-0.97-0.02-1.9-0.97-1.88-1.93c0.02-1.02,0.91-1.89,1.92-1.88c0.97,0.01,1.88,0.95,1.89,1.93
		C26.22,26.14,25.28,27.06,24.3,27.04z"/>
	<path class="st0" d="M8.07,25.17c-0.01-1.09,0.74-1.83,1.85-1.83c1.07,0,1.86,0.79,1.85,1.85c0,1.05-0.82,1.87-1.86,1.87
		C8.88,27.05,8.08,26.24,8.07,25.17z"/>
</g>
</svg>
