<?xml version="1.0" encoding="utf-8"?>
<!-- Generator: Adobe Illustrator 25.0.0, SVG Export Plug-In . SVG Version: 6.00 Build 0)  -->
<svg version="1.1" id="Layer_1" xmlns="http://www.w3.org/2000/svg" xmlns:xlink="http://www.w3.org/1999/xlink" x="0px" y="0px"
	 viewBox="0 0 125 45.29" style="enable-background:new 0 0 125 45.29;" xml:space="preserve">
<style type="text/css">
	.st0{fill:#AFAFAF;}
</style>
<path class="st0" d="M0.5,13.07c0.03-0.06,0.08-0.11,0.09-0.17c0.11-0.54,0.39-1,0.73-1.41c0.5-0.6,1.11-1.08,1.76-1.52
	c1.27-0.85,2.65-1.51,4.06-2.1c2.54-1.06,5.16-1.89,7.81-2.62c2.31-0.64,4.65-1.2,7-1.67c1.61-0.32,3.23-0.6,4.85-0.86
	c1.39-0.22,2.79-0.41,4.19-0.58c1.04-0.13,2.08-0.23,3.13-0.32c1.56-0.13,3.13-0.24,4.7-0.33c2.05-0.12,4.1-0.14,6.14-0.11
	C46.48,1.4,48,1.44,49.52,1.5c1.12,0.05,2.24,0.13,3.36,0.23c1.23,0.1,2.47,0.22,3.7,0.36c2.52,0.3,5.03,0.7,7.52,1.22
	c3.5,0.72,6.95,1.65,10.32,2.83c2.35,0.83,4.66,1.77,6.9,2.86c0.08,0.04,0.15,0.08,0.22,0.14c-0.8-0.15-1.6-0.31-2.4-0.46
	c-1.3-0.23-2.6-0.46-3.9-0.67c-0.93-0.15-1.86-0.29-2.79-0.43c-0.94-0.13-1.88-0.25-2.82-0.37c-0.95-0.12-1.9-0.23-2.85-0.33
	c-0.78-0.08-1.56-0.15-2.34-0.22c-0.96-0.08-1.93-0.16-2.89-0.23c-0.63-0.05-1.25-0.08-1.88-0.11c-2.24-0.11-4.47-0.18-6.71-0.17
	c-1.59,0.01-3.17,0.03-4.76,0.08c-1.25,0.04-2.49,0.11-3.74,0.19c-1.28,0.09-2.57,0.2-3.85,0.33c-1.22,0.12-2.43,0.25-3.64,0.41
	c-1.37,0.18-2.75,0.38-4.11,0.62c-1.68,0.29-3.36,0.6-5.03,0.96c-2.91,0.61-5.79,1.32-8.62,2.23c-1.54,0.5-3.05,1.07-4.49,1.83
	c-0.81,0.42-1.58,0.9-2.26,1.51c-0.33,0.3-0.64,0.63-0.88,1c-0.59,0.92-0.64,1.87-0.16,2.84c0.3,0.61,0.74,1.11,1.22,1.58
	c0.17,0.16,0.34,0.31,0.49,0.5c-0.08-0.02-0.15-0.03-0.23-0.05c-2.07-0.53-4.12-1.13-6.12-1.89c-1.21-0.46-2.4-0.98-3.52-1.64
	c-0.62-0.37-1.21-0.78-1.72-1.29c-0.46-0.46-0.83-0.98-0.96-1.64c-0.01-0.06-0.06-0.12-0.08-0.18C0.5,13.4,0.5,13.24,0.5,13.07z"/>
<path class="st0" d="M56.13,44.43c0-5.69,0-11.37,0-17.07c0.7,0,1.38,0,2.06,0c0.06,0.2,0.02,0.4,0.03,0.6c0.01,0.21,0,0.41,0,0.66
	c0.09-0.06,0.14-0.09,0.2-0.13c0.73-0.56,1.51-1.01,2.39-1.28c0.91-0.27,1.84-0.3,2.77-0.07c1.18,0.29,2.01,1.04,2.6,2.07
	c0.44,0.77,0.68,1.61,0.81,2.48c0.12,0.79,0.14,1.58,0.1,2.37c-0.06,1.1-0.31,2.16-0.85,3.13c-0.75,1.37-1.85,2.32-3.38,2.7
	c-1.32,0.33-2.62,0.17-3.88-0.35c-0.19-0.08-0.37-0.17-0.56-0.26c-0.05-0.02-0.1-0.04-0.19-0.07c0,0.12,0,0.2,0,0.29
	c0,1.54,0,3.09,0,4.63c0,0.1-0.01,0.2-0.01,0.3C57.52,44.43,56.82,44.43,56.13,44.43z M58.22,37.46c0.04,0.03,0.06,0.04,0.09,0.05
	c1.07,0.51,2.2,0.75,3.39,0.63c1.17-0.12,2.05-0.67,2.63-1.7c0.25-0.44,0.39-0.92,0.48-1.42c0.18-0.99,0.17-1.99,0.03-2.98
	c-0.08-0.59-0.23-1.16-0.53-1.69c-0.4-0.7-0.99-1.13-1.79-1.28c-0.55-0.1-1.1-0.09-1.65,0.04c-0.9,0.2-1.69,0.64-2.44,1.16
	c-0.15,0.1-0.21,0.22-0.21,0.4c0.01,2.18,0,4.36,0,6.54C58.22,37.29,58.22,37.37,58.22,37.46z"/>
<path class="st0" d="M53.51,27.64c-0.02,1.66-0.24,3.29-0.85,4.85c-0.66,1.69-1.7,3.09-3.23,4.09c-1.08,0.7-2.26,1.1-3.53,1.27
	c-1.06,0.14-2.12,0.16-3.19,0c-3.23-0.46-5.52-2.17-6.79-5.2c-0.41-0.98-0.64-2.01-0.77-3.06c-0.12-0.95-0.13-1.89-0.09-2.84
	c0.08-1.78,0.45-3.48,1.29-5.07c1.18-2.22,3.02-3.59,5.46-4.14c1.9-0.43,3.81-0.4,5.67,0.21c2.62,0.85,4.34,2.64,5.27,5.22
	c0.41,1.14,0.63,2.32,0.7,3.53C53.48,26.88,53.49,27.26,53.51,27.64z M50.78,27.64c-0.05-0.65-0.08-1.3-0.16-1.95
	c-0.12-1.03-0.4-2.02-0.89-2.94c-0.73-1.36-1.79-2.36-3.27-2.86c-0.95-0.32-1.94-0.38-2.94-0.3c-0.75,0.06-1.48,0.25-2.16,0.59
	c-1.26,0.63-2.14,1.63-2.73,2.9c-0.48,1.03-0.7,2.13-0.79,3.25c-0.09,1.01-0.07,2.01,0.04,3.02c0.12,1.01,0.35,1.98,0.79,2.9
	c0.75,1.54,1.91,2.63,3.57,3.15c0.97,0.3,1.96,0.35,2.97,0.23c1.22-0.14,2.29-0.6,3.21-1.42c0.92-0.82,1.5-1.85,1.86-3.02
	C50.63,30.03,50.75,28.84,50.78,27.64z"/>
<path class="st0" d="M103.61,40.84c-0.71,0-1.4,0-2.11,0c0-0.11,0-0.21,0-0.3c0-2.22,0-4.44,0-6.66c0-0.64-0.01-1.29-0.11-1.93
	c-0.03-0.23-0.08-0.46-0.15-0.67c-0.2-0.58-0.6-0.97-1.2-1.11c-0.88-0.22-1.74-0.15-2.57,0.21c-0.65,0.28-1.23,0.66-1.8,1.08
	c-0.09,0.06-0.14,0.14-0.12,0.25c0.01,0.07,0,0.13,0,0.2c0,2.87,0,5.75,0,8.62c0,0.1,0,0.2,0,0.29c-0.19,0.05-1.71,0.07-2.06,0.02
	c-0.05-0.18-0.06-12.12-0.01-12.43c0.68,0,1.36,0,2.06,0c0,0.44,0,0.88,0,1.36c0.1-0.07,0.17-0.12,0.23-0.17
	c0.51-0.4,1.05-0.77,1.65-1.05c1.19-0.57,2.43-0.67,3.69-0.26c0.83,0.27,1.45,0.81,1.87,1.57c0.03,0.06,0.06,0.11,0.11,0.19
	c0.08-0.06,0.15-0.11,0.22-0.17c0.64-0.52,1.3-0.99,2.05-1.33c1.13-0.52,2.3-0.64,3.51-0.37c0.97,0.21,1.68,0.77,2.16,1.64
	c0.34,0.63,0.52,1.3,0.58,2.01c0.04,0.39,0.05,0.79,0.05,1.19c0,2.51,0,5.02,0,7.53c0,0.1,0,0.19,0,0.3c-0.7,0-1.38,0-2.08,0
	c-0.01-0.1-0.01-0.19-0.01-0.29c0-2.19,0-4.38,0-6.56c0-0.72-0.02-1.44-0.13-2.15c-0.01-0.04-0.01-0.08-0.02-0.12
	c-0.21-1.06-0.83-1.59-1.91-1.67c-0.83-0.06-1.61,0.1-2.34,0.5c-0.52,0.28-1.01,0.59-1.49,0.94c-0.1,0.08-0.15,0.15-0.14,0.29
	c0.03,0.4,0.07,0.81,0.07,1.21c0.01,2.53,0,5.05,0,7.58C103.61,40.66,103.61,40.75,103.61,40.84z"/>
<path class="st0" d="M124.46,40.42c-0.7,0-1.36,0-2.05,0c-0.03-0.42,0-0.84-0.02-1.28c-0.07,0.03-0.12,0.05-0.16,0.08
	c-0.24,0.16-0.47,0.34-0.71,0.5c-1.33,0.88-2.79,1.22-4.36,0.99c-1.54-0.22-3.04-1.51-3.23-3.32c-0.06-0.58-0.04-1.15,0.08-1.72
	c0.21-0.97,0.79-1.67,1.61-2.19c0.61-0.39,1.3-0.61,2-0.78c0.86-0.21,1.74-0.28,2.62-0.35c0.67-0.06,1.33-0.1,2-0.14
	c0.05,0,0.09-0.01,0.16-0.02c0.01-0.52-0.01-1.01-0.25-1.48c-0.31-0.6-0.84-0.9-1.47-1.03c-0.87-0.18-1.75-0.2-2.64-0.08
	c-0.95,0.13-1.87,0.38-2.77,0.71c-0.07,0.03-0.15,0.04-0.26,0.07c-0.02-0.73,0-1.42-0.01-2.14c0.27-0.06,0.52-0.12,0.78-0.18
	c1.33-0.29,2.67-0.45,4.03-0.37c0.8,0.05,1.6,0.14,2.35,0.45c1.48,0.6,2.24,1.72,2.3,3.3c0.04,1.29,0.02,2.57,0.02,3.86
	c0,1.6,0,3.2,0,4.8C124.46,40.21,124.46,40.3,124.46,40.42z M122.39,33.91c-0.08,0-0.13,0-0.19,0c-0.59,0.04-1.19,0.07-1.78,0.13
	c-0.63,0.06-1.26,0.14-1.89,0.24c-0.63,0.1-1.22,0.33-1.73,0.74c-0.4,0.32-0.65,0.73-0.71,1.23c-0.03,0.2-0.03,0.41-0.02,0.62
	c0.03,0.95,0.53,1.58,1.45,1.82c0.83,0.22,1.67,0.19,2.5-0.04c0.82-0.22,1.52-0.67,2.21-1.15c0.14-0.1,0.19-0.2,0.18-0.37
	c-0.01-0.99,0-1.98,0-2.97C122.4,34.08,122.4,34,122.39,33.91z"/>
<path class="st0" d="M78.48,34.48c-0.01-0.91,0.11-1.9,0.46-2.85c0.49-1.36,1.34-2.41,2.65-3.07c0.64-0.32,1.33-0.49,2.05-0.54
	c0.99-0.08,1.97,0.01,2.89,0.39c1.4,0.58,2.34,1.63,2.91,3.02c0.32,0.78,0.47,1.6,0.52,2.43c0.07,1.13,0,2.24-0.33,3.33
	c-0.34,1.13-0.95,2.08-1.87,2.83c-0.74,0.59-1.59,0.93-2.53,1.06c-0.95,0.13-1.9,0.1-2.82-0.18c-1.64-0.49-2.73-1.59-3.38-3.14
	C78.62,36.73,78.48,35.66,78.48,34.48z M80.63,34.53c0.03,0.43,0.05,0.86,0.1,1.28c0.07,0.63,0.23,1.23,0.53,1.79
	c0.43,0.81,1.08,1.36,1.98,1.6c0.43,0.11,0.86,0.14,1.3,0.11c1.2-0.09,2.09-0.65,2.66-1.71c0.1-0.19,0.18-0.39,0.26-0.59
	c0.18-0.48,0.27-0.98,0.31-1.5c0.08-1,0.07-1.99-0.17-2.98c-0.1-0.42-0.25-0.82-0.47-1.19c-0.5-0.82-1.21-1.34-2.17-1.5
	c-0.67-0.11-1.34-0.1-1.98,0.13c-1.05,0.36-1.68,1.13-2.02,2.16C80.72,32.92,80.65,33.72,80.63,34.53z"/>
<path class="st0" d="M76.56,38.72c0,0.66,0,1.26,0,1.91c-0.16,0.04-0.33,0.08-0.49,0.12c-0.79,0.17-1.6,0.27-2.41,0.23
	c-0.44-0.02-0.87-0.1-1.29-0.24c-0.94-0.33-1.58-0.96-1.91-1.9c-0.19-0.54-0.29-1.1-0.3-1.67c-0.02-0.57-0.01-1.14-0.01-1.71
	c0-1.69,0-3.39,0-5.08c0-0.1,0-0.2,0-0.32c-0.48,0-0.93,0-1.41,0c0-0.6,0-1.16,0-1.76c0.46,0,0.92,0,1.4,0c0-1.21,0-2.38,0-3.58
	c0.71,0,1.39,0,2.1,0c0,1.19,0,2.37,0,3.57c1.45,0,2.88,0,4.32,0c0,0.59,0,1.16,0,1.75c-1.43,0-2.86,0-4.3,0
	c-0.01,0.09-0.02,0.15-0.02,0.22c0,2.07,0,4.14,0.01,6.22c0,0.36,0.03,0.73,0.09,1.08c0.03,0.22,0.12,0.45,0.22,0.65
	c0.25,0.53,0.67,0.81,1.25,0.89c0.72,0.1,1.43,0.05,2.13-0.17C76.14,38.85,76.33,38.79,76.56,38.72z"/>
</svg>
