<?xml version="1.0" encoding="utf-8"?>
<!-- Generator: Adobe Illustrator 25.0.0, SVG Export Plug-In . SVG Version: 6.00 Build 0)  -->
<svg version="1.1" id="Layer_1" xmlns="http://www.w3.org/2000/svg" xmlns:xlink="http://www.w3.org/1999/xlink" x="0px" y="0px"
	 viewBox="0 0 125 25.84" style="enable-background:new 0 0 125 25.84;" xml:space="preserve">
<style type="text/css">
	.st0{clip-path:url(#SVGID_2_);}
	.st1{fill:#AFAFAF;}
	.st2{fill:url(#SVGID_3_);}
</style>
<g>
	<g>
		<defs>
			<rect id="SVGID_1_" y="-0.02" width="17.95" height="25.87"/>
		</defs>
		<clipPath id="SVGID_2_">
			<use xlink:href="#SVGID_1_"  style="overflow:visible;"/>
		</clipPath>
		<g class="st0">
			<path class="st1" d="M6.8,4.51C6.78,1.38,9.29-0.02,9.29-0.02s0.83,3.68,3.72,7.26c3.37,4.16,4.93,6.47,4.93,9.48
				c0,5.05-4.02,9.14-8.97,9.14S0,21.76,0,16.71c0-5,4.43-11.16,5.48-12.17c0,0,0.06,1.39,0.72,3.31c0.59,1.73,0.48,3.61-0.26,5.28
				c-0.43,0.97-0.76,2.18-0.76,3.57c0,2.13,1.7,3.86,3.79,3.86s3.67-1.9,3.67-3.86C12.65,12.92,6.82,9.17,6.8,4.51z"/>
			
				<linearGradient id="SVGID_3_" gradientUnits="userSpaceOnUse" x1="10.9265" y1="3.2994" x2="0.049" y2="16.9685" gradientTransform="matrix(1 0 0 -1 0 25.8359)">
				<stop  offset="0" style="stop-color:#919191"/>
				<stop  offset="0.4" style="stop-color:#AFAFAF;stop-opacity:0"/>
			</linearGradient>
			<path class="st2" d="M12.38,15.24c0.17,0.49,0.27,0.98,0.27,1.47c0,1.96-1.58,3.86-3.67,3.86c-2.09,0-3.79-1.73-3.79-3.86
				c0-1.4,0.33-2.6,0.76-3.57c0.73-1.67,0.85-3.56,0.26-5.28C5.54,5.94,5.48,4.55,5.48,4.55C4.43,5.56,0,11.71,0,16.71
				c0,3.1,1.51,5.83,3.82,7.49C9.81,25.56,14.54,20.7,12.38,15.24z"/>
		</g>
	</g>
	<path class="st1" d="M34.73,12.55c1.43,0,2.58,0,2.58,0v1.56c0.47-0.99,1.33-1.56,2.62-1.56h0.89v2.54h-1.5
		c-1.39,0-1.99,0.72-1.99,2.5v4.5h-2.6V12.55z"/>
	<path class="st1" d="M40.87,17.31c0-2.74,2.18-4.96,4.92-4.96c2.73,0,4.92,2.21,4.92,4.96c0,2.74-2.18,4.96-4.92,4.96
		C43.05,22.27,40.87,20.06,40.87,17.31z M48.18,17.31c0-1.35-1.06-2.48-2.39-2.48c-1.35,0-2.37,1.12-2.37,2.48
		c0,1.35,1.03,2.48,2.37,2.48C47.11,19.79,48.18,18.67,48.18,17.31z"/>
	<path class="st1" d="M51.75,12.55h2.58v1.01c0.59-0.74,1.46-1.2,2.52-1.2c1.35,0,2.35,0.53,2.92,1.51
		c0.65-0.92,1.73-1.51,2.96-1.51c2.41,0,3.61,1.45,3.61,3.91v5.81H63.7v-5.47c0-1.28-0.49-2.02-1.65-2.02
		c-0.99,0-1.71,0.69-1.71,2.29v5.2H57.7v-5.47c0-1.28-0.49-2.02-1.65-2.02c-0.99,0-1.71,0.69-1.71,2.29v5.2h-2.6L51.75,12.55
		L51.75,12.55z"/>
	<path class="st1" d="M78.38,12.08c0-1.57,1.28-2.33,2.6-2.76v3.23h2.17v2.34h-2.17v3.25c0,1.49,0.47,1.58,2.17,1.48v2.44
		c0,0-0.48,0.1-0.93,0.1c-3,0-3.85-0.91-3.85-4.02L78.38,12.08L78.38,12.08z"/>
	<path class="st1" d="M84.31,8.55h2.58v5.04c0.63-0.76,1.54-1.24,2.62-1.24c2.24,0,3.59,1.45,3.59,3.91v5.81h-2.64v-5.45
		c0-1.3-0.59-2.04-1.75-2.04c-0.99,0-1.8,0.69-1.8,2.29v5.2h-2.6L84.31,8.55L84.31,8.55z"/>
	<path class="st1" d="M104.75,17.31c0-3.37,2.47-4.96,4.61-4.96c1.23,0,2.2,0.46,2.83,1.12v-0.93h2.6v9.53h-2.6v-1.07
		c-0.63,0.74-1.63,1.26-2.87,1.26C107.31,22.27,104.75,20.67,104.75,17.31z M112.26,17.29c0-1.41-1.02-2.55-2.43-2.55
		c-1.44,0-2.54,1.09-2.54,2.55c0,1.47,1.1,2.57,2.54,2.57C111.24,19.87,112.26,18.71,112.26,17.29z"/>
	<path class="st1" d="M116.21,12.55h2.58v1.07c0.61-0.78,1.54-1.26,2.62-1.26c2.24,0,3.59,1.45,3.59,3.91v5.81h-2.64v-5.47
		c0-1.28-0.59-2.02-1.75-2.02c-0.99,0-1.8,0.69-1.8,2.29v5.2h-2.6L116.21,12.55L116.21,12.55z"/>
	<path class="st1" d="M28.9,8.55h-5.23v13.53h2.64V11.01h2.4c1.5,0,2.52,1.12,2.52,2.52s-1.03,2.52-2.52,2.52h-2.28
		c0,0,0.99,3.02,4,2.23c2.06-0.63,3.46-2.51,3.46-4.75C33.89,10.76,31.77,8.55,28.9,8.55z"/>
	<path class="st1" d="M94.09,17.26c0.03-2.87,2.55-5.12,5.4-4.88c2.65,0.22,4.44,2.32,4.44,4.92v0.95H96.6
		c0.3,1.05,1.16,1.73,2.52,1.73c0.47,0,0.9-0.11,1.28-0.32c0.76-0.43,1.67-0.52,2.48-0.19l0.65,0.26c-0.82,1.49-2.32,2.54-4.42,2.54
		C96.12,22.27,94.07,20.03,94.09,17.26z M96.71,16.15h4.59c-0.34-0.99-1.16-1.51-2.26-1.51C97.94,14.64,97.11,15.25,96.71,16.15z"/>
	<path class="st1" d="M67.43,17.26c0.03-2.87,2.55-5.12,5.4-4.88c2.65,0.22,4.44,2.32,4.44,4.92v0.95h-7.33
		c0.3,1.05,1.16,1.73,2.52,1.73c0.47,0,0.9-0.11,1.28-0.32c0.76-0.43,1.67-0.52,2.48-0.19l0.65,0.26c-0.82,1.49-2.32,2.54-4.42,2.54
		C69.46,22.27,67.41,20.03,67.43,17.26z M70.05,16.15h4.59c-0.34-0.99-1.16-1.51-2.26-1.51C71.29,14.64,70.45,15.25,70.05,16.15z"/>
</g>
</svg>
