<?xml version="1.0" encoding="utf-8"?>
<!-- Generator: Adobe Illustrator 25.0.0, SVG Export Plug-In . SVG Version: 6.00 Build 0)  -->
<svg version="1.1" id="Layer_1" xmlns="http://www.w3.org/2000/svg" xmlns:xlink="http://www.w3.org/1999/xlink" x="0px" y="0px"
	 viewBox="0 0 125 48" style="enable-background:new 0 0 125 48;" xml:space="preserve">
<style type="text/css">
	.st0{fill:#AFAFAF;}
	.st1{fill:#FEFEFE;}
</style>
<g>
	<path class="st0" d="M15.56,8.08c0.52,0.24,1.1,0.23,1.64,0.37c3.77,0.97,6.53,3.21,8.42,6.57c2.05,3.63,2.2,7.42,0.51,11.12
		c-2.04,4.48-5.58,7.29-10.62,7.84C8.51,34.73,2.4,30.19,1.15,23.27c-0.68-3.76,0.23-7.19,2.61-10.21c0.37-0.47,0.61-0.97,0.55-1.57
		c-0.06-0.51-0.32-0.9-0.78-1.16C2.58,9.79,1.65,9.23,0.7,8.69c-0.3-0.17-0.44-0.34-0.12-0.62c4.58,0,9.16,0,13.74,0
		c0.21,0.08,0.42,0.08,0.62,0C15.15,8.08,15.36,8.08,15.56,8.08z"/>
	<path class="st0" d="M14.94,8.08c-0.21,0.08-0.42,0.07-0.62,0C14.52,8.08,14.73,8.08,14.94,8.08z"/>
	<path class="st0" d="M51.05,28.1c0,1.93,0,3.78,0,5.62c0,0.21,0,0.42-0.05,0.61c-0.19,0.74-0.95,1.27-1.63,1.17
		c-0.82-0.12-1.35-0.71-1.35-1.57c0-4.11,0-8.22,0.01-12.33c0-0.39,0.05-0.79,0.12-1.18c0.96-5.72,7.84-8.24,12.45-4.72
		c3.51,2.69,4.08,8.19,0.75,11.5c-2.87,2.85-6.88,3.14-9.99,1.09C51.29,28.25,51.22,28.2,51.05,28.1z"/>
	<path class="st0" d="M86.12,24.95c1.48,1.84,4.41,2.23,6.5,0.9c0.46-0.29,0.84-0.66,1.22-1.04c0.41-0.41,0.9-0.66,1.5-0.52
		c0.57,0.14,1.1,0.37,1.28,1c0.2,0.67-0.01,1.25-0.51,1.68c-0.61,0.53-1.2,1.08-1.9,1.51c-4.56,2.77-10.51,0.66-12.07-4.29
		c-1.61-5.13,2.42-10.33,7.81-10.14c2.24,0.08,4.11,0.88,5.73,2.42c0.8,0.76,1.37,1.62,1.79,2.61c0.49,1.15,0.11,1.98-1.09,2.39
		c-2.01,0.69-4.03,1.36-6.04,2.04C88.95,23.98,87.54,24.46,86.12,24.95z"/>
	<path class="st0" d="M68.59,15.28c0.93-0.56,1.87-0.97,2.91-1.13c2.3-0.34,4.35,0.18,6.15,1.69c1.86,1.56,2.65,3.55,2.64,5.92
		c-0.01,2,0,4.01-0.01,6.01c0,0.85-0.59,1.55-1.36,1.65c-0.88,0.12-1.61-0.32-1.88-1.11c-0.07-0.22-0.07-0.44-0.07-0.66
		c0-2.05,0-4.11,0-6.16c0-2.43-1.83-4.31-4.17-4.31c-2.38,0-4.24,1.88-4.25,4.31c0,2.05,0,4.11,0,6.16c0,1.05-0.6,1.72-1.52,1.71
		c-0.93-0.01-1.6-0.72-1.6-1.73c0-5.87,0-11.74,0-17.61c0-1.05,0.59-1.71,1.52-1.71c0.91,0,1.6,0.73,1.6,1.74
		c0.01,1.71,0,3.42,0.01,5.13C68.55,15.17,68.56,15.19,68.59,15.28z"/>
	<path class="st0" d="M116.66,29.62c-4.4,0.01-7.92-3.48-7.92-7.83c0-4.27,3.52-7.73,7.84-7.73c4.33,0,7.94,3.57,7.92,7.81
		C124.48,26.14,120.97,29.61,116.66,29.62z"/>
	<path class="st0" d="M40.7,29.94c-2.25-0.06-4.24-0.74-5.71-2.56c-0.29-0.37-0.52-0.77-0.64-1.23c-0.14-0.57,0.05-1.06,0.46-1.46
		c0.39-0.38,0.84-0.41,1.35-0.26c0.51,0.15,0.86,0.49,1.21,0.86c1.23,1.28,2.71,1.73,4.44,1.25c0.34-0.09,0.64-0.27,0.88-0.53
		c0.63-0.65,0.51-1.46-0.31-1.87c-0.77-0.38-1.62-0.48-2.46-0.62c-0.94-0.16-1.86-0.38-2.73-0.8c-3.37-1.64-2.75-5.49-0.73-7.08
		c2.02-1.59,4.25-1.64,6.6-0.96c1.05,0.31,1.95,0.82,2.55,1.75c0.38,0.59,0.38,1.22,0,1.81c-0.3,0.47-0.75,0.73-1.33,0.61
		c-0.47-0.1-0.94-0.24-1.33-0.54c-0.87-0.67-1.86-0.96-2.96-0.91c-0.68,0.03-1.24,0.32-1.7,0.79c-0.56,0.59-0.44,1.35,0.28,1.74
		c0.77,0.42,1.64,0.54,2.49,0.67c0.97,0.14,1.91,0.37,2.79,0.79c3.06,1.45,3.39,5.42,0.63,7.43C43.37,29.62,42.09,29.93,40.7,29.94z
		"/>
	<path class="st0" d="M99.14,24.48c0.03-1.47-0.11-3.14,0.3-4.79c0.73-2.95,2.91-4.83,5.95-5.09c0.4-0.03,0.79-0.08,1.19-0.08
		c0.94,0.01,1.68,0.72,1.7,1.61c0.02,0.84-0.73,1.56-1.66,1.58c-0.49,0.01-0.97,0.05-1.44,0.16c-1.78,0.42-2.76,1.73-2.8,3.85
		c-0.04,2-0.01,4.01-0.02,6.01c-0.01,0.94-0.63,1.65-1.47,1.7c-0.95,0.06-1.72-0.63-1.74-1.59C99.13,26.79,99.14,25.74,99.14,24.48z
		"/>
	<path class="st1" d="M14.12,31.21C8.44,31.23,3.83,26.72,3.81,21.14c-0.02-5.63,4.55-10.16,10.26-10.18
		c5.6-0.02,10.21,4.52,10.22,10.06C24.3,26.61,19.72,31.2,14.12,31.21z"/>
	<path class="st1" d="M55.74,17.17c2.61,0.02,4.71,2.11,4.68,4.68c-0.02,2.58-2.13,4.68-4.67,4.65c-2.59-0.03-4.72-2.15-4.7-4.69
		C51.08,19.25,53.2,17.15,55.74,17.17z"/>
	<path class="st1" d="M93.69,18.92c-2.92,0.98-5.8,1.94-8.69,2.91c-0.16-1.78,1.19-3.69,3.03-4.38
		C89.99,16.72,92.52,17.37,93.69,18.92z"/>
	<path class="st1" d="M116.66,17.16c2.61,0,4.73,2.07,4.7,4.6c-0.02,2.57-2.24,4.8-4.81,4.73c-2.41-0.07-4.68-1.89-4.68-4.65
		C111.87,19.03,114.15,17.16,116.66,17.16z"/>
	<path class="st0" d="M16.19,21.08c-0.03,1.12-0.27,2.16-0.95,3.07c-1.06,1.41-2.7,1.45-3.82,0.08c-1.3-1.59-1.34-4.57-0.07-6.2
		c1.14-1.46,2.82-1.45,3.92,0.05C15.93,18.97,16.15,20,16.19,21.08z"/>
	<path class="st0" d="M22.12,21.06c-0.03,0.81-0.19,1.58-0.69,2.24c-0.76,0.99-1.92,0.98-2.66-0.03c-0.89-1.2-0.89-3.19,0-4.38
		c0.75-1,1.9-1.01,2.66-0.02C21.92,19.52,22.09,20.27,22.12,21.06z"/>
</g>
</svg>
