<?xml version="1.0" encoding="utf-8"?>
<!-- Generator: Adobe Illustrator 25.0.0, SVG Export Plug-In . SVG Version: 6.00 Build 0)  -->
<svg version="1.1" id="Layer_1" xmlns="http://www.w3.org/2000/svg" xmlns:xlink="http://www.w3.org/1999/xlink" x="0px" y="0px"
	 viewBox="0 0 58.82 45.29" style="enable-background:new 0 0 58.82 45.29;" xml:space="preserve">
<style type="text/css">
	.st0{fill:#AFAFAF;}
</style>
<g>
	<g>
		<path class="st0" d="M21.32,11.51c0,3.4,0,6.8,0,10.19c0,0.19,0,0.19,0.19,0.19c4.48,0,8.97,0,13.45,0c0.2,0,0.2,0,0.2-0.2
			c0-6.77,0-13.53,0-20.3c0-0.31-0.03-0.26,0.27-0.26c2.15,0,4.31,0,6.46,0c0.18,0,0.18,0,0.18,0.18c0,5.74,0.02,11.48-0.01,17.22
			c-0.01,2.92-1.12,5.4-3.23,7.43c-1.51,1.45-3.31,2.34-5.37,2.7c-0.56,0.1-1.13,0.15-1.7,0.15c-2.35,0-4.71,0.01-7.06,0
			c-2.61-0.02-4.9-0.91-6.85-2.64c-1.81-1.61-2.91-3.63-3.32-6.02c-0.1-0.56-0.14-1.13-0.14-1.7c0-5.7,0-11.39,0-17.09
			c0-0.24-0.03-0.21,0.21-0.21c2.18,0,4.35,0,6.53,0c0.19,0,0.19,0,0.19,0.19C21.32,4.71,21.32,8.11,21.32,11.51z"/>
	</g>
	<g>
		<path class="st0" d="M20.95,36.89c0.53,0,1.05,0,1.6,0c0,0.25,0,0.49,0,0.73c0.02,0.02,0.04,0.05,0.06,0.07
			c0.43-0.87,1.17-1.03,2.02-1c0.88,0.03,1.51,0.41,1.88,1.23c0.63-1.24,2.29-1.66,3.44-0.88c0.53,0.36,0.84,0.87,0.85,1.5
			c0.02,1.8,0.01,3.59,0.01,5.39c0,0.03-0.02,0.07-0.03,0.13c-0.53,0-1.05,0-1.62,0c0-0.15,0-0.29,0-0.42c0-1.58,0-3.16,0-4.73
			c0-0.49-0.11-0.6-0.6-0.6c-0.43,0-0.85,0-1.28,0c-0.46,0-0.58,0.12-0.58,0.59c0,1.58,0,3.16,0,4.73c0,0.13,0,0.26,0,0.43
			c-0.56,0-1.08,0-1.65,0c0-0.14,0-0.27,0-0.4c0-1.58,0-3.16,0-4.73c0-0.48-0.12-0.61-0.6-0.61c-0.44,0-0.88,0-1.32,0
			c-0.43,0-0.56,0.14-0.56,0.57c0,1.59,0,3.18,0,4.77c0,0.13,0,0.26,0,0.41c-0.56,0-1.07,0-1.61,0
			C20.95,41.66,20.95,39.29,20.95,36.89z"/>
		<path class="st0" d="M0.82,35.09c0.53,0,1.04,0,1.61,0c0,0.14,0,0.28,0,0.42c0,2.14,0,4.27,0,6.41c0,0.53,0.11,0.64,0.64,0.64
			c0.95,0,1.9,0,2.85,0c0.52,0,0.62-0.1,0.62-0.61c0-2.14,0-4.27,0-6.41c0-0.14,0-0.28,0-0.45c0.56,0,1.08,0,1.66,0
			c0,0.13,0,0.26,0,0.39c0,1.86,0,3.71,0,5.57c0,1.81-1.28,3.1-3.1,3.11c-0.51,0-1.03,0.02-1.54-0.02
			c-1.54-0.12-2.73-1.29-2.77-2.82c-0.05-2.02-0.01-4.05-0.01-6.08C0.79,35.2,0.8,35.17,0.82,35.09z"/>
		<path class="st0" d="M38.4,44.05c-0.52,0-1.03,0-1.59,0c0-0.25,0-0.49,0-0.72c-0.41,0.6-0.96,0.87-1.66,0.82
			c-0.63-0.04-1.29-0.02-1.87-0.21c-1.03-0.34-1.6-1.49-1.39-2.52c0.22-1.14,1.14-1.92,2.31-1.94c0.72-0.01,1.44,0,2.16,0
			c0.13,0,0.26,0,0.37,0c0.03-0.06,0.06-0.08,0.06-0.1c0.06-1.07-0.02-1.1-0.99-1.09c-0.81,0.02-1.63,0-2.48,0c0-0.53,0-1.04,0-1.53
			c1.11,0,2.21-0.08,3.29,0.02c0.99,0.09,1.79,1.07,1.81,2.05c0.03,1.7,0.01,3.39,0.01,5.09C38.44,43.97,38.42,44,38.4,44.05z
			 M35.29,40.79c-0.43,0-0.85,0-1.28,0c-0.32,0-0.5,0.15-0.5,0.49c0,0.27,0,0.53,0,0.8c-0.01,0.34,0.18,0.48,0.5,0.48
			c0.77,0,1.53,0,2.3,0c0.33,0,0.5-0.17,0.5-0.49c0-0.33-0.01-0.65,0.01-0.98c0.01-0.25-0.09-0.31-0.32-0.3
			C36.09,40.8,35.69,40.79,35.29,40.79z"/>
		<path class="st0" d="M39.9,34.33c0.55,0,1.05,0,1.6,0c0,1.71,0,3.4,0,5.23c0.2-0.14,0.32-0.2,0.41-0.29
			c0.68-0.77,1.35-1.56,2.05-2.33c0.11-0.12,0.32-0.21,0.49-0.22c0.5-0.03,1-0.01,1.6-0.01c-1,1.15-1.95,2.24-2.91,3.35
			c1.13,1.32,2.26,2.62,3.46,4.02c-0.39,0-0.7-0.04-1,0.01c-0.75,0.11-1.27-0.15-1.72-0.77c-0.59-0.8-1.28-1.52-1.94-2.28
			c-0.09-0.1-0.2-0.18-0.3-0.28c-0.03,0.01-0.06,0.02-0.09,0.04c0,1.08,0,2.16,0,3.26c-0.58,0-1.09,0-1.63,0
			C39.9,40.81,39.9,37.59,39.9,34.33z"/>
		<path class="st0" d="M52.83,40.81c-1.7,0-3.35,0-5,0c-0.02,0.79,0.73,1.6,1.59,1.71c0.47,0.06,0.95,0.03,1.42,0.04
			c0.17,0,0.33,0,0.52,0c0,0.52,0,1,0,1.57c-0.83-0.06-1.66-0.02-2.45-0.19c-1.59-0.34-2.72-1.82-2.73-3.45
			c0-0.42-0.03-0.86,0.05-1.27c0.33-1.77,1.94-2.85,3.81-2.57c1.63,0.24,2.73,1.47,2.78,3.11C52.84,40.09,52.83,40.41,52.83,40.81z
			 M47.75,39.47c1.18,0,2.34,0,3.5,0c-0.16-0.83-0.95-1.43-1.82-1.4C48.6,38.1,47.86,38.72,47.75,39.47z"/>
		<path class="st0" d="M13.33,35.09c0.58,0,1.1,0,1.66,0c0,0.54,0,1.05,0,1.6c0.56,0,1.08,0,1.62,0c0,0.54,0,1.04,0,1.58
			c-0.51,0-1.03,0-1.6,0c0,1.94,0,3.85,0,5.77c-0.58,0-1.1,0-1.65,0c0-1.91,0-3.81,0-5.75c-0.26,0-0.48,0-0.73,0
			c0-0.54,0-1.05,0-1.59c0.23,0,0.45,0,0.71,0C13.33,36.16,13.33,35.64,13.33,35.09z"/>
		<path class="st0" d="M9.77,34.32c0.54,0,1.06,0,1.6,0c0,3.24,0,6.47,0,9.72c-0.53,0-1.05,0-1.6,0C9.77,40.8,9.77,37.57,9.77,34.32
			z"/>
		<path class="st0" d="M55.61,44.06c-0.57,0-1.09,0-1.63,0c0-2.39,0-4.77,0-7.16c0.53,0,1.05,0,1.6,0c0.02,0.24,0.03,0.47,0.06,0.81
			c0.57-1.04,1.46-1.07,2.41-0.98c0,0.51,0,1.02,0,1.57c-0.6,0-1.19,0-1.78,0c-0.56,0-0.66,0.1-0.66,0.66c0,1.55,0,3.11,0,4.66
			C55.61,43.75,55.61,43.88,55.61,44.06z"/>
		<path class="st0" d="M19.47,36.72c0,2.45,0,4.89,0,7.34c-0.53,0-1.04,0-1.58,0c0-2.44,0-4.88,0-7.34
			C18.41,36.72,18.92,36.72,19.47,36.72z"/>
		<path class="st0" d="M19.64,34.81c-0.01,0.54-0.44,0.95-0.99,0.94c-0.55,0-1-0.46-0.98-1c0.02-0.53,0.47-0.96,1-0.96
			C19.23,33.8,19.65,34.25,19.64,34.81z"/>
	</g>
</g>
</svg>
