<?xml version="1.0" encoding="utf-8"?>
<!-- Generator: Adobe Illustrator 25.0.0, SVG Export Plug-In . SVG Version: 6.00 Build 0)  -->
<svg version="1.1" id="Layer_1" xmlns="http://www.w3.org/2000/svg" xmlns:xlink="http://www.w3.org/1999/xlink" x="0px" y="0px"
	 viewBox="0 0 125 93.53" style="enable-background:new 0 0 125 93.53;" xml:space="preserve">
<style type="text/css">
	.st0{fill:#AFAFAF;}
	.st1{opacity:0.35;fill:#AFAFAF;}
</style>
<g>
	<g>
		<path class="st0" d="M120.9,4.27v63.42H4.1V4.27H120.9 M123.32,1.86H1.68v68.25h121.64V1.86L123.32,1.86z"/>
		<g>
			<polygon class="st0" points="93.56,15.69 93.41,15.88 60.34,59.57 58.47,62.04 54.77,62.04 53.59,60.29 57.66,54.91 86.8,16.4 
				90.87,11.03 			"/>
			<polygon class="st1" points="30.81,20.83 30.9,20.82 30.84,20.89 			"/>
			<polygon class="st0" points="60.34,59.57 58.47,62.04 54.77,62.04 53.59,60.29 30.84,20.89 30.81,20.83 30.9,20.82 34.91,15.52 
				37.67,20.29 57.66,54.91 			"/>
			<polygon class="st0" points="93.66,15.86 93.41,15.88 86.8,16.4 37.67,20.29 30.9,20.82 34.91,15.52 35.91,14.2 90.22,9.9 
				90.87,11.03 93.56,15.69 			"/>
		</g>
	</g>
	<g>
		<path class="st0" d="M2.08,77.5h2.69L8.5,88.03l3.72-10.53h2.69L9.56,91.34H7.43L2.08,77.5z"/>
		<path class="st0" d="M17.27,77.5h2.49v2.28h-2.49V77.5z M17.27,80.98h2.49v10.36h-2.49V80.98z"/>
		<path class="st0" d="M33.29,91.34h-2.28v-1.4h-0.04c-0.65,0.92-1.74,1.74-3.4,1.74c-2.77,0-5.12-2.32-5.12-5.48
			c0-3.25,2.36-5.55,5.2-5.55c1.91,0,2.82,1.05,3.12,1.4h0.04V77.5h2.49V91.34z M24.93,86.16c0,1.8,1.22,3.16,2.99,3.16
			c1.76,0,3.03-1.33,3.03-3.16c0-1.83-1.29-3.16-3.03-3.16C26.24,83,24.93,84.27,24.93,86.16z"/>
		<path class="st0" d="M38.75,87.26c0.32,1.27,1.38,2.06,2.71,2.06c0.8,0,1.7-0.22,2.32-0.97h2.8c-1.38,3.29-4.54,3.33-5.03,3.33
			c-3.72,0-5.48-3.07-5.48-5.44c0-2.37,1.78-5.59,5.52-5.59c3.16,0,5.33,2.43,5.33,5.52c0,0.37,0,0.73-0.06,1.1H38.75z M44.33,85.05
			C43.97,83.75,42.87,83,41.6,83c-1.37,0-2.47,0.82-2.88,2.06H44.33z"/>
		<path class="st0" d="M60.18,86.18c0,3.01-2.34,5.5-5.5,5.5s-5.5-2.49-5.5-5.5c0-3.03,2.32-5.54,5.5-5.54
			C57.86,80.64,60.18,83.15,60.18,86.18z M51.67,86.18c0,1.68,1.18,3.14,3.01,3.14c1.83,0,3.01-1.46,3.01-3.14
			c0-1.68-1.16-3.18-3.01-3.18C52.83,83,51.67,84.49,51.67,86.18z"/>
		<path class="st0" d="M63.16,77.5h3.83c6.36,0,7.42,4.3,7.42,6.99c0,1.48-0.37,6.84-7.37,6.84h-3.89V77.5z M66.97,88.85
			c1.4,0,4.88-0.17,4.88-4.36c0-4.38-3.61-4.51-5.01-4.51h-1.12v8.86H66.97z"/>
		<path class="st0" d="M87.67,86.18c0,3.01-2.34,5.5-5.5,5.5s-5.5-2.49-5.5-5.5c0-3.03,2.32-5.54,5.5-5.54S87.67,83.15,87.67,86.18z
			 M79.16,86.18c0,1.68,1.18,3.14,3.01,3.14s3.01-1.46,3.01-3.14c0-1.68-1.16-3.18-3.01-3.18S79.16,84.49,79.16,86.18z"/>
		<path class="st0" d="M92.21,88.08c0.04,0.77,0.62,1.23,1.37,1.23c0.65,0,1.16-0.37,1.16-1.07c0-0.62-0.41-0.86-0.94-1.07
			c-0.36-0.15-0.71-0.24-1.07-0.36c-1.01-0.32-2.64-0.97-2.64-2.99c0-1.42,1.1-3.2,3.5-3.2c1.87,0,3.27,1.29,3.35,3.18h-2.49
			c-0.04-0.41-0.3-0.82-0.93-0.82c-0.67,0-0.94,0.43-0.94,0.88c0,0.82,0.99,1.01,1.59,1.16c1.27,0.3,3.05,0.86,3.05,3.07
			c0,2-1.48,3.57-3.74,3.57c-2.41,0-3.74-1.74-3.76-3.59H92.21z"/>
		<path class="st0" d="M99.82,77.5h2.49v8.36l3.33-4.88h2.94l-3.74,5.07l4.36,5.29h-3.33l-3.55-4.84v4.84h-2.49V77.5z"/>
		<path class="st0" d="M122.21,91.34h-2.28v-1.4h-0.04c-1.2,1.65-2.92,1.74-3.46,1.74c-2.64,0-5.07-2.08-5.07-5.42
			c0-3.25,2.28-5.61,5.14-5.61c1.48,0,2.64,0.62,3.38,1.8h0.04v-1.46h2.28V91.34z M113.85,86.25c0,1.76,1.23,3.07,3.05,3.07
			c1.78,0,2.97-1.29,2.97-3.18c0-1.8-1.18-3.14-2.97-3.14S113.85,84.38,113.85,86.25z"/>
	</g>
</g>
</svg>
